<svg xmlns="http://www.w3.org/2000/svg" width="523.133" height="329.954" viewBox="0 0 523.133 329.954">
  <g id="Grupo_55618" data-name="Grupo 55618" transform="translate(-2436.665 -1350.035)">
    <path id="Trazado_105290" data-name="Trazado 105290" d="M3108.551,1387.246c-61.754-2.495-38.376,96.2,33.261,91.593S3159.208,1389.293,3108.551,1387.246Z" transform="translate(-270.655 -15.809)" fill="#f7f1d7"/>
    <g id="Grupo_55618-2" data-name="Grupo 55618" transform="translate(2834.337 1417.661)">
      <path id="Trazado_105291" data-name="Trazado 105291" d="M3208.445,1468.425c18.217-3.655,35.939,8.106,35.939,8.106s-11.815,17.685-30.032,21.34-35.939-8.105-35.939-8.105S3190.227,1472.08,3208.445,1468.425Z" transform="translate(-3149.853 -1467.721)" fill="#8f8b66"/>
      <path id="Trazado_105292" data-name="Trazado 105292" d="M3129.371,1514.039a.812.812,0,0,1-.393-1.4c.108-.1,11.033-9.958,28.97-18.035a153.321,153.321,0,0,1,55.217-12.687.812.812,0,1,1,.059,1.623c-18.239.672-38.654,5.361-54.609,12.545-17.687,7.963-28.437,17.657-28.543,17.754A.811.811,0,0,1,3129.371,1514.039Z" transform="translate(-3128.712 -1473.76)" fill="#b3ae7f"/>
      <path id="Trazado_105293" data-name="Trazado 105293" d="M3233.064,1482.4a.812.812,0,0,1-.324-1.455l10.948-7.954a.812.812,0,1,1,.954,1.314l-10.948,7.954A.81.81,0,0,1,3233.064,1482.4Z" transform="translate(-3172.819 -1469.896)" fill="#b3ae7f"/>
      <path id="Trazado_105294" data-name="Trazado 105294" d="M3228.35,1501.275a.81.81,0,0,1-.262-.1l-13.615-8.1a.812.812,0,1,1,.83-1.4l13.616,8.1a.812.812,0,0,1-.568,1.5Z" transform="translate(-3165.023 -1477.862)" fill="#b3ae7f"/>
      <path id="Trazado_105295" data-name="Trazado 105295" d="M3193.864,1492.586a.813.813,0,0,1-.47-1.318l7.672-9.207a.812.812,0,1,1,1.247,1.04l-7.671,9.207A.812.812,0,0,1,3193.864,1492.586Z" transform="translate(-3156.146 -1473.696)" fill="#b3ae7f"/>
    </g>
    <g id="Grupo_55640" data-name="Grupo 55640" transform="translate(2807.46 1351.987)">
      <path id="Trazado_105296" data-name="Trazado 105296" d="M3240.608,1375.465c-3.245,1.394-15.756-.054-15.756-.054s7.461-10.306,10.707-11.7,12.809,1.2,12.809,1.2S3243.854,1374.071,3240.608,1375.465Z" transform="translate(-3142.731 -1357.629)" fill="#7d6871"/>
      <g id="Grupo_55620" data-name="Grupo 55620" transform="translate(0 15.405)">
        <g id="Grupo_55619" data-name="Grupo 55619">
          <path id="Trazado_105297" data-name="Trazado 105297" d="M3082.888,1471.415l-.948-.251c18.386-69.34,86.7-90.792,87.366-90.925l.193.961C3168.836,1381.333,3101.134,1402.6,3082.888,1471.415Z" transform="translate(-3081.94 -1380.239)" fill="#54464c"/>
        </g>
      </g>
      <g id="Grupo_55623" data-name="Grupo 55623" transform="translate(64.544 25.772)">
        <path id="Trazado_105298" data-name="Trazado 105298" d="M3217.242,1412.761c-3.3-1.269-11.239-11.042-11.239-11.042s12.537-2.165,15.834-.9,8.327,9.806,8.327,9.806S3220.538,1414.03,3217.242,1412.761Z" transform="translate(-3199.256 -1399.193)" fill="#7d6871"/>
        <g id="Grupo_55622" data-name="Grupo 55622">
          <g id="Grupo_55621" data-name="Grupo 55621">
            <path id="Trazado_105299" data-name="Trazado 105299" d="M3217.333,1406.513c-5.761-2.726-22.9-7.238-23.072-7.284l.249-.949c.708.186,17.4,4.58,23.243,7.346Z" transform="translate(-3194.261 -1398.281)" fill="#54464c"/>
          </g>
        </g>
      </g>
      <g id="Grupo_55626" data-name="Grupo 55626" transform="translate(44.204 39.588)">
        <path id="Trazado_105300" data-name="Trazado 105300" d="M3181.845,1436.8c-3.3-1.269-11.239-11.042-11.239-11.042s12.537-2.166,15.835-.9,8.327,9.807,8.327,9.807S3185.142,1438.073,3181.845,1436.8Z" transform="translate(-3163.859 -1423.235)" fill="#7d6871"/>
        <g id="Grupo_55625" data-name="Grupo 55625">
          <g id="Grupo_55624" data-name="Grupo 55624">
            <path id="Trazado_105301" data-name="Trazado 105301" d="M3181.937,1430.556c-5.761-2.726-22.9-7.239-23.073-7.284l.249-.949c.708.186,17.4,4.58,23.243,7.346Z" transform="translate(-3158.865 -1422.324)" fill="#54464c"/>
          </g>
        </g>
      </g>
      <g id="Grupo_55629" data-name="Grupo 55629" transform="translate(27.509 56.09)">
        <path id="Trazado_105302" data-name="Trazado 105302" d="M3152.794,1465.521c-3.3-1.269-11.239-11.042-11.239-11.042s12.537-2.165,15.834-.9,8.328,9.807,8.328,9.807S3156.091,1466.79,3152.794,1465.521Z" transform="translate(-3134.807 -1451.953)" fill="#7d6871"/>
        <g id="Grupo_55628" data-name="Grupo 55628">
          <g id="Grupo_55627" data-name="Grupo 55627">
            <path id="Trazado_105303" data-name="Trazado 105303" d="M3152.885,1459.274c-5.761-2.727-22.9-7.239-23.073-7.284l.249-.948c.708.186,17.4,4.58,23.243,7.345Z" transform="translate(-3129.813 -1451.042)" fill="#54464c"/>
          </g>
        </g>
      </g>
      <g id="Grupo_55632" data-name="Grupo 55632" transform="translate(14.909 72.656)">
        <path id="Trazado_105304" data-name="Trazado 105304" d="M3130.866,1494.351c-3.3-1.269-11.239-11.042-11.239-11.042s12.537-2.166,15.834-.9,8.328,9.807,8.328,9.807S3134.163,1495.62,3130.866,1494.351Z" transform="translate(-3112.88 -1480.782)" fill="#7d6871"/>
        <g id="Grupo_55631" data-name="Grupo 55631">
          <g id="Grupo_55630" data-name="Grupo 55630">
            <path id="Trazado_105305" data-name="Trazado 105305" d="M3130.958,1488.1c-5.761-2.726-22.9-7.239-23.072-7.283l.249-.949c.708.186,17.4,4.581,23.242,7.346Z" transform="translate(-3107.885 -1479.871)" fill="#54464c"/>
          </g>
        </g>
      </g>
      <g id="Grupo_55636" data-name="Grupo 55636" transform="translate(53.982 0)">
        <g id="Grupo_55634" data-name="Grupo 55634">
          <g id="Grupo_55633" data-name="Grupo 55633">
            <path id="Trazado_105306" data-name="Trazado 105306" d="M3188.395,1366.05c-.908,3.414-9.772,12.359-9.772,12.359s-3.5-12.233-2.59-15.647,8.858-9.331,8.858-9.331S3189.3,1362.637,3188.395,1366.05Z" transform="translate(-3175.882 -1353.431)" fill="#7d6871"/>
          </g>
        </g>
        <g id="Grupo_55635" data-name="Grupo 55635" transform="translate(0.925 7.813)">
          <path id="Trazado_105307" data-name="Trazado 105307" d="M3178.461,1391.07l-.97-.146c.109-.724,2.689-17.791,4.812-23.9l.926.322C3181.135,1373.369,3178.487,1390.893,3178.461,1391.07Z" transform="translate(-3177.491 -1367.027)" fill="#54464c"/>
        </g>
      </g>
      <g id="Grupo_55639" data-name="Grupo 55639" transform="translate(28.595 16.822)">
        <path id="Trazado_105308" data-name="Trazado 105308" d="M3144.467,1394.472c-.269,3.523-7.35,13.936-7.35,13.936s-5.674-11.387-5.4-14.91,7-10.792,7-10.792S3144.737,1390.95,3144.467,1394.472Z" transform="translate(-3131.703 -1382.706)" fill="#7d6871"/>
        <g id="Grupo_55638" data-name="Grupo 55638" transform="translate(4.663 8.279)">
          <g id="Grupo_55637" data-name="Grupo 55637">
            <path id="Trazado_105309" data-name="Trazado 105309" d="M3140.013,1421.487c-.025-.732-.607-17.983.364-24.374l.969.147c-.958,6.3-.36,24.014-.354,24.193Z" transform="translate(-3139.817 -1397.113)" fill="#54464c"/>
          </g>
        </g>
      </g>
    </g>
    <path id="Trazado_105310" data-name="Trazado 105310" d="M2530.626,1668.86c-65.5-30.829-118.2-207.364-7.676-280.537s234.868-26.1,261.476,14.328,41.814,76,89.035,70.1c53.217-6.652,132.273,124.6,3.709,196.107Z" transform="translate(-9.468 0)" fill="#f7f1d7"/>
    <g id="Grupo_55642" data-name="Grupo 55642" transform="translate(2876.388 1460.816)">
      <g id="Grupo_55641" data-name="Grupo 55641">
        <path id="Trazado_105311" data-name="Trazado 105311" d="M3237.662,1614.365q-.445,0-.886-.011a.386.386,0,0,1-.377-.4.4.4,0,0,1,.4-.377,35.743,35.743,0,0,0,4.58-.184.387.387,0,1,1,.081.769A36.4,36.4,0,0,1,3237.662,1614.365Zm-5.491-.423a.416.416,0,0,1-.06,0,35.659,35.659,0,0,1-4.57-1.024.387.387,0,1,1,.219-.742,34.749,34.749,0,0,0,4.47,1,.386.386,0,0,1-.059.768Zm13.809-.56a.386.386,0,0,1-.09-.762,34.924,34.924,0,0,0,4.373-1.364.386.386,0,0,1,.278.721,35.627,35.627,0,0,1-4.47,1.394A.378.378,0,0,1,3245.981,1613.381Zm-22.681-2.053a.386.386,0,0,1-.156-.033,35.892,35.892,0,0,1-4.147-2.181.387.387,0,1,1,.4-.659,34.961,34.961,0,0,0,4.057,2.134.387.387,0,0,1-.157.74Zm31.305-1.276a.387.387,0,0,1-.186-.726,35.1,35.1,0,0,0,3.869-2.456.387.387,0,0,1,.456.625,35.863,35.863,0,0,1-3.955,2.509A.374.374,0,0,1,3254.605,1610.053Zm-39.192-3.556a.384.384,0,0,1-.243-.086,36.089,36.089,0,0,1-3.441-3.178.387.387,0,0,1,.561-.533,35.178,35.178,0,0,0,3.366,3.109.387.387,0,0,1-.243.687Zm46.658-1.9a.386.386,0,0,1-.266-.666,35.349,35.349,0,0,0,3.1-3.371.387.387,0,1,1,.6.486,36.054,36.054,0,0,1-3.173,3.445A.385.385,0,0,1,3262.072,1604.6Zm-53.027-4.8a.384.384,0,0,1-.312-.159,35.88,35.88,0,0,1-2.5-3.956.386.386,0,1,1,.678-.37,35.109,35.109,0,0,0,2.45,3.871.387.387,0,0,1-.312.614Zm58.835-2.392a.387.387,0,0,1-.329-.589,34.927,34.927,0,0,0,2.128-4.059.387.387,0,1,1,.707.313,35.777,35.777,0,0,1-2.175,4.149A.388.388,0,0,1,3267.88,1597.4Zm-63.255-5.723a.387.387,0,0,1-.361-.248,35.645,35.645,0,0,1-1.389-4.474.386.386,0,0,1,.752-.18,34.874,34.874,0,0,0,1.359,4.376.387.387,0,0,1-.361.525Zm-2.156-8.991a.386.386,0,0,1-.384-.347,36.385,36.385,0,0,1-.194-3.75q0-.466.012-.929a.386.386,0,1,1,.772.02q-.011.453-.011.909a35.609,35.609,0,0,0,.19,3.67.387.387,0,0,1-.345.425Zm.239-9.242a.421.421,0,0,1-.061,0,.387.387,0,0,1-.322-.442,35.671,35.671,0,0,1,1.029-4.569.387.387,0,1,1,.741.219,34.994,34.994,0,0,0-1.007,4.47A.386.386,0,0,1,3202.708,1573.447Zm2.622-8.868a.386.386,0,0,1-.352-.544,35.712,35.712,0,0,1,2.186-4.144.386.386,0,1,1,.658.4,35.2,35.2,0,0,0-2.139,4.055A.386.386,0,0,1,3205.33,1564.579Zm63.471-2.425a.385.385,0,0,1-.34-.2,35.2,35.2,0,0,0-2.442-3.879.386.386,0,1,1,.626-.453,36.036,36.036,0,0,1,2.5,3.964.387.387,0,0,1-.34.571Zm-58.63-5.456a.387.387,0,0,1-.3-.63,36.274,36.274,0,0,1,3.181-3.437.386.386,0,0,1,.532.561,35.414,35.414,0,0,0-3.113,3.363A.388.388,0,0,1,3210.171,1556.7Zm53.2-2.032a.384.384,0,0,1-.281-.121,35.343,35.343,0,0,0-3.36-3.117.387.387,0,1,1,.488-.6,36.069,36.069,0,0,1,3.434,3.186.386.386,0,0,1-.281.652Zm-46.492-4.33a.386.386,0,0,1-.227-.7,35.9,35.9,0,0,1,3.958-2.5.387.387,0,0,1,.369.68,35.1,35.1,0,0,0-3.873,2.445A.387.387,0,0,1,3216.881,1550.336Zm39.317-1.505a.383.383,0,0,1-.2-.057,35.06,35.06,0,0,0-4.051-2.143.386.386,0,1,1,.316-.7,35.823,35.823,0,0,1,4.141,2.19.386.386,0,0,1-.2.715Zm-31.2-2.9a.387.387,0,0,1-.138-.748,35.524,35.524,0,0,1,4.475-1.384.386.386,0,0,1,.179.752,34.809,34.809,0,0,0-4.377,1.354A.393.393,0,0,1,3225,1545.927Zm22.756-.872a.388.388,0,0,1-.11-.016,34.9,34.9,0,0,0-4.47-1.013.387.387,0,0,1,.121-.764,35.668,35.668,0,0,1,4.57,1.036.387.387,0,0,1-.11.757Zm-13.764-1.273a.386.386,0,0,1-.039-.771,36.344,36.344,0,0,1,4.679-.178.387.387,0,0,1-.021.773,35.81,35.81,0,0,0-4.579.173Z" transform="translate(-3201.891 -1542.82)" fill="#b5ac84"/>
      </g>
    </g>
    <g id="Grupo_55649" data-name="Grupo 55649" transform="translate(2938.123 1482.71)">
      <g id="Grupo_55648" data-name="Grupo 55648">
        <g id="Grupo_55643" data-name="Grupo 55643">
          <path id="Trazado_105312" data-name="Trazado 105312" d="M3320.162,1602.6A10.838,10.838,0,1,1,3331,1591.759,10.85,10.85,0,0,1,3320.162,1602.6Zm0-20.534a9.7,9.7,0,1,0,9.7,9.7A9.708,9.708,0,0,0,3320.162,1582.063Z" transform="translate(-3309.324 -1580.922)" fill="#b5ac84"/>
        </g>
        <g id="Grupo_55644" data-name="Grupo 55644" transform="translate(4.861 9.342)">
          <path id="Trazado_105313" data-name="Trazado 105313" d="M3319.28,1600.171a1.5,1.5,0,1,1,1.5-1.5A1.5,1.5,0,0,1,3319.28,1600.171Zm0-2.232a.736.736,0,1,0,.736.735A.736.736,0,0,0,3319.28,1597.939Z" transform="translate(-3317.784 -1597.179)" fill="#b5ac84"/>
        </g>
        <g id="Grupo_55645" data-name="Grupo 55645" transform="translate(13.607 9.342)">
          <path id="Trazado_105314" data-name="Trazado 105314" d="M3334.5,1600.171a1.5,1.5,0,1,1,1.5-1.5A1.5,1.5,0,0,1,3334.5,1600.171Zm0-2.232a.736.736,0,1,0,.736.735A.736.736,0,0,0,3334.5,1597.939Z" transform="translate(-3333.004 -1597.179)" fill="#b5ac84"/>
        </g>
        <g id="Grupo_55646" data-name="Grupo 55646" transform="translate(9.234 4.969)">
          <path id="Trazado_105315" data-name="Trazado 105315" d="M3325.394,1591.064a1.5,1.5,0,1,1,1.5,1.5A1.5,1.5,0,0,1,3325.394,1591.064Zm2.232,0a.736.736,0,1,0-.736.736A.736.736,0,0,0,3327.626,1591.064Z" transform="translate(-3325.394 -1589.569)" fill="#b5ac84"/>
        </g>
        <g id="Grupo_55647" data-name="Grupo 55647" transform="translate(9.234 13.715)">
          <path id="Trazado_105316" data-name="Trazado 105316" d="M3325.394,1606.285a1.5,1.5,0,1,1,1.5,1.5A1.5,1.5,0,0,1,3325.394,1606.285Zm2.232,0a.736.736,0,1,0-.736.736A.737.737,0,0,0,3327.626,1606.285Z" transform="translate(-3325.394 -1604.789)" fill="#b5ac84"/>
        </g>
      </g>
    </g>
    <g id="Grupo_55668" data-name="Grupo 55668" transform="translate(2445.236 1352.633)">
      <g id="Grupo_55667" data-name="Grupo 55667" transform="translate(0 0)">
        <g id="Grupo_55653" data-name="Grupo 55653" transform="translate(16.048 9.842)">
          <g id="Grupo_55650" data-name="Grupo 55650" transform="translate(0 19.631)">
            <path id="Trazado_105317" data-name="Trazado 105317" d="M2479.893,1408.51a.382.382,0,0,1-.216-.066.386.386,0,0,1-.1-.536c.433-.643.887-1.285,1.35-1.907a.386.386,0,1,1,.62.461c-.456.613-.9,1.244-1.33,1.877A.385.385,0,0,1,2479.893,1408.51Z" transform="translate(-2479.507 -1405.845)" fill="#b5ac84"/>
          </g>
          <g id="Grupo_55651" data-name="Grupo 55651" transform="translate(3.968 1.242)">
            <path id="Trazado_105318" data-name="Trazado 105318" d="M2486.8,1389.765a.387.387,0,0,1-.289-.642c.923-1.047,1.9-2.067,2.912-3.034a.387.387,0,1,1,.535.558c-.993.952-1.958,1.957-2.868,2.987A.387.387,0,0,1,2486.8,1389.765Zm6.023-5.769a.387.387,0,0,1-.243-.687c1.086-.879,2.223-1.723,3.377-2.506a.387.387,0,1,1,.434.64c-1.136.771-2.255,1.6-3.326,2.467A.381.381,0,0,1,2492.822,1384Zm6.9-4.684a.386.386,0,0,1-.189-.724c1.218-.685,2.479-1.326,3.75-1.9a.386.386,0,0,1,.32.7c-1.25.57-2.492,1.2-3.691,1.876A.381.381,0,0,1,2499.721,1379.313Zm7.587-3.459a.387.387,0,0,1-.13-.75c1.316-.47,2.668-.89,4.017-1.245a.386.386,0,1,1,.2.747c-1.328.351-2.658.763-3.955,1.226A.4.4,0,0,1,2507.308,1375.854Z" transform="translate(-2486.413 -1373.845)" fill="#b5ac84"/>
          </g>
          <g id="Grupo_55652" data-name="Grupo 55652" transform="translate(32.546)">
            <path id="Trazado_105319" data-name="Trazado 105319" d="M2536.532,1372.8a.386.386,0,0,1-.066-.767c.763-.134,1.541-.251,2.311-.349a.387.387,0,0,1,.1.767c-.759.1-1.524.212-2.275.344A.378.378,0,0,1,2536.532,1372.8Z" transform="translate(-2536.146 -1371.683)" fill="#b5ac84"/>
          </g>
        </g>
        <g id="Grupo_55657" data-name="Grupo 55657" transform="translate(7.638 10.734)">
          <g id="Grupo_55654" data-name="Grupo 55654" transform="translate(60.871)">
            <path id="Trazado_105320" data-name="Trazado 105320" d="M2573.435,1374.589a.393.393,0,0,1-.106-.015c-.737-.209-1.486-.4-2.228-.575a.386.386,0,0,1,.175-.753c.753.176,1.515.372,2.263.584a.386.386,0,0,1-.1.758Z" transform="translate(-2570.802 -1373.236)" fill="#b5ac84"/>
          </g>
          <g id="Grupo_55655" data-name="Grupo 55655" transform="translate(0.074 2.079)">
            <path id="Trazado_105321" data-name="Trazado 105321" d="M2515.576,1473.453a.386.386,0,0,1-.005-.773c1.557-.021,3.127-.116,4.667-.282a.386.386,0,0,1,.083.768c-1.564.169-3.159.265-4.74.287Zm-4.709-.156-.031,0c-1.576-.126-3.161-.329-4.711-.6a.387.387,0,0,1,.135-.761c1.526.27,3.086.47,4.638.595a.386.386,0,0,1-.031.772Zm14.068-.857a.386.386,0,0,1-.077-.765c1.521-.313,3.046-.7,4.529-1.16a.386.386,0,0,1,.228.739c-1.507.464-3.056.861-4.6,1.178A.357.357,0,0,1,2524.935,1472.44Zm-23.339-.784a.39.39,0,0,1-.1-.014c-1.521-.422-3.038-.922-4.511-1.488a.387.387,0,1,1,.277-.722c1.45.557,2.944,1.049,4.441,1.465a.386.386,0,0,1-.1.759Zm32.337-1.985a.387.387,0,0,1-.149-.744c1.432-.6,2.854-1.269,4.226-2a.386.386,0,1,1,.363.682c-1.394.744-2.838,1.427-4.292,2.032A.385.385,0,0,1,2533.933,1469.671Zm-41.128-1.388a.386.386,0,0,1-.172-.041c-1.411-.7-2.805-1.483-4.146-2.318a.387.387,0,0,1,.409-.656c1.32.822,2.693,1.59,4.082,2.282a.387.387,0,0,1-.173.733Zm49.436-3.042a.386.386,0,0,1-.214-.708c1.295-.858,2.564-1.788,3.773-2.765a.386.386,0,0,1,.486.6c-1.227.992-2.517,1.937-3.832,2.808A.384.384,0,0,1,2542.241,1465.241Zm-57.427-1.938a.386.386,0,0,1-.235-.079c-1.253-.957-2.476-1.985-3.634-3.058a.386.386,0,1,1,.525-.567c1.141,1.056,2.345,2.069,3.579,3.011a.387.387,0,0,1-.235.694Zm64.75-3.98a.386.386,0,0,1-.27-.663c1.111-1.087,2.183-2.239,3.186-3.424a.386.386,0,1,1,.59.5c-1.018,1.2-2.107,2.374-3.236,3.477A.385.385,0,0,1,2549.565,1459.323Zm-71.661-2.415a.386.386,0,0,1-.289-.129c-1.052-1.177-2.06-2.417-3-3.686a.386.386,0,1,1,.622-.458c.921,1.249,1.913,2.471,2.949,3.63a.387.387,0,0,1-.288.644Zm77.742-4.774a.387.387,0,0,1-.316-.607c.887-1.276,1.722-2.609,2.483-3.963a.387.387,0,0,1,.674.379c-.773,1.375-1.622,2.729-2.523,4.025A.386.386,0,0,1,2555.645,1452.133Zm-83.326-2.807a.387.387,0,0,1-.332-.188c-.811-1.353-1.567-2.762-2.246-4.185a.386.386,0,1,1,.7-.333c.668,1.4,1.413,2.788,2.211,4.121a.387.387,0,0,1-.331.585Zm87.943-5.4a.388.388,0,0,1-.353-.544c.63-1.421,1.2-2.888,1.687-4.361a.386.386,0,1,1,.733.244c-.5,1.5-1.075,2.987-1.714,4.43A.387.387,0,0,1,2560.262,1443.927Zm-91.994-3.1a.386.386,0,0,1-.363-.255c-.54-1.482-1.014-3.008-1.409-4.536a.386.386,0,0,1,.748-.194c.39,1.5.856,3.006,1.388,4.466a.386.386,0,0,1-.231.5A.378.378,0,0,1,2468.268,1440.827Zm94.968-5.835a.386.386,0,0,1-.377-.473c.346-1.512.625-3.06.826-4.6a.387.387,0,1,1,.767.1c-.2,1.566-.488,3.139-.84,4.675A.387.387,0,0,1,2563.235,1434.992Zm-97.328-3.279a.387.387,0,0,1-.381-.326c-.247-1.556-.423-3.143-.522-4.72a.386.386,0,1,1,.771-.049c.1,1.553.271,3.116.515,4.648a.387.387,0,0,1-.321.442A.444.444,0,0,1,2465.907,1431.713Zm98.551-6.055h-.014a.386.386,0,0,1-.372-.4c.021-.592.031-1.193.031-1.787,0-.961-.027-1.933-.083-2.89a.387.387,0,0,1,.772-.045c.057.972.085,1.959.084,2.935,0,.6-.011,1.214-.032,1.815A.386.386,0,0,1,2564.458,1425.658Zm-.547-9.4a.387.387,0,0,1-.382-.328c-.236-1.536-.548-3.078-.93-4.583a.386.386,0,1,1,.749-.19c.387,1.529.705,3.095.945,4.656a.386.386,0,0,1-.323.44A.4.4,0,0,1,2563.91,1416.258Zm-2.312-9.128a.385.385,0,0,1-.363-.256c-.524-1.461-1.124-2.914-1.785-4.32a.387.387,0,1,1,.7-.329c.671,1.427,1.281,2.9,1.813,4.388a.387.387,0,0,1-.233.494A.4.4,0,0,1,2561.6,1407.13Zm-4-8.517a.387.387,0,0,1-.333-.189c-.791-1.335-1.656-2.649-2.571-3.905a.386.386,0,1,1,.625-.455c.931,1.276,1.809,2.61,2.612,3.966a.387.387,0,0,1-.135.53A.391.391,0,0,1,2557.595,1398.613Zm-5.544-7.609a.385.385,0,0,1-.29-.131c-1.029-1.163-2.126-2.291-3.261-3.352a.387.387,0,0,1,.528-.565c1.152,1.078,2.266,2.224,3.312,3.405a.387.387,0,0,1-.289.643Zm-6.878-6.433a.386.386,0,0,1-.236-.081c-1.23-.95-2.52-1.852-3.833-2.68a.386.386,0,1,1,.412-.653c1.334.841,2.645,1.757,3.895,2.722a.386.386,0,0,1-.237.692Zm-7.967-5.023a.383.383,0,0,1-.174-.041c-1.387-.7-2.825-1.342-4.272-1.906a.386.386,0,0,1,.281-.72c1.471.573,2.931,1.224,4.34,1.936a.386.386,0,0,1-.174.731Z" transform="translate(-2465.002 -1376.855)" fill="#b5ac84"/>
          </g>
          <g id="Grupo_55656" data-name="Grupo 55656" transform="translate(0 44.382)">
            <path id="Trazado_105322" data-name="Trazado 105322" d="M2465.259,1453.559h-.012a.387.387,0,0,1-.374-.4c.025-.775.069-1.56.129-2.333a.386.386,0,1,1,.771.061c-.06.761-.1,1.534-.126,2.3A.387.387,0,0,1,2465.259,1453.559Z" transform="translate(-2464.872 -1450.471)" fill="#b5ac84"/>
          </g>
        </g>
        <g id="Grupo_55661" data-name="Grupo 55661" transform="translate(16.048 9.842)">
          <g id="Grupo_55658" data-name="Grupo 55658" transform="translate(0 19.631)">
            <path id="Trazado_105323" data-name="Trazado 105323" d="M2479.893,1408.51a.382.382,0,0,1-.216-.066.386.386,0,0,1-.1-.536c.433-.643.887-1.285,1.35-1.907a.386.386,0,1,1,.62.461c-.456.613-.9,1.244-1.33,1.877A.385.385,0,0,1,2479.893,1408.51Z" transform="translate(-2479.507 -1405.845)" fill="#b5ac84"/>
          </g>
          <g id="Grupo_55659" data-name="Grupo 55659" transform="translate(3.968 1.242)">
            <path id="Trazado_105324" data-name="Trazado 105324" d="M2486.8,1389.765a.387.387,0,0,1-.289-.642c.923-1.047,1.9-2.067,2.912-3.034a.387.387,0,1,1,.535.558c-.993.952-1.958,1.957-2.868,2.987A.387.387,0,0,1,2486.8,1389.765Zm6.023-5.769a.387.387,0,0,1-.243-.687c1.086-.879,2.223-1.723,3.377-2.506a.387.387,0,1,1,.434.64c-1.136.771-2.255,1.6-3.326,2.467A.381.381,0,0,1,2492.822,1384Zm6.9-4.684a.386.386,0,0,1-.189-.724c1.218-.685,2.479-1.326,3.75-1.9a.386.386,0,0,1,.32.7c-1.25.57-2.492,1.2-3.691,1.876A.381.381,0,0,1,2499.721,1379.313Zm7.587-3.459a.387.387,0,0,1-.13-.75c1.316-.47,2.668-.89,4.017-1.245a.386.386,0,1,1,.2.747c-1.328.351-2.658.763-3.955,1.226A.4.4,0,0,1,2507.308,1375.854Z" transform="translate(-2486.413 -1373.845)" fill="#b5ac84"/>
          </g>
          <g id="Grupo_55660" data-name="Grupo 55660" transform="translate(32.546)">
            <path id="Trazado_105325" data-name="Trazado 105325" d="M2536.532,1372.8a.386.386,0,0,1-.066-.767c.763-.134,1.541-.251,2.311-.349a.387.387,0,0,1,.1.767c-.759.1-1.524.212-2.275.344A.378.378,0,0,1,2536.532,1372.8Z" transform="translate(-2536.146 -1371.683)" fill="#b5ac84"/>
          </g>
        </g>
        <g id="Grupo_55662" data-name="Grupo 55662" transform="translate(48.886)">
          <path id="Trazado_105326" data-name="Trazado 105326" d="M2552.71,1373.431l-6.133-4.456-6.133,4.456,2.342-7.21-6.133-4.456h7.581l2.343-7.21,2.343,7.21h7.581l-6.132,4.456Zm-6.133-5.411,4.663,3.387-1.781-5.481,4.663-3.387h-5.764l-1.781-5.481-1.781,5.481h-5.764l4.663,3.387-1.781,5.481Z" transform="translate(-2536.654 -1354.556)" fill="#b5ac84"/>
        </g>
        <g id="Grupo_55666" data-name="Grupo 55666" transform="translate(0 32.411)">
          <g id="Grupo_55663" data-name="Grupo 55663">
            <path id="Trazado_105327" data-name="Trazado 105327" d="M2462.417,1432.634a10.838,10.838,0,1,1,10.838-10.838A10.85,10.85,0,0,1,2462.417,1432.634Zm0-20.534a9.7,9.7,0,1,0,9.7,9.7A9.708,9.708,0,0,0,2462.417,1412.1Z" transform="translate(-2451.58 -1410.959)" fill="#b5ac84"/>
          </g>
          <g id="Grupo_55664" data-name="Grupo 55664" transform="translate(5.622 9.341)">
            <path id="Trazado_105328" data-name="Trazado 105328" d="M2462.859,1430.207a1.5,1.5,0,1,1,1.5-1.5A1.5,1.5,0,0,1,2462.859,1430.207Zm0-2.232a.736.736,0,1,0,.736.735A.737.737,0,0,0,2462.859,1427.976Z" transform="translate(-2461.363 -1427.215)" fill="#b5ac84"/>
          </g>
          <g id="Grupo_55665" data-name="Grupo 55665" transform="translate(12.846 9.341)">
            <path id="Trazado_105329" data-name="Trazado 105329" d="M2475.432,1430.207a1.5,1.5,0,1,1,1.5-1.5A1.5,1.5,0,0,1,2475.432,1430.207Zm0-2.232a.736.736,0,1,0,.735.735A.737.737,0,0,0,2475.432,1427.976Z" transform="translate(-2473.936 -1427.215)" fill="#b5ac84"/>
          </g>
        </g>
      </g>
    </g>
    <g id="Grupo_55696" data-name="Grupo 55696" transform="translate(2869.603 1553.036)">
      <path id="Trazado_105330" data-name="Trazado 105330" d="M3315.589,1720.734c-2.567,1.1-12.463-.043-12.463-.043s5.9-8.152,8.469-9.254,10.132.952,10.132.952S3318.156,1719.631,3315.589,1720.734Z" transform="translate(-3238.169 -1706.626)" fill="#8f8b66"/>
      <g id="Grupo_55670" data-name="Grupo 55670" transform="translate(0 12.184)">
        <g id="Grupo_55669" data-name="Grupo 55669">
          <path id="Trazado_105331" data-name="Trazado 105331" d="M3190.833,1796.63l-.75-.2c14.543-54.847,68.577-71.815,69.106-71.921l.152.761C3258.818,1725.375,3205.265,1742.2,3190.833,1796.63Z" transform="translate(-3190.083 -1724.51)" fill="#b3ae7f"/>
        </g>
      </g>
      <g id="Grupo_55674" data-name="Grupo 55674" transform="translate(51.053 20.385)">
        <path id="Trazado_105332" data-name="Trazado 105332" d="M3297.106,1750.235c-2.608-1-8.89-8.734-8.89-8.734s9.917-1.713,12.524-.709,6.587,7.757,6.587,7.757S3299.714,1751.238,3297.106,1750.235Z" transform="translate(-3282.879 -1739.502)" fill="#8f8b66"/>
        <g id="Grupo_55673" data-name="Grupo 55673">
          <g id="Grupo_55672" data-name="Grupo 55672">
            <g id="Grupo_55671" data-name="Grupo 55671">
              <path id="Trazado_105333" data-name="Trazado 105333" d="M3297.178,1745.293c-4.556-2.157-18.113-5.726-18.25-5.761l.2-.75c.56.147,13.763,3.623,18.385,5.811Z" transform="translate(-3278.929 -1738.781)" fill="#b3ae7f"/>
            </g>
          </g>
        </g>
      </g>
      <g id="Grupo_55678" data-name="Grupo 55678" transform="translate(34.965 31.313)">
        <path id="Trazado_105334" data-name="Trazado 105334" d="M3269.108,1769.252c-2.608-1-8.89-8.734-8.89-8.734s9.917-1.713,12.524-.709,6.587,7.756,6.587,7.756S3271.716,1770.256,3269.108,1769.252Z" transform="translate(-3254.881 -1758.52)" fill="#8f8b66"/>
        <g id="Grupo_55677" data-name="Grupo 55677">
          <g id="Grupo_55676" data-name="Grupo 55676">
            <g id="Grupo_55675" data-name="Grupo 55675">
              <path id="Trazado_105335" data-name="Trazado 105335" d="M3269.181,1764.311c-4.556-2.157-18.114-5.726-18.25-5.761l.2-.75c.56.147,13.763,3.623,18.385,5.811Z" transform="translate(-3250.931 -1757.799)" fill="#b3ae7f"/>
            </g>
          </g>
        </g>
      </g>
      <g id="Grupo_55682" data-name="Grupo 55682" transform="translate(21.76 44.366)">
        <path id="Trazado_105336" data-name="Trazado 105336" d="M3246.129,1791.968c-2.608-1-8.89-8.734-8.89-8.734s9.917-1.713,12.524-.709,6.587,7.757,6.587,7.757S3248.737,1792.971,3246.129,1791.968Z" transform="translate(-3231.901 -1781.235)" fill="#8f8b66"/>
        <g id="Grupo_55681" data-name="Grupo 55681">
          <g id="Grupo_55680" data-name="Grupo 55680">
            <g id="Grupo_55679" data-name="Grupo 55679">
              <path id="Trazado_105337" data-name="Trazado 105337" d="M3246.2,1787.026c-4.557-2.156-18.114-5.726-18.25-5.761l.2-.75c.56.147,13.763,3.623,18.385,5.811Z" transform="translate(-3227.95 -1780.514)" fill="#b3ae7f"/>
            </g>
          </g>
        </g>
      </g>
      <g id="Grupo_55686" data-name="Grupo 55686" transform="translate(11.793 57.47)">
        <path id="Trazado_105338" data-name="Trazado 105338" d="M3228.784,1814.771c-2.608-1-8.89-8.734-8.89-8.734s9.917-1.713,12.524-.71,6.587,7.757,6.587,7.757S3231.391,1815.775,3228.784,1814.771Z" transform="translate(-3214.557 -1804.039)" fill="#8f8b66"/>
        <g id="Grupo_55685" data-name="Grupo 55685">
          <g id="Grupo_55684" data-name="Grupo 55684">
            <g id="Grupo_55683" data-name="Grupo 55683">
              <path id="Trazado_105339" data-name="Trazado 105339" d="M3228.856,1809.83c-4.557-2.157-18.114-5.726-18.25-5.761l.2-.751c.56.146,13.763,3.623,18.385,5.81Z" transform="translate(-3210.606 -1803.318)" fill="#b3ae7f"/>
            </g>
          </g>
        </g>
      </g>
      <g id="Grupo_55691" data-name="Grupo 55691" transform="translate(42.7)">
        <g id="Grupo_55689" data-name="Grupo 55689">
          <g id="Grupo_55688" data-name="Grupo 55688">
            <g id="Grupo_55687" data-name="Grupo 55687">
              <path id="Trazado_105340" data-name="Trazado 105340" d="M3274.289,1713.287c-.718,2.7-7.73,9.776-7.73,9.776s-2.766-9.676-2.048-12.376,7.005-7.381,7.005-7.381S3275.008,1710.587,3274.289,1713.287Z" transform="translate(-3264.392 -1703.306)" fill="#8f8b66"/>
            </g>
          </g>
        </g>
        <g id="Grupo_55690" data-name="Grupo 55690" transform="translate(0.731 6.18)">
          <path id="Trazado_105341" data-name="Trazado 105341" d="M3266.431,1733.077l-.767-.115c.086-.572,2.126-14.072,3.806-18.9l.733.255C3268.547,1719.076,3266.452,1732.938,3266.431,1733.077Z" transform="translate(-3265.664 -1714.06)" fill="#b3ae7f"/>
        </g>
      </g>
      <g id="Grupo_55695" data-name="Grupo 55695" transform="translate(22.619 13.306)">
        <path id="Trazado_105342" data-name="Trazado 105342" d="M3239.542,1735.768c-.213,2.786-5.815,11.023-5.815,11.023s-4.487-9.007-4.275-11.794,5.54-8.537,5.54-8.537S3239.755,1732.982,3239.542,1735.768Z" transform="translate(-3229.446 -1726.461)" fill="#8f8b66"/>
        <g id="Grupo_55694" data-name="Grupo 55694" transform="translate(3.688 6.548)">
          <g id="Grupo_55693" data-name="Grupo 55693">
            <g id="Grupo_55692" data-name="Grupo 55692">
              <path id="Trazado_105343" data-name="Trazado 105343" d="M3236.02,1757.136c-.02-.579-.481-14.224.288-19.279l.766.117c-.757,4.984-.284,18.995-.279,19.136Z" transform="translate(-3235.865 -1737.857)" fill="#b3ae7f"/>
            </g>
          </g>
        </g>
      </g>
    </g>
    <g id="Grupo_55699" data-name="Grupo 55699" transform="translate(2455.765 1493.921)">
      <path id="Trazado_105344" data-name="Trazado 105344" d="M2480.036,1601.636c2.867,2.063,8.073,13.53,8.073,13.53s-12.677-1.083-15.544-3.146a6.4,6.4,0,0,1,7.471-10.384Z" transform="translate(-2469.904 -1600.431)" fill="#7d6871"/>
      <path id="Trazado_105345" data-name="Trazado 105345" d="M2555.063,1693.724a.588.588,0,0,1-.535-.341c-.189-.409-19.412-41.218-64.81-76.023a.589.589,0,0,1,.717-.934c45.639,34.991,64.971,76.052,65.161,76.463a.588.588,0,0,1-.287.781A.581.581,0,0,1,2555.063,1693.724Z" transform="translate(-2478.234 -1607.183)" fill="#54464c"/>
      <g id="Grupo_55697" data-name="Grupo 55697" transform="translate(12.227 25.248)">
        <path id="Trazado_105346" data-name="Trazado 105346" d="M2496.428,1644.435c3.475-.635,15.347,3.567,15.347,3.567s-9.572,8.382-13.046,9.017a6.4,6.4,0,0,1-2.3-12.584Z" transform="translate(-2491.181 -1644.369)" fill="#7d6871"/>
        <path id="Trazado_105347" data-name="Trazado 105347" d="M2502.1,1653.387a.589.589,0,0,1-.113-1.166c10.614-2.085,15.1-3.058,15.147-3.067a.588.588,0,0,1,.25,1.15c-.044.01-4.543.985-15.17,3.073A.608.608,0,0,1,2502.1,1653.387Z" transform="translate(-2495.574 -1646.399)" fill="#54464c"/>
      </g>
      <g id="Grupo_55698" data-name="Grupo 55698" transform="translate(42.491 20.916)">
        <path id="Trazado_105348" data-name="Trazado 105348" d="M2556.581,1643.943c-.4,3.51-7.847,13.663-7.847,13.663s-5.26-11.585-4.865-15.095a6.4,6.4,0,1,1,12.712,1.432Z" transform="translate(-2543.848 -1636.83)" fill="#7d6871"/>
        <path id="Trazado_105349" data-name="Trazado 105349" d="M2551.872,1663.7l-.047,0a.589.589,0,0,1-.54-.633c0-.045.37-4.633,1.439-15.412a.589.589,0,0,1,1.172.117c-1.069,10.764-1.434,15.343-1.438,15.388A.589.589,0,0,1,2551.872,1663.7Z" transform="translate(-2547.01 -1641.21)" fill="#54464c"/>
      </g>
    </g>
    <g id="Grupo_55700" data-name="Grupo 55700" transform="translate(2441.456 1535.218)">
      <path id="Trazado_105350" data-name="Trazado 105350" d="M2445,1672.325c41.614-1.037,69.8,29.353,72.658,55.3,0,0-24.989-.086-31.792-3.339s-15.713-24.1-17.4-27.548-9.237-15.048-9.237-15.048Z" transform="translate(-2445.002 -1672.299)" fill="#8f8b66"/>
      <path id="Trazado_105351" data-name="Trazado 105351" d="M2445,1672.344c28.826,8.633,24.04,29.6,34.984,41.847s37.674,13.449,37.674,13.449c-46.285,9.13-47.642-17.176-53.5-32.881A43.776,43.776,0,0,0,2445,1672.344Z" transform="translate(-2445.002 -1672.318)" fill="#54464c"/>
      <path id="Trazado_105352" data-name="Trazado 105352" d="M2573.541,1779.34q-5.3-7.1-9.887-13.291c-11.693-15.742-20.39-27.447-28.051-36.638l.7-7.4a.98.98,0,1,0-1.952-.183l-.515,5.482a136.343,136.343,0,0,0-15.3-15.609.964.964,0,0,0,0-.425l-2.892-12.469a.981.981,0,0,0-1.911.444l2.434,10.494a104.94,104.94,0,0,0-13.145-8.938.981.981,0,1,0-.983,1.7,101.065,101.065,0,0,1,23.866,18.847l-19.514-1.063a.981.981,0,1,0-.106,1.958l21.46,1.169c.026,0,.049-.01.074-.011,1.873,2.045,3.787,4.243,5.778,6.624a.973.973,0,0,0,.66.883c.029.009.061.012.092.019,7.446,8.987,16.031,20.542,27.728,36.289q4.611,6.207,9.89,13.294a.98.98,0,1,0,1.572-1.173Z" transform="translate(-2469.056 -1683.251)" fill="#b3ae7f"/>
    </g>
    <g id="Grupo_55701" data-name="Grupo 55701" transform="translate(2453.647 1603.479)">
      <path id="Trazado_105353" data-name="Trazado 105353" d="M2498.487,1791.726c-16.352-3.293-32.27,7.253-32.27,7.253s10.594,15.885,26.947,19.178,32.269-7.252,32.269-7.252S2514.84,1795.02,2498.487,1791.726Z" transform="translate(-2466.218 -1791.089)" fill="#8f8b66"/>
      <path id="Trazado_105354" data-name="Trazado 105354" d="M2556.929,1832.567a.507.507,0,0,1-.637-.039,107.1,107.1,0,0,0-25.671-16,138.37,138.37,0,0,0-49.1-11.317.508.508,0,1,1,.039-1.016,139.438,139.438,0,0,1,49.479,11.408,108.116,108.116,0,0,1,25.938,16.171.508.508,0,0,1,.033.717A.492.492,0,0,1,2556.929,1832.567Z" transform="translate(-2472.52 -1796.666)" fill="#b3ae7f"/>
      <path id="Trazado_105355" data-name="Trazado 105355" d="M2512.188,1804.128a.507.507,0,0,1-.593,0l-9.823-7.148a.508.508,0,1,1,.6-.821l9.823,7.148a.508.508,0,0,1,.112.709A.517.517,0,0,1,2512.188,1804.128Z" transform="translate(-2481.252 -1793.203)" fill="#b3ae7f"/>
      <path id="Trazado_105356" data-name="Trazado 105356" d="M2526.754,1813.893l-.036.024-12.229,7.265a.508.508,0,1,1-.519-.873l12.229-7.265a.508.508,0,0,1,.555.85Z" transform="translate(-2486.424 -1800.397)" fill="#b3ae7f"/>
      <path id="Trazado_105357" data-name="Trazado 105357" d="M2549.549,1813.3a.507.507,0,0,1-.685-.089l-6.881-8.271a.508.508,0,1,1,.781-.649l6.881,8.271a.509.509,0,0,1-.066.716Z" transform="translate(-2498.396 -1796.628)" fill="#b3ae7f"/>
    </g>
    <g id="Grupo_55702" data-name="Grupo 55702" transform="translate(2511.202 1418.451)">
      <rect id="Rectángulo_5319" data-name="Rectángulo 5319" width="13.432" height="147.353" transform="translate(0 14.177) rotate(-9.947)" fill="#c46588"/>
      <rect id="Rectángulo_5320" data-name="Rectángulo 5320" width="6.21" height="147.353" transform="translate(0 14.177) rotate(-9.947)" fill="#c4c4c4" style="mix-blend-mode: multiply;isolation: isolate"/>
      <path id="Trazado_105358" data-name="Trazado 105358" d="M2579.608,1480.953l-13.23,2.32,4.332-14.177Z" transform="translate(-2566.378 -1469.096)" fill="#ffbb96"/>
      <path id="Trazado_105359" data-name="Trazado 105359" d="M2575.719,1472.813l-2.789-3.717-1.335,4.367c1.249,1.152,2.026.049,2.026.049A1.336,1.336,0,0,0,2575.719,1472.813Z" transform="translate(-2568.597 -1469.096)" fill="#c46588"/>
    </g>
    <g id="Grupo_55703" data-name="Grupo 55703" transform="translate(2808.538 1449.212)">
      <rect id="Rectángulo_5321" data-name="Rectángulo 5321" width="65.788" height="207.704" transform="translate(17.565 11.692)" fill="#c4c4c4" style="mix-blend-mode: multiply;isolation: isolate"/>
      <rect id="Rectángulo_5322" data-name="Rectángulo 5322" width="76.587" height="219.396" fill="#78646c"/>
      <rect id="Rectángulo_5323" data-name="Rectángulo 5323" width="68.077" height="52.818" transform="translate(4.255 83.289)" fill="#ff9696"/>
      <rect id="Rectángulo_5324" data-name="Rectángulo 5324" width="68.077" height="52.818" transform="translate(4.255 149.74)" fill="#ffbb96"/>
      <rect id="Rectángulo_5325" data-name="Rectángulo 5325" width="68.077" height="52.817" transform="translate(4.255 16.838)" fill="#fff4c5"/>
    </g>
    <path id="Rectángulo_5326" data-name="Rectángulo 5326" d="M11.129,0H385.673A11.129,11.129,0,0,1,396.8,11.129v0a0,0,0,0,1,0,0H0a0,0,0,0,1,0,0v0A11.129,11.129,0,0,1,11.129,0Z" transform="translate(2510.029 1668.86)" fill="#d4c99b"/>
    <g id="Grupo_55706" data-name="Grupo 55706" transform="translate(2530.506 1366.737)">
      <path id="Trazado_105360" data-name="Trazado 105360" d="M2606.237,1694.062a6.309,6.309,0,0,1-6.267-5.582l42.056-272.354a6.308,6.308,0,0,1,6.266-7.034h226.276a6.308,6.308,0,0,1,6.267,5.582l-42.056,272.354a6.307,6.307,0,0,1-6.266,7.034Z" transform="translate(-2599.971 -1391.858)" fill="#54494d"/>
      <path id="Trazado_105361" data-name="Trazado 105361" d="M2710.935,1694.062a6.308,6.308,0,0,1-6.266-5.582l-31.542-272.354a6.307,6.307,0,0,1,6.266-7.034h226.276a6.308,6.308,0,0,1,6.266,5.582l31.542,272.354a6.308,6.308,0,0,1-6.267,7.034Z" transform="translate(-2631.072 -1391.858)" fill="#736369"/>
      <path id="Trazado_105362" data-name="Trazado 105362" d="M2941.88,1692.424H2715.6l-31.542-272.354h226.276Z" transform="translate(-2635.741 -1396.528)" fill="#fff2f6"/>
      <circle id="Elipse_4034" data-name="Elipse 4034" cx="7.405" cy="7.405" r="7.405" transform="matrix(0.924, -0.383, 0.383, 0.924, 81.662, 31.42)" fill="#54494d"/>
      <path id="Trazado_105363" data-name="Trazado 105363" d="M2730.839,1417.043a2.1,2.1,0,0,1-1.667-3.382,18.7,18.7,0,0,0,3.886-11.474,18.883,18.883,0,0,0-36.562-6.63,2.1,2.1,0,0,1-3.937-1.478,23.088,23.088,0,0,1,44.7,8.108,22.874,22.874,0,0,1-4.753,14.033A2.1,2.1,0,0,1,2730.839,1417.043Z" transform="translate(-2639.298 -1379.101)" fill="#736369"/>
      <circle id="Elipse_4035" data-name="Elipse 4035" cx="7.405" cy="7.405" r="7.405" transform="matrix(0.924, -0.383, 0.383, 0.924, 135.282, 31.42)" fill="#54494d"/>
      <path id="Trazado_105364" data-name="Trazado 105364" d="M2824.152,1417.043a2.1,2.1,0,0,1-1.668-3.382,18.7,18.7,0,0,0,3.886-11.474,18.883,18.883,0,0,0-36.562-6.63,2.1,2.1,0,0,1-3.937-1.478,23.088,23.088,0,0,1,44.7,8.108,22.874,22.874,0,0,1-4.753,14.033A2.1,2.1,0,0,1,2824.152,1417.043Z" transform="translate(-2678.99 -1379.101)" fill="#736369"/>
      <circle id="Elipse_4036" data-name="Elipse 4036" cx="7.405" cy="7.405" r="7.405" transform="translate(189.67 40.933) rotate(-76.717)" fill="#54494d"/>
      <path id="Trazado_105365" data-name="Trazado 105365" d="M2917.465,1417.043a2.1,2.1,0,0,1-1.668-3.382,18.7,18.7,0,0,0,3.886-11.474,18.883,18.883,0,0,0-36.562-6.63,2.1,2.1,0,0,1-3.937-1.478,23.088,23.088,0,0,1,44.7,8.108,22.874,22.874,0,0,1-4.753,14.033A2.1,2.1,0,0,1,2917.465,1417.043Z" transform="translate(-2718.682 -1379.101)" fill="#736369"/>
      <circle id="Elipse_4037" data-name="Elipse 4037" cx="7.405" cy="7.405" r="7.405" transform="translate(241.726 35.427) rotate(-45)" fill="#54494d"/>
      <path id="Trazado_105366" data-name="Trazado 105366" d="M3010.778,1417.043a2.1,2.1,0,0,1-1.668-3.382,18.7,18.7,0,0,0,3.886-11.474,18.883,18.883,0,0,0-36.562-6.63,2.1,2.1,0,0,1-3.937-1.478,23.088,23.088,0,0,1,44.7,8.108,22.874,22.874,0,0,1-4.753,14.033A2.1,2.1,0,0,1,3010.778,1417.043Z" transform="translate(-2758.375 -1379.101)" fill="#736369"/>
      <g id="Grupo_55704" data-name="Grupo 55704" transform="translate(104.821 77.323)">
        <path id="Trazado_105367" data-name="Trazado 105367" d="M2906.475,1700.67H2797.547l-15.161-144.447.188-.179c.163-.155,16.177-15.759,10.819-41.751l-.131-.632h10.36l.114.372c.09.292,9.1,29.243,25.3,36.341,6.967-2.7,16.505-21.87,15.983-35.962l-.02-.545h10.283l.042.479c.022.245,2.329,24.657,15.167,35.088l.139.113Zm-107.981-1.051h106.652l-35.462-149.482c-12.213-10.069-14.982-31.626-15.364-35.219h-8.24c.293,14.812-9.541,33.973-16.894,36.518l-.192.066-.187-.079c-15.941-6.794-24.809-33.1-25.961-36.711h-8.3c4.8,24.669-9.261,40.056-11.063,41.907Z" transform="translate(-2782.386 -1513.662)" fill="#736369"/>
      </g>
      <g id="Grupo_55705" data-name="Grupo 55705" transform="translate(191.219 77.597)">
        <rect id="Rectángulo_5327" data-name="Rectángulo 5327" width="34.833" height="1.051" fill="#736369"/>
        <rect id="Rectángulo_5328" data-name="Rectángulo 5328" width="34.833" height="1.051" transform="translate(48.364 186.095)" fill="#736369"/>
        <path id="Trazado_105368" data-name="Trazado 105368" d="M3022.056,1692.664l-4.73-.518a31.776,31.776,0,0,1,6.978,7.555,31.759,31.759,0,0,1,2.74-9.912l-3.966,2.627-40.959-168.894,4.729.519a31.767,31.767,0,0,1-6.976-7.555,31.757,31.757,0,0,1-2.741,9.911l3.967-2.627Z" transform="translate(-2951.621 -1515.137)" fill="#736369"/>
      </g>
    </g>
    <g id="Grupo_55707" data-name="Grupo 55707" transform="translate(2543.74 1404.469)">
      <path id="Trazado_105369" data-name="Trazado 105369" d="M2636.409,1466.992l-13.406.832,12.821,217.6,9.715-71.367Z" transform="translate(-2623.003 -1454.218)" fill="#8f8b66"/>
      <path id="Trazado_105370" data-name="Trazado 105370" d="M2629.2,1467.771l-6.2.385,12.821,217.6,6.2-.385Z" transform="translate(-2623.003 -1454.55)" fill="#c4c4c4" style="mix-blend-mode: multiply;isolation: isolate"/>
      <path id="Trazado_105371" data-name="Trazado 105371" d="M2636.409,1457.536l-13.406.832,5.884-13.606Z" transform="translate(-2623.003 -1444.762)" fill="#ffbb96"/>
      <path id="Trazado_105372" data-name="Trazado 105372" d="M2634.26,1448.767l-2.358-4-1.812,4.191c1.112,1.283,2.008.274,2.008.274A1.336,1.336,0,0,0,2634.26,1448.767Z" transform="translate(-2626.017 -1444.762)" fill="#8f8b66"/>
    </g>
    <path id="Trazado_105373" data-name="Trazado 105373" d="M2725.261,1705.14v-3.233h-17.469V1698.3H2586.728v6.59h-17.393v3.233h17.393v6.618h-13.893v3.233h13.893v6.618h-17.393v3.233h17.393v9.8h-17.393v3.233h17.393v12.973h-13.893v3.233h13.893v11.7h-17.393V1772h17.393v6.618h-13.893v3.233h13.893v6.618h-17.393v3.233h17.393v9.8h-17.393v3.233h17.393v6.618h-13.893v3.233h13.893v2.6h121.065v-5.582h13.969v-3.233h-13.969v-6.618h17.469v-3.233h-17.469v-9.8h17.469v-3.233h-17.469v-6.618h13.969v-3.233h-13.969v-6.618h17.469v-3.233h-17.469v-11.7h13.969v-3.233h-13.969V1737.87h17.469v-3.233h-17.469v-9.8h17.469v-3.233h-17.469v-6.618h13.969v-3.233h-13.969v-6.618Z" transform="translate(-56.433 -148.141)" fill="#dedede" style="mix-blend-mode: multiply;isolation: isolate"/>
    <g id="Grupo_55708" data-name="Grupo 55708" transform="translate(2505.552 1538.108)">
      <rect id="Rectángulo_5329" data-name="Rectángulo 5329" width="121.065" height="130.925" transform="translate(17.393)" fill="#ff9696"/>
      <rect id="Rectángulo_5330" data-name="Rectángulo 5330" width="28.075" height="3.561" transform="translate(0 7.258)" fill="#ff9696"/>
      <rect id="Rectángulo_5331" data-name="Rectángulo 5331" width="28.075" height="3.561" transform="translate(3.5 18.108)" fill="#ff9696"/>
      <rect id="Rectángulo_5332" data-name="Rectángulo 5332" width="28.075" height="3.561" transform="translate(0 28.958)" fill="#ff9696"/>
      <rect id="Rectángulo_5333" data-name="Rectángulo 5333" width="28.075" height="3.561" transform="translate(0 43.307)" fill="#ff9696"/>
      <rect id="Rectángulo_5334" data-name="Rectángulo 5334" width="28.075" height="3.561" transform="translate(3.5 61.156)" fill="#ff9696"/>
      <rect id="Rectángulo_5335" data-name="Rectángulo 5335" width="28.075" height="3.561" transform="translate(0 77.606)" fill="#ff9696"/>
      <rect id="Rectángulo_5336" data-name="Rectángulo 5336" width="28.075" height="3.561" transform="translate(3.5 88.455)" fill="#ff9696"/>
      <rect id="Rectángulo_5337" data-name="Rectángulo 5337" width="28.075" height="3.561" transform="translate(0 99.305)" fill="#ff9696"/>
      <rect id="Rectángulo_5338" data-name="Rectángulo 5338" width="28.075" height="3.561" transform="translate(0 113.654)" fill="#ff9696"/>
      <rect id="Rectángulo_5339" data-name="Rectángulo 5339" width="28.075" height="3.561" transform="translate(3.5 124.504)" fill="#ff9696"/>
      <rect id="Rectángulo_5340" data-name="Rectángulo 5340" width="28.075" height="3.561" transform="translate(155.926 7.532) rotate(180)" fill="#ff9696"/>
      <rect id="Rectángulo_5341" data-name="Rectángulo 5341" width="28.075" height="3.561" transform="translate(152.426 18.382) rotate(180)" fill="#ff9696"/>
      <rect id="Rectángulo_5342" data-name="Rectángulo 5342" width="28.075" height="3.561" transform="translate(155.926 29.231) rotate(180)" fill="#ff9696"/>
      <rect id="Rectángulo_5343" data-name="Rectángulo 5343" width="28.075" height="3.561" transform="translate(155.926 43.581) rotate(180)" fill="#ff9696"/>
      <rect id="Rectángulo_5344" data-name="Rectángulo 5344" width="28.075" height="3.561" transform="translate(152.426 61.43) rotate(180)" fill="#ff9696"/>
      <rect id="Rectángulo_5345" data-name="Rectángulo 5345" width="28.075" height="3.561" transform="translate(155.926 77.88) rotate(180)" fill="#ff9696"/>
      <rect id="Rectángulo_5346" data-name="Rectángulo 5346" width="28.075" height="3.561" transform="translate(152.426 88.729) rotate(180)" fill="#ff9696"/>
      <rect id="Rectángulo_5347" data-name="Rectángulo 5347" width="28.075" height="3.561" transform="translate(155.926 99.579) rotate(180)" fill="#ff9696"/>
      <rect id="Rectángulo_5348" data-name="Rectángulo 5348" width="28.075" height="3.561" transform="translate(155.926 113.928) rotate(180)" fill="#ff9696"/>
      <rect id="Rectángulo_5349" data-name="Rectángulo 5349" width="28.075" height="3.561" transform="translate(152.426 124.778) rotate(180)" fill="#ff9696"/>
      <path id="Trazado_105374" data-name="Trazado 105374" d="M2616.031,1690.086l-7.166,7.166a2.192,2.192,0,0,1-3.1,0h0a2.192,2.192,0,0,1,0-3.1l7.166-7.166a2.191,2.191,0,0,1,3.1,0h0A2.191,2.191,0,0,1,2616.031,1690.086Z" transform="translate(-2577.209 -1681.164)" fill="#ffb5b5"/>
      <path id="Trazado_105375" data-name="Trazado 105375" d="M2653.184,1690.086l-7.166,7.166a2.191,2.191,0,0,1-3.1,0h0a2.191,2.191,0,0,1,0-3.1l7.166-7.166a2.191,2.191,0,0,1,3.1,0h0A2.192,2.192,0,0,1,2653.184,1690.086Z" transform="translate(-2593.013 -1681.164)" fill="#ffb5b5"/>
      <path id="Trazado_105376" data-name="Trazado 105376" d="M2690.337,1690.086l-7.166,7.166a2.192,2.192,0,0,1-3.1,0h0a2.192,2.192,0,0,1,0-3.1l7.166-7.166a2.191,2.191,0,0,1,3.1,0h0A2.191,2.191,0,0,1,2690.337,1690.086Z" transform="translate(-2608.816 -1681.164)" fill="#ffb5b5"/>
      <path id="Trazado_105377" data-name="Trazado 105377" d="M2727.49,1690.086l-7.166,7.166a2.192,2.192,0,0,1-3.1,0h0a2.192,2.192,0,0,1,0-3.1l7.166-7.166a2.192,2.192,0,0,1,3.1,0h0A2.191,2.191,0,0,1,2727.49,1690.086Z" transform="translate(-2624.62 -1681.164)" fill="#ffb5b5"/>
      <path id="Trazado_105378" data-name="Trazado 105378" d="M2764.643,1690.086l-7.166,7.166a2.192,2.192,0,0,1-3.1,0h0a2.192,2.192,0,0,1,0-3.1l7.166-7.166a2.192,2.192,0,0,1,3.1,0h0A2.191,2.191,0,0,1,2764.643,1690.086Z" transform="translate(-2640.424 -1681.164)" fill="#ffb5b5"/>
      <path id="Trazado_105379" data-name="Trazado 105379" d="M2616.031,1721.148l-7.166,7.166a2.192,2.192,0,0,1-3.1,0h0a2.191,2.191,0,0,1,0-3.1l7.166-7.166a2.19,2.19,0,0,1,3.1,0h0A2.19,2.19,0,0,1,2616.031,1721.148Z" transform="translate(-2577.209 -1694.377)" fill="#ffb5b5"/>
      <path id="Trazado_105380" data-name="Trazado 105380" d="M2653.184,1721.148l-7.166,7.166a2.191,2.191,0,0,1-3.1,0h0a2.191,2.191,0,0,1,0-3.1l7.166-7.166a2.19,2.19,0,0,1,3.1,0h0A2.191,2.191,0,0,1,2653.184,1721.148Z" transform="translate(-2593.013 -1694.377)" fill="#ffb5b5"/>
      <path id="Trazado_105381" data-name="Trazado 105381" d="M2690.337,1721.148l-7.166,7.166a2.191,2.191,0,0,1-3.1,0h0a2.191,2.191,0,0,1,0-3.1l7.166-7.166a2.19,2.19,0,0,1,3.1,0h0A2.191,2.191,0,0,1,2690.337,1721.148Z" transform="translate(-2608.816 -1694.377)" fill="#ffb5b5"/>
      <path id="Trazado_105382" data-name="Trazado 105382" d="M2727.49,1721.148l-7.166,7.166a2.192,2.192,0,0,1-3.1,0h0a2.191,2.191,0,0,1,0-3.1l7.166-7.166a2.19,2.19,0,0,1,3.1,0h0A2.191,2.191,0,0,1,2727.49,1721.148Z" transform="translate(-2624.62 -1694.377)" fill="#ffb5b5"/>
      <path id="Trazado_105383" data-name="Trazado 105383" d="M2764.643,1721.148l-7.166,7.166a2.192,2.192,0,0,1-3.1,0h0a2.191,2.191,0,0,1,0-3.1l7.166-7.166a2.19,2.19,0,0,1,3.1,0h0A2.191,2.191,0,0,1,2764.643,1721.148Z" transform="translate(-2640.424 -1694.377)" fill="#ffb5b5"/>
      <path id="Trazado_105384" data-name="Trazado 105384" d="M2616.031,1752.211l-7.166,7.166a2.192,2.192,0,0,1-3.1,0h0a2.191,2.191,0,0,1,0-3.1l7.166-7.166a2.191,2.191,0,0,1,3.1,0h0A2.191,2.191,0,0,1,2616.031,1752.211Z" transform="translate(-2577.209 -1707.59)" fill="#ffb5b5"/>
      <path id="Trazado_105385" data-name="Trazado 105385" d="M2653.184,1752.211l-7.166,7.166a2.191,2.191,0,0,1-3.1,0h0a2.19,2.19,0,0,1,0-3.1l7.166-7.166a2.191,2.191,0,0,1,3.1,0h0A2.192,2.192,0,0,1,2653.184,1752.211Z" transform="translate(-2593.013 -1707.59)" fill="#ffb5b5"/>
      <path id="Trazado_105386" data-name="Trazado 105386" d="M2690.337,1752.211l-7.166,7.166a2.191,2.191,0,0,1-3.1,0h0a2.191,2.191,0,0,1,0-3.1l7.166-7.166a2.191,2.191,0,0,1,3.1,0h0A2.191,2.191,0,0,1,2690.337,1752.211Z" transform="translate(-2608.816 -1707.59)" fill="#ffb5b5"/>
      <path id="Trazado_105387" data-name="Trazado 105387" d="M2727.49,1752.211l-7.166,7.166a2.192,2.192,0,0,1-3.1,0h0a2.191,2.191,0,0,1,0-3.1l7.166-7.166a2.191,2.191,0,0,1,3.1,0h0A2.191,2.191,0,0,1,2727.49,1752.211Z" transform="translate(-2624.62 -1707.59)" fill="#ffb5b5"/>
      <path id="Trazado_105388" data-name="Trazado 105388" d="M2764.643,1752.211l-7.166,7.166a2.192,2.192,0,0,1-3.1,0h0a2.191,2.191,0,0,1,0-3.1l7.166-7.166a2.191,2.191,0,0,1,3.1,0h0A2.191,2.191,0,0,1,2764.643,1752.211Z" transform="translate(-2640.424 -1707.59)" fill="#ffb5b5"/>
      <path id="Trazado_105389" data-name="Trazado 105389" d="M2616.031,1783.273l-7.166,7.166a2.19,2.19,0,0,1-3.1,0h0a2.191,2.191,0,0,1,0-3.1l7.166-7.166a2.191,2.191,0,0,1,3.1,0h0A2.191,2.191,0,0,1,2616.031,1783.273Z" transform="translate(-2577.209 -1720.802)" fill="#ffb5b5"/>
      <path id="Trazado_105390" data-name="Trazado 105390" d="M2653.184,1783.273l-7.166,7.166a2.19,2.19,0,0,1-3.1,0h0a2.19,2.19,0,0,1,0-3.1l7.166-7.166a2.191,2.191,0,0,1,3.1,0h0A2.192,2.192,0,0,1,2653.184,1783.273Z" transform="translate(-2593.013 -1720.802)" fill="#ffb5b5"/>
      <path id="Trazado_105391" data-name="Trazado 105391" d="M2690.337,1783.273l-7.166,7.166a2.19,2.19,0,0,1-3.1,0h0a2.191,2.191,0,0,1,0-3.1l7.166-7.166a2.191,2.191,0,0,1,3.1,0h0A2.191,2.191,0,0,1,2690.337,1783.273Z" transform="translate(-2608.816 -1720.802)" fill="#ffb5b5"/>
      <path id="Trazado_105392" data-name="Trazado 105392" d="M2727.49,1783.273l-7.166,7.166a2.19,2.19,0,0,1-3.1,0h0a2.191,2.191,0,0,1,0-3.1l7.166-7.166a2.191,2.191,0,0,1,3.1,0h0A2.191,2.191,0,0,1,2727.49,1783.273Z" transform="translate(-2624.62 -1720.802)" fill="#ffb5b5"/>
      <path id="Trazado_105393" data-name="Trazado 105393" d="M2764.643,1783.273l-7.166,7.166a2.19,2.19,0,0,1-3.1,0h0a2.191,2.191,0,0,1,0-3.1l7.166-7.166a2.191,2.191,0,0,1,3.1,0h0A2.191,2.191,0,0,1,2764.643,1783.273Z" transform="translate(-2640.424 -1720.802)" fill="#ffb5b5"/>
      <path id="Trazado_105394" data-name="Trazado 105394" d="M2616.031,1814.335l-7.166,7.166a2.192,2.192,0,0,1-3.1,0h0a2.191,2.191,0,0,1,0-3.1l7.166-7.166a2.191,2.191,0,0,1,3.1,0h0A2.191,2.191,0,0,1,2616.031,1814.335Z" transform="translate(-2577.209 -1734.015)" fill="#ffb5b5"/>
      <path id="Trazado_105395" data-name="Trazado 105395" d="M2653.184,1814.335l-7.166,7.166a2.191,2.191,0,0,1-3.1,0h0a2.191,2.191,0,0,1,0-3.1l7.166-7.166a2.191,2.191,0,0,1,3.1,0h0A2.192,2.192,0,0,1,2653.184,1814.335Z" transform="translate(-2593.013 -1734.015)" fill="#ffb5b5"/>
      <path id="Trazado_105396" data-name="Trazado 105396" d="M2690.337,1814.335l-7.166,7.166a2.191,2.191,0,0,1-3.1,0h0a2.191,2.191,0,0,1,0-3.1l7.166-7.166a2.191,2.191,0,0,1,3.1,0h0A2.191,2.191,0,0,1,2690.337,1814.335Z" transform="translate(-2608.816 -1734.015)" fill="#ffb5b5"/>
      <path id="Trazado_105397" data-name="Trazado 105397" d="M2727.49,1814.335l-7.166,7.166a2.192,2.192,0,0,1-3.1,0h0a2.191,2.191,0,0,1,0-3.1l7.166-7.166a2.191,2.191,0,0,1,3.1,0h0A2.191,2.191,0,0,1,2727.49,1814.335Z" transform="translate(-2624.62 -1734.015)" fill="#ffb5b5"/>
      <path id="Trazado_105398" data-name="Trazado 105398" d="M2764.643,1814.335l-7.166,7.166a2.192,2.192,0,0,1-3.1,0h0a2.191,2.191,0,0,1,0-3.1l7.166-7.166a2.191,2.191,0,0,1,3.1,0h0A2.191,2.191,0,0,1,2764.643,1814.335Z" transform="translate(-2640.424 -1734.015)" fill="#ffb5b5"/>
      <path id="Trazado_105399" data-name="Trazado 105399" d="M2616.031,1845.4l-7.166,7.166a2.192,2.192,0,0,1-3.1,0h0a2.191,2.191,0,0,1,0-3.1l7.166-7.166a2.191,2.191,0,0,1,3.1,0h0A2.191,2.191,0,0,1,2616.031,1845.4Z" transform="translate(-2577.209 -1747.228)" fill="#ffb5b5"/>
      <path id="Trazado_105400" data-name="Trazado 105400" d="M2653.184,1845.4l-7.166,7.166a2.191,2.191,0,0,1-3.1,0h0a2.191,2.191,0,0,1,0-3.1l7.166-7.166a2.191,2.191,0,0,1,3.1,0h0A2.192,2.192,0,0,1,2653.184,1845.4Z" transform="translate(-2593.013 -1747.228)" fill="#ffb5b5"/>
      <path id="Trazado_105401" data-name="Trazado 105401" d="M2690.337,1845.4l-7.166,7.166a2.191,2.191,0,0,1-3.1,0h0a2.191,2.191,0,0,1,0-3.1l7.166-7.166a2.191,2.191,0,0,1,3.1,0h0A2.191,2.191,0,0,1,2690.337,1845.4Z" transform="translate(-2608.816 -1747.228)" fill="#ffb5b5"/>
      <path id="Trazado_105402" data-name="Trazado 105402" d="M2727.49,1845.4l-7.166,7.166a2.192,2.192,0,0,1-3.1,0h0a2.191,2.191,0,0,1,0-3.1l7.166-7.166a2.192,2.192,0,0,1,3.1,0h0A2.191,2.191,0,0,1,2727.49,1845.4Z" transform="translate(-2624.62 -1747.228)" fill="#ffb5b5"/>
      <path id="Trazado_105403" data-name="Trazado 105403" d="M2764.643,1845.4l-7.166,7.166a2.192,2.192,0,0,1-3.1,0h0a2.191,2.191,0,0,1,0-3.1l7.166-7.166a2.192,2.192,0,0,1,3.1,0h0A2.191,2.191,0,0,1,2764.643,1845.4Z" transform="translate(-2640.424 -1747.228)" fill="#ffb5b5"/>
      <path id="Trazado_105404" data-name="Trazado 105404" d="M2616.031,1876.459l-7.166,7.166a2.192,2.192,0,0,1-3.1,0h0a2.191,2.191,0,0,1,0-3.1l7.166-7.166a2.191,2.191,0,0,1,3.1,0h0A2.191,2.191,0,0,1,2616.031,1876.459Z" transform="translate(-2577.209 -1760.441)" fill="#ffb5b5"/>
      <path id="Trazado_105405" data-name="Trazado 105405" d="M2653.184,1876.459l-7.166,7.166a2.191,2.191,0,0,1-3.1,0h0a2.19,2.19,0,0,1,0-3.1l7.166-7.166a2.191,2.191,0,0,1,3.1,0h0A2.192,2.192,0,0,1,2653.184,1876.459Z" transform="translate(-2593.013 -1760.441)" fill="#ffb5b5"/>
      <path id="Trazado_105406" data-name="Trazado 105406" d="M2690.337,1876.459l-7.166,7.166a2.191,2.191,0,0,1-3.1,0h0a2.191,2.191,0,0,1,0-3.1l7.166-7.166a2.191,2.191,0,0,1,3.1,0h0A2.192,2.192,0,0,1,2690.337,1876.459Z" transform="translate(-2608.816 -1760.441)" fill="#ffb5b5"/>
      <path id="Trazado_105407" data-name="Trazado 105407" d="M2727.49,1876.459l-7.166,7.166a2.192,2.192,0,0,1-3.1,0h0a2.191,2.191,0,0,1,0-3.1l7.166-7.166a2.191,2.191,0,0,1,3.1,0h0A2.192,2.192,0,0,1,2727.49,1876.459Z" transform="translate(-2624.62 -1760.441)" fill="#ffb5b5"/>
      <path id="Trazado_105408" data-name="Trazado 105408" d="M2764.643,1876.459l-7.166,7.166a2.192,2.192,0,0,1-3.1,0h0a2.191,2.191,0,0,1,0-3.1l7.166-7.166a2.191,2.191,0,0,1,3.1,0h0A2.192,2.192,0,0,1,2764.643,1876.459Z" transform="translate(-2640.424 -1760.441)" fill="#ffb5b5"/>
    </g>
    <path id="Trazado_105409" data-name="Trazado 105409" d="M2755.589,1852.7l.018.1c0,3.52,3.136,6.373,7.005,6.373s7.006-2.853,7.006-6.373l-.01-.1c0-3.52,3.136-6.374,7-6.374s7.005,2.853,7.005,6.374l.018.1c0,3.52,3.136,6.373,7.005,6.373s7-2.853,7-6.373v-49.455c0-3.52-3.136-6.374-7-6.374s-7.005,2.854-7.005,6.374l-.018.1c0,3.52-3.136,6.373-7.005,6.373s-7-2.853-7-6.373l.01-.1c0-3.52-3.136-6.374-7.006-6.374s-7.005,2.854-7.005,6.374l-.018.1c0,3.52-3.136,6.373-7,6.373s-7.005-2.853-7.005-6.373l.01-.1c0-3.52-3.136-6.374-7.005-6.374s-7,2.854-7,6.374V1852.8c0,3.52,3.136,6.373,7,6.373s7.005-2.853,7.005-6.373l-.01-.1c0-3.52,3.136-6.374,7.005-6.374S2755.589,1849.181,2755.589,1852.7Z" transform="translate(-123.746 -190.111)" fill="#dedede" style="mix-blend-mode: multiply;isolation: isolate"/>
    <path id="Trazado_105410" data-name="Trazado 105410" d="M2742.8,1847.5l.018.106a7.005,7.005,0,1,0,14.01,0l-.01-.106a7.005,7.005,0,0,1,14.011,0l.017.106a7.005,7.005,0,1,0,14.01,0v-54.355a7.005,7.005,0,1,0-14.01,0l-.017.106a7.005,7.005,0,0,1-14.011,0l.01-.106a7.005,7.005,0,1,0-14.01,0l-.018.106a7.005,7.005,0,0,1-14.01,0l.01-.106a7.005,7.005,0,1,0-14.01,0V1847.6a7.005,7.005,0,1,0,14.01,0l-.01-.106a7.005,7.005,0,1,1,14.01,0Z" transform="translate(-118.305 -185.549)" fill="#fff4c5"/>
    <rect id="Rectángulo_5350" data-name="Rectángulo 5350" width="84.91" height="31.225" transform="translate(2533.444 1445.346)" fill="#c4c4c4" style="mix-blend-mode: multiply;isolation: isolate"/>
    <rect id="Rectángulo_5351" data-name="Rectángulo 5351" width="84.91" height="31.225" transform="translate(2532.531 1442.242)" fill="#fff4c5"/>
    <g id="Grupo_55713" data-name="Grupo 55713" transform="translate(2556.566 1366.421)">
      <g id="Grupo_55712" data-name="Grupo 55712" transform="translate(0)">
        <g id="Grupo_55709" data-name="Grupo 55709">
          <path id="Trazado_105411" data-name="Trazado 105411" d="M2651.573,1391.05a6.25,6.25,0,1,1,6.249-6.25A6.257,6.257,0,0,1,2651.573,1391.05Zm0-11.842a5.592,5.592,0,1,0,5.592,5.592A5.6,5.6,0,0,0,2651.573,1379.209Z" transform="translate(-2645.323 -1378.551)" fill="#b5ac84"/>
        </g>
        <g id="Grupo_55710" data-name="Grupo 55710" transform="translate(2.803 5.387)">
          <path id="Trazado_105412" data-name="Trazado 105412" d="M2651.064,1389.651a.863.863,0,1,1,.863-.863A.864.864,0,0,1,2651.064,1389.651Zm0-1.287a.424.424,0,1,0,.424.424A.425.425,0,0,0,2651.064,1388.364Z" transform="translate(-2650.2 -1387.925)" fill="#b5ac84"/>
        </g>
        <g id="Grupo_55711" data-name="Grupo 55711" transform="translate(7.847 5.387)">
          <path id="Trazado_105413" data-name="Trazado 105413" d="M2659.841,1389.651a.863.863,0,1,1,.863-.863A.864.864,0,0,1,2659.841,1389.651Zm0-1.287a.424.424,0,1,0,.425.424A.425.425,0,0,0,2659.841,1388.364Z" transform="translate(-2658.978 -1387.925)" fill="#b5ac84"/>
        </g>
      </g>
    </g>
    <g id="Grupo_55718" data-name="Grupo 55718" transform="translate(2907.833 1396.838)">
      <g id="Grupo_55717" data-name="Grupo 55717">
        <g id="Grupo_55714" data-name="Grupo 55714">
          <path id="Trazado_105414" data-name="Trazado 105414" d="M3262.862,1443.983a6.249,6.249,0,1,1,6.249-6.25A6.256,6.256,0,0,1,3262.862,1443.983Zm0-11.841a5.592,5.592,0,1,0,5.591,5.592A5.6,5.6,0,0,0,3262.862,1432.141Z" transform="translate(-3256.613 -1431.484)" fill="#b5ac84"/>
        </g>
        <g id="Grupo_55715" data-name="Grupo 55715" transform="translate(2.803 5.387)">
          <path id="Trazado_105415" data-name="Trazado 105415" d="M3262.354,1442.583a.863.863,0,1,1,.863-.863A.864.864,0,0,1,3262.354,1442.583Zm0-1.287a.424.424,0,1,0,.425.424A.425.425,0,0,0,3262.354,1441.3Z" transform="translate(-3261.491 -1440.858)" fill="#b5ac84"/>
        </g>
        <g id="Grupo_55716" data-name="Grupo 55716" transform="translate(7.847 5.387)">
          <path id="Trazado_105416" data-name="Trazado 105416" d="M3271.13,1442.583a.863.863,0,1,1,.863-.863A.864.864,0,0,1,3271.13,1442.583Zm0-1.287a.424.424,0,1,0,.424.424A.425.425,0,0,0,3271.13,1441.3Z" transform="translate(-3270.268 -1440.858)" fill="#b5ac84"/>
        </g>
      </g>
    </g>
    <g id="Grupo_55727" data-name="Grupo 55727" transform="translate(2815.741 1358.354)">
      <g id="Grupo_55726" data-name="Grupo 55726">
        <g id="Grupo_55719" data-name="Grupo 55719" transform="translate(0 2.927)">
          <path id="Trazado_105417" data-name="Trazado 105417" d="M3109.444,1389.983h-13.093V1369.6h13.093Zm-12.1-1h11.1V1370.6h-11.1Z" transform="translate(-3096.351 -1369.605)" fill="#b5ac84"/>
        </g>
        <g id="Grupo_55720" data-name="Grupo 55720" transform="translate(3.641)">
          <path id="Trazado_105418" data-name="Trazado 105418" d="M3108.5,1368.371h-5.81v-3.859h5.81Zm-4.812-1h3.815v-1.864h-3.815Z" transform="translate(-3102.688 -1364.512)" fill="#b5ac84"/>
        </g>
        <g id="Grupo_55721" data-name="Grupo 55721" transform="translate(3.641 22.336)">
          <path id="Trazado_105419" data-name="Trazado 105419" d="M3108.5,1407.24h-5.81v-3.859h5.81Zm-4.812-1h3.815v-1.864h-3.815Z" transform="translate(-3102.688 -1403.382)" fill="#b5ac84"/>
        </g>
        <g id="Grupo_55722" data-name="Grupo 55722" transform="translate(1.278 4.531)">
          <path id="Trazado_105420" data-name="Trazado 105420" d="M3108.4,1379.4a.506.506,0,0,1-.13-.017c-1.808-.488-7.443-2.867-9.61-6.217a.5.5,0,1,1,.837-.541c1.984,3.068,7.393,5.353,9.033,5.8a.5.5,0,0,1-.129.98Z" transform="translate(-3098.576 -1372.397)" fill="#b5ac84"/>
        </g>
        <g id="Grupo_55723" data-name="Grupo 55723" transform="translate(1.278 7.717)">
          <path id="Trazado_105421" data-name="Trazado 105421" d="M3108.4,1384.946a.492.492,0,0,1-.13-.018c-1.808-.487-7.443-2.866-9.61-6.217a.5.5,0,0,1,.837-.541c1.984,3.068,7.393,5.354,9.033,5.8a.5.5,0,0,1-.129.98Z" transform="translate(-3098.576 -1377.942)" fill="#b5ac84"/>
        </g>
        <g id="Grupo_55724" data-name="Grupo 55724" transform="translate(1.278 10.903)">
          <path id="Trazado_105422" data-name="Trazado 105422" d="M3108.4,1390.49a.512.512,0,0,1-.13-.017c-1.808-.488-7.443-2.867-9.61-6.218a.5.5,0,0,1,.837-.542c1.984,3.069,7.393,5.354,9.033,5.8a.5.5,0,0,1-.129.98Z" transform="translate(-3098.576 -1383.486)" fill="#b5ac84"/>
        </g>
        <g id="Grupo_55725" data-name="Grupo 55725" transform="translate(1.278 14.089)">
          <path id="Trazado_105423" data-name="Trazado 105423" d="M3108.4,1396.034a.486.486,0,0,1-.13-.017c-1.808-.487-7.443-2.866-9.61-6.218a.5.5,0,1,1,.837-.541c1.984,3.068,7.393,5.354,9.033,5.8a.5.5,0,0,1-.129.98Z" transform="translate(-3098.576 -1389.03)" fill="#b5ac84"/>
        </g>
      </g>
    </g>
    <path id="Trazado_105424" data-name="Trazado 105424" d="M3275.917,1592.578a.378.378,0,0,0-.42.336,2.247,2.247,0,0,1-1.215,1.469c-.877.5-2.851,1.1-6.209-.433-2.982-1.363-5.7-1.5-7.469-.361a3.744,3.744,0,0,0-1.355,1.513c-.026,0-.05-.008-.077-.008a1.637,1.637,0,0,0-1.637,1.637c0,.9.733,21.714,1.637,21.714s1.637-20.81,1.637-21.714a1.631,1.631,0,0,0-.816-1.409,3.005,3.005,0,0,1,1.022-1.094c1.542-.991,4-.84,6.741.414,3.667,1.676,5.9.972,6.9.4a2.96,2.96,0,0,0,1.6-2.047A.38.38,0,0,0,3275.917,1592.578Zm-15.852,4.47a.893.893,0,1,1-1.165-.846,4.611,4.611,0,0,0-.071.772.381.381,0,0,0,.761,0,3.7,3.7,0,0,1,.065-.675A.89.89,0,0,1,3260.065,1597.047Z" transform="translate(-349.172 -103.168)" fill="#b5ac84"/>
    <g id="Grupo_55732" data-name="Grupo 55732" transform="translate(2485.634 1477.882)">
      <g id="Grupo_55731" data-name="Grupo 55731" transform="translate(0)">
        <g id="Grupo_55728" data-name="Grupo 55728">
          <path id="Trazado_105425" data-name="Trazado 105425" d="M2522.782,1599.588c-2.626-1.961.866-9.912,5.759-16.467s11.524-12.164,14.15-10.2-.867,9.912-5.759,16.467S2525.408,1601.548,2522.782,1599.588Zm19.494-26.115c-1.757-1.312-7.473,2.419-13.179,10.063s-7.658,14.184-5.9,15.5,7.473-2.419,13.179-10.063S2544.033,1574.784,2542.276,1573.473Z" transform="translate(-2521.883 -1572.52)" fill="#b5ac84"/>
        </g>
        <g id="Grupo_55729" data-name="Grupo 55729" transform="translate(0.023 18.42)">
          <path id="Trazado_105426" data-name="Trazado 105426" d="M2522.8,1613.223c-1.376-1.027-1.1-3.643.623-5.955s4.156-3.318,5.532-2.291,1.1,3.643-.624,5.955S2524.176,1614.251,2522.8,1613.223Zm5.74-7.69c-1.029-.768-3.118.217-4.561,2.15s-1.793,4.216-.764,4.984,3.117-.217,4.561-2.15S2529.568,1606.3,2528.539,1605.534Z" transform="translate(-2521.923 -1604.575)" fill="#b5ac84"/>
        </g>
        <g id="Grupo_55730" data-name="Grupo 55730" transform="translate(11.966 0.349)">
          <path id="Trazado_105427" data-name="Trazado 105427" d="M2547.876,1578.1a2.08,2.08,0,0,1,.455,2.867,9.837,9.837,0,0,1,1.265,2.064c2.444-4.642,3.252-8.45,1.746-9.574s-4.9.718-8.634,4.349a9.485,9.485,0,0,1,2.313.646A2.08,2.08,0,0,1,2547.876,1578.1Z" transform="translate(-2542.708 -1573.126)" fill="#b5ac84"/>
        </g>
      </g>
    </g>
    <g id="Grupo_55734" data-name="Grupo 55734" transform="translate(2436.665 1574.175)">
      <g id="Grupo_55733" data-name="Grupo 55733">
        <path id="Trazado_105428" data-name="Trazado 105428" d="M2452.721,1758.968l-6.132-4.456-6.133,4.456,2.342-7.21-6.133-4.456h7.581l2.343-7.21,2.343,7.21h7.581l-6.133,4.456Zm-6.132-5.411,4.663,3.387-1.781-5.481,4.663-3.388h-5.764l-1.781-5.481-1.781,5.481h-5.764l4.663,3.388-1.781,5.481Z" transform="translate(-2436.665 -1740.093)" fill="#b5ac84"/>
      </g>
    </g>
    <g id="Grupo_55736" data-name="Grupo 55736" transform="translate(2921.814 1611.099)">
      <g id="Grupo_55735" data-name="Grupo 55735">
        <path id="Trazado_105429" data-name="Trazado 105429" d="M3297,1823.226l-6.133-4.456-6.133,4.456,2.342-7.21-6.133-4.456h7.581l2.342-7.21,2.343,7.21h7.581l-6.133,4.456Zm-6.133-5.411,4.663,3.387-1.781-5.481,4.663-3.387h-5.763l-1.781-5.482-1.781,5.482h-5.764l4.663,3.387-1.781,5.481Z" transform="translate(-3280.944 -1804.351)" fill="#b5ac84"/>
      </g>
    </g>
    <g id="Grupo_55738" data-name="Grupo 55738" transform="translate(2741.806 1480.122)">
      <path id="Trazado_105430" data-name="Trazado 105430" d="M3093.438,1695.586c-2.517-.316-6.088,4.205-6.088,4.205s-.916,2.574-1.246,3.764.672,2.272.593,3.629a8.944,8.944,0,0,1-.365,2.188c.51.291,1.677.438,2.323-1.441s1.045-2.513,1.919-2.221,5.5,3.424,6.1,3.317-4.935-4.994-3.88-4.68,5.21,3.889,5.356,3.087-1.531-2.334-.678-1.863,1.313.073.8-.9-2.344-3.849-1.754-3.456,1.486,1.963,1.823,1.459S3098.4,1698.9,3093.438,1695.586Z" transform="translate(-3018.028 -1627.102)" fill="#ff8762"/>
      <path id="Trazado_105431" data-name="Trazado 105431" d="M3025.992,1891.034a13.01,13.01,0,0,0-1.04,5.246h29.8c-1.266-2.171-5.562-4.477-10.9-6.6s-6.557-4.84-6.557-4.84Z" transform="translate(-2992.042 -1707.61)" fill="#2b1710"/>
      <path id="Trazado_105432" data-name="Trazado 105432" d="M3031.8,1768.419c2.171-14.111-5.495-59.157-4.07-60.785l-24.694,4.341c-.61,9.77,11.82,50.949,11.209,53.188-2.239,16.078,1.425,53.73,1.425,54.34,4.07.611,12.211-7.326,16.078-7.123C3032.767,1805.256,3030.548,1776.565,3031.8,1768.419Z" transform="translate(-2982.713 -1632.234)" fill="#2e3b4a"/>
      <path id="Trazado_105433" data-name="Trazado 105433" d="M2989.486,1891.034a13,13,0,0,0-1.041,5.246h29.8c-1.266-2.171-5.563-4.477-10.9-6.6s-6.558-4.84-6.558-4.84Z" transform="translate(-2976.514 -1707.61)" fill="#2b1710"/>
      <path id="Trazado_105434" data-name="Trazado 105434" d="M2983.155,1717.969c-.61,9.769,2.239,47.014,1.629,49.252-2.239,16.078,1.425,53.73,1.425,54.34,4.071.611,12.211-7.326,16.078-7.123,1.018-7.123-1.018-36.634,1.832-44.368s1.018-43.554,2.442-45.182,2.035-12.415,2.035-12.415Z" transform="translate(-2974.229 -1634.292)" fill="#3b4b5e"/>
      <path id="Trazado_105435" data-name="Trazado 105435" d="M2994.589,1610c-2.171.068-2.849,1.7-4,2.781s-13.365,6.174-15.807,10.448-7.6,30.732-7.055,32.7,8.886,8.887,8.886,9.158c-.746,3.121-.542,10.719-.542,10.719,6.173.95,33.83-1.289,38.171-8.615-2.624-9.678-1.357-22.7-1.357-22.7L3034,1666.71l10.956-8.217s-19.865-22.421-26.2-30.562-11.85-9.5-13.388-10.493-.9-3.257-4.613-4.161A14.83,14.83,0,0,1,2994.589,1610Z" transform="translate(-2967.685 -1590.702)" fill="#ffad54"/>
      <path id="Trazado_105436" data-name="Trazado 105436" d="M3012.182,1587.676c-1.051-2.816-2.272-7.768,2.239-10.108s10.787-.814,12.449,1.968c2.612,1.492,1.323,6.953,1.052,7.564a28.751,28.751,0,0,0-.475,6.615c0,3.324.949,6.309-6.377,5.631s-7.326-5.563-7.326-5.665-1.153-4.613-1.153-4.613Z" transform="translate(-2986.194 -1576.418)" fill="#2b1710"/>
      <path id="Trazado_105437" data-name="Trazado 105437" d="M3014.552,1599.714c.306-4.138-1.594-4.613-2.442-4.342s-2.578,3.833,1.052,4.885a9.218,9.218,0,0,1-.813,4.444c0,2.781,4.477,5.63,6.41,5.495a2.715,2.715,0,0,0,2.442-1.73,5.822,5.822,0,0,1-.237-1.086c-.95.136-5.122-1.458-5.9-4.478S3014.552,1599.714,3014.552,1599.714Z" transform="translate(-2986.087 -1584.454)" fill="#ff8762"/>
      <path id="Trazado_105438" data-name="Trazado 105438" d="M3030.265,1585.678c-.984,1.8-2.1,1.764-3.765,1.493a2.6,2.6,0,0,0-2.917,2.1c-.3,1.12-2.272,2.442-3.155,2.273-1.458,2.781,1.085,6.818,1.085,6.818,3.867-1.9,8.989-.543,8.989-.543a13.129,13.129,0,0,1,.78-4.41C3032.1,1591.376,3031.757,1586.729,3030.265,1585.678Z" transform="translate(-2989.928 -1580.357)" fill="#ff8762"/>
      <path id="Trazado_105439" data-name="Trazado 105439" d="M3027.374,1608.86c1.255-2.375,5.529-1.73,5.766.1C3031.478,1610.657,3028.086,1609.4,3027.374,1608.86Z" transform="translate(-2993.074 -1589.563)" fill="#ff8762"/>
      <path id="Trazado_105440" data-name="Trazado 105440" d="M3029.843,1598.038c0,.6-.289,1.085-.644,1.085s-.645-.486-.645-1.085.289-1.086.645-1.086S3029.843,1597.439,3029.843,1598.038Z" transform="translate(-2993.576 -1585.153)" fill="#2b1710"/>
      <path id="Trazado_105441" data-name="Trazado 105441" d="M3037.281,1598.569c0,.6-.289,1.085-.645,1.085s-.644-.485-.644-1.085.289-1.085.644-1.085S3037.281,1597.97,3037.281,1598.569Z" transform="translate(-2996.74 -1585.379)" fill="#2b1710"/>
      <path id="Trazado_105442" data-name="Trazado 105442" d="M3025.307,1593.762a7.067,7.067,0,0,1,3.833-.135A2.19,2.19,0,0,0,3025.307,1593.762Z" transform="translate(-2992.195 -1583.285)" fill="#2b1710"/>
      <path id="Trazado_105443" data-name="Trazado 105443" d="M3034.791,1601.886a11.954,11.954,0,0,1-1.719-.205l.031-.171a7.515,7.515,0,0,0,1.992.172c.012,0,.04-.014.045-.028.022-.07-.137-.291-.277-.486a4.5,4.5,0,0,1-.636-1.1,4.756,4.756,0,0,1,.271-3.281l.163.059a4.6,4.6,0,0,0-.271,3.164,4.367,4.367,0,0,0,.613,1.062c.211.293.351.487.3.64a.223.223,0,0,1-.155.14A1.25,1.25,0,0,1,3034.791,1601.886Z" transform="translate(-2995.498 -1585.081)" fill="#2b1710"/>
      <path id="Trazado_105444" data-name="Trazado 105444" d="M3032.015,1609.228a8.187,8.187,0,0,1-2.385-.329l.052-.166a8.748,8.748,0,0,0,3.32.268l.024.172A8.373,8.373,0,0,1,3032.015,1609.228Z" transform="translate(-2994.035 -1590.164)" fill="#2b1710"/>
      <path id="Trazado_105445" data-name="Trazado 105445" d="M3014.6,1599.695a1.068,1.068,0,0,1-.945-.609.928.928,0,0,1,.109-.948,1.07,1.07,0,0,1,.994-.367c-.146-.26-.487-.784-.885-.853a.585.585,0,0,0-.527.208l-.123-.122a.754.754,0,0,1,.679-.256c.619.108,1.07,1.054,1.088,1.095l.071.151-.164-.028a.986.986,0,0,0-1,.281.754.754,0,0,0-.087.771.9.9,0,0,0,.8.506Z" transform="translate(-2987.053 -1585.061)" fill="#e0b3a8" style="mix-blend-mode: multiply;isolation: isolate"/>
      <path id="Trazado_105446" data-name="Trazado 105446" d="M3036.11,1594.56c1.967-.2,2.306.814,2.306.814A1.324,1.324,0,0,0,3036.11,1594.56Z" transform="translate(-2996.791 -1583.948)" fill="#2b1710"/>
      <path id="Trazado_105447" data-name="Trazado 105447" d="M2996,1637.373a12.245,12.245,0,0,0-7.412-9.291l.071-.158a12.422,12.422,0,0,1,7.513,9.434Z" transform="translate(-2976.576 -1598.327)" fill="#c4c4c4" style="mix-blend-mode: multiply;isolation: isolate"/>
      <path id="Trazado_105448" data-name="Trazado 105448" d="M3007.635,1682.851c-.48-.275-3.449-2.668-6.408-5.285-2.625-2.323-5.818-5.325-6.115-6.437l-.005-.018,0-.018c.023-.14,2.322-14.02,3.532-17.113l.161.063c-1.183,3.024-3.422,16.471-3.52,17.059.585,2.01,11.352,10.979,12.437,11.6Z" transform="translate(-2979.349 -1609.411)" fill="#c4c4c4" style="mix-blend-mode: multiply;isolation: isolate"/>
      <path id="Trazado_105449" data-name="Trazado 105449" d="M2994.741,1714.2a34.483,34.483,0,0,1-9.252-4.9l.1-.138a34.31,34.31,0,0,0,9.2,4.871Z" transform="translate(-2975.258 -1632.885)" fill="#c4c4c4" style="mix-blend-mode: multiply;isolation: isolate"/>
      <path id="Trazado_105450" data-name="Trazado 105450" d="M2988.646,1688.07a.157.157,0,0,1-.042-.006.138.138,0,0,1-.1-.107c-.088-.393,1.263-2.37,1.964-2.983.286-.249.283-.326.283-.329a5.864,5.864,0,0,0-1.725.262c-.4.089-.819.181-1.243.262-.564.108-.7.038-.751-.034a.155.155,0,0,1-.005-.174,5.812,5.812,0,0,1,3.819-1.094l-.006.174a5.861,5.861,0,0,0-3.658,1,1.263,1.263,0,0,0,.57-.038c.422-.08.836-.172,1.238-.261,1.249-.276,1.807-.389,1.918-.167.063.123-.032.278-.324.533a8.694,8.694,0,0,0-1.912,2.784,3.028,3.028,0,0,0,.752-.648l2.081-2.126.123.121-2.08,2.126C2988.975,1687.95,2988.761,1688.07,2988.646,1688.07Z" transform="translate(-2975.903 -1622.122)" fill="#c4c4c4" style="mix-blend-mode: multiply;isolation: isolate"/>
      <path id="Trazado_105451" data-name="Trazado 105451" d="M3017.339,1623.677a14.217,14.217,0,0,1-3.478-.434,9.071,9.071,0,0,1-6.461-5.326l.16-.065c2.54,6.283,10.594,5.769,11.427,5.513l.051.166A7.464,7.464,0,0,1,3017.339,1623.677Z" transform="translate(-2984.578 -1594.043)" fill="#c4c4c4" style="mix-blend-mode: multiply;isolation: isolate"/>
      <path id="Trazado_105452" data-name="Trazado 105452" d="M3045.055,1656.412l-.174-.007.018-.419c.4-9.561.49-11.833-1.84-16.226l.153-.081c2.352,4.434,2.257,6.714,1.859,16.314Z" transform="translate(-2999.747 -1603.328)" fill="#c4c4c4" style="mix-blend-mode: multiply;isolation: isolate"/>
      <g id="Grupo_55737" data-name="Grupo 55737" transform="translate(11.813 130.594)">
        <path id="Trazado_105453" data-name="Trazado 105453" d="M2989.2,1807.246l-.006-.011c-.214-.43,1.727-1.879,1.809-1.94.254-.189.27-.252.271-.263a1.986,1.986,0,0,0-.588-.111,7.092,7.092,0,0,1-1.894-.426c-.156-.063-.632-.255-.535-.508.163-.429,2.277-.422,3.888.153l-.059.163c-1.667-.594-3.574-.5-3.667-.255-.008.02.044.127.438.286a6.945,6.945,0,0,0,1.85.416c.446.052.692.082.735.241.031.116-.063.241-.336.443-1.054.783-1.823,1.583-1.757,1.724,0,0,.062.057.442-.053a8.063,8.063,0,0,0,2.785-1.782l.122.122a8.049,8.049,0,0,1-2.859,1.826C2989.586,1807.344,2989.29,1807.405,2989.2,1807.246Z" transform="translate(-2988.241 -1803.685)" fill="#c4c4c4" style="mix-blend-mode: multiply;isolation: isolate"/>
      </g>
      <path id="Trazado_105454" data-name="Trazado 105454" d="M3009.507,1712.646c0-2.536,4.93-5.518,4.93-5.518s2.669-.588,3.89-.769,2.171.95,3.528,1.041a8.948,8.948,0,0,0,2.216-.091c.226.543.226,1.719-1.719,2.126s-2.623.724-2.442,1.629,2.713,5.88,2.532,6.467-4.342-5.518-4.161-4.432,3.211,5.653,2.4,5.7-2.126-1.809-1.764-.905-.09,1.312-.995.679-3.528-2.8-3.212-2.171,1.764,1.719,1.222,1.99S3012.176,1717.983,3009.507,1712.646Z" transform="translate(-2985.475 -1631.683)" fill="#ff8762"/>
    </g>
    <g id="Grupo_55753" data-name="Grupo 55753" transform="translate(2700.75 1486.888)">
      <g id="Grupo_55752" data-name="Grupo 55752" transform="translate(0)">
        <path id="Trazado_105455" data-name="Trazado 105455" d="M2935.956,1895.109a9.017,9.017,0,0,0-.285,4.186h24.4c-2.378-2.331-12.368-6.232-12.891-6.945S2935.956,1895.109,2935.956,1895.109Z" transform="translate(-2912.958 -1717.531)" fill="#2b1710"/>
        <path id="Trazado_105456" data-name="Trazado 105456" d="M2937.951,1710.007s5.947,41.338,5.3,51.613-.285,52.8-.285,52.8c-2.64,2.712-12.772,4.067-13.557,3.71s-3.924-37.247-4.21-42.527-1-45.952-1-45.952l8.278-20.265Z" transform="translate(-2908.133 -1639.745)" fill="#2e3b4a"/>
        <path id="Trazado_105457" data-name="Trazado 105457" d="M2901.049,1895.109a9.028,9.028,0,0,0-.285,4.186h24.4c-2.378-2.331-12.368-6.232-12.891-6.945S2901.049,1895.109,2901.049,1895.109Z" transform="translate(-2898.109 -1717.531)" fill="#2b1710"/>
        <path id="Trazado_105458" data-name="Trazado 105458" d="M2905.03,1707.981s-5.209,9.015-6.351,16.649,2.783,35.963,1.5,37.961-2.426,21.977-3.425,31.967-.286,21.549,0,22.548c6.85,2.712,15.555-3.425,15.555-3.425-.428-4.995,1.855-45.382,4.567-50.662s4.567-36.391,5.423-37.1c2.283-2.854,1.57-17.125,1.57-17.125Z" transform="translate(-2896.238 -1639.147)" fill="#3b4b5e"/>
        <path id="Trazado_105459" data-name="Trazado 105459" d="M2911.538,1705.3c6.517,2.9,16.744,2.854,21.026,1.427-.1-1.047-.143-2.569-.143-2.569l-20.74-2.473Z" transform="translate(-2902.746 -1636.471)" fill="#2b1710"/>
        <path id="Trazado_105460" data-name="Trazado 105460" d="M2910.416,1635.877s-7.183,1.38-9.181,7.944,4.377,19.694,5.042,23.214.761,6.374.856,6.66c5.613,5.518,20.74,2.473,20.74,2.473s-.856-3.139.381-3.615c4.662-1.618,17.7-10.37,18.41-12.415l-1.38-3.806s-14.747,4.234-14.842,3.948c0-.38,1.522-4.948,1.522-4.948l8.872,1.158c1.522-5.614,2.3-10.343,2.3-10.343s-12.122-3.659-15.737-5.561-5.781-3.069-5.781-3.069a26.558,26.558,0,0,1-3.924.024C2917.314,1637.352,2910.416,1635.877,2910.416,1635.877Z" transform="translate(-2898.199 -1608.476)" fill="#86bec4"/>
        <path id="Trazado_105461" data-name="Trazado 105461" d="M2979.558,1669.077l-1.38-3.806s2.094-5.328,2.854-5.946,4-2.568,4.995-2.426,5.328,1.094,5.328,1.094c-1.237.856-4.947.38-5.09.523s-1.094,1-1.094,1a11.22,11.22,0,0,1,2-.476c.523,0,4.8.238,4.662.619a5.417,5.417,0,0,1-1.855,1.237c.238.38-1.76,1.95-1.76,1.95s1.19-.333,1.094.048-1.189.9-3.425,2.188S2982.364,1668.268,2979.558,1669.077Z" transform="translate(-2931.093 -1617.415)" fill="#ff8762"/>
        <circle id="Elipse_4038" data-name="Elipse 4038" cx="5.494" cy="5.494" r="5.494" transform="translate(3.94 2.926)" fill="#2b1710"/>
        <path id="Trazado_105462" data-name="Trazado 105462" d="M2919.486,1606.6c-7.183-5.375-4.709-15.27-.808-17.268a12.551,12.551,0,0,1,10.323-.048c7.135,1.57,9.371,10.37,4,13.748S2919.486,1606.6,2919.486,1606.6Z" transform="translate(-2904.177 -1588.193)" fill="#2b1710"/>
        <path id="Trazado_105463" data-name="Trazado 105463" d="M2929.985,1593.161c.214,5.78-6.565,8.063-8.848,8.063a1.237,1.237,0,0,1,0,1.712c-1.784-1.284-3.354-.642-3.354,1.427a3.019,3.019,0,0,0,2.283,3c1.57,4.781.5,9.561-2.569,10.346,3.925,5.994,12.059,9.633,12.344,9.49.571-3.5-1.142-7.849-1.142-7.849-.428,0-1.855-1.356-1.6-2.39s.571-2.141.571-2.141a8.964,8.964,0,0,0,3.6-.642c1.105-.678,2.593-4.317,3.211-8.265a18.143,18.143,0,0,0,.143-6.993C2934.337,1597.061,2931.721,1593.827,2929.985,1593.161Z" transform="translate(-2905.281 -1590.306)" fill="#ff8762"/>
        <path id="Trazado_105464" data-name="Trazado 105464" d="M2935.389,1610.972c0,.655-.327,1.185-.729,1.185s-.73-.53-.73-1.185.327-1.185.73-1.185S2935.389,1610.317,2935.389,1610.972Z" transform="translate(-2912.271 -1597.378)" fill="#2b1710"/>
        <path id="Trazado_105465" data-name="Trazado 105465" d="M2944.578,1611.3c0,.655-.326,1.185-.729,1.185s-.73-.53-.73-1.185.327-1.185.73-1.185S2944.578,1610.648,2944.578,1611.3Z" transform="translate(-2916.18 -1597.519)" fill="#2b1710"/>
        <path id="Trazado_105466" data-name="Trazado 105466" d="M2930.661,1606.339a5.46,5.46,0,0,1,4.46-.606C2933.212,1604.358,2931.338,1604.608,2930.661,1606.339Z" transform="translate(-2910.88 -1595.278)" fill="#2b1710"/>
        <path id="Trazado_105467" data-name="Trazado 105467" d="M2942.861,1606.268c2.265-.481,2.765.625,2.765.625A1.469,1.469,0,0,0,2942.861,1606.268Z" transform="translate(-2916.07 -1595.546)" fill="#2b1710"/>
        <g id="Grupo_55739" data-name="Grupo 55739" transform="translate(25.328 11.463)">
          <path id="Trazado_105468" data-name="Trazado 105468" d="M2940.315,1614.462v-.137a10.816,10.816,0,0,0,1.81-.253,3.466,3.466,0,0,0-.256-.712c-.139-.335-.312-.752-.495-1.262-.442-1.237-.357-2.088.393-3.955l.127.051c-.744,1.852-.825,2.645-.391,3.858.181.507.353.922.492,1.256.25.6.335.806.208.878A9.575,9.575,0,0,1,2940.315,1614.462Z" transform="translate(-2940.315 -1608.142)" fill="#2b1710"/>
        </g>
        <g id="Grupo_55740" data-name="Grupo 55740" transform="translate(13.476 12.667)">
          <path id="Trazado_105469" data-name="Trazado 105469" d="M2921.87,1613.655c-.986,0-1.484-.529-1.54-1.087a1.2,1.2,0,0,1,1.053-1.281,1.564,1.564,0,0,0-.669-.806,1.163,1.163,0,0,0-.975,0l-.049-.127a1.233,1.233,0,0,1,1.451.289,1.913,1.913,0,0,1,.387.648l.011.033h0a.091.091,0,0,1,0,.052l-.055.032v0h-.009l0,0h0a1.076,1.076,0,0,0-1,1.142c.05.495.505,1.042,1.622.956l.01.136C2922.019,1613.652,2921.944,1613.655,2921.87,1613.655Z" transform="translate(-2919.69 -1610.236)" fill="#e0b3a8" style="mix-blend-mode: multiply;isolation: isolate"/>
        </g>
        <g id="Grupo_55741" data-name="Grupo 55741" transform="translate(16.387 19.263)">
          <path id="Trazado_105470" data-name="Trazado 105470" d="M2930.108,1627.09c-1.4-.326-4.186-2.561-5.352-5.321l.126-.053c1.132,2.68,3.914,4.929,5.257,5.241Z" transform="translate(-2924.756 -1621.716)" fill="#e0b3a8" style="mix-blend-mode: multiply;isolation: isolate"/>
        </g>
        <g id="Grupo_55742" data-name="Grupo 55742" transform="translate(24.081 21.97)">
          <path id="Trazado_105471" data-name="Trazado 105471" d="M2939.012,1626.94a2.138,2.138,0,0,1-.866-.182l.055-.125a2.263,2.263,0,0,0,2.073-.207l.079.112A2.547,2.547,0,0,1,2939.012,1626.94Z" transform="translate(-2938.146 -1626.426)" fill="#e0b3a8" style="mix-blend-mode: multiply;isolation: isolate"/>
        </g>
        <path id="Trazado_105472" data-name="Trazado 105472" d="M2934.717,1621.841c1.76-.785,4.519-1.356,4.543.167C2939.26,1623.649,2936.929,1624.981,2934.717,1621.841Z" transform="translate(-2912.606 -1602.17)" fill="#ff4d4d"/>
        <g id="Grupo_55743" data-name="Grupo 55743" transform="translate(21.303 19.392)">
          <path id="Trazado_105473" data-name="Trazado 105473" d="M2936.711,1622.612a10.177,10.177,0,0,1-3.4-.543l.046-.129a11.611,11.611,0,0,0,5.859.284l.032.133A12.12,12.12,0,0,1,2936.711,1622.612Z" transform="translate(-2933.311 -1621.94)" fill="#2b1710"/>
        </g>
        <circle id="Elipse_4039" data-name="Elipse 4039" cx="1.165" cy="1.165" r="1.165" transform="translate(14.119 16.769)" fill="#fff"/>
        <g id="Grupo_55744" data-name="Grupo 55744" transform="translate(53.412 43.388)">
          <path id="Trazado_105474" data-name="Trazado 105474" d="M2989.283,1665.742l-.094-.1a15.627,15.627,0,0,1,1.725-1.437,17.009,17.009,0,0,1,3.312-.508l.01.136a17.721,17.721,0,0,0-3.254.491A15.941,15.941,0,0,0,2989.283,1665.742Z" transform="translate(-2989.189 -1663.698)" fill="#e0b3a8" style="mix-blend-mode: multiply;isolation: isolate"/>
        </g>
        <g id="Grupo_55745" data-name="Grupo 55745" transform="translate(4.061 32.712)">
          <path id="Trazado_105475" data-name="Trazado 105475" d="M2912.9,1649.115a7.832,7.832,0,0,0-9.551-3.39l-.042-.13a7.97,7.97,0,0,1,9.715,3.46Z" transform="translate(-2903.305 -1645.12)" fill="#dedede" style="mix-blend-mode: multiply;isolation: isolate"/>
        </g>
        <g id="Grupo_55746" data-name="Grupo 55746" transform="translate(16.509 42.781)">
          <path id="Trazado_105476" data-name="Trazado 105476" d="M2932.806,1674.017c-.458,0-6.8-9.412-7.838-11.31l.12-.066c1.273,2.335,7.269,11.054,7.729,11.24.274,0,5.378-1.339,7.32-1.854l.035.132C2939.887,1672.235,2933.167,1674.017,2932.806,1674.017Z" transform="translate(-2924.968 -1662.642)" fill="#dedede" style="mix-blend-mode: multiply;isolation: isolate"/>
        </g>
        <g id="Grupo_55747" data-name="Grupo 55747" transform="translate(23.352 54.575)">
          <path id="Trazado_105477" data-name="Trazado 105477" d="M2937.011,1685.686l-.135-.02c.037-.26.613-2.5.883-2.5h0c.06,0,.1.049.109.146.049.394.133,1.2.18,1.663a9.806,9.806,0,0,0,.4-1.655h.137a13,13,0,0,1-.5,2.019l-.1.316-.033-.329c0-.014-.139-1.4-.211-1.973A12.6,12.6,0,0,0,2937.011,1685.686Z" transform="translate(-2936.876 -1683.167)" fill="#dedede" style="mix-blend-mode: multiply;isolation: isolate"/>
        </g>
        <g id="Grupo_55748" data-name="Grupo 55748" transform="translate(6.815 48.547)">
          <path id="Trazado_105478" data-name="Trazado 105478" d="M2926.165,1688.806a5.71,5.71,0,0,1-3.5-.9c-1.838-1.484-14.436-15-14.563-15.134l.1-.093c.127.136,12.719,13.642,14.549,15.12,1.807,1.459,6.054.805,7.926.131l.046.129A14.743,14.743,0,0,1,2926.165,1688.806Z" transform="translate(-2908.098 -1672.676)" fill="#dedede" style="mix-blend-mode: multiply;isolation: isolate"/>
        </g>
        <g id="Grupo_55749" data-name="Grupo 55749" transform="translate(27.141 33.646)">
          <path id="Trazado_105479" data-name="Trazado 105479" d="M2949.664,1659.623h-.137c0-.023,0-2.292-.143-3.417a16.077,16.077,0,0,0-2.276-3.779c-1.1-1.589-2.462-3.566-3.638-5.614l.119-.068c1.172,2.044,2.536,4.018,3.631,5.6,1.29,1.868,2.222,3.218,2.3,3.84C2949.662,1657.322,2949.664,1659.6,2949.664,1659.623Z" transform="translate(-2943.471 -1646.745)" fill="#dedede" style="mix-blend-mode: multiply;isolation: isolate"/>
        </g>
        <rect id="Rectángulo_5352" data-name="Rectángulo 5352" width="1.094" height="3.52" transform="translate(20.827 68.359)" fill="#3b4b5e"/>
        <path id="Trazado_105480" data-name="Trazado 105480" d="M2914.318,1706.64h-1.094v-4.133l1.1.6Z" transform="translate(-2903.464 -1636.818)" fill="#3b4b5e"/>
        <g id="Grupo_55751" data-name="Grupo 55751" transform="translate(4.085 122.911)" style="mix-blend-mode: multiply;isolation: isolate">
          <g id="Grupo_55750" data-name="Grupo 55750">
            <path id="Trazado_105481" data-name="Trazado 105481" d="M2905.662,1805.123a5.707,5.707,0,0,1-2.316-1.184l.209-.281c1.088.807,2.066,1.256,2.183,1.1.06-.078.05-.113.046-.125-.046-.171-.549-.374-.992-.553-.1-.04-.2-.081-.3-.124-.464-.194-.512-.409-.47-.556.165-.577,1.949-.332,2.492-.242.639.1.839-.01.854-.044,0-.007-.009-.055-.085-.129a4.16,4.16,0,0,0-3.265-.445l-.059-.345c2-.345,3.357.183,3.677.669a.393.393,0,0,1,.027.442c-.152.234-.568.3-1.2.2a3.89,3.89,0,0,0-2.08-.014.806.806,0,0,0,.249.144l.3.122c.618.25,1.107.447,1.2.786a.478.478,0,0,1-.107.43A.419.419,0,0,1,2905.662,1805.123Z" transform="translate(-2903.347 -1802.088)" fill="#dedede"/>
          </g>
        </g>
        <path id="Trazado_105482" data-name="Trazado 105482" d="M2917.217,1712.02c-.365,2.708-1.913,8.9-8.4,8.136a39.349,39.349,0,0,1,3.317-8.855l-.119-.066c-2.515,4.563-5.051,13.2-5.051,22.2,0,4.391.394,11.791.741,18.32.32,6.015.622,11.7.43,12.066a.468.468,0,0,0-.238.265,3.057,3.057,0,0,0,.213,1.913c.166.385-.249.9-.728,1.5a7.833,7.833,0,0,0-.792,1.108c-.3.559-1.666,10.469-2.589,21.124-.846,9.766-1.547,22.522-.081,27.828l.132-.036c-1.46-5.287-.759-18.026.085-27.781.955-11.027,2.315-20.6,2.573-21.07a7.7,7.7,0,0,1,.778-1.088c.507-.63.944-1.175.747-1.635a2.951,2.951,0,0,1-.213-1.807.335.335,0,0,1,.176-.2c.248-.1.14-2.835-.358-12.2-.347-6.527-.741-13.925-.741-18.313a54.105,54.105,0,0,1,1.683-13.146,9.346,9.346,0,0,0,1.107.069c5.694,0,7.113-5.729,7.461-8.32Z" transform="translate(-2899.145 -1640.531)" fill="#dedede" style="mix-blend-mode: multiply;isolation: isolate"/>
      </g>
    </g>
    <g id="Grupo_55761" data-name="Grupo 55761" transform="translate(2796.557 1484.415)">
      <path id="Trazado_105483" data-name="Trazado 105483" d="M3172.83,1894.579a11.784,11.784,0,0,1,.943,4.755H3146.76c1.147-1.967,5.042-4.058,9.879-5.985s5.943-4.386,5.943-4.386Z" transform="translate(-3098.608 -1713.658)" fill="#2b1710"/>
      <path id="Trazado_105484" data-name="Trazado 105484" d="M3153.678,1701.413c0,2.767,2.767,52.018,4.427,54.785s6.087,45.931,6.087,45.931c7.009,2.951,11.99,6.456,12.728,5.718s-.8-44.824-4.612-54.232c.553-3.5,1.476-36.892,1.476-36.892s-13.39-35.047-13.759-34.494S3153.678,1701.413,3153.678,1701.413Z" transform="translate(-3101.552 -1625.717)" fill="#6aa5ab"/>
      <path id="Trazado_105485" data-name="Trazado 105485" d="M3161.619,1894.579a11.786,11.786,0,0,1,.942,4.755h-27.013c1.147-1.967,5.042-4.058,9.879-5.985s5.944-4.386,5.944-4.386Z" transform="translate(-3093.84 -1713.658)" fill="#2b1710"/>
      <path id="Trazado_105486" data-name="Trazado 105486" d="M3142.468,1705.781c0,2.767,2.767,52.018,4.427,54.785s6.087,45.931,6.087,45.931c7.01,2.951,11.99,6.456,12.728,5.718s-.8-44.824-4.612-54.232c.553-3.5,1.476-36.892,1.476-36.892s-3.5-29.145-3.874-28.591S3142.468,1705.781,3142.468,1705.781Z" transform="translate(-3096.783 -1630.086)" fill="#86bec4"/>
      <path id="Trazado_105487" data-name="Trazado 105487" d="M3139.94,1682.771c-.246,4.837-1.886,19.922.82,20.741a14.987,14.987,0,0,0,6.313.082s-1.8-18.364-1.968-18.774-1.394-3.443-1.394-3.443Z" transform="translate(-3095.403 -1625.358)" fill="#3b4b5e"/>
      <path id="Trazado_105488" data-name="Trazado 105488" d="M3127.139,1637.814l-18.292,17.565-21.889.389-1.558,11.15s22.381,1.907,23.939,1.415,10-5.247,10-5.247c-.492,8.034,5,40.909,8.854,48.452,4.345-3.689,1.476-1.968,8.854-5.411s10.412-10,10.494-11.232c-2.214-9.838-5.493-12.872-6.723-16.888s1.968-25.5.82-33.531-3.095-9.612-3.095-9.612l-2.562-2.767s-2.541-.082-2.787-.082-3.935,1.476-3.935,1.476l-1.394,2.3Z" transform="translate(-3072.508 -1604.36)" fill="#3b4b5e"/>
      <path id="Trazado_105489" data-name="Trazado 105489" d="M3157.5,1622.19c1.292,3.751.308,10.268.308,10.268,4.734-3.966,9.069-4.765,11.406-2.951-3.413-3.935-3.566-10.084-3.566-10.084l-8.024,1.014Z" transform="translate(-3103.177 -1599.004)" fill="#ff8762"/>
      <path id="Trazado_105490" data-name="Trazado 105490" d="M3152.379,1606.952a16.328,16.328,0,0,1-.492,4.919c.984-.573,11.724-7.378,12.79-11.478s2.213-13.117-7.133-15.9-20,4.673-13.855,11.478A82.923,82.923,0,0,1,3152.379,1606.952Z" transform="translate(-3096.529 -1583.889)" fill="#2b1710"/>
      <path id="Trazado_105491" data-name="Trazado 105491" d="M3145.9,1590.853c-3.648,1.763-3.73,6.067-3.2,7.5s-.41,4.878-2.377,5.944c.451.779,2.131.861,2.377,1.271s0,1.148,0,1.271c.082.492,1.025,1.025,1.025,1.025s-.082,1.066.574,1.271,1.148,1.722,1.23,2.746,1.6.451,2.91,0a12.368,12.368,0,0,0,3.279-1.967c.861-5.9,0-7.993-2.746-12.339S3145.9,1590.853,3145.9,1590.853Z" transform="translate(-3095.872 -1586.851)" fill="#ff8762"/>
      <path id="Trazado_105492" data-name="Trazado 105492" d="M3144.464,1618.518c.082.492,1.025,1.025,1.025,1.025s-.078,1.03.544,1.258c.3-.164,2.177-1.221,2.586-2.253A10.079,10.079,0,0,0,3144.464,1618.518Z" transform="translate(-3097.632 -1598.529)" fill="#eb6a63"/>
      <path id="Trazado_105493" data-name="Trazado 105493" d="M3148.94,1607.078c0,.628-.275,1.138-.615,1.138s-.615-.51-.615-1.138.275-1.137.615-1.137S3148.94,1606.45,3148.94,1607.078Z" transform="translate(-3099.013 -1593.269)" fill="#2b1710"/>
      <path id="Trazado_105494" data-name="Trazado 105494" d="M3149.364,1601.926a14.073,14.073,0,0,0-4.488-1.445C3146.382,1599.467,3147.611,1599.682,3149.364,1601.926Z" transform="translate(-3097.807 -1590.7)" fill="#2b1710"/>
      <g id="Grupo_55754" data-name="Grupo 55754" transform="translate(48.14 19.653)">
        <path id="Trazado_105495" data-name="Trazado 105495" d="M3146.749,1619.3l-.009-.157a5.6,5.6,0,0,0,3.212-1.056l.1.118A5.636,5.636,0,0,1,3146.749,1619.3Z" transform="translate(-3146.74 -1618.09)" fill="#2b1710"/>
      </g>
      <g id="Grupo_55755" data-name="Grupo 55755" transform="translate(48.107 53.369)">
        <rect id="Rectángulo_5353" data-name="Rectángulo 5353" width="10.561" height="0.157" transform="matrix(0.885, -0.466, 0.466, 0.885, 0, 4.918)" fill="#c4c4c4" style="mix-blend-mode: multiply;isolation: isolate"/>
      </g>
      <g id="Grupo_55756" data-name="Grupo 55756" transform="translate(54.978 32.67)">
        <path id="Trazado_105496" data-name="Trazado 105496" d="M3158.746,1643.491l-.106-.115c3.5-3.229,7.171-3.5,9.825-.734l-.114.109C3165.764,1640.05,3162.174,1640.327,3158.746,1643.491Z" transform="translate(-3158.64 -1640.743)" fill="#c4c4c4" style="mix-blend-mode: multiply;isolation: isolate"/>
      </g>
      <g id="Grupo_55757" data-name="Grupo 55757" transform="translate(52.479 78.462)">
        <path id="Trazado_105497" data-name="Trazado 105497" d="M3161.462,1732.835a7.8,7.8,0,0,1-1.187-.089c-3.2-.491-5.32-6.265-5.968-10.025l-.016-.089.09,0c.074,0,7.383-.268,9.916-2.2l.1.125c-2.449,1.866-9.026,2.19-9.916,2.226.658,3.717,2.733,9.333,5.822,9.809a11.084,11.084,0,0,0,6.221-1.221l.077.137A11.886,11.886,0,0,1,3161.462,1732.835Z" transform="translate(-3154.291 -1720.432)" fill="#c4c4c4" style="mix-blend-mode: multiply;isolation: isolate"/>
      </g>
      <g id="Grupo_55758" data-name="Grupo 55758" transform="translate(33.324 51.861)">
        <path id="Trazado_105498" data-name="Trazado 105498" d="M3123.982,1677.864h-.011c-.435-.029-.682-2.209-.692-2.3-.032-.285-.074-.326-.082-.332a1.8,1.8,0,0,0-.355.41,6.434,6.434,0,0,1-1.2,1.288c-.121.094-.488.378-.643.187-.261-.323.71-1.975,1.9-2.974l.1.121c-1.226,1.033-2.024,2.569-1.875,2.754.012.015.119.023.423-.212a6.291,6.291,0,0,0,1.171-1.258c.245-.325.38-.5.524-.465.106.029.16.159.194.465a4.894,4.894,0,0,0,.547,2.163s.073-.022.16-.37a7.294,7.294,0,0,0-.123-2.995l.152-.04a7.312,7.312,0,0,1,.123,3.073C3124.237,1677.6,3124.15,1677.864,3123.982,1677.864Z" transform="translate(-3120.958 -1674.139)" fill="#c4c4c4" style="mix-blend-mode: multiply;isolation: isolate"/>
      </g>
      <g id="Grupo_55759" data-name="Grupo 55759" transform="translate(59.979 126.952)">
        <path id="Trazado_105499" data-name="Trazado 105499" d="M3168.209,1808.044l0-.01c-.194-.39,1.565-1.7,1.64-1.758.23-.171.245-.228.246-.238a1.787,1.787,0,0,0-.533-.1,6.417,6.417,0,0,1-1.717-.387c-.141-.057-.572-.231-.485-.46.147-.388,2.064-.382,3.524.138l-.053.148c-1.511-.538-3.24-.453-3.324-.231-.007.018.04.115.4.259a6.286,6.286,0,0,0,1.676.376c.405.048.628.074.667.218.028.106-.057.218-.3.4-.956.71-1.653,1.435-1.593,1.563,0,0,.056.052.4-.048a7.287,7.287,0,0,0,2.524-1.616l.111.111a7.3,7.3,0,0,1-2.591,1.655C3168.563,1808.133,3168.294,1808.189,3168.209,1808.044Z" transform="translate(-3167.344 -1804.816)" fill="#c4c4c4" style="mix-blend-mode: multiply;isolation: isolate"/>
      </g>
      <path id="Trazado_105500" data-name="Trazado 105500" d="M3077.415,1669.731s-6.948-4.8-7.687-4.857-3.32-.062-3.5.184-3.259,3.382-3.259,3.382c.861.492,3.812-1.291,3.812-1.291s-3.259,3.812-3.259,4a1.8,1.8,0,0,0,.984.369c.185,1.045,2.459-.738,3.443-.307s2.213.492,3.689,2.091a7.216,7.216,0,0,0,4.981,2.152Z" transform="translate(-3062.965 -1618.323)" fill="#ff8762"/>
      <g id="Grupo_55760" data-name="Grupo 55760" transform="translate(1.877 49.586)">
        <path id="Trazado_105501" data-name="Trazado 105501" d="M3066.289,1673.259l-.058-.052c.271-.31,2.668-3.026,3.1-3.026a4.571,4.571,0,0,1,1.15.248l-.026.074a4.621,4.621,0,0,0-1.125-.244C3069.032,1670.26,3067.348,1672.053,3066.289,1673.259Z" transform="translate(-3066.231 -1670.181)" fill="#e0b3a8" style="mix-blend-mode: multiply;isolation: isolate"/>
      </g>
    </g>
  </g>
</svg>
