<svg xmlns="http://www.w3.org/2000/svg" width="549" height="223.317" viewBox="0 0 549 223.317">
  <g id="Grupo_1069624" data-name="Grupo 1069624" transform="translate(-518 -992.927)">
    <g id="Grupo_1069623" data-name="Grupo 1069623">
      <path id="Trazado_773601" data-name="Trazado 773601" d="M45.976,22h-8.4V8h8.076v2.568H40.731V13.68h4.58v2.559h-4.58v3.2h5.244Zm11.6,0H54.5V16.443q0-2.324-1.66-2.324a1.647,1.647,0,0,0-1.318.615A2.344,2.344,0,0,0,51,16.3V22H47.919V12H51v1.582h.039a3.536,3.536,0,0,1,3.213-1.826q3.32,0,3.32,4.121ZM69.8,22H66.718V20.623h-.039a3.46,3.46,0,0,1-3.1,1.621,3.791,3.791,0,0,1-3.018-1.323,5.478,5.478,0,0,1-1.143-3.7,5.962,5.962,0,0,1,1.26-3.975,4.109,4.109,0,0,1,3.3-1.494,2.808,2.808,0,0,1,2.7,1.387h.039V7.2H69.8Zm-3.027-4.863v-.752a2.366,2.366,0,0,0-.566-1.621,2,2,0,0,0-3.076.161,3.741,3.741,0,0,0-.576,2.212,3.237,3.237,0,0,0,.557,2.031,1.976,1.976,0,0,0,3.071-.039A3.134,3.134,0,0,0,66.776,17.137Zm10.391,5.107a5.376,5.376,0,0,1-3.931-1.4,5.081,5.081,0,0,1-1.431-3.8,5.081,5.081,0,0,1,1.484-3.882,5.609,5.609,0,0,1,4.014-1.4,5.311,5.311,0,0,1,3.906,1.4,4.981,4.981,0,0,1,1.416,3.706,5.288,5.288,0,0,1-1.46,3.936A5.435,5.435,0,0,1,77.167,22.244Zm.078-8.125a2.058,2.058,0,0,0-1.7.752A3.316,3.316,0,0,0,74.94,17q0,2.881,2.324,2.881,2.217,0,2.217-2.959Q79.481,14.119,77.245,14.119ZM100.507,22H97.431V16.3q0-2.178-1.6-2.178a1.471,1.471,0,0,0-1.24.654A2.689,2.689,0,0,0,94.11,16.4V22H91.024V16.238q0-2.119-1.572-2.119a1.507,1.507,0,0,0-1.265.625,2.75,2.75,0,0,0-.474,1.7V22H84.628V12h3.086v1.563h.039a3.789,3.789,0,0,1,3.232-1.807,2.88,2.88,0,0,1,2.9,1.865,3.7,3.7,0,0,1,3.359-1.865q3.262,0,3.262,4.023Zm7.207.244a5.376,5.376,0,0,1-3.931-1.4,5.081,5.081,0,0,1-1.431-3.8,5.081,5.081,0,0,1,1.484-3.882,5.609,5.609,0,0,1,4.014-1.4,5.311,5.311,0,0,1,3.906,1.4,4.981,4.981,0,0,1,1.416,3.706,5.288,5.288,0,0,1-1.46,3.936A5.435,5.435,0,0,1,107.714,22.244Zm.078-8.125a2.058,2.058,0,0,0-1.7.752A3.316,3.316,0,0,0,105.487,17q0,2.881,2.324,2.881,2.217,0,2.217-2.959Q110.028,14.119,107.792,14.119Zm13.906.664a2.677,2.677,0,0,0-1.3-.3,1.871,1.871,0,0,0-1.572.737,3.217,3.217,0,0,0-.566,2.007V22h-3.086V12h3.086v1.855h.039a2.67,2.67,0,0,1,2.637-2.031,1.987,1.987,0,0,1,.762.117Zm8.457-5.225a3.117,3.117,0,0,0-1.143-.234q-1.484,0-1.484,1.611V12h2.285v2.275h-2.285V22h-3.076V14.275h-1.68V12h1.68V10.76a3.6,3.6,0,0,1,1.113-2.754,4.246,4.246,0,0,1,3.027-1.045,5.317,5.317,0,0,1,1.563.2Zm5.908,12.686a5.376,5.376,0,0,1-3.931-1.4,5.081,5.081,0,0,1-1.431-3.8,5.081,5.081,0,0,1,1.484-3.882,5.609,5.609,0,0,1,4.014-1.4,5.311,5.311,0,0,1,3.906,1.4,4.981,4.981,0,0,1,1.416,3.706,5.288,5.288,0,0,1-1.46,3.936A5.435,5.435,0,0,1,136.063,22.244Zm.078-8.125a2.058,2.058,0,0,0-1.7.752A3.316,3.316,0,0,0,133.837,17q0,2.881,2.324,2.881,2.217,0,2.217-2.959Q138.378,14.119,136.142,14.119Zm6.729,7.617v-2.5a6.57,6.57,0,0,0,1.519.684,5.035,5.035,0,0,0,1.431.225,3.068,3.068,0,0,0,1.294-.225.726.726,0,0,0,.474-.684.632.632,0,0,0-.215-.488,2,2,0,0,0-.552-.342,6.262,6.262,0,0,0-.737-.264q-.4-.117-.771-.264a7.392,7.392,0,0,1-1.05-.483,3.034,3.034,0,0,1-.762-.6,2.361,2.361,0,0,1-.469-.791,3.157,3.157,0,0,1-.161-1.064,2.74,2.74,0,0,1,.366-1.445,2.991,2.991,0,0,1,.977-.991,4.462,4.462,0,0,1,1.4-.566,7.281,7.281,0,0,1,1.636-.181,9.076,9.076,0,0,1,1.348.1,10.058,10.058,0,0,1,1.348.3v2.383a4.87,4.87,0,0,0-1.255-.513,5.294,5.294,0,0,0-1.313-.171,2.91,2.91,0,0,0-.571.054,1.882,1.882,0,0,0-.474.156.87.87,0,0,0-.322.264.607.607,0,0,0-.117.366.677.677,0,0,0,.176.469,1.527,1.527,0,0,0,.459.337,4.531,4.531,0,0,0,.63.254q.347.112.688.229a8.951,8.951,0,0,1,1.113.469,3.559,3.559,0,0,1,.854.6,2.339,2.339,0,0,1,.547.8,3.2,3.2,0,0,1-.2,2.612,3.088,3.088,0,0,1-1.025,1.025,4.65,4.65,0,0,1-1.475.576,8.175,8.175,0,0,1-1.733.181A8.936,8.936,0,0,1,142.87,21.736Z" transform="translate(908 1194)" fill="#12263f"/>
      <path id="Trazado_773602" data-name="Trazado 773602" d="M65.5,0A65.5,65.5,0,1,1,0,65.5,65.5,65.5,0,0,1,65.5,0Z" transform="translate(936 1023.23)" fill="#f5947a"/>
      <g id="Grupo_55789" data-name="Grupo 55789" transform="translate(959.957 993.423)">
        <g id="Grupo_55787" data-name="Grupo 55787">
          <g id="Grupo_55786" data-name="Grupo 55786">
            <ellipse id="Elipse_4041" data-name="Elipse 4041" cx="41.543" cy="6.856" rx="41.543" ry="6.856" transform="translate(0 168.902)" fill="#8c757e" stroke="#8c757e" stroke-width="1" opacity="0.1"/>
            <g id="Grupo_55785" data-name="Grupo 55785" transform="translate(3.389)">
              <g id="Grupo_55763" data-name="Grupo 55763" transform="translate(0 25.631)">
                <g id="Grupo_55762" data-name="Grupo 55762">
                  <path id="Trazado_105502" data-name="Trazado 105502" d="M133.664,186.878c-.19-1.061-.387-2.1-.6-3.128a88.376,88.376,0,0,0-3.5-12.412c-.548-1.469-1.1-2.8-1.673-3.985-.253-.527-.506-1.033-.759-1.5-4.027-7.408-11.14-6.852-15.9-7.148a10.116,10.116,0,0,1-3.085-.527,2.753,2.753,0,0,1-1.778-2.495c0-.028-.007-.063-.007-.091a7.2,7.2,0,0,1,.141-1.841,13.545,13.545,0,0,1,.766-2.418,17.054,17.054,0,0,1,.879-1.841H93.6a18.759,18.759,0,0,1,.829,1.722,13.463,13.463,0,0,1,.815,2.586,6.862,6.862,0,0,1,.148,1.588,3.575,3.575,0,0,1-.028.394,2.728,2.728,0,0,1-1.764,2.4,18.251,18.251,0,0,1-5.313.633,29.963,29.963,0,0,0-4.737.492S73.271,161.4,71.015,168.97q-.19.622-.4,1.265c-1.483,4.414-3.9,9.193-5.5,12.918-1.047,2.432-1.743,4.407-1.6,5.545.225,1.8,6.649,7.857,11.835,12.5.822.731,1.616,1.427,2.347,2.066,1.04.907,1.961,1.7,2.671,2.312a26.1,26.1,0,0,0,1.026,3.894,9.374,9.374,0,0,0,2.537,2.39c2.4,1.659,6.768,3.605,14.155,3.816h.035c.879.028,1.792.028,2.755,0a39.847,39.847,0,0,0,7.112-.8,24.091,24.091,0,0,0,9.959-4.287c.162-.126.316-.253.464-.372.267-.218.5-.436.717-.64.267-.253.5-.492.7-.71a1.826,1.826,0,0,0,.176-.218l.337-.028a20.62,20.62,0,0,0,1.37-5.721c.007-.07.014-.148.021-.218.611-6.508-3.381-10.7-4.758-14.668-.527-1.525,1.518-5.594,1.645-6.867,4.7,4.99,12.348,33.581,12.348,33.581h3.233C135.843,206.072,135.281,195.951,133.664,186.878Zm-53.4,11.674L77.777,195,75.9,192.3l-3.655-5.229a.488.488,0,0,1,.042-.611l4.667-5,4.941-5.292a.638.638,0,0,0-.084.45,13.6,13.6,0,0,0,.794,2.987c.1.267.19.52.274.745.183.485.309.808.309.808.176,1.5,1.813,4.379,1.265,5.953C83.35,190.3,81.031,193.793,80.265,198.552Z" transform="translate(-63.491 -149.495)" fill="#8c757e" stroke="#8c757e" stroke-width="1"/>
                  <path id="Trazado_105503" data-name="Trazado 105503" d="M86.429,227.351a4.34,4.34,0,0,1-1.3-3.092c.174-1.666-.845-2.95,1.694-3.679V225.7Z" transform="translate(-69.904 -170.62)" fill="#8c757e" stroke="#8c757e" stroke-width="1"/>
                  <path id="Trazado_105504" data-name="Trazado 105504" d="M120.823,193.936c.8.041,1.834.013,2.125.76.309.791-.627,1.512-1.457,1.691a5.228,5.228,0,0,1-2.286-.019c-1.26-.294-2.413-1.057-3.707-1.1-1.354-.041-2.582.713-3.844,1.2-1.326.517-5.046,1.534-5.7-.585-.468-1.517,1.6-1.666,2.671-1.974,1.955-.561,3.856-2.091,5.927-1.913C116.761,192.194,118.586,193.82,120.823,193.936Z" transform="translate(-76.09 -162.124)" fill="#8c757e" stroke="#8c757e" stroke-width="1"/>
                  <path id="Trazado_105505" data-name="Trazado 105505" d="M82.5,185.394a3.84,3.84,0,0,1-1.033,1.307c-1.272,1.181-2.544,2.354-3.823,3.535l-.548.506a7.911,7.911,0,0,1-3.894,2.39,18.55,18.55,0,0,1-3.521-.211,6.838,6.838,0,0,0-3.612.9,7.585,7.585,0,0,1-.267-1.9c1.6-3.725,4.02-8.5,5.5-12.918a6.668,6.668,0,0,0,.274,2.776,2.365,2.365,0,0,0,.618,1.1,2.711,2.711,0,0,0,1.511.513,29.261,29.261,0,0,0,5.974.084c1.1-.091,2.558-.035,2.867,1.026A1.387,1.387,0,0,1,82.5,185.394Z" transform="translate(-64.177 -158.265)" fill="#8c757e" stroke="#8c757e" stroke-width="1"/>
                  <path id="Trazado_105506" data-name="Trazado 105506" d="M87.318,211.205c.766-4.758,3.085-8.251,4.189-11.435.548-1.574-1.089-4.449-1.265-5.953l-.583-1.553c.457.344,1.392,1.29,1.631,1.41a6,6,0,0,0,2.741.544c1.989.077,3.12,1.813,3.282,3.774a9.362,9.362,0,0,1-1.42,5.18c-.879,1.588-1.968,3.057-2.755,4.695a11.145,11.145,0,0,0-1.167,6.079,7.7,7.7,0,0,0,2.952,5.327c3.437,2.509,8.427,1.23,12.229,3.135q-8.086,1.044-16.172,2.1a9.374,9.374,0,0,1-2.537-2.39,26.1,26.1,0,0,1-1.026-3.894A54.705,54.705,0,0,1,87.318,211.205Z" transform="translate(-70.545 -162.149)" fill="#8c757e" stroke="#8c757e" stroke-width="1"/>
                  <path id="Trazado_105507" data-name="Trazado 105507" d="M118.623,158.434a2.753,2.753,0,0,1-1.778-2.495v-.008a6.792,6.792,0,0,1,.136-1.922,13.37,13.37,0,0,1,.764-2.418,15.4,15.4,0,0,0-6.549-1.248,15.891,15.891,0,0,0-6.292,1.127,13.587,13.587,0,0,1,.817,2.587,6.257,6.257,0,0,1,.116,1.978h0a2.728,2.728,0,0,1-1.764,2.4,18.251,18.251,0,0,1-5.313.633.205.205,0,0,0-.014.063c1.42.471,3.057.372,4.54.956a13.346,13.346,0,0,1,3.929,2.5c.822.787,1.539,1.7,2.432,2.4a4.069,4.069,0,0,0,3.17,1c1.722-.323,2.692-2.1,3.788-3.472a11.135,11.135,0,0,1,5.1-3.556A10.115,10.115,0,0,1,118.623,158.434Z" transform="translate(-73.969 -149.747)" fill="#8c757e" stroke="#8c757e" stroke-width="1"/>
                  <path id="Trazado_105508" data-name="Trazado 105508" d="M157.043,196.114c-2.629-2.523-5.489-4.969-9.017-5.777-1.933-.443-3.957-.365-5.869-.886a8.307,8.307,0,0,0,1.5-2.263,2.815,2.815,0,0,0-.183-2.614c2.087,1.054,4.625.64,6.8-.19a4.347,4.347,0,0,0,2.305-1.624,14.225,14.225,0,0,0,.351-2.186,88.376,88.376,0,0,1,3.5,12.412C156.656,194.013,156.853,195.053,157.043,196.114Z" transform="translate(-86.87 -158.731)" fill="#8c757e" stroke="#8c757e" stroke-width="1"/>
                  <circle id="Elipse_4042" data-name="Elipse 4042" cx="0.545" cy="0.545" r="0.545" transform="translate(23.722 26.681)" fill="#8c757e" stroke="#8c757e" stroke-width="1"/>
                  <path id="Trazado_105509" data-name="Trazado 105509" d="M136.72,188a.545.545,0,1,1-.545-.545A.545.545,0,0,1,136.72,188Z" transform="translate(-84.93 -160.777)" fill="#8c757e" stroke="#8c757e" stroke-width="1"/>
                </g>
              </g>
              <g id="Grupo_55764" data-name="Grupo 55764" transform="translate(66.881 90.339)">
                <path id="Trazado_105510" data-name="Trazado 105510" d="M163.464,247.022c.033,1.311-.541.653-.956,1.311a8.1,8.1,0,0,0-1.016,2.081c-.127.582-.575.727-.895.577s.16-3.17.127-3.322c-.028-.124-.631-1.833-.848-2.442l-.075-.216s.014.07.042.264c.033.21.08.571.146,1.159,0,.065.009.124.014.178.047.976-.556,1.143-.556,1.143l-.8-2.852.472-3.254s2.809-.251,3.383.11c.485.3.805,2.9.919,4.491C163.445,246.548,163.46,246.812,163.464,247.022Z" transform="translate(-158.653 -241.565)" fill="#8c757e" stroke="#8c757e" stroke-width="1"/>
                <path id="Trazado_105511" data-name="Trazado 105511" d="M163.982,248.515c.033,1.311-.541.653-.956,1.311a8.1,8.1,0,0,0-1.016,2.081c-.127.582-.575.727-.895.577s.16-3.17.127-3.322c-.028-.124-.631-1.833-.848-2.442.3-.442.593.35.739.6a1.587,1.587,0,0,0,1.478.588,6.878,6.878,0,0,0,1.333-.167C163.963,248.041,163.977,248.305,163.982,248.515Z" transform="translate(-159.171 -243.058)" fill="#8c757e" stroke="#8c757e" stroke-width="1"/>
              </g>
              <g id="Grupo_55773" data-name="Grupo 55773" transform="translate(10.162 84.753)">
                <g id="Grupo_55768" data-name="Grupo 55768" transform="translate(26.453 7.076)">
                  <g id="Grupo_55767" data-name="Grupo 55767">
                    <g id="Grupo_55766" data-name="Grupo 55766">
                      <g id="Grupo_55765" data-name="Grupo 55765" transform="translate(16.084 75.832)">
                        <path id="Trazado_105512" data-name="Trazado 105512" d="M141.31,356.268c1.567.624,4.7,2.1,4.7,2.1.073.034.218.1.4.16a5.849,5.849,0,0,0,.769.227,2.666,2.666,0,0,0,.4.044.674.674,0,0,0,.4-.121.566.566,0,0,0,.141-.121,0,0,0,0,1,0,0,1.131,1.131,0,0,0,.952-.15.143.143,0,0,0,.039-.034c.286.058.745-.387.745-.387a.727.727,0,0,0,.174-.048,1.891,1.891,0,0,0,.261-.135c.068-.155-.048-.465-.367-.682s-1.765-1.427-2.95-2.316c-.924-.7-2.568-1.992-3.468-2.7-.387-.3-.634-.493-.634-.493a.028.028,0,0,1,0-.019H138.8c-.039.183-.077.368-.116.556a11,11,0,0,0-.194,1.287C138.278,356.438,139.738,355.639,141.31,356.268Z" transform="translate(-138.473 -351.582)" fill="#8c757e" stroke="#8c757e" stroke-width="1"/>
                        <path id="Trazado_105513" data-name="Trazado 105513" d="M151.948,361.068s.451-.734-.6-1.028" transform="translate(-142.3 -354.096)" fill="#8c757e" stroke="#8c757e" stroke-linecap="round" stroke-linejoin="round" stroke-width="0.25"/>
                        <path id="Trazado_105514" data-name="Trazado 105514" d="M153.43,360.944s.464-.591-.316-.81" transform="translate(-142.824 -354.124)" fill="#8c757e" stroke="#8c757e" stroke-linecap="round" stroke-linejoin="round" stroke-width="0.25"/>
                        <path id="Trazado_105515" data-name="Trazado 105515" d="M154.319,360.517s.463-.592-.317-.81" transform="translate(-143.088 -353.997)" fill="#8c757e" stroke="#8c757e" stroke-linecap="round" stroke-linejoin="round" stroke-width="0.25"/>
                        <path id="Trazado_105516" data-name="Trazado 105516" d="M154.793,360.274s.463-.592-.316-.811" transform="translate(-143.229 -353.924)" fill="#8c757e" stroke="#8c757e" stroke-linecap="round" stroke-linejoin="round" stroke-width="0.25"/>
                      </g>
                      <path id="Trazado_105517" data-name="Trazado 105517" d="M115.589,250.011l.788,3.381.184.793,15.327,65.888.019.077.958-.024.116,0,3.729-.092h.048l-.982-76.344-10.616,3.328-.793.247-7.24,2.268-.324.1Z" transform="translate(-115.589 -243.685)" fill="#8c757e" stroke="#8c757e" stroke-width="1"/>
                    </g>
                  </g>
                  <path id="Trazado_105518" data-name="Trazado 105518" d="M136.779,297.846a3.8,3.8,0,0,1-3.213-.853,1.227,1.227,0,0,0-.5-.309c-.425-.086-.793.391-.77.824a2.158,2.158,0,0,0,.566,1.148l2.369,3.052a1.945,1.945,0,0,0,.786.7c.763.285,1.513-.447,1.924-1.15a8,8,0,0,0,1.17-5.381C138.465,296.629,137.931,297.578,136.779,297.846Z" transform="translate(-120.552 -259.195)" fill="#8c757e" stroke="#8c757e" stroke-width="1"/>
                  <path id="Trazado_105519" data-name="Trazado 105519" d="M116.667,251.571c-.007.843.007,1.68.049,2.516l.105.443,15.216,65.425a1.962,1.962,0,0,0,.232-.492,4.994,4.994,0,0,0-.042-2.277q-3.511-19.956-7.021-39.92c-.864-4.92-1.729-9.882-1.518-14.865s1.588-10.071,4.772-13.916c.59-.7,2.221-1.9,2.741-2.938a1.271,1.271,0,0,0,.155-.7c-4.2.1-8.771,1.722-12.594,3.366a3.747,3.747,0,0,0-1.532,1,2.35,2.35,0,0,0-.408.843A6.055,6.055,0,0,0,116.667,251.571Z" transform="translate(-115.909 -244.029)" fill="#8c757e" stroke="#8c757e" stroke-width="1"/>
                </g>
                <g id="Grupo_55772" data-name="Grupo 55772" transform="translate(0 7.076)">
                  <g id="Grupo_55771" data-name="Grupo 55771">
                    <g id="Grupo_55769" data-name="Grupo 55769" transform="translate(0 75.832)">
                      <path id="Trazado_105520" data-name="Trazado 105520" d="M86.955,356.268c-1.567.624-4.7,2.1-4.7,2.1a4.318,4.318,0,0,1-.4.16,5.848,5.848,0,0,1-.769.227,2.666,2.666,0,0,1-.4.044.672.672,0,0,1-.4-.121.552.552,0,0,1-.141-.121,0,0,0,0,0,0,0,1.134,1.134,0,0,1-.953-.15.16.16,0,0,1-.039-.034c-.285.058-.744-.387-.744-.387a.718.718,0,0,1-.174-.048,1.923,1.923,0,0,1-.261-.135c-.067-.155.048-.465.368-.682s1.765-1.427,2.95-2.316c.924-.7,2.568-1.992,3.468-2.7.387-.3.634-.493.634-.493a.028.028,0,0,0,0-.019h4.067c.039.183.077.368.116.556a10.847,10.847,0,0,1,.193,1.287C89.988,356.438,88.528,355.639,86.955,356.268Z" transform="translate(-77.951 -351.582)" fill="#8c757e" stroke="#8c757e" stroke-width="1"/>
                      <path id="Trazado_105521" data-name="Trazado 105521" d="M81.031,361.068s-.452-.734.6-1.028" transform="translate(-78.837 -354.096)" fill="#8c757e" stroke="#8c757e" stroke-linecap="round" stroke-linejoin="round" stroke-width="0.25"/>
                      <path id="Trazado_105522" data-name="Trazado 105522" d="M79.651,360.944s-.464-.591.316-.81" transform="translate(-78.415 -354.124)" fill="#8c757e" stroke="#8c757e" stroke-linecap="round" stroke-linejoin="round" stroke-width="0.25"/>
                      <path id="Trazado_105523" data-name="Trazado 105523" d="M78.762,360.517s-.464-.592.316-.81" transform="translate(-78.151 -353.997)" fill="#8c757e" stroke="#8c757e" stroke-linecap="round" stroke-linejoin="round" stroke-width="0.25"/>
                      <path id="Trazado_105524" data-name="Trazado 105524" d="M78.288,360.274s-.464-.592.316-.811" transform="translate(-78.01 -353.924)" fill="#8c757e" stroke="#8c757e" stroke-linecap="round" stroke-linejoin="round" stroke-width="0.25"/>
                    </g>
                    <g id="Grupo_55770" data-name="Grupo 55770" transform="translate(6.759)">
                      <path id="Trazado_105525" data-name="Trazado 105525" d="M108.736,250.01l-.787,3.381-.084.351-.105.443L92.543,319.61l-.105.464-.021.077-.956-.028h-.119l-3.732-.091h-.042l.977-76.347L93.38,245.2l5.784,1.806.794.253,7.239,2.263.323.105.239.077Z" transform="translate(-87.567 -243.685)" fill="#8c757e" stroke="#8c757e" stroke-width="1"/>
                      <path id="Trazado_105526" data-name="Trazado 105526" d="M109.87,251.571c.007.843-.007,1.68-.049,2.516l-.105.443L94.5,319.955a1.962,1.962,0,0,1-.232-.492,4.994,4.994,0,0,1,.042-2.277q3.511-19.956,7.021-39.92c.864-4.92,1.729-9.882,1.518-14.865s-1.588-10.071-4.772-13.916c-.59-.7-2.221-1.9-2.741-2.938a1.271,1.271,0,0,1-.155-.7c4.2.1,8.771,1.722,12.594,3.366a3.747,3.747,0,0,1,1.532,1,2.35,2.35,0,0,1,.408.843A6.054,6.054,0,0,1,109.87,251.571Z" transform="translate(-89.523 -244.03)" fill="#8c757e" stroke="#8c757e" stroke-width="1"/>
                      <path id="Trazado_105527" data-name="Trazado 105527" d="M94.3,297.846a3.806,3.806,0,0,0,3.213-.853,1.227,1.227,0,0,1,.5-.309c.425-.086.792.391.77.824a2.168,2.168,0,0,1-.566,1.148q-1.185,1.525-2.369,3.052a1.945,1.945,0,0,1-.786.7c-.763.285-1.513-.447-1.924-1.15a8,8,0,0,1-1.17-5.381C92.611,296.629,93.146,297.578,94.3,297.846Z" transform="translate(-88.841 -259.195)" fill="#8c757e" stroke="#8c757e" stroke-width="1"/>
                    </g>
                  </g>
                </g>
                <path id="Trazado_105528" data-name="Trazado 105528" d="M127.9,233.617v7.076l-.044.019-16.986,6.351a6.692,6.692,0,0,1-1.833.411,6.867,6.867,0,0,1-3.038-.411l-17.044-6.37v-6.225l6.907-.15,25.9-.566,5.006-.112Z" transform="translate(-81.222 -233.617)" fill="#8c757e" stroke="#8c757e" stroke-width="1"/>
              </g>
              <g id="Grupo_55779" data-name="Grupo 55779" transform="translate(26.501)">
                <g id="Grupo_55778" data-name="Grupo 55778" transform="translate(0 7.583)">
                  <g id="Grupo_55777" data-name="Grupo 55777">
                    <path id="Trazado_105529" data-name="Trazado 105529" d="M129.482,138.406s1.818-.94,1.471.794-1.214,3.9-2.341,3.208S129.482,138.406,129.482,138.406Z" transform="translate(-109.243 -128.076)" fill="#8c757e" stroke="#8c757e" stroke-width="1"/>
                    <path id="Trazado_105530" data-name="Trazado 105530" d="M102.713,138.406s-1.817-.94-1.471.794,1.214,3.9,2.341,3.208S102.713,138.406,102.713,138.406Z" transform="translate(-101.199 -128.076)" fill="#8c757e" stroke="#8c757e" stroke-width="1"/>
                    <g id="Grupo_55776" data-name="Grupo 55776" transform="translate(1.23)">
                      <path id="Trazado_105531" data-name="Trazado 105531" d="M122.077,134.146c0,8.753-1.572,13.3-9.364,13.3-8.449,0-9.364-5.251-9.364-13.3,0-5.7,4.192-10.329,9.364-10.329S122.077,128.442,122.077,134.146Z" transform="translate(-103.068 -123.816)" fill="#8c757e" stroke="#8c757e" stroke-width="1"/>
                      <g id="Grupo_55774" data-name="Grupo 55774">
                        <path id="Trazado_105532" data-name="Trazado 105532" d="M122.04,134.146c0,3.6-.267,6.494-1.125,8.645-.056.141-.112.267-.169.4s-.112.232-.176.351c-.077.141-.155.288-.232.429a.836.836,0,0,1-.063.105c-1.363,2.235-3.7,3.374-7.6,3.374-8.448,0-9.362-5.25-9.362-13.3a10.924,10.924,0,0,1,.211-2.165c.9-4.667,4.653-8.167,9.151-8.167C117.844,123.815,122.04,128.44,122.04,134.146Z" transform="translate(-103.056 -123.815)" fill="#8c757e" stroke="#8c757e" stroke-width="1"/>
                        <path id="Trazado_105533" data-name="Trazado 105533" d="M116.876,131.538a2.069,2.069,0,0,0,.387,1.182,14.893,14.893,0,0,1-5.506-2.405,7.33,7.33,0,0,0,.916,2.07,9.7,9.7,0,0,1-5.516-2.224,3.968,3.968,0,0,1-1.366,2.874,8.269,8.269,0,0,1-2.842,1.588,19.155,19.155,0,0,0,1-4.523,8.373,8.373,0,0,1,.575-2.963c.858-1.728,2.962-2.41,4.877-2.641a10.633,10.633,0,0,1,6.6,1,12.754,12.754,0,0,1,4.379,5.117c.4.716,2.229,3.622.289,3.385a5.737,5.737,0,0,1-2.06-1.009C118.292,132.781,116.88,131.936,116.876,131.538Z" transform="translate(-102.949 -123.982)" fill="#8c757e" stroke="#8c757e" stroke-width="1"/>
                        <path id="Trazado_105534" data-name="Trazado 105534" d="M118.557,148.7c0,.69-1.184,1.25-2.644,1.25s-2.643-.559-2.643-1.25,1.184,0,2.643,0S118.557,148.005,118.557,148.7Z" transform="translate(-106.016 -131.118)" fill="#8c757e" stroke="#8c757e" stroke-width="1"/>
                      </g>
                      <g id="Grupo_55775" data-name="Grupo 55775" transform="translate(3.948 9.916)">
                        <path id="Trazado_105535" data-name="Trazado 105535" d="M111.708,140.638c0,.514-.252.931-.564.931s-.564-.417-.564-.931.252-.931.564-.931S111.708,140.124,111.708,140.638Z" transform="translate(-109.166 -138.454)" fill="#8c757e" stroke="#8c757e" stroke-width="1"/>
                        <path id="Trazado_105536" data-name="Trazado 105536" d="M122.936,140.638c0,.514-.252.931-.564.931s-.564-.417-.564-.931.252-.931.564-.931S122.936,140.124,122.936,140.638Z" transform="translate(-112.502 -138.454)" fill="#8c757e" stroke="#8c757e" stroke-width="1"/>
                        <path id="Trazado_105537" data-name="Trazado 105537" d="M111.4,138.5c0,.32-.505.225-1.287.225s-1.545.095-1.545-.225.634-.58,1.415-.58S111.4,138.183,111.4,138.5Z" transform="translate(-108.567 -137.924)" fill="#8c757e" stroke="#8c757e" stroke-width="1"/>
                        <path id="Trazado_105538" data-name="Trazado 105538" d="M124.641,138.5c0,.32-.5.225-1.287.225s-1.545.095-1.545-.225.634-.58,1.416-.58S124.641,138.183,124.641,138.5Z" transform="translate(-112.502 -137.924)" fill="#8c757e" stroke="#8c757e" stroke-width="1"/>
                        <path id="Trazado_105539" data-name="Trazado 105539" d="M115.937,139.468s.6,2.392.014,3.519c-1.228,2.347.959,1.174,1.378,1.441" transform="translate(-110.651 -138.383)" fill="#8c757e" stroke="#8c757e" stroke-linecap="round" stroke-linejoin="round" stroke-width="0.42"/>
                      </g>
                    </g>
                  </g>
                </g>
                <path id="Trazado_105540" data-name="Trazado 105540" d="M124.3,126.107a9.592,9.592,0,0,0-6.512-8.04,12.284,12.284,0,0,1,4.6-.559,16.854,16.854,0,0,0-10.244-1.834,31.322,31.322,0,0,1,4.483-2.648,28.565,28.565,0,0,0-8.418,2.478,9.263,9.263,0,0,0-2.837,1.877,4.488,4.488,0,0,0-1.262,2.494,17.692,17.692,0,0,0-1.432,1.522c-.912,1.135-1.931,3.709.118,9.543,0,0,3.569-3.026,3.7-6.228,0,0,1.808,2.572,4.168,2.63,0,0-1.228-2-.863-2.915,0,0,2.423,3.087,5.624,3.887l-.8-2.858s3.92,5.939,6.9,5.485a16.322,16.322,0,0,0,.838-4.083c.8.789,1.565,1.687,1.589,2.312a17.779,17.779,0,0,0-.616-4A1.6,1.6,0,0,1,124.3,126.107Z" transform="translate(-101.321 -113.026)" fill="#8c757e" stroke="#8c757e" stroke-width="1"/>
              </g>
              <g id="Grupo_55784" data-name="Grupo 55784" transform="translate(18.1 49.642)">
                <g id="Grupo_55780" data-name="Grupo 55780" transform="translate(19.204 25.112)">
                  <path id="Trazado_105541" data-name="Trazado 105541" d="M118.675,220.443a1.053,1.053,0,1,1-1.053-1.053A1.053,1.053,0,0,1,118.675,220.443Z" transform="translate(-116.569 -219.39)" fill="#8c757e" stroke="#8c757e" stroke-width="1"/>
                </g>
                <g id="Grupo_55783" data-name="Grupo 55783">
                  <g id="Grupo_55781" data-name="Grupo 55781" transform="translate(0 0)">
                    <path id="Trazado_105542" data-name="Trazado 105542" d="M95.122,191.846a5.757,5.757,0,0,1-4.631-1.77c-1.974-2.326-1.024-6.037-.983-6.195a.3.3,0,0,1,.576.152c-.01.036-.912,3.573.862,5.66,1.046,1.231,2.83,1.735,5.3,1.5a.3.3,0,1,1,.056.592Q95.69,191.845,95.122,191.846Z" transform="translate(-89.244 -183.66)" fill="#8c757e" stroke="#8c757e" stroke-width="1"/>
                  </g>
                  <g id="Grupo_55782" data-name="Grupo 55782" transform="translate(31.711)">
                    <path id="Trazado_105543" data-name="Trazado 105543" d="M135.819,191.846q-.566,0-1.185-.06a.3.3,0,0,1,.056-.592c2.474.233,4.258-.27,5.3-1.5,1.774-2.087.871-5.624.862-5.66a.3.3,0,1,1,.575-.152c.042.157.992,3.869-.982,6.195A5.761,5.761,0,0,1,135.819,191.846Z" transform="translate(-134.365 -183.659)" fill="#8c757e" stroke="#8c757e" stroke-width="1"/>
                  </g>
                </g>
              </g>
            </g>
          </g>
        </g>
        <g id="Grupo_55788" data-name="Grupo 55788" transform="translate(19.212 76.903)">
          <path id="Trazado_105544" data-name="Trazado 105544" d="M86.745,228.3a.83.83,0,0,0-.246,1.29c.617.8,1.524,2.148,1.791,1.779s.009-1.131-.744-1.861A2.319,2.319,0,0,1,86.745,228.3Z" transform="translate(-86.085 -224.187)" fill="#8c757e" stroke="#8c757e" stroke-width="1"/>
          <path id="Trazado_105545" data-name="Trazado 105545" d="M86.747,226.765a.914.914,0,0,0-.271,1.42c.68.879,1.678,2.365,1.973,1.959s.01-1.245-.819-2.049A2.56,2.56,0,0,1,86.747,226.765Z" transform="translate(-86.072 -223.731)" fill="#8c757e" stroke="#8c757e" stroke-width="1"/>
          <path id="Trazado_105546" data-name="Trazado 105546" d="M86.73,224.713a1.022,1.022,0,0,0-.245,1.57c.725.992,1.794,2.666,2.088,2.223s-.02-1.382-.9-2.3A3.059,3.059,0,0,1,86.73,224.713Z" transform="translate(-86.068 -223.121)" fill="#8c757e" stroke="#8c757e" stroke-width="1"/>
          <path id="Trazado_105547" data-name="Trazado 105547" d="M86.925,222.448s-1.441.506-.717,1.5S88,226.614,88.3,226.17s-.161-1.266-.9-2.3A1.836,1.836,0,0,1,86.925,222.448Z" transform="translate(-86.005 -222.448)" fill="#8c757e" stroke="#8c757e" stroke-width="1"/>
        </g>
      </g>
      <path id="Trazado_773603" data-name="Trazado 773603" d="M3.5,0A3.5,3.5,0,1,1,0,3.5,3.5,3.5,0,0,1,3.5,0Z" transform="translate(929 1205)" fill="#f5947a"/>
    </g>
    <g id="Grupo_1069622" data-name="Grupo 1069622">
      <path id="Trazado_773599" data-name="Trazado 773599" d="M51.718,22H48.6V13.621q0-1.357.117-3h-.078a14.753,14.753,0,0,1-.439,1.855L44.921,22H42.343L39,12.576a18.339,18.339,0,0,1-.439-1.953h-.088q.127,2.07.127,3.633V22H35.761V8H40.38l2.861,8.3a11.687,11.687,0,0,1,.5,2H43.8a20.158,20.158,0,0,1,.557-2.021L47.216,8h4.5Zm11.865-4.121H57.06q.156,2.178,2.744,2.178a5.357,5.357,0,0,0,2.9-.781V21.5a7.619,7.619,0,0,1-3.6.742,5.073,5.073,0,0,1-3.76-1.343A5.073,5.073,0,0,1,54,17.156a5.352,5.352,0,0,1,1.445-3.945A4.815,4.815,0,0,1,59,11.756a4.37,4.37,0,0,1,3.384,1.3,5,5,0,0,1,1.2,3.525Zm-2.861-1.895q0-2.148-1.738-2.148a1.66,1.66,0,0,0-1.284.615,2.792,2.792,0,0,0-.659,1.533Zm4.043,5.752v-2.5a6.57,6.57,0,0,0,1.519.684,5.035,5.035,0,0,0,1.431.225,3.068,3.068,0,0,0,1.294-.225.726.726,0,0,0,.474-.684.632.632,0,0,0-.215-.488,2,2,0,0,0-.552-.342,6.261,6.261,0,0,0-.737-.264q-.4-.117-.771-.264a7.392,7.392,0,0,1-1.05-.483,3.034,3.034,0,0,1-.762-.6A2.361,2.361,0,0,1,64.926,16a3.157,3.157,0,0,1-.161-1.064,2.74,2.74,0,0,1,.366-1.445,2.991,2.991,0,0,1,.977-.991,4.462,4.462,0,0,1,1.4-.566,7.281,7.281,0,0,1,1.636-.181,9.076,9.076,0,0,1,1.348.1,10.059,10.059,0,0,1,1.348.3v2.383a4.87,4.87,0,0,0-1.255-.513,5.294,5.294,0,0,0-1.313-.171,2.91,2.91,0,0,0-.571.054,1.882,1.882,0,0,0-.474.156.87.87,0,0,0-.322.264.607.607,0,0,0-.117.366.677.677,0,0,0,.176.469,1.527,1.527,0,0,0,.459.337,4.531,4.531,0,0,0,.63.254q.347.112.688.229a8.951,8.951,0,0,1,1.113.469,3.56,3.56,0,0,1,.854.6,2.339,2.339,0,0,1,.547.8,3.2,3.2,0,0,1-.2,2.612,3.088,3.088,0,0,1-1.025,1.025,4.65,4.65,0,0,1-1.475.576,8.175,8.175,0,0,1-1.733.181A8.936,8.936,0,0,1,64.765,21.736Zm14.219.508a5.376,5.376,0,0,1-3.931-1.4,5.081,5.081,0,0,1-1.431-3.8,5.081,5.081,0,0,1,1.484-3.882,5.609,5.609,0,0,1,4.014-1.4,5.311,5.311,0,0,1,3.906,1.4,4.981,4.981,0,0,1,1.416,3.706,5.288,5.288,0,0,1-1.46,3.936A5.435,5.435,0,0,1,78.983,22.244Zm.078-8.125a2.058,2.058,0,0,0-1.7.752A3.316,3.316,0,0,0,76.757,17q0,2.881,2.324,2.881,2.217,0,2.217-2.959Q81.3,14.119,79.062,14.119ZM102.323,22H99.247V16.3q0-2.178-1.6-2.178a1.471,1.471,0,0,0-1.24.654,2.689,2.689,0,0,0-.479,1.631V22H92.841V16.238q0-2.119-1.572-2.119A1.507,1.507,0,0,0,90,14.744a2.75,2.75,0,0,0-.474,1.7V22H86.444V12H89.53v1.563h.039A3.789,3.789,0,0,1,92.8,11.756a2.88,2.88,0,0,1,2.9,1.865,3.7,3.7,0,0,1,3.359-1.865q3.262,0,3.262,4.023Zm7.207.244a5.376,5.376,0,0,1-3.931-1.4,5.081,5.081,0,0,1-1.431-3.8,5.081,5.081,0,0,1,1.484-3.882,5.609,5.609,0,0,1,4.014-1.4,5.311,5.311,0,0,1,3.906,1.4,4.981,4.981,0,0,1,1.416,3.706,5.288,5.288,0,0,1-1.46,3.936A5.435,5.435,0,0,1,109.53,22.244Zm.078-8.125a2.058,2.058,0,0,0-1.7.752A3.316,3.316,0,0,0,107.3,17q0,2.881,2.324,2.881,2.217,0,2.217-2.959Q111.845,14.119,109.608,14.119Zm13.906.664a2.677,2.677,0,0,0-1.3-.3,1.871,1.871,0,0,0-1.572.737,3.217,3.217,0,0,0-.566,2.007V22h-3.086V12h3.086v1.855h.039a2.67,2.67,0,0,1,2.637-2.031,1.987,1.987,0,0,1,.762.117Zm8.457-5.225a3.117,3.117,0,0,0-1.143-.234q-1.484,0-1.484,1.611V12h2.285v2.275h-2.285V22h-3.076V14.275h-1.68V12h1.68V10.76a3.6,3.6,0,0,1,1.113-2.754,4.246,4.246,0,0,1,3.027-1.045,5.317,5.317,0,0,1,1.563.2Zm5.908,12.686a5.376,5.376,0,0,1-3.931-1.4,5.081,5.081,0,0,1-1.431-3.8A5.081,5.081,0,0,1,134,13.157a5.609,5.609,0,0,1,4.014-1.4,5.311,5.311,0,0,1,3.906,1.4,4.981,4.981,0,0,1,1.416,3.706,5.288,5.288,0,0,1-1.46,3.936A5.435,5.435,0,0,1,137.88,22.244Zm.078-8.125a2.058,2.058,0,0,0-1.7.752A3.316,3.316,0,0,0,135.653,17q0,2.881,2.324,2.881,2.217,0,2.217-2.959Q140.194,14.119,137.958,14.119Zm6.729,7.617v-2.5a6.57,6.57,0,0,0,1.519.684,5.035,5.035,0,0,0,1.431.225,3.068,3.068,0,0,0,1.294-.225.726.726,0,0,0,.474-.684.632.632,0,0,0-.215-.488,2,2,0,0,0-.552-.342,6.262,6.262,0,0,0-.737-.264q-.4-.117-.771-.264a7.392,7.392,0,0,1-1.05-.483,3.034,3.034,0,0,1-.762-.6,2.361,2.361,0,0,1-.469-.791,3.157,3.157,0,0,1-.161-1.064,2.74,2.74,0,0,1,.366-1.445,2.991,2.991,0,0,1,.977-.991,4.462,4.462,0,0,1,1.4-.566,7.281,7.281,0,0,1,1.636-.181,9.076,9.076,0,0,1,1.348.1,10.058,10.058,0,0,1,1.348.3v2.383a4.87,4.87,0,0,0-1.255-.513,5.294,5.294,0,0,0-1.313-.171,2.91,2.91,0,0,0-.571.054,1.882,1.882,0,0,0-.474.156.87.87,0,0,0-.322.264.607.607,0,0,0-.117.366.677.677,0,0,0,.176.469,1.527,1.527,0,0,0,.459.337,4.531,4.531,0,0,0,.63.254q.347.112.688.229a8.951,8.951,0,0,1,1.113.469,3.559,3.559,0,0,1,.854.6,2.339,2.339,0,0,1,.547.8,3.2,3.2,0,0,1-.2,2.612,3.088,3.088,0,0,1-1.025,1.025,4.65,4.65,0,0,1-1.475.576,8.175,8.175,0,0,1-1.733.181A8.936,8.936,0,0,1,144.687,21.736Z" transform="translate(701 1194)" fill="#12263f"/>
      <path id="Trazado_105640" data-name="Trazado 105640" d="M690.605,152.582H561.576l64.514,136.025Z" transform="translate(168.409 870.06)" fill="#73d8c0"/>
      <g id="Grupo_55838" data-name="Grupo 55838" transform="translate(749.586 994.579)">
        <ellipse id="Elipse_4045" data-name="Elipse 4045" cx="42.31" cy="6.983" rx="42.31" ry="6.983" transform="translate(2.57 167.761)" fill="#8c757e" stroke="#8c757e" stroke-width="1" opacity="0.1"/>
        <g id="Grupo_55837" data-name="Grupo 55837">
          <g id="Grupo_55816" data-name="Grupo 55816" transform="translate(11.814 76.872)">
            <g id="Grupo_55809" data-name="Grupo 55809" transform="translate(0 4.468)">
              <g id="Grupo_55806" data-name="Grupo 55806" transform="translate(14.914)">
                <path id="Trazado_105588" data-name="Trazado 105588" d="M631.641,241.952s-.029.2-.093.587v.007c-.014.064-.021.136-.036.215a186.74,186.74,0,0,1-8.654,33c-.315.823-.644,1.646-.981,2.455q-.923,2.255-1.94,4.4l-6.385-2.641s-1.682-29.826,6.421-48.229l2.741,2.4,2.427,2.119,6.27,5.49.064.057Z" transform="translate(-613.409 -231.745)" fill="#8c757e" stroke="#8c757e" stroke-width="1"/>
                <path id="Trazado_105589" data-name="Trazado 105589" d="M634.875,244.491a186.736,186.736,0,0,1-8.654,33c-.315.823-.644,1.646-.981,2.455.165-.587.365-1.167.551-1.739a76.144,76.144,0,0,0,2.706-11.109,77.672,77.672,0,0,0,.673-20.206c-.157-1.618-1.89-8.317-.73-8.868.022-.007.043-.021.065-.029,2.126-.916,5.254,2.326,5.876,3.958a7.087,7.087,0,0,1,.394,1.532C634.825,243.811,634.854,244.147,634.875,244.491Z" transform="translate(-616.772 -233.475)" fill="#8c757e" stroke="#8c757e" stroke-width="1"/>
              </g>
              <g id="Grupo_55808" data-name="Grupo 55808" transform="translate(0 47.606)">
                <g id="Grupo_55807" data-name="Grupo 55807">
                  <path id="Trazado_105590" data-name="Trazado 105590" d="M614.5,310.2a25.575,25.575,0,0,1-.279,2.591c-.773,4.781-3.615,9.362-5.519,13.772-1.4,3.235-2.749,6.5-4.058,9.763a.071.071,0,0,1-.007.029c-.136.329-.265.651-.394.973.029.122.057.243.086.372a12.459,12.459,0,0,1,.236,1.517c.222,3.056-1.26,2.247-2.856,2.885s-4.767,2.133-4.767,2.133a6.833,6.833,0,0,1-1.188.394,3.171,3.171,0,0,1-.408.043.713.713,0,0,1-.544-.25,1.175,1.175,0,0,1-.973-.15l-.007-.007-.029-.029c-.286.057-.759-.394-.759-.394a.639.639,0,0,1-.172-.05l-.007-.007a1.884,1.884,0,0,1-.258-.129c-.072-.158.05-.472.372-.694.208-.136.859-.673,1.611-1.274.451-.358.931-.737,1.382-1.074.709-.537,1.825-1.41,2.727-2.119.737-.573,1.331-1.038,1.424-1.117a.022.022,0,0,1,.014-.007c.265-3.794.265-7.9.637-11.674.022-.236.05-.465.072-.7.265-2.577.594-5.146.916-7.716a45.456,45.456,0,0,1,3.185-10.808c.594-1.5,1.145-3.021,1.668-4.545q.633-1.825,1.231-3.672l5.29,2.792.057.021.644.351.193.1c.093.608.179,1.231.258,1.854A38.192,38.192,0,0,1,614.5,310.2Z" transform="translate(-592.573 -298.255)" fill="#8c757e" stroke="#8c757e" stroke-width="1"/>
                  <path id="Trazado_105591" data-name="Trazado 105591" d="M595.644,362.342s-.458-.744.606-1.042" transform="translate(-593.418 -316.174)" fill="#8c757e" stroke="#8c757e" stroke-linecap="round" stroke-linejoin="round" stroke-width="0.226"/>
                  <path id="Trazado_105592" data-name="Trazado 105592" d="M594.27,362.215s-.47-.6.321-.822" transform="translate(-593.016 -316.2)" fill="#8c757e" stroke="#8c757e" stroke-linecap="round" stroke-linejoin="round" stroke-width="0.168"/>
                  <path id="Trazado_105593" data-name="Trazado 105593" d="M593.385,361.79s-.47-.6.321-.822" transform="translate(-592.765 -316.079)" fill="#8c757e" stroke="#8c757e" stroke-linecap="round" stroke-linejoin="round" stroke-width="0.168"/>
                  <path id="Trazado_105594" data-name="Trazado 105594" d="M592.913,361.547s-.47-.6.321-.822" transform="translate(-592.63 -316.01)" fill="#8c757e" stroke="#8c757e" stroke-linecap="round" stroke-linejoin="round" stroke-width="0.168"/>
                </g>
                <path id="Trazado_105595" data-name="Trazado 105595" d="M613.342,299.122s1.174,5.509,5.069,1.087a8.582,8.582,0,0,1-3.435,7.509C611.038,310.436,613.342,299.122,613.342,299.122Z" transform="translate(-598.286 -298.501)" fill="#8c757e" stroke="#8c757e" stroke-width="1"/>
                <path id="Trazado_105596" data-name="Trazado 105596" d="M615.291,314.627a25.593,25.593,0,0,1-.279,2.591c-.773,4.781-3.615,9.362-5.519,13.772-1.4,3.235-2.749,6.5-4.058,9.763a.071.071,0,0,1-.007.029c-.136.329-.265.651-.394.973.029.122.057.243.086.372a10.249,10.249,0,0,0-1.933.444c-1.41.537-2.441,1.739-3.6,2.706a5.116,5.116,0,0,1-4.216.837c.451-.358.931-.737,1.381-1.074.709-.537,1.825-1.41,2.727-2.119.737-.573,1.331-1.038,1.424-1.117a.022.022,0,0,1,.014-.007c.265-3.794.265-7.9.637-11.674.021-.236.05-.465.072-.7a.848.848,0,0,1,.179-.093c1.245-.444,1.839,2.333,3.114,1.954a1.546,1.546,0,0,0,.78-.759,49.493,49.493,0,0,0,5.576-13.12,6.04,6.04,0,0,1,1.31-2.906A1.611,1.611,0,0,1,615.291,314.627Z" transform="translate(-593.368 -302.681)" fill="#8c757e" stroke="#8c757e" stroke-width="1"/>
              </g>
            </g>
            <g id="Grupo_55813" data-name="Grupo 55813" transform="translate(33.149 3.53)">
              <g id="Grupo_55810" data-name="Grupo 55810">
                <path id="Trazado_105597" data-name="Trazado 105597" d="M638.885,241.58s4.036,23.51,13.1,40.663l6.323-2.846s.487-30.33-8.266-48.963Z" transform="translate(-638.885 -230.435)" fill="#8c757e" stroke="#8c757e" stroke-width="1"/>
                <path id="Trazado_105598" data-name="Trazado 105598" d="M639.168,244.617a186.713,186.713,0,0,0,9.519,32.758c.336.815.687,1.628,1.044,2.429-.18-.583-.4-1.157-.6-1.724a76.052,76.052,0,0,1-3-11.034,77.679,77.679,0,0,1-1.2-20.182c.115-1.621,1.67-8.364.5-8.884-.022-.007-.044-.021-.065-.027-2.149-.86-5.191,2.464-5.771,4.111a7.092,7.092,0,0,0-.354,1.542C639.2,243.936,639.18,244.273,639.168,244.617Z" transform="translate(-638.965 -232.532)" fill="#8c757e" stroke="#8c757e" stroke-width="1"/>
              </g>
              <g id="Grupo_55812" data-name="Grupo 55812" transform="translate(12.557 48.544)">
                <g id="Grupo_55811" data-name="Grupo 55811">
                  <path id="Trazado_105599" data-name="Trazado 105599" d="M678.4,343.657a1.469,1.469,0,0,1-.437.186s-.472.451-.759.394c0,0-.25.315-1,.186a.737.737,0,0,1-.551.25,3.173,3.173,0,0,1-.408-.043,7.053,7.053,0,0,1-1.188-.394s-3.178-1.5-4.767-2.133-3.078.172-2.856-2.885a13.618,13.618,0,0,1,.243-1.5c.021-.129.05-.258.079-.386-.122-.322-.258-.644-.394-.973a.071.071,0,0,1-.007-.029c-1.31-3.264-2.656-6.528-4.051-9.763-1.911-4.409-4.753-8.99-5.519-13.772a25.069,25.069,0,0,1-.293-2.663,38.751,38.751,0,0,1,.229-6.757c.079-.623.165-1.245.258-1.854l.193-.1.651-.351.05-.021,5.29-2.792c.408,1.231-.021.014.408,1.231.522,1.525,1.8,4.058,2.4,5.562,2.412,6.12,3.436,13.034,4.037,19.9.236,2.641.408,5.275.573,7.852.1,1.546.193,3.078.3,4.574,0,0,2.82,2.226,4.159,3.242,1.2.9,2.67,2.126,2.992,2.348S678.469,343.5,678.4,343.657Z" transform="translate(-656.428 -298.255)" fill="#8c757e" stroke="#8c757e" stroke-width="1"/>
                  <path id="Trazado_105600" data-name="Trazado 105600" d="M683.8,362.342s.458-.744-.606-1.042" transform="translate(-664.037 -316.174)" fill="#8c757e" stroke="#8c757e" stroke-linecap="round" stroke-linejoin="round" stroke-width="0.226"/>
                  <path id="Trazado_105601" data-name="Trazado 105601" d="M685.274,362.215s.47-.6-.321-.822" transform="translate(-664.536 -316.2)" fill="#8c757e" stroke="#8c757e" stroke-linecap="round" stroke-linejoin="round" stroke-width="0.168"/>
                  <path id="Trazado_105602" data-name="Trazado 105602" d="M686.159,361.79s.47-.6-.321-.822" transform="translate(-664.787 -316.079)" fill="#8c757e" stroke="#8c757e" stroke-linecap="round" stroke-linejoin="round" stroke-width="0.168"/>
                  <path id="Trazado_105603" data-name="Trazado 105603" d="M686.631,361.547s.47-.6-.321-.822" transform="translate(-664.921 -316.01)" fill="#8c757e" stroke="#8c757e" stroke-linecap="round" stroke-linejoin="round" stroke-width="0.168"/>
                </g>
                <path id="Trazado_105604" data-name="Trazado 105604" d="M662.954,299.122s-1.174,5.509-5.068,1.087c0,0-.278,3.624,3.66,6.342S662.954,299.122,662.954,299.122Z" transform="translate(-656.841 -298.501)" fill="#8c757e" stroke="#8c757e" stroke-width="1"/>
                <path id="Trazado_105605" data-name="Trazado 105605" d="M676.374,346.113a5.116,5.116,0,0,1-4.216-.837c-1.16-.966-2.19-2.169-3.6-2.706a9.511,9.511,0,0,0-1.861-.429c.021-.129.05-.258.079-.386-.122-.322-.258-.644-.394-.974a.071.071,0,0,1-.007-.029c-1.31-3.264-2.656-6.528-4.051-9.763-1.911-4.409-4.753-8.99-5.519-13.771a25.042,25.042,0,0,1-.293-2.663,1.6,1.6,0,0,1,2.648-.057,6.038,6.038,0,0,1,1.31,2.906,49.488,49.488,0,0,0,5.576,13.12,1.545,1.545,0,0,0,.78.759c1.274.379,1.868-2.4,3.114-1.954a.239.239,0,0,1,.086.043.583.583,0,0,1,.093.05c.021.236.05.465.072.7.229,2.29.315,4.71.408,7.1.064,1.546.122,3.085.229,4.574a.023.023,0,0,1,.015.007c.093.079.687.544,1.424,1.117.9.709,2.018,1.582,2.727,2.119C675.443,345.376,675.923,345.755,676.374,346.113Z" transform="translate(-656.452 -302.68)" fill="#8c757e" stroke="#8c757e" stroke-width="1"/>
              </g>
            </g>
            <g id="Grupo_55815" data-name="Grupo 55815" transform="translate(19.51)">
              <path id="Trazado_105606" data-name="Trazado 105606" d="M624.1,225.538l-1.518,4.429,7.914,8.864c1.823,2.041,5.693,1.774,7.4-.366l7.516-9.432-1.021-3.53A65.623,65.623,0,0,1,624.1,225.538Z" transform="translate(-620.613 -225.503)" fill="#8c757e" stroke="#8c757e" stroke-width="1"/>
              <g id="Grupo_55814" data-name="Grupo 55814" transform="translate(0 3.53)">
                <path id="Trazado_105607" data-name="Trazado 105607" d="M642.99,240.345l10.334-3.778s-.809-2.521-1.2-3.385c-.473-1.045-1.238-2.747-1.238-2.747l-9.037,5.294Z" transform="translate(-626.09 -230.435)" fill="#8c757e" stroke="#8c757e" stroke-width="1"/>
                <path id="Trazado_105608" data-name="Trazado 105608" d="M630.019,240.345l-10.188-3.724s.683-2.125,1.123-3.2c.3-.742,1.168-2.988,1.168-2.988l9.037,5.294Z" transform="translate(-619.831 -230.435)" fill="#8c757e" stroke="#8c757e" stroke-width="1"/>
              </g>
            </g>
          </g>
          <g id="Grupo_55836" data-name="Grupo 55836">
            <g id="Grupo_55830" data-name="Grupo 55830" transform="translate(0 22.689)">
              <g id="Grupo_55828" data-name="Grupo 55828">
                <g id="Grupo_55821" data-name="Grupo 55821" transform="translate(15.484)">
                  <g id="Grupo_55819" data-name="Grupo 55819">
                    <g id="Grupo_55818" data-name="Grupo 55818">
                      <g id="Grupo_55817" data-name="Grupo 55817">
                        <path id="Trazado_105609" data-name="Trazado 105609" d="M658.979,191.449c0,3.743-5.053-3.064-5.053-3.064l-8.489-10.121H613.87l-2.133,1.689v.007l-10.6,8.425s-3.436,1.2-3.436-1.84a8.635,8.635,0,0,1,.573-2.4.1.1,0,0,0,.014-.043A104.472,104.472,0,0,1,603,173.633a.022.022,0,0,0,.007-.014c1.238-2.469,2.391-4.66,3.049-5.912.372-.694.594-1.1.594-1.1a10.022,10.022,0,0,1,1.174-1.875c2.018-2.613,5-3.894,7.68-4.774.079-.029.157-.05.236-.079,1.654-.522,3.171-.909,4.266-1.36,1.339-.544,2-2.083,2.326-3.722.086-.444.143-.888.186-1.324a20.765,20.765,0,0,0,.007-3.665l.53.129,4.116,1.031h4.116a12.651,12.651,0,0,0-.129,2.426,9.958,9.958,0,0,0,.2,1.675c.329,1.582,1.145,3.092,2.978,3.45a25.39,25.39,0,0,1,4,1.2c3.8,1.467,8.482,4.187,10.536,8.439C648.879,168.15,658.979,187.705,658.979,191.449Z" transform="translate(-597.701 -149.805)" fill="#8c757e" stroke="#8c757e" stroke-width="1"/>
                        <path id="Trazado_105610" data-name="Trazado 105610" d="M652.759,186.078a.549.549,0,1,1,0-.777A.55.55,0,0,1,652.759,186.078Z" transform="translate(-613.083 -159.848)" fill="#8c757e" stroke="#8c757e" stroke-width="1"/>
                        <path id="Trazado_105611" data-name="Trazado 105611" d="M626.2,186.078a.549.549,0,1,1,0-.777A.55.55,0,0,1,626.2,186.078Z" transform="translate(-605.536 -159.848)" fill="#8c757e" stroke="#8c757e" stroke-width="1"/>
                        <path id="Trazado_105612" data-name="Trazado 105612" d="M641.147,155.066a6.461,6.461,0,0,1-4.373,2.061,6.81,6.81,0,0,1-4.653-2.333c.086-.444.143-.888.186-1.324a20.741,20.741,0,0,0,.007-3.665l.53.129,4.116,1.031h4.116a12.663,12.663,0,0,0-.129,2.426A9.984,9.984,0,0,0,641.147,155.066Z" transform="translate(-607.484 -149.805)" fill="#8c757e" stroke="#8c757e" stroke-width="1"/>
                        <path id="Trazado_105613" data-name="Trazado 105613" d="M642.3,214.252c.05.344.115.694.186,1.038a48.174,48.174,0,0,1-15.94.823,36.008,36.008,0,0,1-4.352-.787c1.346-6.363-.394-13.034-2.376-17.987a51.836,51.836,0,0,0-2.913-6.077v-.007c-.609-1.081-1.016-1.689-1.016-1.689H648.81S640.414,202.256,642.3,214.252Z" transform="translate(-602.871 -161.106)" fill="#8c757e" stroke="#8c757e" stroke-width="1"/>
                      </g>
                    </g>
                    <path id="Trazado_105614" data-name="Trazado 105614" d="M644.047,218.376a45.53,45.53,0,0,1-20.289.035c1.341-6.36-.4-13.029-2.382-17.984,1.15,1.406,2.242,6.227,2.521,6.947a17.6,17.6,0,0,0,8.916,9.672,14.3,14.3,0,0,0,11.048.29C643.914,217.684,643.977,218.033,644.047,218.376Z" transform="translate(-604.43 -164.193)" fill="#8c757e" stroke="#8c757e" stroke-width="1"/>
                  </g>
                  <g id="Grupo_55820" data-name="Grupo 55820" transform="translate(14.2 30.056)">
                    <path id="Trazado_105615" data-name="Trazado 105615" d="M630.671,191.8s-9.853,3.212-13.131,0c0,0,1.5,3.868,2.447,4.562S630.671,191.8,630.671,191.8Z" transform="translate(-617.54 -191.796)" fill="#8c757e" stroke="#8c757e" stroke-width="1"/>
                    <path id="Trazado_105616" data-name="Trazado 105616" d="M641.851,191.8s9.853,3.212,13.131,0c0,0-1.5,3.868-2.447,4.562S641.851,191.8,641.851,191.8Z" transform="translate(-624.45 -191.796)" fill="#8c757e" stroke="#8c757e" stroke-width="1"/>
                  </g>
                </g>
                <g id="Grupo_55824" data-name="Grupo 55824" transform="translate(0 14.803)">
                  <g id="Grupo_55822" data-name="Grupo 55822" transform="translate(1.448)">
                    <path id="Trazado_105617" data-name="Trazado 105617" d="M606.164,185.831v.007a.09.09,0,0,0-.014.021c-.036.05-.136.2-.3.437s-.372.558-.644.952c-.945,1.41-2.527,3.786-4.424,6.714-1.482,2.276-3.149,4.882-4.867,7.637-.243.394-.494.8-.744,1.2-.136.222-.272.437-.4.659-.544.873-1.081,1.746-1.611,2.634l-.086.136c-.329.551-.666,1.1-.988,1.661-3.7,6.22-7.093,12.44-8.625,16.649h-5.368s3.436-8.382,7.738-18.539c1.439-3.4,2.971-6.993,4.5-10.536.63-1.467,1.267-2.92,1.89-4.352.158-.365.322-.73.48-1.088a.1.1,0,0,0,.014-.043c.437-.981.859-1.947,1.281-2.892.888-2,1.747-3.9,2.548-5.662.029-.057.057-.115.086-.179a.142.142,0,0,1,.029-.057c.064-.136.122-.279.186-.415.114-.251.243-.523.386-.83.072-.15.136-.293.2-.437a.022.022,0,0,0,.007-.014c.7-1.5,1.353-2.863,1.947-4.044.4-.809.766-1.525,1.1-2.154a9.936,9.936,0,0,1,1.754-2.684c.007,0,.007-.007.014-.007,1.467-.916,2.484,3.514,3.107,7.831.272,1.861.472,3.693.6,5.075.021.222.043.429.057.63C606.114,185.116,606.157,185.753,606.164,185.831Z" transform="translate(-578.091 -170.485)" fill="#8c757e" stroke="#8c757e" stroke-width="1"/>
                    <path id="Trazado_105618" data-name="Trazado 105618" d="M612.188,191.2c-.157.236-.372.558-.644.952-.945,1.41-2.527,3.786-4.424,6.714-1.482,2.275-3.149,4.882-4.867,7.637-.243.394-.494.8-.745,1.2-.136.223-.272.437-.4.659a1.728,1.728,0,0,1-.687-.222c-2.026-1.174-1.267-6.285,1.7-11.424s7.007-8.353,9.04-7.179A2.331,2.331,0,0,1,612.188,191.2Z" transform="translate(-584.115 -175.833)" fill="#8c757e" stroke="#8c757e" stroke-width="1"/>
                  </g>
                  <g id="Grupo_55823" data-name="Grupo 55823" transform="translate(0 53.842)">
                    <path id="Trazado_105619" data-name="Trazado 105619" d="M582.884,245.92s-4.495-.48-5.368,0c-.852.465-1.381,5.018-1.439,6.857a.76.76,0,0,0-.007.129c-.05,1.739.823.866,1.446,1.739a10.106,10.106,0,0,1,1.553,2.763,1,1,0,0,0,1.238.8.6.6,0,0,0,.122-.036c.064-.029.1-.115.129-.251a29.536,29.536,0,0,0-.322-4.159c.043-.179,1.167-2.949,1.374-3.45l.014-.043c-.021.122-.115.594-.279,1.854-.193,1.5.823,1.754.823,1.754l1.217-3.786Zm-1.253,4.338v-.014l.007-.007Z" transform="translate(-576.068 -245.707)" fill="#8c757e" stroke="#8c757e" stroke-width="1"/>
                    <path id="Trazado_105620" data-name="Trazado 105620" d="M581.639,252.035l-.007.021-.007.014-.014.043c-.208.5-1.331,3.271-1.374,3.45a29.536,29.536,0,0,1,.322,4.159l-.25.286a1,1,0,0,1-1.238-.8,10.107,10.107,0,0,0-1.553-2.763c-.623-.873-1.5,0-1.446-1.739a.76.76,0,0,1,.007-.129c.573-.014,1.46.351,2.247.451,1.331.165,3.2-2.806,3.307-2.985Z" transform="translate(-576.068 -247.506)" fill="#8c757e" stroke="#8c757e" stroke-width="1"/>
                  </g>
                </g>
                <g id="Grupo_55827" data-name="Grupo 55827" transform="translate(60.349 16.413)">
                  <g id="Grupo_55825" data-name="Grupo 55825">
                    <path id="Trazado_105621" data-name="Trazado 105621" d="M660.381,186.479s18.46,27.051,22.7,38.7h5.366s-20.083-50.528-22.835-52.3S660.381,186.479,660.381,186.479Z" transform="translate(-660.381 -172.736)" fill="#8c757e" stroke="#8c757e" stroke-width="1"/>
                    <path id="Trazado_105622" data-name="Trazado 105622" d="M660.381,191.2c.157.236.372.558.644.952.945,1.41,2.527,3.786,4.424,6.714,1.482,2.275,3.15,4.882,4.867,7.637.243.394.494.8.745,1.2.136.223.272.437.4.659a1.727,1.727,0,0,0,.687-.222c2.026-1.174,1.267-6.285-1.7-11.424s-7.007-8.353-9.04-7.179A2.331,2.331,0,0,0,660.381,191.2Z" transform="translate(-660.381 -177.444)" fill="#8c757e" stroke="#8c757e" stroke-width="1"/>
                  </g>
                  <path id="Trazado_105623" data-name="Trazado 105623" d="M694.052,254.064q.011.129.021.236c-.243-.659-.472-1.4-.265-1.739.007-.014.014-.021.021-.036C693.88,252.8,693.952,253.284,694.052,254.064Z" transform="translate(-669.859 -195.414)" fill="#8c757e" stroke="#8c757e" stroke-width="1"/>
                  <g id="Grupo_55826" data-name="Grupo 55826" transform="translate(22.161 52.231)">
                    <path id="Trazado_105624" data-name="Trazado 105624" d="M698.656,252.906c.05,1.739-.823.866-1.453,1.739a10.266,10.266,0,0,0-1.546,2.763,1,1,0,0,1-1.36.766c-.487-.208.243-4.209.193-4.409-.043-.165-.959-2.434-1.288-3.242l-.114-.286s.021.093.064.351c.05.279.122.759.222,1.539q.011.129.021.236c.072,1.3-.845,1.517-.845,1.517l-1.21-3.786.5-4.173s4.488-.48,5.361,0c.737.4,1.224,3.844,1.4,5.962C698.628,252.276,698.649,252.627,698.656,252.906Z" transform="translate(-691.341 -245.707)" fill="#8c757e" stroke="#8c757e" stroke-width="1"/>
                    <path id="Trazado_105625" data-name="Trazado 105625" d="M699.4,254.749c.05,1.739-.823.866-1.453,1.739a10.267,10.267,0,0,0-1.546,2.763,1,1,0,0,1-1.36.766c-.487-.208.243-4.209.193-4.409-.043-.165-.959-2.434-1.288-3.242.458-.587.9.465,1.124.8a2.6,2.6,0,0,0,2.248.78,12.012,12.012,0,0,0,2.026-.222C699.367,254.119,699.388,254.47,699.4,254.749Z" transform="translate(-692.08 -247.55)" fill="#8c757e" stroke="#8c757e" stroke-width="1"/>
                  </g>
                </g>
              </g>
              <g id="Grupo_55829" data-name="Grupo 55829" transform="translate(35.216 12.338)">
                <path id="Trazado_105626" data-name="Trazado 105626" d="M642.507,169.13a38.785,38.785,0,0,1,6.5-2.088" transform="translate(-630.167 -167.042)" fill="#8c757e" stroke="#8c757e" stroke-linecap="round" stroke-linejoin="round" stroke-width="1"/>
                <path id="Trazado_105627" data-name="Trazado 105627" d="M631.765,169.13a38.78,38.78,0,0,0-6.5-2.088" transform="translate(-625.267 -167.042)" fill="#8c757e" stroke="#8c757e" stroke-linecap="round" stroke-linejoin="round" stroke-width="1"/>
              </g>
            </g>
            <g id="Grupo_55835" data-name="Grupo 55835" transform="translate(30.57)">
              <g id="Grupo_55834" data-name="Grupo 55834" transform="translate(4.305 5.192)">
                <g id="Grupo_55833" data-name="Grupo 55833">
                  <g id="Grupo_55831" data-name="Grupo 55831">
                    <path id="Trazado_105628" data-name="Trazado 105628" d="M643.592,134.528c0,7.966-4.559,12.936-8.357,12.936-3.9,0-8.521-5.376-8.521-12.7,0-8.585,3.815-9.4,8.521-9.4S643.592,125.779,643.592,134.528Z" transform="translate(-625.337 -125.36)" fill="#8c757e" stroke="#8c757e" stroke-width="1"/>
                    <path id="Trazado_105629" data-name="Trazado 105629" d="M639.919,148.418a4.263,4.263,0,0,1-3.741,0" transform="translate(-628.027 -131.914)" fill="#8c757e" stroke="#8c757e" stroke-linecap="round" stroke-linejoin="round" stroke-width="0.434"/>
                    <path id="Trazado_105630" data-name="Trazado 105630" d="M649.878,138.445s1.851-.893,1.535.684-1.1,3.551-2.13,2.92S649.878,138.445,649.878,138.445Z" transform="translate(-631.655 -129.007)" fill="#8c757e" stroke="#8c757e" stroke-width="1"/>
                    <path id="Trazado_105631" data-name="Trazado 105631" d="M626.17,138.4s-1.655-.855-1.339.723,1.105,3.551,2.131,2.92S626.17,138.4,626.17,138.4Z" transform="translate(-624.791 -129)" fill="#8c757e" stroke="#8c757e" stroke-width="1"/>
                  </g>
                  <g id="Grupo_55832" data-name="Grupo 55832" transform="translate(4.826 8.42)">
                    <path id="Trazado_105632" data-name="Trazado 105632" d="M634.2,140.405c0,.467-.23.847-.513.847s-.513-.379-.513-.847.23-.847.513-.847S634.2,139.937,634.2,140.405Z" transform="translate(-632 -137.815)" fill="#8c757e" stroke="#8c757e" stroke-width="1"/>
                    <path id="Trazado_105633" data-name="Trazado 105633" d="M644.234,140.405c0,.467-.23.847-.513.847s-.513-.379-.513-.847.23-.847.513-.847S644.234,139.937,644.234,140.405Z" transform="translate(-634.851 -137.815)" fill="#8c757e" stroke="#8c757e" stroke-width="1"/>
                    <path id="Trazado_105634" data-name="Trazado 105634" d="M634.91,137.814c0,.382-.6.268-1.535.268s-1.843.113-1.843-.268.756-.691,1.689-.691S634.91,137.432,634.91,137.814Z" transform="translate(-631.533 -137.123)" fill="#8c757e" stroke="#8c757e" stroke-width="1"/>
                    <path id="Trazado_105635" data-name="Trazado 105635" d="M644.943,137.814c0,.382-.6.268-1.535.268s-1.842.113-1.842-.268.756-.691,1.689-.691S644.943,137.432,644.943,137.814Z" transform="translate(-634.385 -137.123)" fill="#8c757e" stroke="#8c757e" stroke-width="1"/>
                    <path id="Trazado_105636" data-name="Trazado 105636" d="M637.966,139.345s.55,2.177.013,3.2c-1.117,2.136.873,1.069,1.254,1.311" transform="translate(-633.269 -137.755)" fill="#8c757e" stroke="#8c757e" stroke-linecap="round" stroke-linejoin="round" stroke-width="0.376"/>
                  </g>
                </g>
              </g>
              <path id="Trazado_105637" data-name="Trazado 105637" d="M641.622,128.283s-5.618-1.692-8.452-.182c0,0-4.386-1.464-7.821.209a6.611,6.611,0,0,1-.537-1.01,3.3,3.3,0,0,1-.236-2.452s-3.263,1.284-3.779,3.474a6.182,6.182,0,0,1,3.263-5.286s-3.521.151-4.98,1.661,2.212-7.623,13.912-6.494C643.394,119.207,641.622,128.283,641.622,128.283Z" transform="translate(-618.777 -118.107)" fill="#8c757e" stroke="#8c757e" stroke-width="1"/>
              <path id="Trazado_105638" data-name="Trazado 105638" d="M627.638,130.162l-.394,6.442-.674-.25s-1.185-7.867.078-9.494Z" transform="translate(-620.848 -120.595)" fill="#8c757e" stroke="#8c757e" stroke-width="1"/>
              <path id="Trazado_105639" data-name="Trazado 105639" d="M648.546,130.162l.394,6.442.675-.25s1.185-7.867-.079-9.494Z" transform="translate(-627.238 -120.595)" fill="#8c757e" stroke="#8c757e" stroke-width="1"/>
            </g>
          </g>
        </g>
      </g>
      <path id="Trazado_773600" data-name="Trazado 773600" d="M3.5,0A3.5,3.5,0,1,1,0,3.5,3.5,3.5,0,0,1,3.5,0Z" transform="translate(723 1205)" fill="#f5947a"/>
    </g>
    <g id="Grupo_1069621" data-name="Grupo 1069621">
      <path id="Trazado_773597" data-name="Trazado 773597" d="M49.564,22h-8.4V8h8.076v2.568H44.32V13.68H48.9v2.559H44.32v3.2h5.244Zm9.521-.361a6.1,6.1,0,0,1-3.018.605,5.1,5.1,0,0,1-3.73-1.4,4.823,4.823,0,0,1-1.426-3.6,5.313,5.313,0,0,1,1.528-4.019,5.648,5.648,0,0,1,4.087-1.47,5.244,5.244,0,0,1,2.559.469v2.617a3.518,3.518,0,0,0-2.158-.723,2.844,2.844,0,0,0-2.1.776,2.9,2.9,0,0,0-.776,2.144,2.85,2.85,0,0,0,.742,2.085,2.728,2.728,0,0,0,2.041.757,4.073,4.073,0,0,0,2.256-.723Zm8.066.244a4.561,4.561,0,0,1-2.061.361q-3.262,0-3.262-3.389v-4.58H60.209V12H61.83V9.842l3.076-.879V12h2.246v2.275H64.906v4.043q0,1.562,1.24,1.563a2.091,2.091,0,0,0,1.006-.283Zm6.426.361a5.376,5.376,0,0,1-3.931-1.4,5.081,5.081,0,0,1-1.431-3.8A5.081,5.081,0,0,1,69.7,13.157a5.609,5.609,0,0,1,4.014-1.4,5.311,5.311,0,0,1,3.906,1.4,4.981,4.981,0,0,1,1.416,3.706,5.288,5.288,0,0,1-1.46,3.936A5.435,5.435,0,0,1,73.578,22.244Zm.078-8.125a2.058,2.058,0,0,0-1.7.752A3.316,3.316,0,0,0,71.352,17q0,2.881,2.324,2.881,2.217,0,2.217-2.959Q75.893,14.119,73.656,14.119ZM96.918,22H93.842V16.3q0-2.178-1.6-2.178a1.471,1.471,0,0,0-1.24.654,2.689,2.689,0,0,0-.479,1.631V22H87.436V16.238q0-2.119-1.572-2.119a1.507,1.507,0,0,0-1.265.625,2.75,2.75,0,0,0-.474,1.7V22H81.039V12h3.086v1.563h.039A3.789,3.789,0,0,1,87.4,11.756a2.88,2.88,0,0,1,2.9,1.865,3.7,3.7,0,0,1,3.359-1.865q3.262,0,3.262,4.023Zm7.207.244a5.376,5.376,0,0,1-3.931-1.4,5.081,5.081,0,0,1-1.431-3.8,5.081,5.081,0,0,1,1.484-3.882,5.609,5.609,0,0,1,4.014-1.4,5.311,5.311,0,0,1,3.906,1.4,4.981,4.981,0,0,1,1.416,3.706,5.288,5.288,0,0,1-1.46,3.936A5.435,5.435,0,0,1,104.125,22.244Zm.078-8.125a2.058,2.058,0,0,0-1.7.752A3.316,3.316,0,0,0,101.9,17q0,2.881,2.324,2.881,2.217,0,2.217-2.959Q106.439,14.119,104.2,14.119Zm13.906.664a2.677,2.677,0,0,0-1.3-.3,1.871,1.871,0,0,0-1.572.737,3.217,3.217,0,0,0-.566,2.007V22h-3.086V12h3.086v1.855h.039a2.67,2.67,0,0,1,2.637-2.031,1.987,1.987,0,0,1,.762.117Zm8.457-5.225a3.117,3.117,0,0,0-1.143-.234q-1.484,0-1.484,1.611V12h2.285v2.275h-2.285V22h-3.076V14.275h-1.68V12h1.68V10.76a3.6,3.6,0,0,1,1.113-2.754A4.246,4.246,0,0,1,125,6.961a5.316,5.316,0,0,1,1.563.2Zm5.908,12.686a5.376,5.376,0,0,1-3.931-1.4,5.081,5.081,0,0,1-1.431-3.8,5.081,5.081,0,0,1,1.484-3.882,5.609,5.609,0,0,1,4.014-1.4,5.311,5.311,0,0,1,3.906,1.4,4.981,4.981,0,0,1,1.416,3.706,5.288,5.288,0,0,1-1.46,3.936A5.435,5.435,0,0,1,132.475,22.244Zm.078-8.125a2.058,2.058,0,0,0-1.7.752A3.316,3.316,0,0,0,130.248,17q0,2.881,2.324,2.881,2.217,0,2.217-2.959Q134.789,14.119,132.553,14.119Zm6.729,7.617v-2.5a6.57,6.57,0,0,0,1.519.684,5.035,5.035,0,0,0,1.431.225,3.068,3.068,0,0,0,1.294-.225.726.726,0,0,0,.474-.684.632.632,0,0,0-.215-.488,2,2,0,0,0-.552-.342,6.262,6.262,0,0,0-.737-.264q-.4-.117-.771-.264a7.392,7.392,0,0,1-1.05-.483,3.034,3.034,0,0,1-.762-.6,2.361,2.361,0,0,1-.469-.791,3.157,3.157,0,0,1-.161-1.064,2.74,2.74,0,0,1,.366-1.445,2.991,2.991,0,0,1,.977-.991,4.462,4.462,0,0,1,1.4-.566,7.281,7.281,0,0,1,1.636-.181,9.076,9.076,0,0,1,1.348.1,10.058,10.058,0,0,1,1.348.3v2.383a4.87,4.87,0,0,0-1.255-.513,5.294,5.294,0,0,0-1.313-.171,2.91,2.91,0,0,0-.571.054,1.882,1.882,0,0,0-.474.156.87.87,0,0,0-.322.264.607.607,0,0,0-.117.366.677.677,0,0,0,.176.469,1.527,1.527,0,0,0,.459.337,4.531,4.531,0,0,0,.63.254q.347.112.688.229a8.951,8.951,0,0,1,1.113.469,3.559,3.559,0,0,1,.854.6,2.339,2.339,0,0,1,.547.8,3.2,3.2,0,0,1-.2,2.612,3.088,3.088,0,0,1-1.025,1.025,4.65,4.65,0,0,1-1.475.576,8.175,8.175,0,0,1-1.733.181A8.936,8.936,0,0,1,139.281,21.736Z" transform="translate(492 1194)" fill="#12263f"/>
      <path id="Trazado_773596" data-name="Trazado 773596" d="M0,0H63.7V135H0Z" transform="translate(556.957 1019.73)" fill="#baefe4"/>
      <g id="Grupo_55805" data-name="Grupo 55805" transform="translate(547.56 993.692)">
        <g id="Grupo_55804" data-name="Grupo 55804" transform="translate(0 0)">
          <g id="Grupo_55803" data-name="Grupo 55803" transform="translate(0 3.47)">
            <g id="Grupo_55802" data-name="Grupo 55802">
              <ellipse id="Elipse_4043" data-name="Elipse 4043" cx="42.31" cy="6.983" rx="42.31" ry="6.983" transform="translate(0 164.909)" fill="#8c757e" stroke="#8c757e" stroke-width="1" opacity="0.1"/>
              <g id="Grupo_55799" data-name="Grupo 55799" transform="translate(14.966)">
                <g id="Grupo_55791" data-name="Grupo 55791" transform="translate(7.02 70.417)">
                  <path id="Trazado_105548" data-name="Trazado 105548" d="M273.048,231.87l-1.088,11.159-6.571,68.027-.379,3.93h-4.13l.064-94.891,3.629,3.536Z" transform="translate(-254.149 -220.095)" fill="#8c757e" stroke="#8c757e" stroke-width="1"/>
                  <path id="Trazado_105549" data-name="Trazado 105549" d="M260.149,357.05c-1.479.733-4.424,2.418-4.424,2.418a6.557,6.557,0,0,1-1.109.467,2.372,2.372,0,0,1-.388.073.685.685,0,0,1-.545-.2c-.715.182-.982-.1-.982-.1-.273.072-.757-.321-.757-.321a1.4,1.4,0,0,1-.437-.145c-.084-.145.006-.461.3-.7s1.613-1.527,2.7-2.484c1.122-1,3.382-3.1,3.709-3.4h4.121a13.775,13.775,0,0,1,.334,1.4C263.119,356.983,261.628,356.316,260.149,357.05Z" transform="translate(-251.477 -257.774)" fill="#8c757e" stroke="#8c757e" stroke-width="1"/>
                  <path id="Trazado_105550" data-name="Trazado 105550" d="M254.51,362.234s-.5-.68.5-1.049" transform="translate(-252.304 -260.196)" fill="#8c757e" stroke="#8c757e" stroke-linecap="round" stroke-linejoin="round" stroke-width="0.226"/>
                  <path id="Trazado_105551" data-name="Trazado 105551" d="M253.173,362.225s-.5-.54.245-.815" transform="translate(-251.913 -260.26)" fill="#8c757e" stroke="#8c757e" stroke-linecap="round" stroke-linejoin="round" stroke-width="0.226"/>
                  <path id="Trazado_105552" data-name="Trazado 105552" d="M252.289,361.883s-.5-.54.246-.815" transform="translate(-251.661 -260.163)" fill="#8c757e" stroke="#8c757e" stroke-linecap="round" stroke-linejoin="round" stroke-width="0.226"/>
                  <path id="Trazado_105553" data-name="Trazado 105553" d="M251.817,361.687s-.5-.54.246-.815" transform="translate(-251.527 -260.107)" fill="#8c757e" stroke="#8c757e" stroke-linecap="round" stroke-linejoin="round" stroke-width="0.226"/>
                </g>
                <path id="Trazado_105554" data-name="Trazado 105554" d="M265.122,288.638a4.1,4.1,0,0,0,2.936-1.692c.3.916-.46,1.8-1.066,2.549a21.37,21.37,0,0,0-1.9,2.973c-.483.158-.883-.392-1.082-.859a12.519,12.519,0,0,1-1.3-4.485A2.775,2.775,0,0,0,265.122,288.638Z" transform="translate(-247.648 -168.678)" fill="#8c757e" stroke="#8c757e" stroke-width="1"/>
                <path id="Trazado_105555" data-name="Trazado 105555" d="M274.514,233.274l-1.088,11.159-6.571,68.027-.437,3.93-.057.487s.014-.165.036-.487c.308-4.33,2.6-36.44,3.336-42.625.787-6.635.336-2.927,1.009-21.144.537-14.351-3.121-24.093-4.7-27.586Z" transform="translate(-248.595 -151.082)" fill="#8c757e" stroke="#8c757e" stroke-width="1"/>
                <g id="Grupo_55792" data-name="Grupo 55792" transform="translate(28.767 70.496)">
                  <path id="Trazado_105556" data-name="Trazado 105556" d="M281.859,231.779l.742,11.281,6.571,68.027.379,3.93h4.13l-.326-94.812-3.367,3.457Z" transform="translate(-281.859 -220.205)" fill="#8c757e" stroke="#8c757e" stroke-width="1"/>
                  <path id="Trazado_105557" data-name="Trazado 105557" d="M294.628,357.05c1.479.733,4.424,2.418,4.424,2.418a6.53,6.53,0,0,0,1.109.467,2.371,2.371,0,0,0,.388.073.685.685,0,0,0,.545-.2c.715.182.982-.1.982-.1.273.072.757-.321.757-.321a1.4,1.4,0,0,0,.437-.145c.084-.145-.006-.461-.3-.7s-1.612-1.527-2.7-2.484c-1.122-1-3.382-3.1-3.709-3.4H292.44a13.774,13.774,0,0,0-.334,1.4C291.659,356.983,293.15,356.316,294.628,357.05Z" transform="translate(-284.749 -257.852)" fill="#8c757e" stroke="#8c757e" stroke-width="1"/>
                  <path id="Trazado_105558" data-name="Trazado 105558" d="M304.5,362.234s.5-.68-.5-1.049" transform="translate(-288.15 -260.275)" fill="#8c757e" stroke="#8c757e" stroke-linecap="round" stroke-linejoin="round" stroke-width="0.226"/>
                  <path id="Trazado_105559" data-name="Trazado 105559" d="M305.919,362.225s.5-.54-.245-.815" transform="translate(-288.628 -260.339)" fill="#8c757e" stroke="#8c757e" stroke-linecap="round" stroke-linejoin="round" stroke-width="0.226"/>
                  <path id="Trazado_105560" data-name="Trazado 105560" d="M306.8,361.883s.5-.54-.246-.815" transform="translate(-288.879 -260.242)" fill="#8c757e" stroke="#8c757e" stroke-linecap="round" stroke-linejoin="round" stroke-width="0.226"/>
                  <path id="Trazado_105561" data-name="Trazado 105561" d="M307.276,361.687s.5-.54-.246-.815" transform="translate(-289.013 -260.186)" fill="#8c757e" stroke="#8c757e" stroke-linecap="round" stroke-linejoin="round" stroke-width="0.226"/>
                </g>
                <path id="Trazado_105562" data-name="Trazado 105562" d="M291.979,288.638a4.1,4.1,0,0,1-2.936-1.692c-.3.916.46,1.8,1.066,2.549a21.308,21.308,0,0,1,1.9,2.973c.483.158.883-.392,1.082-.859a12.5,12.5,0,0,0,1.3-4.485A2.773,2.773,0,0,1,291.979,288.638Z" transform="translate(-255.114 -168.678)" fill="#8c757e" stroke="#8c757e" stroke-width="1"/>
                <path id="Trazado_105563" data-name="Trazado 105563" d="M281.859,233.239l.742,11.193,6.571,68.027.437,3.93.057.487s-.014-.165-.036-.487c-.308-4.33-2.6-36.44-3.336-42.625-.787-6.635-.336-2.927-1.009-21.144-.537-14.351,3.121-24.093,4.7-27.586Z" transform="translate(-253.092 -151.082)" fill="#8c757e" stroke="#8c757e" stroke-width="1"/>
                <path id="Trazado_105564" data-name="Trazado 105564" d="M296.283,177.554l-1.1-1.782q-1.364-2.2-2.713-4.4-1.729-2.8-3.457-5.619-1.664-2.716-3.336-5.426c-.422-.68-.852-1.353-1.26-2.04s-.744-1.381-1.21-2.011c-1.181-1.582-3.192-1.711-4.932-2.255-1.331-.415-2.677-.766-4-1.2-1.625-.523-2.011-1.611-2.047-3.221a14.571,14.571,0,0,1,.086-1.761c.014-.122.029-.236.043-.358a22.374,22.374,0,0,1,.895-3.93l-2.162.208a.007.007,0,0,1-.007.007l-2,.193H265.34a24.328,24.328,0,0,1,.852,3.593v.007c.021.122.043.251.057.379.272,2.069.165,4.259-1.367,4.7-2.362.673-4.76,1.245-7.129,1.911a7.62,7.62,0,0,0-2.1.823,4.111,4.111,0,0,0-1.338,1.568s.007,0,0,.007c-.05.086-.1.172-.143.258-.365.7-.809,1.367-1.224,2.04-1.045,1.689-2.083,3.386-3.128,5.075q-1.718,2.8-3.443,5.6-.934,1.5-1.847,3.006c-.372.594-.737,1.188-1.1,1.782q-.827,1.331-1.639,2.663a1.623,1.623,0,0,0-.115.186l14.4,20.264.122-1.3,9.42,4.839,3.471.78,12.848-3.715-.029-.644Zm-40.141,7.9-.272,4.416L248,177.647l8.146-11.939.716,8.153Zm25.324,2.806-.673-14.7.666-6.306.186-1.761,8.3,12.154-8.367,13.006Z" transform="translate(-241.669 -127.923)" fill="#8c757e" stroke="#8c757e" stroke-width="1"/>
                <ellipse id="Elipse_4044" data-name="Elipse 4044" cx="2.678" cy="3.098" rx="2.678" ry="3.098" transform="translate(25.058 16.435)" fill="#8c757e" stroke="#8c757e" stroke-width="1"/>
                <path id="Trazado_105565" data-name="Trazado 105565" d="M269.343,182.171a.535.535,0,1,1-.535-.535A.535.535,0,0,1,269.343,182.171Z" transform="translate(-249.23 -138.747)" fill="#8c757e" stroke="#8c757e" stroke-width="1"/>
                <path id="Trazado_105566" data-name="Trazado 105566" d="M292.751,182.171a.535.535,0,1,1-.535-.535A.535.535,0,0,1,292.751,182.171Z" transform="translate(-255.883 -138.747)" fill="#8c757e" stroke="#8c757e" stroke-width="1"/>
                <g id="Grupo_55798" data-name="Grupo 55798" transform="translate(17.884)">
                  <g id="Grupo_55797" data-name="Grupo 55797">
                    <g id="Grupo_55796" data-name="Grupo 55796">
                      <g id="Grupo_55794" data-name="Grupo 55794">
                        <path id="Trazado_105567" data-name="Trazado 105567" d="M284.946,130.782c0,7.682-5.236,11.678-8.219,11.678-3.249-.277-8.22-4.61-8.22-11.678,0-8.23,3.681-9.066,8.22-9.066S284.946,121.716,284.946,130.782Z" transform="translate(-267.181 -121.716)" fill="#8c757e" stroke="#8c757e" stroke-width="1"/>
                        <path id="Trazado_105568" data-name="Trazado 105568" d="M279.481,130.16c-1.91-.687-4.338-1.522-5.718-3.011a6.823,6.823,0,0,1-4.2,5.418,22.829,22.829,0,0,1,1.965-8.366,1.547,1.547,0,0,1,.272-.494,1.378,1.378,0,0,1,.908-.351,7.837,7.837,0,0,1,4.1,1.009,40.629,40.629,0,0,1,3.887,2.3,11.977,11.977,0,0,1,3.082,2.5,6.15,6.15,0,0,1,1.146,1.938c.225.885-.4.56-1.029.379C282.417,131.056,280.926,130.679,279.481,130.16Z" transform="translate(-267.481 -122.176)" fill="#8c757e" stroke="#8c757e" stroke-width="1"/>
                        <g id="Grupo_55793" data-name="Grupo 55793" transform="translate(5.467 10.598)">
                          <path id="Trazado_105569" data-name="Trazado 105569" d="M285.4,136.92h-1.233a.2.2,0,0,1-.2-.2h0a.2.2,0,0,1,.2-.2H285.4a.2.2,0,0,1,.2.2h0A.2.2,0,0,1,285.4,136.92Z" transform="translate(-277.043 -136.523)" fill="#8c757e" stroke="#8c757e" stroke-width="1"/>
                          <path id="Trazado_105570" data-name="Trazado 105570" d="M275.724,136.92h-1.233a.2.2,0,0,1-.2-.2h0a.2.2,0,0,1,.2-.2h1.233a.2.2,0,0,1,.2.2h0A.2.2,0,0,1,275.724,136.92Z" transform="translate(-274.293 -136.523)" fill="#8c757e" stroke="#8c757e" stroke-width="1"/>
                        </g>
                        <path id="Trazado_105571" data-name="Trazado 105571" d="M291.051,134.055s1.6-.825,1.291.7-1.066,3.425-2.055,2.816S291.051,134.055,291.051,134.055Z" transform="translate(-273.286 -125.16)" fill="#8c757e" stroke="#8c757e" stroke-width="1"/>
                        <path id="Trazado_105572" data-name="Trazado 105572" d="M267.984,134.055s-1.6-.825-1.291.7,1.065,3.425,2.054,2.816S267.984,134.055,267.984,134.055Z" transform="translate(-266.655 -125.16)" fill="#8c757e" stroke="#8c757e" stroke-width="1"/>
                      </g>
                      <g id="Grupo_55795" data-name="Grupo 55795" transform="translate(5.332 8.787)">
                        <path id="Trazado_105573" data-name="Trazado 105573" d="M278.021,143.909a2.967,2.967,0,0,0,1.152.417,2.8,2.8,0,0,0,2.279-.508" transform="translate(-275.217 -136.785)" fill="#8c757e" stroke="#8c757e" stroke-linecap="round" stroke-linejoin="round" stroke-width="0.291"/>
                        <path id="Trazado_105574" data-name="Trazado 105574" d="M276.005,134.381c0,.215-.339.152-.864.152s-1.037.064-1.037-.152.426-.389.951-.389S276.005,134.166,276.005,134.381Z" transform="translate(-274.104 -133.992)" fill="#8c757e" stroke="#8c757e" stroke-width="1"/>
                        <path id="Trazado_105575" data-name="Trazado 105575" d="M285.682,134.381c0,.215-.339.152-.864.152s-1.037.064-1.037-.152.425-.389.951-.389S285.682,134.166,285.682,134.381Z" transform="translate(-276.854 -133.992)" fill="#8c757e" stroke="#8c757e" stroke-width="1"/>
                        <path id="Trazado_105576" data-name="Trazado 105576" d="M279.362,135.2s.53,2.1.013,3.089c-1.079,2.06.841,1.031,1.209,1.266" transform="translate(-275.51 -134.337)" fill="#8c757e" stroke="#8c757e" stroke-linecap="round" stroke-linejoin="round" stroke-width="0.362"/>
                      </g>
                    </g>
                  </g>
                </g>
              </g>
              <g id="Grupo_55800" data-name="Grupo 55800" transform="translate(33.874 28.932)">
                <path id="Trazado_105577" data-name="Trazado 105577" d="M283.671,165.261a19.439,19.439,0,0,1,6.292-3.125" transform="translate(-272.515 -162.136)" fill="#8c757e" stroke="#8c757e" stroke-miterlimit="10" stroke-width="1"/>
                <path id="Trazado_105578" data-name="Trazado 105578" d="M274.377,165.261a19.439,19.439,0,0,0-6.292-3.125" transform="translate(-268.085 -162.136)" fill="#8c757e" stroke="#8c757e" stroke-miterlimit="10" stroke-width="1"/>
              </g>
              <g id="Grupo_55801" data-name="Grupo 55801" transform="translate(17.822 29.024)">
                <path id="Trazado_105579" data-name="Trazado 105579" d="M305.788,191.181l-8.065,20.171-.3-7.162Z" transform="translate(-260.371 -170.484)" fill="#8c757e" stroke="#8c757e" stroke-width="1"/>
                <path id="Trazado_105580" data-name="Trazado 105580" d="M250.522,191.181l8.065,20.171.3-7.162Z" transform="translate(-247.041 -170.484)" fill="#8c757e" stroke="#8c757e" stroke-width="1"/>
                <path id="Trazado_105581" data-name="Trazado 105581" d="M263.773,185.95l-.75,5.878L260.96,205.1l.665-10.842.723-11.6-.716-8.153,2.441,8.425,9.1-.379Z" transform="translate(-250.008 -165.744)" fill="#8c757e" stroke="#8c757e" stroke-width="1"/>
                <path id="Trazado_105582" data-name="Trazado 105582" d="M292.685,197.059l.467,7.888h-1.638l-.976-19-9.4-3.4,9.1.379,2.441-8.425v1.546l-.666,6.306Z" transform="translate(-255.743 -165.744)" fill="#8c757e" stroke="#8c757e" stroke-width="1"/>
                <path id="Trazado_105583" data-name="Trazado 105583" d="M253.8,167.368c.272-1.038.58-2.054.909-3.071a10.587,10.587,0,0,0,.73-2.033c-.05.086-.1.172-.143.258-.365.7-.809,1.367-1.224,2.04-1.045,1.689-2.083,3.386-3.128,5.075q-1.718,2.8-3.443,5.6-.934,1.5-1.847,3.006l3.779-1.911c1.174-.6,2.355-1.2,3.5-1.854,1.231-.7,2.386-.777,3.273-1.879s1.546-1.925,1.48-3.3c0,0-4.075.182-4.123-.424A5.092,5.092,0,0,1,253.8,167.368Z" transform="translate(-245.659 -162.265)" fill="#8c757e" stroke="#8c757e" stroke-width="1"/>
                <path id="Trazado_105584" data-name="Trazado 105584" d="M301.051,167.368c-.272-1.038-.58-2.054-.909-3.071a10.585,10.585,0,0,1-.73-2.033c.05.086.1.172.143.258.365.7.809,1.367,1.224,2.04,1.045,1.689,2.083,3.386,3.128,5.075q1.718,2.8,3.443,5.6.934,1.5,1.847,3.006l-3.779-1.911c-1.174-.6-2.355-1.2-3.5-1.854-1.231-.7-2.385-.777-3.273-1.879s-1.546-1.925-1.48-3.3c0,0,4.076.182,4.123-.424A5.067,5.067,0,0,0,301.051,167.368Z" transform="translate(-260.297 -162.265)" fill="#8c757e" stroke="#8c757e" stroke-width="1"/>
              </g>
            </g>
            <path id="Trazado_105585" data-name="Trazado 105585" d="M260.96,217.175l26.456-.142V219.3L275.98,231.1h-2.913l-12.1-11.879Z" transform="translate(-232.186 -148.807)" fill="#8c757e" stroke="#8c757e" stroke-width="1"/>
          </g>
          <path id="Trazado_105586" data-name="Trazado 105586" d="M271.343,118.42l.04-.025c.293-.185.883-.493.966-.863l-.385,1.712a1.94,1.94,0,0,1,1.2-1,23.981,23.981,0,0,1,4.353-1.38,1.453,1.453,0,0,0-.718.9,9.094,9.094,0,0,1,4.365.016,6.074,6.074,0,0,1,3.522,2.483,10,10,0,0,1,1.345,3.8c.261,2.182-.546,4.025-1.525,5.992-4.877-1.661-8.838-2.978-12.42-6.681.481,2.787-1.188,5.419-3.251,7.353a7.917,7.917,0,0,1-.352-9.684,1.684,1.684,0,0,1,1.069-.643,7.032,7.032,0,0,1,.815-1.218A4.026,4.026,0,0,1,271.343,118.42Z" transform="translate(-233.902 -116.868)" fill="#8c757e" stroke="#8c757e" stroke-width="1"/>
        </g>
      </g>
      <path id="Trazado_773598" data-name="Trazado 773598" d="M3.5,0A3.5,3.5,0,1,1,0,3.5,3.5,3.5,0,0,1,3.5,0Z" transform="translate(518 1205)" fill="#f5947a"/>
    </g>
  </g>
</svg>
