<svg xmlns="http://www.w3.org/2000/svg" width="118.22" height="254.751" viewBox="0 0 118.22 254.751">
  <g id="Grupo_55841" data-name="Grupo 55841" transform="translate(-220.761 -116.868)">
    <rect id="Rectángulo_5354" data-name="Rectángulo 5354" width="84.408" height="169.342" transform="translate(236.846 156.191)" fill="#ede3b7"/>
    <g id="Grupo_55804" data-name="Grupo 55804">
      <g id="Grupo_55803" data-name="Grupo 55803">
        <g id="Grupo_55802" data-name="Grupo 55802">
          <ellipse id="Elipse_4043" data-name="Elipse 4043" cx="59.11" cy="9.755" rx="59.11" ry="9.755" transform="translate(220.761 352.108)" fill="#606060" opacity="0.1"/>
          <g id="Grupo_55799" data-name="Grupo 55799">
            <g id="Grupo_55791" data-name="Grupo 55791">
              <path id="Trazado_105548" data-name="Trazado 105548" d="M277.879,236.545l-1.52,15.59-9.18,95.04-.53,5.49h-5.77l.09-132.57,5.07,4.94Z" fill="#ffc5a1"/>
              <path id="Trazado_105549" data-name="Trazado 105549" d="M263.593,358.792c-2.066,1.024-6.181,3.378-6.181,3.378a9.148,9.148,0,0,1-1.549.652,3.32,3.32,0,0,1-.542.1.956.956,0,0,1-.762-.28c-1,.254-1.372-.135-1.372-.135-.381.1-1.058-.449-1.058-.449a1.959,1.959,0,0,1-.61-.2c-.118-.2.009-.644.423-.974s2.253-2.134,3.768-3.471c1.567-1.4,4.725-4.327,5.182-4.75h5.758a19.262,19.262,0,0,1,.466,1.955C267.742,358.7,265.659,357.767,263.593,358.792Z" fill="#ffc5a1"/>
              <path id="Trazado_105550" data-name="Trazado 105550" d="M254.559,362.65s-.694-.95.7-1.465" fill="none" stroke="#f08c7f" stroke-linecap="round" stroke-linejoin="round" stroke-width="0.226"/>
              <path id="Trazado_105551" data-name="Trazado 105551" d="M253.238,362.548s-.7-.755.343-1.138" fill="none" stroke="#f08c7f" stroke-linecap="round" stroke-linejoin="round" stroke-width="0.226"/>
              <path id="Trazado_105552" data-name="Trazado 105552" d="M252.354,362.207s-.7-.755.343-1.139" fill="none" stroke="#f08c7f" stroke-linecap="round" stroke-linejoin="round" stroke-width="0.226"/>
              <path id="Trazado_105553" data-name="Trazado 105553" d="M251.882,362.01s-.7-.755.343-1.138" fill="none" stroke="#f08c7f" stroke-linecap="round" stroke-linejoin="round" stroke-width="0.226"/>
            </g>
            <path id="Trazado_105554" data-name="Trazado 105554" d="M266.082,289.31a5.728,5.728,0,0,0,4.1-2.364c.422,1.28-.642,2.513-1.49,3.561a29.856,29.856,0,0,0-2.658,4.154c-.675.221-1.233-.547-1.511-1.2-.791-1.861-1.832-4.231-1.821-6.266A3.877,3.877,0,0,0,266.082,289.31Z" fill="#ffb58a"/>
            <path id="Trazado_105555" data-name="Trazado 105555" d="M277.879,236.545l-1.52,15.59-9.18,95.04-.61,5.49-.08.68s.02-.23.05-.68c.43-6.05,3.63-50.91,4.66-59.55,1.1-9.27.47-4.09,1.41-29.54.75-20.05-4.36-33.66-6.57-38.54Z" fill="#ffb58a"/>
            <g id="Grupo_55792" data-name="Grupo 55792">
              <path id="Trazado_105556" data-name="Trazado 105556" d="M281.859,236.374l1.036,15.76,9.18,95.04.53,5.49h5.77l-.456-132.46-4.7,4.83Z" fill="#ffc5a1"/>
              <path id="Trazado_105557" data-name="Trazado 105557" d="M295.662,358.792c2.066,1.024,6.181,3.378,6.181,3.378a9.112,9.112,0,0,0,1.549.652,3.32,3.32,0,0,0,.542.1.956.956,0,0,0,.762-.28c1,.254,1.372-.135,1.372-.135.381.1,1.058-.449,1.058-.449a1.959,1.959,0,0,0,.61-.2c.118-.2-.009-.644-.424-.974s-2.252-2.134-3.767-3.471c-1.567-1.4-4.725-4.327-5.182-4.75h-5.758a19.262,19.262,0,0,0-.466,1.955C291.513,358.7,293.6,357.767,295.662,358.792Z" fill="#ffc5a1"/>
              <path id="Trazado_105558" data-name="Trazado 105558" d="M304.7,362.65s.694-.95-.7-1.465" fill="none" stroke="#f08c7f" stroke-linecap="round" stroke-linejoin="round" stroke-width="0.226"/>
              <path id="Trazado_105559" data-name="Trazado 105559" d="M306.017,362.548s.7-.755-.343-1.138" fill="none" stroke="#f08c7f" stroke-linecap="round" stroke-linejoin="round" stroke-width="0.226"/>
              <path id="Trazado_105560" data-name="Trazado 105560" d="M306.9,362.207s.7-.755-.343-1.139" fill="none" stroke="#f08c7f" stroke-linecap="round" stroke-linejoin="round" stroke-width="0.226"/>
              <path id="Trazado_105561" data-name="Trazado 105561" d="M307.373,362.01s.7-.755-.343-1.138" fill="none" stroke="#f08c7f" stroke-linecap="round" stroke-linejoin="round" stroke-width="0.226"/>
            </g>
            <path id="Trazado_105562" data-name="Trazado 105562" d="M293.172,289.31a5.731,5.731,0,0,1-4.1-2.364c-.421,1.28.643,2.513,1.49,3.561a29.77,29.77,0,0,1,2.659,4.154c.675.221,1.233-.547,1.511-1.2.791-1.861,1.832-4.231,1.82-6.266A3.874,3.874,0,0,1,293.172,289.31Z" fill="#ffb58a"/>
            <path id="Trazado_105563" data-name="Trazado 105563" d="M281.859,236.5l1.036,15.638,9.18,95.04.61,5.49.08.68s-.02-.23-.05-.68c-.43-6.05-3.63-50.91-4.66-59.55-1.1-9.27-.47-4.09-1.41-29.54-.75-20.05,4.36-33.66,6.57-38.54Z" fill="#ffb58a"/>
            <path id="Trazado_105564" data-name="Trazado 105564" d="M317.969,191.055l-1.53-2.49q-1.9-3.075-3.79-6.15-2.415-3.915-4.83-7.85-2.325-3.795-4.66-7.58c-.59-.95-1.19-1.89-1.76-2.85-.56-.94-1.04-1.93-1.69-2.81-1.65-2.21-4.46-2.39-6.89-3.15-1.86-.58-3.74-1.07-5.59-1.67-2.27-.73-2.81-2.25-2.86-4.5a20.361,20.361,0,0,1,.12-2.46c.02-.17.04-.33.06-.5a31.264,31.264,0,0,1,1.25-5.49l-3.02.29a.01.01,0,0,1-.01.01l-2.8.27h-5.23a33.992,33.992,0,0,1,1.19,5.02v.01c.03.17.06.35.08.53.38,2.89.23,5.95-1.91,6.56-3.3.94-6.65,1.74-9.96,2.67a10.646,10.646,0,0,0-2.94,1.15,5.743,5.743,0,0,0-1.87,2.19s.01,0,0,.01c-.07.12-.14.24-.2.36-.51.98-1.13,1.91-1.71,2.85-1.46,2.36-2.91,4.73-4.37,7.09q-2.4,3.915-4.81,7.82-1.3,2.1-2.58,4.2c-.52.83-1.03,1.66-1.54,2.49q-1.155,1.86-2.29,3.72a2.262,2.262,0,0,0-.16.26l20.12,28.31.17-1.82,13.16,6.76,4.85,1.09,17.95-5.19-.04-.9Zm-56.08,11.04-.38,6.17-10.99-17.08,11.38-16.68,1,11.39Zm35.38,3.92-.94-20.54.93-8.81.26-2.46,11.59,16.98-11.69,18.17Z" fill="#ffc5a1"/>
            <ellipse id="Elipse_4044" data-name="Elipse 4044" cx="3.741" cy="4.329" rx="3.741" ry="4.329" transform="translate(276.677 144.677)" fill="#ffb58a"/>
            <path id="Trazado_105565" data-name="Trazado 105565" d="M269.768,182.383a.747.747,0,1,1-.747-.747A.747.747,0,0,1,269.768,182.383Z" fill="#ffb58a"/>
            <path id="Trazado_105566" data-name="Trazado 105566" d="M293.176,182.383a.747.747,0,1,1-.748-.747A.747.747,0,0,1,293.176,182.383Z" fill="#ffb58a"/>
            <g id="Grupo_55798" data-name="Grupo 55798">
              <g id="Grupo_55797" data-name="Grupo 55797">
                <g id="Grupo_55796" data-name="Grupo 55796">
                  <g id="Grupo_55794" data-name="Grupo 55794">
                    <path id="Trazado_105567" data-name="Trazado 105567" d="M291.474,134.382c0,10.733-7.315,16.315-11.483,16.315-4.539-.387-11.484-6.44-11.484-16.315,0-11.5,5.142-12.666,11.484-12.666S291.474,121.716,291.474,134.382Z" fill="#ffc5a1"/>
                    <path id="Trazado_105568" data-name="Trazado 105568" d="M283.42,132.869c-2.669-.96-6.061-2.126-7.988-4.206a9.532,9.532,0,0,1-5.87,7.569,31.893,31.893,0,0,1,2.745-11.688,2.162,2.162,0,0,1,.38-.69,1.925,1.925,0,0,1,1.269-.49,10.949,10.949,0,0,1,5.726,1.41,56.768,56.768,0,0,1,5.431,3.207,16.732,16.732,0,0,1,4.306,3.495,8.592,8.592,0,0,1,1.6,2.708c.314,1.236-.56.782-1.437.529C287.522,134.121,285.439,133.6,283.42,132.869Z" fill="#ffb58a"/>
                    <g id="Grupo_55793" data-name="Grupo 55793">
                      <path id="Trazado_105569" data-name="Trazado 105569" d="M285.97,137.078h-1.723a.277.277,0,0,1-.277-.277h0a.278.278,0,0,1,.277-.278h1.723a.279.279,0,0,1,.278.278h0A.278.278,0,0,1,285.97,137.078Z"/>
                      <path id="Trazado_105570" data-name="Trazado 105570" d="M276.293,137.078h-1.722a.278.278,0,0,1-.278-.277h0a.279.279,0,0,1,.278-.278h1.722a.278.278,0,0,1,.278.278h0A.277.277,0,0,1,276.293,137.078Z"/>
                    </g>
                    <path id="Trazado_105571" data-name="Trazado 105571" d="M291.474,134.144s2.229-1.152,1.8.974-1.489,4.785-2.871,3.934S291.474,134.144,291.474,134.144Z" fill="#ffc5a1"/>
                    <path id="Trazado_105572" data-name="Trazado 105572" d="M268.512,134.144s-2.229-1.152-1.8.974,1.488,4.785,2.87,3.934S268.512,134.144,268.512,134.144Z" fill="#ffc5a1"/>
                  </g>
                  <g id="Grupo_55795" data-name="Grupo 55795">
                    <path id="Trazado_105573" data-name="Trazado 105573" d="M278.021,143.945a4.145,4.145,0,0,0,1.61.583,3.918,3.918,0,0,0,3.184-.71" fill="none" stroke="#000" stroke-linecap="round" stroke-linejoin="round" stroke-width="0.291"/>
                    <path id="Trazado_105574" data-name="Trazado 105574" d="M276.76,134.535c0,.3-.474.212-1.207.212s-1.449.089-1.449-.212.6-.543,1.328-.543S276.76,134.235,276.76,134.535Z"/>
                    <path id="Trazado_105575" data-name="Trazado 105575" d="M286.437,134.535c0,.3-.474.212-1.207.212s-1.449.089-1.449-.212.594-.543,1.328-.543S286.437,134.235,286.437,134.535Z"/>
                    <path id="Trazado_105576" data-name="Trazado 105576" d="M279.486,135.205s.74,2.933.018,4.315c-1.507,2.878,1.175,1.441,1.689,1.768" fill="none" stroke="#000" stroke-linecap="round" stroke-linejoin="round" stroke-width="0.362"/>
                  </g>
                </g>
              </g>
            </g>
          </g>
          <g id="Grupo_55800" data-name="Grupo 55800">
            <path id="Trazado_105577" data-name="Trazado 105577" d="M283.671,166.5a27.158,27.158,0,0,1,8.791-4.366" fill="none" stroke="#ffb58a" stroke-miterlimit="10" stroke-width="1"/>
            <path id="Trazado_105578" data-name="Trazado 105578" d="M276.876,166.5a27.158,27.158,0,0,0-8.791-4.366" fill="none" stroke="#ffb58a" stroke-miterlimit="10" stroke-width="1"/>
          </g>
          <g id="Grupo_55801" data-name="Grupo 55801">
            <path id="Trazado_105579" data-name="Trazado 105579" d="M309.11,191.181l-11.267,28.18-.42-10.007Z" fill="#ffb58a"/>
            <path id="Trazado_105580" data-name="Trazado 105580" d="M250.522,191.181l11.267,28.18.42-10.007Z" fill="#ffb58a"/>
            <path id="Trazado_105581" data-name="Trazado 105581" d="M264.889,190.495l-1.047,8.212-2.882,18.535.93-15.147,1.01-16.2-1-11.39,3.41,11.77,12.71-.53Z" fill="#ffb58a"/>
            <path id="Trazado_105582" data-name="Trazado 105582" d="M297.27,206.015l.652,11.02h-2.289l-1.363-26.54-13.13-4.75,12.71.53,3.41-11.77v2.16l-.93,8.81Z" fill="#ffb58a"/>
            <path id="Trazado_105583" data-name="Trazado 105583" d="M257.039,169.4c.38-1.45.81-2.87,1.27-4.29a14.794,14.794,0,0,0,1.02-2.84c-.07.12-.14.24-.2.36-.51.98-1.13,1.91-1.71,2.85-1.46,2.36-2.91,4.73-4.37,7.09q-2.4,3.915-4.81,7.82-1.3,2.1-2.58,4.2l5.28-2.67c1.64-.84,3.29-1.67,4.89-2.59,1.72-.98,3.333-1.085,4.573-2.625s2.16-2.69,2.067-4.6c0,0-5.693.254-5.76-.593A7.115,7.115,0,0,1,257.039,169.4Z" fill="#ffb58a"/>
            <path id="Trazado_105584" data-name="Trazado 105584" d="M302.6,169.4c-.38-1.45-.81-2.87-1.27-4.29a14.8,14.8,0,0,1-1.02-2.84c.07.12.14.24.2.36.51.98,1.13,1.91,1.71,2.85,1.46,2.36,2.91,4.73,4.37,7.09q2.4,3.915,4.81,7.82,1.3,2.1,2.58,4.2l-5.28-2.67c-1.64-.84-3.29-1.67-4.89-2.59-1.72-.98-3.332-1.085-4.572-2.625s-2.16-2.69-2.068-4.6c0,0,5.694.254,5.76-.593A7.08,7.08,0,0,0,302.6,169.4Z" fill="#ffb58a"/>
          </g>
        </g>
        <path id="Trazado_105585" data-name="Trazado 105585" d="M260.96,217.232l36.961-.2V220.2l-15.977,16.488h-4.069l-16.909-16.6Z"/>
      </g>
      <path id="Trazado_105586" data-name="Trazado 105586" d="M273.069,119.036l.056-.035c.409-.258,1.233-.689,1.349-1.205q-.268,1.2-.538,2.392a2.711,2.711,0,0,1,1.676-1.392,33.507,33.507,0,0,1,6.081-1.928,2.03,2.03,0,0,0-1,1.252,12.705,12.705,0,0,1,6.1.022,8.485,8.485,0,0,1,4.92,3.469,13.971,13.971,0,0,1,1.879,5.31c.365,3.049-.763,5.623-2.131,8.372-6.814-2.32-12.348-4.16-17.352-9.334.672,3.893-1.66,7.571-4.542,10.273a11.061,11.061,0,0,1-.492-13.529,2.353,2.353,0,0,1,1.493-.9,9.827,9.827,0,0,1,1.139-1.7A5.625,5.625,0,0,1,273.069,119.036Z"/>
    </g>
  </g>
</svg>
