<svg xmlns="http://www.w3.org/2000/svg" width="122.235" height="259.833" viewBox="0 0 122.235 259.833">
  <g id="Grupo_55840" data-name="Grupo 55840" transform="translate(-54.653 -113.026)">
    <ellipse id="Elipse_4040" data-name="Elipse 4040" cx="59.754" cy="84.669" rx="59.754" ry="84.669" transform="translate(54.653 157.424)" fill="#ede3b7"/>
    <g id="Grupo_55789" data-name="Grupo 55789">
      <g id="Grupo_55787" data-name="Grupo 55787">
        <g id="Grupo_55786" data-name="Grupo 55786">
          <ellipse id="Elipse_4041" data-name="Elipse 4041" cx="59.11" cy="9.755" rx="59.11" ry="9.755" transform="translate(58.669 353.348)" fill="#606060" opacity="0.1"/>
          <g id="Grupo_55785" data-name="Grupo 55785">
            <g id="Grupo_55763" data-name="Grupo 55763">
              <g id="Grupo_55762" data-name="Grupo 55762">
                <path id="Trazado_105502" data-name="Trazado 105502" d="M163.337,202.685c-.27-1.51-.55-2.99-.86-4.45a125.744,125.744,0,0,0-4.98-17.66c-.78-2.09-1.57-3.99-2.38-5.67-.36-.75-.72-1.47-1.08-2.13-5.73-10.54-15.85-9.75-22.62-10.17a14.393,14.393,0,0,1-4.39-.75,3.917,3.917,0,0,1-2.53-3.55c0-.04-.01-.09-.01-.13a10.244,10.244,0,0,1,.2-2.62,19.274,19.274,0,0,1,1.09-3.44,24.268,24.268,0,0,1,1.25-2.62h-20.7a26.69,26.69,0,0,1,1.18,2.45,19.156,19.156,0,0,1,1.16,3.68,9.763,9.763,0,0,1,.21,2.26,5.088,5.088,0,0,1-.04.56,3.881,3.881,0,0,1-2.51,3.41c-1.83.74-4.52.76-7.56.9a42.633,42.633,0,0,0-6.74.7s-14.62,2.98-17.83,13.75q-.27.885-.57,1.8c-2.11,6.28-5.55,13.08-7.83,18.38-1.49,3.46-2.48,6.27-2.28,7.89.32,2.56,9.46,11.18,16.84,17.78,1.17,1.04,2.3,2.03,3.34,2.94,1.48,1.29,2.79,2.42,3.8,3.29a37.139,37.139,0,0,0,1.46,5.54,13.338,13.338,0,0,0,3.61,3.4c3.42,2.36,9.63,5.13,20.14,5.43h.05c1.25.04,2.55.04,3.92,0a56.693,56.693,0,0,0,10.12-1.14,34.277,34.277,0,0,0,14.17-6.1c.23-.18.45-.36.66-.53.38-.31.71-.62,1.02-.91.38-.36.71-.7.99-1.01a2.6,2.6,0,0,0,.25-.31l.48-.04a29.34,29.34,0,0,0,1.95-8.14c.01-.1.02-.21.03-.31.87-9.26-4.81-15.22-6.77-20.87-.75-2.17,2.16-7.96,2.34-9.77,6.69,7.1,17.57,47.78,17.57,47.78h4.6C166.437,229.995,165.637,215.6,163.337,202.685Zm-75.98,16.61-3.54-5.06-2.67-3.83-5.2-7.44a.694.694,0,0,1,.06-.87l6.64-7.11,7.03-7.53a.908.908,0,0,0-.12.64,19.353,19.353,0,0,0,1.13,4.25c.14.38.27.74.39,1.06.26.69.44,1.15.44,1.15.25,2.14,2.58,6.23,1.8,8.47C91.747,207.555,88.447,212.525,87.357,219.295Z" fill="#ffc5a1"/>
                <path id="Trazado_105503" data-name="Trazado 105503" d="M87,230.214s-2.1-2.029-1.848-4.4-1.2-4.2,2.411-5.234v7.29Z" fill="#ffc5a1"/>
                <path id="Trazado_105504" data-name="Trazado 105504" d="M127.14,194.759c1.138.059,2.61.019,3.024,1.081.439,1.125-.892,2.151-2.073,2.406a7.439,7.439,0,0,1-3.253-.027c-1.793-.419-3.434-1.5-5.275-1.56-1.926-.058-3.674,1.015-5.47,1.714-1.886.735-7.18,2.183-8.111-.832-.666-2.158,2.272-2.371,3.8-2.809,2.781-.8,5.486-2.975,8.433-2.722C121.36,192.281,123.957,194.594,127.14,194.759Z" fill="#ffb58a"/>
                <path id="Trazado_105505" data-name="Trazado 105505" d="M89.557,188.1a5.464,5.464,0,0,1-1.47,1.86c-1.81,1.68-3.62,3.35-5.44,5.03l-.78.72c-1.61,1.49-3.36,3.06-5.54,3.4-1.66.26-3.34-.24-5.01-.3a9.729,9.729,0,0,0-5.14,1.28,10.793,10.793,0,0,1-.38-2.7c2.28-5.3,5.72-12.1,7.83-18.38a9.487,9.487,0,0,0,.39,3.95,3.365,3.365,0,0,0,.88,1.56,3.857,3.857,0,0,0,2.15.73,41.634,41.634,0,0,0,8.5.12c1.57-.13,3.64-.05,4.08,1.46A1.974,1.974,0,0,1,89.557,188.1Z" fill="#ffb58a"/>
                <path id="Trazado_105506" data-name="Trazado 105506" d="M87.357,219.295c1.09-6.77,4.39-11.74,5.96-16.27.78-2.24-1.55-6.33-1.8-8.47l-.83-2.21c.65.49,1.98,1.836,2.32,2.006a8.54,8.54,0,0,0,3.9.774c2.83.11,4.44,2.58,4.67,5.37a13.32,13.32,0,0,1-2.02,7.37c-1.25,2.26-2.8,4.35-3.92,6.68a15.858,15.858,0,0,0-1.66,8.65,10.949,10.949,0,0,0,4.2,7.58c4.89,3.57,11.99,1.75,17.4,4.46q-11.505,1.485-23.01,2.99a13.338,13.338,0,0,1-3.61-3.4,37.139,37.139,0,0,1-1.46-5.54A77.838,77.838,0,0,1,87.357,219.295Z" fill="#ffb58a"/>
                <path id="Trazado_105507" data-name="Trazado 105507" d="M127.027,161.855a3.917,3.917,0,0,1-2.53-3.55v-.011a9.664,9.664,0,0,1,.194-2.735,19.023,19.023,0,0,1,1.087-3.441,21.908,21.908,0,0,0-9.318-1.776,22.611,22.611,0,0,0-8.953,1.6,19.331,19.331,0,0,1,1.163,3.681,8.9,8.9,0,0,1,.165,2.815h0v0a3.881,3.881,0,0,1-2.51,3.41c-1.83.74-4.52.76-7.56.9a.292.292,0,0,0-.02.09c2.02.67,4.35.53,6.46,1.36a18.99,18.99,0,0,1,5.59,3.56c1.17,1.12,2.19,2.42,3.46,3.42a5.789,5.789,0,0,0,4.51,1.42c2.45-.46,3.83-2.99,5.39-4.94a15.843,15.843,0,0,1,7.26-5.06A14.393,14.393,0,0,1,127.027,161.855Z" fill="#ffb58a"/>
                <path id="Trazado_105508" data-name="Trazado 105508" d="M163.337,202.685c-3.74-3.59-7.81-7.07-12.83-8.22-2.75-.63-5.63-.52-8.35-1.26a11.82,11.82,0,0,0,2.14-3.22,4.006,4.006,0,0,0-.26-3.72c2.97,1.5,6.58.91,9.68-.27a6.185,6.185,0,0,0,3.28-2.31c.34-.59.29-2.3.5-3.11a125.744,125.744,0,0,1,4.98,17.66C162.787,199.7,163.067,201.175,163.337,202.685Z" fill="#ffb58a"/>
                <circle id="Elipse_4042" data-name="Elipse 4042" cx="0.775" cy="0.775" r="0.775" transform="translate(97.245 187.458)" fill="#ffb58a"/>
                <path id="Trazado_105509" data-name="Trazado 105509" d="M137.181,188.233a.775.775,0,1,1-.775-.775A.775.775,0,0,1,137.181,188.233Z" fill="#ffb58a"/>
              </g>
            </g>
            <g id="Grupo_55764" data-name="Grupo 55764">
              <path id="Trazado_105510" data-name="Trazado 105510" d="M165.5,249.33c.047,1.865-.77.929-1.36,1.865a11.532,11.532,0,0,0-1.446,2.961c-.181.828-.818,1.035-1.273.821s.228-4.511.181-4.726c-.04-.176-.9-2.608-1.206-3.475l-.107-.307s.02.1.06.376c.047.3.114.813.208,1.649.007.092.013.177.02.253.067,1.389-.791,1.627-.791,1.627l-1.132-4.058.672-4.63s4-.357,4.814.157c.69.43,1.146,4.12,1.307,6.39C165.472,248.655,165.492,249.031,165.5,249.33Z" fill="#ffc5a1"/>
              <path id="Trazado_105511" data-name="Trazado 105511" d="M165.5,249.33c.047,1.865-.77.929-1.36,1.865a11.532,11.532,0,0,0-1.446,2.961c-.181.828-.818,1.035-1.273.821s.228-4.511.181-4.726c-.04-.176-.9-2.608-1.206-3.475.429-.629.844.5,1.052.859a2.259,2.259,0,0,0,2.1.836,9.788,9.788,0,0,0,1.9-.238C165.472,248.655,165.492,249.031,165.5,249.33Z" fill="#ffb58a"/>
            </g>
            <g id="Grupo_55773" data-name="Grupo 55773">
              <g id="Grupo_55768" data-name="Grupo 55768">
                <g id="Grupo_55767" data-name="Grupo 55767">
                  <g id="Grupo_55766" data-name="Grupo 55766">
                    <g id="Grupo_55765" data-name="Grupo 55765">
                      <path id="Trazado_105512" data-name="Trazado 105512" d="M142.51,358.25c2.229.888,6.688,2.987,6.688,2.987.1.048.31.137.572.227a8.316,8.316,0,0,0,1.094.323,3.793,3.793,0,0,0,.571.062.958.958,0,0,0,.564-.172.806.806,0,0,0,.2-.172.007.007,0,0,1,.007-.007,1.609,1.609,0,0,0,1.355-.213.2.2,0,0,0,.055-.048c.407.082,1.06-.551,1.06-.551a1.033,1.033,0,0,0,.248-.069,2.69,2.69,0,0,0,.371-.192c.1-.221-.068-.661-.522-.971s-2.512-2.03-4.2-3.3c-1.315-1-3.654-2.835-4.934-3.847-.551-.426-.9-.7-.9-.7a.04.04,0,0,1-.007-.027h-5.787c-.055.261-.11.523-.165.791a15.654,15.654,0,0,0-.276,1.831C138.2,358.491,140.273,357.355,142.51,358.25Z" fill="#ffc5a1"/>
                      <path id="Trazado_105513" data-name="Trazado 105513" d="M152.2,361.5s.642-1.044-.851-1.463" fill="none" stroke="#ffc09c" stroke-linecap="round" stroke-linejoin="round" stroke-width="0.25"/>
                      <path id="Trazado_105514" data-name="Trazado 105514" d="M153.564,361.287s.66-.841-.45-1.153" fill="none" stroke="#ffc09c" stroke-linecap="round" stroke-linejoin="round" stroke-width="0.25"/>
                      <path id="Trazado_105515" data-name="Trazado 105515" d="M154.453,360.86s.659-.842-.451-1.153" fill="none" stroke="#ffc09c" stroke-linecap="round" stroke-linejoin="round" stroke-width="0.25"/>
                      <path id="Trazado_105516" data-name="Trazado 105516" d="M154.927,360.617s.659-.842-.45-1.154" fill="none" stroke="#ffc09c" stroke-linecap="round" stroke-linejoin="round" stroke-width="0.25"/>
                    </g>
                    <path id="Trazado_105517" data-name="Trazado 105517" d="M115.589,252.686l1.122,4.81.261,1.129,21.808,93.748.028.11,1.362-.034.165-.007,5.306-.131h.069l-1.4-108.627-15.105,4.735-1.129.351L117.777,252l-.461.145Z" fill="#ffc5a1"/>
                  </g>
                </g>
                <path id="Trazado_105518" data-name="Trazado 105518" d="M138.677,298.679a5.414,5.414,0,0,1-4.572-1.213,1.746,1.746,0,0,0-.718-.44c-.6-.122-1.128.557-1.095,1.173a3.07,3.07,0,0,0,.806,1.633l3.371,4.342a2.768,2.768,0,0,0,1.119.994c1.086.4,2.153-.636,2.737-1.636,1.253-2.147,2.239-5.189,1.665-7.656C141.076,296.948,140.316,298.3,138.677,298.679Z" fill="#ffb58a"/>
                <path id="Trazado_105519" data-name="Trazado 105519" d="M116.668,254.415c-.01,1.2.01,2.39.07,3.58l.15.63,21.65,93.09a2.792,2.792,0,0,0,.33-.7,7.105,7.105,0,0,0-.06-3.24q-5-28.395-9.99-56.8c-1.23-7-2.46-14.06-2.16-21.15s2.26-14.33,6.79-19.8c.84-1,3.16-2.7,3.9-4.18a1.809,1.809,0,0,0,.22-1c-5.98.14-12.48,2.45-17.92,4.79a5.331,5.331,0,0,0-2.18,1.42,3.344,3.344,0,0,0-.58,1.2A8.614,8.614,0,0,0,116.668,254.415Z" fill="#ffb58a"/>
              </g>
              <g id="Grupo_55772" data-name="Grupo 55772">
                <g id="Grupo_55771" data-name="Grupo 55771">
                  <g id="Grupo_55769" data-name="Grupo 55769">
                    <path id="Trazado_105520" data-name="Trazado 105520" d="M90.763,358.25c-2.229.888-6.689,2.987-6.689,2.987a6.134,6.134,0,0,1-.571.227,8.316,8.316,0,0,1-1.094.323,3.793,3.793,0,0,1-.571.062.956.956,0,0,1-.564-.172.786.786,0,0,1-.2-.172.007.007,0,0,0-.007-.007,1.613,1.613,0,0,1-1.356-.213.227.227,0,0,1-.055-.048c-.406.082-1.059-.551-1.059-.551a1.021,1.021,0,0,1-.248-.069,2.735,2.735,0,0,1-.372-.192c-.1-.221.069-.661.523-.971s2.512-2.03,4.2-3.3c1.314-1,3.654-2.835,4.934-3.847.551-.426.9-.7.9-.7a.04.04,0,0,0,.007-.027h5.787c.055.261.11.523.165.791a15.433,15.433,0,0,1,.275,1.831C95.078,358.491,93,357.355,90.763,358.25Z" fill="#ffc5a1"/>
                    <path id="Trazado_105521" data-name="Trazado 105521" d="M81.072,361.5s-.643-1.044.851-1.463" fill="none" stroke="#ffc09c" stroke-linecap="round" stroke-linejoin="round" stroke-width="0.25"/>
                    <path id="Trazado_105522" data-name="Trazado 105522" d="M79.709,361.287s-.66-.841.45-1.153" fill="none" stroke="#ffc09c" stroke-linecap="round" stroke-linejoin="round" stroke-width="0.25"/>
                    <path id="Trazado_105523" data-name="Trazado 105523" d="M78.82,360.86s-.66-.842.45-1.153" fill="none" stroke="#ffc09c" stroke-linecap="round" stroke-linejoin="round" stroke-width="0.25"/>
                    <path id="Trazado_105524" data-name="Trazado 105524" d="M78.346,360.617s-.66-.842.45-1.154" fill="none" stroke="#ffc09c" stroke-linecap="round" stroke-linejoin="round" stroke-width="0.25"/>
                  </g>
                  <g id="Grupo_55770" data-name="Grupo 55770">
                    <path id="Trazado_105525" data-name="Trazado 105525" d="M117.687,252.685l-1.12,4.81-.12.5-.15.63-21.65,93.09-.15.66-.03.11-1.36-.04h-.17l-5.31-.13h-.06l1.39-108.63,6.88,2.16,8.23,2.57,1.13.36,10.3,3.22.46.15.34.11Z" fill="#ffc5a1"/>
                    <path id="Trazado_105526" data-name="Trazado 105526" d="M116.517,254.415c.01,1.2-.01,2.39-.07,3.58l-.15.63-21.65,93.09a2.792,2.792,0,0,1-.33-.7,7.105,7.105,0,0,1,.06-3.24q5-28.395,9.99-56.8c1.23-7,2.46-14.06,2.16-21.15s-2.26-14.33-6.79-19.8c-.84-1-3.16-2.7-3.9-4.18a1.809,1.809,0,0,1-.22-1c5.98.14,12.48,2.45,17.92,4.79a5.331,5.331,0,0,1,2.18,1.42,3.344,3.344,0,0,1,.58,1.2A8.614,8.614,0,0,1,116.517,254.415Z" fill="#ffb58a"/>
                    <path id="Trazado_105527" data-name="Trazado 105527" d="M95.332,298.679a5.415,5.415,0,0,0,4.572-1.213,1.746,1.746,0,0,1,.718-.44c.6-.122,1.127.557,1.1,1.173a3.085,3.085,0,0,1-.806,1.633q-1.686,2.17-3.371,4.342a2.768,2.768,0,0,1-1.119.994c-1.086.4-2.153-.636-2.737-1.636-1.254-2.147-2.239-5.189-1.665-7.656C92.932,296.948,93.693,298.3,95.332,298.679Z" fill="#ffb58a"/>
                  </g>
                </g>
              </g>
              <path id="Trazado_105528" data-name="Trazado 105528" d="M144.371,233.617v10.068l-.062.027-24.168,9.036a9.523,9.523,0,0,1-2.608.585,9.771,9.771,0,0,1-4.322-.585L88.96,243.685v-8.857l9.827-.213,36.851-.805,7.123-.159Z"/>
            </g>
            <g id="Grupo_55779" data-name="Grupo 55779">
              <g id="Grupo_55778" data-name="Grupo 55778">
                <g id="Grupo_55777" data-name="Grupo 55777">
                  <path id="Trazado_105529" data-name="Trazado 105529" d="M130,138.513s2.587-1.337,2.093,1.13-1.727,5.552-3.331,4.565S130,138.513,130,138.513Z" fill="#ffc5a1"/>
                  <path id="Trazado_105530" data-name="Trazado 105530" d="M103.354,138.513s-2.586-1.337-2.093,1.13,1.728,5.552,3.331,4.565S103.354,138.513,103.354,138.513Z" fill="#ffc5a1"/>
                  <g id="Grupo_55776" data-name="Grupo 55776">
                    <path id="Trazado_105531" data-name="Trazado 105531" d="M130,138.513c0,12.454-2.236,18.93-13.324,18.93-12.021,0-13.323-7.472-13.323-18.93,0-8.116,5.965-14.7,13.323-14.7S130,130.4,130,138.513Z" fill="#ffc5a1"/>
                    <g id="Grupo_55774" data-name="Grupo 55774">
                      <path id="Trazado_105532" data-name="Trazado 105532" d="M129.96,138.515c0,5.12-.38,9.24-1.6,12.3-.08.2-.16.38-.24.57-.08.17-.16.33-.25.5-.11.2-.22.41-.33.61a1.19,1.19,0,0,1-.09.15c-1.94,3.18-5.27,4.8-10.82,4.8-12.02,0-13.32-7.47-13.32-18.93a15.544,15.544,0,0,1,.3-3.08c1.28-6.64,6.62-11.62,13.02-11.62C123.99,123.815,129.96,130.4,129.96,138.515Z" fill="#ffc5a1"/>
                      <path id="Trazado_105533" data-name="Trazado 105533" d="M122.765,134.566a2.943,2.943,0,0,0,.55,1.682,21.19,21.19,0,0,1-7.834-3.422,10.429,10.429,0,0,0,1.3,2.945,13.8,13.8,0,0,1-7.848-3.164,5.646,5.646,0,0,1-1.944,4.089,11.766,11.766,0,0,1-4.044,2.259,27.254,27.254,0,0,0,1.429-6.436,11.914,11.914,0,0,1,.818-4.216c1.221-2.458,4.214-3.429,6.939-3.758,3.2-.387,6.6-.187,9.39,1.426s4.657,4.454,6.231,7.28c.568,1.019,3.171,5.153.411,4.816a8.162,8.162,0,0,1-2.931-1.435C124.78,136.335,122.77,135.133,122.765,134.566Z" fill="#ffb58a"/>
                      <path id="Trazado_105534" data-name="Trazado 105534" d="M120.793,148.825c0,.982-1.684,1.778-3.762,1.778s-3.761-.8-3.761-1.778,1.684,0,3.761,0S120.793,147.843,120.793,148.825Z"/>
                    </g>
                    <g id="Grupo_55775" data-name="Grupo 55775">
                      <path id="Trazado_105535" data-name="Trazado 105535" d="M112.185,141.031c0,.732-.359,1.325-.8,1.325s-.8-.593-.8-1.325.359-1.324.8-1.324S112.185,140.3,112.185,141.031Z"/>
                      <path id="Trazado_105536" data-name="Trazado 105536" d="M123.413,141.031c0,.732-.359,1.325-.8,1.325s-.8-.593-.8-1.325.359-1.324.8-1.324S123.413,140.3,123.413,141.031Z"/>
                      <path id="Trazado_105537" data-name="Trazado 105537" d="M112.6,138.749c0,.455-.719.32-1.831.32s-2.2.135-2.2-.32.9-.825,2.014-.825S112.6,138.293,112.6,138.749Z"/>
                      <path id="Trazado_105538" data-name="Trazado 105538" d="M125.838,138.749c0,.455-.718.32-1.831.32s-2.2.135-2.2-.32.9-.825,2.015-.825S125.838,138.293,125.838,138.749Z"/>
                      <path id="Trazado_105539" data-name="Trazado 105539" d="M116.087,139.468s.859,3.4.02,5.007c-1.747,3.34,1.364,1.671,1.961,2.051" fill="none" stroke="#000" stroke-linecap="round" stroke-linejoin="round" stroke-width="0.42"/>
                    </g>
                  </g>
                </g>
              </g>
              <path id="Trazado_105540" data-name="Trazado 105540" d="M133.9,131.638a13.648,13.648,0,0,0-9.266-11.44,17.478,17.478,0,0,1,6.551-.8,23.98,23.98,0,0,0-14.575-2.609,44.567,44.567,0,0,1,6.378-3.767,40.643,40.643,0,0,0-11.978,3.526,13.18,13.18,0,0,0-4.036,2.67c-.569.6-1.9,2.416-1.795,3.548a25.172,25.172,0,0,0-2.037,2.165c-1.3,1.615-2.748,5.278.168,13.578,0,0,5.078-4.306,5.258-8.861,0,0,2.573,3.66,5.931,3.742,0,0-1.747-2.847-1.228-4.148,0,0,3.447,4.392,8,5.53l-1.139-4.067s5.577,8.45,9.824,7.8a23.224,23.224,0,0,0,1.193-5.809c1.138,1.123,2.227,2.4,2.261,3.29a25.3,25.3,0,0,0-.877-5.689A2.274,2.274,0,0,1,133.9,131.638Z"/>
            </g>
            <g id="Grupo_55784" data-name="Grupo 55784">
              <g id="Grupo_55780" data-name="Grupo 55780">
                <path id="Trazado_105541" data-name="Trazado 105541" d="M119.566,220.888a1.5,1.5,0,1,1-1.5-1.5A1.5,1.5,0,0,1,119.566,220.888Z" fill="#ffb58a"/>
              </g>
              <g id="Grupo_55783" data-name="Grupo 55783">
                <g id="Grupo_55781" data-name="Grupo 55781">
                  <path id="Trazado_105542" data-name="Trazado 105542" d="M97.608,195.307c-2.957,0-5.169-.844-6.589-2.518-2.809-3.309-1.457-8.59-1.4-8.814a.424.424,0,0,1,.819.216c-.014.051-1.3,5.084,1.226,8.053,1.489,1.752,4.027,2.469,7.548,2.136a.423.423,0,1,1,.08.842Q98.415,195.306,97.608,195.307Z" fill="#ffb58a"/>
                </g>
                <g id="Grupo_55782" data-name="Grupo 55782">
                  <path id="Trazado_105543" data-name="Trazado 105543" d="M136.434,195.307q-.806,0-1.686-.085a.423.423,0,0,1,.08-.842c3.52.332,6.059-.384,7.548-2.136,2.524-2.969,1.24-8,1.227-8.053a.423.423,0,0,1,.818-.216c.06.224,1.412,5.5-1.4,8.814C141.6,194.463,139.391,195.306,136.434,195.307Z" fill="#ffb58a"/>
                </g>
              </g>
            </g>
          </g>
        </g>
      </g>
      <g id="Grupo_55788" data-name="Grupo 55788">
        <path id="Trazado_105544" data-name="Trazado 105544" d="M86.943,228.3a1.181,1.181,0,0,0-.35,1.835c.878,1.136,2.168,3.057,2.549,2.531s.013-1.609-1.059-2.648A3.3,3.3,0,0,1,86.943,228.3Z" fill="#ffb58a"/>
        <path id="Trazado_105545" data-name="Trazado 105545" d="M86.965,226.765a1.3,1.3,0,0,0-.385,2.021c.967,1.251,2.387,3.365,2.807,2.787s.014-1.772-1.166-2.916A3.642,3.642,0,0,1,86.965,226.765Z" fill="#e8a57e"/>
        <path id="Trazado_105546" data-name="Trazado 105546" d="M86.947,224.713a1.455,1.455,0,0,0-.348,2.234c1.031,1.412,2.552,3.794,2.971,3.163s-.029-1.967-1.278-3.266A4.352,4.352,0,0,1,86.947,224.713Z" fill="#ffb58a"/>
        <path id="Trazado_105547" data-name="Trazado 105547" d="M87.314,222.448s-2.05.72-1.02,2.133,2.551,3.794,2.971,3.163-.229-1.8-1.278-3.266A2.612,2.612,0,0,1,87.314,222.448Z" fill="#e8a57e"/>
      </g>
    </g>
  </g>
</svg>
