<svg xmlns="http://www.w3.org/2000/svg" width="187" height="230.927" viewBox="0 0 187 230.927">
  <g id="Grupo_58893" data-name="Grupo 58893" transform="translate(-701 -1357.073)">
    <text id="Mesomorfos_" data-name="Mesomorfos " transform="translate(701 1557)" fill="#12263f" font-size="20" font-family="Roboto-Bold, Roboto" font-weight="700"><tspan x="36.103" y="21">Mesomorfos </tspan></text>
    <path id="Trazado_105640" data-name="Trazado 105640" d="M690.605,152.582H561.576l64.514,136.025Z" transform="translate(168.409 1233.06)" fill="#ffad54"/>
    <g id="Grupo_55839" data-name="Grupo 55839" transform="translate(749.586 1357.58)">
      <g id="Grupo_55838" data-name="Grupo 55838" transform="translate(0 -0.001)">
        <ellipse id="Elipse_4045" data-name="Elipse 4045" cx="42.31" cy="6.983" rx="42.31" ry="6.983" transform="translate(2.57 167.761)" fill="#8c757e" stroke="#8c757e" stroke-width="1" opacity="0.1"/>
        <g id="Grupo_55837" data-name="Grupo 55837">
          <g id="Grupo_55816" data-name="Grupo 55816" transform="translate(11.814 76.872)">
            <g id="Grupo_55809" data-name="Grupo 55809" transform="translate(0 4.468)">
              <g id="Grupo_55806" data-name="Grupo 55806" transform="translate(14.914)">
                <path id="Trazado_105588" data-name="Trazado 105588" d="M631.641,241.952s-.029.2-.093.587v.007c-.014.064-.021.136-.036.215a186.74,186.74,0,0,1-8.654,33c-.315.823-.644,1.646-.981,2.455q-.923,2.255-1.94,4.4l-6.385-2.641s-1.682-29.826,6.421-48.229l2.741,2.4,2.427,2.119,6.27,5.49.064.057Z" transform="translate(-613.409 -231.745)" fill="#8c757e" stroke="#8c757e" stroke-width="1"/>
                <path id="Trazado_105589" data-name="Trazado 105589" d="M634.875,244.491a186.736,186.736,0,0,1-8.654,33c-.315.823-.644,1.646-.981,2.455.165-.587.365-1.167.551-1.739a76.144,76.144,0,0,0,2.706-11.109,77.672,77.672,0,0,0,.673-20.206c-.157-1.618-1.89-8.317-.73-8.868.022-.007.043-.021.065-.029,2.126-.916,5.254,2.326,5.876,3.958a7.087,7.087,0,0,1,.394,1.532C634.825,243.811,634.854,244.147,634.875,244.491Z" transform="translate(-616.772 -233.475)" fill="#8c757e" stroke="#8c757e" stroke-width="1"/>
              </g>
              <g id="Grupo_55808" data-name="Grupo 55808" transform="translate(0 47.606)">
                <g id="Grupo_55807" data-name="Grupo 55807">
                  <path id="Trazado_105590" data-name="Trazado 105590" d="M614.5,310.2a25.575,25.575,0,0,1-.279,2.591c-.773,4.781-3.615,9.362-5.519,13.772-1.4,3.235-2.749,6.5-4.058,9.763a.071.071,0,0,1-.007.029c-.136.329-.265.651-.394.973.029.122.057.243.086.372a12.459,12.459,0,0,1,.236,1.517c.222,3.056-1.26,2.247-2.856,2.885s-4.767,2.133-4.767,2.133a6.833,6.833,0,0,1-1.188.394,3.171,3.171,0,0,1-.408.043.713.713,0,0,1-.544-.25,1.175,1.175,0,0,1-.973-.15l-.007-.007-.029-.029c-.286.057-.759-.394-.759-.394a.639.639,0,0,1-.172-.05l-.007-.007a1.884,1.884,0,0,1-.258-.129c-.072-.158.05-.472.372-.694.208-.136.859-.673,1.611-1.274.451-.358.931-.737,1.382-1.074.709-.537,1.825-1.41,2.727-2.119.737-.573,1.331-1.038,1.424-1.117a.022.022,0,0,1,.014-.007c.265-3.794.265-7.9.637-11.674.022-.236.05-.465.072-.7.265-2.577.594-5.146.916-7.716a45.456,45.456,0,0,1,3.185-10.808c.594-1.5,1.145-3.021,1.668-4.545q.633-1.825,1.231-3.672l5.29,2.792.057.021.644.351.193.1c.093.608.179,1.231.258,1.854A38.192,38.192,0,0,1,614.5,310.2Z" transform="translate(-592.573 -298.255)" fill="#8c757e" stroke="#8c757e" stroke-width="1"/>
                  <path id="Trazado_105591" data-name="Trazado 105591" d="M595.644,362.342s-.458-.744.606-1.042" transform="translate(-593.418 -316.174)" fill="#8c757e" stroke="#8c757e" stroke-linecap="round" stroke-linejoin="round" stroke-width="0.226"/>
                  <path id="Trazado_105592" data-name="Trazado 105592" d="M594.27,362.215s-.47-.6.321-.822" transform="translate(-593.016 -316.2)" fill="#8c757e" stroke="#8c757e" stroke-linecap="round" stroke-linejoin="round" stroke-width="0.168"/>
                  <path id="Trazado_105593" data-name="Trazado 105593" d="M593.385,361.79s-.47-.6.321-.822" transform="translate(-592.765 -316.079)" fill="#8c757e" stroke="#8c757e" stroke-linecap="round" stroke-linejoin="round" stroke-width="0.168"/>
                  <path id="Trazado_105594" data-name="Trazado 105594" d="M592.913,361.547s-.47-.6.321-.822" transform="translate(-592.63 -316.01)" fill="#8c757e" stroke="#8c757e" stroke-linecap="round" stroke-linejoin="round" stroke-width="0.168"/>
                </g>
                <path id="Trazado_105595" data-name="Trazado 105595" d="M613.342,299.122s1.174,5.509,5.069,1.087a8.582,8.582,0,0,1-3.435,7.509C611.038,310.436,613.342,299.122,613.342,299.122Z" transform="translate(-598.286 -298.501)" fill="#8c757e" stroke="#8c757e" stroke-width="1"/>
                <path id="Trazado_105596" data-name="Trazado 105596" d="M615.291,314.627a25.593,25.593,0,0,1-.279,2.591c-.773,4.781-3.615,9.362-5.519,13.772-1.4,3.235-2.749,6.5-4.058,9.763a.071.071,0,0,1-.007.029c-.136.329-.265.651-.394.973.029.122.057.243.086.372a10.249,10.249,0,0,0-1.933.444c-1.41.537-2.441,1.739-3.6,2.706a5.116,5.116,0,0,1-4.216.837c.451-.358.931-.737,1.381-1.074.709-.537,1.825-1.41,2.727-2.119.737-.573,1.331-1.038,1.424-1.117a.022.022,0,0,1,.014-.007c.265-3.794.265-7.9.637-11.674.021-.236.05-.465.072-.7a.848.848,0,0,1,.179-.093c1.245-.444,1.839,2.333,3.114,1.954a1.546,1.546,0,0,0,.78-.759,49.493,49.493,0,0,0,5.576-13.12,6.04,6.04,0,0,1,1.31-2.906A1.611,1.611,0,0,1,615.291,314.627Z" transform="translate(-593.368 -302.681)" fill="#8c757e" stroke="#8c757e" stroke-width="1"/>
              </g>
            </g>
            <g id="Grupo_55813" data-name="Grupo 55813" transform="translate(33.149 3.53)">
              <g id="Grupo_55810" data-name="Grupo 55810">
                <path id="Trazado_105597" data-name="Trazado 105597" d="M638.885,241.58s4.036,23.51,13.1,40.663l6.323-2.846s.487-30.33-8.266-48.963Z" transform="translate(-638.885 -230.435)" fill="#8c757e" stroke="#8c757e" stroke-width="1"/>
                <path id="Trazado_105598" data-name="Trazado 105598" d="M639.168,244.617a186.713,186.713,0,0,0,9.519,32.758c.336.815.687,1.628,1.044,2.429-.18-.583-.4-1.157-.6-1.724a76.052,76.052,0,0,1-3-11.034,77.679,77.679,0,0,1-1.2-20.182c.115-1.621,1.67-8.364.5-8.884-.022-.007-.044-.021-.065-.027-2.149-.86-5.191,2.464-5.771,4.111a7.092,7.092,0,0,0-.354,1.542C639.2,243.936,639.18,244.273,639.168,244.617Z" transform="translate(-638.965 -232.532)" fill="#8c757e" stroke="#8c757e" stroke-width="1"/>
              </g>
              <g id="Grupo_55812" data-name="Grupo 55812" transform="translate(12.557 48.544)">
                <g id="Grupo_55811" data-name="Grupo 55811">
                  <path id="Trazado_105599" data-name="Trazado 105599" d="M678.4,343.657a1.469,1.469,0,0,1-.437.186s-.472.451-.759.394c0,0-.25.315-1,.186a.737.737,0,0,1-.551.25,3.173,3.173,0,0,1-.408-.043,7.053,7.053,0,0,1-1.188-.394s-3.178-1.5-4.767-2.133-3.078.172-2.856-2.885a13.618,13.618,0,0,1,.243-1.5c.021-.129.05-.258.079-.386-.122-.322-.258-.644-.394-.973a.071.071,0,0,1-.007-.029c-1.31-3.264-2.656-6.528-4.051-9.763-1.911-4.409-4.753-8.99-5.519-13.772a25.069,25.069,0,0,1-.293-2.663,38.751,38.751,0,0,1,.229-6.757c.079-.623.165-1.245.258-1.854l.193-.1.651-.351.05-.021,5.29-2.792c.408,1.231-.021.014.408,1.231.522,1.525,1.8,4.058,2.4,5.562,2.412,6.12,3.436,13.034,4.037,19.9.236,2.641.408,5.275.573,7.852.1,1.546.193,3.078.3,4.574,0,0,2.82,2.226,4.159,3.242,1.2.9,2.67,2.126,2.992,2.348S678.469,343.5,678.4,343.657Z" transform="translate(-656.428 -298.255)" fill="#8c757e" stroke="#8c757e" stroke-width="1"/>
                  <path id="Trazado_105600" data-name="Trazado 105600" d="M683.8,362.342s.458-.744-.606-1.042" transform="translate(-664.037 -316.174)" fill="#8c757e" stroke="#8c757e" stroke-linecap="round" stroke-linejoin="round" stroke-width="0.226"/>
                  <path id="Trazado_105601" data-name="Trazado 105601" d="M685.274,362.215s.47-.6-.321-.822" transform="translate(-664.536 -316.2)" fill="#8c757e" stroke="#8c757e" stroke-linecap="round" stroke-linejoin="round" stroke-width="0.168"/>
                  <path id="Trazado_105602" data-name="Trazado 105602" d="M686.159,361.79s.47-.6-.321-.822" transform="translate(-664.787 -316.079)" fill="#8c757e" stroke="#8c757e" stroke-linecap="round" stroke-linejoin="round" stroke-width="0.168"/>
                  <path id="Trazado_105603" data-name="Trazado 105603" d="M686.631,361.547s.47-.6-.321-.822" transform="translate(-664.921 -316.01)" fill="#8c757e" stroke="#8c757e" stroke-linecap="round" stroke-linejoin="round" stroke-width="0.168"/>
                </g>
                <path id="Trazado_105604" data-name="Trazado 105604" d="M662.954,299.122s-1.174,5.509-5.068,1.087c0,0-.278,3.624,3.66,6.342S662.954,299.122,662.954,299.122Z" transform="translate(-656.841 -298.501)" fill="#8c757e" stroke="#8c757e" stroke-width="1"/>
                <path id="Trazado_105605" data-name="Trazado 105605" d="M676.374,346.113a5.116,5.116,0,0,1-4.216-.837c-1.16-.966-2.19-2.169-3.6-2.706a9.511,9.511,0,0,0-1.861-.429c.021-.129.05-.258.079-.386-.122-.322-.258-.644-.394-.974a.071.071,0,0,1-.007-.029c-1.31-3.264-2.656-6.528-4.051-9.763-1.911-4.409-4.753-8.99-5.519-13.771a25.042,25.042,0,0,1-.293-2.663,1.6,1.6,0,0,1,2.648-.057,6.038,6.038,0,0,1,1.31,2.906,49.488,49.488,0,0,0,5.576,13.12,1.545,1.545,0,0,0,.78.759c1.274.379,1.868-2.4,3.114-1.954a.239.239,0,0,1,.086.043.583.583,0,0,1,.093.05c.021.236.05.465.072.7.229,2.29.315,4.71.408,7.1.064,1.546.122,3.085.229,4.574a.023.023,0,0,1,.015.007c.093.079.687.544,1.424,1.117.9.709,2.018,1.582,2.727,2.119C675.443,345.376,675.923,345.755,676.374,346.113Z" transform="translate(-656.452 -302.68)" fill="#8c757e" stroke="#8c757e" stroke-width="1"/>
              </g>
            </g>
            <g id="Grupo_55815" data-name="Grupo 55815" transform="translate(19.51)">
              <path id="Trazado_105606" data-name="Trazado 105606" d="M624.1,225.538l-1.518,4.429,7.914,8.864c1.823,2.041,5.693,1.774,7.4-.366l7.516-9.432-1.021-3.53A65.623,65.623,0,0,1,624.1,225.538Z" transform="translate(-620.613 -225.503)" fill="#8c757e" stroke="#8c757e" stroke-width="1"/>
              <g id="Grupo_55814" data-name="Grupo 55814" transform="translate(0 3.53)">
                <path id="Trazado_105607" data-name="Trazado 105607" d="M642.99,240.345l10.334-3.778s-.809-2.521-1.2-3.385c-.473-1.045-1.238-2.747-1.238-2.747l-9.037,5.294Z" transform="translate(-626.09 -230.435)" fill="#8c757e" stroke="#8c757e" stroke-width="1"/>
                <path id="Trazado_105608" data-name="Trazado 105608" d="M630.019,240.345l-10.188-3.724s.683-2.125,1.123-3.2c.3-.742,1.168-2.988,1.168-2.988l9.037,5.294Z" transform="translate(-619.831 -230.435)" fill="#8c757e" stroke="#8c757e" stroke-width="1"/>
              </g>
            </g>
          </g>
          <g id="Grupo_55836" data-name="Grupo 55836">
            <g id="Grupo_55830" data-name="Grupo 55830" transform="translate(0 22.689)">
              <g id="Grupo_55828" data-name="Grupo 55828">
                <g id="Grupo_55821" data-name="Grupo 55821" transform="translate(15.484)">
                  <g id="Grupo_55819" data-name="Grupo 55819">
                    <g id="Grupo_55818" data-name="Grupo 55818">
                      <g id="Grupo_55817" data-name="Grupo 55817">
                        <path id="Trazado_105609" data-name="Trazado 105609" d="M658.979,191.449c0,3.743-5.053-3.064-5.053-3.064l-8.489-10.121H613.87l-2.133,1.689v.007l-10.6,8.425s-3.436,1.2-3.436-1.84a8.635,8.635,0,0,1,.573-2.4.1.1,0,0,0,.014-.043A104.472,104.472,0,0,1,603,173.633a.022.022,0,0,0,.007-.014c1.238-2.469,2.391-4.66,3.049-5.912.372-.694.594-1.1.594-1.1a10.022,10.022,0,0,1,1.174-1.875c2.018-2.613,5-3.894,7.68-4.774.079-.029.157-.05.236-.079,1.654-.522,3.171-.909,4.266-1.36,1.339-.544,2-2.083,2.326-3.722.086-.444.143-.888.186-1.324a20.765,20.765,0,0,0,.007-3.665l.53.129,4.116,1.031h4.116a12.651,12.651,0,0,0-.129,2.426,9.958,9.958,0,0,0,.2,1.675c.329,1.582,1.145,3.092,2.978,3.45a25.39,25.39,0,0,1,4,1.2c3.8,1.467,8.482,4.187,10.536,8.439C648.879,168.15,658.979,187.705,658.979,191.449Z" transform="translate(-597.701 -149.805)" fill="#8c757e" stroke="#8c757e" stroke-width="1"/>
                        <path id="Trazado_105610" data-name="Trazado 105610" d="M652.759,186.078a.549.549,0,1,1,0-.777A.55.55,0,0,1,652.759,186.078Z" transform="translate(-613.083 -159.848)" fill="#8c757e" stroke="#8c757e" stroke-width="1"/>
                        <path id="Trazado_105611" data-name="Trazado 105611" d="M626.2,186.078a.549.549,0,1,1,0-.777A.55.55,0,0,1,626.2,186.078Z" transform="translate(-605.536 -159.848)" fill="#8c757e" stroke="#8c757e" stroke-width="1"/>
                        <path id="Trazado_105612" data-name="Trazado 105612" d="M641.147,155.066a6.461,6.461,0,0,1-4.373,2.061,6.81,6.81,0,0,1-4.653-2.333c.086-.444.143-.888.186-1.324a20.741,20.741,0,0,0,.007-3.665l.53.129,4.116,1.031h4.116a12.663,12.663,0,0,0-.129,2.426A9.984,9.984,0,0,0,641.147,155.066Z" transform="translate(-607.484 -149.805)" fill="#8c757e" stroke="#8c757e" stroke-width="1"/>
                        <path id="Trazado_105613" data-name="Trazado 105613" d="M642.3,214.252c.05.344.115.694.186,1.038a48.174,48.174,0,0,1-15.94.823,36.008,36.008,0,0,1-4.352-.787c1.346-6.363-.394-13.034-2.376-17.987a51.836,51.836,0,0,0-2.913-6.077v-.007c-.609-1.081-1.016-1.689-1.016-1.689H648.81S640.414,202.256,642.3,214.252Z" transform="translate(-602.871 -161.106)" fill="#8c757e" stroke="#8c757e" stroke-width="1"/>
                      </g>
                    </g>
                    <path id="Trazado_105614" data-name="Trazado 105614" d="M644.047,218.376a45.53,45.53,0,0,1-20.289.035c1.341-6.36-.4-13.029-2.382-17.984,1.15,1.406,2.242,6.227,2.521,6.947a17.6,17.6,0,0,0,8.916,9.672,14.3,14.3,0,0,0,11.048.29C643.914,217.684,643.977,218.033,644.047,218.376Z" transform="translate(-604.43 -164.193)" fill="#8c757e" stroke="#8c757e" stroke-width="1"/>
                  </g>
                  <g id="Grupo_55820" data-name="Grupo 55820" transform="translate(14.2 30.056)">
                    <path id="Trazado_105615" data-name="Trazado 105615" d="M630.671,191.8s-9.853,3.212-13.131,0c0,0,1.5,3.868,2.447,4.562S630.671,191.8,630.671,191.8Z" transform="translate(-617.54 -191.796)" fill="#8c757e" stroke="#8c757e" stroke-width="1"/>
                    <path id="Trazado_105616" data-name="Trazado 105616" d="M641.851,191.8s9.853,3.212,13.131,0c0,0-1.5,3.868-2.447,4.562S641.851,191.8,641.851,191.8Z" transform="translate(-624.45 -191.796)" fill="#8c757e" stroke="#8c757e" stroke-width="1"/>
                  </g>
                </g>
                <g id="Grupo_55824" data-name="Grupo 55824" transform="translate(0 14.803)">
                  <g id="Grupo_55822" data-name="Grupo 55822" transform="translate(1.448)">
                    <path id="Trazado_105617" data-name="Trazado 105617" d="M606.164,185.831v.007a.09.09,0,0,0-.014.021c-.036.05-.136.2-.3.437s-.372.558-.644.952c-.945,1.41-2.527,3.786-4.424,6.714-1.482,2.276-3.149,4.882-4.867,7.637-.243.394-.494.8-.744,1.2-.136.222-.272.437-.4.659-.544.873-1.081,1.746-1.611,2.634l-.086.136c-.329.551-.666,1.1-.988,1.661-3.7,6.22-7.093,12.44-8.625,16.649h-5.368s3.436-8.382,7.738-18.539c1.439-3.4,2.971-6.993,4.5-10.536.63-1.467,1.267-2.92,1.89-4.352.158-.365.322-.73.48-1.088a.1.1,0,0,0,.014-.043c.437-.981.859-1.947,1.281-2.892.888-2,1.747-3.9,2.548-5.662.029-.057.057-.115.086-.179a.142.142,0,0,1,.029-.057c.064-.136.122-.279.186-.415.114-.251.243-.523.386-.83.072-.15.136-.293.2-.437a.022.022,0,0,0,.007-.014c.7-1.5,1.353-2.863,1.947-4.044.4-.809.766-1.525,1.1-2.154a9.936,9.936,0,0,1,1.754-2.684c.007,0,.007-.007.014-.007,1.467-.916,2.484,3.514,3.107,7.831.272,1.861.472,3.693.6,5.075.021.222.043.429.057.63C606.114,185.116,606.157,185.753,606.164,185.831Z" transform="translate(-578.091 -170.485)" fill="#8c757e" stroke="#8c757e" stroke-width="1"/>
                    <path id="Trazado_105618" data-name="Trazado 105618" d="M612.188,191.2c-.157.236-.372.558-.644.952-.945,1.41-2.527,3.786-4.424,6.714-1.482,2.275-3.149,4.882-4.867,7.637-.243.394-.494.8-.745,1.2-.136.223-.272.437-.4.659a1.728,1.728,0,0,1-.687-.222c-2.026-1.174-1.267-6.285,1.7-11.424s7.007-8.353,9.04-7.179A2.331,2.331,0,0,1,612.188,191.2Z" transform="translate(-584.115 -175.833)" fill="#8c757e" stroke="#8c757e" stroke-width="1"/>
                  </g>
                  <g id="Grupo_55823" data-name="Grupo 55823" transform="translate(0 53.842)">
                    <path id="Trazado_105619" data-name="Trazado 105619" d="M582.884,245.92s-4.495-.48-5.368,0c-.852.465-1.381,5.018-1.439,6.857a.76.76,0,0,0-.007.129c-.05,1.739.823.866,1.446,1.739a10.106,10.106,0,0,1,1.553,2.763,1,1,0,0,0,1.238.8.6.6,0,0,0,.122-.036c.064-.029.1-.115.129-.251a29.536,29.536,0,0,0-.322-4.159c.043-.179,1.167-2.949,1.374-3.45l.014-.043c-.021.122-.115.594-.279,1.854-.193,1.5.823,1.754.823,1.754l1.217-3.786Zm-1.253,4.338v-.014l.007-.007Z" transform="translate(-576.068 -245.707)" fill="#8c757e" stroke="#8c757e" stroke-width="1"/>
                    <path id="Trazado_105620" data-name="Trazado 105620" d="M581.639,252.035l-.007.021-.007.014-.014.043c-.208.5-1.331,3.271-1.374,3.45a29.536,29.536,0,0,1,.322,4.159l-.25.286a1,1,0,0,1-1.238-.8,10.107,10.107,0,0,0-1.553-2.763c-.623-.873-1.5,0-1.446-1.739a.76.76,0,0,1,.007-.129c.573-.014,1.46.351,2.247.451,1.331.165,3.2-2.806,3.307-2.985Z" transform="translate(-576.068 -247.506)" fill="#8c757e" stroke="#8c757e" stroke-width="1"/>
                  </g>
                </g>
                <g id="Grupo_55827" data-name="Grupo 55827" transform="translate(60.349 16.413)">
                  <g id="Grupo_55825" data-name="Grupo 55825">
                    <path id="Trazado_105621" data-name="Trazado 105621" d="M660.381,186.479s18.46,27.051,22.7,38.7h5.366s-20.083-50.528-22.835-52.3S660.381,186.479,660.381,186.479Z" transform="translate(-660.381 -172.736)" fill="#8c757e" stroke="#8c757e" stroke-width="1"/>
                    <path id="Trazado_105622" data-name="Trazado 105622" d="M660.381,191.2c.157.236.372.558.644.952.945,1.41,2.527,3.786,4.424,6.714,1.482,2.275,3.15,4.882,4.867,7.637.243.394.494.8.745,1.2.136.223.272.437.4.659a1.727,1.727,0,0,0,.687-.222c2.026-1.174,1.267-6.285-1.7-11.424s-7.007-8.353-9.04-7.179A2.331,2.331,0,0,0,660.381,191.2Z" transform="translate(-660.381 -177.444)" fill="#8c757e" stroke="#8c757e" stroke-width="1"/>
                  </g>
                  <path id="Trazado_105623" data-name="Trazado 105623" d="M694.052,254.064q.011.129.021.236c-.243-.659-.472-1.4-.265-1.739.007-.014.014-.021.021-.036C693.88,252.8,693.952,253.284,694.052,254.064Z" transform="translate(-669.859 -195.414)" fill="#8c757e" stroke="#8c757e" stroke-width="1"/>
                  <g id="Grupo_55826" data-name="Grupo 55826" transform="translate(22.161 52.231)">
                    <path id="Trazado_105624" data-name="Trazado 105624" d="M698.656,252.906c.05,1.739-.823.866-1.453,1.739a10.266,10.266,0,0,0-1.546,2.763,1,1,0,0,1-1.36.766c-.487-.208.243-4.209.193-4.409-.043-.165-.959-2.434-1.288-3.242l-.114-.286s.021.093.064.351c.05.279.122.759.222,1.539q.011.129.021.236c.072,1.3-.845,1.517-.845,1.517l-1.21-3.786.5-4.173s4.488-.48,5.361,0c.737.4,1.224,3.844,1.4,5.962C698.628,252.276,698.649,252.627,698.656,252.906Z" transform="translate(-691.341 -245.707)" fill="#8c757e" stroke="#8c757e" stroke-width="1"/>
                    <path id="Trazado_105625" data-name="Trazado 105625" d="M699.4,254.749c.05,1.739-.823.866-1.453,1.739a10.267,10.267,0,0,0-1.546,2.763,1,1,0,0,1-1.36.766c-.487-.208.243-4.209.193-4.409-.043-.165-.959-2.434-1.288-3.242.458-.587.9.465,1.124.8a2.6,2.6,0,0,0,2.248.78,12.012,12.012,0,0,0,2.026-.222C699.367,254.119,699.388,254.47,699.4,254.749Z" transform="translate(-692.08 -247.55)" fill="#8c757e" stroke="#8c757e" stroke-width="1"/>
                  </g>
                </g>
              </g>
              <g id="Grupo_55829" data-name="Grupo 55829" transform="translate(35.216 12.338)">
                <path id="Trazado_105626" data-name="Trazado 105626" d="M642.507,169.13a38.785,38.785,0,0,1,6.5-2.088" transform="translate(-630.167 -167.042)" fill="#8c757e" stroke="#8c757e" stroke-linecap="round" stroke-linejoin="round" stroke-width="1"/>
                <path id="Trazado_105627" data-name="Trazado 105627" d="M631.765,169.13a38.78,38.78,0,0,0-6.5-2.088" transform="translate(-625.267 -167.042)" fill="#8c757e" stroke="#8c757e" stroke-linecap="round" stroke-linejoin="round" stroke-width="1"/>
              </g>
            </g>
            <g id="Grupo_55835" data-name="Grupo 55835" transform="translate(30.57)">
              <g id="Grupo_55834" data-name="Grupo 55834" transform="translate(4.305 5.192)">
                <g id="Grupo_55833" data-name="Grupo 55833">
                  <g id="Grupo_55831" data-name="Grupo 55831">
                    <path id="Trazado_105628" data-name="Trazado 105628" d="M643.592,134.528c0,7.966-4.559,12.936-8.357,12.936-3.9,0-8.521-5.376-8.521-12.7,0-8.585,3.815-9.4,8.521-9.4S643.592,125.779,643.592,134.528Z" transform="translate(-625.337 -125.36)" fill="#8c757e" stroke="#8c757e" stroke-width="1"/>
                    <path id="Trazado_105629" data-name="Trazado 105629" d="M639.919,148.418a4.263,4.263,0,0,1-3.741,0" transform="translate(-628.027 -131.914)" fill="#8c757e" stroke="#8c757e" stroke-linecap="round" stroke-linejoin="round" stroke-width="0.434"/>
                    <path id="Trazado_105630" data-name="Trazado 105630" d="M649.878,138.445s1.851-.893,1.535.684-1.1,3.551-2.13,2.92S649.878,138.445,649.878,138.445Z" transform="translate(-631.655 -129.007)" fill="#8c757e" stroke="#8c757e" stroke-width="1"/>
                    <path id="Trazado_105631" data-name="Trazado 105631" d="M626.17,138.4s-1.655-.855-1.339.723,1.105,3.551,2.131,2.92S626.17,138.4,626.17,138.4Z" transform="translate(-624.791 -129)" fill="#8c757e" stroke="#8c757e" stroke-width="1"/>
                  </g>
                  <g id="Grupo_55832" data-name="Grupo 55832" transform="translate(4.826 8.42)">
                    <path id="Trazado_105632" data-name="Trazado 105632" d="M634.2,140.405c0,.467-.23.847-.513.847s-.513-.379-.513-.847.23-.847.513-.847S634.2,139.937,634.2,140.405Z" transform="translate(-632 -137.815)" fill="#8c757e" stroke="#8c757e" stroke-width="1"/>
                    <path id="Trazado_105633" data-name="Trazado 105633" d="M644.234,140.405c0,.467-.23.847-.513.847s-.513-.379-.513-.847.23-.847.513-.847S644.234,139.937,644.234,140.405Z" transform="translate(-634.851 -137.815)" fill="#8c757e" stroke="#8c757e" stroke-width="1"/>
                    <path id="Trazado_105634" data-name="Trazado 105634" d="M634.91,137.814c0,.382-.6.268-1.535.268s-1.843.113-1.843-.268.756-.691,1.689-.691S634.91,137.432,634.91,137.814Z" transform="translate(-631.533 -137.123)" fill="#8c757e" stroke="#8c757e" stroke-width="1"/>
                    <path id="Trazado_105635" data-name="Trazado 105635" d="M644.943,137.814c0,.382-.6.268-1.535.268s-1.842.113-1.842-.268.756-.691,1.689-.691S644.943,137.432,644.943,137.814Z" transform="translate(-634.385 -137.123)" fill="#8c757e" stroke="#8c757e" stroke-width="1"/>
                    <path id="Trazado_105636" data-name="Trazado 105636" d="M637.966,139.345s.55,2.177.013,3.2c-1.117,2.136.873,1.069,1.254,1.311" transform="translate(-633.269 -137.755)" fill="#8c757e" stroke="#8c757e" stroke-linecap="round" stroke-linejoin="round" stroke-width="0.376"/>
                  </g>
                </g>
              </g>
              <path id="Trazado_105637" data-name="Trazado 105637" d="M641.622,128.283s-5.618-1.692-8.452-.182c0,0-4.386-1.464-7.821.209a6.611,6.611,0,0,1-.537-1.01,3.3,3.3,0,0,1-.236-2.452s-3.263,1.284-3.779,3.474a6.182,6.182,0,0,1,3.263-5.286s-3.521.151-4.98,1.661,2.212-7.623,13.912-6.494C643.394,119.207,641.622,128.283,641.622,128.283Z" transform="translate(-618.777 -118.107)" fill="#8c757e" stroke="#8c757e" stroke-width="1"/>
              <path id="Trazado_105638" data-name="Trazado 105638" d="M627.638,130.162l-.394,6.442-.674-.25s-1.185-7.867.078-9.494Z" transform="translate(-620.848 -120.595)" fill="#8c757e" stroke="#8c757e" stroke-width="1"/>
              <path id="Trazado_105639" data-name="Trazado 105639" d="M648.546,130.162l.394,6.442.675-.25s1.185-7.867-.079-9.494Z" transform="translate(-627.238 -120.595)" fill="#8c757e" stroke="#8c757e" stroke-width="1"/>
            </g>
          </g>
        </g>
      </g>
    </g>
    <circle id="Elipse_4048" data-name="Elipse 4048" cx="3.5" cy="3.5" r="3.5" transform="translate(723 1568)" fill="#ff9696"/>
  </g>
</svg>
