<svg xmlns="http://www.w3.org/2000/svg" xmlns:xlink="http://www.w3.org/1999/xlink" width="343" height="275.623" viewBox="0 0 343 275.623">
  <defs>
    <linearGradient id="linear-gradient" x1="0.025" y1="0.629" x2="1.009" y2="0.362" gradientUnits="objectBoundingBox">
      <stop offset="0" stop-color="#bae4f4"/>
      <stop offset="0.407" stop-color="#c0ecd3"/>
      <stop offset="0.766" stop-color="#c5f1be"/>
      <stop offset="1" stop-color="#c7f4b7"/>
    </linearGradient>
    <linearGradient id="linear-gradient-3" x1="0.025" y1="0.629" x2="1.009" y2="0.362" xlink:href="#linear-gradient"/>
  </defs>
  <g id="Grupo_55882" data-name="Grupo 55882" transform="translate(-1983.216 -745.363)">
    <path id="Trazado_105641" data-name="Trazado 105641" d="M2433.718,1071.409l-11.352-25.776a38.824,38.824,0,0,1-13.7,1.877c-5.658-.253-12.925-.6-17.216-6.009-3.411-4.3-3.2-9.781-2.853-12.529l8.921-3.936,7.352,3.681c2.2.493,5.259,1.2,8.908,2.083,11.828,2.875,14.883,4.053,17.161,6.755,1.708,2.027,2.288,4.093,2.957,6.843a188.322,188.322,0,0,1,4.292,25.731Z" transform="translate(-347.435 -239.801)" fill="#604431"/>
    <g id="Grupo_55885" data-name="Grupo 55885">
      <g id="Grupo_55847" data-name="Grupo 55847" transform="translate(1983.216 925.057)">
        <path id="Trazado_105642" data-name="Trazado 105642" d="M2294.423,2100.459H1983.6a.383.383,0,0,1,0-.766h310.412c4.063-6.186,22.062-36.357,9.806-68.064a65.8,65.8,0,0,0-17.517-25.143.383.383,0,0,1,.514-.568,66.552,66.552,0,0,1,17.717,25.435c12.509,32.364-6.131,63.1-9.995,68.935Z" transform="translate(-1983.216 -2005.819)" fill="#8f8b66"/>
      </g>
      <path id="Trazado_105643" data-name="Trazado 105643" d="M4156.175,2515.112a11.063,11.063,0,0,0-2.066-5.784,11.65,11.65,0,0,0-7.988-4.483,12.394,12.394,0,0,0,2.071,5.155A13.123,13.123,0,0,0,4156.175,2515.112Z" transform="translate(-1854.558 -1508.646)" fill="#8f8b66"/>
      <path id="Trazado_105644" data-name="Trazado 105644" d="M4213.4,2551.976a9.888,9.888,0,0,0,7.352.989,10.051,10.051,0,0,0,6.31-5.435,19.025,19.025,0,0,0-3.916.141A20.165,20.165,0,0,0,4213.4,2551.976Z" transform="translate(-1912.244 -1545.21)" fill="#8f8b66"/>
      <path id="Trazado_105645" data-name="Trazado 105645" d="M4207.76,2399.081a14.1,14.1,0,0,0-.593-5.356,14.754,14.754,0,0,0-5.682-7.574,10.629,10.629,0,0,0-.042,6.106A11.323,11.323,0,0,0,4207.76,2399.081Z" transform="translate(-1901.624 -1406.874)" fill="#8f8b66"/>
      <path id="Trazado_105646" data-name="Trazado 105646" d="M4252.415,2410.569a14.078,14.078,0,0,0,4.552-2.881,14.757,14.757,0,0,0,4.312-8.43,19.041,19.041,0,0,0-3.173,2.3A20.186,20.186,0,0,0,4252.415,2410.569Z" transform="translate(-1945.698 -1418.111)" fill="#8f8b66"/>
      <path id="Trazado_105647" data-name="Trazado 105647" d="M4194.4,2299.333a14.083,14.083,0,0,0-2.76-4.627,14.742,14.742,0,0,0-8.311-4.533,19.016,19.016,0,0,0,2.217,3.234A20.168,20.168,0,0,0,4194.4,2299.333Z" transform="translate(-1886.46 -1324.578)" fill="#8f8b66"/>
      <path id="Trazado_105648" data-name="Trazado 105648" d="M4264.06,2289.142a14.078,14.078,0,0,0,4.609-2.789,14.758,14.758,0,0,0,4.482-8.341,19.022,19.022,0,0,0-3.219,2.237A20.19,20.19,0,0,0,4264.06,2289.142Z" transform="translate(-1955.683 -1314.151)" fill="#8f8b66"/>
      <path id="Trazado_105649" data-name="Trazado 105649" d="M4253.387,2162.4a14.087,14.087,0,0,0,3.705-3.911,14.762,14.762,0,0,0,2.112-9.231,19,19,0,0,0-2.511,3.01A20.188,20.188,0,0,0,4253.387,2162.4Z" transform="translate(-1946.531 -1203.754)" fill="#8f8b66"/>
      <path id="Trazado_105650" data-name="Trazado 105650" d="M4179.6,2196.1a14.093,14.093,0,0,0-3.317-4.245,14.743,14.743,0,0,0-8.813-3.455,19.035,19.035,0,0,0,2.6,2.93A20.164,20.164,0,0,0,4179.6,2196.1Z" transform="translate(-1872.866 -1237.312)" fill="#8f8b66"/>
      <path id="Trazado_105651" data-name="Trazado 105651" d="M4209.65,2068.375a11.526,11.526,0,0,0,1.823-4.019,12.08,12.08,0,0,0-.833-7.709,15.571,15.571,0,0,0-1.139,3A16.533,16.533,0,0,0,4209.65,2068.375Z" transform="translate(-1908.457 -1124.345)" fill="#8f8b66"/>
      <path id="Trazado_105652" data-name="Trazado 105652" d="M4155.771,2102.143a10.637,10.637,0,0,0-2.59-3.143,10.9,10.9,0,0,0-6.695-2.386,14.288,14.288,0,0,0,2.023,2.16A14.935,14.935,0,0,0,4155.771,2102.143Z" transform="translate(-1854.87 -1158.614)" fill="#8f8b66"/>
    </g>
    <g id="Grupo_55849" data-name="Grupo 55849" transform="translate(2159.024 801.296)">
      <path id="Trazado_105653" data-name="Trazado 105653" d="M3284.321,1188.045a11.544,11.544,0,0,1-2.386,3.711,12.073,12.073,0,0,1-6.926,3.482,15.576,15.576,0,0,1,1.9-2.586A16.519,16.519,0,0,1,3284.321,1188.045Z" transform="translate(-3266.657 -1180.869)" fill="#8f8b66"/>
      <path id="Trazado_105654" data-name="Trazado 105654" d="M3278.047,1159.321a10.621,10.621,0,0,1-4.043-.473,10.906,10.906,0,0,1-5.635-4.333,14.306,14.306,0,0,1,2.912.529A14.941,14.941,0,0,1,3278.047,1159.321Z" transform="translate(-3260.963 -1152.119)" fill="#8f8b66"/>
      <g id="Grupo_55848" data-name="Grupo 55848" transform="translate(0 7.049)">
        <path id="Trazado_105655" data-name="Trazado 105655" d="M3316.472,1272.945a.383.383,0,0,1-.739-.149c.542-32.294-15.279-61.258-41.29-75.588-23.775-13.1-48.165-9.209-57.548-6.929a.383.383,0,0,1-.181-.745c9.47-2.3,34.088-6.225,58.1,7a78.538,78.538,0,0,1,30.917,31.471,90.589,90.589,0,0,1,10.77,44.8A.385.385,0,0,1,3316.472,1272.945Z" transform="translate(-3216.421 -1187.153)" fill="#8f8b66"/>
      </g>
      <path id="Trazado_105656" data-name="Trazado 105656" d="M3738.705,1263.367a11.062,11.062,0,0,1-.72-6.1,11.658,11.658,0,0,1,5.162-7.57,12.388,12.388,0,0,1,.436,5.539A13.131,13.131,0,0,1,3738.705,1263.367Z" transform="translate(-3663.498 -1233.732)" fill="#8f8b66"/>
      <path id="Trazado_105657" data-name="Trazado 105657" d="M3662.32,1343.043a9.893,9.893,0,0,1-6.146,4.156,10.046,10.046,0,0,1-8.067-2.061,19,19,0,0,1,3.57-1.616A20.163,20.163,0,0,1,3662.32,1343.043Z" transform="translate(-3586.565 -1313.344)" fill="#8f8b66"/>
      <path id="Trazado_105658" data-name="Trazado 105658" d="M3619.833,1211.266a14.084,14.084,0,0,1-4.478-2.995,14.759,14.759,0,0,1-4.1-8.536,10.612,10.612,0,0,1,5.436,2.777A11.329,11.329,0,0,1,3619.833,1211.266Z" transform="translate(-3554.967 -1190.893)" fill="#8f8b66"/>
      <path id="Trazado_105659" data-name="Trazado 105659" d="M3586.182,1283.047a14.083,14.083,0,0,1-4.654,2.714,14.74,14.74,0,0,1-9.465-.057,19.007,19.007,0,0,1,3.5-1.757A20.162,20.162,0,0,1,3586.182,1283.047Z" transform="translate(-3521.362 -1262.042)" fill="#8f8b66"/>
      <path id="Trazado_105660" data-name="Trazado 105660" d="M3503.2,1153.513a14.084,14.084,0,0,1-4.48-2.992,14.759,14.759,0,0,1-4.1-8.534,19.019,19.019,0,0,1,3.116,2.378A20.187,20.187,0,0,1,3503.2,1153.513Z" transform="translate(-3454.952 -1141.377)" fill="#8f8b66"/>
      <path id="Trazado_105661" data-name="Trazado 105661" d="M3486.73,1225.993a14.1,14.1,0,0,1-3.017,4.464,14.746,14.746,0,0,1-8.553,4.056,19.024,19.024,0,0,1,2.4-3.1A20.169,20.169,0,0,1,3486.73,1225.993Z" transform="translate(-3438.274 -1213.406)" fill="#8f8b66"/>
      <path id="Trazado_105662" data-name="Trazado 105662" d="M3392.208,1194.03a14.1,14.1,0,0,1-2.027,4.993,14.747,14.747,0,0,1-7.528,5.741,19.048,19.048,0,0,1,1.7-3.532A20.175,20.175,0,0,1,3392.208,1194.03Z" transform="translate(-3358.954 -1186)" fill="#8f8b66"/>
      <path id="Trazado_105663" data-name="Trazado 105663" d="M3377.9,1145.571a14.079,14.079,0,0,1-5.235-1.267,14.752,14.752,0,0,1-6.789-6.6,19,19,0,0,1,3.743,1.161A20.174,20.174,0,0,1,3377.9,1145.571Z" transform="translate(-3344.565 -1137.705)" fill="#8f8b66"/>
    </g>
    <ellipse id="Elipse_4050" data-name="Elipse 4050" cx="4.754" cy="4.756" rx="4.754" ry="4.756" transform="translate(2104.903 920.334)" fill="url(#linear-gradient)"/>
    <path id="Trazado_105664" data-name="Trazado 105664" d="M2440.823,1314.292c-49.106-2.921-64.373-15.484-68.934-26.821-10.065-25.018,28.035-53.924,15.546-91.958-1.792-5.458-6.234-18.984-18.586-26.625-21.518-13.31-44.9,4.94-67.163-10.988-2.776-1.987-10.093-7.378-12.672-16.9-2-7.377-.9-16.306,3.379-22.4,11.741-16.706,50.271-16.106,68.852,1.268,8.493,7.941,6.588,13.562,18.163,26.2,10.866,11.867,22.451,17.731,29.244,21.092,45.962,22.74,97.006,5.913,125.613,32.952,20.9,19.75,28.354,57.01,14.553,83.529C2532.537,1314.93,2486.8,1330.994,2440.823,1314.292Z" transform="translate(-261.377 -309.603)" fill="#ede3b7"/>
    <g id="Grupo_55850" data-name="Grupo 55850" transform="translate(2115.531 780.374)">
      <path id="Trazado_105665" data-name="Trazado 105665" d="M3139.589,993.566c0,1.443-2.471,2.613-5.52,2.613s-5.52-1.17-5.52-2.613,2.471-2.613,5.52-2.613S3139.589,992.123,3139.589,993.566Z" transform="translate(-3097.583 -990.953)" fill="#312b30"/>
      <rect id="Rectángulo_6346" data-name="Rectángulo 6346" width="5.936" height="14.966" transform="translate(33.518 2.613)" fill="#312b30"/>
      <rect id="Rectángulo_6347" data-name="Rectángulo 6347" width="6.925" height="66.172" transform="translate(33.023 157.381)" fill="#aaa"/>
      <rect id="Rectángulo_6348" data-name="Rectángulo 6348" width="49.387" height="13.937" transform="translate(11.793 215.402)" fill="#312b30"/>
      <path id="Trazado_105666" data-name="Trazado 105666" d="M2984.312,1182.662c-5.175-1.6-9.485-3.206-12.748-4.514-7.973-3.193-10.215-4.81-11.664-7.364a13.468,13.468,0,0,1-1.607-6.81h-20.935a13.468,13.468,0,0,1-1.607,6.81c-1.448,2.554-3.691,4.171-11.664,7.364-3.263,1.307-7.573,2.913-12.748,4.514.689,3.722,1.779,9.349,3.29,16.154,6.9,31.08,10.937,34.308,9.719,45.927-1.026,9.795-4.394,12.253-6.514,18.511a36.708,36.708,0,0,0-1.71,9.916,100.533,100.533,0,0,0,1.794,26.052,107.213,107.213,0,0,0,29.383,3.88c.176,0,.349-.006.523-.009s.347.008.523.009a107.211,107.211,0,0,0,29.383-3.88,100.532,100.532,0,0,0,1.794-26.052,36.708,36.708,0,0,0-1.71-9.916c-2.12-6.258-5.488-8.716-6.515-18.511-1.217-11.62,2.821-14.847,9.72-45.927C2982.532,1192.011,2983.622,1186.383,2984.312,1182.662Z" transform="translate(-2911.339 -1139.308)" fill="#8c757e"/>
      <ellipse id="Elipse_4051" data-name="Elipse 4051" cx="11.05" cy="5.082" rx="11.05" ry="5.082" transform="translate(25.437 18.173)" fill="#312b30"/>
      <ellipse id="Elipse_4052" data-name="Elipse 4052" cx="5.226" cy="5.224" rx="5.226" ry="5.224" transform="translate(31.249 24.217) rotate(-89.848)" fill="#312b30"/>
    </g>
    <path id="Trazado_105667" data-name="Trazado 105667" d="M2584.083,1900.5c-.392,2.938-3.062,22.808-13.475,24.3-1.285.184-5.449.479-11.054-4.74a17.533,17.533,0,0,0,4.894-3.1,16.479,16.479,0,0,0,2.421-3.076c3.729-6.31-2.321-21.9,3.4-27.7,2.123-2.153,5.868-3.006,8.372-1.876,2.176.982,3.185,2.893,4.078,5.011A21.654,21.654,0,0,1,2584.083,1900.5Z" transform="translate(-494.174 -976.141)" fill="#ffad54"/>
    <path id="Trazado_105668" data-name="Trazado 105668" d="M2671.247,1993.871q-3.509,4.264-4.641,3.705-.669-.33-.508-2.344a2.938,2.938,0,0,0-2.356,1.059c-.794,1.146.1,2.649,3.314,9.7a18.962,18.962,0,0,0,1.591,3.141h0s.2.27.438.526c.175.191,4.3,3.97,6.638,4.665,3.548,1.052,9.788-2.971,13.6-10.6l-.319-2.938-11.272,5.533a45.372,45.372,0,0,1-1.637-6.943,9.842,9.842,0,0,0-.786-2.686c-.46-1.012-1.125-2.418-2.488-2.817A2.969,2.969,0,0,0,2671.247,1993.871Z" transform="translate(-583.276 -1070.427)" fill="#49472a"/>
    <path id="Trazado_105669" data-name="Trazado 105669" d="M2632.8,2155.586l16.124-6.76c1.232,11.986,2.256,20.794,3.013,26.981a32.492,32.492,0,0,1,.661,7.414,28.35,28.35,0,0,1-.268,2.868c-1.154,8.2-3.082,18.5-3.082,18.5-.543,2.9-1.28,7.142-1.978,12.389.554.287,1.139.572,1.753.851,1.05.476,2.06.875,3.016,1.211a2.523,2.523,0,0,1-1.473.947c-3.294,1.02-6.7-1.826-6.919-2.027-.061-1.494-.157-3.749-.292-6.495-.271-5.522-.45-7.985-.531-9.782a82.954,82.954,0,0,1,.744-14.991Z" transform="translate(-556.976 -1203.383)" fill="#f45b53"/>
    <path id="Trazado_105670" data-name="Trazado 105670" d="M2648.513,1995.578l2.867-1.125,5.887-.932,2.595.068a23.562,23.562,0,0,1,2.936,5.466,10.493,10.493,0,0,1,.956,4.509,15.836,15.836,0,0,1-.46,2.732,26.877,26.877,0,0,1-.849,2.938c.051.506.193,1.937.243,2.443.081.81.238,2.4.318,3.208a8.57,8.57,0,0,1-3.045,1.114,10.7,10.7,0,0,1-4.91-.589c-1.7-.468-3.676-1.043-5.884-1.739q.271-3.728.542-7.457a12.455,12.455,0,0,0-1.2-10.637Z" transform="translate(-570.451 -1070.219)" fill="#686842"/>
    <path id="Trazado_105671" data-name="Trazado 105671" d="M2714.322,2634.734c-2.06.644-6.924-2.009-6.924-2.009s-.5,2.062.26,2.813,10.221,1.719,10.932.538c.316-.525-1.113-1.439-2.8-2.292A2.522,2.522,0,0,1,2714.322,2634.734Z" transform="translate(-620.801 -1618.297)" fill="#191519"/>
    <path id="Trazado_105672" data-name="Trazado 105672" d="M2628.971,2152.269a16.674,16.674,0,0,1,9.352-2.835c-2.279,13.145-3.709,23.683-4.6,31.01-.693,5.668-1.373,11.926-2.763,21.477-.96,6.6-1.857,12-2.474,15.579q.831.431,1.753.851c1.05.475,2.06.875,3.016,1.21a2.52,2.52,0,0,1-1.473.947c-3.294,1.021-6.7-1.825-6.919-2.027-.061-1.494-.157-3.749-.292-6.495-.2-4.066-.384-7.282-.478-8.875-.026-.439-.046-.77-.054-.907-.155-2.615-.212-7.152.118-15.559C2618.626,2171.836,2620.944,2157.881,2628.971,2152.269Z" transform="translate(-546.973 -1203.904)" fill="#fc766b"/>
    <path id="Trazado_105673" data-name="Trazado 105673" d="M2652.7,2634.734c-2.06.644-6.924-2.009-6.924-2.009s-.5,2.062.26,2.813,10.221,1.719,10.932.538c.316-.525-1.113-1.439-2.8-2.292A2.522,2.522,0,0,1,2652.7,2634.734Z" transform="translate(-567.964 -1618.297)" fill="#312b30"/>
    <path id="Trazado_105674" data-name="Trazado 105674" d="M2633.9,2134.089a24.471,24.471,0,0,1-7.74.4,25.227,25.227,0,0,1-5.835-1.359,60.679,60.679,0,0,0-5.48,20.89,97.792,97.792,0,0,0,.425,15.894c.453,5.48,1.127,10.036,1.7,13.34q4.474-.352,9.139-.567,5.992-.273,11.689-.284a262.6,262.6,0,0,0-1.7-33.208C2635.483,2143.856,2634.733,2138.816,2633.9,2134.089Z" transform="translate(-541.431 -1189.92)" fill="#bae4f4"/>
    <path id="Trazado_105675" data-name="Trazado 105675" d="M2673.987,1954.391c.247.952.661,2.058.661,2.058a3.047,3.047,0,0,1-.771,3.571c-1.435.987-3.465-.511-3.733-.71a4.832,4.832,0,0,1-1.521-1.916,18.413,18.413,0,0,0,.788-1.816,18.7,18.7,0,0,0,1.124-5.278Z" transform="translate(-587.694 -1033.159)" fill="#fc766b"/>
    <path id="Trazado_105676" data-name="Trazado 105676" d="M2681.354,1963.467c-.119-.3-.234-.626-.339-.974q-.075-.25-.136-.489l-3.56-2.825a2.282,2.282,0,0,0-.656,1.6,2.562,2.562,0,0,0,1.244,1.868,4.3,4.3,0,0,0,1.771.671A6.909,6.909,0,0,0,2681.354,1963.467Z" transform="translate(-594.586 -1040.773)" fill="#f45b53"/>
    <path id="Trazado_105677" data-name="Trazado 105677" d="M2669.213,1908.158c1.26.666,2.781,8.125,2.578,9.177s-2.121,1.154-3.316,1.286a5.18,5.18,0,0,1-3.156-.951c-.365-.352-.39-1.786-.39-1.786s-.925.706-1.2-.241.093-2.539.556-2.065l.463.475S2667.831,1907.428,2669.213,1908.158Z" transform="translate(-583.413 -996.977)" fill="#fc766b"/>
    <path id="Trazado_105678" data-name="Trazado 105678" d="M2706.386,1957.252l-2.16.491c0,.01,0,.019,0,.028a1.263,1.263,0,0,0,2.3.4C2706.491,1957.891,2706.443,1957.583,2706.386,1957.252Z" transform="translate(-618.222 -1039.12)" fill="#fff"/>
    <path id="Trazado_105679" data-name="Trazado 105679" d="M2650.053,2351.789l.819-22.956,1.639,24.049Z" transform="translate(-571.771 -1357.728)" fill="#fc766b"/>
    <g id="Grupo_55851" data-name="Grupo 55851" transform="translate(2061.072 873.677)">
      <path id="Trazado_105680" data-name="Trazado 105680" d="M2960.89,1697.8c-2.61-5.558-9.97-7.806-15.344-9.447-.989-.3-1.9-.555-2.7-.778-2.312-.645-3.632-1.038-4.339-1.672a1.919,1.919,0,0,1-.469-.619,3.428,3.428,0,0,1-.055-2.38,3.216,3.216,0,0,1,.857-1.282,29.656,29.656,0,0,0-.23-4.368,7.766,7.766,0,0,0-4.239,4.377,7.234,7.234,0,0,0,.2,5.282,6.054,6.054,0,0,0,3.192,3.013,27.828,27.828,0,0,0,4.055,1.34c.78.217,1.664.464,2.608.752,4.688,1.432,11.109,3.392,13,7.412a4.317,4.317,0,0,1,.458,1.932c-.063,1.915-1.764,3.517-3.24,4.7a41.9,41.9,0,0,1-9.255,5.451c-1.689.794-3.436,1.615-5.306,2.683-5.772,3.3-11.741,6.7-12.067,11.888-.229,3.646,2.443,5.91,5.028,8.1,2.213,1.874,4.72,4,6.092,7.314,1.883,4.552,1.208,10.3-2,17.095a1.915,1.915,0,1,0,3.462,1.639c3.694-7.81,4.394-14.606,2.081-20.2-1.727-4.175-4.737-6.724-7.156-8.773s-3.784-3.29-3.68-4.934c.2-3.123,5.253-6.01,10.144-8.8,1.738-.992,3.414-1.78,5.036-2.543a45.618,45.618,0,0,0,10.019-5.927c1.243-.995,4.546-3.639,4.675-7.564A8.143,8.143,0,0,0,2960.89,1697.8Z" transform="translate(-2871.165 -1672.716)" fill="#303030"/>
      <path id="Trazado_105681" data-name="Trazado 105681" d="M2647.629,1647.662a5.276,5.276,0,0,0-2.985-2.241c-.325,1.344-.581,2.594-.764,3.821a1.187,1.187,0,0,1,.468.4c.4.663-.245,2.093-.488,2.631-.092.2-.195.407-.3.609-3.6,6.63-16.129,11.561-16.258,11.612-33.513,12.987-36.922,15.853-39.412,17.945a61.793,61.793,0,0,0-13.656,16.44,39.4,39.4,0,0,0-2.426,5.189c-.351.881-.714,1.792-1.268,2.967-4.248,9-10.739,14.386-20.564,22.535l-.372.308c-3.566,2.958-6.552,5.115-8.952,6.849-5.371,3.88-8.614,6.223-10.294,11.688a27.132,27.132,0,0,0-.283,13.545,23.141,23.141,0,0,0,4.716,9.178,1.915,1.915,0,1,0,2.964-2.426,19.436,19.436,0,0,1-3.973-7.712,23.361,23.361,0,0,1,.236-11.457c1.3-4.238,3.676-5.952,8.875-9.708,2.446-1.767,5.49-3.966,9.154-7.005l.372-.309c9.853-8.172,16.972-14.076,21.584-23.849.6-1.283.99-2.25,1.363-3.185a35.659,35.659,0,0,1,2.219-4.752,58.71,58.71,0,0,1,12.769-15.362c2.155-1.811,5.412-4.549,38.331-17.306.482-.187,9.587-3.769,15.208-9.423a16.727,16.727,0,0,0,3.463-4.8C2647.819,1652.805,2649.063,1650.046,2647.629,1647.662Z" transform="translate(-2529.338 -1645.421)" fill="#404040"/>
    </g>
    <path id="Trazado_105682" data-name="Trazado 105682" d="M2659.265,2215.384a1.661,1.661,0,0,1,1.06-.082c.214.062.321.15,1.06.878a16.306,16.306,0,0,1,1.146,1.336c.115.146.289.371.223.588a.434.434,0,0,1-.255.261.529.529,0,0,1-.543-.117l-1.052-1.01,2.148,3.479a.428.428,0,0,1-.688.507l-1.357-1.829,1.041,2.02a.442.442,0,1,1-.734.49l-1.217-1.9.923,1.976a.473.473,0,0,1-.179.553.48.48,0,0,1-.659-.229l-1.077-1.859.873,1.8a.436.436,0,0,1-.746.32c-1.187-2.1-2.03-3.683-2.31-4.26a1.9,1.9,0,0,1-.21-.811,1.814,1.814,0,0,1,.177-.816c-.186-.274-.391-.58-.606-.9l2.554-1.416C2658.978,2214.7,2659.126,2215.046,2659.265,2215.384Z" transform="translate(-577.113 -1259.577)" fill="#fc766b"/>
    <path id="Trazado_105683" data-name="Trazado 105683" d="M2609.947,2012.935c.442-1.048.6-1.35.786-1.834.715-1.912,1.07-4.938-.786-9.695a8.813,8.813,0,0,0-2.822,1.214c-.694.46-2.708,1.944-4.511,7.564a36.568,36.568,0,0,0-1.7,9.629,17.274,17.274,0,0,0,.851,5.044,18.473,18.473,0,0,0,6.94,9.171l4.059-1.965-5.238-12.184A56.932,56.932,0,0,1,2609.947,2012.935Z" transform="translate(-529.636 -1076.979)" fill="#686842"/>
    <g id="Grupo_55853" data-name="Grupo 55853" transform="translate(2104.471 930.662)">
      <g id="Grupo_55852" data-name="Grupo 55852" transform="translate(0 0)">
        <path id="Trazado_105684" data-name="Trazado 105684" d="M2839.555,2054.981l-2.1-1.183a.473.473,0,1,1,.478-.814l2.219.987A.809.809,0,0,1,2839.555,2054.981Z" transform="translate(-2836.719 -2051.805)" fill="#fc766b"/>
        <path id="Trazado_105685" data-name="Trazado 105685" d="M2836.447,2063.2l-2.05-1.036a.514.514,0,0,1-.285-.689.5.5,0,0,1,.579-.225l2.165.864A.849.849,0,0,1,2836.447,2063.2Z" transform="translate(-2834.02 -2058.935)" fill="#fc766b"/>
        <path id="Trazado_105686" data-name="Trazado 105686" d="M2835.841,2071.03c-.58-.277-1.225-.589-1.924-.933a.467.467,0,0,1,.295-.816l1.975.821A.849.849,0,0,1,2835.841,2071.03Z" transform="translate(-2833.759 -2065.84)" fill="#fc766b"/>
        <path id="Trazado_105687" data-name="Trazado 105687" d="M2844.447,2047.31l-2.035-1.337a.457.457,0,0,1,.5-.766l2.128,1.152A.993.993,0,0,1,2844.447,2047.31Z" transform="translate(-2841.011 -2045.145)" fill="#fc766b"/>
      </g>
    </g>
    <g id="Grupo_55863" data-name="Grupo 55863" transform="translate(2168.481 944.457)">
      <path id="Trazado_105688" data-name="Trazado 105688" d="M3323.85,2571.924a63.379,63.379,0,0,0-34.339,0h-6.754v5.412c0,4.3,10.711,7.781,23.923,7.781s23.923-3.484,23.923-7.781v-5.412Z" transform="translate(-3282.757 -2508.589)" fill="#aeafaf"/>
      <ellipse id="Elipse_4053" data-name="Elipse 4053" cx="23.923" cy="7.781" rx="23.923" ry="7.781" transform="translate(0 55.554)" fill="#cacccc"/>
      <path id="Trazado_105689" data-name="Trazado 105689" d="M3342.056,2292.713a54.669,54.669,0,0,1-44.106,0v-48.544h44.106Z" transform="translate(-3295.784 -2229.591)" fill="#ff9696"/>
      <g id="Grupo_55856" data-name="Grupo 55856" transform="translate(2.166 15.84)">
        <g id="Grupo_55855" data-name="Grupo 55855">
          <g id="Grupo_55854" data-name="Grupo 55854">
            <path id="Trazado_105690" data-name="Trazado 105690" d="M3341.9,2279.933a.578.578,0,0,0,.153-.026v-1.131c-.007,0-.012-.007-.019-.009-17.786-4.251-43.169-25.4-43.424-25.609a.58.58,0,0,0-.663-.054v1.033c1.555,1.289,26.251,21.581,43.817,25.78A.548.548,0,0,0,3341.9,2279.933Z" transform="translate(-3297.95 -2253.026)" fill="#f45b53"/>
            <path id="Trazado_105691" data-name="Trazado 105691" d="M3341.9,2308.156a.559.559,0,0,0,.153-.026V2307c-.007,0-.012-.007-.019-.009-17.786-4.251-43.169-25.4-43.424-25.609a.578.578,0,0,0-.663-.053v1.033c1.555,1.289,26.251,21.581,43.817,25.779A.536.536,0,0,0,3341.9,2308.156Z" transform="translate(-3297.95 -2277.224)" fill="#f45b53"/>
            <path id="Trazado_105692" data-name="Trazado 105692" d="M3298.613,2309.608a.578.578,0,0,0-.663-.053v1.032c1.555,1.289,26.251,21.581,43.817,25.781a.548.548,0,0,0,.135.016.578.578,0,0,0,.153-.026v-1.131c-.007,0-.012-.007-.019-.009C3324.251,2330.966,3298.867,2309.821,3298.613,2309.608Z" transform="translate(-3297.95 -2301.427)" fill="#f45b53"/>
            <path id="Trazado_105693" data-name="Trazado 105693" d="M3298.613,2337.834a.58.58,0,0,0-.663-.053v1.033c1.555,1.288,26.251,21.581,43.817,25.781a.548.548,0,0,0,.135.016.569.569,0,0,0,.153-.026v-1.131c-.007,0-.012-.007-.019-.009C3324.251,2359.192,3298.867,2338.047,3298.613,2337.834Z" transform="translate(-3297.95 -2325.63)" fill="#f45b53"/>
            <path id="Trazado_105694" data-name="Trazado 105694" d="M3298.613,2366.057a.578.578,0,0,0-.663-.053v1.033c1.555,1.289,26.251,21.581,43.817,25.781a.548.548,0,0,0,.135.016.578.578,0,0,0,.153-.026v-1.131c-.007,0-.012-.007-.019-.009C3324.251,2387.415,3298.867,2366.27,3298.613,2366.057Z" transform="translate(-3297.95 -2349.829)" fill="#f45b53"/>
            <path id="Trazado_105695" data-name="Trazado 105695" d="M3298.613,2394.285a.58.58,0,0,0-.663-.053v1.033c1.555,1.289,26.251,21.581,43.817,25.781a.548.548,0,0,0,.135.016.578.578,0,0,0,.153-.026V2419.9c-.007,0-.012-.007-.019-.009C3324.251,2415.643,3298.867,2394.5,3298.613,2394.285Z" transform="translate(-3297.95 -2374.033)" fill="#f45b53"/>
            <path id="Trazado_105696" data-name="Trazado 105696" d="M3297.95,2422.454v1.033c1.4,1.163,21.661,17.808,38.513,24.128q.9-.283,1.812-.606c-17.393-5.955-39.425-24.3-39.661-24.5A.579.579,0,0,0,3297.95,2422.454Z" transform="translate(-3297.95 -2398.231)" fill="#f45b53"/>
          </g>
        </g>
      </g>
      <g id="Grupo_55859" data-name="Grupo 55859" transform="translate(10.72 14.578)">
        <g id="Grupo_55858" data-name="Grupo 55858">
          <g id="Grupo_55857" data-name="Grupo 55857">
            <path id="Trazado_105697" data-name="Trazado 105697" d="M3376.249,2244.169h-2.234a103.136,103.136,0,0,1-16.066,8.213c.366.269.739.54,1.124.819A111.691,111.691,0,0,0,3376.249,2244.169Z" transform="translate(-3357.949 -2244.169)" fill="#f45b53"/>
            <path id="Trazado_105698" data-name="Trazado 105698" d="M3403.7,2244.169h-2.1a134.724,134.724,0,0,1-18.8,10.757c.366.258.742.519,1.12.781A143.135,143.135,0,0,0,3403.7,2244.169Z" transform="translate(-3379.259 -2244.169)" fill="#f45b53"/>
            <path id="Trazado_105699" data-name="Trazado 105699" d="M3430.153,2244.169h-2.011a165.8,165.8,0,0,1-21.134,13.134c.369.249.745.5,1.122.748A173.6,173.6,0,0,0,3430.153,2244.169Z" transform="translate(-3400.014 -2244.169)" fill="#f45b53"/>
            <path id="Trazado_105700" data-name="Trazado 105700" d="M3455.942,2244.169h-1.935a194.076,194.076,0,0,1-23.164,15.371c.373.24.752.479,1.13.718A200.254,200.254,0,0,0,3455.942,2244.169Z" transform="translate(-3420.451 -2244.169)" fill="#f45b53"/>
            <path id="Trazado_105701" data-name="Trazado 105701" d="M3476.253,2263.051v-1.5a208.556,208.556,0,0,1-21.793,15c.379.231.763.46,1.146.689A209.837,209.837,0,0,0,3476.253,2263.051Z" transform="translate(-3440.701 -2259.075)" fill="#f45b53"/>
            <path id="Trazado_105702" data-name="Trazado 105702" d="M3496.475,2291.282v-1.5a216.717,216.717,0,0,1-18.431,12.967c.387.222.776.441,1.165.659C3486.487,2298.845,3492.876,2294.078,3496.475,2291.282Z" transform="translate(-3460.923 -2283.281)" fill="#f45b53"/>
            <path id="Trazado_105703" data-name="Trazado 105703" d="M3516.793,2319.508v-1.5c-2.974,2.333-8.518,6.538-15.053,10.812q.6.318,1.191.627C3508.771,2325.6,3513.767,2321.858,3516.793,2319.508Z" transform="translate(-3481.241 -2307.483)" fill="#f45b53"/>
            <path id="Trazado_105704" data-name="Trazado 105704" d="M3539.173,2356.3v-1.442c-3.357,2.374-7.243,4.979-11.332,7.449q.637.307,1.272.6C3532.714,2360.709,3536.142,2358.424,3539.173,2356.3Z" transform="translate(-3503.621 -2339.078)" fill="#f45b53"/>
            <path id="Trazado_105705" data-name="Trazado 105705" d="M3561.7,2384.525v-1.442c-2.313,1.636-4.878,3.381-7.586,5.117q.666.281,1.327.542C3557.651,2387.313,3559.761,2385.886,3561.7,2384.525Z" transform="translate(-3526.15 -2363.279)" fill="#f45b53"/>
            <path id="Trazado_105706" data-name="Trazado 105706" d="M3584.946,2412.751v-1.442c-1.179.834-2.426,1.7-3.721,2.572.477.163.949.314,1.418.459C3583.43,2413.8,3584.2,2413.271,3584.946,2412.751Z" transform="translate(-3549.395 -2387.481)" fill="#f45b53"/>
          </g>
        </g>
      </g>
      <g id="Grupo_55862" data-name="Grupo 55862" transform="translate(2.166 43.336)">
        <g id="Grupo_55861" data-name="Grupo 55861">
          <g id="Grupo_55860" data-name="Grupo 55860">
            <path id="Trazado_105707" data-name="Trazado 105707" d="M3297.949,2447.681v1.284c1.592-.692,3.2-1.458,4.809-2.275-.364-.278-.71-.545-1.035-.8C3300.461,2446.525,3299.2,2447.127,3297.949,2447.681Z" transform="translate(-3297.949 -2445.893)" fill="#f45b53"/>
            <path id="Trazado_105708" data-name="Trazado 105708" d="M3297.949,2466.051v1.283c2.631-1.144,5.308-2.486,7.952-3.937-.356-.263-.7-.521-1.041-.772C3302.558,2463.875,3300.237,2465.039,3297.949,2466.051Z" transform="translate(-3297.949 -2460.24)" fill="#f45b53"/>
            <path id="Trazado_105709" data-name="Trazado 105709" d="M3297.949,2483.78v1.283a106.3,106.3,0,0,0,11.069-5.7c-.357-.254-.7-.5-1.048-.751A105.038,105.038,0,0,1,3297.949,2483.78Z" transform="translate(-3297.949 -2473.945)" fill="#f45b53"/>
            <path id="Trazado_105710" data-name="Trazado 105710" d="M3297.949,2500.939v1.283a115.383,115.383,0,0,0,14.166-7.564c-.358-.246-.709-.489-1.058-.731A114.025,114.025,0,0,1,3297.949,2500.939Z" transform="translate(-3297.949 -2487.08)" fill="#f45b53"/>
            <path id="Trazado_105711" data-name="Trazado 105711" d="M3297.949,2517.564v1.283a124.524,124.524,0,0,0,17.252-9.512c-.361-.238-.715-.475-1.069-.711A123.279,123.279,0,0,1,3297.949,2517.564Z" transform="translate(-3297.949 -2499.681)" fill="#f45b53"/>
            <path id="Trazado_105712" data-name="Trazado 105712" d="M3314.987,2532.539q.773.3,1.533.565a148.416,148.416,0,0,0,16.378-9.7q-.548-.345-1.088-.691A141.757,141.757,0,0,1,3314.987,2532.539Z" transform="translate(-3312.558 -2511.76)" fill="#f45b53"/>
            <path id="Trazado_105713" data-name="Trazado 105713" d="M3348.319,2545.707q.829.234,1.635.435c5.24-2.929,10.317-6.25,14.619-9.256-.369-.221-.739-.441-1.1-.664A168.8,168.8,0,0,1,3348.319,2545.707Z" transform="translate(-3341.138 -2523.344)" fill="#f45b53"/>
            <path id="Trazado_105714" data-name="Trazado 105714" d="M3383.021,2565.848q1.232.227,2.386.387a99.1,99.1,0,0,0,14.467-7.217c-.4-.216-.808-.431-1.21-.652A89.245,89.245,0,0,1,3383.021,2565.848Z" transform="translate(-3370.893 -2542.333)" fill="#f45b53"/>
            <path id="Trazado_105715" data-name="Trazado 105715" d="M3436.279,2577.991c.848.037,1.634.053,2.333.053l.208,0c3.508-1.793,7-3.834,10.309-5.913-.411-.2-.822-.4-1.233-.606A125.925,125.925,0,0,1,3436.279,2577.991Z" transform="translate(-3416.558 -2553.612)" fill="#f45b53"/>
            <path id="Trazado_105716" data-name="Trazado 105716" d="M3492.165,2588.064c.934-.1,1.921-.226,2.952-.39,1.928-1.173,3.8-2.372,5.6-3.559-.43-.183-.86-.368-1.293-.562C3497.1,2585.073,3494.667,2586.6,3492.165,2588.064Z" transform="translate(-3464.477 -2563.928)" fill="#f45b53"/>
            <path id="Trazado_105717" data-name="Trazado 105717" d="M3556.523,2595.547c.9-.253,1.825-.547,2.759-.862-.322-.116-.646-.233-.97-.357C3557.726,2594.731,3557.132,2595.137,3556.523,2595.547Z" transform="translate(-3519.66 -2573.167)" fill="#f45b53"/>
          </g>
        </g>
      </g>
      <path id="Trazado_105718" data-name="Trazado 105718" d="M3323.85,2182.243a63.379,63.379,0,0,0-34.339,0h-6.754v5.412c0,4.3,10.711,7.781,23.923,7.781s23.923-3.484,23.923-7.781v-5.412Z" transform="translate(-3282.757 -2174.461)" fill="#aeafaf"/>
      <ellipse id="Elipse_4054" data-name="Elipse 4054" cx="23.923" cy="7.781" rx="23.923" ry="7.781" fill="#cacccc"/>
      <ellipse id="Elipse_4055" data-name="Elipse 4055" cx="10.14" cy="3.298" rx="10.14" ry="3.298" transform="translate(13.783 4.483)" fill="#312b30"/>
    </g>
    <g id="Grupo_55865" data-name="Grupo 55865" transform="translate(2145.062 825.807)">
      <path id="Trazado_105719" data-name="Trazado 105719" d="M3303.819,1433.952a4.349,4.349,0,0,0,.944-.8c.509-.575.357-.718,1.008-1.745.413-.652.752-1.034.608-1.417a.4.4,0,0,0-.167-.225c-.451-.236-1.563,1.062-1.952,1.534l-2.854-2.765-3.016,2.323c.252.728.527,1.469.838,2.251a2.24,2.24,0,0,0,.933,1.269,1.567,1.567,0,0,0,.287.12l.455,1.61,3-.3Q3303.862,1434.879,3303.819,1433.952Z" transform="translate(-3272.742 -1411.584)" fill="#fc766b"/>
      <path id="Trazado_105720" data-name="Trazado 105720" d="M3338.385,1481.825l-6.426-2.344q-1.122.121-2.287.29a62.948,62.948,0,0,0-7.312,1.512,28.952,28.952,0,0,1-7.027-9l-3.994.262c.151,2.087.393,3.793.589,4.979.7,4.247,1.152,6.777,3.077,9.1a11.722,11.722,0,0,0,2.284,2.08c.722.531,3.193,2.225,8.714,3.129a36.377,36.377,0,0,0,10.791.125,36.915,36.915,0,0,1,1.59-10.136Z" transform="translate(-3283.847 -1449.095)" fill="#bae4f4"/>
      <path id="Trazado_105721" data-name="Trazado 105721" d="M3333.393,1550.361c2.6-.147,2.946-5.8,5.4-8.008l1.124,9.989a35.4,35.4,0,0,1-4.039-.424c-5.521-.9-7.992-2.6-8.714-3.129a11.729,11.729,0,0,1-2.284-2.08,10.621,10.621,0,0,1-2.024-3.93C3324.865,1545.985,3330.99,1550.5,3333.393,1550.361Z" transform="translate(-3293.721 -1509.177)" fill="#2e5ea0" opacity="0.5"/>
      <path id="Trazado_105722" data-name="Trazado 105722" d="M3402.962,2144.795q-.505-3.523-1.011-7.044l3.911-.365q-.355,3.791-.709,7.582Z" transform="translate(-3361.54 -2019.38)" fill="#fc766b"/>
      <path id="Trazado_105723" data-name="Trazado 105723" d="M3372.537,2186.289a27.3,27.3,0,0,1-3.21.015.7.7,0,0,1,.195-.218c1.493-.938,2.65-1.665,3.387-2.147l1.132-.615c.552-.306.834-.47,1.138-.376.216.067.195.188.507.333a1.188,1.188,0,0,0,.869.107,1.073,1.073,0,0,0,.573-.47,2.215,2.215,0,0,1,.849,2.664c-.3.074-.73.173-1.249.271A27.388,27.388,0,0,1,3372.537,2186.289Z" transform="translate(-3333.566 -2058.422)" fill="#fed65d"/>
      <path id="Trazado_105724" data-name="Trazado 105724" d="M3368.811,2202.328a37.636,37.636,0,0,0,7.4-.449c.518-.1.948-.2,1.249-.271,0,0,.573.613-.265,1.155l-8.383.219a.682.682,0,0,1-.066-.5A.645.645,0,0,1,3368.811,2202.328Z" transform="translate(-3333.051 -2074.447)" fill="#312b30"/>
      <path id="Trazado_105725" data-name="Trazado 105725" d="M3405.308,1684.368l-18.881,1.128a183.989,183.989,0,0,0-1.409,67.386h4.65q3.831-18.754,8.313-38.2Q3401.548,1699.235,3405.308,1684.368Z" transform="translate(-3344.922 -1630.946)" fill="#664b38"/>
      <path id="Trazado_105726" data-name="Trazado 105726" d="M3527.5,2146.772q-.505-3.523-1.011-7.044l3.911-.365q-.355,3.791-.709,7.582Z" transform="translate(-3468.322 -2021.075)" fill="#fc766b"/>
      <path id="Trazado_105727" data-name="Trazado 105727" d="M3497.073,2188.266a27.2,27.2,0,0,1-3.21.015.7.7,0,0,1,.195-.218c1.493-.938,2.649-1.665,3.387-2.146l1.132-.615c.552-.305.834-.47,1.138-.376.217.067.195.188.507.333a1.19,1.19,0,0,0,.869.107,1.071,1.071,0,0,0,.573-.47,2.215,2.215,0,0,1,.849,2.664c-.3.074-.73.173-1.249.271A27.406,27.406,0,0,1,3497.073,2188.266Z" transform="translate(-3440.349 -2060.117)" fill="#fed65d"/>
      <path id="Trazado_105728" data-name="Trazado 105728" d="M3493.347,2204.305a37.629,37.629,0,0,0,7.4-.449c.519-.1.948-.2,1.249-.271,0,0,.573.613-.265,1.155l-8.383.219a.684.684,0,0,1-.066-.5A.655.655,0,0,1,3493.347,2204.305Z" transform="translate(-3439.832 -2076.142)" fill="#312b30"/>
      <path id="Trazado_105729" data-name="Trazado 105729" d="M3433.946,1678.159a10.666,10.666,0,0,0-1.818-3.055l-17.183.509c.535,4.849,1.368,11.31,2.7,18.88.406,2.31,1.677,9.107,4.535,21.3,2.515,10.734,5.252,20.919,8.113,30.532l4.669-.6q.053-9.2.328-18.752.2-6.854.507-13.524s.341-6.283-1.026-31.028c-.013-.233-.034-.59-.087-1.044A12.829,12.829,0,0,0,3433.946,1678.159Z" transform="translate(-3372.681 -1623.002)" fill="#765742"/>
      <path id="Trazado_105730" data-name="Trazado 105730" d="M3457.914,1496.191a7.36,7.36,0,0,0-5.335,1.27q0,1.685-.006,3.371a6.751,6.751,0,0,0,6.009-.3Z" transform="translate(-3404.946 -1469.528)" fill="#fc766b"/>
      <path id="Trazado_105731" data-name="Trazado 105731" d="M3452.592,1502.071l.15-.418a4.439,4.439,0,0,1,1.941-.826,4.372,4.372,0,0,1,1.35,0,4.255,4.255,0,0,1-3.443,2.741Q3452.59,1502.817,3452.592,1502.071Z" transform="translate(-3404.959 -1473.523)" fill="#f45b53"/>
      <path id="Trazado_105732" data-name="Trazado 105732" d="M3430.384,1417.5a2.439,2.439,0,0,1-.615-2.719c1.183-2.295,8.916-3.414,11.5.606,1.8,2.808.777,7.7-3.271,10.488Z" transform="translate(-3385.201 -1398.019)" fill="#2e5ea0"/>
      <path id="Trazado_105733" data-name="Trazado 105733" d="M3434.493,1446.293a17.939,17.939,0,0,0-.129,2.1c0,.595.006.893.017,1.5.038,2.083-.091,2.149-.023,3.156.11,1.635.167,2.48.782,2.939.686.513,1.667.246,3.068-.135a4.778,4.778,0,0,0,2.411-1.157,4.023,4.023,0,0,0,1.076-2.172s.237.513.627.146,1.29-2.869.347-3.025-1.3,1.161-1.3,1.161l-.677-.59s.564-2.917-.678-3.625a1.327,1.327,0,0,0-.722-.15C3438.185,1446.465,3436.676,1446.426,3434.493,1446.293Z" transform="translate(-3389.309 -1426.811)" fill="#fc766b"/>
      <path id="Trazado_105734" data-name="Trazado 105734" d="M3435.846,1493.815a1.51,1.51,0,0,1-1.463,1.447c-.012-.065-.024-.134-.037-.206-.022-.128-.039-.223-.04-.231-.04-.235-.062-.835-.068-.971Z" transform="translate(-3389.225 -1467.558)" fill="#fff"/>
      <path id="Trazado_105735" data-name="Trazado 105735" d="M3414.515,1643.946l3.943-3.946,3.841,3.843,3.585-3.587,2.226,2.226c.215,1.436.465,3.211.737,5.349-2.486.282-5.2.476-8.11.521a83.383,83.383,0,0,1-11.78-.655q.532-3.727,1.064-7.455l.4-.4Z" transform="translate(-3367.547 -1592.772)" fill="#bae4f4"/>
      <path id="Trazado_105736" data-name="Trazado 105736" d="M3433.2,1539.534l-3.841-3.843-3.944,3.946-3.626-3.628q.7-4.87,1.391-9.74a15.523,15.523,0,0,1,2.642-1.208q.19-.066.377-.126l3.31.285a6.511,6.511,0,0,0,2.526-.691,11.923,11.923,0,0,1,2.919.683,11.789,11.789,0,0,1,1.258.554l1.179,7.327.233,1.249q.238,1.46.476,2.92l-1.312-1.313Z" transform="translate(-3378.55 -1493.894)" fill="#bae4f4"/>
      <path id="Trazado_105737" data-name="Trazado 105737" d="M3420.815,1606.772l3.944-3.946,3.841,3.843,3.585-3.587,1.313,1.313q.059.362.118.724c.338,2.08.508,3.124.591,3.642.091.564.194,1.228.306,1.979l-2.225-2.227-3.585,3.587-3.841-3.843-3.944,3.946-4.1-4.1-.4.4q.382-2.678.765-5.357Z" transform="translate(-3373.949 -1561.029)" fill="#2e5ea0"/>
      <path id="Trazado_105738" data-name="Trazado 105738" d="M3415.173,1552.935s2.357-11.3,6.912-13.711l3.4,2.8.4.577q.249,1.544.5,3.087l.233,1.249q.238,1.46.475,2.92.059.362.118.724c.338,2.08.508,3.124.591,3.642.059.369.125.785.194,1.235-.838,1.225-1.769,2.509-2.709,3.662-3.044,3.734-16.332,2.3-16.332,2.3q.493-3.454.986-6.907Z" transform="translate(-3367.547 -1506.494)" fill="#2e5ea0" opacity="0.5"/>
      <g id="Grupo_55864" data-name="Grupo 55864" transform="translate(0 0)">
        <path id="Trazado_105739" data-name="Trazado 105739" d="M3231.312,1325.338s2.91-.482,3.385-4.187c.381-2.979-1.451-4.692-.426-6.34a2.126,2.126,0,0,1,.874-.806,2.191,2.191,0,0,1,2.16.186,2.368,2.368,0,0,1,.592,3.03c-.573.79-1.655.388-2.434,1.446a1.611,1.611,0,0,0-.368,1.1,1.688,1.688,0,0,0,.733,1.1,11.615,11.615,0,0,0,5.01,1.8l2.219-.277-1.261-7.618a6.139,6.139,0,0,0-7.059-5.055h0a6.141,6.141,0,0,0-5.027,7.208Z" transform="translate(-3213.76 -1309.637)" fill="#312b30"/>
        <path id="Trazado_105740" data-name="Trazado 105740" d="M3308.074,1399.393l8.061,40.743.528.638.6-1.49-6.919-40.163Z" transform="translate(-3281.046 -1386.365)" fill="#312b30"/>
        <path id="Trazado_105741" data-name="Trazado 105741" d="M3146.073,1475.613a15.606,15.606,0,0,0-.787,3.273l-26.8-34.905s.968,2.015,2.479,4.575,21.244,32.653,26.806,34.451,7.245-2.815,6.738-4.78c-.551-2.138-2.023-4.306-4.369-4.5A4.476,4.476,0,0,0,3146.073,1475.613Zm5.862,2.2c.484,1.175.211,2.821-.772,3.362-1.248.686-3.386-.544-3.843-2.234a2.662,2.662,0,0,1,.934-2.935C3149.465,1475.335,3151.337,1476.364,3151.935,1477.815Z" transform="translate(-3118.486 -1424.829)" fill="#312b30"/>
      </g>
      <path id="Trazado_105742" data-name="Trazado 105742" d="M3343.839,1663.2a1.664,1.664,0,0,0-.6-.877c-.182-.128-.318-.156-1.349-.274a16.32,16.32,0,0,0-1.759-.055c-.186,0-.47.008-.6.2a.435.435,0,0,0-.043.362.531.531,0,0,0,.433.35l1.446.185-4.055.51a.428.428,0,0,0,.038.855l2.275-.091-2.225.457a.442.442,0,1,0,.079.88l2.24-.242-2.117.521a.472.472,0,0,0-.318.486.481.481,0,0,0,.592.369l2.123-.328-1.949.451a.436.436,0,0,0,.219.781c2.379-.394,4.139-.731,4.765-.875a1.9,1.9,0,0,0,.763-.345,1.814,1.814,0,0,0,.524-.649c.329-.027.7-.06,1.083-.1l-.5-2.878C3344.55,1663,3344.189,1663.1,3343.839,1663.2Z" transform="translate(-3305.776 -1611.763)" fill="#fc766b"/>
      <path id="Trazado_105743" data-name="Trazado 105743" d="M3408.3,1542.944c1.3-6.452,1.608-7.208,1.129-8.9a4.756,4.756,0,0,0-1.931-3.044,4.486,4.486,0,0,0-4.631.32,6.143,6.143,0,0,0-2.2,3.938c-.68,2.756-1.521,6.519-2.316,11.176l-11.235,2.945q.344,2.162.688,4.323a58.128,58.128,0,0,0,9.231-.295s6.052-.682,8.079-2.911l.434-.478h0C3407.325,1547.932,3407.731,1545.759,3408.3,1542.944Z" transform="translate(-3348.82 -1499.005)" fill="#bae4f4"/>
      <path id="Trazado_105744" data-name="Trazado 105744" d="M3309.41,1429.023l1.977,1.639a.5.5,0,1,0,.628-.787l-1.828-1.834A.863.863,0,0,0,3309.41,1429.023Z" transform="translate(-3282.185 -1411.161)" fill="#f45b53"/>
      <path id="Trazado_105745" data-name="Trazado 105745" d="M3310.906,1422.171l2.413.875a.5.5,0,1,0,.326-.953l-2.339-1.109A.863.863,0,0,0,3310.906,1422.171Z" transform="translate(-3283.389 -1405.11)" fill="#f45b53"/>
      <path id="Trazado_105746" data-name="Trazado 105746" d="M3303.367,1435.2l1.812,1.647a.547.547,0,0,0,.794.021.538.538,0,0,0,0-.662l-1.684-1.827A.9.9,0,0,0,3303.367,1435.2Z" transform="translate(-3277.01 -1416.6)" fill="#f45b53"/>
      <path id="Trazado_105747" data-name="Trazado 105747" d="M3297.812,1440.84c.5.472,1.053,1,1.662,1.561a.5.5,0,0,0,.7-.6l-1.569-1.654A.9.9,0,0,0,3297.812,1440.84Z" transform="translate(-3272.247 -1421.537)" fill="#f45b53"/>
    </g>
    <g id="Grupo_55874" data-name="Grupo 55874" transform="translate(2219.115 871.351)">
      <path id="Trazado_105748" data-name="Trazado 105748" d="M4293.191,2404.317l-7.151,2.94-1.425-4.026,8.174-1.27Q4292.99,2403.139,4293.191,2404.317Z" transform="translate(-4192.423 -2291.781)" fill="#fc766b"/>
      <path id="Trazado_105749" data-name="Trazado 105749" d="M4338.516,2394.84a29.545,29.545,0,0,1,1.755,3.017.759.759,0,0,1-.311-.065c-1.692-.9-3-1.594-3.857-2.028l-1.192-.734c-.587-.354-.9-.531-.971-.868-.054-.24.072-.285.039-.658a1.294,1.294,0,0,0-.37-.877,1.164,1.164,0,0,0-.752-.285s-.094-1.6,2.048-2.245c.233.244.559.595.933,1.03A29.819,29.819,0,0,1,4338.516,2394.84Z" transform="translate(-4233.786 -2281.609)" fill="#bae4f4"/>
      <path id="Trazado_105750" data-name="Trazado 105750" d="M4352.594,2394.674a40.985,40.985,0,0,0-4.435-6.73c-.374-.436-.7-.786-.932-1.03,0,0,.266-.873,1.231-.376l4.751,7.782a.743.743,0,0,1-.431.33A.69.69,0,0,1,4352.594,2394.674Z" transform="translate(-4246.108 -2278.426)" fill="#312b30"/>
      <path id="Trazado_105751" data-name="Trazado 105751" d="M4015.5,2182.7l-25.575-.306-10.912-35.854-14.817,5.286a171.094,171.094,0,0,0,4.824,19.765c5.595,18.125,9.783,20.847,11.716,21.834,3.388,1.731,6.508,1.538,11.715,1.149a56.121,56.121,0,0,0,24.044-7.661Z" transform="translate(-3917.687 -2072.775)" fill="#86bec4"/>
      <g id="Grupo_55866" data-name="Grupo 55866" transform="translate(56.057 88.158)">
        <path id="Trazado_105752" data-name="Trazado 105752" d="M4045.281,2275.571c7.043,0,27.283-4.012,28.219-4.2a.191.191,0,0,0,.15-.225.189.189,0,0,0-.225-.15c-.25.05-25.036,4.964-29.67,4.087-4.555-.862-12.158-27.186-12.234-27.452a.191.191,0,0,0-.368.105c.314,1.095,7.747,26.818,12.531,27.723A9.045,9.045,0,0,0,4045.281,2275.571Z" transform="translate(-4031.144 -2247.492)" fill="#312b30"/>
      </g>
      <path id="Trazado_105753" data-name="Trazado 105753" d="M3782.356,2584.7l2.21-7.714,4.086,1.236-4.212,7.486a1.361,1.361,0,0,1-1.541.024A1.382,1.382,0,0,1,3782.356,2584.7Z" transform="translate(-3761.767 -2441.854)" fill="#fc766b"/>
      <path id="Trazado_105754" data-name="Trazado 105754" d="M3736.307,2632.614a29.47,29.47,0,0,1-3.287-1.168.748.748,0,0,1,.279-.151c1.872-.409,3.323-.726,4.254-.946l1.384-.211c.677-.109,1.026-.173,1.3.035.2.148.13.264.4.528a1.3,1.3,0,0,0,.849.43,1.163,1.163,0,0,0,.759-.27s1.1,1.159-.114,3.038c-.335-.036-.811-.093-1.377-.184A29.744,29.744,0,0,1,3736.307,2632.614Z" transform="translate(-3719.464 -2487.342)" fill="#bae4f4"/>
      <path id="Trazado_105755" data-name="Trazado 105755" d="M3731.518,2639.922a40.913,40.913,0,0,0,7.731,2.27c.566.091,1.042.148,1.377.184,0,0,.36.838-.7,1.083l-8.651-2.868a.743.743,0,0,1,.115-.531A.686.686,0,0,1,3731.518,2639.922Z" transform="translate(-3717.962 -2495.819)" fill="#312b30"/>
      <path id="Trazado_105756" data-name="Trazado 105756" d="M3820.244,2148.525a17.193,17.193,0,0,0,.153-6.014l-20.828.574q-5.769,16.264-11.256,34.015-5.221,16.98-9.418,33.019l4.69,2.044q5.173-8.561,10.742-17.321,4-6.286,8-12.341s3.815-5.675,16.31-29.533A16.78,16.78,0,0,0,3820.244,2148.525Z" transform="translate(-3758.799 -2069.319)" fill="#86bec4"/>
      <g id="Grupo_55867" data-name="Grupo 55867" transform="translate(21.861 74.477)">
        <path id="Trazado_105757" data-name="Trazado 105757" d="M3791.469,2218.915a.191.191,0,0,0,.177-.118l27.909-67.005a.191.191,0,1,0-.353-.147l-27.909,67.005a.192.192,0,0,0,.1.25A.2.2,0,0,0,3791.469,2218.915Z" transform="translate(-3791.278 -2151.527)" fill="#312b30"/>
      </g>
      <path id="Trazado_105758" data-name="Trazado 105758" d="M3759.388,1850.074a1.722,1.722,0,0,0,.8-.755c.1-.207.109-.351.068-1.426a16.911,16.911,0,0,0-.222-1.811c-.031-.19-.082-.48-.294-.582a.449.449,0,0,0-.377.013.549.549,0,0,0-.29.5l.039,1.511q-.582-2.038-1.163-4.075a.443.443,0,0,0-.869.174l.452,2.317-.82-2.208a.458.458,0,1,0-.889.22q.3,1.128.6,2.257l-.869-2.087a.489.489,0,0,0-.548-.249.5.5,0,0,0-.284.665l.671,2.124-.769-1.926a.452.452,0,0,0-.766.348c.78,2.376,1.4,4.127,1.649,4.745a1.968,1.968,0,0,0,.474.728,1.878,1.878,0,0,0,.748.435c.08.333.171.7.269,1.095l2.867-.968C3759.709,1850.771,3759.549,1850.417,3759.388,1850.074Z" transform="translate(-3737.336 -1812.597)" fill="#fc766b"/>
      <path id="Trazado_105759" data-name="Trazado 105759" d="M3798.939,1906.079c-1.5.017-3.878.089-6.815.383-3.819.382-4.8.762-6.356.153-1.382-.542-2-1.393-4.824-5.056-1.721-2.236-3.167-4.1-4.211-5.439l-3.664,1.18a78.809,78.809,0,0,0,4.812,11.384c1.928,3.706,2.846,4.727,3.905,5.516,1.132.844,2.59,1.547,8.959,2.452,2.19.311,5.091.664,8.538.919a14.787,14.787,0,0,0-.344-11.491Z" transform="translate(-3753.804 -1858.054)" fill="#245289"/>
      <path id="Trazado_105760" data-name="Trazado 105760" d="M4143.785,2099.465a1.719,1.719,0,0,0-.712.841c-.078.217-.069.361.1,1.424a16.931,16.931,0,0,0,.427,1.775c.052.185.136.468.359.544a.449.449,0,0,0,.373-.056.549.549,0,0,0,.231-.528q-.1-.749-.21-1.5l1.62,3.916a.443.443,0,0,0,.844-.272l-.713-2.251,1.066,2.1a.458.458,0,1,0,.857-.32l-.855-2.174,1.1,1.975a.488.488,0,0,0,.572.185.5.5,0,0,0,.207-.693l-.909-2.033.983,1.826a.453.453,0,0,0,.721-.433c-1.045-2.272-1.864-3.94-2.179-4.526a1.964,1.964,0,0,0-.554-.669,1.881,1.881,0,0,0-.792-.347c-.117-.322-.25-.679-.392-1.057l-2.738,1.289C4143.387,2098.809,4143.586,2099.143,4143.785,2099.465Z" transform="translate(-4071.019 -2030.464)" fill="#fc766b"/>
      <path id="Trazado_105761" data-name="Trazado 105761" d="M3951.029,1926.48a8.1,8.1,0,0,0-5.628,2.183q.249,1.839.5,3.677a7.432,7.432,0,0,0,6.509-1.226Z" transform="translate(-3901.568 -1884.086)" fill="#fc766b"/>
      <path id="Trazado_105762" data-name="Trazado 105762" d="M3946.037,1935.208q.051-.239.1-.479a4.891,4.891,0,0,1,1.994-1.191,4.813,4.813,0,0,1,1.471-.207,4.685,4.685,0,0,1-3.345,3.5Q3946.147,1936.021,3946.037,1935.208Z" transform="translate(-3902.113 -1889.96)" fill="#f45b53"/>
      <path id="Trazado_105763" data-name="Trazado 105763" d="M3922.521,1852.85a2.7,2.7,0,0,1-.993-.98,2.777,2.777,0,0,1,0-2.709,2.479,2.479,0,0,1,1.015-1.016c1.029-.525,1.777.142,3.723.336,1.88.187,2.015-.353,3.384,0a4.534,4.534,0,0,1,2.708,1.691,4.754,4.754,0,0,1,.342,4.063,3.15,3.15,0,0,1,1.017,1.692c.4,1.985-1.518,4.169-3.579,4.777a4.812,4.812,0,0,1-2.5.044C3925.026,1860.06,3923.094,1856.894,3922.521,1852.85Z" transform="translate(-3880.794 -1816.75)" fill="#765742"/>
      <path id="Trazado_105764" data-name="Trazado 105764" d="M3928.26,1883.872a1.223,1.223,0,0,0,.9-.127,1.844,1.844,0,0,0,.083-2.553.913.913,0,0,0-.564-.155.747.747,0,0,0-.282.1,1.938,1.938,0,0,0-.686,1.18l-.36-.308a3.373,3.373,0,0,0-5.195-3.956c-.194.54-.382,1.115-.558,1.724-.243.84-.432,1.639-.581,2.387a.6.6,0,0,0-.268.437c0,.172.132.255.235.47a1.367,1.367,0,0,1,.1.671,15.455,15.455,0,0,0,.306,2.7c.176.831.264,1.246.524,1.505,1.154,1.15,4.085-.436,5.216-1.048.505-.273,1.205-.711,1.268-1.327a5.533,5.533,0,0,0-.043-.748C3928.326,1884.422,3928.288,1884.1,3928.26,1883.872Z" transform="translate(-3880.433 -1841.951)" fill="#ffc0c2"/>
      <path id="Trazado_105765" data-name="Trazado 105765" d="M3928.26,1883.872a1.223,1.223,0,0,0,.9-.127,1.844,1.844,0,0,0,.083-2.553.913.913,0,0,0-.564-.155.747.747,0,0,0-.282.1,1.938,1.938,0,0,0-.686,1.18l-.36-.308a3.373,3.373,0,0,0-5.195-3.956c-.194.54-.382,1.115-.558,1.724-.243.84-.432,1.639-.581,2.387a.6.6,0,0,0-.268.437c0,.172.132.255.235.47a1.367,1.367,0,0,1,.1.671,15.455,15.455,0,0,0,.306,2.7c.176.831.264,1.246.524,1.505,1.154,1.15,4.085-.436,5.216-1.048.505-.273,1.205-.711,1.268-1.327a5.533,5.533,0,0,0-.043-.748C3928.326,1884.422,3928.288,1884.1,3928.26,1883.872Z" transform="translate(-3880.433 -1841.951)" fill="#fc766b"/>
      <path id="Trazado_105766" data-name="Trazado 105766" d="M3940.561,1977.067q.549,4.035,1.034,7.987l-21.708-.057a90.768,90.768,0,0,1,4.058-27.005,10.7,10.7,0,0,0,6.435-1.12c.217-.021.538-.047.927-.063a20.865,20.865,0,0,1,3.141.168c1.7.13,3.22.308,4.534.5,3.18.46,5.712,1.06,7.984,2.617.146.1.336.227.577.421,1.029.829,1.907,1.884,3.693,5.661a78.767,78.767,0,0,1,4.376,11.559l-3.706,1.04c-.993-1.38-2.366-3.3-4-5.6-2.2-3.1-2.994-4.242-3.962-4.88a4.667,4.667,0,0,0-.666-.356,4.864,4.864,0,0,0-1.623-.353,12.369,12.369,0,0,0-2.469.058l.23,1.379Q3940.007,1973,3940.561,1977.067Z" transform="translate(-3879.691 -1910.081)" fill="#2e5ea0"/>
      <path id="Trazado_105767" data-name="Trazado 105767" d="M3925.755,1932.876a1.662,1.662,0,0,1-1.545,1.655c-.032-.143-.066-.3-.1-.477-.061-.289-.133-.721-.191-1.178Z" transform="translate(-3883.145 -1889.57)" fill="#fff"/>
      <path id="Trazado_105768" data-name="Trazado 105768" d="M3948.943,1959.1a7.118,7.118,0,0,1-1.98-.373c.066-.221.132-.449.2-.665a10.7,10.7,0,0,0,6.436-1.12c.217-.021.538-.047.926-.063A7.706,7.706,0,0,1,3948.943,1959.1Z" transform="translate(-3902.907 -1910.15)" fill="#fff"/>
      <path id="Trazado_105769" data-name="Trazado 105769" d="M3930.439,2019.533c-2.53.105-4.763-2.022-5.607-5.046.353-2.825.818-5.489,1.356-7.972a4.914,4.914,0,0,1,3.627-2.007c3.117-.13,5.784,3.129,5.956,7.278S3933.556,2019.4,3930.439,2019.533Z" transform="translate(-3883.931 -1950.987)" fill="#fff"/>
      <g id="Grupo_55868" data-name="Grupo 55868" transform="translate(39.871 74.62)">
        <path id="Trazado_105770" data-name="Trazado 105770" d="M3924.25,2161.058a.192.192,0,0,0,.016-.383c-2.218-.189-5.7-.7-6.185-1.317-.474-.6.706-4.346,1.56-6.566a.192.192,0,1,0-.358-.138c-.382.993-2.251,5.993-1.5,6.941s5.871,1.411,6.453,1.461Z" transform="translate(-3917.605 -2152.533)" fill="#312b30"/>
      </g>
      <g id="Grupo_55873" data-name="Grupo 55873" transform="translate(0 0)">
        <path id="Trazado_105771" data-name="Trazado 105771" d="M3641.675,1794.648a3.679,3.679,0,0,0-1.136,2.692,3.528,3.528,0,0,0,1.058,2.151c2.786,2.979,9.9,2.125,11.4,1.945a30.024,30.024,0,0,0,8.183-2.178,23.808,23.808,0,0,0,8.255-5.441,21.781,21.781,0,0,0,1.835-2.172,3.975,3.975,0,0,0-.4-3.021,3.859,3.859,0,0,0-2.463-1.523C3664.428,1786.163,3641.675,1794.648,3641.675,1794.648Z" transform="translate(-3640.162 -1764.515)" fill="#f7c341"/>
        <path id="Trazado_105772" data-name="Trazado 105772" d="M3655.1,1642.348c-7.984,4.627-14.488,4.878-17.015,4.756-.76,5.149,1.585,25.507,1.585,25.507a8.43,8.43,0,0,0,1.989,1.424,8.71,8.71,0,0,0,2.2.768,13.871,13.871,0,0,0,4.984.082,53.974,53.974,0,0,0,11.568-3.266,13.88,13.88,0,0,0,4.206-2.676,8.735,8.735,0,0,0,1.475-1.806,8.435,8.435,0,0,0,.952-2.254S3658.459,1646.42,3655.1,1642.348Z" transform="translate(-3637.932 -1640.46)" fill="#fed65d"/>
        <path id="Trazado_105773" data-name="Trazado 105773" d="M3656.01,1631a4.52,4.52,0,0,0-.52-.549,3.294,3.294,0,0,0-1.635-1.226,6.366,6.366,0,0,0-2.129-.068c-.557.029-.966.051-1.622.134a21.316,21.316,0,0,0-6.973,1.969c-.6.272-.962.468-1.453.734a6.379,6.379,0,0,0-1.78,1.171,3.3,3.3,0,0,0-.754,1.9,4.393,4.393,0,0,0-.149.69C3641.522,1635.874,3648.026,1635.622,3656.01,1631Z" transform="translate(-3638.844 -1629.108)" fill="#f9db91"/>
        <g id="Grupo_55870" data-name="Grupo 55870" transform="translate(2.558 0.296)">
          <g id="Grupo_55869" data-name="Grupo 55869">
            <path id="Trazado_105774" data-name="Trazado 105774" d="M3688.731,1652.369c.059.209-.232.473-.649.591s-.8.044-.862-.165.232-.474.649-.591S3688.672,1652.16,3688.731,1652.369Z" transform="translate(-3682.744 -1649.16)" fill="#f7c341"/>
            <path id="Trazado_105775" data-name="Trazado 105775" d="M3708.256,1648.119c.059.209-.231.474-.649.591s-.8.044-.862-.165.232-.473.649-.591S3708.2,1647.911,3708.256,1648.119Z" transform="translate(-3699.487 -1645.516)" fill="#f7c341"/>
            <path id="Trazado_105776" data-name="Trazado 105776" d="M3723.267,1641.019c.059.209-.232.474-.649.591s-.8.044-.862-.165.231-.474.649-.591S3723.208,1640.811,3723.267,1641.019Z" transform="translate(-3712.357 -1639.428)" fill="#f7c341"/>
            <path id="Trazado_105777" data-name="Trazado 105777" d="M3704.208,1641.99c.059.209-.232.473-.649.591s-.8.044-.863-.165.232-.474.649-.591S3704.149,1641.781,3704.208,1641.99Z" transform="translate(-3696.015 -1640.26)" fill="#f7c341"/>
            <path id="Trazado_105778" data-name="Trazado 105778" d="M3695.55,1638.709c.059.209-.232.474-.649.591s-.8.044-.862-.165.232-.474.649-.591S3695.491,1638.5,3695.55,1638.709Z" transform="translate(-3688.592 -1637.447)" fill="#f7c341"/>
            <path id="Trazado_105779" data-name="Trazado 105779" d="M3683.262,1645.041c.059.209-.232.473-.649.591s-.8.044-.862-.165.232-.474.649-.591S3683.2,1644.832,3683.262,1645.041Z" transform="translate(-3678.055 -1642.876)" fill="#f7c341"/>
            <path id="Trazado_105780" data-name="Trazado 105780" d="M3672.81,1652.4c.059.209-.232.473-.649.591s-.8.044-.862-.165.232-.474.649-.591S3672.751,1652.193,3672.81,1652.4Z" transform="translate(-3669.093 -1649.188)" fill="#f7c341"/>
            <path id="Trazado_105781" data-name="Trazado 105781" d="M3663.722,1649.242c.059.209-.231.474-.649.591s-.8.044-.862-.165.232-.474.649-.591S3663.663,1649.033,3663.722,1649.242Z" transform="translate(-3661.301 -1646.478)" fill="#f7c341"/>
            <path id="Trazado_105782" data-name="Trazado 105782" d="M3711.276,1631.406c.059.209-.232.473-.649.591s-.8.044-.862-.165.232-.474.649-.591S3711.217,1631.2,3711.276,1631.406Z" transform="translate(-3702.075 -1631.186)" fill="#f7c341"/>
            <path id="Trazado_105783" data-name="Trazado 105783" d="M3716.067,1635.78c.059.209-.232.473-.649.591s-.8.044-.862-.165.231-.473.649-.591S3716.008,1635.571,3716.067,1635.78Z" transform="translate(-3706.184 -1634.935)" fill="#f7c341"/>
            <path id="Trazado_105784" data-name="Trazado 105784" d="M3734.122,1635.092c.059.209-.232.473-.649.591s-.8.044-.863-.165.232-.474.649-.591S3734.063,1634.883,3734.122,1635.092Z" transform="translate(-3721.665 -1634.346)" fill="#f7c341"/>
            <path id="Trazado_105785" data-name="Trazado 105785" d="M3677.469,1640.951c.059.209-.232.474-.649.591s-.8.044-.862-.165.232-.474.649-.591S3677.41,1640.742,3677.469,1640.951Z" transform="translate(-3673.088 -1639.37)" fill="#f7c341"/>
            <path id="Trazado_105786" data-name="Trazado 105786" d="M3657.4,1658.069c.059.209-.232.474-.649.591s-.8.044-.863-.165.232-.474.649-.591S3657.337,1657.86,3657.4,1658.069Z" transform="translate(-3655.877 -1654.047)" fill="#f7c341"/>
          </g>
        </g>
        <g id="Grupo_55872" data-name="Grupo 55872" transform="translate(0.561 3.441)">
          <g id="Grupo_55871" data-name="Grupo 55871">
            <path id="Trazado_105787" data-name="Trazado 105787" d="M3696.7,1699.286a.785.785,0,1,1-.969-.543A.786.786,0,0,1,3696.7,1699.286Z" transform="translate(-3687.566 -1692.231)" fill="#edae21"/>
            <path id="Trazado_105788" data-name="Trazado 105788" d="M3706.708,1710.078a.785.785,0,1,1-.969-.543A.786.786,0,0,1,3706.708,1710.078Z" transform="translate(-3696.143 -1701.485)" fill="#edae21"/>
            <path id="Trazado_105789" data-name="Trazado 105789" d="M3713.751,1694.473a.785.785,0,1,1-.969-.543A.785.785,0,0,1,3713.751,1694.473Z" transform="translate(-3702.183 -1688.105)" fill="#edae21"/>
            <path id="Trazado_105790" data-name="Trazado 105790" d="M3730,1688.492a.785.785,0,1,1-.969-.542A.785.785,0,0,1,3730,1688.492Z" transform="translate(-3716.118 -1682.976)" fill="#edae21"/>
            <path id="Trazado_105791" data-name="Trazado 105791" d="M3734.594,1672.96a.785.785,0,1,1-.969-.543A.785.785,0,0,1,3734.594,1672.96Z" transform="translate(-3720.054 -1669.659)" fill="#edae21"/>
            <path id="Trazado_105792" data-name="Trazado 105792" d="M3718.3,1678.8a.785.785,0,1,1-.969-.543A.785.785,0,0,1,3718.3,1678.8Z" transform="translate(-3706.083 -1674.664)" fill="#edae21"/>
            <path id="Trazado_105793" data-name="Trazado 105793" d="M3701.944,1684.963a.785.785,0,1,1-.969-.542A.786.786,0,0,1,3701.944,1684.963Z" transform="translate(-3692.058 -1679.951)" fill="#edae21"/>
            <path id="Trazado_105794" data-name="Trazado 105794" d="M3746.921,1667.314a.785.785,0,1,1-.969-.543A.786.786,0,0,1,3746.921,1667.314Z" transform="translate(-3730.623 -1664.818)" fill="#edae21"/>
            <path id="Trazado_105795" data-name="Trazado 105795" d="M3745.5,1682.57a.785.785,0,1,1-.969-.543A.786.786,0,0,1,3745.5,1682.57Z" transform="translate(-3729.406 -1677.898)" fill="#edae21"/>
            <path id="Trazado_105796" data-name="Trazado 105796" d="M3756.085,1691.032a.785.785,0,1,1-.969-.543A.785.785,0,0,1,3756.085,1691.032Z" transform="translate(-3738.481 -1685.154)" fill="#edae21"/>
            <path id="Trazado_105797" data-name="Trazado 105797" d="M3767.708,1700.439a.785.785,0,1,1-.969-.543A.786.786,0,0,1,3767.708,1700.439Z" transform="translate(-3748.447 -1693.22)" fill="#edae21"/>
            <path id="Trazado_105798" data-name="Trazado 105798" d="M3741.668,1698.042a.785.785,0,1,1-.969-.543A.785.785,0,0,1,3741.668,1698.042Z" transform="translate(-3726.12 -1691.165)" fill="#edae21"/>
            <path id="Trazado_105799" data-name="Trazado 105799" d="M3754.544,1705.858a.785.785,0,1,1-.969-.543A.785.785,0,0,1,3754.544,1705.858Z" transform="translate(-3737.159 -1697.866)" fill="#edae21"/>
            <path id="Trazado_105800" data-name="Trazado 105800" d="M3724.191,1702.976a.785.785,0,1,1-.969-.543A.785.785,0,0,1,3724.191,1702.976Z" transform="translate(-3711.134 -1695.396)" fill="#edae21"/>
            <path id="Trazado_105801" data-name="Trazado 105801" d="M3736.917,1713a.785.785,0,1,1-.969-.543A.786.786,0,0,1,3736.917,1713Z" transform="translate(-3722.045 -1703.99)" fill="#edae21"/>
            <path id="Trazado_105802" data-name="Trazado 105802" d="M3718.923,1719.937a.785.785,0,1,1-.969-.543A.786.786,0,0,1,3718.923,1719.937Z" transform="translate(-3706.616 -1709.938)" fill="#edae21"/>
            <path id="Trazado_105803" data-name="Trazado 105803" d="M3699.1,1723.677a.785.785,0,1,1-.969-.543A.786.786,0,0,1,3699.1,1723.677Z" transform="translate(-3689.619 -1713.145)" fill="#edae21"/>
            <path id="Trazado_105804" data-name="Trazado 105804" d="M3689.661,1714.891a.785.785,0,1,1-.969-.542A.786.786,0,0,1,3689.661,1714.891Z" transform="translate(-3681.526 -1705.612)" fill="#edae21"/>
            <path id="Trazado_105805" data-name="Trazado 105805" d="M3679.293,1702.809a.785.785,0,1,1-.969-.543A.786.786,0,0,1,3679.293,1702.809Z" transform="translate(-3672.637 -1695.252)" fill="#edae21"/>
            <path id="Trazado_105806" data-name="Trazado 105806" d="M3671.744,1691.942a.785.785,0,1,1-.969-.543A.786.786,0,0,1,3671.744,1691.942Z" transform="translate(-3666.164 -1685.935)" fill="#edae21"/>
            <path id="Trazado_105807" data-name="Trazado 105807" d="M3678.958,1679.6a.637.637,0,1,1-.785-.44A.637.637,0,0,1,3678.958,1679.6Z" transform="translate(-3672.599 -1675.446)" fill="#edae21"/>
            <path id="Trazado_105808" data-name="Trazado 105808" d="M3692.651,1674.962a.637.637,0,1,1-.786-.44A.637.637,0,0,1,3692.651,1674.962Z" transform="translate(-3684.341 -1671.468)" fill="#edae21"/>
            <path id="Trazado_105809" data-name="Trazado 105809" d="M3707.549,1670.756a.637.637,0,1,1-.786-.44A.637.637,0,0,1,3707.549,1670.756Z" transform="translate(-3697.115 -1667.862)" fill="#edae21"/>
            <path id="Trazado_105810" data-name="Trazado 105810" d="M3724,1665.491a.637.637,0,1,1-.786-.44A.637.637,0,0,1,3724,1665.491Z" transform="translate(-3711.224 -1663.347)" fill="#edae21"/>
            <path id="Trazado_105811" data-name="Trazado 105811" d="M3737.209,1660.216a.637.637,0,1,1-.786-.44A.637.637,0,0,1,3737.209,1660.216Z" transform="translate(-3722.546 -1658.824)" fill="#edae21"/>
            <path id="Trazado_105812" data-name="Trazado 105812" d="M3749.293,1653.709a.637.637,0,1,1-.786-.44A.637.637,0,0,1,3749.293,1653.709Z" transform="translate(-3732.907 -1653.245)" fill="#edae21"/>
            <path id="Trazado_105813" data-name="Trazado 105813" d="M3758.386,1661.819a.637.637,0,1,1-.785-.44A.637.637,0,0,1,3758.386,1661.819Z" transform="translate(-3740.704 -1660.199)" fill="#edae21"/>
            <path id="Trazado_105814" data-name="Trazado 105814" d="M3758.054,1675.994a.637.637,0,1,1-.786-.44A.637.637,0,0,1,3758.054,1675.994Z" transform="translate(-3740.419 -1672.353)" fill="#edae21"/>
            <path id="Trazado_105815" data-name="Trazado 105815" d="M3768.073,1669.3a.637.637,0,1,1-.785-.44A.637.637,0,0,1,3768.073,1669.3Z" transform="translate(-3749.01 -1666.611)" fill="#edae21"/>
            <path id="Trazado_105816" data-name="Trazado 105816" d="M3768.351,1684.538a.637.637,0,1,1-.786-.44A.637.637,0,0,1,3768.351,1684.538Z" transform="translate(-3749.248 -1679.679)" fill="#edae21"/>
            <path id="Trazado_105817" data-name="Trazado 105817" d="M3778.012,1693.57a.637.637,0,1,1-.785-.44A.637.637,0,0,1,3778.012,1693.57Z" transform="translate(-3757.532 -1687.423)" fill="#edae21"/>
            <path id="Trazado_105818" data-name="Trazado 105818" d="M3786,1702.146a.637.637,0,1,1-.785-.44A.637.637,0,0,1,3786,1702.146Z" transform="translate(-3764.381 -1694.777)" fill="#edae21"/>
            <path id="Trazado_105819" data-name="Trazado 105819" d="M3777.038,1710.4a.637.637,0,1,1-.786-.44A.637.637,0,0,1,3777.038,1710.4Z" transform="translate(-3756.697 -1701.856)" fill="#edae21"/>
            <path id="Trazado_105820" data-name="Trazado 105820" d="M3765.673,1715.622a.637.637,0,1,1-.786-.44A.637.637,0,0,1,3765.673,1715.622Z" transform="translate(-3746.952 -1706.332)" fill="#edae21"/>
            <path id="Trazado_105821" data-name="Trazado 105821" d="M3749.17,1722.911a.637.637,0,1,1-.786-.44A.637.637,0,0,1,3749.17,1722.911Z" transform="translate(-3732.802 -1712.581)" fill="#edae21"/>
            <path id="Trazado_105822" data-name="Trazado 105822" d="M3760.837,1731.377a.637.637,0,1,1-.786-.44A.637.637,0,0,1,3760.837,1731.377Z" transform="translate(-3742.805 -1719.84)" fill="#edae21"/>
            <path id="Trazado_105823" data-name="Trazado 105823" d="M3772.342,1739.27a.637.637,0,1,1-.785-.44A.637.637,0,0,1,3772.342,1739.27Z" transform="translate(-3752.671 -1726.608)" fill="#edae21"/>
            <path id="Trazado_105824" data-name="Trazado 105824" d="M3756.526,1749a.637.637,0,1,1-.786-.44A.637.637,0,0,1,3756.526,1749Z" transform="translate(-3739.109 -1734.948)" fill="#edae21"/>
            <path id="Trazado_105825" data-name="Trazado 105825" d="M3741.688,1739.7a.637.637,0,1,1-.786-.44A.637.637,0,0,1,3741.688,1739.7Z" transform="translate(-3726.386 -1726.979)" fill="#edae21"/>
            <path id="Trazado_105826" data-name="Trazado 105826" d="M3731.337,1730.422a.637.637,0,1,1-.786-.44A.637.637,0,0,1,3731.337,1730.422Z" transform="translate(-3717.511 -1719.021)" fill="#edae21"/>
            <path id="Trazado_105827" data-name="Trazado 105827" d="M3724.375,1746.314a.637.637,0,1,1-.786-.44A.637.637,0,0,1,3724.375,1746.314Z" transform="translate(-3711.541 -1732.648)" fill="#edae21"/>
            <path id="Trazado_105828" data-name="Trazado 105828" d="M3737.017,1754.948a.637.637,0,1,1-.786-.44A.637.637,0,0,1,3737.017,1754.948Z" transform="translate(-3722.381 -1740.051)" fill="#edae21"/>
            <path id="Trazado_105829" data-name="Trazado 105829" d="M3711.538,1737.539a.637.637,0,1,1-.786-.44A.637.637,0,0,1,3711.538,1737.539Z" transform="translate(-3700.534 -1725.124)" fill="#edae21"/>
            <path id="Trazado_105830" data-name="Trazado 105830" d="M3704.032,1752.057a.637.637,0,1,1-.785-.44A.636.636,0,0,1,3704.032,1752.057Z" transform="translate(-3694.099 -1737.572)" fill="#edae21"/>
            <path id="Trazado_105831" data-name="Trazado 105831" d="M3715.7,1760.523a.637.637,0,1,1-.786-.44A.637.637,0,0,1,3715.7,1760.523Z" transform="translate(-3704.103 -1744.831)" fill="#edae21"/>
            <path id="Trazado_105832" data-name="Trazado 105832" d="M3697.345,1765.085a.637.637,0,1,1-.786-.44A.637.637,0,0,1,3697.345,1765.085Z" transform="translate(-3688.365 -1748.743)" fill="#edae21"/>
            <path id="Trazado_105833" data-name="Trazado 105833" d="M3684.739,1754.388a.636.636,0,1,1-.785-.44A.637.637,0,0,1,3684.739,1754.388Z" transform="translate(-3677.557 -1739.571)" fill="#edae21"/>
            <path id="Trazado_105834" data-name="Trazado 105834" d="M3693.519,1741.1a.637.637,0,1,1-.786-.44A.637.637,0,0,1,3693.519,1741.1Z" transform="translate(-3685.084 -1728.176)" fill="#edae21"/>
            <path id="Trazado_105835" data-name="Trazado 105835" d="M3676.111,1743.537a.637.637,0,1,1-.786-.44A.637.637,0,0,1,3676.111,1743.537Z" transform="translate(-3670.158 -1730.267)" fill="#edae21"/>
            <path id="Trazado_105836" data-name="Trazado 105836" d="M3678.241,1767.539a.637.637,0,1,1-.786-.44A.637.637,0,0,1,3678.241,1767.539Z" transform="translate(-3671.984 -1750.847)" fill="#edae21"/>
            <path id="Trazado_105837" data-name="Trazado 105837" d="M3669.2,1756.32a.637.637,0,1,1-.786-.44A.637.637,0,0,1,3669.2,1756.32Z" transform="translate(-3664.232 -1741.227)" fill="#edae21"/>
            <path id="Trazado_105838" data-name="Trazado 105838" d="M3662.989,1767.2a.637.637,0,1,1-.786-.44A.637.637,0,0,1,3662.989,1767.2Z" transform="translate(-3658.907 -1750.559)" fill="#edae21"/>
            <path id="Trazado_105839" data-name="Trazado 105839" d="M3650.313,1767.223a.637.637,0,1,1-.785-.44A.637.637,0,0,1,3650.313,1767.223Z" transform="translate(-3648.038 -1750.576)" fill="#edae21"/>
            <path id="Trazado_105840" data-name="Trazado 105840" d="M3656.482,1756.2a.637.637,0,1,1-.786-.44A.637.637,0,0,1,3656.482,1756.2Z" transform="translate(-3653.328 -1741.122)" fill="#edae21"/>
            <path id="Trazado_105841" data-name="Trazado 105841" d="M3660.859,1743.2a.637.637,0,1,1-.786-.44A.637.637,0,0,1,3660.859,1743.2Z" transform="translate(-3657.081 -1729.979)" fill="#edae21"/>
            <path id="Trazado_105842" data-name="Trazado 105842" d="M3667.191,1732.748a.637.637,0,1,1-.786-.44A.637.637,0,0,1,3667.191,1732.748Z" transform="translate(-3662.51 -1721.016)" fill="#edae21"/>
            <path id="Trazado_105843" data-name="Trazado 105843" d="M3658.972,1720.059a.637.637,0,1,1-.785-.44A.637.637,0,0,1,3658.972,1720.059Z" transform="translate(-3655.463 -1710.136)" fill="#edae21"/>
            <path id="Trazado_105844" data-name="Trazado 105844" d="M3665.6,1706.273a.637.637,0,1,1-.785-.44A.637.637,0,0,1,3665.6,1706.273Z" transform="translate(-3661.146 -1698.315)" fill="#edae21"/>
            <path id="Trazado_105845" data-name="Trazado 105845" d="M3654.717,1733.485a.637.637,0,1,1-.786-.44A.637.637,0,0,1,3654.717,1733.485Z" transform="translate(-3651.814 -1721.648)" fill="#edae21"/>
            <path id="Trazado_105846" data-name="Trazado 105846" d="M3647.2,1743.033a.637.637,0,1,1-.786-.44A.637.637,0,0,1,3647.2,1743.033Z" transform="translate(-3645.371 -1729.835)" fill="#edae21"/>
            <path id="Trazado_105847" data-name="Trazado 105847" d="M3643.12,1728.558a.637.637,0,1,1-.786-.44A.637.637,0,0,1,3643.12,1728.558Z" transform="translate(-3641.87 -1717.423)" fill="#edae21"/>
            <path id="Trazado_105848" data-name="Trazado 105848" d="M3646.759,1716.235a.637.637,0,1,1-.785-.44A.637.637,0,0,1,3646.759,1716.235Z" transform="translate(-3644.99 -1706.857)" fill="#edae21"/>
            <path id="Trazado_105849" data-name="Trazado 105849" d="M3652.069,1705.452a.637.637,0,1,1-.786-.44A.637.637,0,0,1,3652.069,1705.452Z" transform="translate(-3649.543 -1697.611)" fill="#edae21"/>
            <path id="Trazado_105850" data-name="Trazado 105850" d="M3658.279,1694.569a.637.637,0,1,1-.786-.44A.637.637,0,0,1,3658.279,1694.569Z" transform="translate(-3654.869 -1688.28)" fill="#edae21"/>
            <path id="Trazado_105851" data-name="Trazado 105851" d="M3664.573,1682.889a.637.637,0,1,1-.785-.44A.637.637,0,0,1,3664.573,1682.889Z" transform="translate(-3660.265 -1678.265)" fill="#edae21"/>
            <path id="Trazado_105852" data-name="Trazado 105852" d="M3652.591,1683.177a.637.637,0,1,1-.786-.44A.637.637,0,0,1,3652.591,1683.177Z" transform="translate(-3649.991 -1678.512)" fill="#edae21"/>
            <path id="Trazado_105853" data-name="Trazado 105853" d="M3643.6,1682a.637.637,0,1,1-.786-.44A.637.637,0,0,1,3643.6,1682Z" transform="translate(-3642.281 -1677.505)" fill="#edae21"/>
            <path id="Trazado_105854" data-name="Trazado 105854" d="M3645.761,1696.246a.637.637,0,1,1-.786-.44A.637.637,0,0,1,3645.761,1696.246Z" transform="translate(-3644.135 -1689.718)" fill="#edae21"/>
            <path id="Trazado_105855" data-name="Trazado 105855" d="M3775.925,1724a.637.637,0,1,1-.786-.44A.637.637,0,0,1,3775.925,1724Z" transform="translate(-3755.742 -1713.518)" fill="#edae21"/>
            <path id="Trazado_105856" data-name="Trazado 105856" d="M3785.732,1731.911a.637.637,0,1,1-.786-.44A.637.637,0,0,1,3785.732,1731.911Z" transform="translate(-3764.151 -1720.298)" fill="#edae21"/>
            <path id="Trazado_105857" data-name="Trazado 105857" d="M3786.6,1716.346a.637.637,0,1,1-.786-.44A.637.637,0,0,1,3786.6,1716.346Z" transform="translate(-3764.897 -1706.953)" fill="#edae21"/>
            <path id="Trazado_105858" data-name="Trazado 105858" d="M3686.9,1689.21a.785.785,0,1,1-.969-.543A.785.785,0,0,1,3686.9,1689.21Z" transform="translate(-3679.161 -1683.592)" fill="#edae21"/>
            <path id="Trazado_105859" data-name="Trazado 105859" d="M3672.907,1717.455a.785.785,0,1,1-.969-.543A.786.786,0,0,1,3672.907,1717.455Z" transform="translate(-3667.161 -1707.81)" fill="#edae21"/>
            <path id="Trazado_105860" data-name="Trazado 105860" d="M3682.625,1728.328a.785.785,0,1,1-.969-.543A.785.785,0,0,1,3682.625,1728.328Z" transform="translate(-3675.493 -1717.133)" fill="#edae21"/>
          </g>
        </g>
      </g>
      <path id="Trazado_105861" data-name="Trazado 105861" d="M3788.638,1859.892c.064-.467.165-1.16.295-1.925.036-.214.1-.583.314-.642a.339.339,0,0,1,.254.056c.478.283.547,2.153.558,2.483l-1.149.085Z" transform="translate(-3767.153 -1824.782)" fill="#fc766b"/>
    </g>
    <ellipse id="Elipse_4056" data-name="Elipse 4056" cx="12.35" cy="12.356" rx="12.35" ry="12.356" transform="translate(2080.808 870.555)" fill="url(#linear-gradient)"/>
    <ellipse id="Elipse_4057" data-name="Elipse 4057" cx="6.544" cy="6.541" rx="6.544" ry="6.541" transform="matrix(0.003, -1, 1, 0.003, 2103.354, 911.181)" fill="url(#linear-gradient-3)"/>
    <path id="Trazado_105862" data-name="Trazado 105862" d="M2560.489,993.565a1.751,1.751,0,0,1,.54-.981c.178-.153.317-.2,1.385-.427a17.189,17.189,0,0,1,1.837-.239c.195-.018.493-.041.647.143a.457.457,0,0,1,.083.375.558.558,0,0,1-.417.411l-1.5.344,4.3.115a.451.451,0,0,1,.049.9l-2.394.14,2.379.249a.466.466,0,1,1,.008.93l-2.372-.022,2.272.328a.5.5,0,0,1,.384.476.506.506,0,0,1-.582.448l-2.258-.124,2.089.271a.46.46,0,0,1-.149.842c-2.534-.167-4.413-.338-5.083-.424a2,2,0,0,1-.835-.283,1.911,1.911,0,0,1-.616-.626c-.348.005-.735.009-1.144.012l.228-3.067C2559.723,993.425,2560.111,993.493,2560.489,993.565Z" transform="translate(-493.798 -211.396)" fill="#fc766b"/>
    <path id="Trazado_105863" data-name="Trazado 105863" d="M2438.478,868.023a14.052,14.052,0,0,1,2.409,2.06,16.134,16.134,0,0,1,4.021,10.2l9.543,6.411-1.792,3.633-12.29-.79Q2439.423,878.781,2438.478,868.023Z" transform="translate(-390.359 -105.174)" fill="#265287"/>
    <path id="Trazado_105864" data-name="Trazado 105864" d="M2594.6,1318.416q.348-4.038.695-8.076l-4.471-.163,1.3,8.576Z" transform="translate(-520.988 -484.293)" fill="#fc766b"/>
    <path id="Trazado_105865" data-name="Trazado 105865" d="M2599.9,1365.652a31,31,0,0,0,3.646-.263.8.8,0,0,0-.24-.23c-1.777-.935-3.154-1.66-4.034-2.142l-1.339-.6c-.654-.3-.989-.462-1.325-.328-.24.1-.2.231-.546.423a1.357,1.357,0,0,1-.978.2,1.22,1.22,0,0,1-.691-.484s-1.437.863-.732,3.1c.349.057.845.132,1.442.2A31.2,31.2,0,0,0,2599.9,1365.652Z" transform="translate(-523.251 -528.764)" fill="#fff"/>
    <path id="Trazado_105866" data-name="Trazado 105866" d="M2603.65,1385.141a42.866,42.866,0,0,1-8.442.136c-.6-.066-1.094-.141-1.442-.2,0,0-.6.746.4,1.289l9.539-.484a.777.777,0,0,0,.032-.568A.758.758,0,0,0,2603.65,1385.141Z" transform="translate(-523.357 -548.516)" fill="#312b30"/>
    <path id="Trazado_105867" data-name="Trazado 105867" d="M2376.728,1083.809l-3.7-23.251c-5.16-.453-9.563-.866-12.977-1.2-11.678-1.129-14.451-1.479-16.6-3.742-1.063-1.12-3.641-4.463-2.337-12.444l14.846-5.07,4.1,4.481c2.549.276,6.27.73,10.751,1.469,10.02,1.653,12.245,2.593,13.677,4.4,1.955,2.471,1.785,5.618,1.489,8.83a153.366,153.366,0,0,1-4.964,26.564Z" transform="translate(-306.566 -251.008)" fill="#404040"/>
    <path id="Trazado_105868" data-name="Trazado 105868" d="M2340.736,878.543c.035,2.4.074,6.252.041,11.151a36.3,36.3,0,0,0,19.7-5.385c.009-2.344-.041-4.343-.1-5.893-.082-2.155-.2-4.043-.454-6.579-.086-.844-.214-1.794-.418-2.938-.515-2.887-1.137-4.9-2.632-6.761a11.4,11.4,0,0,0-2.326-2.181c-1.005-.136-2.069-.312-3.183-.538-1.142-.232-2.216-.493-3.216-.768a7.29,7.29,0,0,0-3.98,1.843,6.421,6.421,0,0,0-.5.572C2340.541,865.139,2340.736,878.543,2340.736,878.543Z" transform="translate(-306.549 -97.138)" fill="#2e5ea0"/>
    <path id="Trazado_105869" data-name="Trazado 105869" d="M2391.765,825.816a8.494,8.494,0,0,1,5.95,2.148l-.431,3.865a7.788,7.788,0,0,1-6.849-1.123Q2391.1,828.261,2391.765,825.816Z" transform="translate(-349.165 -68.98)" fill="#fc766b"/>
    <path id="Trazado_105870" data-name="Trazado 105870" d="M2416.623,837.926a1.729,1.729,0,0,0-.5-.128l-.162-.486a3.807,3.807,0,0,0-2.218-1,3.56,3.56,0,0,0-1.129.088,3.977,3.977,0,0,0,.624,2.09,4.346,4.346,0,0,0,3.123,1.8Q2416.491,839.105,2416.623,837.926Z" transform="translate(-368.181 -77.972)" fill="#f45b53"/>
    <path id="Trazado_105871" data-name="Trazado 105871" d="M2347.945,885.063l2.042,10.473,10.441,6.926c.036,1.293.06,2.8.054,4.493a36.623,36.623,0,0,1-3.781,2.027c-4.254-.412-11.676-1.575-15.931-4.81-.01-1.155-.022-2.157-.034-2.983a76.107,76.107,0,0,1,.551-9.568A44.129,44.129,0,0,1,2347.945,885.063Z" transform="translate(-306.55 -119.784)" fill="#265287"/>
    <path id="Trazado_105872" data-name="Trazado 105872" d="M2391.243,752.181a3.456,3.456,0,0,0,1.4-1.533,3.576,3.576,0,0,0-.059-2.922,3.654,3.654,0,0,0-.95-1.21c-2.458-2.08-6.91-.755-7.6-.549a7.341,7.341,0,0,0-3.1,1.454,7.441,7.441,0,0,0-2.175,5.948c.04.5.366,4.318,3.2,5.535a5.186,5.186,0,0,0,2.649.364C2388.99,758.714,2391.13,752.522,2391.243,752.181Z" transform="translate(-339.144)" fill="#765742"/>
    <path id="Trazado_105873" data-name="Trazado 105873" d="M2408.056,788.665a1.281,1.281,0,0,1-.9-.306,1.932,1.932,0,0,1,.407-2.646.958.958,0,0,1,.611-.05.778.778,0,0,1,.271.156,2.031,2.031,0,0,1,.479,1.348l.43-.248a3.534,3.534,0,0,1,6.114-3.072c.1.593.179,1.222.243,1.883.088.912.129,1.771.138,2.57a.632.632,0,0,1,.192.5c-.035.177-.185.237-.333.438a1.435,1.435,0,0,0-.234.672,16.189,16.189,0,0,1-.835,2.717c-.342.822-.513,1.233-.83,1.449-1.41.961-4.124-1.238-5.171-2.086-.468-.379-1.1-.965-1.05-1.612a5.8,5.8,0,0,1,.188-.762C2407.882,789.219,2407.984,788.891,2408.056,788.665Z" transform="translate(-363.181 -31.961)" fill="#fc766b"/>
    <path id="Trazado_105874" data-name="Trazado 105874" d="M2452.063,842.869a1.742,1.742,0,0,0,1.383,1.928c.053-.144.109-.3.172-.482.1-.292.235-.732.357-1.2Z" transform="translate(-401.995 -83.606)" fill="#fff"/>
    <path id="Trazado_105875" data-name="Trazado 105875" d="M2498.736,1019.876a.559.559,0,0,0,.492-.318.46.46,0,0,0-.005-.384c-.113-.211-.41-.249-.6-.271a17.114,17.114,0,0,0-1.848-.137c-1.092.01-1.238.024-1.442.138a1.751,1.751,0,0,0-.727.852l2.6.154Z" transform="translate(-438.481 -234.426)" fill="#fc766b"/>
    <g id="Grupo_55876" data-name="Grupo 55876" transform="translate(2058.936 770.615)">
      <g id="Grupo_55875" data-name="Grupo 55875" transform="translate(0 0)">
        <path id="Trazado_105876" data-name="Trazado 105876" d="M2530.363,922.495a16.02,16.02,0,1,0,16.012,16.02A16.016,16.016,0,0,0,2530.363,922.495Zm-5.374,23.9a3.131,3.131,0,1,1,3.129-3.131A3.13,3.13,0,0,1,2524.989,946.391Zm0-9.489a3.131,3.131,0,1,1,3.129-3.131A3.13,3.13,0,0,1,2524.989,936.9Zm10.749,9.489a3.131,3.131,0,1,1,3.13-3.131A3.13,3.13,0,0,1,2535.737,946.391Zm0-9.489a3.131,3.131,0,1,1,3.13-3.131A3.13,3.13,0,0,1,2535.737,936.9Z" transform="translate(-2514.351 -922.495)" fill="#fed65d"/>
      </g>
    </g>
    <path id="Trazado_105877" data-name="Trazado 105877" d="M2489.829,1024.2l-4.19-.983-2.6-.154c-.355-.147-.722-.293-1.08-.439l-.843,2.958c.4.08.781.154,1.123.219a1.915,1.915,0,0,0,.478.738,2,2,0,0,0,.761.446c.639.22,2.445.767,4.893,1.443a.46.46,0,0,0,.316-.794l-1.991-.688,2.187.579a.506.506,0,0,0,.661-.321.5.5,0,0,0-.28-.544l-2.159-.78,2.318.5a.466.466,0,1,0,.18-.913l-2.28-.725,2.372.347a.451.451,0,0,0,.134-.891Z" transform="translate(-426.918 -237.738)" fill="#fc766b"/>
    <path id="Trazado_105878" data-name="Trazado 105878" d="M2333.939,859.064a11.146,11.146,0,0,0-2.623.147s-.275.048-.665.143a13.817,13.817,0,0,0-1.36.416c-.472.176-3.063,1.915-4.153,7.172-.553,2.669-1.948,9.4,2.025,13.536,1.678,1.748,4.074,2.361,8.8,3.515a66.448,66.448,0,0,0,11.186,1.745l.85-3.451-13.262-8.131Q2334.337,866.61,2333.939,859.064Z" transform="translate(-292.583 -97.474)" fill="#2e5ea0"/>
    <g id="Grupo_55881" data-name="Grupo 55881" transform="translate(2007.357 983.685)">
      <path id="Trazado_105879" data-name="Trazado 105879" d="M2182.39,2597.715a3.679,3.679,0,0,1,1.851,2.261,3.529,3.529,0,0,1-.407,2.363c-1.83,3.645-8.891,4.837-10.382,5.089a30.025,30.025,0,0,1-8.465.226,23.8,23.8,0,0,1-9.456-2.884,21.731,21.731,0,0,1-2.374-1.565,3.974,3.974,0,0,1-.475-3.01,3.863,3.863,0,0,1,1.933-2.158C2158.168,2596.013,2182.39,2597.715,2182.39,2597.715Z" transform="translate(-2152.55 -2571.388)" fill="#f7c341"/>
      <path id="Trazado_105880" data-name="Trazado 105880" d="M2169.954,2441.249c8.966,2.18,15.275.582,17.665-.25,2.184,4.724,5.688,24.914,5.688,24.914a8.432,8.432,0,0,1-1.506,1.928,8.714,8.714,0,0,1-1.894,1.36,13.874,13.874,0,0,1-4.757,1.488,54,54,0,0,1-12.019.14,13.876,13.876,0,0,1-4.791-1.377,8.746,8.746,0,0,1-1.925-1.315,8.442,8.442,0,0,1-1.55-1.893S2167.881,2446.105,2169.954,2441.249Z" transform="translate(-2163.11 -2437.587)" fill="#fed65d"/>
      <path id="Trazado_105881" data-name="Trazado 105881" d="M2200.558,2420.733a4.544,4.544,0,0,1,.343-.673,3.3,3.3,0,0,1,1.222-1.638,6.372,6.372,0,0,1,2.024-.667c.542-.129.941-.224,1.593-.33a21.3,21.3,0,0,1,7.245-.084c.655.091,1.056.176,1.6.293a6.377,6.377,0,0,1,2.038.62,3.3,3.3,0,0,1,1.26,1.61,4.42,4.42,0,0,1,.338.62C2215.833,2421.315,2209.524,2422.913,2200.558,2420.733Z" transform="translate(-2193.714 -2417.072)" fill="#f9db91"/>
      <g id="Grupo_55878" data-name="Grupo 55878" transform="translate(8.669 0.357)">
        <g id="Grupo_55877" data-name="Grupo 55877">
          <path id="Trazado_105882" data-name="Trazado 105882" d="M2261.779,2434.117c0,.217.356.389.79.384s.783-.185.78-.4-.356-.389-.79-.384S2261.777,2433.9,2261.779,2434.117Z" transform="translate(-2254.876 -2431.7)" fill="#f7c341"/>
          <path id="Trazado_105883" data-name="Trazado 105883" d="M2241.849,2435.564c0,.217.356.389.79.384s.783-.185.781-.4-.356-.388-.79-.383S2241.847,2435.347,2241.849,2435.564Z" transform="translate(-2237.787 -2432.941)" fill="#f7c341"/>
          <path id="Trazado_105884" data-name="Trazado 105884" d="M2225.445,2433c0,.217.356.389.79.384s.783-.185.78-.4-.356-.389-.79-.384S2225.443,2432.782,2225.445,2433Z" transform="translate(-2223.722 -2430.741)" fill="#f7c341"/>
          <path id="Trazado_105885" data-name="Trazado 105885" d="M2244,2428.539c0,.217.356.389.79.384s.783-.185.781-.4-.356-.389-.79-.384S2244,2428.322,2244,2428.539Z" transform="translate(-2239.631 -2426.917)" fill="#f7c341"/>
          <path id="Trazado_105886" data-name="Trazado 105886" d="M2251.379,2422.943c0,.217.356.389.79.384s.783-.185.781-.4-.356-.389-.79-.384S2251.376,2422.726,2251.379,2422.943Z" transform="translate(-2245.958 -2422.119)" fill="#f7c341"/>
          <path id="Trazado_105887" data-name="Trazado 105887" d="M2264.955,2425.541c0,.217.356.389.79.384s.783-.185.781-.4-.356-.389-.79-.384S2264.953,2425.324,2264.955,2425.541Z" transform="translate(-2257.599 -2424.346)" fill="#f7c341"/>
          <path id="Trazado_105888" data-name="Trazado 105888" d="M2277.06,2429.645c0,.217.356.388.79.383s.783-.185.781-.4-.356-.389-.79-.384S2277.058,2429.428,2277.06,2429.645Z" transform="translate(-2267.979 -2427.865)" fill="#f7c341"/>
          <path id="Trazado_105889" data-name="Trazado 105889" d="M2284.884,2424.043c0,.217.356.389.79.384s.783-.185.78-.4-.356-.389-.79-.383S2284.881,2423.826,2284.884,2424.043Z" transform="translate(-2274.687 -2423.062)" fill="#f7c341"/>
          <path id="Trazado_105890" data-name="Trazado 105890" d="M2234.23,2420.387c0,.217.356.388.79.384s.783-.185.781-.4-.356-.389-.79-.384S2234.228,2420.17,2234.23,2420.387Z" transform="translate(-2231.254 -2419.927)" fill="#f7c341"/>
          <path id="Trazado_105891" data-name="Trazado 105891" d="M2230.871,2425.936c0,.217.356.388.79.384s.783-.185.781-.4-.356-.389-.79-.384S2230.869,2425.719,2230.871,2425.936Z" transform="translate(-2228.374 -2424.685)" fill="#f7c341"/>
          <path id="Trazado_105892" data-name="Trazado 105892" d="M2213.357,2430.384c0,.217.356.389.79.384s.783-.185.781-.4-.356-.388-.79-.384S2213.354,2430.167,2213.357,2430.384Z" transform="translate(-2213.357 -2428.499)" fill="#f7c341"/>
          <path id="Trazado_105893" data-name="Trazado 105893" d="M2269.356,2419.979c0,.217.356.388.79.384s.783-.185.781-.4-.356-.389-.79-.384S2269.354,2419.762,2269.356,2419.979Z" transform="translate(-2261.373 -2419.577)" fill="#f7c341"/>
          <path id="Trazado_105894" data-name="Trazado 105894" d="M2293.446,2430.72c0,.217.356.389.79.384s.783-.185.781-.4-.356-.388-.79-.384S2293.443,2430.5,2293.446,2430.72Z" transform="translate(-2282.028 -2428.787)" fill="#f7c341"/>
        </g>
      </g>
      <g id="Grupo_55880" data-name="Grupo 55880" transform="translate(4.557 4.497)">
        <g id="Grupo_55879" data-name="Grupo 55879">
          <path id="Trazado_105895" data-name="Trazado 105895" d="M2267.858,2481.079a.785.785,0,1,0,.776-.794A.785.785,0,0,0,2267.858,2481.079Z" transform="translate(-2255.977 -2475.77)" fill="#edae21"/>
          <path id="Trazado_105896" data-name="Trazado 105896" d="M2261.313,2494.261a.785.785,0,1,0,.776-.794A.786.786,0,0,0,2261.313,2494.261Z" transform="translate(-2250.364 -2487.073)" fill="#edae21"/>
          <path id="Trazado_105897" data-name="Trazado 105897" d="M2250.146,2481.285a.785.785,0,1,0,.776-.794A.785.785,0,0,0,2250.146,2481.285Z" transform="translate(-2240.79 -2475.947)" fill="#edae21"/>
          <path id="Trazado_105898" data-name="Trazado 105898" d="M2232.867,2480.145a.785.785,0,1,0,.776-.794A.785.785,0,0,0,2232.867,2480.145Z" transform="translate(-2225.973 -2474.969)" fill="#edae21"/>
          <path id="Trazado_105899" data-name="Trazado 105899" d="M2224.076,2466.545a.785.785,0,1,0,.776-.795A.785.785,0,0,0,2224.076,2466.545Z" transform="translate(-2218.436 -2463.308)" fill="#edae21"/>
          <path id="Trazado_105900" data-name="Trazado 105900" d="M2241.354,2467.536a.785.785,0,1,0,.776-.794A.785.785,0,0,0,2241.354,2467.536Z" transform="translate(-2233.25 -2464.158)" fill="#edae21"/>
          <path id="Trazado_105901" data-name="Trazado 105901" d="M2258.784,2468.823a.785.785,0,1,0,.776-.795A.785.785,0,0,0,2258.784,2468.823Z" transform="translate(-2248.196 -2465.261)" fill="#edae21"/>
          <path id="Trazado_105902" data-name="Trazado 105902" d="M2210.656,2464.616a.785.785,0,1,0,.776-.795A.785.785,0,0,0,2210.656,2464.616Z" transform="translate(-2206.929 -2461.654)" fill="#edae21"/>
          <path id="Trazado_105903" data-name="Trazado 105903" d="M2216.329,2478.848a.785.785,0,1,0,.776-.794A.785.785,0,0,0,2216.329,2478.848Z" transform="translate(-2211.793 -2473.857)" fill="#edae21"/>
          <path id="Trazado_105904" data-name="Trazado 105904" d="M2208.568,2489.959a.785.785,0,1,0,.776-.795A.785.785,0,0,0,2208.568,2489.959Z" transform="translate(-2205.139 -2483.384)" fill="#edae21"/>
          <path id="Trazado_105905" data-name="Trazado 105905" d="M2200.076,2502.269a.785.785,0,1,0,.776-.795A.786.786,0,0,0,2200.076,2502.269Z" transform="translate(-2197.858 -2493.939)" fill="#edae21"/>
          <path id="Trazado_105906" data-name="Trazado 105906" d="M2224.377,2492.6a.785.785,0,1,0,.776-.794A.785.785,0,0,0,2224.377,2492.6Z" transform="translate(-2218.694 -2485.653)" fill="#edae21"/>
          <path id="Trazado_105907" data-name="Trazado 105907" d="M2214.236,2503.744a.785.785,0,1,0,.776-.794A.785.785,0,0,0,2214.236,2503.744Z" transform="translate(-2209.999 -2495.204)" fill="#edae21"/>
          <path id="Trazado_105908" data-name="Trazado 105908" d="M2242.535,2492.394a.785.785,0,1,0,.776-.795A.785.785,0,0,0,2242.535,2492.394Z" transform="translate(-2234.264 -2485.472)" fill="#edae21"/>
          <path id="Trazado_105909" data-name="Trazado 105909" d="M2233.162,2505.608a.785.785,0,1,0,.776-.794A.786.786,0,0,0,2233.162,2505.608Z" transform="translate(-2226.226 -2496.802)" fill="#edae21"/>
          <path id="Trazado_105910" data-name="Trazado 105910" d="M2252.383,2507.173a.785.785,0,1,0,.776-.794A.785.785,0,0,0,2252.383,2507.173Z" transform="translate(-2242.707 -2498.144)" fill="#edae21"/>
          <path id="Trazado_105911" data-name="Trazado 105911" d="M2272.455,2505.152a.785.785,0,1,0,.776-.795A.785.785,0,0,0,2272.455,2505.152Z" transform="translate(-2259.917 -2496.411)" fill="#edae21"/>
          <path id="Trazado_105912" data-name="Trazado 105912" d="M2279.024,2494.056a.785.785,0,1,0,.776-.794A.785.785,0,0,0,2279.024,2494.056Z" transform="translate(-2265.551 -2486.897)" fill="#edae21"/>
          <path id="Trazado_105913" data-name="Trazado 105913" d="M2285.555,2479.533a.785.785,0,1,0,.776-.795A.785.785,0,0,0,2285.555,2479.533Z" transform="translate(-2271.15 -2474.445)" fill="#edae21"/>
          <path id="Trazado_105914" data-name="Trazado 105914" d="M2289.726,2466.975a.785.785,0,1,0,.776-.795A.786.786,0,0,0,2289.726,2466.975Z" transform="translate(-2274.726 -2463.677)" fill="#edae21"/>
          <path id="Trazado_105915" data-name="Trazado 105915" d="M2280.817,2456.962a.637.637,0,1,0,.629-.644A.637.637,0,0,0,2280.817,2456.962Z" transform="translate(-2267.088 -2455.22)" fill="#edae21"/>
          <path id="Trazado_105916" data-name="Trazado 105916" d="M2266.371,2456.385a.637.637,0,1,0,.629-.644A.637.637,0,0,0,2266.371,2456.385Z" transform="translate(-2254.701 -2454.725)" fill="#edae21"/>
          <path id="Trazado_105917" data-name="Trazado 105917" d="M2250.892,2456.564a.637.637,0,1,0,.629-.644A.636.636,0,0,0,2250.892,2456.564Z" transform="translate(-2241.429 -2454.879)" fill="#edae21"/>
          <path id="Trazado_105918" data-name="Trazado 105918" d="M2233.62,2456.169a.637.637,0,1,0,.629-.645A.636.636,0,0,0,2233.62,2456.169Z" transform="translate(-2226.619 -2454.54)" fill="#edae21"/>
          <path id="Trazado_105919" data-name="Trazado 105919" d="M2219.464,2454.844a.637.637,0,1,0,.629-.644A.637.637,0,0,0,2219.464,2454.844Z" transform="translate(-2214.481 -2453.404)" fill="#edae21"/>
          <path id="Trazado_105920" data-name="Trazado 105920" d="M2206.034,2452.022a.637.637,0,1,0,.629-.644A.637.637,0,0,0,2206.034,2452.022Z" transform="translate(-2202.966 -2450.984)" fill="#edae21"/>
          <path id="Trazado_105921" data-name="Trazado 105921" d="M2199.6,2462.373a.637.637,0,1,0,.629-.644A.637.637,0,0,0,2199.6,2462.373Z" transform="translate(-2197.452 -2459.86)" fill="#edae21"/>
          <path id="Trazado_105922" data-name="Trazado 105922" d="M2203.928,2475.875a.637.637,0,1,0,.629-.644A.637.637,0,0,0,2203.928,2475.875Z" transform="translate(-2201.16 -2471.437)" fill="#edae21"/>
          <path id="Trazado_105923" data-name="Trazado 105923" d="M2192.425,2472.285a.637.637,0,1,0,.629-.645A.637.637,0,0,0,2192.425,2472.285Z" transform="translate(-2191.297 -2468.359)" fill="#edae21"/>
          <path id="Trazado_105924" data-name="Trazado 105924" d="M2196.466,2486.983a.637.637,0,1,0,.629-.644A.637.637,0,0,0,2196.466,2486.983Z" transform="translate(-2194.762 -2480.961)" fill="#edae21"/>
          <path id="Trazado_105925" data-name="Trazado 105925" d="M2189.751,2498.379a.637.637,0,1,0,.629-.644A.637.637,0,0,0,2189.751,2498.379Z" transform="translate(-2189.004 -2490.733)" fill="#edae21"/>
          <path id="Trazado_105926" data-name="Trazado 105926" d="M2184.514,2508.865a.637.637,0,1,0,.629-.645A.637.637,0,0,0,2184.514,2508.865Z" transform="translate(-2184.514 -2499.724)" fill="#edae21"/>
          <path id="Trazado_105927" data-name="Trazado 105927" d="M2195.442,2514.249a.637.637,0,1,0,.629-.644A.637.637,0,0,0,2195.442,2514.249Z" transform="translate(-2193.884 -2504.34)" fill="#edae21"/>
          <path id="Trazado_105928" data-name="Trazado 105928" d="M2207.818,2516.041a.637.637,0,1,0,.629-.644A.637.637,0,0,0,2207.818,2516.041Z" transform="translate(-2204.496 -2505.877)" fill="#edae21"/>
          <path id="Trazado_105929" data-name="Trazado 105929" d="M2225.708,2518.365a.637.637,0,1,0,.629-.645A.637.637,0,0,0,2225.708,2518.365Z" transform="translate(-2219.835 -2507.869)" fill="#edae21"/>
          <path id="Trazado_105930" data-name="Trazado 105930" d="M2216.909,2529.786a.637.637,0,1,0,.629-.644A.637.637,0,0,0,2216.909,2529.786Z" transform="translate(-2212.291 -2517.662)" fill="#edae21"/>
          <path id="Trazado_105931" data-name="Trazado 105931" d="M2208.1,2540.612a.637.637,0,1,0,.629-.644A.637.637,0,0,0,2208.1,2540.612Z" transform="translate(-2204.74 -2526.945)" fill="#edae21"/>
          <path id="Trazado_105932" data-name="Trazado 105932" d="M2226.022,2545.467a.637.637,0,1,0,.629-.644A.637.637,0,0,0,2226.022,2545.467Z" transform="translate(-2220.104 -2531.108)" fill="#edae21"/>
          <path id="Trazado_105933" data-name="Trazado 105933" d="M2237.63,2532.355a.637.637,0,1,0,.629-.644A.637.637,0,0,0,2237.63,2532.355Z" transform="translate(-2230.057 -2519.865)" fill="#edae21"/>
          <path id="Trazado_105934" data-name="Trazado 105934" d="M2244.935,2520.525a.637.637,0,1,0,.629-.644A.637.637,0,0,0,2244.935,2520.525Z" transform="translate(-2236.321 -2509.721)" fill="#edae21"/>
          <path id="Trazado_105935" data-name="Trazado 105935" d="M2256.1,2533.8a.637.637,0,1,0,.629-.644A.637.637,0,0,0,2256.1,2533.8Z" transform="translate(-2245.899 -2521.103)" fill="#edae21"/>
          <path id="Trazado_105936" data-name="Trazado 105936" d="M2246.418,2545.657a.637.637,0,1,0,.629-.644A.637.637,0,0,0,2246.418,2545.657Z" transform="translate(-2237.593 -2531.271)" fill="#edae21"/>
          <path id="Trazado_105937" data-name="Trazado 105937" d="M2265.939,2521.751a.636.636,0,1,0,.629-.644A.637.637,0,0,0,2265.939,2521.751Z" transform="translate(-2254.331 -2510.772)" fill="#edae21"/>
          <path id="Trazado_105938" data-name="Trazado 105938" d="M2277.239,2533.553a.637.637,0,1,0,.629-.645A.637.637,0,0,0,2277.239,2533.553Z" transform="translate(-2264.02 -2520.892)" fill="#edae21"/>
          <path id="Trazado_105939" data-name="Trazado 105939" d="M2268.441,2544.975a.637.637,0,1,0,.629-.644A.637.637,0,0,0,2268.441,2544.975Z" transform="translate(-2256.476 -2530.686)" fill="#edae21"/>
          <circle id="Elipse_4058" data-name="Elipse 4058" cx="0.637" cy="0.637" r="0.637" transform="translate(14.646 14.791) rotate(-88.922)" fill="#edae21"/>
          <path id="Trazado_105940" data-name="Trazado 105940" d="M2296.4,2530.333a.637.637,0,1,0,.629-.644A.637.637,0,0,0,2296.4,2530.333Z" transform="translate(-2280.453 -2518.131)" fill="#edae21"/>
          <path id="Trazado_105941" data-name="Trazado 105941" d="M2284.228,2520.069a.637.637,0,1,0,.629-.644A.637.637,0,0,0,2284.228,2520.069Z" transform="translate(-2270.012 -2509.33)" fill="#edae21"/>
          <path id="Trazado_105942" data-name="Trazado 105942" d="M2301.615,2517.484a.637.637,0,1,0,.629-.644A.637.637,0,0,0,2301.615,2517.484Z" transform="translate(-2284.921 -2507.114)" fill="#edae21"/>
          <path id="Trazado_105943" data-name="Trazado 105943" d="M2306.354,2541.109a.637.637,0,1,0,.629-.644A.636.636,0,0,0,2306.354,2541.109Z" transform="translate(-2288.984 -2527.371)" fill="#edae21"/>
          <path id="Trazado_105944" data-name="Trazado 105944" d="M2311.856,2527.79a.637.637,0,1,0,.629-.644A.637.637,0,0,0,2311.856,2527.79Z" transform="translate(-2293.702 -2515.951)" fill="#edae21"/>
          <path id="Trazado_105945" data-name="Trazado 105945" d="M2320.888,2536.472a.637.637,0,1,0,.629-.644A.637.637,0,0,0,2320.888,2536.472Z" transform="translate(-2301.446 -2523.395)" fill="#edae21"/>
          <path id="Trazado_105946" data-name="Trazado 105946" d="M2333.053,2532.906a.637.637,0,1,0,.629-.644A.637.637,0,0,0,2333.053,2532.906Z" transform="translate(-2311.877 -2520.337)" fill="#edae21"/>
          <path id="Trazado_105947" data-name="Trazado 105947" d="M2324.02,2524.075a.637.637,0,1,0,.629-.644A.637.637,0,0,0,2324.02,2524.075Z" transform="translate(-2304.132 -2512.765)" fill="#edae21"/>
          <path id="Trazado_105948" data-name="Trazado 105948" d="M2316.148,2512.847a.637.637,0,1,0,.629-.645A.637.637,0,0,0,2316.148,2512.847Z" transform="translate(-2297.382 -2503.138)" fill="#edae21"/>
          <path id="Trazado_105949" data-name="Trazado 105949" d="M2307.122,2504.612a.637.637,0,1,0,.629-.644A.637.637,0,0,0,2307.122,2504.612Z" transform="translate(-2289.643 -2496.077)" fill="#edae21"/>
          <path id="Trazado_105950" data-name="Trazado 105950" d="M2311.42,2490.116a.637.637,0,1,0,.629-.644A.637.637,0,0,0,2311.42,2490.116Z" transform="translate(-2293.328 -2483.647)" fill="#edae21"/>
          <path id="Trazado_105951" data-name="Trazado 105951" d="M2301.165,2478.767a.637.637,0,1,0,.629-.644A.637.637,0,0,0,2301.165,2478.767Z" transform="translate(-2284.535 -2473.917)" fill="#edae21"/>
          <path id="Trazado_105952" data-name="Trazado 105952" d="M2319.295,2501.79a.637.637,0,1,0,.629-.644A.637.637,0,0,0,2319.295,2501.79Z" transform="translate(-2300.08 -2493.657)" fill="#edae21"/>
          <path id="Trazado_105953" data-name="Trazado 105953" d="M2329.2,2508.824a.637.637,0,1,0,.629-.644A.637.637,0,0,0,2329.2,2508.824Z" transform="translate(-2308.574 -2499.688)" fill="#edae21"/>
          <path id="Trazado_105954" data-name="Trazado 105954" d="M2329.027,2493.784a.637.637,0,1,0,.629-.644A.637.637,0,0,0,2329.027,2493.784Z" transform="translate(-2308.425 -2486.792)" fill="#edae21"/>
          <path id="Trazado_105955" data-name="Trazado 105955" d="M2322.054,2482.993a.637.637,0,1,0,.629-.644A.637.637,0,0,0,2322.054,2482.993Z" transform="translate(-2302.446 -2477.54)" fill="#edae21"/>
          <path id="Trazado_105956" data-name="Trazado 105956" d="M2313.913,2474.151a.637.637,0,1,0,.629-.644A.637.637,0,0,0,2313.913,2474.151Z" transform="translate(-2295.466 -2469.959)" fill="#edae21"/>
          <path id="Trazado_105957" data-name="Trazado 105957" d="M2304.881,2465.469a.637.637,0,1,0,.629-.645A.637.637,0,0,0,2304.881,2465.469Z" transform="translate(-2287.721 -2462.514)" fill="#edae21"/>
          <path id="Trazado_105958" data-name="Trazado 105958" d="M2295.543,2456.046a.637.637,0,1,0,.629-.644A.637.637,0,0,0,2295.543,2456.046Z" transform="translate(-2279.714 -2454.435)" fill="#edae21"/>
          <path id="Trazado_105959" data-name="Trazado 105959" d="M2307.118,2452.933a.637.637,0,1,0,.629-.644A.637.637,0,0,0,2307.118,2452.933Z" transform="translate(-2289.639 -2451.766)" fill="#edae21"/>
          <path id="Trazado_105960" data-name="Trazado 105960" d="M2315.411,2449.262a.637.637,0,1,0,.629-.645A.637.637,0,0,0,2315.411,2449.262Z" transform="translate(-2296.75 -2448.618)" fill="#edae21"/>
          <path id="Trazado_105961" data-name="Trazado 105961" d="M2317.363,2463.537a.637.637,0,1,0,.629-.644A.637.637,0,0,0,2317.363,2463.537Z" transform="translate(-2298.424 -2460.858)" fill="#edae21"/>
          <path id="Trazado_105962" data-name="Trazado 105962" d="M2200.353,2526.98a.637.637,0,1,0,.629-.644A.637.637,0,0,0,2200.353,2526.98Z" transform="translate(-2198.095 -2515.256)" fill="#edae21"/>
          <path id="Trazado_105963" data-name="Trazado 105963" d="M2193.18,2537.34a.637.637,0,1,0,.629-.644A.637.637,0,0,0,2193.18,2537.34Z" transform="translate(-2191.944 -2524.139)" fill="#edae21"/>
          <path id="Trazado_105964" data-name="Trazado 105964" d="M2187.948,2522.656a.637.637,0,1,0,.629-.645A.637.637,0,0,0,2187.948,2522.656Z" transform="translate(-2187.458 -2511.549)" fill="#edae21"/>
          <path id="Trazado_105965" data-name="Trazado 105965" d="M2274.413,2468.642a.785.785,0,1,0,.776-.795A.786.786,0,0,0,2274.413,2468.642Z" transform="translate(-2261.596 -2465.106)" fill="#edae21"/>
          <path id="Trazado_105966" data-name="Trazado 105966" d="M2295.819,2491.775a.785.785,0,1,0,.776-.795A.785.785,0,0,0,2295.819,2491.775Z" transform="translate(-2279.951 -2484.941)" fill="#edae21"/>
          <path id="Trazado_105967" data-name="Trazado 105967" d="M2289.571,2504.954a.785.785,0,1,0,.776-.794A.786.786,0,0,0,2289.571,2504.954Z" transform="translate(-2274.594 -2496.241)" fill="#edae21"/>
        </g>
      </g>
    </g>
  </g>
</svg>
