<svg xmlns="http://www.w3.org/2000/svg" width="138" height="223.317" viewBox="0 0 138 223.317">
  <g id="Grupo_1069623" data-name="Grupo 1069623" transform="translate(-929 -992.927)">
    <path id="Trazado_773601" data-name="Trazado 773601" d="M45.976,22h-8.4V8h8.076v2.568H40.731V13.68h4.58v2.559h-4.58v3.2h5.244Zm11.6,0H54.5V16.443q0-2.324-1.66-2.324a1.647,1.647,0,0,0-1.318.615A2.344,2.344,0,0,0,51,16.3V22H47.919V12H51v1.582h.039a3.536,3.536,0,0,1,3.213-1.826q3.32,0,3.32,4.121ZM69.8,22H66.718V20.623h-.039a3.46,3.46,0,0,1-3.1,1.621,3.791,3.791,0,0,1-3.018-1.323,5.478,5.478,0,0,1-1.143-3.7,5.962,5.962,0,0,1,1.26-3.975,4.109,4.109,0,0,1,3.3-1.494,2.808,2.808,0,0,1,2.7,1.387h.039V7.2H69.8Zm-3.027-4.863v-.752a2.366,2.366,0,0,0-.566-1.621,2,2,0,0,0-3.076.161,3.741,3.741,0,0,0-.576,2.212,3.237,3.237,0,0,0,.557,2.031,1.976,1.976,0,0,0,3.071-.039A3.134,3.134,0,0,0,66.776,17.137Zm10.391,5.107a5.376,5.376,0,0,1-3.931-1.4,5.081,5.081,0,0,1-1.431-3.8,5.081,5.081,0,0,1,1.484-3.882,5.609,5.609,0,0,1,4.014-1.4,5.311,5.311,0,0,1,3.906,1.4,4.981,4.981,0,0,1,1.416,3.706,5.288,5.288,0,0,1-1.46,3.936A5.435,5.435,0,0,1,77.167,22.244Zm.078-8.125a2.058,2.058,0,0,0-1.7.752A3.316,3.316,0,0,0,74.94,17q0,2.881,2.324,2.881,2.217,0,2.217-2.959Q79.481,14.119,77.245,14.119ZM100.507,22H97.431V16.3q0-2.178-1.6-2.178a1.471,1.471,0,0,0-1.24.654A2.689,2.689,0,0,0,94.11,16.4V22H91.024V16.238q0-2.119-1.572-2.119a1.507,1.507,0,0,0-1.265.625,2.75,2.75,0,0,0-.474,1.7V22H84.628V12h3.086v1.563h.039a3.789,3.789,0,0,1,3.232-1.807,2.88,2.88,0,0,1,2.9,1.865,3.7,3.7,0,0,1,3.359-1.865q3.262,0,3.262,4.023Zm7.207.244a5.376,5.376,0,0,1-3.931-1.4,5.081,5.081,0,0,1-1.431-3.8,5.081,5.081,0,0,1,1.484-3.882,5.609,5.609,0,0,1,4.014-1.4,5.311,5.311,0,0,1,3.906,1.4,4.981,4.981,0,0,1,1.416,3.706,5.288,5.288,0,0,1-1.46,3.936A5.435,5.435,0,0,1,107.714,22.244Zm.078-8.125a2.058,2.058,0,0,0-1.7.752A3.316,3.316,0,0,0,105.487,17q0,2.881,2.324,2.881,2.217,0,2.217-2.959Q110.028,14.119,107.792,14.119Zm13.906.664a2.677,2.677,0,0,0-1.3-.3,1.871,1.871,0,0,0-1.572.737,3.217,3.217,0,0,0-.566,2.007V22h-3.086V12h3.086v1.855h.039a2.67,2.67,0,0,1,2.637-2.031,1.987,1.987,0,0,1,.762.117Zm8.457-5.225a3.117,3.117,0,0,0-1.143-.234q-1.484,0-1.484,1.611V12h2.285v2.275h-2.285V22h-3.076V14.275h-1.68V12h1.68V10.76a3.6,3.6,0,0,1,1.113-2.754,4.246,4.246,0,0,1,3.027-1.045,5.317,5.317,0,0,1,1.563.2Zm5.908,12.686a5.376,5.376,0,0,1-3.931-1.4,5.081,5.081,0,0,1-1.431-3.8,5.081,5.081,0,0,1,1.484-3.882,5.609,5.609,0,0,1,4.014-1.4,5.311,5.311,0,0,1,3.906,1.4,4.981,4.981,0,0,1,1.416,3.706,5.288,5.288,0,0,1-1.46,3.936A5.435,5.435,0,0,1,136.063,22.244Zm.078-8.125a2.058,2.058,0,0,0-1.7.752A3.316,3.316,0,0,0,133.837,17q0,2.881,2.324,2.881,2.217,0,2.217-2.959Q138.378,14.119,136.142,14.119Zm6.729,7.617v-2.5a6.57,6.57,0,0,0,1.519.684,5.035,5.035,0,0,0,1.431.225,3.068,3.068,0,0,0,1.294-.225.726.726,0,0,0,.474-.684.632.632,0,0,0-.215-.488,2,2,0,0,0-.552-.342,6.262,6.262,0,0,0-.737-.264q-.4-.117-.771-.264a7.392,7.392,0,0,1-1.05-.483,3.034,3.034,0,0,1-.762-.6,2.361,2.361,0,0,1-.469-.791,3.157,3.157,0,0,1-.161-1.064,2.74,2.74,0,0,1,.366-1.445,2.991,2.991,0,0,1,.977-.991,4.462,4.462,0,0,1,1.4-.566,7.281,7.281,0,0,1,1.636-.181,9.076,9.076,0,0,1,1.348.1,10.058,10.058,0,0,1,1.348.3v2.383a4.87,4.87,0,0,0-1.255-.513,5.294,5.294,0,0,0-1.313-.171,2.91,2.91,0,0,0-.571.054,1.882,1.882,0,0,0-.474.156.87.87,0,0,0-.322.264.607.607,0,0,0-.117.366.677.677,0,0,0,.176.469,1.527,1.527,0,0,0,.459.337,4.531,4.531,0,0,0,.63.254q.347.112.688.229a8.951,8.951,0,0,1,1.113.469,3.559,3.559,0,0,1,.854.6,2.339,2.339,0,0,1,.547.8,3.2,3.2,0,0,1-.2,2.612,3.088,3.088,0,0,1-1.025,1.025,4.65,4.65,0,0,1-1.475.576,8.175,8.175,0,0,1-1.733.181A8.936,8.936,0,0,1,142.87,21.736Z" transform="translate(908 1194)" fill="#12263f"/>
    <path id="Trazado_773602" data-name="Trazado 773602" d="M65.5,0A65.5,65.5,0,1,1,0,65.5,65.5,65.5,0,0,1,65.5,0Z" transform="translate(936 1023.23)" fill="#f5947a"/>
    <g id="Grupo_55789" data-name="Grupo 55789" transform="translate(959.957 993.423)">
      <g id="Grupo_55787" data-name="Grupo 55787">
        <g id="Grupo_55786" data-name="Grupo 55786">
          <ellipse id="Elipse_4041" data-name="Elipse 4041" cx="41.543" cy="6.856" rx="41.543" ry="6.856" transform="translate(0 168.902)" fill="#8c757e" stroke="#8c757e" stroke-width="1" opacity="0.1"/>
          <g id="Grupo_55785" data-name="Grupo 55785" transform="translate(3.389)">
            <g id="Grupo_55763" data-name="Grupo 55763" transform="translate(0 25.631)">
              <g id="Grupo_55762" data-name="Grupo 55762">
                <path id="Trazado_105502" data-name="Trazado 105502" d="M133.664,186.878c-.19-1.061-.387-2.1-.6-3.128a88.376,88.376,0,0,0-3.5-12.412c-.548-1.469-1.1-2.8-1.673-3.985-.253-.527-.506-1.033-.759-1.5-4.027-7.408-11.14-6.852-15.9-7.148a10.116,10.116,0,0,1-3.085-.527,2.753,2.753,0,0,1-1.778-2.495c0-.028-.007-.063-.007-.091a7.2,7.2,0,0,1,.141-1.841,13.545,13.545,0,0,1,.766-2.418,17.054,17.054,0,0,1,.879-1.841H93.6a18.759,18.759,0,0,1,.829,1.722,13.463,13.463,0,0,1,.815,2.586,6.862,6.862,0,0,1,.148,1.588,3.575,3.575,0,0,1-.028.394,2.728,2.728,0,0,1-1.764,2.4,18.251,18.251,0,0,1-5.313.633,29.963,29.963,0,0,0-4.737.492S73.271,161.4,71.015,168.97q-.19.622-.4,1.265c-1.483,4.414-3.9,9.193-5.5,12.918-1.047,2.432-1.743,4.407-1.6,5.545.225,1.8,6.649,7.857,11.835,12.5.822.731,1.616,1.427,2.347,2.066,1.04.907,1.961,1.7,2.671,2.312a26.1,26.1,0,0,0,1.026,3.894,9.374,9.374,0,0,0,2.537,2.39c2.4,1.659,6.768,3.605,14.155,3.816h.035c.879.028,1.792.028,2.755,0a39.847,39.847,0,0,0,7.112-.8,24.091,24.091,0,0,0,9.959-4.287c.162-.126.316-.253.464-.372.267-.218.5-.436.717-.64.267-.253.5-.492.7-.71a1.826,1.826,0,0,0,.176-.218l.337-.028a20.62,20.62,0,0,0,1.37-5.721c.007-.07.014-.148.021-.218.611-6.508-3.381-10.7-4.758-14.668-.527-1.525,1.518-5.594,1.645-6.867,4.7,4.99,12.348,33.581,12.348,33.581h3.233C135.843,206.072,135.281,195.951,133.664,186.878Zm-53.4,11.674L77.777,195,75.9,192.3l-3.655-5.229a.488.488,0,0,1,.042-.611l4.667-5,4.941-5.292a.638.638,0,0,0-.084.45,13.6,13.6,0,0,0,.794,2.987c.1.267.19.52.274.745.183.485.309.808.309.808.176,1.5,1.813,4.379,1.265,5.953C83.35,190.3,81.031,193.793,80.265,198.552Z" transform="translate(-63.491 -149.495)" fill="#8c757e" stroke="#8c757e" stroke-width="1"/>
                <path id="Trazado_105503" data-name="Trazado 105503" d="M86.429,227.351a4.34,4.34,0,0,1-1.3-3.092c.174-1.666-.845-2.95,1.694-3.679V225.7Z" transform="translate(-69.904 -170.62)" fill="#8c757e" stroke="#8c757e" stroke-width="1"/>
                <path id="Trazado_105504" data-name="Trazado 105504" d="M120.823,193.936c.8.041,1.834.013,2.125.76.309.791-.627,1.512-1.457,1.691a5.228,5.228,0,0,1-2.286-.019c-1.26-.294-2.413-1.057-3.707-1.1-1.354-.041-2.582.713-3.844,1.2-1.326.517-5.046,1.534-5.7-.585-.468-1.517,1.6-1.666,2.671-1.974,1.955-.561,3.856-2.091,5.927-1.913C116.761,192.194,118.586,193.82,120.823,193.936Z" transform="translate(-76.09 -162.124)" fill="#8c757e" stroke="#8c757e" stroke-width="1"/>
                <path id="Trazado_105505" data-name="Trazado 105505" d="M82.5,185.394a3.84,3.84,0,0,1-1.033,1.307c-1.272,1.181-2.544,2.354-3.823,3.535l-.548.506a7.911,7.911,0,0,1-3.894,2.39,18.55,18.55,0,0,1-3.521-.211,6.838,6.838,0,0,0-3.612.9,7.585,7.585,0,0,1-.267-1.9c1.6-3.725,4.02-8.5,5.5-12.918a6.668,6.668,0,0,0,.274,2.776,2.365,2.365,0,0,0,.618,1.1,2.711,2.711,0,0,0,1.511.513,29.261,29.261,0,0,0,5.974.084c1.1-.091,2.558-.035,2.867,1.026A1.387,1.387,0,0,1,82.5,185.394Z" transform="translate(-64.177 -158.265)" fill="#8c757e" stroke="#8c757e" stroke-width="1"/>
                <path id="Trazado_105506" data-name="Trazado 105506" d="M87.318,211.205c.766-4.758,3.085-8.251,4.189-11.435.548-1.574-1.089-4.449-1.265-5.953l-.583-1.553c.457.344,1.392,1.29,1.631,1.41a6,6,0,0,0,2.741.544c1.989.077,3.12,1.813,3.282,3.774a9.362,9.362,0,0,1-1.42,5.18c-.879,1.588-1.968,3.057-2.755,4.695a11.145,11.145,0,0,0-1.167,6.079,7.7,7.7,0,0,0,2.952,5.327c3.437,2.509,8.427,1.23,12.229,3.135q-8.086,1.044-16.172,2.1a9.374,9.374,0,0,1-2.537-2.39,26.1,26.1,0,0,1-1.026-3.894A54.705,54.705,0,0,1,87.318,211.205Z" transform="translate(-70.545 -162.149)" fill="#8c757e" stroke="#8c757e" stroke-width="1"/>
                <path id="Trazado_105507" data-name="Trazado 105507" d="M118.623,158.434a2.753,2.753,0,0,1-1.778-2.495v-.008a6.792,6.792,0,0,1,.136-1.922,13.37,13.37,0,0,1,.764-2.418,15.4,15.4,0,0,0-6.549-1.248,15.891,15.891,0,0,0-6.292,1.127,13.587,13.587,0,0,1,.817,2.587,6.257,6.257,0,0,1,.116,1.978h0a2.728,2.728,0,0,1-1.764,2.4,18.251,18.251,0,0,1-5.313.633.205.205,0,0,0-.014.063c1.42.471,3.057.372,4.54.956a13.346,13.346,0,0,1,3.929,2.5c.822.787,1.539,1.7,2.432,2.4a4.069,4.069,0,0,0,3.17,1c1.722-.323,2.692-2.1,3.788-3.472a11.135,11.135,0,0,1,5.1-3.556A10.115,10.115,0,0,1,118.623,158.434Z" transform="translate(-73.969 -149.747)" fill="#8c757e" stroke="#8c757e" stroke-width="1"/>
                <path id="Trazado_105508" data-name="Trazado 105508" d="M157.043,196.114c-2.629-2.523-5.489-4.969-9.017-5.777-1.933-.443-3.957-.365-5.869-.886a8.307,8.307,0,0,0,1.5-2.263,2.815,2.815,0,0,0-.183-2.614c2.087,1.054,4.625.64,6.8-.19a4.347,4.347,0,0,0,2.305-1.624,14.225,14.225,0,0,0,.351-2.186,88.376,88.376,0,0,1,3.5,12.412C156.656,194.013,156.853,195.053,157.043,196.114Z" transform="translate(-86.87 -158.731)" fill="#8c757e" stroke="#8c757e" stroke-width="1"/>
                <circle id="Elipse_4042" data-name="Elipse 4042" cx="0.545" cy="0.545" r="0.545" transform="translate(23.722 26.681)" fill="#8c757e" stroke="#8c757e" stroke-width="1"/>
                <path id="Trazado_105509" data-name="Trazado 105509" d="M136.72,188a.545.545,0,1,1-.545-.545A.545.545,0,0,1,136.72,188Z" transform="translate(-84.93 -160.777)" fill="#8c757e" stroke="#8c757e" stroke-width="1"/>
              </g>
            </g>
            <g id="Grupo_55764" data-name="Grupo 55764" transform="translate(66.881 90.339)">
              <path id="Trazado_105510" data-name="Trazado 105510" d="M163.464,247.022c.033,1.311-.541.653-.956,1.311a8.1,8.1,0,0,0-1.016,2.081c-.127.582-.575.727-.895.577s.16-3.17.127-3.322c-.028-.124-.631-1.833-.848-2.442l-.075-.216s.014.07.042.264c.033.21.08.571.146,1.159,0,.065.009.124.014.178.047.976-.556,1.143-.556,1.143l-.8-2.852.472-3.254s2.809-.251,3.383.11c.485.3.805,2.9.919,4.491C163.445,246.548,163.46,246.812,163.464,247.022Z" transform="translate(-158.653 -241.565)" fill="#8c757e" stroke="#8c757e" stroke-width="1"/>
              <path id="Trazado_105511" data-name="Trazado 105511" d="M163.982,248.515c.033,1.311-.541.653-.956,1.311a8.1,8.1,0,0,0-1.016,2.081c-.127.582-.575.727-.895.577s.16-3.17.127-3.322c-.028-.124-.631-1.833-.848-2.442.3-.442.593.35.739.6a1.587,1.587,0,0,0,1.478.588,6.878,6.878,0,0,0,1.333-.167C163.963,248.041,163.977,248.305,163.982,248.515Z" transform="translate(-159.171 -243.058)" fill="#8c757e" stroke="#8c757e" stroke-width="1"/>
            </g>
            <g id="Grupo_55773" data-name="Grupo 55773" transform="translate(10.162 84.753)">
              <g id="Grupo_55768" data-name="Grupo 55768" transform="translate(26.453 7.076)">
                <g id="Grupo_55767" data-name="Grupo 55767">
                  <g id="Grupo_55766" data-name="Grupo 55766">
                    <g id="Grupo_55765" data-name="Grupo 55765" transform="translate(16.084 75.832)">
                      <path id="Trazado_105512" data-name="Trazado 105512" d="M141.31,356.268c1.567.624,4.7,2.1,4.7,2.1.073.034.218.1.4.16a5.849,5.849,0,0,0,.769.227,2.666,2.666,0,0,0,.4.044.674.674,0,0,0,.4-.121.566.566,0,0,0,.141-.121,0,0,0,0,1,0,0,1.131,1.131,0,0,0,.952-.15.143.143,0,0,0,.039-.034c.286.058.745-.387.745-.387a.727.727,0,0,0,.174-.048,1.891,1.891,0,0,0,.261-.135c.068-.155-.048-.465-.367-.682s-1.765-1.427-2.95-2.316c-.924-.7-2.568-1.992-3.468-2.7-.387-.3-.634-.493-.634-.493a.028.028,0,0,1,0-.019H138.8c-.039.183-.077.368-.116.556a11,11,0,0,0-.194,1.287C138.278,356.438,139.738,355.639,141.31,356.268Z" transform="translate(-138.473 -351.582)" fill="#8c757e" stroke="#8c757e" stroke-width="1"/>
                      <path id="Trazado_105513" data-name="Trazado 105513" d="M151.948,361.068s.451-.734-.6-1.028" transform="translate(-142.3 -354.096)" fill="#8c757e" stroke="#8c757e" stroke-linecap="round" stroke-linejoin="round" stroke-width="0.25"/>
                      <path id="Trazado_105514" data-name="Trazado 105514" d="M153.43,360.944s.464-.591-.316-.81" transform="translate(-142.824 -354.124)" fill="#8c757e" stroke="#8c757e" stroke-linecap="round" stroke-linejoin="round" stroke-width="0.25"/>
                      <path id="Trazado_105515" data-name="Trazado 105515" d="M154.319,360.517s.463-.592-.317-.81" transform="translate(-143.088 -353.997)" fill="#8c757e" stroke="#8c757e" stroke-linecap="round" stroke-linejoin="round" stroke-width="0.25"/>
                      <path id="Trazado_105516" data-name="Trazado 105516" d="M154.793,360.274s.463-.592-.316-.811" transform="translate(-143.229 -353.924)" fill="#8c757e" stroke="#8c757e" stroke-linecap="round" stroke-linejoin="round" stroke-width="0.25"/>
                    </g>
                    <path id="Trazado_105517" data-name="Trazado 105517" d="M115.589,250.011l.788,3.381.184.793,15.327,65.888.019.077.958-.024.116,0,3.729-.092h.048l-.982-76.344-10.616,3.328-.793.247-7.24,2.268-.324.1Z" transform="translate(-115.589 -243.685)" fill="#8c757e" stroke="#8c757e" stroke-width="1"/>
                  </g>
                </g>
                <path id="Trazado_105518" data-name="Trazado 105518" d="M136.779,297.846a3.8,3.8,0,0,1-3.213-.853,1.227,1.227,0,0,0-.5-.309c-.425-.086-.793.391-.77.824a2.158,2.158,0,0,0,.566,1.148l2.369,3.052a1.945,1.945,0,0,0,.786.7c.763.285,1.513-.447,1.924-1.15a8,8,0,0,0,1.17-5.381C138.465,296.629,137.931,297.578,136.779,297.846Z" transform="translate(-120.552 -259.195)" fill="#8c757e" stroke="#8c757e" stroke-width="1"/>
                <path id="Trazado_105519" data-name="Trazado 105519" d="M116.667,251.571c-.007.843.007,1.68.049,2.516l.105.443,15.216,65.425a1.962,1.962,0,0,0,.232-.492,4.994,4.994,0,0,0-.042-2.277q-3.511-19.956-7.021-39.92c-.864-4.92-1.729-9.882-1.518-14.865s1.588-10.071,4.772-13.916c.59-.7,2.221-1.9,2.741-2.938a1.271,1.271,0,0,0,.155-.7c-4.2.1-8.771,1.722-12.594,3.366a3.747,3.747,0,0,0-1.532,1,2.35,2.35,0,0,0-.408.843A6.055,6.055,0,0,0,116.667,251.571Z" transform="translate(-115.909 -244.029)" fill="#8c757e" stroke="#8c757e" stroke-width="1"/>
              </g>
              <g id="Grupo_55772" data-name="Grupo 55772" transform="translate(0 7.076)">
                <g id="Grupo_55771" data-name="Grupo 55771">
                  <g id="Grupo_55769" data-name="Grupo 55769" transform="translate(0 75.832)">
                    <path id="Trazado_105520" data-name="Trazado 105520" d="M86.955,356.268c-1.567.624-4.7,2.1-4.7,2.1a4.318,4.318,0,0,1-.4.16,5.848,5.848,0,0,1-.769.227,2.666,2.666,0,0,1-.4.044.672.672,0,0,1-.4-.121.552.552,0,0,1-.141-.121,0,0,0,0,0,0,0,1.134,1.134,0,0,1-.953-.15.16.16,0,0,1-.039-.034c-.285.058-.744-.387-.744-.387a.718.718,0,0,1-.174-.048,1.923,1.923,0,0,1-.261-.135c-.067-.155.048-.465.368-.682s1.765-1.427,2.95-2.316c.924-.7,2.568-1.992,3.468-2.7.387-.3.634-.493.634-.493a.028.028,0,0,0,0-.019h4.067c.039.183.077.368.116.556a10.847,10.847,0,0,1,.193,1.287C89.988,356.438,88.528,355.639,86.955,356.268Z" transform="translate(-77.951 -351.582)" fill="#8c757e" stroke="#8c757e" stroke-width="1"/>
                    <path id="Trazado_105521" data-name="Trazado 105521" d="M81.031,361.068s-.452-.734.6-1.028" transform="translate(-78.837 -354.096)" fill="#8c757e" stroke="#8c757e" stroke-linecap="round" stroke-linejoin="round" stroke-width="0.25"/>
                    <path id="Trazado_105522" data-name="Trazado 105522" d="M79.651,360.944s-.464-.591.316-.81" transform="translate(-78.415 -354.124)" fill="#8c757e" stroke="#8c757e" stroke-linecap="round" stroke-linejoin="round" stroke-width="0.25"/>
                    <path id="Trazado_105523" data-name="Trazado 105523" d="M78.762,360.517s-.464-.592.316-.81" transform="translate(-78.151 -353.997)" fill="#8c757e" stroke="#8c757e" stroke-linecap="round" stroke-linejoin="round" stroke-width="0.25"/>
                    <path id="Trazado_105524" data-name="Trazado 105524" d="M78.288,360.274s-.464-.592.316-.811" transform="translate(-78.01 -353.924)" fill="#8c757e" stroke="#8c757e" stroke-linecap="round" stroke-linejoin="round" stroke-width="0.25"/>
                  </g>
                  <g id="Grupo_55770" data-name="Grupo 55770" transform="translate(6.759)">
                    <path id="Trazado_105525" data-name="Trazado 105525" d="M108.736,250.01l-.787,3.381-.084.351-.105.443L92.543,319.61l-.105.464-.021.077-.956-.028h-.119l-3.732-.091h-.042l.977-76.347L93.38,245.2l5.784,1.806.794.253,7.239,2.263.323.105.239.077Z" transform="translate(-87.567 -243.685)" fill="#8c757e" stroke="#8c757e" stroke-width="1"/>
                    <path id="Trazado_105526" data-name="Trazado 105526" d="M109.87,251.571c.007.843-.007,1.68-.049,2.516l-.105.443L94.5,319.955a1.962,1.962,0,0,1-.232-.492,4.994,4.994,0,0,1,.042-2.277q3.511-19.956,7.021-39.92c.864-4.92,1.729-9.882,1.518-14.865s-1.588-10.071-4.772-13.916c-.59-.7-2.221-1.9-2.741-2.938a1.271,1.271,0,0,1-.155-.7c4.2.1,8.771,1.722,12.594,3.366a3.747,3.747,0,0,1,1.532,1,2.35,2.35,0,0,1,.408.843A6.054,6.054,0,0,1,109.87,251.571Z" transform="translate(-89.523 -244.03)" fill="#8c757e" stroke="#8c757e" stroke-width="1"/>
                    <path id="Trazado_105527" data-name="Trazado 105527" d="M94.3,297.846a3.806,3.806,0,0,0,3.213-.853,1.227,1.227,0,0,1,.5-.309c.425-.086.792.391.77.824a2.168,2.168,0,0,1-.566,1.148q-1.185,1.525-2.369,3.052a1.945,1.945,0,0,1-.786.7c-.763.285-1.513-.447-1.924-1.15a8,8,0,0,1-1.17-5.381C92.611,296.629,93.146,297.578,94.3,297.846Z" transform="translate(-88.841 -259.195)" fill="#8c757e" stroke="#8c757e" stroke-width="1"/>
                  </g>
                </g>
              </g>
              <path id="Trazado_105528" data-name="Trazado 105528" d="M127.9,233.617v7.076l-.044.019-16.986,6.351a6.692,6.692,0,0,1-1.833.411,6.867,6.867,0,0,1-3.038-.411l-17.044-6.37v-6.225l6.907-.15,25.9-.566,5.006-.112Z" transform="translate(-81.222 -233.617)" fill="#8c757e" stroke="#8c757e" stroke-width="1"/>
            </g>
            <g id="Grupo_55779" data-name="Grupo 55779" transform="translate(26.501)">
              <g id="Grupo_55778" data-name="Grupo 55778" transform="translate(0 7.583)">
                <g id="Grupo_55777" data-name="Grupo 55777">
                  <path id="Trazado_105529" data-name="Trazado 105529" d="M129.482,138.406s1.818-.94,1.471.794-1.214,3.9-2.341,3.208S129.482,138.406,129.482,138.406Z" transform="translate(-109.243 -128.076)" fill="#8c757e" stroke="#8c757e" stroke-width="1"/>
                  <path id="Trazado_105530" data-name="Trazado 105530" d="M102.713,138.406s-1.817-.94-1.471.794,1.214,3.9,2.341,3.208S102.713,138.406,102.713,138.406Z" transform="translate(-101.199 -128.076)" fill="#8c757e" stroke="#8c757e" stroke-width="1"/>
                  <g id="Grupo_55776" data-name="Grupo 55776" transform="translate(1.23)">
                    <path id="Trazado_105531" data-name="Trazado 105531" d="M122.077,134.146c0,8.753-1.572,13.3-9.364,13.3-8.449,0-9.364-5.251-9.364-13.3,0-5.7,4.192-10.329,9.364-10.329S122.077,128.442,122.077,134.146Z" transform="translate(-103.068 -123.816)" fill="#8c757e" stroke="#8c757e" stroke-width="1"/>
                    <g id="Grupo_55774" data-name="Grupo 55774">
                      <path id="Trazado_105532" data-name="Trazado 105532" d="M122.04,134.146c0,3.6-.267,6.494-1.125,8.645-.056.141-.112.267-.169.4s-.112.232-.176.351c-.077.141-.155.288-.232.429a.836.836,0,0,1-.063.105c-1.363,2.235-3.7,3.374-7.6,3.374-8.448,0-9.362-5.25-9.362-13.3a10.924,10.924,0,0,1,.211-2.165c.9-4.667,4.653-8.167,9.151-8.167C117.844,123.815,122.04,128.44,122.04,134.146Z" transform="translate(-103.056 -123.815)" fill="#8c757e" stroke="#8c757e" stroke-width="1"/>
                      <path id="Trazado_105533" data-name="Trazado 105533" d="M116.876,131.538a2.069,2.069,0,0,0,.387,1.182,14.893,14.893,0,0,1-5.506-2.405,7.33,7.33,0,0,0,.916,2.07,9.7,9.7,0,0,1-5.516-2.224,3.968,3.968,0,0,1-1.366,2.874,8.269,8.269,0,0,1-2.842,1.588,19.155,19.155,0,0,0,1-4.523,8.373,8.373,0,0,1,.575-2.963c.858-1.728,2.962-2.41,4.877-2.641a10.633,10.633,0,0,1,6.6,1,12.754,12.754,0,0,1,4.379,5.117c.4.716,2.229,3.622.289,3.385a5.737,5.737,0,0,1-2.06-1.009C118.292,132.781,116.88,131.936,116.876,131.538Z" transform="translate(-102.949 -123.982)" fill="#8c757e" stroke="#8c757e" stroke-width="1"/>
                      <path id="Trazado_105534" data-name="Trazado 105534" d="M118.557,148.7c0,.69-1.184,1.25-2.644,1.25s-2.643-.559-2.643-1.25,1.184,0,2.643,0S118.557,148.005,118.557,148.7Z" transform="translate(-106.016 -131.118)" fill="#8c757e" stroke="#8c757e" stroke-width="1"/>
                    </g>
                    <g id="Grupo_55775" data-name="Grupo 55775" transform="translate(3.948 9.916)">
                      <path id="Trazado_105535" data-name="Trazado 105535" d="M111.708,140.638c0,.514-.252.931-.564.931s-.564-.417-.564-.931.252-.931.564-.931S111.708,140.124,111.708,140.638Z" transform="translate(-109.166 -138.454)" fill="#8c757e" stroke="#8c757e" stroke-width="1"/>
                      <path id="Trazado_105536" data-name="Trazado 105536" d="M122.936,140.638c0,.514-.252.931-.564.931s-.564-.417-.564-.931.252-.931.564-.931S122.936,140.124,122.936,140.638Z" transform="translate(-112.502 -138.454)" fill="#8c757e" stroke="#8c757e" stroke-width="1"/>
                      <path id="Trazado_105537" data-name="Trazado 105537" d="M111.4,138.5c0,.32-.505.225-1.287.225s-1.545.095-1.545-.225.634-.58,1.415-.58S111.4,138.183,111.4,138.5Z" transform="translate(-108.567 -137.924)" fill="#8c757e" stroke="#8c757e" stroke-width="1"/>
                      <path id="Trazado_105538" data-name="Trazado 105538" d="M124.641,138.5c0,.32-.5.225-1.287.225s-1.545.095-1.545-.225.634-.58,1.416-.58S124.641,138.183,124.641,138.5Z" transform="translate(-112.502 -137.924)" fill="#8c757e" stroke="#8c757e" stroke-width="1"/>
                      <path id="Trazado_105539" data-name="Trazado 105539" d="M115.937,139.468s.6,2.392.014,3.519c-1.228,2.347.959,1.174,1.378,1.441" transform="translate(-110.651 -138.383)" fill="#8c757e" stroke="#8c757e" stroke-linecap="round" stroke-linejoin="round" stroke-width="0.42"/>
                    </g>
                  </g>
                </g>
              </g>
              <path id="Trazado_105540" data-name="Trazado 105540" d="M124.3,126.107a9.592,9.592,0,0,0-6.512-8.04,12.284,12.284,0,0,1,4.6-.559,16.854,16.854,0,0,0-10.244-1.834,31.322,31.322,0,0,1,4.483-2.648,28.565,28.565,0,0,0-8.418,2.478,9.263,9.263,0,0,0-2.837,1.877,4.488,4.488,0,0,0-1.262,2.494,17.692,17.692,0,0,0-1.432,1.522c-.912,1.135-1.931,3.709.118,9.543,0,0,3.569-3.026,3.7-6.228,0,0,1.808,2.572,4.168,2.63,0,0-1.228-2-.863-2.915,0,0,2.423,3.087,5.624,3.887l-.8-2.858s3.92,5.939,6.9,5.485a16.322,16.322,0,0,0,.838-4.083c.8.789,1.565,1.687,1.589,2.312a17.779,17.779,0,0,0-.616-4A1.6,1.6,0,0,1,124.3,126.107Z" transform="translate(-101.321 -113.026)" fill="#8c757e" stroke="#8c757e" stroke-width="1"/>
            </g>
            <g id="Grupo_55784" data-name="Grupo 55784" transform="translate(18.1 49.642)">
              <g id="Grupo_55780" data-name="Grupo 55780" transform="translate(19.204 25.112)">
                <path id="Trazado_105541" data-name="Trazado 105541" d="M118.675,220.443a1.053,1.053,0,1,1-1.053-1.053A1.053,1.053,0,0,1,118.675,220.443Z" transform="translate(-116.569 -219.39)" fill="#8c757e" stroke="#8c757e" stroke-width="1"/>
              </g>
              <g id="Grupo_55783" data-name="Grupo 55783">
                <g id="Grupo_55781" data-name="Grupo 55781" transform="translate(0 0)">
                  <path id="Trazado_105542" data-name="Trazado 105542" d="M95.122,191.846a5.757,5.757,0,0,1-4.631-1.77c-1.974-2.326-1.024-6.037-.983-6.195a.3.3,0,0,1,.576.152c-.01.036-.912,3.573.862,5.66,1.046,1.231,2.83,1.735,5.3,1.5a.3.3,0,1,1,.056.592Q95.69,191.845,95.122,191.846Z" transform="translate(-89.244 -183.66)" fill="#8c757e" stroke="#8c757e" stroke-width="1"/>
                </g>
                <g id="Grupo_55782" data-name="Grupo 55782" transform="translate(31.711)">
                  <path id="Trazado_105543" data-name="Trazado 105543" d="M135.819,191.846q-.566,0-1.185-.06a.3.3,0,0,1,.056-.592c2.474.233,4.258-.27,5.3-1.5,1.774-2.087.871-5.624.862-5.66a.3.3,0,1,1,.575-.152c.042.157.992,3.869-.982,6.195A5.761,5.761,0,0,1,135.819,191.846Z" transform="translate(-134.365 -183.659)" fill="#8c757e" stroke="#8c757e" stroke-width="1"/>
                </g>
              </g>
            </g>
          </g>
        </g>
      </g>
      <g id="Grupo_55788" data-name="Grupo 55788" transform="translate(19.212 76.903)">
        <path id="Trazado_105544" data-name="Trazado 105544" d="M86.745,228.3a.83.83,0,0,0-.246,1.29c.617.8,1.524,2.148,1.791,1.779s.009-1.131-.744-1.861A2.319,2.319,0,0,1,86.745,228.3Z" transform="translate(-86.085 -224.187)" fill="#8c757e" stroke="#8c757e" stroke-width="1"/>
        <path id="Trazado_105545" data-name="Trazado 105545" d="M86.747,226.765a.914.914,0,0,0-.271,1.42c.68.879,1.678,2.365,1.973,1.959s.01-1.245-.819-2.049A2.56,2.56,0,0,1,86.747,226.765Z" transform="translate(-86.072 -223.731)" fill="#8c757e" stroke="#8c757e" stroke-width="1"/>
        <path id="Trazado_105546" data-name="Trazado 105546" d="M86.73,224.713a1.022,1.022,0,0,0-.245,1.57c.725.992,1.794,2.666,2.088,2.223s-.02-1.382-.9-2.3A3.059,3.059,0,0,1,86.73,224.713Z" transform="translate(-86.068 -223.121)" fill="#8c757e" stroke="#8c757e" stroke-width="1"/>
        <path id="Trazado_105547" data-name="Trazado 105547" d="M86.925,222.448s-1.441.506-.717,1.5S88,226.614,88.3,226.17s-.161-1.266-.9-2.3A1.836,1.836,0,0,1,86.925,222.448Z" transform="translate(-86.005 -222.448)" fill="#8c757e" stroke="#8c757e" stroke-width="1"/>
      </g>
    </g>
    <path id="Trazado_773603" data-name="Trazado 773603" d="M3.5,0A3.5,3.5,0,1,1,0,3.5,3.5,3.5,0,0,1,3.5,0Z" transform="translate(929 1205)" fill="#f5947a"/>
  </g>
</svg>
