<svg xmlns="http://www.w3.org/2000/svg" width="157.372" height="253.888" viewBox="0 0 157.372 253.888">
  <g id="Grupo_1069625" data-name="Grupo 1069625" transform="translate(-715 -1729.946)">
    <g id="Grupo_55842" data-name="Grupo 55842" transform="translate(153.424 1611.84)">
      <path id="Trazado_105587" data-name="Trazado 105587" d="M718.948,152.582H561.576l78.686,175.225Z" fill="#73d8c0"/>
      <g id="Grupo_55838" data-name="Grupo 55838">
        <ellipse id="Elipse_4045" data-name="Elipse 4045" cx="59.11" cy="9.756" rx="59.11" ry="9.756" transform="translate(579.659 352.483)" fill="#606060" opacity="0.1"/>
        <g id="Grupo_55837" data-name="Grupo 55837">
          <g id="Grupo_55816" data-name="Grupo 55816">
            <g id="Grupo_55809" data-name="Grupo 55809">
              <g id="Grupo_55806" data-name="Grupo 55806">
                <path id="Trazado_105588" data-name="Trazado 105588" d="M638.881,246.005s-.04.28-.13.82v.01c-.02.09-.03.19-.05.3-.84,5.12-4.66,26.63-12.09,46.1-.44,1.15-.9,2.3-1.37,3.43q-1.29,3.15-2.71,6.15l-8.92-3.69s-2.35-41.67,8.97-67.38l3.83,3.35,3.39,2.96,8.76,7.67.09.08Z" fill="#ffc5a1"/>
                <path id="Trazado_105589" data-name="Trazado 105589" d="M638.7,247.135c-.84,5.12-4.66,26.63-12.09,46.1-.44,1.15-.9,2.3-1.37,3.43.23-.82.51-1.63.77-2.43a106.4,106.4,0,0,0,3.78-15.52,108.511,108.511,0,0,0,.94-28.23c-.22-2.26-2.64-11.62-1.02-12.39.03-.01.06-.03.09-.04,2.97-1.28,7.34,3.25,8.21,5.53a9.9,9.9,0,0,1,.55,2.14C638.631,246.185,638.671,246.655,638.7,247.135Z" fill="#ffb58a"/>
              </g>
              <g id="Grupo_55808" data-name="Grupo 55808">
                <g id="Grupo_55807" data-name="Grupo 55807">
                  <path id="Trazado_105590" data-name="Trazado 105590" d="M623.2,314.945a35.777,35.777,0,0,1-.39,3.62c-1.08,6.68-5.05,13.08-7.71,19.24-1.96,4.52-3.84,9.08-5.67,13.64a.1.1,0,0,1-.01.04c-.19.46-.37.91-.55,1.36.04.17.08.34.12.52a17.434,17.434,0,0,1,.33,2.12c.31,4.27-1.76,3.14-3.99,4.03-2.21.89-6.66,2.98-6.66,2.98a9.558,9.558,0,0,1-1.66.55,4.433,4.433,0,0,1-.57.06,1,1,0,0,1-.76-.35,1.642,1.642,0,0,1-1.36-.21l-.01-.01-.04-.04c-.4.08-1.06-.55-1.06-.55a.9.9,0,0,1-.24-.07l-.01-.01a2.633,2.633,0,0,1-.36-.18c-.1-.22.07-.66.52-.97.29-.19,1.2-.94,2.25-1.78.63-.5,1.3-1.03,1.93-1.5.99-.75,2.55-1.97,3.81-2.96,1.03-.8,1.86-1.45,1.99-1.56a.031.031,0,0,1,.02-.01c.37-5.3.37-11.04.89-16.31.03-.33.07-.65.1-.98.37-3.6.83-7.19,1.28-10.78.63-5.13,2.55-10.28,4.45-15.1.83-2.1,1.6-4.22,2.33-6.35q.885-2.55,1.72-5.13l7.39,3.9.08.03.9.49.27.14c.13.85.25,1.72.36,2.59A53.353,53.353,0,0,1,623.2,314.945Z" fill="#ffc5a1"/>
                  <path id="Trazado_105591" data-name="Trazado 105591" d="M595.683,362.756s-.64-1.039.847-1.456" fill="none" stroke="#f08c7f" stroke-linecap="round" stroke-linejoin="round" stroke-width="0.226"/>
                  <path id="Trazado_105592" data-name="Trazado 105592" d="M594.325,362.542s-.656-.838.449-1.149" fill="none" stroke="#f08c7f" stroke-linecap="round" stroke-linejoin="round" stroke-width="0.168"/>
                  <path id="Trazado_105593" data-name="Trazado 105593" d="M593.44,362.116s-.656-.838.449-1.148" fill="none" stroke="#f08c7f" stroke-linecap="round" stroke-linejoin="round" stroke-width="0.168"/>
                  <path id="Trazado_105594" data-name="Trazado 105594" d="M592.968,361.874s-.656-.838.449-1.149" fill="none" stroke="#f08c7f" stroke-linecap="round" stroke-linejoin="round" stroke-width="0.168"/>
                </g>
                <path id="Trazado_105595" data-name="Trazado 105595" d="M613.608,299.122s1.64,7.7,7.082,1.519c0,0,.7,6.693-4.8,10.491S613.608,299.122,613.608,299.122Z" fill="#ffb58a"/>
                <path id="Trazado_105596" data-name="Trazado 105596" d="M623.2,314.945a35.777,35.777,0,0,1-.39,3.62c-1.08,6.68-5.05,13.08-7.71,19.24-1.96,4.52-3.84,9.08-5.67,13.64a.1.1,0,0,1-.01.04c-.19.46-.37.91-.55,1.36.04.17.08.34.12.52a14.316,14.316,0,0,0-2.7.62c-1.97.75-3.41,2.43-5.03,3.78a7.148,7.148,0,0,1-5.89,1.17c.63-.5,1.3-1.03,1.93-1.5.99-.75,2.55-1.97,3.81-2.96,1.03-.8,1.86-1.45,1.99-1.56a.031.031,0,0,1,.02-.01c.37-5.3.37-11.04.89-16.31.03-.33.07-.65.1-.98a1.188,1.188,0,0,1,.25-.13c1.74-.62,2.57,3.26,4.35,2.73a2.159,2.159,0,0,0,1.09-1.06,69.145,69.145,0,0,0,7.79-18.33,8.437,8.437,0,0,1,1.83-4.06C620.981,313.245,622.3,313.765,623.2,314.945Z" fill="#ffb58a"/>
              </g>
            </g>
            <g id="Grupo_55813" data-name="Grupo 55813">
              <g id="Grupo_55810" data-name="Grupo 55810">
                <path id="Trazado_105597" data-name="Trazado 105597" d="M638.885,246.006s5.638,32.846,18.306,56.81l8.834-3.976s.68-42.374-11.549-68.4Z" fill="#ffc5a1"/>
                <path id="Trazado_105598" data-name="Trazado 105598" d="M639.168,247.319c.974,5.1,5.359,26.5,13.3,45.766.47,1.138.96,2.275,1.459,3.393-.251-.814-.552-1.616-.833-2.409a106.292,106.292,0,0,1-4.187-15.415,108.516,108.516,0,0,1-1.683-28.2c.16-2.265,2.333-11.685.694-12.412-.031-.01-.061-.029-.091-.038-3-1.2-7.252,3.442-8.062,5.744a9.9,9.9,0,0,0-.494,2.154C639.213,246.368,639.185,246.838,639.168,247.319Z" fill="#ffb58a"/>
              </g>
              <g id="Grupo_55812" data-name="Grupo 55812">
                <g id="Grupo_55811" data-name="Grupo 55811">
                  <path id="Trazado_105599" data-name="Trazado 105599" d="M687.121,361.685a2.052,2.052,0,0,1-.61.26s-.66.63-1.06.55c0,0-.35.44-1.4.26a1.03,1.03,0,0,1-.77.35,4.434,4.434,0,0,1-.57-.06,9.867,9.867,0,0,1-1.66-.55s-4.44-2.09-6.66-2.98-4.3.24-3.99-4.03a19.03,19.03,0,0,1,.34-2.1c.03-.18.07-.36.11-.54-.17-.45-.36-.9-.55-1.36a.1.1,0,0,1-.01-.04c-1.83-4.56-3.71-9.12-5.66-13.64-2.67-6.16-6.64-12.56-7.71-19.24a34.969,34.969,0,0,1-.41-3.72,54.139,54.139,0,0,1,.32-9.44c.11-.87.23-1.74.36-2.59l.27-.14.91-.49.07-.03,7.39-3.9c.57,1.72-.03.02.57,1.72.73,2.13,2.52,5.67,3.35,7.77,3.37,8.55,4.8,18.21,5.64,27.8.33,3.69.57,7.37.8,10.97.14,2.16.27,4.3.42,6.39,0,0,3.94,3.11,5.81,4.53,1.68,1.26,3.73,2.97,4.18,3.28S687.221,361.465,687.121,361.685Z" fill="#ffc5a1"/>
                  <path id="Trazado_105600" data-name="Trazado 105600" d="M684.044,362.756s.64-1.039-.847-1.456" fill="none" stroke="#f08c7f" stroke-linecap="round" stroke-linejoin="round" stroke-width="0.226"/>
                  <path id="Trazado_105601" data-name="Trazado 105601" d="M685.4,362.542s.657-.838-.448-1.149" fill="none" stroke="#f08c7f" stroke-linecap="round" stroke-linejoin="round" stroke-width="0.168"/>
                  <path id="Trazado_105602" data-name="Trazado 105602" d="M686.287,362.116s.656-.838-.449-1.148" fill="none" stroke="#f08c7f" stroke-linecap="round" stroke-linejoin="round" stroke-width="0.168"/>
                  <path id="Trazado_105603" data-name="Trazado 105603" d="M686.759,361.874s.656-.838-.449-1.149" fill="none" stroke="#f08c7f" stroke-linecap="round" stroke-linejoin="round" stroke-width="0.168"/>
                </g>
                <path id="Trazado_105604" data-name="Trazado 105604" d="M664.968,299.122s-1.64,7.7-7.081,1.519c0,0-.389,5.063,5.113,8.86S664.968,299.122,664.968,299.122Z" fill="#ffb58a"/>
                <path id="Trazado_105605" data-name="Trazado 105605" d="M684.261,358.935a7.148,7.148,0,0,1-5.89-1.17c-1.62-1.35-3.06-3.03-5.03-3.78a13.284,13.284,0,0,0-2.6-.6c.03-.18.07-.36.11-.54-.17-.45-.36-.9-.55-1.36a.1.1,0,0,1-.01-.04c-1.83-4.56-3.71-9.12-5.66-13.64-2.67-6.16-6.64-12.56-7.71-19.24a34.969,34.969,0,0,1-.41-3.72c.9-1.11,2.19-1.56,3.7-.08a8.437,8.437,0,0,1,1.83,4.06,69.143,69.143,0,0,0,7.79,18.33,2.159,2.159,0,0,0,1.09,1.06c1.78.53,2.61-3.35,4.35-2.73a.338.338,0,0,1,.12.06.823.823,0,0,1,.13.07c.03.33.07.65.1.98.32,3.2.44,6.58.57,9.92.09,2.16.17,4.31.32,6.39a.031.031,0,0,1,.02.01c.13.11.96.76,1.99,1.56,1.26.99,2.82,2.21,3.81,2.96C682.961,357.9,683.631,358.435,684.261,358.935Z" fill="#ffb58a"/>
              </g>
            </g>
            <g id="Grupo_55815" data-name="Grupo 55815">
              <path id="Trazado_105606" data-name="Trazado 105606" d="M624.7,225.552l-2.121,6.188,11.056,12.384c2.546,2.852,7.954,2.478,10.337-.512l10.5-13.177L653.05,225.5A91.681,91.681,0,0,1,624.7,225.552Z"/>
              <g id="Grupo_55814" data-name="Grupo 55814">
                <path id="Trazado_105607" data-name="Trazado 105607" d="M643.443,244.28,657.881,239s-1.13-3.522-1.676-4.729c-.661-1.46-1.729-3.838-1.729-3.838l-12.625,7.4Z"/>
                <path id="Trazado_105608" data-name="Trazado 105608" d="M634.065,244.28l-14.234-5.2s.954-2.969,1.569-4.467c.425-1.037,1.632-4.175,1.632-4.175l12.625,7.4Z"/>
              </g>
            </g>
          </g>
          <g id="Grupo_55836" data-name="Grupo 55836">
            <g id="Grupo_55830" data-name="Grupo 55830">
              <g id="Grupo_55828" data-name="Grupo 55828">
                <g id="Grupo_55821" data-name="Grupo 55821">
                  <g id="Grupo_55819" data-name="Grupo 55819">
                    <g id="Grupo_55818" data-name="Grupo 55818">
                      <g id="Grupo_55817" data-name="Grupo 55817">
                        <path id="Trazado_105609" data-name="Trazado 105609" d="M683.311,207.985c0,5.23-7.06-4.28-7.06-4.28l-11.86-14.14h-44.1l-2.98,2.36v.01l-14.81,11.77s-4.8,1.68-4.8-2.57a12.064,12.064,0,0,1,.8-3.35.142.142,0,0,0,.02-.06,145.989,145.989,0,0,1,6.59-14.63.031.031,0,0,0,.01-.02c1.73-3.45,3.34-6.51,4.26-8.26.52-.97.83-1.54.83-1.54a14.01,14.01,0,0,1,1.64-2.62c2.82-3.65,6.98-5.44,10.73-6.67.11-.04.22-.07.33-.11,2.31-.73,4.43-1.27,5.96-1.9,1.87-.76,2.8-2.91,3.25-5.2.12-.62.2-1.24.26-1.85a29,29,0,0,0,.01-5.12l.74.18,5.75,1.44h5.75a17.685,17.685,0,0,0-.18,3.39,13.93,13.93,0,0,0,.28,2.34c.46,2.21,1.6,4.32,4.16,4.82a35.468,35.468,0,0,1,5.59,1.67c5.31,2.05,11.85,5.85,14.72,11.79C669.2,175.435,683.311,202.755,683.311,207.985Z" fill="#ffc5a1"/>
                        <path id="Trazado_105610" data-name="Trazado 105610" d="M653.131,186.45a.767.767,0,1,1,0-1.085A.768.768,0,0,1,653.131,186.45Z" fill="#ffb58a"/>
                        <path id="Trazado_105611" data-name="Trazado 105611" d="M626.577,186.45a.767.767,0,1,1,0-1.085A.768.768,0,0,1,626.577,186.45Z" fill="#ffb58a"/>
                        <path id="Trazado_105612" data-name="Trazado 105612" d="M644.731,157.155a9.026,9.026,0,0,1-6.11,2.88,9.514,9.514,0,0,1-6.5-3.26c.12-.62.2-1.24.26-1.85a29,29,0,0,0,.01-5.12l.74.18,5.75,1.44h5.75a17.685,17.685,0,0,0-.18,3.39A13.93,13.93,0,0,0,644.731,157.155Z" fill="#ffb58a"/>
                        <path id="Trazado_105613" data-name="Trazado 105613" d="M652.791,224.055c.07.48.16.97.26,1.45a67.3,67.3,0,0,1-22.27,1.15,50.29,50.29,0,0,1-6.08-1.1c1.88-8.89-.55-18.21-3.32-25.13a72.372,72.372,0,0,0-4.07-8.49v-.01c-.85-1.51-1.42-2.36-1.42-2.36h45.99S650.151,207.295,652.791,224.055Z" fill="#ffc5a1"/>
                      </g>
                    </g>
                    <path id="Trazado_105614" data-name="Trazado 105614" d="M653.05,225.5a63.609,63.609,0,0,1-28.346.049c1.874-8.886-.552-18.2-3.328-25.125,1.607,1.964,3.133,8.7,3.522,9.706a24.589,24.589,0,0,0,12.457,13.512,19.982,19.982,0,0,0,15.435.4C652.863,224.537,652.952,225.024,653.05,225.5Z" fill="#ffb58a"/>
                  </g>
                  <g id="Grupo_55820" data-name="Grupo 55820">
                    <path id="Trazado_105615" data-name="Trazado 105615" d="M635.885,191.8s-13.766,4.488-18.345,0c0,0,2.1,5.4,3.418,6.374S635.885,191.8,635.885,191.8Z" fill="#ffb58a"/>
                    <path id="Trazado_105616" data-name="Trazado 105616" d="M641.851,191.8s13.766,4.488,18.345,0c0,0-2.1,5.4-3.418,6.374S641.851,191.8,641.851,191.8Z" fill="#ffb58a"/>
                  </g>
                </g>
                <g id="Grupo_55824" data-name="Grupo 55824">
                  <g id="Grupo_55822" data-name="Grupo 55822">
                    <path id="Trazado_105617" data-name="Trazado 105617" d="M617.311,191.925v.01a.125.125,0,0,0-.02.03c-.05.07-.19.28-.42.61s-.52.78-.9,1.33c-1.32,1.97-3.53,5.29-6.18,9.38-2.07,3.18-4.4,6.82-6.8,10.67-.34.55-.69,1.12-1.04,1.68-.19.31-.38.61-.56.92-.76,1.22-1.51,2.44-2.25,3.68l-.12.19c-.46.77-.93,1.54-1.38,2.32-5.17,8.69-9.91,17.38-12.05,23.26h-7.5s4.8-11.71,10.81-25.9c2.01-4.75,4.15-9.77,6.29-14.72.88-2.05,1.77-4.08,2.64-6.08.22-.51.45-1.02.67-1.52a.142.142,0,0,0,.02-.06c.61-1.37,1.2-2.72,1.79-4.04,1.24-2.79,2.44-5.45,3.56-7.91.04-.08.08-.16.12-.25a.2.2,0,0,1,.04-.08c.09-.19.17-.39.26-.58.16-.35.34-.73.54-1.16.1-.21.19-.41.28-.61a.031.031,0,0,0,.01-.02c.98-2.1,1.89-4,2.72-5.65.56-1.13,1.07-2.13,1.54-3.01,1.13-2.11,1.98-3.45,2.45-3.75.01,0,.01-.01.02-.01,2.05-1.28,3.47,4.91,4.34,10.94.38,2.6.66,5.16.84,7.09.03.31.06.6.08.88C617.241,190.925,617.3,191.815,617.311,191.925Z" fill="#ffc5a1"/>
                    <path id="Trazado_105618" data-name="Trazado 105618" d="M617.311,191.958c-.22.33-.52.78-.9,1.33-1.32,1.97-3.53,5.29-6.18,9.38-2.07,3.179-4.4,6.82-6.8,10.67-.34.55-.69,1.12-1.04,1.679-.19.311-.38.611-.56.921a2.413,2.413,0,0,1-.96-.31c-2.83-1.64-1.77-8.781,2.38-15.96s9.79-11.67,12.63-10.03A3.257,3.257,0,0,1,617.311,191.958Z" fill="#ffb58a"/>
                  </g>
                  <g id="Grupo_55823" data-name="Grupo 55823">
                    <path id="Trazado_105619" data-name="Trazado 105619" d="M585.591,246.005s-6.28-.67-7.5,0c-1.19.65-1.93,7.01-2.01,9.58a1.086,1.086,0,0,0-.01.18c-.07,2.43,1.15,1.21,2.02,2.43a14.128,14.128,0,0,1,2.17,3.86,1.392,1.392,0,0,0,1.73,1.12.844.844,0,0,0,.17-.05c.09-.04.14-.16.18-.35.25-1.28-.51-5.57-.45-5.81s1.63-4.12,1.92-4.82l.02-.06c-.03.17-.16.83-.39,2.59-.27,2.1,1.15,2.45,1.15,2.45l1.7-5.29Zm-1.75,6.06v-.02l.01-.01Z" fill="#ffc5a1"/>
                    <path id="Trazado_105620" data-name="Trazado 105620" d="M583.851,252.035l-.01.03-.01.02-.02.06c-.29.7-1.86,4.57-1.92,4.82s.7,4.53.45,5.81l-.35.4a1.392,1.392,0,0,1-1.73-1.12,14.128,14.128,0,0,0-2.17-3.86c-.87-1.22-2.09,0-2.02-2.43a1.086,1.086,0,0,1,.01-.18c.8-.02,2.04.49,3.14.63,1.86.23,4.47-3.92,4.62-4.17Z" fill="#ffb58a"/>
                  </g>
                </g>
                <g id="Grupo_55827" data-name="Grupo 55827">
                  <g id="Grupo_55825" data-name="Grupo 55825">
                    <path id="Trazado_105621" data-name="Trazado 105621" d="M660.381,191.936s25.79,37.793,31.717,54.07h7.5s-28.058-70.592-31.9-73.071S660.381,191.936,660.381,191.936Z" fill="#ffc5a1"/>
                    <path id="Trazado_105622" data-name="Trazado 105622" d="M660.381,191.958c.22.33.52.78.9,1.33,1.32,1.97,3.53,5.29,6.18,9.38,2.07,3.179,4.4,6.82,6.8,10.67.34.55.69,1.12,1.04,1.679.19.311.38.611.56.921a2.413,2.413,0,0,0,.96-.31c2.83-1.64,1.77-8.781-2.38-15.96s-9.79-11.67-12.63-10.03A3.257,3.257,0,0,0,660.381,191.958Z" fill="#ffb58a"/>
                  </g>
                  <path id="Trazado_105623" data-name="Trazado 105623" d="M694.181,254.675q.015.18.03.33c-.34-.92-.66-1.96-.37-2.43.01-.02.02-.03.03-.05C693.941,252.915,694.041,253.585,694.181,254.675Z" fill="#f08783"/>
                  <g id="Grupo_55826" data-name="Grupo 55826">
                    <path id="Trazado_105624" data-name="Trazado 105624" d="M701.561,255.765c.07,2.43-1.15,1.21-2.03,2.43a14.342,14.342,0,0,0-2.16,3.86,1.4,1.4,0,0,1-1.9,1.07c-.68-.29.34-5.88.27-6.16-.06-.23-1.34-3.4-1.8-4.53l-.16-.4s.03.13.09.49c.07.39.17,1.06.31,2.15q.015.18.03.33c.1,1.81-1.18,2.12-1.18,2.12l-1.69-5.29.7-5.83s6.27-.67,7.49,0c1.03.56,1.71,5.37,1.95,8.33C701.521,254.885,701.551,255.375,701.561,255.765Z" fill="#ffc5a1"/>
                    <path id="Trazado_105625" data-name="Trazado 105625" d="M701.561,255.765c.07,2.43-1.15,1.21-2.03,2.43a14.342,14.342,0,0,0-2.16,3.86,1.4,1.4,0,0,1-1.9,1.07c-.68-.29.34-5.88.27-6.16-.06-.23-1.34-3.4-1.8-4.53.64-.82,1.26.65,1.57,1.12a3.628,3.628,0,0,0,3.14,1.09,16.788,16.788,0,0,0,2.83-.31C701.521,254.885,701.551,255.375,701.561,255.765Z" fill="#ffb58a"/>
                  </g>
                </g>
              </g>
              <g id="Grupo_55829" data-name="Grupo 55829">
                <path id="Trazado_105626" data-name="Trazado 105626" d="M642.507,169.959a54.177,54.177,0,0,1,9.078-2.917" fill="none" stroke="#ffb58a" stroke-linecap="round" stroke-linejoin="round" stroke-width="1"/>
                <path id="Trazado_105627" data-name="Trazado 105627" d="M634.345,169.959a54.175,54.175,0,0,0-9.078-2.917" fill="none" stroke="#ffb58a" stroke-linecap="round" stroke-linejoin="round" stroke-width="1"/>
              </g>
            </g>
            <g id="Grupo_55835" data-name="Grupo 55835">
              <g id="Grupo_55834" data-name="Grupo 55834">
                <g id="Grupo_55833" data-name="Grupo 55833">
                  <g id="Grupo_55831" data-name="Grupo 55831">
                    <path id="Trazado_105628" data-name="Trazado 105628" d="M650.294,138.168c0,11.129-6.369,18.072-11.676,18.072-5.443,0-11.9-7.51-11.9-17.749,0-11.994,5.33-13.131,11.9-13.131S650.294,125.946,650.294,138.168Z" fill="#ffc5a1"/>
                    <path id="Trazado_105629" data-name="Trazado 105629" d="M641.4,148.418a5.956,5.956,0,0,1-5.226,0" fill="none" stroke="#000" stroke-linecap="round" stroke-linejoin="round" stroke-width="0.434"/>
                    <path id="Trazado_105630" data-name="Trazado 105630" d="M650.249,138.545s2.586-1.248,2.145.956-1.543,4.961-2.976,4.079S650.249,138.545,650.249,138.545Z" fill="#ffc5a1"/>
                    <path id="Trazado_105631" data-name="Trazado 105631" d="M626.718,138.491s-2.312-1.194-1.871,1.01,1.544,4.961,2.977,4.079S626.718,138.491,626.718,138.491Z" fill="#ffc5a1"/>
                  </g>
                  <g id="Grupo_55832" data-name="Grupo 55832">
                    <path id="Trazado_105632" data-name="Trazado 105632" d="M634.609,140.742c0,.653-.321,1.183-.717,1.183s-.717-.53-.717-1.183.321-1.184.717-1.184S634.609,140.088,634.609,140.742Z"/>
                    <path id="Trazado_105633" data-name="Trazado 105633" d="M644.642,140.742c0,.653-.321,1.183-.717,1.183s-.717-.53-.717-1.183.321-1.184.717-1.184S644.642,140.088,644.642,140.742Z"/>
                    <path id="Trazado_105634" data-name="Trazado 105634" d="M636.251,138.088c0,.533-.842.375-2.144.375s-2.574.158-2.574-.375,1.056-.965,2.359-.965S636.251,137.555,636.251,138.088Z"/>
                    <path id="Trazado_105635" data-name="Trazado 105635" d="M646.284,138.088c0,.533-.842.375-2.145.375s-2.573.158-2.573-.375,1.056-.965,2.359-.965S646.284,137.555,646.284,138.088Z"/>
                    <path id="Trazado_105636" data-name="Trazado 105636" d="M638.095,139.345s.768,3.041.018,4.474c-1.561,2.984,1.219,1.493,1.752,1.832" fill="none" stroke="#000" stroke-linecap="round" stroke-linejoin="round" stroke-width="0.376"/>
                  </g>
                </g>
              </g>
              <path id="Trazado_105637" data-name="Trazado 105637" d="M650.694,132.324s-7.849-2.364-11.808-.254c0,0-6.128-2.046-10.927.292a9.249,9.249,0,0,1-.75-1.411,4.607,4.607,0,0,1-.33-3.425s-4.559,1.794-5.279,4.853a8.637,8.637,0,0,1,4.559-7.385s-4.919.211-6.958,2.321,3.09-10.65,19.436-9.073C653.169,119.644,650.694,132.324,650.694,132.324Z"/>
              <path id="Trazado_105638" data-name="Trazado 105638" d="M628.262,131.473l-.55,9-.942-.349s-1.656-10.991.109-13.264Z"/>
              <path id="Trazado_105639" data-name="Trazado 105639" d="M648.546,131.473l.55,9,.943-.349s1.655-10.991-.11-13.264Z"/>
            </g>
          </g>
        </g>
      </g>
    </g>
  </g>
</svg>
