<svg xmlns="http://www.w3.org/2000/svg" width="101.414" height="130.467" viewBox="0 0 101.414 130.467">
  <g id="Grupo_55937" data-name="Grupo 55937" transform="translate(8118 6720.204)">
    <g id="Grupo_55598" data-name="Grupo 55598" transform="translate(-8083.075 -6710.774)">
      <path id="Trazado_105566" data-name="Trazado 105566" d="M-276.448,1620.6h14.533v-.766a6.888,6.888,0,0,0-6.886-6.886h-20.145a6.888,6.888,0,0,0-6.886,6.886v.766Z" transform="translate(305.862 -1509.405)" fill="#87796f"/>
      <path id="Trazado_105567" data-name="Trazado 105567" d="M-261.709,1621.686h-14.533a.88.88,0,0,1-.881-.881.88.88,0,0,1,.881-.881h13.651a6.012,6.012,0,0,0-6-5.89h-20.144a6.013,6.013,0,0,0-6,5.89h9.335a.88.88,0,0,1,.881.881.88.88,0,0,1-.881.881h-10.226a.88.88,0,0,1-.881-.881v-.766a7.777,7.777,0,0,1,7.767-7.767H-268.6a7.776,7.776,0,0,1,7.767,7.767v.766a.88.88,0,0,1-.881.881Z" transform="translate(305.656 -1509.611)" fill="#3a312a"/>
      <path id="Trazado_105568" data-name="Trazado 105568" d="M-285.638,1634.529h7.315V1541.6c-1.208,0-2.425-.012-3.653-.012s-2.45.007-3.653.012Z" transform="translate(308.968 -1531.146)" fill="#87796f"/>
      <path id="Trazado_105569" data-name="Trazado 105569" d="M-278.117,1635.615h-7.315a.88.88,0,0,1-.881-.881V1541.8a.883.883,0,0,1,.877-.881c2.418-.012,4.9-.012,7.323,0a.883.883,0,0,1,.877.881v92.93a.88.88,0,0,1-.881.881Zm-6.435-1.761H-279V1542.68c-1.838-.009-3.718-.009-5.554,0Z" transform="translate(308.762 -1531.351)" fill="#3a312a"/>
      <path id="Trazado_105570" data-name="Trazado 105570" d="M-273.842,1540.573v-21.907a.167.167,0,0,1,0-.051c-.007,0-.013-.017-.013-.017H-288.4s-.013.017-.018.017a.133.133,0,0,1-.007.051v21.919Z" transform="translate(308.12 -1517.72)" fill="#87796f"/>
      <path id="Trazado_105571" data-name="Trazado 105571" d="M-273.638,1541.659h-14.578a.88.88,0,0,1-.881-.881v-21.907a.875.875,0,0,1,.009-.13.912.912,0,0,1,.9-.817h14.535a.9.9,0,0,1,.89.827.758.758,0,0,1,.009.121v21.918a.882.882,0,0,1-.882.881Zm-13.7-1.761h12.817v-20.222h-12.816Zm14.535-21.307.008.025Zm0,0,0,0-15.412-.652h0" transform="translate(307.914 -1517.925)" fill="#3a312a"/>
      <path id="Trazado_105572" data-name="Trazado 105572" d="M-302.845,1555.44v14.985h52.214V1537.26a11.615,11.615,0,0,0-.2-2.209,12.4,12.4,0,0,0-.324-1.3,11.8,11.8,0,0,0-11.261-8.285h-6.98l-7.339,12.711-7.339-12.711h-6.981a11.8,11.8,0,0,0-11.261,8.285,12.069,12.069,0,0,0-.322,1.3,11.407,11.407,0,0,0-.2,2.209Z" transform="translate(303.726 -1515.626)" fill="#ed6e7a"/>
      <path id="Trazado_105573" data-name="Trazado 105573" d="M-250.425,1571.512h-52.214a.88.88,0,0,1-.881-.881v-14.985a.88.88,0,0,1,.881-.881.88.88,0,0,1,.881.881h0v14.1H-251.3v-32.283a10.4,10.4,0,0,0-.189-2.041,10.881,10.881,0,0,0-10.718-8.872h-6.471l-7.086,12.264a.879.879,0,0,1-1.2.325.862.862,0,0,1-.325-.325l-7.086-12.264h-6.471a10.889,10.889,0,0,0-10.718,8.863,10.566,10.566,0,0,0-.189,2.047v8.8a.88.88,0,0,1-.881.881.88.88,0,0,1-.881-.881v-8.8a12.541,12.541,0,0,1,.219-2.377,13.327,13.327,0,0,1,.346-1.384,12.625,12.625,0,0,1,12.1-8.909h6.981a.882.882,0,0,1,.762.44l6.577,11.391,6.576-11.391a.881.881,0,0,1,.763-.44h6.98a12.655,12.655,0,0,1,12.449,10.307,12.246,12.246,0,0,1,.219,2.369v33.165a.88.88,0,0,1-.881.881Z" transform="translate(303.52 -1515.833)" fill="#3a312a"/>
      <rect id="Rectángulo_5319" data-name="Rectángulo 5319" width="16.518" height="52.595" transform="translate(10.47 40.791)" fill="#ed6e7a"/>
      <path id="Trazado_105574" data-name="Trazado 105574" d="M-278.77,1613.61h-16.521a.88.88,0,0,1-.881-.881v-52.6a.88.88,0,0,1,.881-.881h16.518a.883.883,0,0,1,.881.881v52.6a.882.882,0,0,1-.882.881Zm-15.636-1.761h14.757v-50.834h-14.757Z" transform="translate(305.759 -1519.43)" fill="#3a312a"/>
      <rect id="Rectángulo_5320" data-name="Rectángulo 5320" width="16.52" height="52.595" transform="translate(26.987 40.791)" fill="#ed6e7a"/>
      <path id="Trazado_105575" data-name="Trazado 105575" d="M-266.109,1613.61h-16.52a.88.88,0,0,1-.881-.881v-52.6a.88.88,0,0,1,.881-.881h16.52a.883.883,0,0,1,.881.881v52.6A.881.881,0,0,1-266.109,1613.61Zm-15.639-1.761h14.758v-50.834h-14.758Z" transform="translate(309.617 -1519.43)" fill="#3a312a"/>
      <rect id="Rectángulo_5321" data-name="Rectángulo 5321" width="16.518" height="5.806" transform="translate(10.47 85.209)" fill="#f6e2c6"/>
      <path id="Trazado_105576" data-name="Trazado 105576" d="M-278.77,1602.684h-16.521a.88.88,0,0,1-.881-.881V1596a.88.88,0,0,1,.881-.881h16.518a.88.88,0,0,1,.881.881v5.807a.882.882,0,0,1-.882.881Zm-15.636-1.761h14.757v-4.044h-14.757Z" transform="translate(305.759 -1510.876)" fill="#3a312a"/>
      <rect id="Rectángulo_5322" data-name="Rectángulo 5322" width="16.52" height="5.806" transform="translate(26.987 85.209)" fill="#f6e2c6"/>
      <path id="Trazado_105577" data-name="Trazado 105577" d="M-266.109,1602.684h-16.52a.88.88,0,0,1-.881-.881V1596a.88.88,0,0,1,.881-.881h16.52a.88.88,0,0,1,.881.881v5.807A.881.881,0,0,1-266.109,1602.684Zm-15.639-1.761h14.758v-4.044h-14.758Z" transform="translate(309.617 -1510.876)" fill="#3a312a"/>
      <rect id="Rectángulo_5323" data-name="Rectángulo 5323" width="52.216" height="5.768" transform="translate(0.881 41.126)" fill="#f6e2c6"/>
      <path id="Trazado_105578" data-name="Trazado 105578" d="M-250.425,1562.361h-52.214a.88.88,0,0,1-.881-.881v-5.769a.88.88,0,0,1,.881-.881h52.214a.88.88,0,0,1,.881.881v5.769A.88.88,0,0,1-250.425,1562.361Zm-51.334-1.761H-251.3v-4.008h-50.456Z" transform="translate(303.52 -1514.552)" fill="#3a312a"/>
      <path id="Trazado_105579" data-name="Trazado 105579" d="M-282.628,1568.543a.88.88,0,0,1-.881-.881v-32.243a.88.88,0,0,1,.881-.881.88.88,0,0,1,.881.881v32.243a.881.881,0,0,1-.881.881Z" transform="translate(309.617 -1517.359)" fill="#3a312a"/>
      <path id="Trazado_105580" data-name="Trazado 105580" d="M-269.964,1568.313a.88.88,0,0,1-.881-.881v-31.259a.88.88,0,0,1,.881-.881.88.88,0,0,1,.881.881v31.259a.88.88,0,0,1-.881.881Z" transform="translate(313.475 -1517.287)" fill="#3a312a"/>
      <path id="Trazado_105581" data-name="Trazado 105581" d="M-295.291,1568.313a.881.881,0,0,1-.881-.881v-31.259a.88.88,0,0,1,.881-.881.88.88,0,0,1,.881.881v31.259a.88.88,0,0,1-.881.881Z" transform="translate(305.759 -1517.287)" fill="#3a312a"/>
      <path id="Trazado_105582" data-name="Trazado 105582" d="M-292.734,1547.431l4.471,2.185,4.471-2.185v-7.647h-8.942Z" transform="translate(306.806 -1516.015)" fill="#fcb268"/>
      <path id="Trazado_105583" data-name="Trazado 105583" d="M-288.056,1550.7a.886.886,0,0,1-.391-.089l-4.472-2.185a.877.877,0,0,1-.493-.792v-7.645a.88.88,0,0,1,.881-.881h8.942a.88.88,0,0,1,.881.881v7.645a.881.881,0,0,1-.495.792l-4.471,2.185a.887.887,0,0,1-.391.089Zm-3.59-3.615,3.59,1.754,3.59-1.754v-6.215h-7.176Z" transform="translate(306.599 -1516.141)" fill="#3a312a"/>
    </g>
    <line id="Línea_180" data-name="Línea 180" x2="19.57" transform="translate(-8118 -6719.204)" fill="none" stroke="#ff9696" stroke-width="2"/>
    <line id="Línea_182" data-name="Línea 182" x2="19.57" transform="translate(-8118 -6591.346)" fill="none" stroke="#ff9696" stroke-width="2"/>
    <line id="Línea_181" data-name="Línea 181" y2="122.639" transform="translate(-8108.215 -6716.594)" fill="none" stroke="#ff9696" stroke-width="2"/>
    <g id="Rectángulo_6359" data-name="Rectángulo 6359" transform="translate(-8095.586 -6719.736)" fill="none" stroke="#707070" stroke-width="1">
      <rect width="79" height="130" stroke="none"/>
      <rect x="0.5" y="0.5" width="78" height="129" fill="none"/>
    </g>
  </g>
</svg>
