<svg xmlns="http://www.w3.org/2000/svg" width="158.215" height="103.581" viewBox="0 0 158.215 103.581">
  <g id="Grupo_1069625" data-name="Grupo 1069625" transform="translate(-189 -4571)">
    <g id="Grupo_1067772" data-name="Grupo 1067772" transform="translate(-556 -353.031)">
      <path id="Trazado_771771" data-name="Trazado 771771" d="M3.029,901.384c-4.854-10.632-9.623-21.763-18.282-29.613S-37.772,860.4-47.38,867.054c-6.449,4.467-9.558,12.294-14.67,18.244-4.391,5.111-10.2,8.763-15.273,13.2s-9.639,10.174-10.116,16.9c-.78,11,9.328,19.569,19.151,24.571a108.718,108.718,0,0,0,54.973,11.61c9.6-.525,35.933-4.308,36.339-17.97.161-5.407-6.641-9.634-9.612-13.5C9.069,914.456,5.973,907.832,3.029,901.384Z" transform="translate(832.481 4070.664)" fill="#025157"/>
      <g id="Grupo_1054388" data-name="Grupo 1054388" transform="translate(-912.32 4916.916)">
        <path id="Trazado_771758" data-name="Trazado 771758" d="M1719.933,176.872c-.182.885-.264,2.007.516,2.607a2.69,2.69,0,0,0,2.063.7c1.4-.258,1.346-1.325,1.433-2.566a4.56,4.56,0,0,0-.191-1.961,1.924,1.924,0,0,0-1.413-1.263,1.886,1.886,0,0,0-1.675.738A4,4,0,0,0,1719.933,176.872Z" transform="translate(-41.887 -116.568)" fill="#f5947a"/>
        <path id="Trazado_771759" data-name="Trazado 771759" d="M1693.235,139.81a1.538,1.538,0,0,0-.07-.525,1.6,1.6,0,0,0-.221-.369l-.538-.74a2.393,2.393,0,0,0-.7-.718,1.544,1.544,0,0,0-1.292-.05,3.429,3.429,0,0,0-1.1.744,4.094,4.094,0,0,0-.978,1.26c-.875,1.919.766,4.314,2.5,5.127C1693.355,145.713,1693.253,141.144,1693.235,139.81Z" transform="translate(-16.752 -87.181)" fill="#f5947a"/>
        <path id="Trazado_771760" data-name="Trazado 771760" d="M1672.416,97.065a1.971,1.971,0,0,0-.572-.742,9.418,9.418,0,0,0-3.04-2.169,1.5,1.5,0,0,0-1.11-.061,1.646,1.646,0,0,0-.724,1.5c-.083,1.526.495,3.719,2.291,4.036C1670.473,99.846,1672.925,98.534,1672.416,97.065Z" transform="translate(0 -52.875)" fill="#f5947a"/>
        <path id="Trazado_771761" data-name="Trazado 771761" d="M1690.61,45.548c-.439-.847-1.187-1.7-2.14-1.654a3.006,3.006,0,0,0-1.638.819,4.065,4.065,0,0,0-1.377,1.552,3.483,3.483,0,0,0-.2,1.04A3.3,3.3,0,0,0,1689.113,51C1691.53,50.505,1691.491,47.247,1690.61,45.548Z" transform="translate(-14.492 -13.152)" fill="#f5947a"/>
        <path id="Trazado_771762" data-name="Trazado 771762" d="M1733.282,30.8a3.441,3.441,0,0,0,.345-.975,3.212,3.212,0,0,0-.284-1.546,1.55,1.55,0,0,0-.605-.877,1.476,1.476,0,0,0-1.341.169,16.573,16.573,0,0,0-3.626,2.832,3.287,3.287,0,0,0-.615.7,2.247,2.247,0,0,0-.273,1.073c-.042,1.475,1.267,3.1,2.861,2.587C1731.555,34.178,1732.528,32.4,1733.282,30.8Z" transform="translate(-47.492 0)" fill="#f5947a"/>
        <path id="Trazado_771763" data-name="Trazado 771763" d="M1715.629,93.454a3.01,3.01,0,0,0,.662-.8,1.455,1.455,0,0,0-.507-1.475,5.064,5.064,0,0,0-1.837-1.084,2.058,2.058,0,0,0-1.334-.134,1.556,1.556,0,0,0-.908.976,4.438,4.438,0,0,0-.2,1.36c-.041,1.118-.015,3.135,1.478,3.332C1714.38,95.807,1714.9,94.272,1715.629,93.454Z" transform="translate(-35.299 -49.611)" fill="#f5947a"/>
        <path id="Trazado_771764" data-name="Trazado 771764" d="M1755.448,78.825a2.137,2.137,0,0,0-1.456-2.078,3.529,3.529,0,0,0-1.639-.019,4.262,4.262,0,0,0-1.3.4,3.708,3.708,0,0,0-1.689,2.419,3.5,3.5,0,0,0-.075,1.651c.369,1.59,2.36,2.338,3.837,1.869C1754.783,82.537,1755.377,80.354,1755.448,78.825Z" transform="translate(-65.2 -39.108)" fill="#f5947a"/>
        <path id="Trazado_771765" data-name="Trazado 771765" d="M1781.446,121.187a4.676,4.676,0,0,0,.116-1.316,2.49,2.49,0,0,0-.423-1.681,2.413,2.413,0,0,0-1.786-.566,4.9,4.9,0,0,0-1.481.119,1.633,1.633,0,0,0-1.172,2.3,3.787,3.787,0,0,0,2.4,2.423A1.98,1.98,0,0,0,1781.446,121.187Z" transform="translate(-86.87 -71.587)" fill="#f5947a"/>
        <path id="Trazado_771766" data-name="Trazado 771766" d="M1736.9,132.044a4.137,4.137,0,0,0-1.06-1.977,4.713,4.713,0,0,0-2.732-1.967.821.821,0,0,0-1.07.6,3.628,3.628,0,0,0,.087,2.257,9.263,9.263,0,0,0,1.061,2.03c.452.7,1.244,1.868,2.237,1.608A2.547,2.547,0,0,0,1736.9,132.044Z" transform="translate(-51.468 -79.881)" fill="#f5947a"/>
        <path id="Trazado_771767" data-name="Trazado 771767" d="M1776.033,162.2a2.282,2.282,0,0,0-.793-1.823,2.673,2.673,0,0,0-1.723-.353,2.352,2.352,0,0,0-1.355.389,2.385,2.385,0,0,0-.7,1.717,5.814,5.814,0,0,0,.134,2.108c.3,1.073,1.445,2.486,2.652,1.779A4.611,4.611,0,0,0,1776.033,162.2Z" transform="translate(-82.795 -105.193)" fill="#f5947a"/>
      </g>
    </g>
    <g id="Grupo_55936" data-name="Grupo 55936" transform="translate(-236.541 4514.04)">
      <path id="Trazado_106301" data-name="Trazado 106301" d="M470.586,160.542c27.724-3.072,87.406-.89,112.035-4.941,4.877-34.981-7.271-72.906-11.5-97.586-39.892-.847-51.25-3.334-107.322,4.459C468.841,88.557,466.517,135.917,470.586,160.542Z" transform="translate(0 0)" fill="#fff" fill-rule="evenodd"/>
      <path id="Trazado_106302" data-name="Trazado 106302" d="M473.547,160.163c7.6-.774,15.363-1.067,22.983-1.3,9.947-.31,19.9-.444,29.855-.6,10.821-.17,21.655-.334,32.468-.778,4.651-.191,9.305-.434,13.945-.806,3.333-.267,6.694-.594,10.006-1.095a129.216,129.216,0,0,0,.9-20.059c-.389-13.786-2.573-27.509-5.292-41.008-1.251-6.207-2.624-12.385-3.974-18.571-1.085-4.971-2.168-9.963-3.063-14.975-12.219-.282-24.45-.869-36.663-1-9.469-.1-18.837.189-28.282.887-13.076.966-26.149,2.569-39.14,4.358a192.407,192.407,0,0,1,2.277,20.528c.581,8.579.879,17.185,1.147,25.779.286,9.14.514,18.29.974,27.422C472.044,145.954,472.492,153.192,473.547,160.163Z" transform="translate(-1.615 -1.378)" fill="#ffdb59" fill-rule="evenodd" opacity="0.58"/>
      <path id="Trazado_106303" data-name="Trazado 106303" d="M472.206,147.614a106.5,106.5,0,0,0,21.449,2.161c41.239,0,75.791-23.263,84.906-54.531l-.146-.73c-1.251-6.207-2.624-12.385-3.974-18.571-1.085-4.971-2.168-9.963-3.063-14.975-12.219-.282-24.45-.869-36.663-1-9.469-.1-18.837.189-28.282.887-13.076.966-26.149,2.569-39.14,4.358a192.407,192.407,0,0,1,2.277,20.528c.581,8.579.879,17.185,1.147,25.779.286,9.14.514,18.29.974,27.422C471.835,141.806,472,144.707,472.206,147.614Z" transform="translate(-1.615 -1.378)" fill="#ffe586" fill-rule="evenodd" opacity="0.46"/>
      <path id="Trazado_106304" data-name="Trazado 106304" d="M476.885,159.884l.482-.041v-3.02h3.95v2.726l.481-.031v-2.7h3.951v2.468l.481-.024v-2.445h3.95v2.269l.481-.019v-2.25h3.951v2.109l.481-.016v-2.094h3.95v1.972l.481-.013v-1.959h3.95v1.855l.481-.011v-1.844h3.95v1.756l.482-.01v-1.746h3.95v1.67l.481-.009v-1.661h3.95v1.594l.481-.008v-1.585h3.95v1.523l.482-.007v-1.516h3.939v1.455l.492-.008v-1.447h3.939v1.385l.482-.008v-1.378h3.95v1.313l.481-.008v-1.3h3.95v1.233l.481-.009v-1.224h3.95v1.143l.482-.011v-1.132h3.949v1.036l.482-.012v-1.024h3.95v.91l.481-.015v-.895h3.95v.759l.482-.018v-.741h3.95v.579l.481-.021v-.558h3.95v.361l.481-.027v-.334h3.95v.09l.482-.033v-.057h.8q.959-.07,1.918-.146.615-.049,1.232-.1h.01l.059-.005.059,0,.059,0,.059-.005.059-.005.059,0,.059-.005.058,0q1.037-.089,2.076-.192h-2.076v-3.95h3.95v3.754l.482-.054v-3.7h3.95v2.474q.15-1.236.273-2.474v-.009l.007-.075V152.3l.029-.3.008-.075,0-.021q.088-.932.161-1.865v-2.085h.146l.029-.481h-.175v-3.95h.342l.012-.481h-.354V139.1h.391l0-.481h-.388v-3.95h.305l-.017-.481h-.289v-3.95h.1l-.03-.482h-.067v-1.019q-.1-1.467-.224-2.931l0-.02-.008-.09-.008-.089-.008-.089-.008-.089-.008-.089,0-.015q-.1-1.154-.215-2.307v2.307h-3.95v-3.95h3.78l-.052-.481h-3.728v-3.95h3.259l-.062-.481h-3.2v-3.95h2.65l-.071-.482h-2.579v-3.941h1.965l-.079-.481h-1.886v-3.951h1.209l-.086-.481h-1.123v-3.95h.393l-.091-.481h-.3V97.182q-.234-1.2-.474-2.391v0l-.008-.038-.047-.236-.042-.206h-3.861V90.359H577.9l-.1-.482h-2.946v-3.95h2.1l-.1-.481h-2V81.5h1.143l-.106-.481h-1.037v-3.95h.173l-.1-.482h-.068V76.27l-.071-.326-.411-1.884v2.522h-3.949v-3.95h3.64l-.1-.481h-3.536V68.2h2.7l-.1-.482h-2.6v-3.95h1.816l-.092-.481h-1.724v-2.35l-.482-.012v2.362h-3.95V60.817L565.5,60.8v2.485h-3.95V60.681l-.481-.016v2.623h-3.95V60.535l-.482-.016v2.769h-3.95v-2.9l-.481-.016v2.914h-3.95V60.252l-.482-.015v3.05h-3.949V60.13l-.482-.012v3.17H539.4V60.032l-.481-.009v3.265h-3.95V59.966l-.481,0v3.327h-3.95v-3.34l-.482,0v3.338h-3.939v-3.3l-.492.008v3.292h-3.939v-3.2l-.482.015v3.187h-3.95V60.245l-.481.021v3.022h-3.95V60.462l-.481.027v2.8h-3.95v-2.55l-.482.033v2.516h-3.95V61.072l-.481.039v2.178h-3.95V61.452l-.481.044v1.792h-3.95V61.874l-.481.048v1.365H490.66v-.952l-.481.052v.9h-3.95v-.456l-.481.056v.4h-3.364l-.587.072-.019,0-.061.008-.06.008-.061.008-.06.008-.061.007-.061.008-.06.008-.038,0q-1.4.172-2.81.35h2.81v3.95h-3.95v-3.8l-.482.062v3.743h-3.95V64.493l-.482.064v3.162H468.5V65.092l-.481.066v2.4l.025.163.007.045.008.052.008.052.008.052.008.052.008.052.008.052.008.052.008.052,0,.023q.2,1.337.382,2.681V68.2h3.95v3.95h-3.787l.059.481h3.728v3.95H469.16l.047.482h3.246v3.95h-2.9l.039.481h2.857v3.95h-2.567l.02.294.012.187h2.534v3.95h-2.288l.028.482h2.26v3.949H470.4l.023.482h2.028v3.95H470.6l.02.481h1.831v3.95h-1.678l.018.481h1.66V107.6h-1.525l.016.481h1.509v3.941H471.07l.015.482h1.369v3.95H471.2l.014.481h1.234v3.95h-1.115l.015.481h1.1v3.95h-.974l.016.482h.959v3.949h-.82l.018.482h.8v3.95h-.646l.021.481h.625v3.95h-.441l.016.327.008.154h.418v3.951h-.206l.029.481h.177v2.806q.038.572.079,1.144l.006.074.006.094.007.094.007.094.006.094,0,.032q.146,1.977.327,3.95l0,.045.036.375v0l.005.064h3.944v3.95h-3.519l.059.481h3.46v3.061Zm.482-3.542v-3.95h3.95v3.95Zm0-4.432v-3.95h3.95v3.95Zm0-4.431v-3.95h3.95v3.95Zm0-4.431V139.1h3.95v3.951Zm0-4.432v-3.95h3.95v3.95Zm0-4.431v-3.95h3.95v3.95Zm0-4.432V125.8h3.95v3.949Zm0-4.431v-3.95h3.95v3.95Zm0-4.431v-3.95h3.95v3.95Zm0-4.431v-3.95h3.95v3.95Zm0-4.432v-3.941h3.95v3.941Zm0-4.422v-3.951h3.95V107.6Zm0-4.432v-3.95h3.95v3.95Zm0-4.431V94.79h3.95v3.95Zm0-4.432V90.359h3.95v3.949Zm0-4.431v-3.95h3.95v3.95Zm0-4.431V81.5h3.95v3.95Zm0-4.431v-3.95h3.95v3.95Zm0-4.432v-3.95h3.95v3.95Zm0-4.431V68.2h3.95v3.95Zm-.482-3.95v3.95h-3.95V68.2Zm0,4.431v3.95h-3.95v-3.95Zm0,4.432v3.95h-3.95v-3.95Zm0,4.431v3.95h-3.95V81.5Zm0,4.431v3.95h-3.95v-3.95Zm0,4.432v3.949h-3.95V90.359Zm0,4.431v3.95h-3.95V94.79Zm0,4.431v3.95h-3.95v-3.95Zm0,4.431V107.6h-3.95v-3.951Zm0,4.432v3.941h-3.95v-3.941Zm0,4.423v3.95h-3.95v-3.95Zm0,4.431v3.95h-3.95v-3.95Zm0,4.431v3.95h-3.95v-3.95Zm0,4.432v3.949h-3.95V125.8Zm0,4.431v3.95h-3.95v-3.95Zm0,4.431v3.95h-3.95v-3.95Zm0,4.431v3.951h-3.95V139.1Zm0,4.432v3.95h-3.95v-3.95Zm0,4.431v3.95h-3.95v-3.95ZM578.8,108.085v3.941h-3.95v-3.941Zm-4.432,0v3.941h-3.949v-3.941Zm-4.431,0v3.941h-3.95v-3.941Zm-4.431,0v3.941h-3.95v-3.941Zm-4.431,0v3.941h-3.95v-3.941Zm-4.432,0v3.941h-3.95v-3.941Zm-4.431,0v3.941h-3.95v-3.941Zm-4.432,0v3.941h-3.949v-3.941Zm-4.431,0v3.941H539.4v-3.941Zm-4.431,0v3.941h-3.95v-3.941Zm-4.431,0v3.941h-3.95v-3.941Zm-4.432,0v3.941h-3.939v-3.941Zm-4.431,0v3.941h-3.939v-3.941Zm-4.421,0v3.941h-3.95v-3.941Zm-4.431,0v3.941h-3.95v-3.941Zm-4.431,0v3.941h-3.95v-3.941Zm-4.432,0v3.941h-3.95v-3.941Zm-4.431,0v3.941h-3.95v-3.941Zm-4.431,0v3.941h-3.95v-3.941Zm-4.431,0v3.941H490.66v-3.941Zm-4.432,0v3.941h-3.95v-3.941Zm-4.431,0v3.941H481.8v-3.941ZM481.8,107.6v-3.951h3.951V107.6Zm4.432,0v-3.951h3.95V107.6Zm4.431,0v-3.951h3.951V107.6Zm4.432,0v-3.951h3.95V107.6Zm4.431,0v-3.951h3.95V107.6Zm4.431,0v-3.951h3.95V107.6Zm4.432,0v-3.951h3.95V107.6Zm4.431,0v-3.951h3.95V107.6Zm4.431,0v-3.951h3.95V107.6Zm4.432,0v-3.951h3.939V107.6Zm4.431,0v-3.951h3.939V107.6Zm4.421,0v-3.951h3.95V107.6Zm4.431,0v-3.951h3.95V107.6Zm4.431,0v-3.951h3.95V107.6Zm4.432,0v-3.951h3.949V107.6Zm4.431,0v-3.951h3.95V107.6Zm4.431,0v-3.951h3.95V107.6Zm4.432,0v-3.951h3.95V107.6Zm4.431,0v-3.951h3.95V107.6Zm4.431,0v-3.951h3.95V107.6Zm4.432,0v-3.951h3.949V107.6Zm4.431,0v-3.951h3.95V107.6Zm-.482,48.738h-3.949v-3.95h3.949v3.95Zm-4.431,0h-3.95v-3.95h3.95v3.95Zm-4.431,0h-3.95v-3.95h3.95v3.95Zm-4.431,0h-3.95v-3.95h3.95v3.95Zm-4.432,0h-3.95v-3.95h3.95v3.95Zm-4.431,0h-3.95v-3.95h3.95v3.95Zm-4.432,0h-3.949v-3.95h3.949v3.95Zm-4.431,0H539.4v-3.95h3.95v3.95Zm-4.431,0h-3.95v-3.95h3.95v3.95Zm-4.431,0h-3.95v-3.95h3.95v3.95Zm-4.432,0h-3.939v-3.95h3.939v3.95Zm-4.431,0h-3.939v-3.95h3.939v3.95Zm-4.421,0h-3.95v-3.95h3.95v3.95Zm-4.431,0h-3.95v-3.95h3.95v3.95Zm-4.431,0h-3.95v-3.95h3.95v3.95Zm-4.432,0h-3.95v-3.95h3.95v3.95Zm-4.431,0h-3.95v-3.95h3.95v3.95Zm-4.431,0h-3.95v-3.95h3.95v3.95Zm-4.431,0H490.66v-3.95h3.951v3.95Zm-4.432,0h-3.95v-3.95h3.95v3.95Zm-4.431,0H481.8v-3.95h3.951v3.95Zm97.482-4.432h-3.95v-3.95h3.95v3.95Zm-4.431,0h-3.95v-3.95h3.95v3.95Zm-4.432,0h-3.949v-3.95h3.949v3.95Zm-4.431,0h-3.95v-3.95h3.95v3.95Zm-4.431,0h-3.95v-3.95h3.95v3.95Zm-4.431,0h-3.95v-3.95h3.95v3.95Zm-4.432,0h-3.95v-3.95h3.95v3.95Zm-4.431,0h-3.95v-3.95h3.95v3.95Zm-4.432,0h-3.949v-3.95h3.949v3.95Zm-4.431,0H539.4v-3.95h3.95v3.95Zm-4.431,0h-3.95v-3.95h3.95v3.95Zm-4.431,0h-3.95v-3.95h3.95v3.95Zm-4.432,0h-3.939v-3.95h3.939v3.95Zm-4.431,0h-3.939v-3.95h3.939v3.95Zm-4.421,0h-3.95v-3.95h3.95v3.95Zm-4.431,0h-3.95v-3.95h3.95v3.95Zm-4.431,0h-3.95v-3.95h3.95v3.95Zm-4.432,0h-3.95v-3.95h3.95v3.95Zm-4.431,0h-3.95v-3.95h3.95v3.95Zm-4.431,0h-3.95v-3.95h3.95v3.95Zm-4.431,0H490.66v-3.95h3.951v3.95Zm-4.432,0h-3.95v-3.95h3.95v3.95Zm-4.431,0H481.8v-3.95h3.951v3.95Zm97.482-4.431h-3.95v-3.95h3.95v3.95Zm-4.431,0h-3.95v-3.95h3.95v3.95Zm-4.432,0h-3.949v-3.95h3.949v3.95Zm-4.431,0h-3.95v-3.95h3.95v3.95Zm-4.431,0h-3.95v-3.95h3.95v3.95Zm-4.431,0h-3.95v-3.95h3.95v3.95Zm-4.432,0h-3.95v-3.95h3.95v3.95Zm-4.431,0h-3.95v-3.95h3.95v3.95Zm-4.432,0h-3.949v-3.95h3.949v3.95Zm-4.431,0H539.4v-3.95h3.95v3.95Zm-4.431,0h-3.95v-3.95h3.95v3.95Zm-4.431,0h-3.95v-3.95h3.95v3.95Zm-4.432,0h-3.939v-3.95h3.939v3.95Zm-4.431,0h-3.939v-3.95h3.939v3.95Zm-4.421,0h-3.95v-3.95h3.95v3.95Zm-4.431,0h-3.95v-3.95h3.95v3.95Zm-4.431,0h-3.95v-3.95h3.95v3.95Zm-4.432,0h-3.95v-3.95h3.95v3.95Zm-4.431,0h-3.95v-3.95h3.95v3.95Zm-4.431,0h-3.95v-3.95h3.95v3.95Zm-4.431,0H490.66v-3.95h3.951v3.95Zm-4.432,0h-3.95v-3.95h3.95v3.95Zm-4.431,0H481.8v-3.95h3.951v3.95Zm97.482-4.431h-3.95V139.1h3.95v3.951Zm-4.431,0h-3.95V139.1h3.95v3.951Zm-4.432,0h-3.949V139.1h3.949v3.951Zm-4.431,0h-3.95V139.1h3.95v3.951Zm-4.431,0h-3.95V139.1h3.95v3.951Zm-4.431,0h-3.95V139.1h3.95v3.951Zm-4.432,0h-3.95V139.1h3.95v3.951Zm-4.431,0h-3.95V139.1h3.95v3.951Zm-4.432,0h-3.949V139.1h3.949v3.951Zm-4.431,0H539.4V139.1h3.95v3.951Zm-4.431,0h-3.95V139.1h3.95v3.951Zm-4.431,0h-3.95V139.1h3.95v3.951Zm-4.432,0h-3.939V139.1h3.939v3.951Zm-4.431,0h-3.939V139.1h3.939v3.951Zm-4.421,0h-3.95V139.1h3.95v3.951Zm-4.431,0h-3.95V139.1h3.95v3.951Zm-4.431,0h-3.95V139.1h3.95v3.951Zm-4.432,0h-3.95V139.1h3.95v3.951Zm-4.431,0h-3.95V139.1h3.95v3.951Zm-4.431,0h-3.95V139.1h3.95v3.951Zm-4.431,0H490.66V139.1h3.951v3.951Zm-4.432,0h-3.95V139.1h3.95v3.951Zm-4.431,0H481.8V139.1h3.951v3.951Zm97.482-4.432h-3.95v-3.95h3.95v3.95Zm-4.431,0h-3.95v-3.95h3.95v3.95Zm-4.432,0h-3.949v-3.95h3.949v3.95Zm-4.431,0h-3.95v-3.95h3.95v3.95Zm-4.431,0h-3.95v-3.95h3.95v3.95Zm-4.431,0h-3.95v-3.95h3.95v3.95Zm-4.432,0h-3.95v-3.95h3.95v3.95Zm-4.431,0h-3.95v-3.95h3.95v3.95Zm-4.432,0h-3.949v-3.95h3.949v3.95Zm-4.431,0H539.4v-3.95h3.95v3.95Zm-4.431,0h-3.95v-3.95h3.95v3.95Zm-4.431,0h-3.95v-3.95h3.95v3.95Zm-4.432,0h-3.939v-3.95h3.939v3.95Zm-4.431,0h-3.939v-3.95h3.939v3.95Zm-4.421,0h-3.95v-3.95h3.95v3.95Zm-4.431,0h-3.95v-3.95h3.95v3.95Zm-4.431,0h-3.95v-3.95h3.95v3.95Zm-4.432,0h-3.95v-3.95h3.95v3.95Zm-4.431,0h-3.95v-3.95h3.95v3.95Zm-4.431,0h-3.95v-3.95h3.95v3.95Zm-4.431,0H490.66v-3.95h3.951v3.95Zm-4.432,0h-3.95v-3.95h3.95v3.95Zm-4.431,0H481.8v-3.95h3.951v3.95Zm97.482-4.431h-3.95v-3.95h3.95v3.95Zm-4.431,0h-3.95v-3.95h3.95v3.95Zm-4.432,0h-3.949v-3.95h3.949v3.95Zm-4.431,0h-3.95v-3.95h3.95v3.95Zm-4.431,0h-3.95v-3.95h3.95v3.95Zm-4.431,0h-3.95v-3.95h3.95v3.95Zm-4.432,0h-3.95v-3.95h3.95v3.95Zm-4.431,0h-3.95v-3.95h3.95v3.95Zm-4.432,0h-3.949v-3.95h3.949v3.95Zm-4.431,0H539.4v-3.95h3.95v3.95Zm-4.431,0h-3.95v-3.95h3.95v3.95Zm-4.431,0h-3.95v-3.95h3.95v3.95Zm-4.432,0h-3.939v-3.95h3.939v3.95Zm-4.431,0h-3.939v-3.95h3.939v3.95Zm-4.421,0h-3.95v-3.95h3.95v3.95Zm-4.431,0h-3.95v-3.95h3.95v3.95Zm-4.431,0h-3.95v-3.95h3.95v3.95Zm-4.432,0h-3.95v-3.95h3.95v3.95Zm-4.431,0h-3.95v-3.95h3.95v3.95Zm-4.431,0h-3.95v-3.95h3.95v3.95Zm-4.431,0H490.66v-3.95h3.951v3.95Zm-4.432,0h-3.95v-3.95h3.95v3.95Zm-4.431,0H481.8v-3.95h3.951v3.95Zm97.482-4.432h-3.95V125.8h3.95v3.949Zm-4.431,0h-3.95V125.8h3.95v3.949Zm-4.432,0h-3.949V125.8h3.949v3.949Zm-4.431,0h-3.95V125.8h3.95v3.949Zm-4.431,0h-3.95V125.8h3.95v3.949Zm-4.431,0h-3.95V125.8h3.95v3.949Zm-4.432,0h-3.95V125.8h3.95v3.949Zm-4.431,0h-3.95V125.8h3.95v3.949Zm-4.432,0h-3.949V125.8h3.949v3.949Zm-4.431,0H539.4V125.8h3.95v3.949Zm-4.431,0h-3.95V125.8h3.95v3.949Zm-4.431,0h-3.95V125.8h3.95v3.949Zm-4.432,0h-3.939V125.8h3.939v3.949Zm-4.431,0h-3.939V125.8h3.939v3.949Zm-4.421,0h-3.95V125.8h3.95v3.949Zm-4.431,0h-3.95V125.8h3.95v3.949Zm-4.431,0h-3.95V125.8h3.95v3.949Zm-4.432,0h-3.95V125.8h3.95v3.949Zm-4.431,0h-3.95V125.8h3.95v3.949Zm-4.431,0h-3.95V125.8h3.95v3.949Zm-4.431,0H490.66V125.8h3.951v3.949Zm-4.432,0h-3.95V125.8h3.95v3.949Zm-4.431,0H481.8V125.8h3.951v3.949ZM578.8,125.32h-3.95v-3.95h3.95v3.95Zm-4.432,0h-3.949v-3.95h3.949v3.95Zm-4.431,0h-3.95v-3.95h3.95v3.95Zm-4.431,0h-3.95v-3.95h3.95v3.95Zm-4.431,0h-3.95v-3.95h3.95v3.95Zm-4.432,0h-3.95v-3.95h3.95v3.95Zm-4.431,0h-3.95v-3.95h3.95v3.95Zm-4.432,0h-3.949v-3.95h3.949v3.95Zm-4.431,0H539.4v-3.95h3.95v3.95Zm-4.431,0h-3.95v-3.95h3.95v3.95Zm-4.431,0h-3.95v-3.95h3.95v3.95Zm-4.432,0h-3.939v-3.95h3.939v3.95Zm-4.431,0h-3.939v-3.95h3.939v3.95Zm-4.421,0h-3.95v-3.95h3.95v3.95Zm-4.431,0h-3.95v-3.95h3.95v3.95Zm-4.431,0h-3.95v-3.95h3.95v3.95Zm-4.432,0h-3.95v-3.95h3.95v3.95Zm-4.431,0h-3.95v-3.95h3.95v3.95Zm-4.431,0h-3.95v-3.95h3.95v3.95Zm-4.431,0H490.66v-3.95h3.951v3.95Zm-4.432,0h-3.95v-3.95h3.95v3.95Zm-4.431,0H481.8v-3.95h3.951v3.95Zm93.051-4.431h-3.95v-3.95h3.95v3.95Zm-4.432,0h-3.949v-3.95h3.949v3.95Zm-4.431,0h-3.95v-3.95h3.95v3.95Zm-4.431,0h-3.95v-3.95h3.95v3.95Zm-4.431,0h-3.95v-3.95h3.95v3.95Zm-4.432,0h-3.95v-3.95h3.95v3.95Zm-4.431,0h-3.95v-3.95h3.95v3.95Zm-4.432,0h-3.949v-3.95h3.949v3.95Zm-4.431,0H539.4v-3.95h3.95v3.95Zm-4.431,0h-3.95v-3.95h3.95v3.95Zm-4.431,0h-3.95v-3.95h3.95v3.95Zm-4.432,0h-3.939v-3.95h3.939v3.95Zm-4.431,0h-3.939v-3.95h3.939v3.95Zm-4.421,0h-3.95v-3.95h3.95v3.95Zm-4.431,0h-3.95v-3.95h3.95v3.95Zm-4.431,0h-3.95v-3.95h3.95v3.95Zm-4.432,0h-3.95v-3.95h3.95v3.95Zm-4.431,0h-3.95v-3.95h3.95v3.95Zm-4.431,0h-3.95v-3.95h3.95v3.95Zm-4.431,0H490.66v-3.95h3.951v3.95Zm-4.432,0h-3.95v-3.95h3.95v3.95Zm-4.431,0H481.8v-3.95h3.951v3.95Zm93.051-4.431h-3.95v-3.95h3.95v3.95Zm-4.432,0h-3.949v-3.95h3.949v3.95Zm-4.431,0h-3.95v-3.95h3.95v3.95Zm-4.431,0h-3.95v-3.95h3.95v3.95Zm-4.431,0h-3.95v-3.95h3.95v3.95Zm-4.432,0h-3.95v-3.95h3.95v3.95Zm-4.431,0h-3.95v-3.95h3.95v3.95Zm-4.432,0h-3.949v-3.95h3.949v3.95Zm-4.431,0H539.4v-3.95h3.95v3.95Zm-4.431,0h-3.95v-3.95h3.95v3.95Zm-4.431,0h-3.95v-3.95h3.95v3.95Zm-4.432,0h-3.939v-3.95h3.939v3.95Zm-4.431,0h-3.939v-3.95h3.939v3.95Zm-4.421,0h-3.95v-3.95h3.95v3.95Zm-4.431,0h-3.95v-3.95h3.95v3.95Zm-4.431,0h-3.95v-3.95h3.95v3.95Zm-4.432,0h-3.95v-3.95h3.95v3.95Zm-4.431,0h-3.95v-3.95h3.95v3.95Zm-4.431,0h-3.95v-3.95h3.95v3.95Zm-4.431,0H490.66v-3.95h3.951v3.95Zm-4.432,0h-3.95v-3.95h3.95v3.95Zm-4.431,0H481.8v-3.95h3.951v3.95ZM578.8,103.172h-3.95v-3.95h3.95v3.95Zm-4.432,0h-3.949v-3.95h3.949v3.95Zm-4.431,0h-3.95v-3.95h3.95v3.95Zm-4.431,0h-3.95v-3.95h3.95v3.95Zm-4.431,0h-3.95v-3.95h3.95v3.95Zm-4.432,0h-3.95v-3.95h3.95v3.95Zm-4.431,0h-3.95v-3.95h3.95v3.95Zm-4.432,0h-3.949v-3.95h3.949v3.95Zm-4.431,0H539.4v-3.95h3.95v3.95Zm-4.431,0h-3.95v-3.95h3.95v3.95Zm-4.431,0h-3.95v-3.95h3.95v3.95Zm-4.432,0h-3.939v-3.95h3.939v3.95Zm-4.431,0h-3.939v-3.95h3.939v3.95Zm-4.421,0h-3.95v-3.95h3.95v3.95Zm-4.431,0h-3.95v-3.95h3.95v3.95Zm-4.431,0h-3.95v-3.95h3.95v3.95Zm-4.432,0h-3.95v-3.95h3.95v3.95Zm-4.431,0h-3.95v-3.95h3.95v3.95Zm-4.431,0h-3.95v-3.95h3.95v3.95Zm-4.431,0H490.66v-3.95h3.951v3.95Zm-4.432,0h-3.95v-3.95h3.95v3.95Zm-4.431,0H481.8v-3.95h3.951v3.95ZM578.8,98.74h-3.95V94.79h3.95v3.95Zm-4.432,0h-3.949V94.79h3.949v3.95Zm-4.431,0h-3.95V94.79h3.95v3.95Zm-4.431,0h-3.95V94.79h3.95v3.95Zm-4.431,0h-3.95V94.79h3.95v3.95Zm-4.432,0h-3.95V94.79h3.95v3.95Zm-4.431,0h-3.95V94.79h3.95v3.95Zm-4.432,0h-3.949V94.79h3.949v3.95Zm-4.431,0H539.4V94.79h3.95v3.95Zm-4.431,0h-3.95V94.79h3.95v3.95Zm-4.431,0h-3.95V94.79h3.95v3.95Zm-4.432,0h-3.939V94.79h3.939v3.95Zm-4.431,0h-3.939V94.79h3.939v3.95Zm-4.421,0h-3.95V94.79h3.95v3.95Zm-4.431,0h-3.95V94.79h3.95v3.95Zm-4.431,0h-3.95V94.79h3.95v3.95Zm-4.432,0h-3.95V94.79h3.95v3.95Zm-4.431,0h-3.95V94.79h3.95v3.95Zm-4.431,0h-3.95V94.79h3.95v3.95Zm-4.431,0H490.66V94.79h3.951v3.95Zm-4.432,0h-3.95V94.79h3.95v3.95Zm-4.431,0H481.8V94.79h3.951v3.95Zm88.619-4.432h-3.949V90.359h3.949v3.949Zm-4.431,0h-3.95V90.359h3.95v3.949Zm-4.431,0h-3.95V90.359h3.95v3.949Zm-4.431,0h-3.95V90.359h3.95v3.949Zm-4.432,0h-3.95V90.359h3.95v3.949Zm-4.431,0h-3.95V90.359h3.95v3.949Zm-4.432,0h-3.949V90.359h3.949v3.949Zm-4.431,0H539.4V90.359h3.95v3.949Zm-4.431,0h-3.95V90.359h3.95v3.949Zm-4.431,0h-3.95V90.359h3.95v3.949Zm-4.432,0h-3.939V90.359h3.939v3.949Zm-4.431,0h-3.939V90.359h3.939v3.949Zm-4.421,0h-3.95V90.359h3.95v3.949Zm-4.431,0h-3.95V90.359h3.95v3.949Zm-4.431,0h-3.95V90.359h3.95v3.949Zm-4.432,0h-3.95V90.359h3.95v3.949Zm-4.431,0h-3.95V90.359h3.95v3.949Zm-4.431,0h-3.95V90.359h3.95v3.949Zm-4.431,0H490.66V90.359h3.951v3.949Zm-4.432,0h-3.95V90.359h3.95v3.949Zm-4.431,0H481.8V90.359h3.951v3.949Zm88.619-4.431h-3.949v-3.95h3.949v3.95Zm-4.431,0h-3.95v-3.95h3.95v3.95Zm-4.431,0h-3.95v-3.95h3.95v3.95Zm-4.431,0h-3.95v-3.95h3.95v3.95Zm-4.432,0h-3.95v-3.95h3.95v3.95Zm-4.431,0h-3.95v-3.95h3.95v3.95Zm-4.432,0h-3.949v-3.95h3.949v3.95Zm-4.431,0H539.4v-3.95h3.95v3.95Zm-4.431,0h-3.95v-3.95h3.95v3.95Zm-4.431,0h-3.95v-3.95h3.95v3.95Zm-4.432,0h-3.939v-3.95h3.939v3.95Zm-4.431,0h-3.939v-3.95h3.939v3.95Zm-4.421,0h-3.95v-3.95h3.95v3.95Zm-4.431,0h-3.95v-3.95h3.95v3.95Zm-4.431,0h-3.95v-3.95h3.95v3.95Zm-4.432,0h-3.95v-3.95h3.95v3.95Zm-4.431,0h-3.95v-3.95h3.95v3.95Zm-4.431,0h-3.95v-3.95h3.95v3.95Zm-4.431,0H490.66v-3.95h3.951v3.95Zm-4.432,0h-3.95v-3.95h3.95v3.95Zm-4.431,0H481.8v-3.95h3.951v3.95Zm88.619-4.431h-3.949V81.5h3.949v3.95Zm-4.431,0h-3.95V81.5h3.95v3.95Zm-4.431,0h-3.95V81.5h3.95v3.95Zm-4.431,0h-3.95V81.5h3.95v3.95Zm-4.432,0h-3.95V81.5h3.95v3.95Zm-4.431,0h-3.95V81.5h3.95v3.95Zm-4.432,0h-3.949V81.5h3.949v3.95Zm-4.431,0H539.4V81.5h3.95v3.95Zm-4.431,0h-3.95V81.5h3.95v3.95Zm-4.431,0h-3.95V81.5h3.95v3.95Zm-4.432,0h-3.939V81.5h3.939v3.95Zm-4.431,0h-3.939V81.5h3.939v3.95Zm-4.421,0h-3.95V81.5h3.95v3.95Zm-4.431,0h-3.95V81.5h3.95v3.95Zm-4.431,0h-3.95V81.5h3.95v3.95Zm-4.432,0h-3.95V81.5h3.95v3.95Zm-4.431,0h-3.95V81.5h3.95v3.95Zm-4.431,0h-3.95V81.5h3.95v3.95Zm-4.431,0H490.66V81.5h3.951v3.95Zm-4.432,0h-3.95V81.5h3.95v3.95Zm-4.431,0H481.8V81.5h3.951v3.95Zm88.619-4.431h-3.949v-3.95h3.949v3.95Zm-4.431,0h-3.95v-3.95h3.95v3.95Zm-4.431,0h-3.95v-3.95h3.95v3.95Zm-4.431,0h-3.95v-3.95h3.95v3.95Zm-4.432,0h-3.95v-3.95h3.95v3.95Zm-4.431,0h-3.95v-3.95h3.95v3.95Zm-4.432,0h-3.949v-3.95h3.949v3.95Zm-4.431,0H539.4v-3.95h3.95v3.95Zm-4.431,0h-3.95v-3.95h3.95v3.95Zm-4.431,0h-3.95v-3.95h3.95v3.95Zm-4.432,0h-3.939v-3.95h3.939v3.95Zm-4.431,0h-3.939v-3.95h3.939v3.95Zm-4.421,0h-3.95v-3.95h3.95v3.95Zm-4.431,0h-3.95v-3.95h3.95v3.95Zm-4.431,0h-3.95v-3.95h3.95v3.95Zm-4.432,0h-3.95v-3.95h3.95v3.95Zm-4.431,0h-3.95v-3.95h3.95v3.95Zm-4.431,0h-3.95v-3.95h3.95v3.95Zm-4.431,0H490.66v-3.95h3.951v3.95Zm-4.432,0h-3.95v-3.95h3.95v3.95Zm-4.431,0H481.8v-3.95h3.951v3.95Zm84.188-4.432h-3.95v-3.95h3.95v3.95Zm-4.431,0h-3.95v-3.95h3.95v3.95Zm-4.431,0h-3.95v-3.95h3.95v3.95Zm-4.432,0h-3.95v-3.95h3.95v3.95Zm-4.431,0h-3.95v-3.95h3.95v3.95Zm-4.432,0h-3.949v-3.95h3.949v3.95Zm-4.431,0H539.4v-3.95h3.95v3.95Zm-4.431,0h-3.95v-3.95h3.95v3.95Zm-4.431,0h-3.95v-3.95h3.95v3.95Zm-4.432,0h-3.939v-3.95h3.939v3.95Zm-4.431,0h-3.939v-3.95h3.939v3.95Zm-4.421,0h-3.95v-3.95h3.95v3.95Zm-4.431,0h-3.95v-3.95h3.95v3.95Zm-4.431,0h-3.95v-3.95h3.95v3.95Zm-4.432,0h-3.95v-3.95h3.95v3.95Zm-4.431,0h-3.95v-3.95h3.95v3.95Zm-4.431,0h-3.95v-3.95h3.95v3.95Zm-4.431,0H490.66v-3.95h3.951v3.95Zm-4.432,0h-3.95v-3.95h3.95v3.95Zm-4.431,0H481.8v-3.95h3.951v3.95Zm84.188-4.431h-3.95V68.2h3.95v3.95Zm-4.431,0h-3.95V68.2h3.95v3.95Zm-4.431,0h-3.95V68.2h3.95v3.95Zm-4.432,0h-3.95V68.2h3.95v3.95Zm-4.431,0h-3.95V68.2h3.95v3.95Zm-4.432,0h-3.949V68.2h3.949v3.95Zm-4.431,0H539.4V68.2h3.95v3.95Zm-4.431,0h-3.95V68.2h3.95v3.95Zm-4.431,0h-3.95V68.2h3.95v3.95Zm-4.432,0h-3.939V68.2h3.939v3.95Zm-4.431,0h-3.939V68.2h3.939v3.95Zm-4.421,0h-3.95V68.2h3.95v3.95Zm-4.431,0h-3.95V68.2h3.95v3.95Zm-4.431,0h-3.95V68.2h3.95v3.95Zm-4.432,0h-3.95V68.2h3.95v3.95Zm-4.431,0h-3.95V68.2h3.95v3.95Zm-4.431,0h-3.95V68.2h3.95v3.95Zm-4.431,0H490.66V68.2h3.951v3.95Zm-4.432,0h-3.95V68.2h3.95v3.95Zm-4.431,0H481.8V68.2h3.951v3.95Zm84.188-4.432h-3.95v-3.95h3.95v3.95Zm-4.431,0h-3.95v-3.95h3.95v3.95Zm-4.431,0h-3.95v-3.95h3.95v3.95Zm-4.432,0h-3.95v-3.95h3.95v3.95Zm-4.431,0h-3.95v-3.95h3.95v3.95Zm-4.432,0h-3.949v-3.95h3.949v3.95Zm-4.431,0H539.4v-3.95h3.95v3.95Zm-4.431,0h-3.95v-3.95h3.95v3.95Zm-4.431,0h-3.95v-3.95h3.95v3.95Zm-4.432,0h-3.939v-3.95h3.939v3.95Zm-4.431,0h-3.939v-3.95h3.939v3.95Zm-4.421,0h-3.95v-3.95h3.95v3.95Zm-4.431,0h-3.95v-3.95h3.95v3.95Zm-4.431,0h-3.95v-3.95h3.95v3.95Zm-4.432,0h-3.95v-3.95h3.95v3.95Zm-4.431,0h-3.95v-3.95h3.95v3.95Zm-4.431,0h-3.95v-3.95h3.95v3.95Zm-4.431,0H490.66v-3.95h3.951v3.95Zm-4.432,0h-3.95v-3.95h3.95v3.95Zm-4.431,0H481.8v-3.95h3.951Z" transform="translate(-1.952 -1.379)" fill="#fff" fill-rule="evenodd"/>
      <path id="Trazado_106305" data-name="Trazado 106305" d="M647.335,72.832a3.091,3.091,0,1,0-3.091-3.091A3.1,3.1,0,0,0,647.335,72.832Z" transform="translate(-83.301 -4.473)" fill="#ff9696" fill-rule="evenodd"/>
      <path id="Trazado_106306" data-name="Trazado 106306" d="M671.82,229.745a3.091,3.091,0,1,0-3.091-3.091A3.1,3.1,0,0,0,671.82,229.745Z" transform="translate(-94.604 -76.909)" fill="#ff9696" fill-rule="evenodd"/>
      <path id="Trazado_106307" data-name="Trazado 106307" d="M523.511,109.61l-2.278-18.221a.494.494,0,0,1,.348-.538,100.783,100.783,0,0,1,22.312-4.95,157.8,157.8,0,0,1,25.539-.633.5.5,0,0,1,.474.474c.625,12.443,1.434,25.009,3.268,37.339,1.536,10.33,3.928,21.564,8.5,31.007a.5.5,0,0,1-.232.667.487.487,0,0,1-.227.05l-6.082.055c-11.587.107-23.163.232-34.744.668-13.312.5-26.585,1.408-39.829,2.857a.5.5,0,0,1-.551-.462v-.046a97.073,97.073,0,0,0-3.07-23.1c-1.81-7.3-4.242-14.4-6.694-21.5a.5.5,0,0,1,.332-.641l.072-.016.013,0c4.406-.487,8.521-1.89,11.544-5.264,2.4-2.673,3.674-6.064,4.811-9.413a.5.5,0,0,1,.633-.312.463.463,0,0,1,.149.08q7.842,5.968,15.709,11.9Zm-32.118,3.921c2.393,6.933,4.751,13.878,6.519,21a98.521,98.521,0,0,1,3.094,22.8c13.124-1.421,26.278-2.312,39.469-2.807,11.551-.433,23.1-.557,34.655-.663l5.313-.049c-4.4-9.388-6.739-20.39-8.256-30.588-1.816-12.212-2.63-24.656-3.254-36.983a156.128,156.128,0,0,0-24.929.65,100.189,100.189,0,0,0-21.729,4.772l2.375,19a.5.5,0,0,1-.8.46q-8.064-6.091-16.111-12.206a25.838,25.838,0,0,1-4.788,9.1C499.9,111.42,495.83,112.951,491.393,113.531Z" transform="translate(-12.2 -12.957)" fill="#ff9696" fill-rule="evenodd"/>
      <path id="Trazado_106308" data-name="Trazado 106308" d="M498.919,118.382a.271.271,0,0,0-.513.174l.348,1.025a.271.271,0,0,0,.513-.174l-.348-1.026Zm.44-.373c.344-.093.686-.2,1.025-.307a.271.271,0,0,1,.167.515c-.347.112-.7.218-1.048.314a.271.271,0,0,1-.144-.522Zm2.531-.859a.271.271,0,0,0,.207.5c.331-.134.686-.286,1-.446a.271.271,0,0,0-.235-.488c-.309.155-.654.3-.976.433Zm2.388-1.186a.271.271,0,0,0,.278.465c.315-.186.626-.382.928-.588a.271.271,0,0,0-.3-.447c-.293.2-.6.39-.9.57Zm2.183-1.527a.271.271,0,0,0,.345.417c.283-.234.558-.474.826-.725.25-.2-.064-.641-.37-.4-.261.243-.527.476-.8.7Zm1.922-1.847a.271.271,0,0,0,.4.362c.243-.261.489-.558.711-.838a.271.271,0,0,0-.423-.339c-.218.272-.454.56-.691.815Zm1.641-2.1a.271.271,0,0,0,.412.347l.037-.044c.206-.3.4-.609.595-.92a.271.271,0,0,0-.462-.282c-.188.3-.38.6-.581.9Zm1.378-2.3a.271.271,0,0,0,.479.253c.172-.32.336-.648.494-.975a.271.271,0,0,0-.487-.235c-.156.321-.317.643-.486.957Zm1.64-2.242a.271.271,0,1,0-.327.432c.289.21.577.437.862.654a.271.271,0,0,0,.339-.422c-.277-.222-.587-.455-.874-.664Zm2.158,1.637a.271.271,0,0,0-.339.423c.284.227.587.439.874.663a.271.271,0,1,0,.327-.432l-.863-.654Zm2.158,1.636a.271.271,0,1,0-.327.432l.864.654a.271.271,0,1,0,.327-.432l-.864-.654Zm2.158,1.634a.271.271,0,1,0-.327.432l.864.654a.271.271,0,1,0,.326-.432c-.289-.215-.575-.437-.864-.654Zm2.159,1.634a.271.271,0,1,0-.327.432l.864.653a.273.273,0,0,0,.37-.04.27.27,0,0,0-.043-.391l-.864-.654Zm2.16,1.633a.271.271,0,0,0-.327.432l.864.654a.271.271,0,0,0,.327-.432l-.864-.654Zm2.16,1.633a.273.273,0,0,0-.37.04.27.27,0,0,0,.043.391l.864.654a.271.271,0,0,0,.327-.432l-.864-.653Zm2.16,1.633a.275.275,0,0,0-.2-.052.271.271,0,0,0-.128.485l.864.653a.271.271,0,0,0,.326-.432l-.864-.653Zm2.159,1.633a.271.271,0,0,0-.326.432l.864.653a.271.271,0,0,0,.327-.432l-.864-.653Zm1.331,1.2a.271.271,0,0,0,.537-.067l-.135-1.075a.271.271,0,0,0-.537.067l.135,1.075Zm-.336-2.688a.271.271,0,0,0,.537-.067l-.134-1.075a.271.271,0,0,0-.537.067l.134,1.075Zm-.336-2.687a.271.271,0,0,0,.537-.067l-.134-1.075a.271.271,0,0,0-.538.067l.135,1.075Zm-.336-2.687a.271.271,0,0,0,.537-.067l-.134-1.075a.271.271,0,0,0-.537.067l.134,1.075Zm-.335-2.687a.27.27,0,0,0,.537-.067l-.134-1.075a.271.271,0,0,0-.537.067l.135,1.075Zm-.336-2.686a.271.271,0,0,0,.537-.067l-.135-1.075a.271.271,0,0,0-.537.067l.135,1.075Zm-.336-2.686a.271.271,0,0,0,.537-.067l-.134-1.075a.271.271,0,0,0-.537.067l.134,1.075Zm-.335-2.687a.27.27,0,0,0,.537-.067l-.134-1.075a.271.271,0,0,0-.537.067l.135,1.075Zm-.336-2.686a.271.271,0,0,0,.537-.067l-.135-1.075a.27.27,0,0,0-.537.067l.134,1.075Zm.258-2.718a.271.271,0,0,0,.162.517c.341-.108.7-.205,1.031-.317a.271.271,0,0,0-.154-.519c-.343.094-.7.212-1.039.319Zm2.6-.774a.271.271,0,0,0,.145.522l1.042-.285a.271.271,0,0,0-.139-.523l-1.048.287Zm2.626-.693a.271.271,0,0,0,.13.526l1.05-.254a.27.27,0,0,0-.124-.527l-1.056.255Zm2.645-.615a.27.27,0,0,0,.114.529c.351-.076.7-.155,1.057-.224a.271.271,0,0,0-.109-.53l-1.062.226Zm2.66-.542a.271.271,0,0,0,.1.532l1.063-.2a.27.27,0,0,0-.1-.532l-1.068.2Zm2.674-.472a.271.271,0,0,0,.087.535l1.067-.169a.271.271,0,0,0-.081-.536l-1.072.17Zm2.684-.4a.271.271,0,0,0,.074.537l1.071-.143a.271.271,0,0,0-.069-.537l-1.076.143Zm2.692-.34a.271.271,0,0,0,.062.538l1.074-.118a.271.271,0,0,0-.057-.538l-1.079.119Zm2.7-.28a.271.271,0,0,0,.05.539l1.077-.1a.271.271,0,0,0-.046-.539l-1.081.1Zm2.7-.222a.271.271,0,0,0,.039.54l1.078-.073a.271.271,0,0,0-.034-.541l-1.083.073Zm2.708-.168a.271.271,0,0,0,.028.541l1.08-.052a.271.271,0,0,0-.024-.541l-1.084.052Zm2.71-.116a.271.271,0,0,0,.018.541c.36-.007.721-.022,1.081-.032a.271.271,0,0,0-.014-.542c-.361.01-.725.026-1.085.033Zm2.712-.067a.271.271,0,0,0,.008.542l1.081-.014a.271.271,0,0,0,0-.541l-1.085.013Zm2.712-.02a.271.271,0,0,0,0,.542l1.082,0a.271.271,0,0,0,0-.542l-1.085,0Zm2.712.024a.271.271,0,0,0-.01.541l1.082.022a.271.271,0,0,0,.013-.542l-1.085-.021Zm2.711.066a.271.271,0,0,0-.017.541l.476.016.006.109a.271.271,0,0,0,.541-.026l-.019-.346a.1.1,0,0,0-.025-.037l.025.024-.013-.247-.974-.033Zm1.094,2.26a.271.271,0,0,0-.54.03l.061,1.082a.271.271,0,0,0,.541-.031l-.061-1.081Zm.155,2.7a.271.271,0,0,0-.541.032c.02.352.03.734.064,1.082a.271.271,0,0,0,.54-.033l-.064-1.081Zm.165,2.7a.271.271,0,0,0-.541.034c.02.36.045.721.069,1.081a.271.271,0,0,0,.541-.035c-.025-.36-.05-.721-.069-1.081Zm.177,2.7a.271.271,0,0,0-.541.037l.074,1.08a.271.271,0,0,0,.541-.037l-.075-1.079Zm.191,2.7a.27.27,0,0,0-.539.039l.08,1.081a.271.271,0,1,0,.54-.041l-.081-1.079Zm.207,2.7a.271.271,0,1,0-.539.044l.088,1.08a.271.271,0,0,0,.54-.045l-.088-1.079Zm.226,2.7a.27.27,0,0,0-.539.047l.1,1.079a.271.271,0,0,0,.539-.049l-.1-1.078Zm.247,2.695a.271.271,0,0,0-.539.051l.1,1.079a.271.271,0,0,0,.538-.053l-.1-1.077Zm.268,2.692a.271.271,0,0,0-.539.056l.114,1.078a.271.271,0,0,0,.538-.058l-.114-1.076Zm.292,2.689a.271.271,0,0,0-.538.061l.124,1.077a.271.271,0,0,0,.538-.064l-.124-1.075Zm.318,2.686a.271.271,0,0,0-.537.067l.135,1.076a.271.271,0,0,0,.537-.069l-.135-1.074Zm.347,2.683a.271.271,0,0,0-.537.073l.148,1.074a.271.271,0,0,0,.536-.075l-.147-1.072Zm.377,2.678a.271.271,0,0,0-.536.079l.16,1.072a.271.271,0,0,0,.535-.081l-.16-1.07Zm.41,2.674a.271.271,0,0,0-.535.085c.054.355.112.716.174,1.07a.271.271,0,0,0,.535-.088c-.062-.353-.119-.712-.173-1.067Zm.444,2.667a.271.271,0,0,0-.534.093l.189,1.068a.271.271,0,0,0,.533-.1l-.188-1.065Zm.483,2.66a.271.271,0,0,0-.532.1l.206,1.066a.271.271,0,0,0,.531-.1c-.072-.352-.139-.708-.205-1.062Zm.526,2.651a.271.271,0,0,0-.53.111c.073.354.146.708.224,1.061a.271.271,0,0,0,.529-.114c-.078-.351-.151-.705-.224-1.058Zm.575,2.641a.271.271,0,0,0-.528.12l.245,1.058a.271.271,0,1,0,.527-.125l-.244-1.053Zm.628,2.628a.271.271,0,0,0-.526.131c.08.348.176.707.269,1.052a.271.271,0,0,0,.524-.137c-.09-.346-.187-.7-.267-1.047Zm.687,2.613a.271.271,0,0,0-.522.143l.295,1.046a.271.271,0,0,0,.52-.149l-.292-1.04Zm.752,2.593a.27.27,0,0,0-.517.158c.093.34.213.7.322,1.037a.271.271,0,0,0,.516-.164c-.108-.336-.228-.692-.321-1.031Zm.823,2.571a.271.271,0,0,0-.514.173l.353,1.028a.271.271,0,0,0,.511-.179c-.12-.339-.236-.68-.35-1.021Zm.9,2.544a.271.271,0,0,0-.507.19q.188.509.385,1.015a.271.271,0,0,0,.505-.2q-.2-.5-.383-1.01Zm-.338,2.171a.271.271,0,0,0-.005-.542l-1.083.01a.271.271,0,0,0,.005.542l1.083-.01Zm-2.707.025a.271.271,0,0,0-.005-.542l-1.083.01a.271.271,0,0,0,.005.542l1.083-.01Zm-2.707.026a.271.271,0,0,0-.006-.542l-1.082.011a.271.271,0,0,0,0,.542l1.083-.011Zm-2.708.028a.271.271,0,0,0-.006-.542c-.361,0-.723,0-1.083.012a.271.271,0,0,0,.006.542c.36-.007.722-.009,1.083-.012Zm-2.707.03a.271.271,0,0,0-.006-.542c-.36,0-.724.009-1.084.013a.271.271,0,0,0,.007.542c.36,0,.724-.013,1.083-.013Zm-2.707.034a.271.271,0,0,0-.007-.542l-1.083.015a.271.271,0,0,0,.008.542l1.083-.015Zm-2.707.039a.271.271,0,0,0-.008-.542l-1.083.017a.271.271,0,0,0,.009.541l1.083-.017Zm-2.706.044a.271.271,0,0,0-.01-.542c-.36.006-.724.01-1.083.02a.271.271,0,0,0,.01.542c.36-.01.723-.014,1.083-.02Zm-2.707.051a.271.271,0,0,0-.011-.542c-.36,0-.723.015-1.083.023a.271.271,0,0,0,.011.542c.36-.009.722-.019,1.083-.023Zm-2.706.059a.271.271,0,0,0-.012-.542l-1.084.025a.271.271,0,0,0,.013.542l1.082-.025Zm-2.705.066a.271.271,0,0,0-.015-.542l-1.083.03a.271.271,0,0,0,.016.541l1.083-.029Zm-2.706.076a.271.271,0,0,0-.016-.542l-1.083.033a.271.271,0,0,0,.017.541l1.082-.033Zm-2.705.086a.27.27,0,0,0-.018-.541l-1.083.037a.271.271,0,0,0,.019.541l1.082-.038Zm-2.705.1a.27.27,0,0,0-.02-.541l-1.083.041a.271.271,0,0,0,.022.541l1.082-.042Zm-2.7.108a.271.271,0,0,0-.023-.541l-1.083.046a.271.271,0,0,0,.024.541l1.082-.046Zm-2.7.118a.271.271,0,0,0-.025-.541l-1.082.051a.271.271,0,0,0,.026.541l1.081-.051Zm-2.7.13a.271.271,0,0,0-.027-.541l-1.082.055a.271.271,0,0,0,.029.541l1.081-.055Zm-2.7.142a.271.271,0,0,0-.029-.541l-1.082.06a.271.271,0,0,0,.03.541l1.081-.06Zm-2.7.153a.271.271,0,0,0-.032-.541l-1.082.065a.271.271,0,0,0,.033.541l1.081-.065Zm-2.7.166a.271.271,0,0,0-.035-.541c-.36.022-.722.043-1.081.07a.271.271,0,0,0,.036.541c.358-.029.721-.048,1.08-.07Zm-2.7.178a.271.271,0,0,0-.038-.541l-1.081.075a.271.271,0,0,0,.038.541l1.081-.075Zm-2.7.192a.271.271,0,0,0-.04-.54l-1.081.08a.271.271,0,1,0,.04.54l1.08-.08Zm-2.7.2a.271.271,0,1,0-.043-.54c-.36.025-.72.056-1.08.086a.271.271,0,1,0,.043.54c.359-.03.72-.061,1.079-.086Zm-2.7.218a.271.271,0,0,0-.045-.54l-1.08.091a.271.271,0,0,0,.046.539l1.078-.09Zm-2.7.231a.271.271,0,0,0-.047-.539l-1.079.1a.271.271,0,0,0,.049.539l1.078-.1Zm-2.7.245a.271.271,0,0,0-.051-.539l-1.078.1a.271.271,0,0,0,.051.539l1.078-.1Zm-2.693.259a.271.271,0,0,0-.054-.539l-1.078.108a.271.271,0,0,0,.055.539l1.077-.108Zm-2.109-1.009a.271.271,0,0,0,.541-.03c-.018-.361-.042-.724-.065-1.084a.271.271,0,0,0-.541.036c.024.359.046.719.065,1.078Zm-.186-2.693a.271.271,0,0,0,.539-.045q-.044-.541-.1-1.082a.271.271,0,0,0-.539.052c.033.359.067.717.1,1.076Zm-.266-2.686a.271.271,0,0,0,.538-.061c-.04-.356-.076-.726-.129-1.079a.271.271,0,0,0-.537.068c.061.325.09.736.128,1.072Zm-.344-2.678a.271.271,0,0,0,.536-.077c-.05-.358-.1-.717-.159-1.075a.271.271,0,0,0-.535.083l.157,1.069Zm-.416-2.669a.271.271,0,0,0,.534-.09c-.055-.356-.123-.714-.187-1.07a.271.271,0,0,0-.533.1c.064.353.131.71.186,1.064Zm-.485-2.657a.271.271,0,0,0,.531-.1c-.069-.355-.139-.711-.213-1.064a.271.271,0,0,0-.53.109l.212,1.059Zm-.549-2.645a.271.271,0,0,0,.529-.116c-.07-.352-.158-.709-.237-1.06a.271.271,0,0,0-.528.121c.08.348.166.7.236,1.055Zm-.607-2.633a.271.271,0,1,0,.527-.127l-.259-1.054a.271.271,0,0,0-.525.132l.258,1.049Zm-.66-2.62a.271.271,0,0,0,.523-.138l-.279-1.048a.27.27,0,0,0-.522.141c.1.347.186.7.278,1.045Zm-.708-2.609a.271.271,0,0,0,.521-.146l-.3-1.044a.271.271,0,0,0-.52.15l.295,1.04Zm-.75-2.6a.271.271,0,0,0,.519-.154l-.311-1.039a.271.271,0,0,0-.518.157c.112.336.21.7.31,1.036Zm-.785-2.588a.271.271,0,0,0,.517-.16l-.324-1.035a.271.271,0,0,0-.516.163l.323,1.032Zm-.816-2.579a.271.271,0,0,0,.515-.166l-.334-1.032a.271.271,0,0,0-.515.168l.334,1.029Zm-.84-2.571a.271.271,0,0,0,.514-.171l-.342-1.028a.271.271,0,0,0-.514.172Z" transform="translate(-15.971 -15.848)" fill="#df356e" fill-rule="evenodd"/>
      <path id="Trazado_106309" data-name="Trazado 106309" d="M575.3,74.625a.677.677,0,0,0-1.353-.03v2.738a.677.677,0,0,0,1.353.031V74.625Zm-1.354,83.941a.677.677,0,0,0,1.353.031v-2.738a.677.677,0,0,0-1.353-.031v2.738Zm0-6.769a.677.677,0,0,0,1.353.031v-2.738a.677.677,0,0,0-1.353-.031V151.8Zm0-6.769a.677.677,0,0,0,1.353.03v-2.738a.677.677,0,0,0-1.353-.031v2.739Zm0-6.769a.677.677,0,0,0,1.353.031V135.55a.677.677,0,0,0-1.353-.031v2.739Zm0-6.769a.677.677,0,0,0,1.353.031V128.78a.677.677,0,0,0-1.353-.031v2.739Zm0-6.769a.677.677,0,0,0,1.353.031v-2.739a.677.677,0,0,0-1.353-.031v2.739Zm0-6.769a.677.677,0,0,0,1.353.031v-2.739a.677.677,0,0,0-1.353-.03v2.738Zm0-6.769a.677.677,0,0,0,1.353.031v-2.739a.677.677,0,0,0-1.353-.031v2.739Zm0-6.769a.677.677,0,0,0,1.353.031V101.7a.677.677,0,0,0-1.353-.031v2.738Zm0-6.769a.677.677,0,0,0,1.353.03V94.933a.677.677,0,0,0-1.353-.031v2.739Zm0-6.769a.677.677,0,0,0,1.353.031V88.164a.677.677,0,0,0-1.353-.031v2.739Zm0-6.769a.677.677,0,0,0,1.353.031V81.394a.677.677,0,0,0-1.353-.031Z" transform="translate(-50.851 -7.845)" fill="#ff9696" fill-rule="evenodd"/>
      <path id="Trazado_106310" data-name="Trazado 106310" d="M581.579,153.255a.677.677,0,0,0,.031-1.353h-2.738a.677.677,0,0,0-.031,1.353ZM484.1,151.9a.677.677,0,0,0-.031,1.353h2.738a.677.677,0,0,0,.031-1.353Zm6.769,0a.677.677,0,0,0-.03,1.353h2.738a.677.677,0,0,0,.031-1.353Zm6.77,0a.677.677,0,0,0-.03,1.353h2.738a.677.677,0,0,0,.031-1.353Zm6.769,0a.677.677,0,0,0-.03,1.353h2.738a.677.677,0,0,0,.031-1.353Zm6.769,0a.677.677,0,0,0-.031,1.353h2.739a.677.677,0,0,0,.031-1.353Zm6.77,0a.677.677,0,0,0-.031,1.353h2.739a.677.677,0,0,0,.03-1.353Zm6.769,0a.677.677,0,0,0-.031,1.353h2.739a.677.677,0,0,0,.03-1.353Zm6.77,0a.677.677,0,0,0-.031,1.353h2.738a.677.677,0,0,0,.031-1.353Zm6.769,0a.677.677,0,0,0-.031,1.353h2.738a.677.677,0,0,0,.031-1.353Zm6.769,0a.677.677,0,0,0-.031,1.353h2.738a.677.677,0,0,0,.031-1.353Zm6.769,0a.677.677,0,0,0-.031,1.353H554.5a.677.677,0,0,0,.031-1.353Zm6.769,0a.677.677,0,0,0-.031,1.353h2.738a.677.677,0,0,0,.031-1.353Zm6.77,0a.677.677,0,0,0-.031,1.353h2.738a.677.677,0,0,0,.031-1.353Zm6.769,0a.677.677,0,0,0-.031,1.353h2.738a.677.677,0,0,0,.031-1.353Z" transform="translate(-9.064 -43.827)" fill="#ff9696" fill-rule="evenodd"/>
      <path id="Trazado_106311" data-name="Trazado 106311" d="M473.806,77.243a3.091,3.091,0,1,0-3.091-3.091A3.1,3.1,0,0,0,473.806,77.243Z" transform="translate(-3.195 -6.509)" fill="#ff9696" fill-rule="evenodd"/>
      <circle id="Elipse_4059" data-name="Elipse 4059" cx="3.091" cy="3.091" r="3.091" transform="translate(473.968 149.52)" fill="#ff9696"/>
    </g>
  </g>
</svg>
