<svg xmlns="http://www.w3.org/2000/svg" width="144.087" height="137.591" viewBox="0 0 144.087 137.591">
  <g id="Grupo_1069631" data-name="Grupo 1069631" transform="translate(-821.999 -5067.506)">
    <g id="Grupo_1067777" data-name="Grupo 1067777" transform="translate(76.999 182.701)">
      <path id="Trazado_771771" data-name="Trazado 771771" d="M3.029,901.384c-4.854-10.632-9.623-21.763-18.282-29.613S-37.772,860.4-47.38,867.054c-6.449,4.467-9.558,12.294-14.67,18.244-4.391,5.111-10.2,8.763-15.273,13.2s-9.639,10.174-10.116,16.9c-.78,11,9.328,19.569,19.151,24.571a108.718,108.718,0,0,0,54.973,11.61c9.6-.525,35.933-4.308,36.339-17.97.161-5.407-6.641-9.634-9.612-13.5C9.069,914.456,5.973,907.832,3.029,901.384Z" transform="translate(832.481 4070.664)" fill="#025157"/>
      <g id="Grupo_1054388" data-name="Grupo 1054388" transform="translate(-912.32 4916.916)">
        <path id="Trazado_771758" data-name="Trazado 771758" d="M1719.933,176.872c-.182.885-.264,2.007.516,2.607a2.69,2.69,0,0,0,2.063.7c1.4-.258,1.346-1.325,1.433-2.566a4.56,4.56,0,0,0-.191-1.961,1.924,1.924,0,0,0-1.413-1.263,1.886,1.886,0,0,0-1.675.738A4,4,0,0,0,1719.933,176.872Z" transform="translate(-41.887 -116.568)" fill="#f5947a"/>
        <path id="Trazado_771759" data-name="Trazado 771759" d="M1693.235,139.81a1.538,1.538,0,0,0-.07-.525,1.6,1.6,0,0,0-.221-.369l-.538-.74a2.393,2.393,0,0,0-.7-.718,1.544,1.544,0,0,0-1.292-.05,3.429,3.429,0,0,0-1.1.744,4.094,4.094,0,0,0-.978,1.26c-.875,1.919.766,4.314,2.5,5.127C1693.355,145.713,1693.253,141.144,1693.235,139.81Z" transform="translate(-16.752 -87.181)" fill="#f5947a"/>
        <path id="Trazado_771760" data-name="Trazado 771760" d="M1672.416,97.065a1.971,1.971,0,0,0-.572-.742,9.418,9.418,0,0,0-3.04-2.169,1.5,1.5,0,0,0-1.11-.061,1.646,1.646,0,0,0-.724,1.5c-.083,1.526.495,3.719,2.291,4.036C1670.473,99.846,1672.925,98.534,1672.416,97.065Z" transform="translate(0 -52.875)" fill="#f5947a"/>
        <path id="Trazado_771761" data-name="Trazado 771761" d="M1690.61,45.548c-.439-.847-1.187-1.7-2.14-1.654a3.006,3.006,0,0,0-1.638.819,4.065,4.065,0,0,0-1.377,1.552,3.483,3.483,0,0,0-.2,1.04A3.3,3.3,0,0,0,1689.113,51C1691.53,50.505,1691.491,47.247,1690.61,45.548Z" transform="translate(-14.492 -13.152)" fill="#f5947a"/>
        <path id="Trazado_771762" data-name="Trazado 771762" d="M1733.282,30.8a3.441,3.441,0,0,0,.345-.975,3.212,3.212,0,0,0-.284-1.546,1.55,1.55,0,0,0-.605-.877,1.476,1.476,0,0,0-1.341.169,16.573,16.573,0,0,0-3.626,2.832,3.287,3.287,0,0,0-.615.7,2.247,2.247,0,0,0-.273,1.073c-.042,1.475,1.267,3.1,2.861,2.587C1731.555,34.178,1732.528,32.4,1733.282,30.8Z" transform="translate(-47.492 0)" fill="#f5947a"/>
        <path id="Trazado_771763" data-name="Trazado 771763" d="M1715.629,93.454a3.01,3.01,0,0,0,.662-.8,1.455,1.455,0,0,0-.507-1.475,5.064,5.064,0,0,0-1.837-1.084,2.058,2.058,0,0,0-1.334-.134,1.556,1.556,0,0,0-.908.976,4.438,4.438,0,0,0-.2,1.36c-.041,1.118-.015,3.135,1.478,3.332C1714.38,95.807,1714.9,94.272,1715.629,93.454Z" transform="translate(-35.299 -49.611)" fill="#f5947a"/>
        <path id="Trazado_771764" data-name="Trazado 771764" d="M1755.448,78.825a2.137,2.137,0,0,0-1.456-2.078,3.529,3.529,0,0,0-1.639-.019,4.262,4.262,0,0,0-1.3.4,3.708,3.708,0,0,0-1.689,2.419,3.5,3.5,0,0,0-.075,1.651c.369,1.59,2.36,2.338,3.837,1.869C1754.783,82.537,1755.377,80.354,1755.448,78.825Z" transform="translate(-65.2 -39.108)" fill="#f5947a"/>
        <path id="Trazado_771765" data-name="Trazado 771765" d="M1781.446,121.187a4.676,4.676,0,0,0,.116-1.316,2.49,2.49,0,0,0-.423-1.681,2.413,2.413,0,0,0-1.786-.566,4.9,4.9,0,0,0-1.481.119,1.633,1.633,0,0,0-1.172,2.3,3.787,3.787,0,0,0,2.4,2.423A1.98,1.98,0,0,0,1781.446,121.187Z" transform="translate(-86.87 -71.587)" fill="#f5947a"/>
        <path id="Trazado_771766" data-name="Trazado 771766" d="M1736.9,132.044a4.137,4.137,0,0,0-1.06-1.977,4.713,4.713,0,0,0-2.732-1.967.821.821,0,0,0-1.07.6,3.628,3.628,0,0,0,.087,2.257,9.263,9.263,0,0,0,1.061,2.03c.452.7,1.244,1.868,2.237,1.608A2.547,2.547,0,0,0,1736.9,132.044Z" transform="translate(-51.468 -79.881)" fill="#f5947a"/>
        <path id="Trazado_771767" data-name="Trazado 771767" d="M1776.033,162.2a2.282,2.282,0,0,0-.793-1.823,2.673,2.673,0,0,0-1.723-.353,2.352,2.352,0,0,0-1.355.389,2.385,2.385,0,0,0-.7,1.717,5.814,5.814,0,0,0,.134,2.108c.3,1.073,1.445,2.486,2.652,1.779A4.611,4.611,0,0,0,1776.033,162.2Z" transform="translate(-82.795 -105.193)" fill="#f5947a"/>
      </g>
    </g>
    <g id="Grupo_55978" data-name="Grupo 55978" transform="translate(1897.507 4956.314)">
      <g id="Grupo_55974" data-name="Grupo 55974" transform="translate(-1000.35 111.192)">
        <path id="Trazado_106355" data-name="Trazado 106355" d="M-860.721,111.192c22.394,3.611,43.857-.667,67.183,1.3-.461,17.429,0,33.879-.652,53.819-.768,23.662-2.379,51.085,1.117,74.641-21.929,3.846-45.953-.314-68.93-.471C-859.362,201.385-863.36,148.635-860.721,111.192Z" transform="translate(862.002 -111.192)" fill="#f2efef" fill-rule="evenodd"/>
        <path id="Trazado_106356" data-name="Trazado 106356" d="M-782.136,254.429c-2.753-23.1-1.249-47.438-.5-70.529.53-16.315.242-32.618.542-48.923-19.143-.945-38.173,1.794-57.294-.285-.471,8.855-.591,17.752-.6,26.605-.016,11.821.19,23.644.363,35.463.275,18.734.609,37.759-.389,56.512,6.059.181,12.112.569,18.16.956C-808.847,255.06-795.2,256.021-782.136,254.429Z" transform="translate(845.387 -128.95)" fill="#ede3b7" fill-rule="evenodd"/>
        <path id="Trazado_106357" data-name="Trazado 106357" d="M-857.467,114.948c20.645,3.329,40.492-.1,61.768.962.824,11.859.278,25.857.278,39.914,0,36.13-20.513,65.42-45.818,65.42a33.974,33.974,0,0,1-16.595-4.426C-857.51,182.8-859.527,144.17-857.467,114.948Z" transform="translate(859.285 -114.03)" fill="#fff" fill-rule="evenodd"/>
        <path id="Trazado_106358" data-name="Trazado 106358" d="M-782.609,185.46c-4.676,29.044-22.893,50.7-44.654,50.7a33.127,33.127,0,0,1-12.061-2.293c.162-12.389-.044-24.813-.224-37.111-.174-11.82-.379-23.642-.363-35.463.012-8.854.132-17.751.6-26.605,19.12,2.079,38.151-.66,57.294.285-.3,16.305-.013,32.608-.542,48.923Q-782.583,184.679-782.609,185.46Z" transform="translate(845.309 -128.95)" fill="#ede3b7" fill-rule="evenodd"/>
        <g id="Grupo_55973" data-name="Grupo 55973" transform="translate(10.208 7.843)">
          <path id="Trazado_106359" data-name="Trazado 106359" d="M-750.451,153.453a.22.22,0,0,1,.264-.159.212.212,0,0,1,.164.255c-.7,2.9-.231,4.816.865,6.158a10.431,10.431,0,0,0,4.679,2.806.21.21,0,0,1,.129.273.222.222,0,0,1-.282.125,10.81,10.81,0,0,1-4.87-2.941c-1.176-1.44-1.688-3.467-.95-6.518Zm-15.953,9.458a.221.221,0,0,1-.282-.125.21.21,0,0,1,.129-.272,10.433,10.433,0,0,0,4.679-2.806c1.1-1.343,1.569-3.254.865-6.159a.212.212,0,0,1,.164-.255.22.22,0,0,1,.264.159c.739,3.05.227,5.077-.95,6.518A10.809,10.809,0,0,1-766.4,162.911Z" transform="translate(779.774 -150.847)" fill="#fff" fill-rule="evenodd"/>
          <g id="Grupo_55971" data-name="Grupo 55971" transform="translate(4.014 11.115)">
            <path id="Trazado_106360" data-name="Trazado 106360" d="M-763.482,323.378a15.433,15.433,0,0,0,.793,2.86,23.989,23.989,0,0,0,1.314,2.813c.236.439.429.788.62,1.137.5.91,1,1.818,1.449,2.76a23.992,23.992,0,0,1,1.009,2.465,22.165,22.165,0,0,1,.715,2.561c.264,1.224.458,2.462.6,3.7s.227,2.488.275,3.735c.051,1.312.63,7.226,1.331,14.4,1.164,11.9,2.666,27.252,2.666,30.872a.216.216,0,0,1-.219.212.218.218,0,0,1-.216-.174,1.9,1.9,0,0,0-.969-1.154,9.438,9.438,0,0,0-2.562-1.011,34.908,34.908,0,0,0-4.672-.77,23.068,23.068,0,0,1-6.467-1.382,22.714,22.714,0,0,1-4.808-3.231c-1.04-.827-2.205-1.754-3.652-2.771a12.1,12.1,0,0,0-8.735-1.681,22.615,22.615,0,0,0-5.84,1.681.223.223,0,0,1-.291-.1.206.206,0,0,1-.02-.073l-.033-.385c-.02-.243-.041-.6-.061-1.06s-.041-1.027-.06-1.679a.2.2,0,0,1,.006-.056,53.913,53.913,0,0,0,1.065-8.128c.2-2.366.4-4.714.761-6.668a150.869,150.869,0,0,1,5-19.872,99.653,99.653,0,0,1,6.959-16.221.215.215,0,0,1,.117-.1,49.835,49.835,0,0,1,6.345-1.891,41.278,41.278,0,0,1,7.351-.965.218.218,0,0,1,.225.177Zm.381,3.006a15.856,15.856,0,0,1-.78-2.751,40.818,40.818,0,0,0-7.079.947,49.369,49.369,0,0,0-6.21,1.845,99.287,99.287,0,0,0-6.891,16.082,150.44,150.44,0,0,0-4.991,19.817c-.36,1.922-.556,4.266-.754,6.627a54.447,54.447,0,0,1-1.07,8.169c.019.629.038,1.182.059,1.644.019.435.04.787.061,1.043l.007.083a23.159,23.159,0,0,1,5.677-1.591,12.535,12.535,0,0,1,9.055,1.758c1.446,1.016,2.623,1.952,3.673,2.787a22.373,22.373,0,0,0,4.713,3.172,22.766,22.766,0,0,0,6.337,1.345,35.14,35.14,0,0,1,4.734.783,9.889,9.889,0,0,1,2.688,1.064,3.406,3.406,0,0,1,.7.573c-.183-4.782-1.56-18.857-2.643-29.934-.7-7.18-1.282-13.1-1.333-14.423-.048-1.233-.134-2.471-.274-3.7s-.331-2.454-.592-3.663a21.767,21.767,0,0,0-.7-2.514,23.56,23.56,0,0,0-.992-2.421c-.442-.933-.939-1.834-1.437-2.737-.225-.408-.45-.816-.624-1.14A24.34,24.34,0,0,1-763.1,326.384Z" transform="translate(794.363 -290.364)" fill="#fff" fill-rule="evenodd"/>
            <path id="Trazado_106361" data-name="Trazado 106361" d="M-724.552,561.273a1.658,1.658,0,0,1-.03.317c-.182.963-1.181,1.568-2.615,1.926a21.743,21.743,0,0,1-4.986.466,60.436,60.436,0,0,1-8.686-.692,56.884,56.884,0,0,1-6.849-1.655,47.939,47.939,0,0,1-6.213-2.382.21.21,0,0,1-.1-.284.212.212,0,0,1,.045-.06,8.271,8.271,0,0,0,1.943-4.248,12.037,12.037,0,0,0-.2-5.444.211.211,0,0,1,.142-.267.224.224,0,0,1,.108-.006,11.174,11.174,0,0,1,2.117.611,9.984,9.984,0,0,1,2.018,1.093c1.446,1.016,2.623,1.952,3.673,2.787a22.376,22.376,0,0,0,4.713,3.172,22.769,22.769,0,0,0,6.337,1.345,35.145,35.145,0,0,1,4.734.783,9.885,9.885,0,0,1,2.688,1.064,2.293,2.293,0,0,1,1.16,1.434.257.257,0,0,1,0,.038Zm-.461.24a1.289,1.289,0,0,0,.021-.224,1.925,1.925,0,0,0-.965-1.133,9.445,9.445,0,0,0-2.562-1.011,34.907,34.907,0,0,0-4.672-.77,23.069,23.069,0,0,1-6.468-1.382,22.715,22.715,0,0,1-4.808-3.231c-1.04-.827-2.205-1.754-3.652-2.771a9.554,9.554,0,0,0-1.929-1.045,10.576,10.576,0,0,0-1.678-.515,12.945,12.945,0,0,1,.113,5.3,8.907,8.907,0,0,1-1.867,4.258,47.767,47.767,0,0,0,5.892,2.239,56.469,56.469,0,0,0,6.8,1.642,59.893,59.893,0,0,0,8.607.683,21.351,21.351,0,0,0,4.878-.451C-726.036,562.789-725.158,562.285-725.013,561.513Z" transform="translate(766.204 -460.955)" fill="#fff" fill-rule="evenodd"/>
            <path id="Trazado_106362" data-name="Trazado 106362" d="M-711.308,216.955a1.779,1.779,0,0,1-.181,1.153,5.472,5.472,0,0,1-.861,1.1,25.435,25.435,0,0,0-3.4,6.337,54.207,54.207,0,0,0-2.981,9.048,18.524,18.524,0,0,0-.247,4.672,9.075,9.075,0,0,0,.908,3.6.209.209,0,0,1-.083.289.225.225,0,0,1-.122.027,40.883,40.883,0,0,0-8.9.726,48.057,48.057,0,0,0-7.485,2.123.222.222,0,0,1-.283-.124.206.206,0,0,1,.018-.185,95.487,95.487,0,0,1,10.067-14.92,147.838,147.838,0,0,1,13.173-13.964.225.225,0,0,1,.31,0,.21.21,0,0,1,.06.119Zm-.573.962a1.347,1.347,0,0,0,.144-.435,146.222,146.222,0,0,0-12.771,13.578,95.265,95.265,0,0,0-9.76,14.374,47.748,47.748,0,0,1,7.013-1.947,41.275,41.275,0,0,1,8.637-.74,10.475,10.475,0,0,1-.8-3.448,18.931,18.931,0,0,1,.252-4.774,54.685,54.685,0,0,1,3.007-9.136,25.736,25.736,0,0,1,3.477-6.461A5.156,5.156,0,0,0-711.881,217.916Z" transform="translate(751.767 -209.936)" fill="#fff" fill-rule="evenodd"/>
            <path id="Trazado_106363" data-name="Trazado 106363" d="M-771.738,188.806l.4.137c.5.17.945.312,1.362.447,3.216,1.033,4.986,1.6,6.389,5.473.067.186.122.354.165.506a3.617,3.617,0,0,1,.1.443.209.209,0,0,1-.07.186c-9.532,9.007-16.872,17.552-22.542,27.664s-9.677,21.8-12.538,37.092c-.36,1.922-.556,4.265-.754,6.627-.331,3.949-.666,7.947-1.792,10.216a.222.222,0,0,1-.292.1.213.213,0,0,1-.123-.17,166.724,166.724,0,0,1-.6-22.334,110.287,110.287,0,0,1,2.071-19.3,21.438,21.438,0,0,1,.705-2.393,23.859,23.859,0,0,1,.967-2.3c.426-.886.91-1.76,1.394-2.634.2-.358.4-.716.587-1.069a22.093,22.093,0,0,0,1.583-3.526,15.44,15.44,0,0,0,.751-3.768,11.985,11.985,0,0,0-.308-3.754,19.235,19.235,0,0,0-1.292-3.583c-.369-.8-.775-1.6-1.181-2.392a35.53,35.53,0,0,1-2.1-4.667c-.051-.149-.1-.3-.148-.453s-.086-.286-.124-.423a24.981,24.981,0,0,0-1.641-3.981,13.563,13.563,0,0,0-1.939-2.884,3.855,3.855,0,0,1-1-1.445,2.782,2.782,0,0,1,.219-1.758c1.4-3.871,3.174-4.44,6.389-5.473.417-.134.86-.276,1.363-.447l.4-.137a.226.226,0,0,1,.218.041,14.194,14.194,0,0,0,4.951,2.28,25.721,25.721,0,0,0,6.636.831,25.72,25.72,0,0,0,6.636-.831,14.186,14.186,0,0,0,4.959-2.286.226.226,0,0,1,.211-.035Zm.056.47-.088-.03a14.8,14.8,0,0,1-5.02,2.29,26.179,26.179,0,0,1-6.753.848,26.181,26.181,0,0,1-6.753-.848,14.8,14.8,0,0,1-5.02-2.29l-.288.1c-.464.157-.93.307-1.37.448-3.083.99-4.78,1.536-6.112,5.21a2.443,2.443,0,0,0-.21,1.505,3.57,3.57,0,0,0,.9,1.275,13.969,13.969,0,0,1,2,2.975,25.418,25.418,0,0,1,1.67,4.049l0,.007c.037.134.078.275.123.418s.093.291.144.442a35.185,35.185,0,0,0,2.081,4.612c.406.8.811,1.591,1.188,2.407a19.651,19.651,0,0,1,1.32,3.661,12.386,12.386,0,0,1,.319,3.881,15.839,15.839,0,0,1-.772,3.866,22.516,22.516,0,0,1-1.612,3.592c-.2.364-.393.718-.589,1.072-.474.857-.948,1.713-1.382,2.614a23.488,23.488,0,0,0-.952,2.262,21.078,21.078,0,0,0-.691,2.348,109.868,109.868,0,0,0-2.061,19.217,170.051,170.051,0,0,0,.513,21.433c.833-2.28,1.128-5.805,1.421-9.292.2-2.366.395-4.714.761-6.668,2.871-15.34,6.89-27.067,12.583-37.22,5.677-10.125,13.019-18.682,22.546-27.693-.017-.09-.04-.185-.068-.288-.041-.148-.092-.306-.154-.477-1.332-3.674-3.029-4.22-6.112-5.21-.439-.141-.905-.291-1.369-.448Z" transform="translate(803.786 -188.793)" fill="#fff" fill-rule="evenodd"/>
          </g>
          <g id="Grupo_55972" data-name="Grupo 55972">
            <path id="Trazado_106364" data-name="Trazado 106364" d="M-721.389,143.507a.22.22,0,0,0-.44-.01v1.069a.22.22,0,0,0,.44.01v-1.069Zm-.44,115.274a.22.22,0,0,0,.44.01v-1.069a.22.22,0,0,0-.44-.01v1.069Zm0-2.331a.22.22,0,0,0,.44.01v-2.129a.22.22,0,0,0-.44-.01v2.129Zm0-3.39a.22.22,0,0,0,.44.01V250.94a.22.22,0,0,0-.44-.01v2.129Zm0-3.391a.22.22,0,0,0,.44.01V247.55a.22.22,0,0,0-.44-.01v2.129Zm0-3.39a.22.22,0,0,0,.44.01v-2.129a.22.22,0,0,0-.44-.01v2.129Zm0-3.39a.22.22,0,0,0,.44.01v-2.129a.22.22,0,0,0-.44-.01v2.129Zm0-3.39a.22.22,0,0,0,.44.01v-2.129a.22.22,0,0,0-.44-.01V239.5Zm0-3.39a.22.22,0,0,0,.44.01v-2.129a.22.22,0,0,0-.44-.01v2.129Zm0-3.39a.22.22,0,0,0,.44.01V230.6a.22.22,0,0,0-.44-.01v2.129Zm0-3.39a.22.22,0,0,0,.44.01v-2.129a.22.22,0,0,0-.44-.01v2.129Zm0-3.39a.22.22,0,0,0,.44.01v-2.129a.22.22,0,0,0-.44-.01v2.129Zm0-3.39a.22.22,0,0,0,.44.01v-2.129a.22.22,0,0,0-.44-.01v2.129Zm0-3.39a.22.22,0,0,0,.44.01v-2.129a.22.22,0,0,0-.44-.01v2.129Zm0-3.39a.22.22,0,0,0,.44.01v-2.129a.22.22,0,0,0-.44-.01v2.129Zm0-3.39a.22.22,0,0,0,.44.01v-2.129a.22.22,0,0,0-.44-.01v2.129Zm0-3.39a.22.22,0,0,0,.44.01v-2.129a.22.22,0,0,0-.44-.01v2.129Zm0-3.39a.22.22,0,0,0,.44.01v-2.129a.22.22,0,0,0-.44-.01v2.129Zm0-3.39a.22.22,0,0,0,.44.01v-2.129a.22.22,0,0,0-.44-.01V202.2Zm0-3.39a.22.22,0,0,0,.44.01v-2.129a.22.22,0,0,0-.44-.01v2.129Zm0-3.39a.22.22,0,0,0,.44.01V193.3a.22.22,0,0,0-.44-.01v2.129Zm0-3.39a.22.22,0,0,0,.44.01v-2.129a.22.22,0,0,0-.44-.01v2.129Zm0-3.39a.22.22,0,0,0,.44.01v-2.129a.22.22,0,0,0-.44-.01v2.129Zm0-3.39a.22.22,0,0,0,.44.01v-2.129a.22.22,0,0,0-.44-.01v2.129Zm0-3.39a.22.22,0,0,0,.44.01v-2.129a.22.22,0,0,0-.44-.01v2.129Zm0-3.39a.22.22,0,0,0,.44.01v-2.129a.22.22,0,0,0-.44-.01v2.129Zm0-3.39a.22.22,0,0,0,.44.01v-2.129a.22.22,0,0,0-.44-.01v2.129Zm0-3.39a.22.22,0,0,0,.44.01V169.57a.22.22,0,0,0-.44-.01v2.129Zm0-3.39a.22.22,0,0,0,.44.01V166.18a.22.22,0,0,0-.44-.01V168.3Zm0-3.39a.22.22,0,0,0,.44.01v-2.129a.22.22,0,0,0-.44-.01v2.129Zm0-3.39a.22.22,0,0,0,.44.01V159.4a.22.22,0,0,0-.44-.01v2.129Zm0-3.39a.22.22,0,0,0,.44.01v-2.129a.22.22,0,0,0-.44-.01v2.129Zm0-3.39a.22.22,0,0,0,.44.01v-2.129a.22.22,0,0,0-.44-.01v2.129Zm0-3.39a.22.22,0,0,0,.44.01v-2.129a.22.22,0,0,0-.44-.01v2.129Zm0-3.39a.22.22,0,0,0,.44.01v-2.129a.22.22,0,0,0-.44-.01Z" transform="translate(745.865 -143.296)" fill="#055f63" fill-rule="evenodd"/>
            <path id="Trazado_106365" data-name="Trazado 106365" d="M-771.922,390.125a.213.213,0,1,0,.01-.426h-1.083a.213.213,0,1,0-.01.426ZM-820,389.7a.213.213,0,1,0-.01.426h1.083a.213.213,0,1,0,.01-.426Zm2.361,0a.213.213,0,1,0-.01.426h2.156a.213.213,0,1,0,.01-.426Zm3.434,0a.213.213,0,1,0-.01.426h2.156a.213.213,0,1,0,.01-.426Zm3.434,0a.213.213,0,1,0-.01.426h2.156a.213.213,0,1,0,.01-.426Zm3.434,0a.213.213,0,1,0-.01.426h2.156a.213.213,0,1,0,.01-.426Zm3.434,0a.213.213,0,1,0-.01.426h2.156a.213.213,0,1,0,.01-.426Zm3.434,0a.213.213,0,1,0-.01.426h2.156a.213.213,0,1,0,.01-.426Zm3.434,0a.213.213,0,1,0-.01.426h2.156a.213.213,0,1,0,.01-.426Zm3.434,0a.213.213,0,1,0-.01.426h2.156a.213.213,0,1,0,.01-.426Zm3.434,0a.213.213,0,1,0-.01.426h2.156a.213.213,0,1,0,.01-.426Zm3.434,0a.213.213,0,1,0-.01.426h2.156a.213.213,0,1,0,.01-.426Zm3.434,0a.213.213,0,1,0-.01.426h2.156a.213.213,0,1,0,.01-.426Zm3.434,0a.213.213,0,1,0-.01.426h2.156a.213.213,0,1,0,.01-.426Zm3.434,0a.213.213,0,1,0-.01.426h2.156a.213.213,0,1,0,.01-.426Z" transform="translate(820.216 -329.502)" fill="#055f63" fill-rule="evenodd"/>
            <path id="Trazado_106366" data-name="Trazado 106366" d="M-771.922,263.769a.213.213,0,1,0,.01-.426h-1.083a.213.213,0,1,0-.01.426ZM-820,263.343a.213.213,0,1,0-.01.426h1.083a.213.213,0,1,0,.01-.426Zm2.361,0a.213.213,0,1,0-.01.426h2.156a.213.213,0,1,0,.01-.426Zm3.434,0a.213.213,0,1,0-.01.426h2.156a.213.213,0,1,0,.01-.426Zm3.434,0a.213.213,0,1,0-.01.426h2.156a.213.213,0,1,0,.01-.426Zm3.434,0a.213.213,0,1,0-.01.426h2.156a.213.213,0,1,0,.01-.426Zm3.434,0a.213.213,0,1,0-.01.426h2.156a.213.213,0,1,0,.01-.426Zm3.434,0a.213.213,0,1,0-.01.426h2.156a.213.213,0,1,0,.01-.426Zm3.434,0a.213.213,0,1,0-.01.426h2.156a.213.213,0,1,0,.01-.426Zm3.434,0a.213.213,0,1,0-.01.426h2.156a.213.213,0,1,0,.01-.426Zm3.434,0a.213.213,0,1,0-.01.426h2.156a.213.213,0,1,0,.01-.426Zm3.434,0a.213.213,0,1,0-.01.426h2.156a.213.213,0,1,0,.01-.426Zm3.434,0a.213.213,0,1,0-.01.426h2.156a.213.213,0,1,0,.01-.426Zm3.434,0a.213.213,0,1,0-.01.426h2.156a.213.213,0,1,0,.01-.426Zm3.434,0a.213.213,0,1,0-.01.426h2.156a.213.213,0,1,0,.01-.426Z" transform="translate(820.216 -234.015)" fill="#055f63" fill-rule="evenodd"/>
            <path id="Trazado_106367" data-name="Trazado 106367" d="M-771.922,534.155a.213.213,0,1,0,.01-.425h-1.083a.213.213,0,1,0-.01.426ZM-820,533.729a.213.213,0,1,0-.01.426h1.083a.213.213,0,1,0,.01-.425Zm2.361,0a.213.213,0,1,0-.01.426h2.156a.213.213,0,1,0,.01-.425Zm3.434,0a.213.213,0,1,0-.01.426h2.156a.213.213,0,1,0,.01-.425Zm3.434,0a.213.213,0,1,0-.01.426h2.156a.213.213,0,1,0,.01-.425Zm3.434,0a.213.213,0,1,0-.01.426h2.156a.213.213,0,1,0,.01-.425Zm3.434,0a.213.213,0,1,0-.01.426h2.156a.213.213,0,1,0,.01-.425Zm3.434,0a.213.213,0,1,0-.01.426h2.156a.213.213,0,1,0,.01-.425Zm3.434,0a.213.213,0,1,0-.01.426h2.156a.213.213,0,1,0,.01-.425Zm3.434,0a.213.213,0,1,0-.01.426h2.156a.213.213,0,1,0,.01-.425Zm3.434,0a.213.213,0,1,0-.01.426h2.156a.213.213,0,1,0,.01-.425Zm3.434,0a.213.213,0,1,0-.01.426h2.156a.213.213,0,1,0,.01-.425Zm3.434,0a.213.213,0,1,0-.01.426h2.156a.213.213,0,1,0,.01-.425Zm3.434,0a.213.213,0,1,0-.01.426h2.156a.213.213,0,1,0,.01-.425Zm3.434,0a.213.213,0,1,0-.01.426h2.156a.213.213,0,1,0,.01-.425Z" transform="translate(820.216 -438.344)" fill="#055f63" fill-rule="evenodd"/>
          </g>
        </g>
      </g>
      <g id="Grupo_55977" data-name="Grupo 55977" transform="translate(-1045.076 133.068)">
        <g id="Grupo_55975" data-name="Grupo 55975" transform="translate(22.95 0)">
          <path id="Trazado_106368" data-name="Trazado 106368" d="M-889.092,202.792c.381-1.6,2.32-2.668,3.7-1.666,3.5,2.54,9.493,9.5,19.862,6.074a399.815,399.815,0,0,0-14.688,48.237c-2.766,11.624-4.966,23.1-6.636,34.334-2.743-.163-5.5-.22-8.29-.153-1.2-33.88,16.554-77.474,14.522-78.1C-886.05,209.857-889.843,205.948-889.092,202.792Z" transform="translate(908.867 -200.736)" fill="#85e4d1" fill-rule="evenodd"/>
          <path id="Trazado_106369" data-name="Trazado 106369" d="M-951.086,293.031c.521-2.191,2.561-4.61,4.6-10.529,3.144-9.115,6.658-22.63,8.646-30.983,4.424-18.6,5.379-35.894,6.416-41.075h0c-.439,3.1,3.28,6.8,8.529,8.413,4.885,1.5,9.43.669,10.839-1.811-.311,1.291-.945,2.3-1.617,4.16-3.317,9.2-9.5,28.973-12.9,43.281-2.781,11.689-4.345,32.436-4.854,34.573s-2.942,3.368-6.138,3.444a15.489,15.489,0,0,1-8.754-2.512C-949.576,297.818-951.476,294.672-951.086,293.031Z" transform="translate(951.136 -208.072)" fill="#a2ebdc" fill-rule="evenodd"/>
          <path id="Trazado_106370" data-name="Trazado 106370" d="M-951.086,300.22c.521-2.191,2.561-4.61,4.6-10.529,3.144-9.115,6.658-22.63,8.646-30.983,3.9-16.4,5.105-31.793,6.047-38.751a3.455,3.455,0,0,1,1.059.61,8.742,8.742,0,0,0,1.392,1.779c4.871,8.889,2.74,39.821-5.729,75.42q-1.456,6.115-3.04,11.93a15.5,15.5,0,0,1-8.209-2.514C-949.576,305.006-951.476,301.861-951.086,300.22Z" transform="translate(951.136 -215.261)" fill="#bbf1e6" fill-rule="evenodd"/>
          <path id="Trazado_106371" data-name="Trazado 106371" d="M-813.7,224.75a5.533,5.533,0,0,1-.38.937c-1.077,1.827-3.875,2.74-7.248,2.461h-.006l-.119-.011a9.1,9.1,0,0,0,1.491-6.255C-817.483,221.423-813.293,223.441-813.7,224.75Z" transform="translate(853.132 -216.666)" fill="#62ddc4" fill-rule="evenodd"/>
        </g>
        <g id="Grupo_55976" data-name="Grupo 55976" transform="translate(0 3.474)">
          <path id="Trazado_106372" data-name="Trazado 106372" d="M-1039.46,223.926c-.34-1.73.957-3.653,2.633-3.316,4.252.857,11.207,2.426,19.116-5.654a458.37,458.37,0,0,0,7.346,53.536c2.47,12.546,5.389,24.693,8.681,36.354-2.549,1.1-5.07,2.312-7.56,3.655-15.569-32.318-18.16-82.756-20.262-82.428C-1035.125,226.95-1038.789,227.332-1039.46,223.926Z" transform="translate(1040.873 -214.956)" fill="#7ce2ce" fill-rule="evenodd"/>
          <path id="Trazado_106373" data-name="Trazado 106373" d="M-1027.484,315.766c-.465-2.365.344-5.647-.341-12.326-1.055-10.285-3.656-25.009-5.431-34.025-3.951-20.07-10.484-37.291-11.762-42.793-1.228-3.767,17.54-7.391,20.123-3.917.481.648.432,5.159.527,6.212.935,10.45,3.8,32.466,6.841,47.909,2.483,12.616,9.94,33.461,10.394,35.768s-1.22,4.617-4.076,6.157a14.565,14.565,0,0,1-8.988,1.58C-1024.073,319.716-1027.136,317.536-1027.484,315.766Z" transform="translate(1045.076 -219.752)" fill="#a2ebdc" fill-rule="evenodd"/>
          <path id="Trazado_106374" data-name="Trazado 106374" d="M-1028.7,221.361a4.486,4.486,0,0,1,.579,3.057c-2.564,17.332,1.943,41.519,7.779,64.4,2.687,10.537,6.894,21.289,8.611,30.092a12.458,12.458,0,0,1-3.729,1.333l-.13.024h-.005a12.183,12.183,0,0,1-4.646-.074c-3.375-.722-6.222-2.759-7.276-4.64-.381-2.35.362-5.632-.3-12.115-1.055-10.285-3.656-25.008-5.431-34.025-3.951-20.07-10.484-37.291-11.762-42.793C-1045.969,223.707-1034.935,220.878-1028.7,221.361Z" transform="translate(1045.076 -219.755)" fill="#bbf1e6" fill-rule="evenodd"/>
        </g>
        <path id="Trazado_106375" data-name="Trazado 106375" d="M-1033.858,358.175h50.017l1.373-8.854a1.345,1.345,0,0,0,.014-.2.906.906,0,0,0-.213-.613.936.936,0,0,0-.575-.286,1.488,1.488,0,0,0-.2-.012h-50.826a1.419,1.419,0,0,0-.2.012.937.937,0,0,0-.575.286.9.9,0,0,0-.213.613,1.335,1.335,0,0,0,.014.2l1.373,8.855Zm53.285,1.836a1.7,1.7,0,0,1-.026.169l-2.105,13.575v.012c-.006.05-.014.1-.023.147l-4.019,25.917-.449,2.9-1.6,10.286a5.2,5.2,0,0,1-1.85,3.157v.007a5.589,5.589,0,0,1-3.537,1.3h-29.34a5.588,5.588,0,0,1-3.537-1.3l-.115-.105a5.173,5.173,0,0,1-1.735-3.059l-1.583-10.208c-.011-.052-.019-.1-.024-.157l-1.679-10.829-.428-2.757c-.01-.049-.017-.1-.023-.149l-6.065-39.108a4.515,4.515,0,0,1-.055-.685,4.145,4.145,0,0,1,1.065-2.79,4.474,4.474,0,0,1,2.733-1.426,5.06,5.06,0,0,1,.7-.051h50.826a5.059,5.059,0,0,1,.7.051A4.473,4.473,0,0,1-980,346.33a4.148,4.148,0,0,1,1.065,2.79,4.475,4.475,0,0,1-.055.685l-1.583,10.206Zm-10.4,44.146-35.755,0,1.3,8.369a1.847,1.847,0,0,0,.607,1.06l.075.059a1.961,1.961,0,0,0,1.228.477h29.34a1.961,1.961,0,0,0,1.228-.477l0,0a1.878,1.878,0,0,0,.678-1.122l1.3-8.37Zm-42.366-42.627h48.976l-1.529,9.861-.081.524h-45.755l-.9-5.8-1.231-7.937Zm4.48,28.888,1.611,10.384h36.795l1.346-8.679.265-1.707-40.017,0Zm42.365-15.146h-44.714l1.567,10.105.261,1.684h41.058l.261-1.684Z" transform="translate(1040.307 -309.645)" fill="#ff9696" fill-rule="evenodd"/>
      </g>
    </g>
  </g>
</svg>
