<svg xmlns="http://www.w3.org/2000/svg" width="85.362" height="131" viewBox="0 0 85.362 131">
  <g id="Grupo_55970" data-name="Grupo 55970" transform="translate(-80.159 -71.409)">
    <path id="Trazado_106345" data-name="Trazado 106345" d="M81.868,113.791l.953-22.776,26.674-8.488h.011V71.409h26.654V82.527h.011l26.673,8.488.953,22.776-19.05,54.12,18.917,34.5H82L100.878,167.8Z" transform="translate(1.725 0)" fill="#8c757e" fill-rule="evenodd"/>
    <path id="Trazado_106346" data-name="Trazado 106346" d="M102.254,71.409h13.327V82.527h.011l26.673,8.488.953,22.776-19.05,54.12,18.917,34.5H102.254Z" transform="translate(22.303 0)" fill="#636363" fill-rule="evenodd"/>
    <path id="Trazado_106347" data-name="Trazado 106347" d="M95.314,107.87l-5.307,7.224c-.508.691,6.3,10.628,7.34,6.961l1.549-5.431,6.394-5.267c.719-.595,1.849-6.3,1.471-7.157h0a1.7,1.7,0,0,0-2.24-.866C102.783,104.1,96.4,106.387,95.314,107.87Z" transform="translate(9.914 32.077)" fill="#eebe69" fill-rule="evenodd"/>
    <path id="Trazado_106348" data-name="Trazado 106348" d="M102.7,101.951l-9.2,4.073a1.963,1.963,0,0,0-1,2.584h0a1.965,1.965,0,0,0,2.584,1l9.2-4.073a1.965,1.965,0,0,0,1-2.584v0A1.965,1.965,0,0,0,102.7,101.951Z" transform="translate(12.293 30.66)" fill="#ffdba7" fill-rule="evenodd"/>
    <path id="Trazado_106349" data-name="Trazado 106349" d="M106.981,113.978l-4.37-1.5c-.6-.2-5.6,5.53-6.374-2.156-.133-1.318-5.618-2.678-6.076-1.433-.926,2.512-1.969,5.329-2.005,7.5-.032,2,5.212,8.578,4.019,13.447l9.981.352a3.71,3.71,0,0,0,3.587-2.765l2.3-9.34C108.358,116.789,108.235,114.41,106.981,113.978Z" transform="translate(8.071 37.335)" fill="#ffdba7" fill-rule="evenodd"/>
    <path id="Trazado_106350" data-name="Trazado 106350" d="M102.967,119.936l-.8,2.508H89.942a10.981,10.981,0,0,0,.309-5.484Z" transform="translate(9.875 45.979)" fill="#ffdba7" fill-rule="evenodd"/>
    <path id="Trazado_106351" data-name="Trazado 106351" d="M80.159,154.967l20.089-36.557,12.964,2.242-18.2,34.276Z" transform="translate(0 47.442)" fill="#ffad54" fill-rule="evenodd"/>
    <path id="Trazado_106352" data-name="Trazado 106352" d="M95.417,105.022l-6.123,8.333a1.693,1.693,0,0,0,.989,2.468h0c1.386.51,2.6,3.768,4.676-.659l3.788-8.1c.456-.977.518-2.355-.492-2.727h0c-.635-.233-1.047-.541-1.608-.36A2.867,2.867,0,0,0,95.417,105.022Z" transform="translate(8.959 32.821)" fill="#ffdba7" fill-rule="evenodd"/>
    <path id="Trazado_106353" data-name="Trazado 106353" d="M128.294,77.686l21.983,6.993.953,22.776-19.051,54.12,18.918,34.5L110,188.753,94.318,107.172Z" transform="translate(14.292 6.336)" fill="#ade9f0" fill-rule="evenodd"/>
    <path id="Trazado_106354" data-name="Trazado 106354" d="M103.4,104.175h0a2.343,2.343,0,0,0-3,1.384c-1.455,3.952-2.825,8.05-4.5,11.9l-1.3,3.866a2.365,2.365,0,0,0,1.384,3h0c1.206.446,1.931-.673,3-1.384l2.779-1.849a30.346,30.346,0,0,1,1.125-6.924l1.9-6.995A2.424,2.424,0,0,0,103.4,104.175Z" transform="translate(14.445 32.929)" fill="#ffdba7" fill-rule="evenodd"/>
  </g>
</svg>
