<svg xmlns="http://www.w3.org/2000/svg" width="131.3" height="127.611" viewBox="0 0 131.3 127.611">
  <g id="Grupo_1069629" data-name="Grupo 1069629" transform="translate(-824.784 -4564.694)">
    <g id="Grupo_1067775" data-name="Grupo 1067775" transform="translate(79.784 -330.09)">
      <path id="Trazado_771771" data-name="Trazado 771771" d="M3.029,901.384c-4.854-10.632-9.623-21.763-18.282-29.613S-37.772,860.4-47.38,867.054c-6.449,4.467-9.558,12.294-14.67,18.244-4.391,5.111-10.2,8.763-15.273,13.2s-9.639,10.174-10.116,16.9c-.78,11,9.328,19.569,19.151,24.571a108.718,108.718,0,0,0,54.973,11.61c9.6-.525,35.933-4.308,36.339-17.97.161-5.407-6.641-9.634-9.612-13.5C9.069,914.456,5.973,907.832,3.029,901.384Z" transform="translate(832.481 4070.664)" fill="#025157"/>
      <g id="Grupo_1054388" data-name="Grupo 1054388" transform="translate(-912.32 4916.916)">
        <path id="Trazado_771758" data-name="Trazado 771758" d="M1719.933,176.872c-.182.885-.264,2.007.516,2.607a2.69,2.69,0,0,0,2.063.7c1.4-.258,1.346-1.325,1.433-2.566a4.56,4.56,0,0,0-.191-1.961,1.924,1.924,0,0,0-1.413-1.263,1.886,1.886,0,0,0-1.675.738A4,4,0,0,0,1719.933,176.872Z" transform="translate(-41.887 -116.568)" fill="#f5947a"/>
        <path id="Trazado_771759" data-name="Trazado 771759" d="M1693.235,139.81a1.538,1.538,0,0,0-.07-.525,1.6,1.6,0,0,0-.221-.369l-.538-.74a2.393,2.393,0,0,0-.7-.718,1.544,1.544,0,0,0-1.292-.05,3.429,3.429,0,0,0-1.1.744,4.094,4.094,0,0,0-.978,1.26c-.875,1.919.766,4.314,2.5,5.127C1693.355,145.713,1693.253,141.144,1693.235,139.81Z" transform="translate(-16.752 -87.181)" fill="#f5947a"/>
        <path id="Trazado_771760" data-name="Trazado 771760" d="M1672.416,97.065a1.971,1.971,0,0,0-.572-.742,9.418,9.418,0,0,0-3.04-2.169,1.5,1.5,0,0,0-1.11-.061,1.646,1.646,0,0,0-.724,1.5c-.083,1.526.495,3.719,2.291,4.036C1670.473,99.846,1672.925,98.534,1672.416,97.065Z" transform="translate(0 -52.875)" fill="#f5947a"/>
        <path id="Trazado_771761" data-name="Trazado 771761" d="M1690.61,45.548c-.439-.847-1.187-1.7-2.14-1.654a3.006,3.006,0,0,0-1.638.819,4.065,4.065,0,0,0-1.377,1.552,3.483,3.483,0,0,0-.2,1.04A3.3,3.3,0,0,0,1689.113,51C1691.53,50.505,1691.491,47.247,1690.61,45.548Z" transform="translate(-14.492 -13.152)" fill="#f5947a"/>
        <path id="Trazado_771762" data-name="Trazado 771762" d="M1733.282,30.8a3.441,3.441,0,0,0,.345-.975,3.212,3.212,0,0,0-.284-1.546,1.55,1.55,0,0,0-.605-.877,1.476,1.476,0,0,0-1.341.169,16.573,16.573,0,0,0-3.626,2.832,3.287,3.287,0,0,0-.615.7,2.247,2.247,0,0,0-.273,1.073c-.042,1.475,1.267,3.1,2.861,2.587C1731.555,34.178,1732.528,32.4,1733.282,30.8Z" transform="translate(-47.492 0)" fill="#f5947a"/>
        <path id="Trazado_771763" data-name="Trazado 771763" d="M1715.629,93.454a3.01,3.01,0,0,0,.662-.8,1.455,1.455,0,0,0-.507-1.475,5.064,5.064,0,0,0-1.837-1.084,2.058,2.058,0,0,0-1.334-.134,1.556,1.556,0,0,0-.908.976,4.438,4.438,0,0,0-.2,1.36c-.041,1.118-.015,3.135,1.478,3.332C1714.38,95.807,1714.9,94.272,1715.629,93.454Z" transform="translate(-35.299 -49.611)" fill="#f5947a"/>
        <path id="Trazado_771764" data-name="Trazado 771764" d="M1755.448,78.825a2.137,2.137,0,0,0-1.456-2.078,3.529,3.529,0,0,0-1.639-.019,4.262,4.262,0,0,0-1.3.4,3.708,3.708,0,0,0-1.689,2.419,3.5,3.5,0,0,0-.075,1.651c.369,1.59,2.36,2.338,3.837,1.869C1754.783,82.537,1755.377,80.354,1755.448,78.825Z" transform="translate(-65.2 -39.108)" fill="#f5947a"/>
        <path id="Trazado_771765" data-name="Trazado 771765" d="M1781.446,121.187a4.676,4.676,0,0,0,.116-1.316,2.49,2.49,0,0,0-.423-1.681,2.413,2.413,0,0,0-1.786-.566,4.9,4.9,0,0,0-1.481.119,1.633,1.633,0,0,0-1.172,2.3,3.787,3.787,0,0,0,2.4,2.423A1.98,1.98,0,0,0,1781.446,121.187Z" transform="translate(-86.87 -71.587)" fill="#f5947a"/>
        <path id="Trazado_771766" data-name="Trazado 771766" d="M1736.9,132.044a4.137,4.137,0,0,0-1.06-1.977,4.713,4.713,0,0,0-2.732-1.967.821.821,0,0,0-1.07.6,3.628,3.628,0,0,0,.087,2.257,9.263,9.263,0,0,0,1.061,2.03c.452.7,1.244,1.868,2.237,1.608A2.547,2.547,0,0,0,1736.9,132.044Z" transform="translate(-51.468 -79.881)" fill="#f5947a"/>
        <path id="Trazado_771767" data-name="Trazado 771767" d="M1776.033,162.2a2.282,2.282,0,0,0-.793-1.823,2.673,2.673,0,0,0-1.723-.353,2.352,2.352,0,0,0-1.355.389,2.385,2.385,0,0,0-.7,1.717,5.814,5.814,0,0,0,.134,2.108c.3,1.073,1.445,2.486,2.652,1.779A4.611,4.611,0,0,0,1776.033,162.2Z" transform="translate(-82.795 -105.193)" fill="#f5947a"/>
      </g>
    </g>
    <g id="Grupo_55968" data-name="Grupo 55968" transform="translate(1013.044 4100.9) rotate(90)">
      <path id="Trazado_106301" data-name="Trazado 106301" d="M470.736,162.828c28.337-3.14,89.335-.91,114.508-5.05,4.984-35.753-7.431-74.516-11.758-99.74-40.773-.866-52.382-3.407-109.691,4.557C468.953,89.255,466.577,137.66,470.736,162.828Z" transform="translate(0)" fill="#fff" fill-rule="evenodd"/>
      <path id="Trazado_106302" data-name="Trazado 106302" d="M473.685,162.376c7.769-.791,15.7-1.091,23.49-1.333,10.167-.316,20.344-.453,30.514-.613,11.06-.173,22.133-.342,33.185-.8,4.754-.2,9.511-.444,14.253-.824,3.406-.273,6.841-.607,10.227-1.119a132.064,132.064,0,0,0,.922-20.5c-.4-14.09-2.63-28.116-5.408-41.913-1.278-6.344-2.682-12.659-4.061-18.981-1.109-5.081-2.216-10.183-3.13-15.305-12.489-.288-24.989-.889-37.473-1.025-9.678-.105-19.253.193-28.907.907-13.365.987-26.727,2.625-40,4.454a196.672,196.672,0,0,1,2.328,20.981c.594,8.768.9,17.565,1.173,26.348.292,9.342.525,18.693,1,28.028C472.149,147.853,472.607,155.25,473.685,162.376Z" transform="translate(-1.574 -1.343)" fill="#ff9696" fill-rule="evenodd" opacity="0.58"/>
      <path id="Trazado_106304" data-name="Trazado 106304" d="M477.08,162.09l.492-.042v-3.087h4.037v2.786l.492-.032v-2.755h4.038v2.523l.492-.024v-2.5h4.037v2.319l.492-.019v-2.3H495.2v2.156l.492-.016v-2.14h4.037v2.016l.492-.014v-2h4.037v1.9l.492-.012v-1.885h4.037v1.794l.492-.01v-1.785h4.037v1.707l.492-.009v-1.7h4.037v1.629l.492-.008v-1.62h4.037v1.557l.492-.007v-1.55h4.026v1.487l.5-.008v-1.479h4.026v1.416l.492-.008v-1.408h4.037V160.3l.492-.008v-1.333h4.037v1.261l.492-.009v-1.251h4.037v1.168l.492-.011v-1.157h4.037v1.059l.493-.013v-1.047h4.037v.93l.492-.015v-.915H558.6v.776l.492-.019v-.757h4.037v.592l.492-.021v-.57h4.037v.369l.492-.028v-.341h4.037v.092l.492-.034v-.058h.817q.981-.072,1.96-.15.629-.05,1.259-.1h.011l.06-.006.061,0,.06,0,.061-.006.061-.005.06,0,.06-.005.059,0q1.06-.091,2.122-.2h-2.122v-4.037h4.037v3.837l.492-.056v-3.781h4.037v2.528q.154-1.263.279-2.528v-.009l.007-.077v-.006l.029-.3.008-.076,0-.021q.09-.953.165-1.906V149.9h.15l.029-.492h-.179v-4.037h.349l.013-.492h-.362v-4.038h.4l0-.492h-.4v-4.037h.312l-.017-.492h-.295v-4.037h.1l-.03-.492h-.069v-1.041q-.1-1.5-.229-3l0-.02-.008-.092-.008-.091-.008-.091L586,126.87l-.008-.091,0-.015q-.1-1.179-.22-2.358v2.358h-4.037v-4.037H585.6l-.053-.492h-3.811V118.2h3.331l-.064-.492h-3.267v-4.037h2.708l-.073-.492h-2.636v-4.028h2.009l-.081-.492h-1.928v-4.038h1.236l-.088-.492h-1.148v-4.037h.4l-.094-.492h-.308V98q-.239-1.224-.485-2.444v0l-.008-.039-.048-.242-.043-.211h-3.946V91.03h3.115l-.1-.492h-3.012V86.5h2.151l-.106-.492h-2.046V81.971h1.168l-.108-.492h-1.06V77.442h.177l-.107-.492h-.07v-.319l-.073-.333-.42-1.925V76.95h-4.037V72.913H576.4l-.106-.492h-3.615V68.383h2.761l-.1-.492h-2.659V63.854h1.856l-.094-.492h-1.762v-2.4l-.492-.013v2.415h-4.037V60.837l-.492-.014v2.539h-4.037V60.7l-.492-.016v2.681H559.09V60.548l-.492-.017v2.83H554.56V60.4l-.492-.016v2.978h-4.037v-3.1l-.493-.015v3.118H545.5V60.134l-.492-.012v3.24h-4.037V60.034l-.492-.009v3.337h-4.037v-3.4l-.492,0v3.4h-4.037V59.948l-.492,0v3.412H527.4V59.989l-.5.008v3.365h-4.026V60.089l-.492.015v3.258h-4.037V60.251l-.492.021v3.089h-4.037V60.473l-.492.028v2.861h-4.037V60.756l-.492.034v2.572h-4.037V61.1l-.492.04v2.226h-4.037V61.485l-.492.045v1.832H495.69V61.917l-.492.05v1.4H491.16v-.973l-.492.053v.92h-4.037V62.9l-.492.057v.409H482.7l-.6.073-.02,0-.062.008-.062.008-.062.008-.062.008-.062.007-.062.008-.062.008-.038,0q-1.435.176-2.872.358h2.872v4.037h-4.037V64l-.492.063v3.825h-4.037v-3.3l-.492.065v3.232h-4.037V65.206l-.492.068v2.451l.026.166.007.046.008.053.008.053.008.053.008.053.008.053.008.053.008.053.008.053,0,.023q.208,1.367.39,2.74v-2.74h4.037v4.037h-3.871l.061.492h3.81V76.95h-3.366l.048.492h3.318V81.48h-2.959l.04.492h2.92v4.037h-2.624l.021.3.013.191h2.59v4.037h-2.338l.028.492h2.31v4.037h-2.1l.024.492h2.073V99.6h-1.892l.02.492h1.871v4.037h-1.715l.018.492h1.7v4.038h-1.558l.016.492h1.542v4.028h-1.414l.015.492h1.4v4.037h-1.276l.014.492h1.262v4.037h-1.14l.015.492h1.125v4.037h-1l.016.492h.98v4.037h-.839l.018.492h.82v4.037h-.66l.021.492h.638v4.037H472.1l.016.335.008.157h.427v4.038h-.21l.029.492h.181v2.868q.039.584.081,1.169l.006.075.007.1.007.1.007.1.007.1,0,.033q.149,2.021.335,4.037l0,.046.036.383v0l.006.065h4.031v4.037h-3.6l.06.492h3.536v3.129Zm.492-3.621v-4.037h4.037v4.037Zm0-4.53V149.9h4.037v4.037Zm0-4.529v-4.037h4.037v4.037Zm0-4.529v-4.038h4.037v4.038Zm0-4.53v-4.037h4.037v4.037Zm0-4.529v-4.037h4.037v4.037Zm0-4.53v-4.037h4.037v4.037Zm0-4.529v-4.037h4.037v4.037Zm0-4.529V118.2h4.037v4.037Zm0-4.529v-4.037h4.037v4.037Zm0-4.53v-4.028h4.037v4.028Zm0-4.52v-4.038h4.037v4.038Zm0-4.53v-4.037h4.037v4.037Zm0-4.529V95.559h4.037V99.6Zm0-4.53V91.03h4.037v4.037Zm0-4.529V86.5h4.037v4.037Zm0-4.529V81.971h4.037v4.037Zm0-4.529V77.442h4.037V81.48Zm0-4.53V72.913h4.037V76.95Zm0-4.529V68.383h4.037v4.037Zm-.492-4.037v4.037h-4.037V68.383Zm0,4.529V76.95h-4.037V72.913Zm0,4.53V81.48h-4.037V77.442Zm0,4.529v4.037h-4.037V81.971Zm0,4.529v4.037h-4.037V86.5Zm0,4.53v4.037h-4.037V91.03Zm0,4.529V99.6h-4.037V95.559Zm0,4.529v4.037h-4.037v-4.037Zm0,4.529v4.038h-4.037v-4.038Zm0,4.53v4.028h-4.037v-4.028Zm0,4.52v4.037h-4.037v-4.037Zm0,4.529v4.037h-4.037V118.2Zm0,4.529v4.037h-4.037v-4.037Zm0,4.53v4.037h-4.037v-4.037Zm0,4.529v4.037h-4.037v-4.037Zm0,4.529v4.037h-4.037v-4.037Zm0,4.529v4.038h-4.037v-4.038Zm0,4.53v4.037h-4.037v-4.037Zm0,4.529v4.037h-4.037V149.9Zm104.164-40.755v4.028h-4.037v-4.028Zm-4.53,0v4.028h-4.037v-4.028Zm-4.529,0v4.028h-4.037v-4.028Zm-4.529,0v4.028h-4.037v-4.028Zm-4.529,0v4.028H559.09v-4.028Zm-4.53,0v4.028H554.56v-4.028Zm-4.529,0v4.028h-4.037v-4.028Zm-4.53,0v4.028H545.5v-4.028Zm-4.529,0v4.028h-4.037v-4.028Zm-4.529,0v4.028h-4.037v-4.028Zm-4.529,0v4.028h-4.037v-4.028Zm-4.53,0v4.028H527.4v-4.028Zm-4.529,0v4.028h-4.026v-4.028Zm-4.519,0v4.028h-4.037v-4.028Zm-4.529,0v4.028h-4.037v-4.028Zm-4.529,0v4.028h-4.037v-4.028Zm-4.53,0v4.028h-4.037v-4.028Zm-4.529,0v4.028h-4.037v-4.028Zm-4.529,0v4.028H495.69v-4.028Zm-4.529,0v4.028H491.16v-4.028Zm-4.53,0v4.028h-4.037v-4.028Zm-4.529,0v4.028H482.1v-4.028Zm-4.038-.492v-4.038h4.038v4.038Zm4.53,0v-4.038h4.037v4.038Zm4.529,0v-4.038H495.2v4.038Zm4.53,0v-4.038h4.037v4.038Zm4.529,0v-4.038h4.037v4.038Zm4.529,0v-4.038h4.037v4.038Zm4.53,0v-4.038h4.037v4.038Zm4.529,0v-4.038h4.037v4.038Zm4.529,0v-4.038h4.037v4.038Zm4.53,0v-4.038h4.026v4.038Zm4.529,0v-4.038h4.026v4.038Zm4.519,0v-4.038h4.037v4.038Zm4.529,0v-4.038h4.037v4.038Zm4.529,0v-4.038h4.037v4.038Zm4.53,0v-4.038h4.037v4.038Zm4.529,0v-4.038h4.037v4.038Zm4.529,0v-4.038H558.6v4.038Zm4.53,0v-4.038h4.037v4.038Zm4.529,0v-4.038h4.037v4.038Zm4.529,0v-4.038h4.037v4.038Zm4.53,0v-4.038h4.037v4.038Zm4.529,0v-4.038h4.037v4.038Zm-.493,49.814h-4.037v-4.037h4.037v4.037Zm-4.529,0h-4.037v-4.037h4.037v4.037Zm-4.529,0h-4.037v-4.037h4.037v4.037Zm-4.529,0H559.09v-4.037h4.037v4.037Zm-4.53,0H554.56v-4.037H558.6v4.037Zm-4.529,0h-4.037v-4.037h4.037v4.037Zm-4.53,0H545.5v-4.037h4.037v4.037Zm-4.529,0h-4.037v-4.037h4.037v4.037Zm-4.529,0h-4.037v-4.037h4.037v4.037Zm-4.529,0h-4.037v-4.037h4.037v4.037Zm-4.53,0H527.4v-4.037h4.026v4.037Zm-4.529,0h-4.026v-4.037h4.026v4.037Zm-4.519,0h-4.037v-4.037h4.037v4.037Zm-4.529,0h-4.037v-4.037h4.037v4.037Zm-4.529,0h-4.037v-4.037h4.037v4.037Zm-4.53,0h-4.037v-4.037h4.037v4.037Zm-4.529,0h-4.037v-4.037h4.037v4.037Zm-4.529,0H495.69v-4.037h4.037v4.037Zm-4.529,0H491.16v-4.037H495.2v4.037Zm-4.53,0h-4.037v-4.037h4.037v4.037Zm-4.529,0H482.1v-4.037h4.038v4.037Zm99.634-4.53h-4.037V149.9h4.037v4.037Zm-4.529,0h-4.037V149.9h4.037v4.037Zm-4.53,0h-4.037V149.9h4.037v4.037Zm-4.529,0h-4.037V149.9h4.037v4.037Zm-4.529,0h-4.037V149.9h4.037v4.037Zm-4.529,0H559.09V149.9h4.037v4.037Zm-4.53,0H554.56V149.9H558.6v4.037Zm-4.529,0h-4.037V149.9h4.037v4.037Zm-4.53,0H545.5V149.9h4.037v4.037Zm-4.529,0h-4.037V149.9h4.037v4.037Zm-4.529,0h-4.037V149.9h4.037v4.037Zm-4.529,0h-4.037V149.9h4.037v4.037Zm-4.53,0H527.4V149.9h4.026v4.037Zm-4.529,0h-4.026V149.9h4.026v4.037Zm-4.519,0h-4.037V149.9h4.037v4.037Zm-4.529,0h-4.037V149.9h4.037v4.037Zm-4.529,0h-4.037V149.9h4.037v4.037Zm-4.53,0h-4.037V149.9h4.037v4.037Zm-4.529,0h-4.037V149.9h4.037v4.037Zm-4.529,0H495.69V149.9h4.037v4.037Zm-4.529,0H491.16V149.9H495.2v4.037Zm-4.53,0h-4.037V149.9h4.037v4.037Zm-4.529,0H482.1V149.9h4.038v4.037Zm99.634-4.529h-4.037v-4.037h4.037v4.037Zm-4.529,0h-4.037v-4.037h4.037v4.037Zm-4.53,0h-4.037v-4.037h4.037v4.037Zm-4.529,0h-4.037v-4.037h4.037v4.037Zm-4.529,0h-4.037v-4.037h4.037v4.037Zm-4.529,0H559.09v-4.037h4.037v4.037Zm-4.53,0H554.56v-4.037H558.6v4.037Zm-4.529,0h-4.037v-4.037h4.037v4.037Zm-4.53,0H545.5v-4.037h4.037v4.037Zm-4.529,0h-4.037v-4.037h4.037v4.037Zm-4.529,0h-4.037v-4.037h4.037v4.037Zm-4.529,0h-4.037v-4.037h4.037v4.037Zm-4.53,0H527.4v-4.037h4.026v4.037Zm-4.529,0h-4.026v-4.037h4.026v4.037Zm-4.519,0h-4.037v-4.037h4.037v4.037Zm-4.529,0h-4.037v-4.037h4.037v4.037Zm-4.529,0h-4.037v-4.037h4.037v4.037Zm-4.53,0h-4.037v-4.037h4.037v4.037Zm-4.529,0h-4.037v-4.037h4.037v4.037Zm-4.529,0H495.69v-4.037h4.037v4.037Zm-4.529,0H491.16v-4.037H495.2v4.037Zm-4.53,0h-4.037v-4.037h4.037v4.037Zm-4.529,0H482.1v-4.037h4.038v4.037Zm99.634-4.529h-4.037v-4.038h4.037v4.038Zm-4.529,0h-4.037v-4.038h4.037v4.038Zm-4.53,0h-4.037v-4.038h4.037v4.038Zm-4.529,0h-4.037v-4.038h4.037v4.038Zm-4.529,0h-4.037v-4.038h4.037v4.038Zm-4.529,0H559.09v-4.038h4.037v4.038Zm-4.53,0H554.56v-4.038H558.6v4.038Zm-4.529,0h-4.037v-4.038h4.037v4.038Zm-4.53,0H545.5v-4.038h4.037v4.038Zm-4.529,0h-4.037v-4.038h4.037v4.038Zm-4.529,0h-4.037v-4.038h4.037v4.038Zm-4.529,0h-4.037v-4.038h4.037v4.038Zm-4.53,0H527.4v-4.038h4.026v4.038Zm-4.529,0h-4.026v-4.038h4.026v4.038Zm-4.519,0h-4.037v-4.038h4.037v4.038Zm-4.529,0h-4.037v-4.038h4.037v4.038Zm-4.529,0h-4.037v-4.038h4.037v4.038Zm-4.53,0h-4.037v-4.038h4.037v4.038Zm-4.529,0h-4.037v-4.038h4.037v4.038Zm-4.529,0H495.69v-4.038h4.037v4.038Zm-4.529,0H491.16v-4.038H495.2v4.038Zm-4.53,0h-4.037v-4.038h4.037v4.038Zm-4.529,0H482.1v-4.038h4.038v4.038Zm99.634-4.53h-4.037v-4.037h4.037v4.037Zm-4.529,0h-4.037v-4.037h4.037v4.037Zm-4.53,0h-4.037v-4.037h4.037v4.037Zm-4.529,0h-4.037v-4.037h4.037v4.037Zm-4.529,0h-4.037v-4.037h4.037v4.037Zm-4.529,0H559.09v-4.037h4.037v4.037Zm-4.53,0H554.56v-4.037H558.6v4.037Zm-4.529,0h-4.037v-4.037h4.037v4.037Zm-4.53,0H545.5v-4.037h4.037v4.037Zm-4.529,0h-4.037v-4.037h4.037v4.037Zm-4.529,0h-4.037v-4.037h4.037v4.037Zm-4.529,0h-4.037v-4.037h4.037v4.037Zm-4.53,0H527.4v-4.037h4.026v4.037Zm-4.529,0h-4.026v-4.037h4.026v4.037Zm-4.519,0h-4.037v-4.037h4.037v4.037Zm-4.529,0h-4.037v-4.037h4.037v4.037Zm-4.529,0h-4.037v-4.037h4.037v4.037Zm-4.53,0h-4.037v-4.037h4.037v4.037Zm-4.529,0h-4.037v-4.037h4.037v4.037Zm-4.529,0H495.69v-4.037h4.037v4.037Zm-4.529,0H491.16v-4.037H495.2v4.037Zm-4.53,0h-4.037v-4.037h4.037v4.037Zm-4.529,0H482.1v-4.037h4.038v4.037Zm99.634-4.529h-4.037v-4.037h4.037v4.037Zm-4.529,0h-4.037v-4.037h4.037v4.037Zm-4.53,0h-4.037v-4.037h4.037v4.037Zm-4.529,0h-4.037v-4.037h4.037v4.037Zm-4.529,0h-4.037v-4.037h4.037v4.037Zm-4.529,0H559.09v-4.037h4.037v4.037Zm-4.53,0H554.56v-4.037H558.6v4.037Zm-4.529,0h-4.037v-4.037h4.037v4.037Zm-4.53,0H545.5v-4.037h4.037v4.037Zm-4.529,0h-4.037v-4.037h4.037v4.037Zm-4.529,0h-4.037v-4.037h4.037v4.037Zm-4.529,0h-4.037v-4.037h4.037v4.037Zm-4.53,0H527.4v-4.037h4.026v4.037Zm-4.529,0h-4.026v-4.037h4.026v4.037Zm-4.519,0h-4.037v-4.037h4.037v4.037Zm-4.529,0h-4.037v-4.037h4.037v4.037Zm-4.529,0h-4.037v-4.037h4.037v4.037Zm-4.53,0h-4.037v-4.037h4.037v4.037Zm-4.529,0h-4.037v-4.037h4.037v4.037Zm-4.529,0H495.69v-4.037h4.037v4.037Zm-4.529,0H491.16v-4.037H495.2v4.037Zm-4.53,0h-4.037v-4.037h4.037v4.037Zm-4.529,0H482.1v-4.037h4.038v4.037Zm99.634-4.53h-4.037v-4.037h4.037v4.037Zm-4.529,0h-4.037v-4.037h4.037v4.037Zm-4.53,0h-4.037v-4.037h4.037v4.037Zm-4.529,0h-4.037v-4.037h4.037v4.037Zm-4.529,0h-4.037v-4.037h4.037v4.037Zm-4.529,0H559.09v-4.037h4.037v4.037Zm-4.53,0H554.56v-4.037H558.6v4.037Zm-4.529,0h-4.037v-4.037h4.037v4.037Zm-4.53,0H545.5v-4.037h4.037v4.037Zm-4.529,0h-4.037v-4.037h4.037v4.037Zm-4.529,0h-4.037v-4.037h4.037v4.037Zm-4.529,0h-4.037v-4.037h4.037v4.037Zm-4.53,0H527.4v-4.037h4.026v4.037Zm-4.529,0h-4.026v-4.037h4.026v4.037Zm-4.519,0h-4.037v-4.037h4.037v4.037Zm-4.529,0h-4.037v-4.037h4.037v4.037Zm-4.529,0h-4.037v-4.037h4.037v4.037Zm-4.53,0h-4.037v-4.037h4.037v4.037Zm-4.529,0h-4.037v-4.037h4.037v4.037Zm-4.529,0H495.69v-4.037h4.037v4.037Zm-4.529,0H491.16v-4.037H495.2v4.037Zm-4.53,0h-4.037v-4.037h4.037v4.037Zm-4.529,0H482.1v-4.037h4.038v4.037Zm95.105-4.529h-4.037v-4.037h4.037v4.037Zm-4.53,0h-4.037v-4.037h4.037v4.037Zm-4.529,0h-4.037v-4.037h4.037v4.037Zm-4.529,0h-4.037v-4.037h4.037v4.037Zm-4.529,0H559.09v-4.037h4.037v4.037Zm-4.53,0H554.56v-4.037H558.6v4.037Zm-4.529,0h-4.037v-4.037h4.037v4.037Zm-4.53,0H545.5v-4.037h4.037v4.037Zm-4.529,0h-4.037v-4.037h4.037v4.037Zm-4.529,0h-4.037v-4.037h4.037v4.037Zm-4.529,0h-4.037v-4.037h4.037v4.037Zm-4.53,0H527.4v-4.037h4.026v4.037Zm-4.529,0h-4.026v-4.037h4.026v4.037Zm-4.519,0h-4.037v-4.037h4.037v4.037Zm-4.529,0h-4.037v-4.037h4.037v4.037Zm-4.529,0h-4.037v-4.037h4.037v4.037Zm-4.53,0h-4.037v-4.037h4.037v4.037Zm-4.529,0h-4.037v-4.037h4.037v4.037Zm-4.529,0H495.69v-4.037h4.037v4.037Zm-4.529,0H491.16v-4.037H495.2v4.037Zm-4.53,0h-4.037v-4.037h4.037v4.037Zm-4.529,0H482.1v-4.037h4.038v4.037Zm95.105-4.529h-4.037V118.2h4.037v4.037Zm-4.53,0h-4.037V118.2h4.037v4.037Zm-4.529,0h-4.037V118.2h4.037v4.037Zm-4.529,0h-4.037V118.2h4.037v4.037Zm-4.529,0H559.09V118.2h4.037v4.037Zm-4.53,0H554.56V118.2H558.6v4.037Zm-4.529,0h-4.037V118.2h4.037v4.037Zm-4.53,0H545.5V118.2h4.037v4.037Zm-4.529,0h-4.037V118.2h4.037v4.037Zm-4.529,0h-4.037V118.2h4.037v4.037Zm-4.529,0h-4.037V118.2h4.037v4.037Zm-4.53,0H527.4V118.2h4.026v4.037Zm-4.529,0h-4.026V118.2h4.026v4.037Zm-4.519,0h-4.037V118.2h4.037v4.037Zm-4.529,0h-4.037V118.2h4.037v4.037Zm-4.529,0h-4.037V118.2h4.037v4.037Zm-4.53,0h-4.037V118.2h4.037v4.037Zm-4.529,0h-4.037V118.2h4.037v4.037Zm-4.529,0H495.69V118.2h4.037v4.037Zm-4.529,0H491.16V118.2H495.2v4.037Zm-4.53,0h-4.037V118.2h4.037v4.037Zm-4.529,0H482.1V118.2h4.038v4.037Zm95.105-4.529h-4.037v-4.037h4.037v4.037Zm-4.53,0h-4.037v-4.037h4.037v4.037Zm-4.529,0h-4.037v-4.037h4.037v4.037Zm-4.529,0h-4.037v-4.037h4.037v4.037Zm-4.529,0H559.09v-4.037h4.037v4.037Zm-4.53,0H554.56v-4.037H558.6v4.037Zm-4.529,0h-4.037v-4.037h4.037v4.037Zm-4.53,0H545.5v-4.037h4.037v4.037Zm-4.529,0h-4.037v-4.037h4.037v4.037Zm-4.529,0h-4.037v-4.037h4.037v4.037Zm-4.529,0h-4.037v-4.037h4.037v4.037Zm-4.53,0H527.4v-4.037h4.026v4.037Zm-4.529,0h-4.026v-4.037h4.026v4.037Zm-4.519,0h-4.037v-4.037h4.037v4.037Zm-4.529,0h-4.037v-4.037h4.037v4.037Zm-4.529,0h-4.037v-4.037h4.037v4.037Zm-4.53,0h-4.037v-4.037h4.037v4.037Zm-4.529,0h-4.037v-4.037h4.037v4.037Zm-4.529,0H495.69v-4.037h4.037v4.037Zm-4.529,0H491.16v-4.037H495.2v4.037Zm-4.53,0h-4.037v-4.037h4.037v4.037Zm-4.529,0H482.1v-4.037h4.038v4.037Zm95.105-13.579h-4.037v-4.037h4.037v4.037Zm-4.53,0h-4.037v-4.037h4.037v4.037Zm-4.529,0h-4.037v-4.037h4.037v4.037Zm-4.529,0h-4.037v-4.037h4.037v4.037Zm-4.529,0H559.09v-4.037h4.037v4.037Zm-4.53,0H554.56v-4.037H558.6v4.037Zm-4.529,0h-4.037v-4.037h4.037v4.037Zm-4.53,0H545.5v-4.037h4.037v4.037Zm-4.529,0h-4.037v-4.037h4.037v4.037Zm-4.529,0h-4.037v-4.037h4.037v4.037Zm-4.529,0h-4.037v-4.037h4.037v4.037Zm-4.53,0H527.4v-4.037h4.026v4.037Zm-4.529,0h-4.026v-4.037h4.026v4.037Zm-4.519,0h-4.037v-4.037h4.037v4.037Zm-4.529,0h-4.037v-4.037h4.037v4.037Zm-4.529,0h-4.037v-4.037h4.037v4.037Zm-4.53,0h-4.037v-4.037h4.037v4.037Zm-4.529,0h-4.037v-4.037h4.037v4.037Zm-4.529,0H495.69v-4.037h4.037v4.037Zm-4.529,0H491.16v-4.037H495.2v4.037Zm-4.53,0h-4.037v-4.037h4.037v4.037Zm-4.529,0H482.1v-4.037h4.038v4.037ZM581.244,99.6h-4.037V95.559h4.037V99.6Zm-4.53,0h-4.037V95.559h4.037V99.6Zm-4.529,0h-4.037V95.559h4.037V99.6Zm-4.529,0h-4.037V95.559h4.037V99.6Zm-4.529,0H559.09V95.559h4.037V99.6Zm-4.53,0H554.56V95.559H558.6V99.6Zm-4.529,0h-4.037V95.559h4.037V99.6Zm-4.53,0H545.5V95.559h4.037V99.6Zm-4.529,0h-4.037V95.559h4.037V99.6Zm-4.529,0h-4.037V95.559h4.037V99.6Zm-4.529,0h-4.037V95.559h4.037V99.6Zm-4.53,0H527.4V95.559h4.026V99.6Zm-4.529,0h-4.026V95.559h4.026V99.6Zm-4.519,0h-4.037V95.559h4.037V99.6Zm-4.529,0h-4.037V95.559h4.037V99.6Zm-4.529,0h-4.037V95.559h4.037V99.6Zm-4.53,0h-4.037V95.559h4.037V99.6Zm-4.529,0h-4.037V95.559h4.037V99.6Zm-4.529,0H495.69V95.559h4.037V99.6Zm-4.529,0H491.16V95.559H495.2V99.6Zm-4.53,0h-4.037V95.559h4.037V99.6Zm-4.529,0H482.1V95.559h4.038V99.6Zm90.575-4.53h-4.037V91.03h4.037v4.037Zm-4.529,0h-4.037V91.03h4.037v4.037Zm-4.529,0h-4.037V91.03h4.037v4.037Zm-4.529,0H559.09V91.03h4.037v4.037Zm-4.53,0H554.56V91.03H558.6v4.037Zm-4.529,0h-4.037V91.03h4.037v4.037Zm-4.53,0H545.5V91.03h4.037v4.037Zm-4.529,0h-4.037V91.03h4.037v4.037Zm-4.529,0h-4.037V91.03h4.037v4.037Zm-4.529,0h-4.037V91.03h4.037v4.037Zm-4.53,0H527.4V91.03h4.026v4.037Zm-4.529,0h-4.026V91.03h4.026v4.037Zm-4.519,0h-4.037V91.03h4.037v4.037Zm-4.529,0h-4.037V91.03h4.037v4.037Zm-4.529,0h-4.037V91.03h4.037v4.037Zm-4.53,0h-4.037V91.03h4.037v4.037Zm-4.529,0h-4.037V91.03h4.037v4.037Zm-4.529,0H495.69V91.03h4.037v4.037Zm-4.529,0H491.16V91.03H495.2v4.037Zm-4.53,0h-4.037V91.03h4.037v4.037Zm-4.529,0H482.1V91.03h4.038v4.037Zm90.575-4.529h-4.037V86.5h4.037v4.037Zm-4.529,0h-4.037V86.5h4.037v4.037Zm-4.529,0h-4.037V86.5h4.037v4.037Zm-4.529,0H559.09V86.5h4.037v4.037Zm-4.53,0H554.56V86.5H558.6v4.037Zm-4.529,0h-4.037V86.5h4.037v4.037Zm-4.53,0H545.5V86.5h4.037v4.037Zm-4.529,0h-4.037V86.5h4.037v4.037Zm-4.529,0h-4.037V86.5h4.037v4.037Zm-4.529,0h-4.037V86.5h4.037v4.037Zm-4.53,0H527.4V86.5h4.026v4.037Zm-4.529,0h-4.026V86.5h4.026v4.037Zm-4.519,0h-4.037V86.5h4.037v4.037Zm-4.529,0h-4.037V86.5h4.037v4.037Zm-4.529,0h-4.037V86.5h4.037v4.037Zm-4.53,0h-4.037V86.5h4.037v4.037Zm-4.529,0h-4.037V86.5h4.037v4.037Zm-4.529,0H495.69V86.5h4.037v4.037Zm-4.529,0H491.16V86.5H495.2v4.037Zm-4.53,0h-4.037V86.5h4.037v4.037Zm-4.529,0H482.1V86.5h4.038v4.037Zm90.575-4.529h-4.037V81.971h4.037v4.037Zm-4.529,0h-4.037V81.971h4.037v4.037Zm-4.529,0h-4.037V81.971h4.037v4.037Zm-4.529,0H559.09V81.971h4.037v4.037Zm-4.53,0H554.56V81.971H558.6v4.037Zm-4.529,0h-4.037V81.971h4.037v4.037Zm-4.53,0H545.5V81.971h4.037v4.037Zm-4.529,0h-4.037V81.971h4.037v4.037Zm-4.529,0h-4.037V81.971h4.037v4.037Zm-4.529,0h-4.037V81.971h4.037v4.037Zm-4.53,0H527.4V81.971h4.026v4.037Zm-4.529,0h-4.026V81.971h4.026v4.037Zm-4.519,0h-4.037V81.971h4.037v4.037Zm-4.529,0h-4.037V81.971h4.037v4.037Zm-4.529,0h-4.037V81.971h4.037v4.037Zm-4.53,0h-4.037V81.971h4.037v4.037Zm-4.529,0h-4.037V81.971h4.037v4.037Zm-4.529,0H495.69V81.971h4.037v4.037Zm-4.529,0H491.16V81.971H495.2v4.037Zm-4.53,0h-4.037V81.971h4.037v4.037Zm-4.529,0H482.1V81.971h4.038v4.037Zm90.575-4.529h-4.037V77.442h4.037V81.48Zm-4.529,0h-4.037V77.442h4.037V81.48Zm-4.529,0h-4.037V77.442h4.037V81.48Zm-4.529,0H559.09V77.442h4.037V81.48Zm-4.53,0H554.56V77.442H558.6V81.48Zm-4.529,0h-4.037V77.442h4.037V81.48Zm-4.53,0H545.5V77.442h4.037V81.48Zm-4.529,0h-4.037V77.442h4.037V81.48Zm-4.529,0h-4.037V77.442h4.037V81.48Zm-4.529,0h-4.037V77.442h4.037V81.48Zm-4.53,0H527.4V77.442h4.026V81.48Zm-4.529,0h-4.026V77.442h4.026V81.48Zm-4.519,0h-4.037V77.442h4.037V81.48Zm-4.529,0h-4.037V77.442h4.037V81.48Zm-4.529,0h-4.037V77.442h4.037V81.48Zm-4.53,0h-4.037V77.442h4.037V81.48Zm-4.529,0h-4.037V77.442h4.037V81.48Zm-4.529,0H495.69V77.442h4.037V81.48Zm-4.529,0H491.16V77.442H495.2V81.48Zm-4.53,0h-4.037V77.442h4.037V81.48Zm-4.529,0H482.1V77.442h4.038V81.48Zm86.046-4.53h-4.037V72.913h4.037V76.95Zm-4.529,0h-4.037V72.913h4.037V76.95Zm-4.529,0H559.09V72.913h4.037V76.95Zm-4.53,0H554.56V72.913H558.6V76.95Zm-4.529,0h-4.037V72.913h4.037V76.95Zm-4.53,0H545.5V72.913h4.037V76.95Zm-4.529,0h-4.037V72.913h4.037V76.95Zm-4.529,0h-4.037V72.913h4.037V76.95Zm-4.529,0h-4.037V72.913h4.037V76.95Zm-4.53,0H527.4V72.913h4.026V76.95Zm-4.529,0h-4.026V72.913h4.026V76.95Zm-4.519,0h-4.037V72.913h4.037V76.95Zm-4.529,0h-4.037V72.913h4.037V76.95Zm-4.529,0h-4.037V72.913h4.037V76.95Zm-4.53,0h-4.037V72.913h4.037V76.95Zm-4.529,0h-4.037V72.913h4.037V76.95Zm-4.529,0H495.69V72.913h4.037V76.95Zm-4.529,0H491.16V72.913H495.2V76.95Zm-4.53,0h-4.037V72.913h4.037V76.95Zm-4.529,0H482.1V72.913h4.038V76.95Zm86.046-4.529h-4.037V68.383h4.037v4.037Zm-4.529,0h-4.037V68.383h4.037v4.037Zm-4.529,0H559.09V68.383h4.037v4.037Zm-4.53,0H554.56V68.383H558.6v4.037Zm-4.529,0h-4.037V68.383h4.037v4.037Zm-4.53,0H545.5V68.383h4.037v4.037Zm-4.529,0h-4.037V68.383h4.037v4.037Zm-4.529,0h-4.037V68.383h4.037v4.037Zm-4.529,0h-4.037V68.383h4.037v4.037Zm-4.53,0H527.4V68.383h4.026v4.037Zm-4.529,0h-4.026V68.383h4.026v4.037Zm-4.519,0h-4.037V68.383h4.037v4.037Zm-4.529,0h-4.037V68.383h4.037v4.037Zm-4.529,0h-4.037V68.383h4.037v4.037Zm-4.53,0h-4.037V68.383h4.037v4.037Zm-4.529,0h-4.037V68.383h4.037v4.037Zm-4.529,0H495.69V68.383h4.037v4.037Zm-4.529,0H491.16V68.383H495.2v4.037Zm-4.53,0h-4.037V68.383h4.037v4.037Zm-4.529,0H482.1V68.383h4.038v4.037Zm86.046-4.53h-4.037V63.854h4.037v4.037Zm-4.529,0h-4.037V63.854h4.037v4.037Zm-4.529,0H559.09V63.854h4.037v4.037Zm-4.53,0H554.56V63.854H558.6v4.037Zm-4.529,0h-4.037V63.854h4.037v4.037Zm-4.53,0H545.5V63.854h4.037v4.037Zm-4.529,0h-4.037V63.854h4.037v4.037Zm-4.529,0h-4.037V63.854h4.037v4.037Zm-4.529,0h-4.037V63.854h4.037v4.037Zm-4.53,0H527.4V63.854h4.026v4.037Zm-4.529,0h-4.026V63.854h4.026v4.037Zm-4.519,0h-4.037V63.854h4.037v4.037Zm-4.529,0h-4.037V63.854h4.037v4.037Zm-4.529,0h-4.037V63.854h4.037v4.037Zm-4.53,0h-4.037V63.854h4.037v4.037Zm-4.529,0h-4.037V63.854h4.037v4.037Zm-4.529,0H495.69V63.854h4.037v4.037Zm-4.529,0H491.16V63.854H495.2v4.037Zm-4.53,0h-4.037V63.854h4.037v4.037Zm-4.529,0H482.1V63.854h4.038Z" transform="translate(-1.902 -1.344)" fill="#fff" fill-rule="evenodd"/>
      <path id="Trazado_106305" data-name="Trazado 106305" d="M647.4,72.969a3.159,3.159,0,1,0-3.16-3.16A3.166,3.166,0,0,0,647.4,72.969Z" transform="translate(-81.156 -4.358)" fill="#ff9696" fill-rule="evenodd"/>
      <path id="Trazado_106306" data-name="Trazado 106306" d="M671.889,229.882a3.159,3.159,0,1,0-3.16-3.159A3.165,3.165,0,0,0,671.889,229.882Z" transform="translate(-92.168 -74.928)" fill="#ff9696" fill-rule="evenodd"/>
      <path id="Trazado_106311" data-name="Trazado 106311" d="M473.875,77.379a3.16,3.16,0,1,0-3.16-3.16A3.166,3.166,0,0,0,473.875,77.379Z" transform="translate(-3.113 -6.341)" fill="#ff9696" fill-rule="evenodd"/>
      <circle id="Elipse_4059" data-name="Elipse 4059" cx="3.159" cy="3.159" r="3.159" transform="translate(474.193 151.563)" fill="#ff9696"/>
      <g id="Grupo_55969" data-name="Grupo 55969" transform="translate(481.476 122.055) rotate(-90)">
        <g id="Grupo_55940" data-name="Grupo 55940" transform="translate(0 0)">
          <path id="Trazado_106317" data-name="Trazado 106317" d="M19.1,3.391a2.488,2.488,0,0,0,0,.278q.195,1.651.4,3.3.2,1.634.411,3.267c.145,1.132.295,2.263.438,3.4.14,1.111.274,2.222.41,3.333.045.367.074.736.135,1.1.2,1.176.409,2.351.616,3.526a6.66,6.66,0,0,0,3.9,4.485,9.267,9.267,0,0,0,1.229.312c.025.006.056-.013.12-.03l-.768-.534c.324.108.675.146.889.47a.78.78,0,0,0,.737.3l2.1-.056c.086,0,.173,0,.286,0-.081.23-.146.448-.232.657-.422,1.024-.874,2.036-1.271,3.069a19.946,19.946,0,0,0-.987,4.011,54.809,54.809,0,0,0-.526,8.179c-.034,3.024-.071,6.047-.137,9.07-.059,2.669-.164,5.338-.239,8.007-.056,2.033-.1,4.067-.144,6.1q-.108,4.746-.217,9.493-.086,3.694-.175,7.389-.053,2.292-.1,4.583c0,.148-.055.2-.2.2-.2.007-.4.027-.6.053a1.939,1.939,0,0,0-.228.076.151.151,0,0,1-.11-.009A1.03,1.03,0,0,0,24.2,87.3q-4.161.011-8.321.026l-10.671.035a.662.662,0,0,0-.466.1c-.028.023-.1,0-.146-.01a1.407,1.407,0,0,0-.261-.088c-.314-.022-.629-.028-.965-.041,0-.125,0-.237,0-.35-.029-1.267-.053-2.533-.091-3.8-.043-1.462-.1-2.924-.148-4.386q-.114-3.636-.219-7.273c-.046-1.544-.089-3.088-.142-4.631-.067-1.935-.146-3.869-.213-5.8q-.079-2.25-.143-4.5c-.049-1.707-.077-3.415-.148-5.121a7.7,7.7,0,0,1,.025-.99A7.87,7.87,0,0,0,2.239,49.3q-.105-1.693-.216-3.386c-.081-1.231-.159-2.463-.252-3.694Q1.652,40.65,1.5,39.084c-.092-.958-.207-1.913-.306-2.87C1.087,35.176.978,34.138.884,33.1Q.7,31.028.533,28.955C.412,27.427.29,25.9.2,24.368.118,23.033.079,21.7.022,20.359c0-.053-.015-.106-.022-.158V14.947c.007-.053.02-.105.022-.158.047-.945.073-1.891.145-2.834C.258,10.746.375,9.539.5,8.334A36.52,36.52,0,0,1,1.237,4c.171-.746.328-1.5.486-2.245.029-.132.075-.182.229-.171.8.059,1.594.113,2.393.145a22.238,22.238,0,0,0,3.567-.121c1.2-.146,2.4-.237,3.595-.416,1.8-.27,3.6-.592,5.4-.9C17.4.208,17.884.1,18.373,0h.164c.12.723.442,2.667.561,3.391m5.708,83.573c.2.049.349.09.5.12.427.087.529.006.544-.43.024-.69.054-1.38.069-2.07q.067-3.009.126-6.018c.024-1.174.045-2.349.074-3.523.048-1.984.1-3.968.153-5.953q.053-2.112.1-4.224.081-3.327.157-6.654.066-2.96.121-5.921c.008-.465-.019-.931-.025-1.4a.876.876,0,0,1,.035-.173,2.04,2.04,0,0,0,.062-.333c.025-1.267.044-2.534.065-3.8q.052-3.2.107-6.394c.012-.669.023-1.338.073-2,.077-1.034.156-2.069.289-3.1a25.862,25.862,0,0,1,.478-2.735,22.3,22.3,0,0,1,1.935-5.348,2.829,2.829,0,0,0,.113-.282c-.157-.011-.281-.024-.4-.027-.75-.015-1.5-.03-2.251-.036a3.052,3.052,0,0,0-.395.059.308.308,0,0,1-.153-.012c-.586-.254-1.169-.517-1.756-.769a4.656,4.656,0,0,1-1.866-1.409c-.278-.354-.532-.728-.792-1.1-.17-.243-.333-.491-.5-.738a34.389,34.389,0,0,1,.407,3.542A.414.414,0,0,1,22,26.056c-.114-.717-.224-1.435-.337-2.152q-.354-2.248-.71-4.5c-.048-.3-.132-.373-.444-.363-.473.016-.946.038-1.418.042q-4.373.034-8.745.059-3.973.024-7.946.043c-.295,0-.375.084-.375.378q0,1.909,0,3.818c0,.041,0,.082-.007.123a3.515,3.515,0,0,1-.055-.633c0-1.088,0-2.176,0-3.263a1.529,1.529,0,0,0-.032-.257.145.145,0,0,0-.168-.135c-.3,0-.609,0-.914,0-.106,0-.146.042-.142.146l.343.176c-.082.03-.142.072-.166.057-.21-.129-.414-.268-.634-.414l.7-.419.048.042-.228.31c.326,0,.634.006.942,0a.246.246,0,0,0,.242-.242c.011-.086,0-.174.007-.261L2,17.3a.168.168,0,0,1,.026.095c0,.468,0,.935,0,1.4,0,.253.085.333.335.327s.522-.028.783-.029q6.2-.02,12.4-.036,2.5-.007,5.008-.017c.106,0,.212-.016.368-.029-.047-.185-.088-.347-.128-.51,0-.02-.017-.043-.011-.06a1.362,1.362,0,0,0-.074-.7c-.106-.658-.191-1.32-.278-1.981-.077-.586-.146-1.173-.216-1.76s-.14-1.174-.21-1.761-.138-1.164-.208-1.745q-.122-.993-.249-1.986c-.079-.619-.161-1.237-.244-1.855-.091-.693-.187-1.386-.277-2.08-.095-.724-.185-1.449-.277-2.174-.07-.554-.144-1.108-.216-1.662-.027-.2-.055-.4-.086-.625-.488.107-.95.221-1.417.307Q15.416.72,13.8,1q-1.241.214-2.486.4c-.309.047-.46.243-.347.532a.305.305,0,0,1-.024.3.312.312,0,0,0-.039.139c-.036.57-.067,1.139-.1,1.709q-.053.9-.106,1.806-.077,1.269-.154,2.538c-.035.6-.065,1.194-.1,1.79a1.043,1.043,0,0,1-.069.237l-.056,0a1.34,1.34,0,0,1-.064-.216c-.041-.334-.073-.669-.111-1-.082-.717-.168-1.433-.249-2.15s-.157-1.435-.238-2.152c-.094-.836-.2-1.67-.285-2.506C9.319,2,9.166,1.884,8.752,2c-.03.009-.059.024-.1.04.122.263.241.523.362.783l-.051.031q-.121-.163-.24-.326l-.048.027q.182,1.455.364,2.909l-.051.007q-.21-1.429-.421-2.858l-.046-.005L8.44,2.8a1.18,1.18,0,0,1,0-.326c.044-.411.068-.535-.453-.547C6.8,1.9,5.609,1.989,4.42,1.871c-.729-.072-1.465-.066-2.2-.112-.32-.02-.412.14-.46.381-.143.711-.3,1.419-.437,2.132C1.126,5.336.919,6.4.761,7.471.625,8.388.544,9.314.455,10.237c-.095.995-.2,1.99-.248,2.987C.14,14.581.086,15.94.086,17.3c0,1.326.069,2.652.118,3.977.022.6.064,1.2.1,1.807Q.379,24.3.458,25.507c.035.542.07,1.084.109,1.626.048.683.1,1.365.15,2.048q.07.942.144,1.885c.048.6.1,1.19.15,1.786.047.552.093,1.1.143,1.655.06.654.123,1.308.184,1.962q.086.916.175,1.832c.059.594.124,1.188.182,1.782s.117,1.21.173,1.815c.063.67.129,1.34.185,2.011.054.655.1,1.311.141,1.967.055.851.1,1.7.154,2.555q.064,1.088.126,2.175a.322.322,0,0,1-.011.063,3.947,3.947,0,0,0-.078.576c0,.533.023,1.065.041,1.6.038,1.1.081,2.2.117,3.293.028.821.051,1.641.078,2.462q.059,1.81.119,3.619c.027.864.05,1.728.076,2.593q.059,1.989.12,3.978c.035,1.179.069,2.359.109,3.538.046,1.326.1,2.651.151,3.977q.058,1.638.106,3.277.081,2.739.158,5.479c.019.63.037,1.261.066,1.891,0,.072.072.2.12.2a1.949,1.949,0,0,0,.7,0,4.767,4.767,0,0,1,.555-.063c.024,0,.069,0,.074.017.053.135.169.094.265.094q2.342-.006,4.683-.016,4.715-.021,9.431-.042c1.544-.006,3.089,0,4.634,0,.219,0,.279-.051.287-.238q.082-2.012.166-4.025c.011-.275.028-.55.043-.825-.02.483-.007.966-.022,1.449-.033,1.054-.077,2.108-.125,3.161a.67.67,0,0,0,.165.479ZM10.726,1.533H10.5c-.267,0-.322.057-.322.326v2.1a.728.728,0,0,1-.034-.259c-.011-.467-.02-.934-.034-1.4-.007-.216-.114-.284-.406-.271-.166.007-.2.046-.176.269.053.529.115,1.057.174,1.585.071.641.142,1.282.216,1.923.061.517.117,1.034.2,1.548a3.763,3.763,0,0,0,.18.537,2.658,2.658,0,0,1,.055.272A.321.321,0,0,0,10.409,8q.068-.983.131-1.966.06-.935.119-1.869.054-.886.107-1.772c.01-.159-.023-.294-.208-.346C10.795,1.943,10.834,1.821,10.726,1.533Zm-1.256.246c.186.112.344.259.531.157.143-.078.061-.239.032-.373a.3.3,0,0,0-.07.009C9.808,1.636,9.653,1.7,9.469,1.778Zm-.2-.043a1.987,1.987,0,0,0-.958.116l.947.068C9.262,1.85,9.265,1.8,9.269,1.736Z" transform="translate(0.228 0.228)"/>
          <path id="Trazado_106318" data-name="Trazado 106318" d="M4.934,87.932a.609.609,0,0,1-.169-.029,1.081,1.081,0,0,1-.129-.049.439.439,0,0,0-.084-.031c-.223-.016-.444-.023-.68-.031l-.278-.01-.22-.008v-.22c0-.041,0-.081,0-.12,0-.078,0-.152,0-.225-.008-.358-.016-.716-.024-1.074-.019-.893-.039-1.816-.066-2.724-.024-.789-.052-1.591-.08-2.367-.023-.662-.047-1.346-.069-2.019-.05-1.61-.1-3.247-.146-4.831q-.037-1.221-.073-2.443-.019-.639-.037-1.279c-.033-1.1-.066-2.234-.1-3.351-.035-1.008-.074-2.033-.111-3.024-.035-.911-.071-1.853-.1-2.78-.049-1.379-.1-2.852-.143-4.5-.016-.562-.03-1.133-.043-1.685-.029-1.126-.057-2.29-.1-3.433a7.8,7.8,0,0,1,.026-1.02,4.4,4.4,0,0,0-.028-.791c-.01-.113-.021-.23-.028-.346l-.027-.432c-.061-.968-.124-1.969-.189-2.953L1.98,45.5c-.065-1-.133-2.025-.209-3.036S1.6,40.4,1.5,39.334c-.054-.563-.117-1.135-.178-1.689-.043-.386-.086-.786-.127-1.179l-.021-.208c-.1-.953-.2-1.939-.289-2.911C.758,31.937.64,30.542.534,29.2L.5,28.826C.4,27.445.283,26.017.2,24.61.144,23.7.107,22.767.073,21.868c-.016-.416-.033-.847-.051-1.27a.758.758,0,0,0-.011-.08L0,20.461l0-.016V15.159l0-.016.009-.056a.766.766,0,0,0,.011-.081c.015-.3.028-.6.041-.9.027-.636.056-1.294.1-1.941C.25,11.077.357,9.924.5,8.538a36.865,36.865,0,0,1,.739-4.363c.14-.612.273-1.237.4-1.842q.043-.2.085-.4A.4.4,0,0,1,2.2,1.583c.764.056,1.581.113,2.385.144a21.937,21.937,0,0,0,3.53-.119c.461-.056.93-.1,1.383-.152.725-.076,1.475-.154,2.206-.263C13.105.983,14.532.737,15.91.5L17.1.3c.333-.057.672-.127,1-.2l.463-.1.021,0h.38l.032.191c.123.732.442,2.664.562,3.391l0,.018v.019c0,.035,0,.069,0,.1a1.063,1.063,0,0,0,0,.15c.139,1.168.263,2.223.4,3.3.127,1.03.257,2.051.413,3.266.062.493.126.987.19,1.48.082.628.167,1.277.247,1.916.1.819.2,1.651.3,2.456q.053.439.106.878c.015.123.029.248.042.368.025.239.052.485.092.722.143.849.295,1.712.443,2.546l.168.963a6.425,6.425,0,0,0,3.764,4.328,2.975,2.975,0,0,0,.293.1l-1.229-.855,1.5.5c.058.019.117.036.18.054a1.311,1.311,0,0,1,.827.506c.1.146.252.2.541.194l2.1-.056c.061,0,.12,0,.187,0h.428l-.107.3c-.025.073-.049.144-.073.214-.052.157-.1.3-.164.454-.147.357-.3.718-.448,1.067-.276.652-.563,1.327-.821,2a19.745,19.745,0,0,0-.975,3.965,54.74,54.74,0,0,0-.523,8.145c-.037,3.364-.074,6.195-.137,9.073-.036,1.6-.088,3.235-.14,4.811-.034,1.048-.07,2.132-.1,3.2-.04,1.448-.073,2.921-.1,4.345q-.019.877-.04,1.754-.044,1.928-.088,3.855-.064,2.819-.129,5.637-.05,2.1-.1,4.191-.038,1.6-.076,3.2l-.007.279c-.033,1.411-.067,2.869-.1,4.3a.4.4,0,0,1-.418.428c-.17.006-.354.022-.579.051a.459.459,0,0,0-.077.027,1,1,0,0,1-.123.044.377.377,0,0,1-.3-.042.73.73,0,0,0-.432-.075h-.068l-7.079.022-1.242,0-10.67.035H5.384c-.134,0-.206,0-.264.049A.286.286,0,0,1,4.934,87.932Zm.218-.85A.3.3,0,0,1,5.4,87.2h0c.021,0,.045,0,.072,0,1.458,0,2.991-.009,4.682-.016l3.425-.016c1.968-.009,4-.019,6-.026,1.063,0,2.144,0,3.19,0h1.444l.058,0c0-.005,0-.011,0-.017l.029-.7q.068-1.665.137-3.33c.008-.19.019-.382.029-.568.005-.086.009-.173.015-.259l.457.022c-.011.257-.013.52-.013.774,0,.22,0,.448-.009.673-.035,1.11-.083,2.223-.125,3.165a.468.468,0,0,0,.019.159l.182-.1.088.021.188.047c.111.028.208.053.3.072a.691.691,0,0,0,.237.024.692.692,0,0,0,.032-.238q.011-.313.022-.625c.018-.473.035-.962.046-1.443.033-1.456.063-2.936.092-4.368q.016-.825.034-1.65.011-.557.022-1.114c.015-.79.031-1.607.051-2.41.029-1.217.062-2.453.093-3.649q.03-1.152.06-2.3c.035-1.387.071-2.808.1-4.223l.024-1.03c.044-1.843.09-3.749.132-5.624s.085-3.88.121-5.92c.006-.291,0-.589-.012-.878,0-.167-.01-.341-.014-.512a.633.633,0,0,1,.029-.178l.011-.043c.008-.039.016-.077.025-.113a.9.9,0,0,0,.032-.181c.02-1,.036-2.011.052-2.991l.013-.809q.014-.9.029-1.79c.024-1.509.049-3.07.078-4.6v-.06c.012-.641.024-1.3.073-1.958.082-1.1.159-2.094.29-3.108a26.285,26.285,0,0,1,.482-2.759,22.3,22.3,0,0,1,1.94-5.372l-.079,0-.175,0c-.68-.013-1.382-.027-2.073-.033a.971.971,0,0,0-.2.028c-.054.011-.109.022-.168.029a.511.511,0,0,1-.271-.029c-.256-.111-.517-.226-.767-.337-.324-.143-.659-.291-.989-.432A4.9,4.9,0,0,1,23,24.9c-.225-.287-.436-.589-.64-.881l-.1-.137c.114.813.215,1.692.26,2.573l.041.774-.454-.629A.64.64,0,0,1,22,26.32q-.087-.544-.17-1.088t-.167-1.064L21.323,22l-.368-2.331a.449.449,0,0,0-.042-.158.448.448,0,0,0-.169-.012l-.385.014c-.34.013-.692.026-1.04.028-2.6.02-5.381.039-8.745.059l-5.4.03-2.543.014a.486.486,0,0,0-.136.013.5.5,0,0,0-.013.137q0,1.909,0,3.818c0,.036,0,.07-.005.1,0,.012,0,.024,0,.035l-.109,1.91-.343-1.882a3.707,3.707,0,0,1-.06-.674q0-.867,0-1.734,0-.765,0-1.529a.982.982,0,0,0-.019-.163H1.6l.243.125-.494.178c-.02.007-.041.017-.061.026a.307.307,0,0,1-.3.011c-.132-.081-.26-.165-.392-.253q.015.4.031.8.019.466.036.931c.018.467.047.942.076,1.4q.014.2.025.4c.05.827.1,1.65.153,2.423.031.479.068,1.047.109,1.625.043.612.09,1.234.135,1.835l.04.529c.039.514.078,1.045.119,1.567.038.467.078.941.118,1.4L1.5,33.4c.037.431.075.877.114,1.314.05.553.1,1.114.155,1.658l.049.51c.05.532.1,1.083.155,1.624q.044.444.091.887t.091.895c.062.621.12,1.238.174,1.817.014.159.029.318.044.477.048.5.1,1.023.139,1.536.047.572.092,1.2.142,1.971.043.657.082,1.325.119,1.971l.035.585q.064,1.088.126,2.176a.357.357,0,0,1-.011.106v.006c-.009.063-.02.125-.031.186a1.978,1.978,0,0,0-.044.354c0,.469.019.948.035,1.412l.006.179q.029.815.059,1.63c.02.554.041,1.109.059,1.663.016.471.03.949.045,1.412q.016.525.033,1.05.025.783.051,1.567.035,1.026.068,2.053c.017.536.033,1.08.048,1.606q.014.493.028.987.059,1.989.12,3.978.015.5.029,1c.025.833.05,1.695.08,2.542.025.71.053,1.433.081,2.131.023.6.048,1.23.07,1.846.036,1,.071,2.076.107,3.278q.047,1.557.09,3.114.033,1.182.068,2.365c.017.579.036,1.234.066,1.879H4a1.472,1.472,0,0,0,.521,0A1.546,1.546,0,0,1,4.9,87.1a1.571,1.571,0,0,0,.2-.017A.32.32,0,0,1,5.152,87.081ZM2.493,19.116a.415.415,0,0,0,.093.005c.107,0,.218-.008.325-.013.151-.007.306-.015.462-.016l8.841-.026,3.559-.01c1.945-.006,3.537-.011,5.008-.017l.083,0-.064-.251v0a.293.293,0,0,1,0-.188.617.617,0,0,0-.032-.365c-.019-.071-.039-.145-.052-.224-.1-.621-.183-1.254-.263-1.866l-.016-.122c-.06-.455-.115-.917-.168-1.364q-.024-.2-.048-.4-.068-.565-.135-1.13c-.026-.21-.05-.421-.075-.631l-.057-.474c-.049-.417-.1-.847-.153-1.271-.089-.727-.169-1.376-.248-1.985s-.159-1.224-.243-1.854c-.037-.281-.076-.562-.113-.844-.055-.405-.111-.824-.165-1.237-.057-.431-.112-.87-.166-1.294q-.056-.44-.112-.881C18.675,2.064,18.6,1.485,18.535,1,18.519.873,18.5.748,18.483.619l-.212.048c-.333.076-.646.147-.971.207-.974.18-2.032.369-3.234.576-.876.151-1.691.284-2.49.405a.253.253,0,0,0-.181.083.191.191,0,0,0,.012.14.526.526,0,0,1-.041.5.149.149,0,0,0-.006.036c-.025.408-.05.824-.073,1.225l-.028.483q-.053.905-.107,1.807-.03.516-.062,1.031c-.03.5-.062,1-.091,1.507-.014.225-.026.451-.039.677-.02.365-.041.743-.065,1.115a.813.813,0,0,1-.057.227c-.008.022-.016.043-.022.062l-.045.151-.394.026-.053-.173c-.006-.019-.013-.039-.02-.058a.864.864,0,0,1-.052-.2c-.023-.193-.044-.388-.064-.577-.015-.143-.03-.285-.046-.428q-.056-.475-.111-.951c-.046-.393-.093-.8-.139-1.2-.042-.376-.084-.757-.125-1.127Q9.71,5.7,9.652,5.189c-.035-.316-.072-.632-.108-.948-.04-.338-.079-.684-.118-1.03l-.22.133.318,2.548-.5.065-.351-2.37-.1.241-.128-.761a1.44,1.44,0,0,1,0-.388l0-.027a1.82,1.82,0,0,0,.016-.241.945.945,0,0,0-.25-.027c-.422-.01-.854,0-1.271,0a20.929,20.929,0,0,1-2.312-.059c-.43-.043-.874-.058-1.3-.073-.291-.01-.591-.02-.888-.039-.158-.01-.185.014-.222.2-.056.279-.116.562-.174.835-.089.424-.182.862-.263,1.293l-.075.4c-.171.913-.349,1.856-.487,2.788-.119.808-.2,1.639-.274,2.442l-.065.675c-.082.857-.168,1.743-.211,2.613-.056,1.122-.121,2.6-.121,4.064,0,.517.011,1.039.027,1.558l.628-.375L1.532,19l-.087.119c.165,0,.325,0,.485,0h.01a.106.106,0,0,0,.012-.041,1.17,1.17,0,0,0,.005-.142c0-.033,0-.065,0-.1q.018-.5.036-1L2.028,16.8l.394.6a.385.385,0,0,1,.063.221c0,.164,0,.327,0,.491,0,.3,0,.608,0,.911A.416.416,0,0,0,2.493,19.116Zm-.55-.005ZM10.174,4.192l.037.33c.054.485.11.987.168,1.48l.026.227c.028.244.057.492.088.74.017-.239.032-.479.048-.721.019-.3.039-.611.06-.943l-.4-1.04C10.188,4.241,10.181,4.216,10.174,4.192Zm.465-1.721V4.706c.007-.106.013-.215.02-.327q.052-.819.1-1.638l.008-.134a.194.194,0,0,0-.008-.1.109.109,0,0,0-.035-.015Zm-.653.009c0,.006,0,.012,0,.019.04.4.085.807.13,1.2q.015.135.031.269c0-.006,0-.011,0-.017l-.006-.323c-.008-.361-.016-.733-.028-1.1a.225.225,0,0,0,0-.041A.479.479,0,0,0,9.986,2.479ZM9.2,2.417l.178.387c0-.041-.009-.082-.013-.123-.023-.217-.069-.253-.073-.257A.154.154,0,0,0,9.2,2.417Zm1.439-.423c0,.019,0,.048,0,.094v0l.056-.025a.3.3,0,0,0,.088-.051.16.16,0,0,0,0-.025h-.048A.863.863,0,0,0,10.643,1.994Z"/>
        </g>
        <g id="Grupo_55941" data-name="Grupo 55941" transform="translate(22.21 9.606)">
          <path id="Trazado_106319" data-name="Trazado 106319" d="M.072,0Q.315,2.6.557,5.2l-.065.006Q.245,2.606,0,.005Z"/>
        </g>
        <g id="Grupo_55942" data-name="Grupo 55942" transform="translate(0.315 0.342)">
          <path id="Trazado_106320" data-name="Trazado 106320" d="M24.719,86.851l-.3.169a.67.67,0,0,1-.165-.479c.047-1.054.091-2.107.125-3.161.015-.482,0-.966.022-1.449-.015.275-.033.55-.043.825q-.085,2.012-.166,4.025c-.008.188-.068.238-.287.238-1.545,0-3.089,0-4.634,0q-4.715.017-9.43.042-2.342.01-4.683.016c-.095,0-.211.042-.264-.094-.005-.014-.05-.022-.074-.017a4.762,4.762,0,0,0-.555.063,1.949,1.949,0,0,1-.7,0c-.048,0-.117-.129-.12-.2-.03-.63-.048-1.26-.067-1.891q-.081-2.739-.158-5.479-.049-1.639-.107-3.277c-.047-1.326-.1-2.651-.15-3.977-.041-1.179-.074-2.359-.109-3.538q-.061-1.989-.12-3.978c-.026-.864-.049-1.728-.076-2.593-.038-1.206-.08-2.413-.119-3.619-.027-.821-.049-1.641-.078-2.462-.037-1.1-.08-2.2-.117-3.293-.018-.533-.039-1.065-.041-1.6a3.882,3.882,0,0,1,.079-.576.36.36,0,0,0,.01-.063q-.062-1.088-.126-2.175c-.05-.852-.1-1.7-.154-2.555-.042-.656-.087-1.312-.141-1.967-.056-.671-.122-1.341-.185-2.011q-.085-.908-.174-1.815c-.058-.594-.123-1.188-.181-1.782-.061-.61-.118-1.221-.176-1.832-.062-.654-.125-1.308-.183-1.962-.051-.552-.1-1.1-.144-1.655-.05-.6-.1-1.19-.15-1.786-.05-.628-.1-1.256-.144-1.885C.581,28.385.529,27.7.481,27.02q-.058-.813-.109-1.626Q.293,24.182.219,22.97c-.037-.6-.079-1.2-.1-1.807C.069,19.837,0,18.511,0,17.186c0-1.358.053-2.718.121-4.075.05-1,.153-1.992.248-2.987C.458,9.2.539,8.275.674,7.358c.159-1.071.365-2.135.564-3.2.133-.713.294-1.421.437-2.132.049-.241.14-.4.46-.381.732.046,1.469.04,2.2.112,1.189.118,2.378.03,3.566.057.52.012.5.136.452.547a1.18,1.18,0,0,0,0,.326L8.437,2.5l.045.005Q8.693,3.931,8.9,5.36l.05-.007Q8.773,3.9,8.591,2.444l.047-.027.24.326.051-.031L8.568,1.93a1.031,1.031,0,0,1,.1-.04c.414-.12.568-.006.614.425.089.836.19,1.671.285,2.506.081.717.157,1.435.238,2.152s.167,1.433.25,2.15c.039.334.07.669.11,1a1.34,1.34,0,0,0,.064.216l.056,0a1.1,1.1,0,0,0,.069-.237c.039-.6.069-1.193.1-1.79.05-.846.1-1.692.153-2.538q.054-.9.106-1.806.05-.854.1-1.709a.32.32,0,0,1,.04-.139.3.3,0,0,0,.023-.3c-.113-.289.038-.485.347-.532q1.245-.19,2.486-.4Q15.329.6,16.943.307c.467-.087.929-.2,1.417-.307.031.224.06.424.087.625q.109.831.216,1.662c.093.725.182,1.449.277,2.174.091.694.186,1.386.278,2.08q.124.927.243,1.855.127.992.249,1.986c.071.581.14,1.163.209,1.745s.138,1.174.209,1.761.139,1.174.216,1.76c.086.661.172,1.323.278,1.981.038.233.159.454.074.7-.006.017.006.04.01.06.041.162.082.324.129.51-.156.013-.262.028-.368.029q-2.5.01-5.008.017-6.2.018-12.4.036c-.261,0-.521.023-.782.029s-.334-.074-.335-.327c0-.468,0-.935,0-1.4a.167.167,0,0,0-.026-.095L1.871,18.5c0,.087,0,.175-.007.261A.247.247,0,0,1,1.621,19c-.307.009-.616,0-.941,0l.228-.31L.859,18.65l-.7.419c.221.146.424.285.634.414.025.015.085-.027.167-.057L.614,19.25c0-.1.036-.148.142-.146.3.006.609.008.914,0a.146.146,0,0,1,.169.135,1.636,1.636,0,0,1,.032.257c0,1.088,0,2.176,0,3.263a3.472,3.472,0,0,0,.056.633c0-.041.006-.082.006-.123q0-1.909,0-3.818c0-.295.081-.377.375-.378q3.973-.022,7.945-.044,4.373-.027,8.745-.059c.473,0,.945-.026,1.419-.042.312-.01.4.059.444.363q.354,2.248.71,4.5c.113.717.223,1.435.336,2.152a.426.426,0,0,0,.074.186,34.253,34.253,0,0,0-.406-3.542c.166.246.327.495.5.738.26.369.513.743.791,1.1a4.657,4.657,0,0,0,1.866,1.409c.587.252,1.17.515,1.756.769a.306.306,0,0,0,.152.012,3.085,3.085,0,0,1,.4-.059c.75.006,1.5.022,2.251.036.123,0,.247.016.4.027a2.835,2.835,0,0,1-.112.282,22.3,22.3,0,0,0-1.936,5.348,25.986,25.986,0,0,0-.478,2.735c-.133,1.027-.212,2.062-.289,3.1-.049.666-.061,1.336-.073,2q-.059,3.2-.107,6.394-.031,1.9-.065,3.8a1.941,1.941,0,0,1-.062.333.874.874,0,0,0-.034.173c.007.466.033.931.025,1.4q-.053,2.96-.122,5.921-.074,3.327-.156,6.654-.051,2.112-.1,4.224-.076,2.976-.153,5.953c-.029,1.174-.049,2.349-.074,3.523q-.062,3.009-.126,6.018c-.015.69-.045,1.38-.069,2.07-.015.436-.117.518-.544.43C25.068,86.941,24.92,86.9,24.719,86.851ZM15.387,56.332V51.548c.089.083.153.149.225.2.025.02.071.015.107.022,0-.033.012-.074,0-.1-.134-.209-.272-.414-.423-.642-.135.237-.259.452-.38.669-.012.023,0,.057,0,.087.029,0,.063,0,.085-.009.072-.042.139-.092.212-.142v4.614l-.254-.158-.05.042.428.742.428-.727L15.71,56.1ZM9.574,10c-.205-1.454-.4-2.861-.6-4.268l-.058.008q.27,2.13.54,4.26l-.061.019-.224-.314-.06.036a6.4,6.4,0,0,0,.483.849l.19-.947-.058-.018ZM25.6,44.28V34.874C25.52,35.2,25.523,44.048,25.6,44.28ZM2.219,29.994a27.57,27.57,0,0,1-.337-6.035c0-.007-.025-.016-.039-.023A23.453,23.453,0,0,0,2.219,29.994ZM3.405,45.518l-.061,0q.207,3.587.414,7.174l.059,0Q3.612,49.105,3.405,45.518Zm21.7,18.605-.066,0q-.124,3.071-.247,6.141l.054,0Q24.979,67.194,25.108,64.123ZM3.176,42.429l.059,0q-.207-2.693-.416-5.386l-.067.005Q2.965,39.737,3.176,42.429Zm.832,14.778c0,1.906.122,3.8.212,5.693l.054,0Q4.141,60.053,4.008,57.207Zm21.554-4.591h.022V47.035h-.022ZM4.4,67.4l.071,0q-.084-1.915-.167-3.831h-.03ZM2.716,9.595A11.783,11.783,0,0,0,2.3,12.224C2.44,11.33,2.578,10.462,2.716,9.595ZM24.7,75.266h-.043q-.066,1.451-.132,2.9l.071,0Q24.65,76.718,24.7,75.266Zm1.661-47.638-.065-.013q-.215,1.056-.428,2.112l.068.014ZM25.85,30.8l-.058,0q-.089,1.06-.178,2.12l.042,0Q25.754,31.862,25.85,30.8ZM2.188,13.574l-.054,0q-.07,1.024-.141,2.048l.043,0Q2.112,14.6,2.188,13.574ZM25.409,56.007,25.417,56V53.447h-.008ZM3.741,4.957,3.7,4.948a3.284,3.284,0,0,0-.289,1.178C3.522,5.725,3.631,5.341,3.741,4.957ZM2.5,33.411l-.057.006q.093.843.185,1.686l.032,0Q2.586,34.255,2.5,33.411Zm.708-26.3-.069-.014q-.127.563-.256,1.126l.055.013Q3.079,7.669,3.213,7.107ZM25.166,62.243H25.2V60.7h-.031ZM2.331,31.428l-.076.006.118,1.221h.021Z" fill="#fff"/>
        </g>
        <g id="Grupo_55943" data-name="Grupo 55943" transform="translate(9.755 1.761)">
          <path id="Trazado_106321" data-name="Trazado 106321" d="M1.2,0c.109.288.071.41-.167.514.185.052.219.188.209.346q-.053.886-.108,1.772-.059.935-.119,1.869Q.951,5.485.883,6.468a.312.312,0,0,1-.056.157,2.418,2.418,0,0,0-.055-.272,3.886,3.886,0,0,1-.179-.537C.514,5.3.458,4.784.4,4.268.322,3.627.252,2.985.18,2.344.121,1.816.06,1.288.006.76-.016.537.018.5.183.491c.292-.013.4.055.406.271.015.467.024.934.034,1.4a.74.74,0,0,0,.034.259V.327C.657.058.712,0,.978,0Z" fill="#fff"/>
        </g>
        <g id="Grupo_55944" data-name="Grupo 55944" transform="translate(9.697 1.792)">
          <path id="Trazado_106322" data-name="Trazado 106322" d="M0,.215.493.009A.317.317,0,0,1,.564,0C.593.134.674.295.532.373.346.475.188.327,0,.215Z" fill="#fff"/>
        </g>
        <g id="Grupo_55945" data-name="Grupo 55945" transform="translate(8.539 1.958)">
          <path id="Trazado_106323" data-name="Trazado 106323" d="M.958.006C.956.068.952.121.947.19L0,.122A1.988,1.988,0,0,1,.958.006Z" fill="#fff"/>
        </g>
        <g id="Grupo_55946" data-name="Grupo 55946" transform="translate(15.217 51.376)">
          <path id="Trazado_106324" data-name="Trazado 106324" d="M.485,5.3l.323-.231.047.052-.428.727L0,5.1l.05-.042L.3,5.218V.6C.231.655.164.7.092.747A.214.214,0,0,1,.007.756C.007.726,0,.692.01.669.131.452.256.237.391,0,.541.227.68.433.813.642c.015.024,0,.065,0,.1C.781.733.735.738.709.718.638.662.574.6.485.514Z"/>
        </g>
        <g id="Grupo_55947" data-name="Grupo 55947" transform="translate(9.229 6.073)">
          <path id="Trazado_106325" data-name="Trazado 106325" d="M.66,4.268l.151-.375.059.018-.19.947A6.515,6.515,0,0,1,.2,4.01l.061-.036.223.314L.54,4.268Q.271,2.138,0,.008L.058,0C.256,1.407.454,2.814.66,4.268Z"/>
        </g>
        <g id="Grupo_55948" data-name="Grupo 55948" transform="translate(25.856 35.216)">
          <path id="Trazado_106326" data-name="Trazado 106326" d="M.058,9.406C-.018,9.174-.021.325.058,0Z"/>
        </g>
        <g id="Grupo_55949" data-name="Grupo 55949" transform="translate(2.079 24.278)">
          <path id="Trazado_106327" data-name="Trazado 106327" d="M.456,6.058A23.432,23.432,0,0,1,.08,0C.093.008.118.016.118.023A27.63,27.63,0,0,0,.456,6.058Z"/>
        </g>
        <g id="Grupo_55950" data-name="Grupo 55950" transform="translate(3.66 45.86)">
          <path id="Trazado_106328" data-name="Trazado 106328" d="M.061,0Q.267,3.587.473,7.174l-.059,0Q.208,3.59,0,0Z"/>
        </g>
        <g id="Grupo_55951" data-name="Grupo 55951" transform="translate(25.11 64.463)">
          <path id="Trazado_106329" data-name="Trazado 106329" d="M.314,0q-.13,3.07-.26,6.141L0,6.141Q.123,3.071.247,0Z"/>
        </g>
        <g id="Grupo_55952" data-name="Grupo 55952" transform="translate(3.068 37.382)">
          <path id="Trazado_106330" data-name="Trazado 106330" d="M.424,5.389Q.211,2.7,0,.005L.067,0Q.275,2.693.482,5.386Z"/>
        </g>
        <g id="Grupo_55953" data-name="Grupo 55953" transform="translate(4.323 57.549)">
          <path id="Trazado_106331" data-name="Trazado 106331" d="M0,0Q.134,2.845.267,5.691l-.054,0C.123,3.8,0,1.906,0,0Z"/>
        </g>
        <g id="Grupo_55954" data-name="Grupo 55954" transform="translate(25.878 47.376)">
          <path id="Trazado_106332" data-name="Trazado 106332" d="M0,5.582V0H.022V5.581Z"/>
        </g>
        <g id="Grupo_55955" data-name="Grupo 55955" transform="translate(4.59 63.907)">
          <path id="Trazado_106333" data-name="Trazado 106333" d="M.126,3.833,0,0H.031Q.114,1.915.2,3.831Z"/>
        </g>
        <g id="Grupo_55956" data-name="Grupo 55956" transform="translate(2.602 9.936)">
          <path id="Trazado_106334" data-name="Trazado 106334" d="M.43,0C.292.868.154,1.736.011,2.629A11.841,11.841,0,0,1,.43,0Z"/>
        </g>
        <g id="Grupo_55957" data-name="Grupo 55957" transform="translate(24.842 75.607)">
          <path id="Trazado_106335" data-name="Trazado 106335" d="M.175,0Q.124,1.453.072,2.906L0,2.9Q.066,1.452.132,0Z"/>
        </g>
        <g id="Grupo_55958" data-name="Grupo 55958" transform="translate(26.183 27.956)">
          <path id="Trazado_106336" data-name="Trazado 106336" d="M.494.013Q.281,1.069.069,2.126L0,2.112Q.214,1.056.429,0Z"/>
        </g>
        <g id="Grupo_55959" data-name="Grupo 55959" transform="translate(25.93 31.141)">
          <path id="Trazado_106337" data-name="Trazado 106337" d="M.234,0Q.137,1.063.042,2.124L0,2.12Q.088,1.06.177,0Z"/>
        </g>
        <g id="Grupo_55960" data-name="Grupo 55960" transform="translate(2.309 13.912)">
          <path id="Trazado_106338" data-name="Trazado 106338" d="M.195,0Q.119,1.027.043,2.051L0,2.048Q.07,1.024.141,0Z"/>
        </g>
        <g id="Grupo_55961" data-name="Grupo 55961" transform="translate(25.724 53.789)">
          <path id="Trazado_106339" data-name="Trazado 106339" d="M0,2.559V0H.008V2.554Z"/>
        </g>
        <g id="Grupo_55962" data-name="Grupo 55962" transform="translate(3.714 5.29)">
          <path id="Trazado_106340" data-name="Trazado 106340" d="M.342.009.009,1.178A3.294,3.294,0,0,1,.3,0Z"/>
        </g>
        <g id="Grupo_55963" data-name="Grupo 55963" transform="translate(2.763 33.753)">
          <path id="Trazado_106341" data-name="Trazado 106341" d="M.057,0q.08.844.161,1.688l-.032,0Q.093.849,0,.006Z"/>
        </g>
        <g id="Grupo_55964" data-name="Grupo 55964" transform="translate(3.204 7.434)">
          <path id="Trazado_106342" data-name="Trazado 106342" d="M.325.014Q.19.576.055,1.139L0,1.126Q.128.563.257,0Z"/>
        </g>
        <g id="Grupo_55965" data-name="Grupo 55965" transform="translate(25.48 61.043)">
          <path id="Trazado_106343" data-name="Trazado 106343" d="M0,1.542V0H.032V1.543Z"/>
        </g>
        <g id="Grupo_55966" data-name="Grupo 55966" transform="translate(2.57 31.77)">
          <path id="Trazado_106344" data-name="Trazado 106344" d="M.076,0,.139,1.225H.118L0,.006Z"/>
        </g>
      </g>
      <line id="Lnea_183" data-name="Lnea 183" x2="12.826" transform="translate(484.884 140.448) rotate(-90)" fill="none" stroke="#8c757e" stroke-width="1"/>
      <line id="Lnea_184" data-name="Lnea 184" x2="12.826" transform="translate(568.68 140.448) rotate(-90)" fill="none" stroke="#8c757e" stroke-width="1"/>
      <line id="Lnea_185" data-name="Lnea 185" y2="80.376" transform="translate(486.594 134.035) rotate(-90)" fill="none" stroke="#8c757e" stroke-width="1"/>
    </g>
  </g>
</svg>
