<svg xmlns="http://www.w3.org/2000/svg" width="123.105" height="142.573" viewBox="0 0 123.105 142.573">
  <g id="Grupo_55968" data-name="Grupo 55968" transform="translate(180.065 -463.794) rotate(90)">
    <path id="Trazado_106301" data-name="Trazado 106301" d="M471.866,180.065c32.95-3.652,103.88-1.058,133.152-5.872,5.8-41.574-8.641-86.648-13.673-115.979-47.411-1.006-60.91-3.962-127.55,5.3C469.793,94.513,467.03,150.8,471.866,180.065Z" transform="translate(0)" fill="#fff" fill-rule="evenodd"/>
    <path id="Trazado_106302" data-name="Trazado 106302" d="M474.726,179.052c9.033-.919,18.259-1.268,27.314-1.55,11.822-.368,23.656-.527,35.483-.713,12.86-.2,25.737-.4,38.588-.925,5.528-.227,11.059-.516,16.573-.958,3.961-.317,7.955-.706,11.892-1.3a153.573,153.573,0,0,0,1.072-23.84c-.462-16.384-3.058-32.693-6.289-48.737-1.486-7.377-3.119-14.72-4.723-22.071-1.289-5.908-2.577-11.84-3.64-17.8-14.522-.335-29.058-1.033-43.574-1.191-11.254-.122-22.387.225-33.613,1.054-15.541,1.148-31.078,3.053-46.517,5.18A228.687,228.687,0,0,1,470,90.6c.691,10.2,1.044,20.424,1.364,30.638.34,10.863.611,21.737,1.158,32.591C472.94,162.165,473.472,170.767,474.726,179.052Z" transform="translate(-1.26 -1.075)" fill="#ff9696" fill-rule="evenodd" opacity="0.58"/>
    <path id="Trazado_106304" data-name="Trazado 106304" d="M478.555,178.72l.573-.049v-3.59h4.694v3.24l.572-.037v-3.2h4.7v2.934l.572-.028v-2.906h4.695v2.7l.572-.022v-2.675h4.7v2.507l.572-.019v-2.488h4.695v2.344l.572-.016v-2.328h4.695v2.2l.572-.013v-2.191h4.695v2.087l.573-.012v-2.075h4.695v1.985l.572-.01v-1.975h4.694v1.894l.572-.01v-1.884h4.695v1.81l.573-.008v-1.8h4.682v1.729l.585-.009v-1.72h4.682v1.646l.573-.009v-1.637h4.695v1.56l.572-.01v-1.55h4.695v1.466l.572-.011v-1.455h4.695v1.358l.573-.013v-1.346h4.694v1.232l.573-.015v-1.217h4.695v1.081l.572-.018v-1.063h4.695v.9l.573-.022v-.88h4.695v.688l.572-.025v-.663h4.694v.429l.572-.032v-.4h4.695v.107l.573-.039v-.068h.95q1.14-.083,2.279-.174.731-.059,1.464-.121h.012l.07-.006.07-.006.07-.006.07-.006.07-.006.07-.006.07-.006.069-.006q1.232-.106,2.467-.228h-2.467v-4.695h4.695v4.462l.573-.065v-4.4h4.694v2.94q.178-1.468.324-2.94V169.8l.008-.09v-.006l.034-.352.009-.089,0-.025q.1-1.108.192-2.216v-2.478h.174l.034-.572h-.208v-4.695h.406l.015-.572h-.421v-4.7h.465l0-.572h-.461v-4.695h.363l-.02-.572h-.343v-4.695h.115l-.035-.573h-.08V141.7q-.119-1.743-.267-3.483l0-.024-.009-.107-.009-.106-.009-.106-.009-.106-.01-.106,0-.018q-.119-1.371-.255-2.742v2.742h-4.694v-4.695h4.493l-.062-.572h-4.431v-4.695h3.873l-.074-.572h-3.8v-4.695H603.4l-.084-.573h-3.065v-4.684h2.336l-.094-.572h-2.241v-4.7h1.437l-.1-.572h-1.335v-4.695h.467l-.109-.572h-.358V104.2q-.278-1.423-.564-2.842v0l-.009-.045-.056-.281-.05-.245h-4.588V96.091h3.622l-.12-.573h-3.5V90.824h2.5l-.123-.572h-2.379V85.557h1.358l-.125-.572h-1.233V80.291h.206l-.125-.573h-.081v-.371l-.084-.388-.488-2.239v3h-4.694V75.023h4.327l-.124-.572h-4.2V69.757h3.211l-.118-.573h-3.092V64.49h2.158l-.109-.572h-2.049V61.125l-.573-.015v2.808H584.45V60.981l-.572-.017v2.953h-4.694v-3.1l-.572-.019v3.117h-4.695V60.646l-.573-.019v3.291H568.65V60.473l-.572-.019v3.463h-4.695V60.31l-.573-.017v3.625h-4.694V60.164l-.573-.014v3.767h-4.695v-3.87l-.572-.011v3.881h-4.695V59.969l-.572-.006v3.954h-4.695v-3.97l-.573,0v3.968h-4.682V60l-.585.01v3.913H531.8V60.112l-.573.017v3.788h-4.695V60.3l-.572.025v3.592h-4.694V60.558l-.572.033v3.327h-4.695v-3.03l-.573.04v2.991h-4.695V61.283l-.572.046v2.588h-4.695V61.735l-.572.052v2.13h-4.695v-1.68l-.572.058v1.623h-4.7V62.786l-.572.062v1.07h-4.695v-.542l-.572.067v.475h-4l-.7.085-.023,0-.072.009-.072.009-.072.009-.072.009-.072.008-.072.009-.072.009-.045.006q-1.669.2-3.34.417h3.34v4.695h-4.694V64.662l-.573.074v4.448h-4.694V65.35l-.573.076v3.758h-4.695V66.062l-.572.079v2.851l.03.193.008.053.01.061.01.061.01.062.01.061.01.061.009.061.01.062.01.061,0,.027q.242,1.589.454,3.186V69.757h4.695v4.695h-4.5l.07.572h4.43v4.695h-3.914l.056.573h3.858v4.695h-3.441l.046.572h3.4v4.695h-3.051l.024.35.015.222h3.012v4.695H470.57l.033.573h2.686v4.694h-2.438l.028.573h2.41v4.695h-2.2l.024.572h2.176v4.695h-1.994l.021.572h1.973v4.7h-1.812l.019.572h1.793v4.684h-1.644l.018.573h1.626v4.695H471.8l.017.572h1.467v4.695h-1.325l.017.572h1.308v4.695H472.13l.019.573h1.14v4.694h-.975l.021.573h.954v4.695h-.767l.025.572h.742v4.695h-.525l.019.389.009.183h.5v4.7h-.244l.034.572h.211v3.335q.045.68.094,1.36l.007.088.008.112.008.111.008.111.008.111,0,.038q.174,2.349.389,4.695l.005.054.042.445v0l.006.076h4.688v4.695h-4.182l.07.572h4.112v3.638Zm.573-4.21v-4.695h4.694v4.695Zm0-5.267v-4.695h4.694v4.695Zm0-5.267v-4.695h4.694v4.695Zm0-5.267v-4.7h4.694v4.7Zm0-5.267v-4.695h4.694v4.695Zm0-5.267v-4.695h4.694v4.695Zm0-5.267v-4.694h4.694v4.694Zm0-5.267v-4.695h4.694v4.695Zm0-5.267v-4.695h4.694v4.695Zm0-5.267v-4.695h4.694v4.695Zm0-5.267v-4.684h4.694v4.684Zm0-5.256v-4.7h4.694v4.7Zm0-5.267v-4.695h4.694v4.695Zm0-5.267v-4.695h4.694v4.695Zm0-5.267V96.091h4.694v4.694Zm0-5.267V90.824h4.694v4.695Zm0-5.267V85.557h4.694v4.695Zm0-5.267V80.291h4.694v4.695Zm0-5.267V75.023h4.694v4.695Zm0-5.267V69.757h4.694v4.695Zm-.573-4.695v4.695h-4.694V69.757Zm0,5.267v4.695h-4.694V75.023Zm0,5.267v4.695h-4.694V80.291Zm0,5.267v4.695h-4.694V85.557Zm0,5.267v4.695h-4.694V90.824Zm0,5.267v4.694h-4.694V96.091Zm0,5.267v4.695h-4.694v-4.695Zm0,5.267v4.695h-4.694v-4.695Zm0,5.267v4.7h-4.694v-4.7Zm0,5.267v4.684h-4.694v-4.684Zm0,5.256v4.695h-4.694v-4.695Zm0,5.267v4.695h-4.694v-4.695Zm0,5.267v4.695h-4.694v-4.695Zm0,5.267v4.694h-4.694v-4.694Zm0,5.267v4.695h-4.694v-4.695Zm0,5.267v4.695h-4.694v-4.695Zm0,5.267v4.7h-4.694v-4.7Zm0,5.267v4.695h-4.694v-4.695Zm0,5.267v4.695h-4.694v-4.695Zm121.123-47.39v4.684h-4.695v-4.684Zm-5.267,0v4.684h-4.694v-4.684Zm-5.266,0v4.684H584.45v-4.684Zm-5.267,0v4.684h-4.694v-4.684Zm-5.267,0v4.684h-4.695v-4.684Zm-5.267,0v4.684H568.65v-4.684Zm-5.267,0v4.684h-4.695v-4.684Zm-5.267,0v4.684h-4.694v-4.684Zm-5.266,0v4.684h-4.695v-4.684Zm-5.267,0v4.684h-4.695v-4.684Zm-5.267,0v4.684h-4.695v-4.684Zm-5.267,0v4.684h-4.682v-4.684Zm-5.267,0v4.684H531.8v-4.684Zm-5.254,0v4.684h-4.695v-4.684Zm-5.267,0v4.684h-4.694v-4.684Zm-5.267,0v4.684h-4.695v-4.684Zm-5.267,0v4.684h-4.695v-4.684Zm-5.267,0v4.684h-4.695v-4.684Zm-5.267,0v4.684h-4.695v-4.684Zm-5.267,0v4.684h-4.7v-4.684Zm-5.267,0v4.684h-4.695v-4.684Zm-5.267,0v4.684h-4.7v-4.684Zm-4.7-.572v-4.7h4.7v4.7Zm5.267,0v-4.7h4.695v4.7Zm5.267,0v-4.7h4.7v4.7Zm5.267,0v-4.7h4.695v4.7Zm5.267,0v-4.7h4.695v4.7Zm5.266,0v-4.7h4.695v4.7Zm5.267,0v-4.7h4.695v4.7Zm5.267,0v-4.7h4.694v4.7Zm5.266,0v-4.7h4.695v4.7Zm5.267,0v-4.7h4.682v4.7Zm5.267,0v-4.7h4.682v4.7Zm5.254,0v-4.7h4.695v4.7Zm5.267,0v-4.7h4.695v4.7Zm5.266,0v-4.7h4.695v4.7Zm5.267,0v-4.7h4.694v4.7Zm5.267,0v-4.7h4.695v4.7Zm5.266,0v-4.7h4.695v4.7Zm5.267,0v-4.7h4.695v4.7Zm5.267,0v-4.7h4.694v4.7Zm5.266,0v-4.7h4.695v4.7Zm5.267,0v-4.7h4.694v4.7Zm5.267,0v-4.7h4.695v4.7Zm-.573,57.924h-4.694v-4.695h4.694v4.695Zm-5.266,0H584.45v-4.695h4.695v4.695Zm-5.267,0h-4.694v-4.695h4.694v4.695Zm-5.267,0h-4.695v-4.695h4.695v4.695Zm-5.267,0H568.65v-4.695h4.695v4.695Zm-5.267,0h-4.695v-4.695h4.695v4.695Zm-5.267,0h-4.694v-4.695h4.694v4.695Zm-5.266,0h-4.695v-4.695h4.695v4.695Zm-5.267,0h-4.695v-4.695h4.695v4.695Zm-5.267,0h-4.695v-4.695h4.695v4.695Zm-5.267,0h-4.682v-4.695h4.682v4.695Zm-5.267,0H531.8v-4.695h4.682v4.695Zm-5.254,0h-4.695v-4.695h4.695v4.695Zm-5.267,0h-4.694v-4.695h4.694v4.695Zm-5.267,0h-4.695v-4.695h4.695v4.695Zm-5.267,0h-4.695v-4.695h4.695v4.695Zm-5.267,0h-4.695v-4.695h4.695v4.695Zm-5.267,0h-4.695v-4.695h4.695v4.695Zm-5.267,0h-4.7v-4.695h4.7v4.695Zm-5.267,0h-4.695v-4.695h4.695v4.695Zm-5.267,0h-4.7v-4.695h4.7v4.695Zm115.856-5.267h-4.694v-4.695h4.694v4.695Zm-5.267,0h-4.695v-4.695h4.695v4.695Zm-5.267,0h-4.694v-4.695h4.694v4.695Zm-5.266,0H584.45v-4.695h4.695v4.695Zm-5.267,0h-4.694v-4.695h4.694v4.695Zm-5.267,0h-4.695v-4.695h4.695v4.695Zm-5.267,0H568.65v-4.695h4.695v4.695Zm-5.267,0h-4.695v-4.695h4.695v4.695Zm-5.267,0h-4.694v-4.695h4.694v4.695Zm-5.266,0h-4.695v-4.695h4.695v4.695Zm-5.267,0h-4.695v-4.695h4.695v4.695Zm-5.267,0h-4.695v-4.695h4.695v4.695Zm-5.267,0h-4.682v-4.695h4.682v4.695Zm-5.267,0H531.8v-4.695h4.682v4.695Zm-5.254,0h-4.695v-4.695h4.695v4.695Zm-5.267,0h-4.694v-4.695h4.694v4.695Zm-5.267,0h-4.695v-4.695h4.695v4.695Zm-5.267,0h-4.695v-4.695h4.695v4.695Zm-5.267,0h-4.695v-4.695h4.695v4.695Zm-5.267,0h-4.695v-4.695h4.695v4.695Zm-5.267,0h-4.7v-4.695h4.7v4.695Zm-5.267,0h-4.695v-4.695h4.695v4.695Zm-5.267,0h-4.7v-4.695h4.7v4.695Zm115.856-5.267h-4.694v-4.695h4.694v4.695Zm-5.267,0h-4.695v-4.695h4.695v4.695Zm-5.267,0h-4.694v-4.695h4.694v4.695Zm-5.266,0H584.45v-4.695h4.695v4.695Zm-5.267,0h-4.694v-4.695h4.694v4.695Zm-5.267,0h-4.695v-4.695h4.695v4.695Zm-5.267,0H568.65v-4.695h4.695v4.695Zm-5.267,0h-4.695v-4.695h4.695v4.695Zm-5.267,0h-4.694v-4.695h4.694v4.695Zm-5.266,0h-4.695v-4.695h4.695v4.695Zm-5.267,0h-4.695v-4.695h4.695v4.695Zm-5.267,0h-4.695v-4.695h4.695v4.695Zm-5.267,0h-4.682v-4.695h4.682v4.695Zm-5.267,0H531.8v-4.695h4.682v4.695Zm-5.254,0h-4.695v-4.695h4.695v4.695Zm-5.267,0h-4.694v-4.695h4.694v4.695Zm-5.267,0h-4.695v-4.695h4.695v4.695Zm-5.267,0h-4.695v-4.695h4.695v4.695Zm-5.267,0h-4.695v-4.695h4.695v4.695Zm-5.267,0h-4.695v-4.695h4.695v4.695Zm-5.267,0h-4.7v-4.695h4.7v4.695Zm-5.267,0h-4.695v-4.695h4.695v4.695Zm-5.267,0h-4.7v-4.695h4.7v4.695Zm115.856-5.267h-4.694v-4.7h4.694v4.7Zm-5.267,0h-4.695v-4.7h4.695v4.7Zm-5.267,0h-4.694v-4.7h4.694v4.7Zm-5.266,0H584.45v-4.7h4.695v4.7Zm-5.267,0h-4.694v-4.7h4.694v4.7Zm-5.267,0h-4.695v-4.7h4.695v4.7Zm-5.267,0H568.65v-4.7h4.695v4.7Zm-5.267,0h-4.695v-4.7h4.695v4.7Zm-5.267,0h-4.694v-4.7h4.694v4.7Zm-5.266,0h-4.695v-4.7h4.695v4.7Zm-5.267,0h-4.695v-4.7h4.695v4.7Zm-5.267,0h-4.695v-4.7h4.695v4.7Zm-5.267,0h-4.682v-4.7h4.682v4.7Zm-5.267,0H531.8v-4.7h4.682v4.7Zm-5.254,0h-4.695v-4.7h4.695v4.7Zm-5.267,0h-4.694v-4.7h4.694v4.7Zm-5.267,0h-4.695v-4.7h4.695v4.7Zm-5.267,0h-4.695v-4.7h4.695v4.7Zm-5.267,0h-4.695v-4.7h4.695v4.7Zm-5.267,0h-4.695v-4.7h4.695v4.7Zm-5.267,0h-4.7v-4.7h4.7v4.7Zm-5.267,0h-4.695v-4.7h4.695v4.7Zm-5.267,0h-4.7v-4.7h4.7v4.7Zm115.856-5.267h-4.694v-4.695h4.694v4.695Zm-5.267,0h-4.695v-4.695h4.695v4.695Zm-5.267,0h-4.694v-4.695h4.694v4.695Zm-5.266,0H584.45v-4.695h4.695v4.695Zm-5.267,0h-4.694v-4.695h4.694v4.695Zm-5.267,0h-4.695v-4.695h4.695v4.695Zm-5.267,0H568.65v-4.695h4.695v4.695Zm-5.267,0h-4.695v-4.695h4.695v4.695Zm-5.267,0h-4.694v-4.695h4.694v4.695Zm-5.266,0h-4.695v-4.695h4.695v4.695Zm-5.267,0h-4.695v-4.695h4.695v4.695Zm-5.267,0h-4.695v-4.695h4.695v4.695Zm-5.267,0h-4.682v-4.695h4.682v4.695Zm-5.267,0H531.8v-4.695h4.682v4.695Zm-5.254,0h-4.695v-4.695h4.695v4.695Zm-5.267,0h-4.694v-4.695h4.694v4.695Zm-5.267,0h-4.695v-4.695h4.695v4.695Zm-5.267,0h-4.695v-4.695h4.695v4.695Zm-5.267,0h-4.695v-4.695h4.695v4.695Zm-5.267,0h-4.695v-4.695h4.695v4.695Zm-5.267,0h-4.7v-4.695h4.7v4.695Zm-5.267,0h-4.695v-4.695h4.695v4.695Zm-5.267,0h-4.7v-4.695h4.7v4.695Zm115.856-5.267h-4.694v-4.695h4.694v4.695Zm-5.267,0h-4.695v-4.695h4.695v4.695Zm-5.267,0h-4.694v-4.695h4.694v4.695Zm-5.266,0H584.45v-4.695h4.695v4.695Zm-5.267,0h-4.694v-4.695h4.694v4.695Zm-5.267,0h-4.695v-4.695h4.695v4.695Zm-5.267,0H568.65v-4.695h4.695v4.695Zm-5.267,0h-4.695v-4.695h4.695v4.695Zm-5.267,0h-4.694v-4.695h4.694v4.695Zm-5.266,0h-4.695v-4.695h4.695v4.695Zm-5.267,0h-4.695v-4.695h4.695v4.695Zm-5.267,0h-4.695v-4.695h4.695v4.695Zm-5.267,0h-4.682v-4.695h4.682v4.695Zm-5.267,0H531.8v-4.695h4.682v4.695Zm-5.254,0h-4.695v-4.695h4.695v4.695Zm-5.267,0h-4.694v-4.695h4.694v4.695Zm-5.267,0h-4.695v-4.695h4.695v4.695Zm-5.267,0h-4.695v-4.695h4.695v4.695Zm-5.267,0h-4.695v-4.695h4.695v4.695Zm-5.267,0h-4.695v-4.695h4.695v4.695Zm-5.267,0h-4.7v-4.695h4.7v4.695Zm-5.267,0h-4.695v-4.695h4.695v4.695Zm-5.267,0h-4.7v-4.695h4.7v4.695Zm115.856-5.267h-4.694v-4.694h4.694v4.694Zm-5.267,0h-4.695v-4.694h4.695v4.694Zm-5.267,0h-4.694v-4.694h4.694v4.694Zm-5.266,0H584.45v-4.694h4.695v4.694Zm-5.267,0h-4.694v-4.694h4.694v4.694Zm-5.267,0h-4.695v-4.694h4.695v4.694Zm-5.267,0H568.65v-4.694h4.695v4.694Zm-5.267,0h-4.695v-4.694h4.695v4.694Zm-5.267,0h-4.694v-4.694h4.694v4.694Zm-5.266,0h-4.695v-4.694h4.695v4.694Zm-5.267,0h-4.695v-4.694h4.695v4.694Zm-5.267,0h-4.695v-4.694h4.695v4.694Zm-5.267,0h-4.682v-4.694h4.682v4.694Zm-5.267,0H531.8v-4.694h4.682v4.694Zm-5.254,0h-4.695v-4.694h4.695v4.694Zm-5.267,0h-4.694v-4.694h4.694v4.694Zm-5.267,0h-4.695v-4.694h4.695v4.694Zm-5.267,0h-4.695v-4.694h4.695v4.694Zm-5.267,0h-4.695v-4.694h4.695v4.694Zm-5.267,0h-4.695v-4.694h4.695v4.694Zm-5.267,0h-4.7v-4.694h4.7v4.694Zm-5.267,0h-4.695v-4.694h4.695v4.694Zm-5.267,0h-4.7v-4.694h4.7v4.694Zm110.589-5.267h-4.695v-4.695h4.695v4.695Zm-5.267,0h-4.694v-4.695h4.694v4.695Zm-5.266,0H584.45v-4.695h4.695v4.695Zm-5.267,0h-4.694v-4.695h4.694v4.695Zm-5.267,0h-4.695v-4.695h4.695v4.695Zm-5.267,0H568.65v-4.695h4.695v4.695Zm-5.267,0h-4.695v-4.695h4.695v4.695Zm-5.267,0h-4.694v-4.695h4.694v4.695Zm-5.266,0h-4.695v-4.695h4.695v4.695Zm-5.267,0h-4.695v-4.695h4.695v4.695Zm-5.267,0h-4.695v-4.695h4.695v4.695Zm-5.267,0h-4.682v-4.695h4.682v4.695Zm-5.267,0H531.8v-4.695h4.682v4.695Zm-5.254,0h-4.695v-4.695h4.695v4.695Zm-5.267,0h-4.694v-4.695h4.694v4.695Zm-5.267,0h-4.695v-4.695h4.695v4.695Zm-5.267,0h-4.695v-4.695h4.695v4.695Zm-5.267,0h-4.695v-4.695h4.695v4.695Zm-5.267,0h-4.695v-4.695h4.695v4.695Zm-5.267,0h-4.7v-4.695h4.7v4.695Zm-5.267,0h-4.695v-4.695h4.695v4.695Zm-5.267,0h-4.7v-4.695h4.7v4.695Zm110.589-5.267h-4.695v-4.695h4.695v4.695Zm-5.267,0h-4.694v-4.695h4.694v4.695Zm-5.266,0H584.45v-4.695h4.695v4.695Zm-5.267,0h-4.694v-4.695h4.694v4.695Zm-5.267,0h-4.695v-4.695h4.695v4.695Zm-5.267,0H568.65v-4.695h4.695v4.695Zm-5.267,0h-4.695v-4.695h4.695v4.695Zm-5.267,0h-4.694v-4.695h4.694v4.695Zm-5.266,0h-4.695v-4.695h4.695v4.695Zm-5.267,0h-4.695v-4.695h4.695v4.695Zm-5.267,0h-4.695v-4.695h4.695v4.695Zm-5.267,0h-4.682v-4.695h4.682v4.695Zm-5.267,0H531.8v-4.695h4.682v4.695Zm-5.254,0h-4.695v-4.695h4.695v4.695Zm-5.267,0h-4.694v-4.695h4.694v4.695Zm-5.267,0h-4.695v-4.695h4.695v4.695Zm-5.267,0h-4.695v-4.695h4.695v4.695Zm-5.267,0h-4.695v-4.695h4.695v4.695Zm-5.267,0h-4.695v-4.695h4.695v4.695Zm-5.267,0h-4.7v-4.695h4.7v4.695Zm-5.267,0h-4.695v-4.695h4.695v4.695Zm-5.267,0h-4.7v-4.695h4.7v4.695Zm110.589-5.267h-4.695v-4.695h4.695v4.695Zm-5.267,0h-4.694v-4.695h4.694v4.695Zm-5.266,0H584.45v-4.695h4.695v4.695Zm-5.267,0h-4.694v-4.695h4.694v4.695Zm-5.267,0h-4.695v-4.695h4.695v4.695Zm-5.267,0H568.65v-4.695h4.695v4.695Zm-5.267,0h-4.695v-4.695h4.695v4.695Zm-5.267,0h-4.694v-4.695h4.694v4.695Zm-5.266,0h-4.695v-4.695h4.695v4.695Zm-5.267,0h-4.695v-4.695h4.695v4.695Zm-5.267,0h-4.695v-4.695h4.695v4.695Zm-5.267,0h-4.682v-4.695h4.682v4.695Zm-5.267,0H531.8v-4.695h4.682v4.695Zm-5.254,0h-4.695v-4.695h4.695v4.695Zm-5.267,0h-4.694v-4.695h4.694v4.695Zm-5.267,0h-4.695v-4.695h4.695v4.695Zm-5.267,0h-4.695v-4.695h4.695v4.695Zm-5.267,0h-4.695v-4.695h4.695v4.695Zm-5.267,0h-4.695v-4.695h4.695v4.695Zm-5.267,0h-4.7v-4.695h4.7v4.695Zm-5.267,0h-4.695v-4.695h4.695v4.695Zm-5.267,0h-4.7v-4.695h4.7v4.695Zm110.589-15.79h-4.695v-4.695h4.695v4.695Zm-5.267,0h-4.694v-4.695h4.694v4.695Zm-5.266,0H584.45v-4.695h4.695v4.695Zm-5.267,0h-4.694v-4.695h4.694v4.695Zm-5.267,0h-4.695v-4.695h4.695v4.695Zm-5.267,0H568.65v-4.695h4.695v4.695Zm-5.267,0h-4.695v-4.695h4.695v4.695Zm-5.267,0h-4.694v-4.695h4.694v4.695Zm-5.266,0h-4.695v-4.695h4.695v4.695Zm-5.267,0h-4.695v-4.695h4.695v4.695Zm-5.267,0h-4.695v-4.695h4.695v4.695Zm-5.267,0h-4.682v-4.695h4.682v4.695Zm-5.267,0H531.8v-4.695h4.682v4.695Zm-5.254,0h-4.695v-4.695h4.695v4.695Zm-5.267,0h-4.694v-4.695h4.694v4.695Zm-5.267,0h-4.695v-4.695h4.695v4.695Zm-5.267,0h-4.695v-4.695h4.695v4.695Zm-5.267,0h-4.695v-4.695h4.695v4.695Zm-5.267,0h-4.695v-4.695h4.695v4.695Zm-5.267,0h-4.7v-4.695h4.7v4.695Zm-5.267,0h-4.695v-4.695h4.695v4.695Zm-5.267,0h-4.7v-4.695h4.7v4.695Zm110.589-5.267h-4.695v-4.695h4.695v4.695Zm-5.267,0h-4.694v-4.695h4.694v4.695Zm-5.266,0H584.45v-4.695h4.695v4.695Zm-5.267,0h-4.694v-4.695h4.694v4.695Zm-5.267,0h-4.695v-4.695h4.695v4.695Zm-5.267,0H568.65v-4.695h4.695v4.695Zm-5.267,0h-4.695v-4.695h4.695v4.695Zm-5.267,0h-4.694v-4.695h4.694v4.695Zm-5.266,0h-4.695v-4.695h4.695v4.695Zm-5.267,0h-4.695v-4.695h4.695v4.695Zm-5.267,0h-4.695v-4.695h4.695v4.695Zm-5.267,0h-4.682v-4.695h4.682v4.695Zm-5.267,0H531.8v-4.695h4.682v4.695Zm-5.254,0h-4.695v-4.695h4.695v4.695Zm-5.267,0h-4.694v-4.695h4.694v4.695Zm-5.267,0h-4.695v-4.695h4.695v4.695Zm-5.267,0h-4.695v-4.695h4.695v4.695Zm-5.267,0h-4.695v-4.695h4.695v4.695Zm-5.267,0h-4.695v-4.695h4.695v4.695Zm-5.267,0h-4.7v-4.695h4.7v4.695Zm-5.267,0h-4.695v-4.695h4.695v4.695Zm-5.267,0h-4.7v-4.695h4.7v4.695Zm105.322-5.267h-4.694V96.091h4.694v4.694Zm-5.266,0H584.45V96.091h4.695v4.694Zm-5.267,0h-4.694V96.091h4.694v4.694Zm-5.267,0h-4.695V96.091h4.695v4.694Zm-5.267,0H568.65V96.091h4.695v4.694Zm-5.267,0h-4.695V96.091h4.695v4.694Zm-5.267,0h-4.694V96.091h4.694v4.694Zm-5.266,0h-4.695V96.091h4.695v4.694Zm-5.267,0h-4.695V96.091h4.695v4.694Zm-5.267,0h-4.695V96.091h4.695v4.694Zm-5.267,0h-4.682V96.091h4.682v4.694Zm-5.267,0H531.8V96.091h4.682v4.694Zm-5.254,0h-4.695V96.091h4.695v4.694Zm-5.267,0h-4.694V96.091h4.694v4.694Zm-5.267,0h-4.695V96.091h4.695v4.694Zm-5.267,0h-4.695V96.091h4.695v4.694Zm-5.267,0h-4.695V96.091h4.695v4.694Zm-5.267,0h-4.695V96.091h4.695v4.694Zm-5.267,0h-4.7V96.091h4.7v4.694Zm-5.267,0h-4.695V96.091h4.695v4.694Zm-5.267,0h-4.7V96.091h4.7v4.694Zm105.322-5.267h-4.694V90.824h4.694v4.695Zm-5.266,0H584.45V90.824h4.695v4.695Zm-5.267,0h-4.694V90.824h4.694v4.695Zm-5.267,0h-4.695V90.824h4.695v4.695Zm-5.267,0H568.65V90.824h4.695v4.695Zm-5.267,0h-4.695V90.824h4.695v4.695Zm-5.267,0h-4.694V90.824h4.694v4.695Zm-5.266,0h-4.695V90.824h4.695v4.695Zm-5.267,0h-4.695V90.824h4.695v4.695Zm-5.267,0h-4.695V90.824h4.695v4.695Zm-5.267,0h-4.682V90.824h4.682v4.695Zm-5.267,0H531.8V90.824h4.682v4.695Zm-5.254,0h-4.695V90.824h4.695v4.695Zm-5.267,0h-4.694V90.824h4.694v4.695Zm-5.267,0h-4.695V90.824h4.695v4.695Zm-5.267,0h-4.695V90.824h4.695v4.695Zm-5.267,0h-4.695V90.824h4.695v4.695Zm-5.267,0h-4.695V90.824h4.695v4.695Zm-5.267,0h-4.7V90.824h4.7v4.695Zm-5.267,0h-4.695V90.824h4.695v4.695Zm-5.267,0h-4.7V90.824h4.7v4.695Zm105.322-5.267h-4.694V85.557h4.694v4.695Zm-5.266,0H584.45V85.557h4.695v4.695Zm-5.267,0h-4.694V85.557h4.694v4.695Zm-5.267,0h-4.695V85.557h4.695v4.695Zm-5.267,0H568.65V85.557h4.695v4.695Zm-5.267,0h-4.695V85.557h4.695v4.695Zm-5.267,0h-4.694V85.557h4.694v4.695Zm-5.266,0h-4.695V85.557h4.695v4.695Zm-5.267,0h-4.695V85.557h4.695v4.695Zm-5.267,0h-4.695V85.557h4.695v4.695Zm-5.267,0h-4.682V85.557h4.682v4.695Zm-5.267,0H531.8V85.557h4.682v4.695Zm-5.254,0h-4.695V85.557h4.695v4.695Zm-5.267,0h-4.694V85.557h4.694v4.695Zm-5.267,0h-4.695V85.557h4.695v4.695Zm-5.267,0h-4.695V85.557h4.695v4.695Zm-5.267,0h-4.695V85.557h4.695v4.695Zm-5.267,0h-4.695V85.557h4.695v4.695Zm-5.267,0h-4.7V85.557h4.7v4.695Zm-5.267,0h-4.695V85.557h4.695v4.695Zm-5.267,0h-4.7V85.557h4.7v4.695Zm105.322-5.267h-4.694V80.291h4.694v4.695Zm-5.266,0H584.45V80.291h4.695v4.695Zm-5.267,0h-4.694V80.291h4.694v4.695Zm-5.267,0h-4.695V80.291h4.695v4.695Zm-5.267,0H568.65V80.291h4.695v4.695Zm-5.267,0h-4.695V80.291h4.695v4.695Zm-5.267,0h-4.694V80.291h4.694v4.695Zm-5.266,0h-4.695V80.291h4.695v4.695Zm-5.267,0h-4.695V80.291h4.695v4.695Zm-5.267,0h-4.695V80.291h4.695v4.695Zm-5.267,0h-4.682V80.291h4.682v4.695Zm-5.267,0H531.8V80.291h4.682v4.695Zm-5.254,0h-4.695V80.291h4.695v4.695Zm-5.267,0h-4.694V80.291h4.694v4.695Zm-5.267,0h-4.695V80.291h4.695v4.695Zm-5.267,0h-4.695V80.291h4.695v4.695Zm-5.267,0h-4.695V80.291h4.695v4.695Zm-5.267,0h-4.695V80.291h4.695v4.695Zm-5.267,0h-4.7V80.291h4.7v4.695Zm-5.267,0h-4.695V80.291h4.695v4.695Zm-5.267,0h-4.7V80.291h4.7v4.695Zm100.056-5.267H584.45V75.023h4.695v4.695Zm-5.267,0h-4.694V75.023h4.694v4.695Zm-5.267,0h-4.695V75.023h4.695v4.695Zm-5.267,0H568.65V75.023h4.695v4.695Zm-5.267,0h-4.695V75.023h4.695v4.695Zm-5.267,0h-4.694V75.023h4.694v4.695Zm-5.266,0h-4.695V75.023h4.695v4.695Zm-5.267,0h-4.695V75.023h4.695v4.695Zm-5.267,0h-4.695V75.023h4.695v4.695Zm-5.267,0h-4.682V75.023h4.682v4.695Zm-5.267,0H531.8V75.023h4.682v4.695Zm-5.254,0h-4.695V75.023h4.695v4.695Zm-5.267,0h-4.694V75.023h4.694v4.695Zm-5.267,0h-4.695V75.023h4.695v4.695Zm-5.267,0h-4.695V75.023h4.695v4.695Zm-5.267,0h-4.695V75.023h4.695v4.695Zm-5.267,0h-4.695V75.023h4.695v4.695Zm-5.267,0h-4.7V75.023h4.7v4.695Zm-5.267,0h-4.695V75.023h4.695v4.695Zm-5.267,0h-4.7V75.023h4.7v4.695Zm100.056-5.267H584.45V69.757h4.695v4.695Zm-5.267,0h-4.694V69.757h4.694v4.695Zm-5.267,0h-4.695V69.757h4.695v4.695Zm-5.267,0H568.65V69.757h4.695v4.695Zm-5.267,0h-4.695V69.757h4.695v4.695Zm-5.267,0h-4.694V69.757h4.694v4.695Zm-5.266,0h-4.695V69.757h4.695v4.695Zm-5.267,0h-4.695V69.757h4.695v4.695Zm-5.267,0h-4.695V69.757h4.695v4.695Zm-5.267,0h-4.682V69.757h4.682v4.695Zm-5.267,0H531.8V69.757h4.682v4.695Zm-5.254,0h-4.695V69.757h4.695v4.695Zm-5.267,0h-4.694V69.757h4.694v4.695Zm-5.267,0h-4.695V69.757h4.695v4.695Zm-5.267,0h-4.695V69.757h4.695v4.695Zm-5.267,0h-4.695V69.757h4.695v4.695Zm-5.267,0h-4.695V69.757h4.695v4.695Zm-5.267,0h-4.7V69.757h4.7v4.695Zm-5.267,0h-4.695V69.757h4.695v4.695Zm-5.267,0h-4.7V69.757h4.7v4.695Zm100.056-5.267H584.45V64.49h4.695v4.695Zm-5.267,0h-4.694V64.49h4.694v4.695Zm-5.267,0h-4.695V64.49h4.695v4.695Zm-5.267,0H568.65V64.49h4.695v4.695Zm-5.267,0h-4.695V64.49h4.695v4.695Zm-5.267,0h-4.694V64.49h4.694v4.695Zm-5.266,0h-4.695V64.49h4.695v4.695Zm-5.267,0h-4.695V64.49h4.695v4.695Zm-5.267,0h-4.695V64.49h4.695v4.695Zm-5.267,0h-4.682V64.49h4.682v4.695Zm-5.267,0H531.8V64.49h4.682v4.695Zm-5.254,0h-4.695V64.49h4.695v4.695Zm-5.267,0h-4.694V64.49h4.694v4.695Zm-5.267,0h-4.695V64.49h4.695v4.695Zm-5.267,0h-4.695V64.49h4.695v4.695Zm-5.267,0h-4.695V64.49h4.695v4.695Zm-5.267,0h-4.695V64.49h4.695v4.695Zm-5.267,0h-4.7V64.49h4.7v4.695Zm-5.267,0h-4.695V64.49h4.695v4.695Zm-5.267,0h-4.7V64.49h4.7Z" transform="translate(-1.523 -1.076)" fill="#fff" fill-rule="evenodd"/>
    <path id="Trazado_106305" data-name="Trazado 106305" d="M647.918,74a3.674,3.674,0,1,0-3.674-3.674A3.681,3.681,0,0,0,647.918,74Z" transform="translate(-64.99 -3.49)" fill="#ff9696" fill-rule="evenodd"/>
    <path id="Trazado_106306" data-name="Trazado 106306" d="M672.4,230.91a3.674,3.674,0,1,0-3.674-3.673A3.681,3.681,0,0,0,672.4,230.91Z" transform="translate(-73.809 -60.003)" fill="#ff9696" fill-rule="evenodd"/>
    <path id="Trazado_106311" data-name="Trazado 106311" d="M474.389,78.408a3.674,3.674,0,1,0-3.674-3.674A3.681,3.681,0,0,0,474.389,78.408Z" transform="translate(-2.493 -5.078)" fill="#ff9696" fill-rule="evenodd"/>
    <circle id="Elipse_4059" data-name="Elipse 4059" cx="3.674" cy="3.674" r="3.674" transform="translate(475.886 166.966)" fill="#ff9696"/>
    <g id="Grupo_55969" data-name="Grupo 55969" transform="translate(583.602 5234.008) rotate(-90)">
      <g id="Grupo_55940" data-name="Grupo 55940" transform="translate(5101.355 -99.247)">
        <path id="Trazado_106317" data-name="Trazado 106317" d="M5130.563-88.3a2.947,2.947,0,0,0,0,.323q.227,1.92.461,3.84.233,1.9.478,3.8c.168,1.316.343,2.632.51,3.948.162,1.291.318,2.584.477,3.876.053.427.086.856.157,1.279.231,1.368.476,2.734.716,4.1a7.744,7.744,0,0,0,4.537,5.215,10.792,10.792,0,0,0,1.429.362c.029.007.065-.015.14-.035l-.893-.62c.376.125.785.17,1.033.546a.907.907,0,0,0,.857.345l2.443-.065c.1,0,.2,0,.333,0-.094.267-.17.52-.271.763-.491,1.19-1.016,2.368-1.478,3.569a23.171,23.171,0,0,0-1.147,4.664,63.74,63.74,0,0,0-.612,9.51c-.039,3.516-.083,7.032-.159,10.547-.068,3.1-.19,6.207-.277,9.31-.065,2.364-.112,4.729-.167,7.093q-.126,5.519-.253,11.038-.1,4.3-.2,8.592-.062,2.665-.119,5.33c0,.172-.063.232-.23.238-.233.008-.467.032-.7.062a2.3,2.3,0,0,0-.266.088.175.175,0,0,1-.128-.01,1.2,1.2,0,0,0-.733-.134q-4.838.013-9.676.03l-12.408.04a.771.771,0,0,0-.542.117c-.032.027-.115,0-.17-.011a1.645,1.645,0,0,0-.3-.1c-.365-.025-.731-.032-1.122-.047,0-.146,0-.276,0-.406-.034-1.473-.062-2.946-.105-4.418-.051-1.7-.119-3.4-.173-5.1q-.132-4.228-.255-8.457c-.054-1.8-.1-3.59-.165-5.385-.078-2.25-.17-4.5-.248-6.749q-.092-2.616-.166-5.233c-.057-1.985-.09-3.971-.172-5.954a8.876,8.876,0,0,1,.029-1.151,9.121,9.121,0,0,0-.064-1.362q-.123-1.969-.251-3.937c-.095-1.432-.186-2.864-.294-4.3q-.138-1.824-.314-3.646c-.106-1.113-.24-2.224-.355-3.337-.125-1.207-.252-2.414-.36-3.623q-.218-2.408-.408-4.818c-.141-1.777-.283-3.555-.391-5.334-.093-1.552-.138-3.108-.2-4.662,0-.062-.017-.123-.025-.184v-6.11c.009-.061.022-.122.025-.184.055-1.1.085-2.2.168-3.3.106-1.405.242-2.809.391-4.21a42.38,42.38,0,0,1,.854-5.041c.2-.868.381-1.739.565-2.61.033-.153.087-.212.266-.2.927.068,1.854.132,2.782.168a25.857,25.857,0,0,0,4.147-.14c1.392-.169,2.793-.276,4.18-.483,2.1-.314,4.188-.688,6.279-1.045.571-.1,1.138-.226,1.706-.34h.19c.14.841.514,3.1.652,3.943m6.637,97.18c.234.057.406.1.579.14.5.1.615.007.633-.5.027-.8.063-1.6.08-2.407q.079-3.5.146-7c.028-1.366.053-2.731.086-4.1.056-2.307.119-4.614.178-6.922q.062-2.456.12-4.912.094-3.869.183-7.737.076-3.442.141-6.885c.01-.541-.021-1.083-.029-1.624a1.056,1.056,0,0,1,.04-.2,2.339,2.339,0,0,0,.072-.387c.029-1.473.052-2.946.076-4.419q.06-3.718.124-7.435c.014-.777.027-1.556.085-2.331.089-1.2.182-2.405.336-3.6a30.143,30.143,0,0,1,.556-3.18,25.922,25.922,0,0,1,2.25-6.219,3.332,3.332,0,0,0,.131-.328c-.183-.012-.327-.028-.471-.031-.872-.017-1.744-.035-2.617-.042a3.553,3.553,0,0,0-.459.069.358.358,0,0,1-.178-.014c-.682-.3-1.359-.6-2.042-.895a5.415,5.415,0,0,1-2.17-1.638c-.323-.412-.618-.847-.92-1.275-.2-.282-.387-.571-.579-.858a40.126,40.126,0,0,1,.473,4.119.486.486,0,0,1-.086-.216c-.132-.834-.26-1.669-.392-2.5q-.412-2.614-.825-5.228c-.057-.354-.153-.434-.517-.422-.55.018-1.1.045-1.649.049q-5.084.039-10.169.069-4.619.028-9.239.051c-.343,0-.437.1-.437.44l0,4.44c0,.048,0,.1-.008.143a4.081,4.081,0,0,1-.064-.736c0-1.265,0-2.53,0-3.795a1.824,1.824,0,0,0-.037-.3.169.169,0,0,0-.2-.157c-.354,0-.709,0-1.062,0-.124,0-.17.049-.165.17l.4.205c-.095.035-.165.084-.193.066-.244-.15-.481-.312-.737-.482l.817-.487.057.049-.266.361c.379,0,.737.007,1.1,0a.286.286,0,0,0,.281-.281c.013-.1.006-.2.009-.3l.053-1.527a.194.194,0,0,1,.03.11c0,.544,0,1.088,0,1.631,0,.294.1.388.39.381s.607-.033.91-.034q7.21-.023,14.419-.042,2.912-.008,5.823-.02c.124,0,.247-.019.428-.033-.055-.215-.1-.4-.149-.593-.006-.023-.02-.05-.013-.07.1-.286-.042-.542-.086-.814-.124-.765-.223-1.535-.323-2.3-.09-.682-.169-1.365-.251-2.047s-.163-1.365-.244-2.048-.16-1.353-.242-2.029q-.142-1.155-.289-2.309-.138-1.079-.283-2.157c-.106-.806-.218-1.612-.322-2.418-.11-.842-.215-1.685-.322-2.528-.082-.644-.167-1.288-.251-1.932-.031-.234-.064-.467-.1-.727-.567.124-1.1.257-1.648.357q-1.876.348-3.757.669-1.443.249-2.891.47c-.359.055-.535.282-.4.618a.354.354,0,0,1-.027.348.358.358,0,0,0-.046.162c-.041.662-.078,1.325-.117,1.987q-.062,1.05-.124,2.1-.089,1.476-.179,2.952c-.04.694-.076,1.388-.121,2.082a1.2,1.2,0,0,1-.08.276l-.064,0a1.569,1.569,0,0,1-.074-.251c-.048-.388-.085-.778-.129-1.166-.1-.834-.2-1.667-.29-2.5s-.183-1.668-.276-2.5c-.109-.972-.228-1.942-.331-2.914-.055-.5-.233-.634-.715-.495-.035.01-.068.028-.113.046.142.306.28.608.421.91l-.06.036q-.141-.189-.278-.379l-.056.031q.211,1.691.423,3.383l-.06.008q-.245-1.661-.49-3.323l-.054-.006-.1.222a1.373,1.373,0,0,1,0-.38c.051-.478.079-.622-.526-.636-1.381-.032-2.764.07-4.146-.067-.848-.084-1.7-.077-2.556-.131-.372-.024-.479.163-.535.443-.166.827-.353,1.65-.508,2.479-.231,1.238-.472,2.475-.656,3.721-.157,1.066-.252,2.143-.355,3.216-.11,1.156-.229,2.314-.288,3.473-.078,1.578-.141,3.159-.141,4.738,0,1.542.08,3.083.137,4.625.025.7.075,1.4.117,2.1q.086,1.409.179,2.818c.04.63.081,1.261.127,1.891.056.794.116,1.587.175,2.381q.082,1.1.167,2.192c.056.692.116,1.384.175,2.076.055.642.108,1.283.166,1.925.069.761.143,1.521.214,2.281q.1,1.065.2,2.13c.068.691.144,1.381.212,2.072s.136,1.407.2,2.111c.073.779.15,1.558.215,2.339.063.762.115,1.524.164,2.287.064.99.12,1.98.179,2.971q.075,1.265.147,2.53a.393.393,0,0,1-.013.074,4.63,4.63,0,0,0-.091.669c0,.619.026,1.239.047,1.858.044,1.276.094,2.552.137,3.829.032.954.059,1.908.09,2.863q.069,2.1.139,4.208c.031,1,.059,2.01.089,3.015q.069,2.313.139,4.626c.041,1.371.08,2.743.127,4.114.054,1.542.12,3.083.176,4.624q.067,1.9.124,3.81.094,3.185.184,6.371c.021.733.043,1.466.077,2.2,0,.084.084.229.14.234a2.266,2.266,0,0,0,.819,0,5.553,5.553,0,0,1,.646-.073c.027,0,.08,0,.086.02.062.158.2.11.308.109q2.723-.007,5.445-.019,5.483-.024,10.966-.049c1.8-.007,3.592,0,5.389,0,.254,0,.324-.059.333-.277q.1-2.34.192-4.68c.013-.32.033-.639.051-.959-.023.562-.009,1.124-.026,1.685-.038,1.226-.09,2.451-.145,3.676a.777.777,0,0,0,.191.557Zm-16.372-99.341h-.258c-.31,0-.374.067-.374.379v2.436a.842.842,0,0,1-.039-.3c-.013-.543-.023-1.087-.04-1.63-.008-.251-.132-.33-.472-.315-.192.009-.231.053-.205.313.062.615.134,1.229.2,1.843.083.746.165,1.491.252,2.236.07.6.136,1.2.229,1.8a4.412,4.412,0,0,0,.209.624,3.1,3.1,0,0,1,.063.317.37.37,0,0,0,.064-.182q.079-1.143.152-2.286.07-1.087.139-2.174.063-1.03.125-2.061c.012-.185-.027-.342-.242-.4C5120.908-89.988,5120.954-90.13,5120.827-90.465Zm-1.461.285c.217.13.4.3.617.183.166-.09.071-.278.037-.433a.349.349,0,0,0-.081.011C5119.76-90.345,5119.58-90.269,5119.366-90.179Zm-.233-.05a2.309,2.309,0,0,0-1.114.135l1.1.079C5119.125-90.1,5119.129-90.157,5119.133-90.229Z" transform="translate(-5108.09 92.513)"/>
        <path id="Trazado_106318" data-name="Trazado 106318" d="M5107.093,3a.7.7,0,0,1-.2-.034,1.208,1.208,0,0,1-.15-.057.515.515,0,0,0-.1-.036c-.259-.018-.517-.027-.79-.036l-.323-.011-.256-.01V2.562c0-.048,0-.094,0-.139,0-.091,0-.177,0-.261q-.015-.625-.028-1.249c-.022-1.038-.046-2.112-.077-3.168-.027-.917-.061-1.85-.093-2.752-.027-.769-.055-1.565-.08-2.347-.059-1.872-.115-3.776-.17-5.617q-.042-1.42-.085-2.84-.022-.744-.043-1.487c-.038-1.277-.076-2.6-.122-3.9-.04-1.172-.086-2.364-.129-3.516-.04-1.059-.082-2.155-.119-3.233-.057-1.6-.11-3.316-.166-5.235-.019-.653-.035-1.317-.051-1.959-.033-1.309-.066-2.662-.121-3.992a9.16,9.16,0,0,1,.03-1.186,5.072,5.072,0,0,0-.032-.919c-.012-.131-.024-.267-.032-.4l-.031-.5c-.071-1.126-.145-2.29-.221-3.434l-.05-.762c-.075-1.158-.154-2.355-.243-3.531s-.194-2.4-.314-3.641c-.062-.655-.136-1.32-.207-1.963-.05-.449-.1-.914-.148-1.371l-.024-.242c-.115-1.109-.234-2.255-.336-3.385-.148-1.641-.285-3.263-.408-4.822l-.034-.436c-.127-1.606-.258-3.266-.356-4.9-.063-1.063-.105-2.144-.146-3.189-.019-.484-.038-.985-.06-1.477a.8.8,0,0,0-.013-.092c0-.022-.007-.044-.01-.066l0-.019V-81.62l0-.019c0-.022.007-.044.01-.066a.815.815,0,0,0,.013-.094c.018-.348.032-.7.048-1.046.031-.739.064-1.5.121-2.257.1-1.266.221-2.606.392-4.218a42.964,42.964,0,0,1,.859-5.073c.163-.711.317-1.439.466-2.142.033-.155.066-.309.1-.464a.467.467,0,0,1,.545-.409c.889.065,1.839.131,2.773.168a25.509,25.509,0,0,0,4.1-.139c.536-.065,1.081-.122,1.608-.177.843-.088,1.715-.179,2.564-.306,1.634-.245,3.292-.531,4.895-.807l1.379-.237c.388-.066.781-.148,1.161-.227.18-.037.358-.075.538-.111l.025-.005h.441l.037.222c.143.852.514,3.1.653,3.944l0,.021v.022c0,.041,0,.08,0,.118a1.253,1.253,0,0,0,0,.174c.161,1.359.306,2.585.46,3.839.147,1.2.3,2.385.479,3.8.072.574.147,1.147.222,1.721.095.73.193,1.485.287,2.228.12.952.238,1.92.353,2.856q.062.51.124,1.021c.018.143.033.288.049.428.029.277.061.564.107.84.166.987.343,1.991.515,2.961l.2,1.119a7.469,7.469,0,0,0,4.377,5.032,3.436,3.436,0,0,0,.341.113l-1.429-.994,1.75.583c.067.022.136.042.209.063a1.524,1.524,0,0,1,.962.589c.112.169.294.235.629.226l2.443-.065c.071,0,.14,0,.218,0h.5l-.124.354q-.044.127-.085.249c-.061.182-.118.354-.19.528-.171.415-.349.835-.521,1.241-.321.759-.654,1.543-.954,2.322a22.948,22.948,0,0,0-1.134,4.611,63.619,63.619,0,0,0-.608,9.471c-.043,3.912-.086,7.2-.159,10.55-.041,1.866-.1,3.761-.162,5.594-.039,1.219-.081,2.479-.115,3.718-.046,1.684-.085,3.4-.121,5.052q-.022,1.02-.046,2.04l-.1,4.483q-.075,3.278-.15,6.555-.057,2.436-.115,4.873l-.088,3.719-.008.324c-.038,1.64-.078,3.336-.111,5a.459.459,0,0,1-.486.5c-.2.007-.411.026-.674.06a.529.529,0,0,0-.089.031,1.18,1.18,0,0,1-.143.051.439.439,0,0,1-.348-.049.848.848,0,0,0-.5-.088h-.079l-8.231.025-1.444,0-12.407.04h-.067c-.155,0-.239,0-.307.057A.332.332,0,0,1,5107.093,3Zm.254-.989a.343.343,0,0,1,.287.135h0c.024,0,.053,0,.084,0,1.7,0,3.478-.01,5.444-.019l3.983-.018c2.288-.011,4.654-.022,6.982-.031,1.236,0,2.493,0,3.709,0h1.68l.067,0c0-.006,0-.013,0-.02l.033-.809q.079-1.936.159-3.872c.009-.221.021-.445.034-.661.006-.1.011-.2.017-.3l.531.025c-.013.3-.015.6-.016.9,0,.256,0,.521-.011.782-.04,1.291-.1,2.584-.145,3.68a.543.543,0,0,0,.021.185l.211-.12.1.025.218.054c.13.033.242.061.353.083a.806.806,0,0,0,.276.028.813.813,0,0,0,.037-.277l.026-.727c.021-.55.041-1.119.054-1.678.038-1.693.073-3.414.107-5.079q.019-.96.039-1.919l.026-1.3c.018-.918.036-1.868.06-2.8.034-1.415.071-2.853.108-4.243q.035-1.339.069-2.679c.041-1.613.082-3.266.121-4.911l.028-1.2c.052-2.143.1-4.36.153-6.539s.1-4.511.141-6.883c.007-.338,0-.685-.014-1.02-.006-.195-.012-.4-.016-.6a.747.747,0,0,1,.033-.207c0-.017.009-.033.013-.05.009-.046.019-.089.029-.131a1.051,1.051,0,0,0,.037-.21c.023-1.159.042-2.338.061-3.479l.016-.94q.016-1.041.033-2.082c.028-1.755.058-3.57.091-5.354v-.069c.014-.746.028-1.517.085-2.276.095-1.28.185-2.435.337-3.614a30.686,30.686,0,0,1,.561-3.208,25.954,25.954,0,0,1,2.256-6.247l-.092,0-.2,0c-.79-.015-1.607-.031-2.41-.038a1.131,1.131,0,0,0-.229.032c-.062.013-.127.026-.2.034a.593.593,0,0,1-.315-.034c-.3-.129-.6-.263-.892-.392-.377-.166-.766-.338-1.149-.5a5.7,5.7,0,0,1-2.274-1.719c-.262-.334-.507-.685-.744-1.024l-.111-.159c.133.945.25,1.968.3,2.991l.047.9-.527-.731a.746.746,0,0,1-.132-.33q-.1-.633-.2-1.266l-.193-1.237-.4-2.517-.428-2.71a.514.514,0,0,0-.049-.184.521.521,0,0,0-.2-.014l-.447.016c-.4.015-.8.03-1.209.033-3.025.023-6.257.045-10.169.069-2.095.013-4.224.024-6.282.035l-2.957.016a.568.568,0,0,0-.158.016.59.59,0,0,0-.015.159q0,2.22,0,4.44c0,.042,0,.081-.006.116l0,.041-.127,2.221-.4-2.189a4.319,4.319,0,0,1-.069-.783q0-1.008,0-2.017,0-.889,0-1.778a1.164,1.164,0,0,0-.021-.189c-.128,0-.258,0-.392,0l.282.145-.574.207c-.023.009-.048.02-.071.03a.356.356,0,0,1-.352.012c-.154-.094-.3-.192-.456-.294q.018.467.036.929c.015.361.029.722.042,1.083.021.543.055,1.1.088,1.631q.016.232.029.464c.059.961.12,1.919.178,2.817.036.557.079,1.217.127,1.889.051.711.1,1.435.157,2.134l.046.615c.045.6.091,1.215.139,1.822.044.542.091,1.094.137,1.628l.071.842c.043.5.087,1.019.133,1.528.059.642.12,1.3.181,1.928l.057.594c.059.619.119,1.259.181,1.888q.051.516.105,1.032t.106,1.04c.071.723.139,1.44.2,2.112q.025.278.052.555c.056.585.113,1.19.162,1.786.055.665.107,1.393.165,2.291.05.764.095,1.541.139,2.292l.04.68q.075,1.265.146,2.53a.428.428,0,0,1-.013.123l0,.007c-.011.074-.023.146-.036.216a2.292,2.292,0,0,0-.052.412c0,.546.021,1.1.04,1.641l.007.209q.034.948.068,1.9c.022.645.047,1.289.068,1.934.019.548.035,1.1.052,1.642l.038,1.221q.029.911.06,1.822.041,1.193.079,2.387c.02.623.038,1.256.056,1.868q.016.574.033,1.147.069,2.313.139,4.626.018.579.034,1.157c.029.969.059,1.971.093,2.956.029.826.062,1.666.094,2.478.027.7.056,1.431.081,2.146.042,1.167.083,2.414.125,3.812q.054,1.81.1,3.621.038,1.375.079,2.75c.02.673.042,1.435.077,2.185H5106a1.713,1.713,0,0,0,.605-.005,1.8,1.8,0,0,1,.44-.059,1.83,1.83,0,0,0,.232-.02A.374.374,0,0,1,5107.347,2.012Zm-3.093-79.031a.482.482,0,0,0,.108.006c.125,0,.254-.009.378-.016.176-.009.356-.018.537-.018l10.28-.03,4.139-.012c2.262-.006,4.112-.013,5.823-.02.03,0,.062,0,.1,0l-.074-.291v0a.34.34,0,0,1,0-.219.717.717,0,0,0-.037-.424c-.022-.083-.045-.168-.061-.261-.116-.722-.213-1.458-.306-2.169l-.019-.142c-.069-.529-.134-1.066-.2-1.586l-.056-.464q-.079-.657-.156-1.314c-.03-.245-.059-.489-.088-.734l-.065-.551c-.058-.484-.117-.985-.178-1.478-.1-.846-.2-1.6-.288-2.308s-.185-1.423-.282-2.156c-.043-.327-.088-.654-.132-.981-.063-.471-.129-.958-.191-1.438-.065-.5-.13-1.011-.192-1.5q-.064-.512-.13-1.024c-.088-.69-.176-1.363-.251-1.931-.019-.145-.039-.289-.061-.44l-.247.056c-.387.088-.752.171-1.129.241-1.132.21-2.362.429-3.761.67-1.02.176-1.967.33-2.9.471a.3.3,0,0,0-.21.1.224.224,0,0,0,.014.163.613.613,0,0,1-.047.582.165.165,0,0,0-.008.042c-.029.475-.058.958-.085,1.425l-.032.561q-.062,1.053-.125,2.1-.035.6-.072,1.2-.053.876-.105,1.752-.023.393-.045.787c-.023.425-.048.864-.076,1.3a.937.937,0,0,1-.066.264c-.01.026-.019.05-.025.072l-.053.175-.458.031-.062-.2c-.007-.023-.016-.045-.023-.067a1,1,0,0,1-.061-.229c-.027-.224-.052-.451-.075-.671-.018-.166-.035-.332-.054-.5l-.129-1.105c-.054-.457-.108-.93-.162-1.4-.049-.437-.1-.881-.145-1.31q-.064-.6-.132-1.192c-.041-.367-.084-.735-.126-1.1-.046-.393-.092-.8-.137-1.2l-.256.154.37,2.963-.58.075-.407-2.756-.121.28-.149-.884a1.669,1.669,0,0,1,0-.451l0-.031a2.061,2.061,0,0,0,.019-.28,1.1,1.1,0,0,0-.29-.031c-.49-.011-.992-.005-1.478,0a24.337,24.337,0,0,1-2.688-.068c-.5-.05-1.016-.067-1.515-.084-.338-.012-.687-.024-1.032-.045-.184-.012-.215.016-.258.23-.065.325-.135.653-.2.971-.1.493-.211,1-.306,1.5l-.088.469c-.2,1.061-.405,2.159-.566,3.241-.139.939-.23,1.905-.318,2.84l-.076.785c-.1,1-.2,2.026-.246,3.039-.064,1.3-.141,3.021-.141,4.725,0,.6.013,1.208.031,1.812l.73-.436.388.334-.1.138c.192,0,.378,0,.564-.005h.012a.131.131,0,0,0,.014-.048,1.45,1.45,0,0,0,.006-.165c0-.038,0-.076,0-.114l.041-1.167.041-1.193.458.695a.446.446,0,0,1,.074.257c0,.19,0,.38,0,.571,0,.347,0,.707,0,1.059A.485.485,0,0,0,5104.254-77.019Zm-.64-.006Zm9.571-17.348.043.384c.063.564.128,1.148.2,1.721l.03.264c.032.283.066.572.1.861.02-.277.037-.557.056-.838.022-.35.046-.711.07-1.1l-.47-1.209C5113.2-94.316,5113.193-94.345,5113.186-94.373Zm.541-2v2.6q.012-.186.023-.38.06-.952.117-1.905l.009-.155a.227.227,0,0,0-.009-.113.133.133,0,0,0-.041-.018Zm-.76.01,0,.022c.047.465.1.939.151,1.4.012.1.023.209.036.313,0-.007,0-.013,0-.019l-.008-.376c-.009-.419-.019-.853-.032-1.279a.242.242,0,0,0,0-.047A.56.56,0,0,0,5112.967-96.364Zm-.91-.072.207.45c0-.048-.011-.1-.016-.143-.027-.253-.08-.295-.085-.3A.18.18,0,0,0,5112.057-96.436Zm1.674-.492c0,.022,0,.056,0,.109v0l.065-.029a.352.352,0,0,0,.1-.059.216.216,0,0,0,0-.029h-.056A1,1,0,0,0,5113.73-96.928Z" transform="translate(-5101.355 99.247)"/>
      </g>
      <g id="Grupo_55941" data-name="Grupo 55941" transform="translate(5127.181 -88.078)">
        <path id="Trazado_106319" data-name="Trazado 106319" d="M5781.928,195.051q.283,3.024.564,6.048l-.076.007q-.287-3.025-.571-6.049Z" transform="translate(-5781.845 -195.051)"/>
      </g>
      <g id="Grupo_55942" data-name="Grupo 55942" transform="translate(5101.722 -98.85)">
        <path id="Trazado_106320" data-name="Trazado 106320" d="M5139.756,12.217l-.347.2a.777.777,0,0,1-.191-.557c.055-1.225.106-2.45.145-3.676.018-.561,0-1.123.026-1.685-.018.32-.038.639-.051.959q-.1,2.34-.192,4.68c-.009.218-.079.277-.333.277-1.8,0-3.592,0-5.389,0q-5.482.02-10.965.049-2.722.012-5.445.019c-.11,0-.246.048-.308-.109-.006-.016-.058-.025-.086-.02a5.529,5.529,0,0,0-.646.073,2.268,2.268,0,0,1-.82,0c-.055-.005-.135-.15-.139-.234-.035-.732-.057-1.466-.078-2.2q-.093-3.185-.183-6.371-.057-1.905-.125-3.81c-.055-1.542-.122-3.083-.175-4.624-.048-1.371-.086-2.743-.127-4.114q-.07-2.313-.139-4.626c-.03-1-.057-2.01-.089-3.015-.044-1.4-.093-2.806-.139-4.208-.031-.954-.057-1.909-.09-2.863-.043-1.276-.093-2.552-.137-3.829-.021-.619-.045-1.239-.047-1.858a4.564,4.564,0,0,1,.091-.669.434.434,0,0,0,.012-.074q-.073-1.265-.147-2.53c-.058-.99-.115-1.981-.179-2.971-.049-.763-.1-1.525-.164-2.287-.064-.78-.142-1.559-.214-2.339q-.1-1.056-.2-2.111c-.068-.691-.143-1.381-.211-2.072-.07-.71-.137-1.42-.2-2.13-.072-.76-.145-1.521-.213-2.281-.059-.641-.112-1.283-.167-1.925-.059-.692-.119-1.384-.175-2.076q-.086-1.1-.167-2.192c-.059-.794-.119-1.587-.176-2.381q-.067-.945-.127-1.891-.091-1.409-.178-2.818c-.043-.7-.092-1.4-.118-2.1-.056-1.541-.137-3.083-.137-4.625,0-1.58.062-3.16.141-4.738.059-1.16.178-2.317.289-3.473.1-1.074.2-2.15.355-3.216.185-1.245.425-2.483.656-3.721.155-.829.342-1.652.508-2.479.057-.28.163-.467.535-.443.852.054,1.708.047,2.556.131,1.382.137,2.765.035,4.147.067.6.014.576.158.526.636a1.373,1.373,0,0,0,0,.379l.1-.222.053.006q.245,1.661.491,3.323l.059-.008q-.211-1.691-.422-3.383l.055-.031.278.379.06-.036-.42-.91a1.218,1.218,0,0,1,.113-.046c.482-.139.661-.007.714.495.1.972.222,1.943.331,2.914.094.834.182,1.668.276,2.5s.195,1.667.291,2.5c.044.389.081.778.128,1.166a1.569,1.569,0,0,0,.074.251l.065,0a1.285,1.285,0,0,0,.081-.276c.045-.694.08-1.388.121-2.082q.087-1.476.178-2.952.063-1.05.124-2.1.058-.994.117-1.987a.365.365,0,0,1,.046-.162.354.354,0,0,0,.027-.348c-.132-.336.043-.564.4-.618q1.448-.22,2.891-.47,1.881-.324,3.758-.669c.543-.1,1.08-.233,1.647-.357.036.26.07.493.1.727q.127.966.251,1.932c.108.843.212,1.685.322,2.528.105.806.216,1.612.323,2.418q.144,1.078.282,2.157.148,1.154.289,2.309c.083.676.162,1.353.243,2.029s.161,1.365.244,2.048.161,1.365.251,2.047c.1.769.2,1.538.323,2.3.043.271.185.527.086.814-.007.02.006.047.012.07.048.189.1.377.15.593-.181.015-.3.033-.428.033q-2.911.012-5.824.02-7.208.021-14.418.042c-.3,0-.606.026-.91.034s-.389-.086-.39-.381c0-.544,0-1.088,0-1.631a.194.194,0,0,0-.03-.11l-.053,1.527c0,.1,0,.2-.009.3a.287.287,0,0,1-.282.281c-.357.01-.716,0-1.095,0l.265-.361-.057-.049-.818.487c.256.17.493.332.738.482.029.018.1-.032.194-.066l-.4-.205c0-.121.041-.172.165-.17.354.007.708.009,1.063,0a.17.17,0,0,1,.2.157,1.877,1.877,0,0,1,.037.3c0,1.265,0,2.53,0,3.795a4.039,4.039,0,0,0,.065.736c0-.048.007-.1.007-.143q0-2.22,0-4.44c0-.343.094-.438.437-.44q4.62-.025,9.239-.051,5.084-.031,10.168-.069c.55,0,1.1-.031,1.65-.049.363-.012.46.068.516.422q.412,2.614.826,5.228c.131.834.259,1.669.391,2.5a.491.491,0,0,0,.085.216,39.855,39.855,0,0,0-.472-4.119c.192.286.38.576.579.858.3.429.6.864.919,1.275a5.416,5.416,0,0,0,2.17,1.638c.683.293,1.36.6,2.042.895a.357.357,0,0,0,.177.014,3.585,3.585,0,0,1,.459-.069c.873.007,1.745.025,2.618.042.144,0,.288.019.47.031a3.339,3.339,0,0,1-.13.328,25.924,25.924,0,0,0-2.25,6.219,30.269,30.269,0,0,0-.556,3.18c-.154,1.195-.247,2.4-.336,3.6-.058.775-.071,1.554-.085,2.331-.046,2.478-.083,4.957-.125,7.435-.024,1.473-.046,2.946-.076,4.419a2.288,2.288,0,0,1-.072.387,1.02,1.02,0,0,0-.04.2c.008.541.039,1.083.029,1.624q-.061,3.442-.142,6.885-.086,3.869-.182,7.737-.059,2.456-.121,4.912-.089,3.461-.178,6.922c-.033,1.365-.057,2.731-.085,4.1q-.073,3.5-.146,7c-.018.8-.053,1.6-.08,2.407-.018.507-.136.6-.633.5C5140.162,12.321,5139.99,12.274,5139.756,12.217ZM5128.9-23.271v-5.563c.1.1.178.173.261.238.03.023.083.018.125.025,0-.038.014-.086,0-.114-.156-.243-.316-.482-.492-.746-.157.275-.3.525-.442.778-.014.026,0,.067,0,.1a.252.252,0,0,0,.1-.01c.083-.049.161-.107.246-.165v5.365l-.295-.183-.059.049.5.863.5-.845-.055-.06Zm-6.76-53.875c-.238-1.691-.47-3.327-.7-4.963l-.067.009q.314,2.477.628,4.954l-.071.023-.26-.365-.07.042a7.488,7.488,0,0,0,.563.987l.221-1.1-.067-.021Zm18.635,39.862V-48.222C5140.688-47.844,5140.691-37.554,5140.78-37.284ZM5113.593-53.9a32.074,32.074,0,0,1-.393-7.017c0-.008-.029-.018-.045-.027C5112.889-60.489,5113.25-54.3,5113.593-53.9Zm1.379,18.052-.071,0q.241,4.171.481,8.342l.069,0Q5115.212-31.674,5114.972-35.845Zm25.237,21.634-.077,0q-.144,3.571-.288,7.141l.063,0Zm-25.5-25.227.068,0-.483-6.263-.078.006Q5114.46-42.567,5114.706-39.437Zm.967,17.185c0,2.216.142,4.417.247,6.62l.063,0Q5115.828-18.944,5115.673-22.253Zm25.063-5.338h.026v-6.489h-.026ZM5116.13-10.4l.083,0q-.1-2.227-.194-4.454h-.036Zm-1.958-67.215a13.713,13.713,0,0,0-.487,3.058C5113.85-75.6,5114.01-76.608,5114.171-77.617Zm25.564,76.363h-.05q-.077,1.687-.153,3.374l.083,0Q5139.676.435,5139.735-1.254Zm1.931-55.394-.076-.015q-.249,1.228-.5,2.456l.08.016Zm-.6,3.691-.067,0q-.1,1.233-.207,2.466l.049,0ZM5113.557-72.99l-.062,0q-.081,1.191-.164,2.382l.05,0Q5113.469-71.8,5113.557-72.99Zm27,49.341.009-.006v-2.97h-.009Zm-25.2-59.361-.052-.011a3.831,3.831,0,0,0-.335,1.37C5115.108-82.117,5115.235-82.564,5115.362-83.01Zm-1.437,33.087-.066.007q.108.98.215,1.96l.038,0Q5114.019-48.942,5113.925-49.923Zm.824-30.587-.08-.017q-.149.655-.3,1.309l.064.015Q5114.593-79.856,5114.75-80.51ZM5140.275-16.4l.037,0v-1.794h-.037Zm-26.553-35.832-.088.007.137,1.42.024,0Z" transform="translate(-5111.013 88.774)" fill="#fff"/>
      </g>
      <g id="Grupo_55943" data-name="Grupo 55943" transform="translate(5112.698 -97.199)">
        <path id="Trazado_106321" data-name="Trazado 106321" d="M5401.608-45.289c.127.335.082.476-.194.6.215.061.254.218.243.4q-.062,1.03-.126,2.061-.067,1.087-.138,2.174-.073,1.143-.152,2.286a.366.366,0,0,1-.064.182,2.859,2.859,0,0,0-.064-.317,4.47,4.47,0,0,1-.208-.624c-.093-.6-.159-1.2-.229-1.8-.087-.745-.168-1.491-.252-2.236-.069-.614-.141-1.228-.2-1.843-.026-.259.013-.3.205-.313.34-.015.464.063.472.315.017.543.028,1.086.04,1.63a.865.865,0,0,0,.039.3v-2.436c0-.313.065-.378.375-.379Z" transform="translate(-5400.214 45.289)" fill="#fff"/>
      </g>
      <g id="Grupo_55944" data-name="Grupo 55944" transform="translate(5112.631 -97.164)">
        <path id="Trazado_106322" data-name="Trazado 106322" d="M5398.462-44.1c.215-.09.394-.166.573-.239a.362.362,0,0,1,.082-.011c.034.155.128.343-.037.433C5398.864-43.8,5398.68-43.973,5398.462-44.1Z" transform="translate(-5398.462 44.353)" fill="#fff"/>
      </g>
      <g id="Grupo_55945" data-name="Grupo 55945" transform="translate(5111.284 -96.97)">
        <path id="Trazado_106323" data-name="Trazado 106323" d="M5364.078-39.255c0,.072-.008.133-.013.214l-1.1-.079A2.312,2.312,0,0,1,5364.078-39.255Z" transform="translate(-5362.963 39.262)" fill="#fff"/>
      </g>
      <g id="Grupo_55946" data-name="Grupo 55946" transform="translate(5119.05 -39.506)">
        <path id="Trazado_106324" data-name="Trazado 106324" d="M5568.148,1481l.376-.269.055.061-.5.845-.5-.863.059-.049.295.183v-5.365c-.085.058-.163.116-.247.165a.249.249,0,0,1-.1.01c0-.034-.01-.074,0-.1.141-.253.285-.5.442-.778.175.264.336.5.492.746.018.028,0,.076,0,.114-.042-.008-.095,0-.125-.025-.083-.065-.158-.142-.261-.238Z" transform="translate(-5567.584 -1474.837)"/>
      </g>
      <g id="Grupo_55947" data-name="Grupo 55947" transform="translate(5112.087 -92.185)">
        <path id="Trazado_106325" data-name="Trazado 106325" d="M5384.893,91.8l.176-.436.068.021-.221,1.1a7.543,7.543,0,0,1-.562-.987l.071-.042.259.365.07-.023q-.313-2.477-.627-4.954l.067-.009C5384.423,88.468,5384.654,90.1,5384.893,91.8Z" transform="translate(-5384.126 -86.832)"/>
      </g>
      <g id="Grupo_55948" data-name="Grupo 55948" transform="translate(5131.421 -58.297)">
        <path id="Trazado_106326" data-name="Trazado 106326" d="M5893.619,990.656c-.088-.27-.092-10.559,0-10.937Z" transform="translate(-5893.552 -979.719)"/>
      </g>
      <g id="Grupo_55949" data-name="Grupo 55949" transform="translate(5103.772 -71.017)">
        <path id="Trazado_106327" data-name="Trazado 106327" d="M5165.569,651.628c-.343-.4-.7-6.592-.437-7.044.016.009.045.019.045.027A32.1,32.1,0,0,0,5165.569,651.628Z" transform="translate(-5165.039 -644.584)"/>
      </g>
      <g id="Grupo_55950" data-name="Grupo 55950" transform="translate(5105.61 -45.92)">
        <path id="Trazado_106328" data-name="Trazado 106328" d="M5213.548,1305.831q.24,4.171.479,8.342l-.069,0q-.24-4.171-.481-8.342Z" transform="translate(-5213.477 -1305.831)"/>
      </g>
      <g id="Grupo_55951" data-name="Grupo 55951" transform="translate(5130.553 -24.289)">
        <path id="Trazado_106329" data-name="Trazado 106329" d="M5871.047,1875.788q-.152,3.57-.3,7.141l-.063,0q.143-3.571.287-7.141Z" transform="translate(-5870.683 -1875.785)"/>
      </g>
      <g id="Grupo_55952" data-name="Grupo 55952" transform="translate(5104.922 -55.779)">
        <path id="Trazado_106330" data-name="Trazado 106330" d="M5195.84,1052.342q-.247-3.13-.493-6.26l.078-.006.483,6.263Z" transform="translate(-5195.347 -1046.076)"/>
      </g>
      <g id="Grupo_55953" data-name="Grupo 55953" transform="translate(5106.382 -32.328)">
        <path id="Trazado_106331" data-name="Trazado 106331" d="M5233.814,1663.963q.155,3.309.31,6.617l-.062,0C5233.957,1668.38,5233.814,1666.179,5233.814,1663.963Z" transform="translate(-5233.814 -1663.963)"/>
      </g>
      <g id="Grupo_55954" data-name="Grupo 55954" transform="translate(5131.446 -44.157)">
        <path id="Trazado_106332" data-name="Trazado 106332" d="M5894.2,1358.778v-6.491h.026v6.489Z" transform="translate(-5894.2 -1352.287)"/>
      </g>
      <g id="Grupo_55955" data-name="Grupo 55955" transform="translate(5106.692 -24.935)">
        <path id="Trazado_106333" data-name="Trazado 106333" d="M5242.127,1863.216l-.146-4.456h.036l.193,4.454Z" transform="translate(-5241.98 -1858.759)"/>
      </g>
      <g id="Grupo_55956" data-name="Grupo 55956" transform="translate(5104.38 -87.693)">
        <path id="Trazado_106334" data-name="Trazado 106334" d="M5181.573,205.19c-.161,1.009-.321,2.018-.487,3.058A13.769,13.769,0,0,1,5181.573,205.19Z" transform="translate(-5181.073 -205.19)"/>
      </g>
      <g id="Grupo_55957" data-name="Grupo 55957" transform="translate(5130.241 -11.33)">
        <path id="Trazado_106335" data-name="Trazado 106335" d="M5862.665,2217.241l-.12,3.379-.083,0q.076-1.687.153-3.374Z" transform="translate(-5862.462 -2217.241)"/>
      </g>
      <g id="Grupo_55958" data-name="Grupo 55958" transform="translate(5131.801 -66.74)">
        <path id="Trazado_106336" data-name="Trazado 106336" d="M5904.151,757.292q-.247,1.228-.494,2.456l-.08-.016.5-2.456Z" transform="translate(-5903.577 -757.277)"/>
      </g>
      <g id="Grupo_55959" data-name="Grupo 55959" transform="translate(5131.507 -63.036)">
        <path id="Trazado_106337" data-name="Trazado 106337" d="M5896.089,854.867q-.113,1.234-.224,2.467l-.049,0q.1-1.233.206-2.466Z" transform="translate(-5895.816 -854.864)"/>
      </g>
      <g id="Grupo_55960" data-name="Grupo 55960" transform="translate(5104.04 -83.07)">
        <path id="Trazado_106338" data-name="Trazado 106338" d="M5172.317,327.009q-.089,1.19-.176,2.381l-.05,0q.082-1.191.164-2.382Z" transform="translate(-5172.091 -327.005)"/>
      </g>
      <g id="Grupo_55961" data-name="Grupo 55961" transform="translate(5131.268 -36.7)">
        <path id="Trazado_106339" data-name="Trazado 106339" d="M5889.5,1551.748v-2.976h.01v2.97Z" transform="translate(-5889.5 -1548.772)"/>
      </g>
      <g id="Grupo_55962" data-name="Grupo 55962" transform="translate(5105.673 -93.096)">
        <path id="Trazado_106340" data-name="Trazado 106340" d="M5215.535,62.831c-.127.446-.254.892-.387,1.359a3.831,3.831,0,0,1,.335-1.37Z" transform="translate(-5215.137 -62.82)"/>
      </g>
      <g id="Grupo_55963" data-name="Grupo 55963" transform="translate(5104.568 -59.999)">
        <path id="Trazado_106341" data-name="Trazado 106341" d="M5186.1,934.892q.093.982.187,1.963l-.038,0q-.107-.98-.215-1.96Z" transform="translate(-5186.034 -934.892)"/>
      </g>
      <g id="Grupo_55964" data-name="Grupo 55964" transform="translate(5105.08 -90.602)">
        <path id="Trazado_106342" data-name="Trazado 106342" d="M5199.882,128.551q-.157.654-.314,1.307l-.064-.015q.149-.655.3-1.309Z" transform="translate(-5199.504 -128.534)"/>
      </g>
      <g id="Grupo_55965" data-name="Grupo 55965" transform="translate(5130.984 -28.265)">
        <path id="Trazado_106343" data-name="Trazado 106343" d="M5882.041,1772.814v-1.793h.037v1.794Z" transform="translate(-5882.041 -1771.021)"/>
      </g>
      <g id="Grupo_55966" data-name="Grupo 55966" transform="translate(5104.343 -62.305)">
        <path id="Trazado_106344" data-name="Trazado 106344" d="M5180.183,874.124l.073,1.425-.024,0-.137-1.42Z" transform="translate(-5180.095 -874.124)"/>
      </g>
    </g>
    <line id="Lnea_183" data-name="Lnea 183" x2="14.914" transform="translate(488.317 154.041) rotate(-90)" fill="none" stroke="#8c757e" stroke-width="1"/>
    <line id="Lnea_184" data-name="Lnea 184" x2="14.914" transform="translate(585.757 154.041) rotate(-90)" fill="none" stroke="#8c757e" stroke-width="1"/>
    <line id="Lnea_185" data-name="Lnea 185" y2="93.463" transform="translate(490.306 146.583) rotate(-90)" fill="none" stroke="#8c757e" stroke-width="1"/>
  </g>
</svg>
