<svg xmlns="http://www.w3.org/2000/svg" width="123.105" height="142.573" viewBox="0 0 123.105 142.573">
  <g id="Grupo_55938" data-name="Grupo 55938" transform="translate(180.065 -463.794) rotate(90)">
    <path id="Trazado_106301" data-name="Trazado 106301" d="M471.866,180.065c32.95-3.652,103.88-1.058,133.152-5.872,5.8-41.574-8.641-86.648-13.673-115.979-47.411-1.006-60.91-3.962-127.55,5.3C469.793,94.513,467.03,150.8,471.866,180.065Z" transform="translate(0)" fill="#fff" fill-rule="evenodd"/>
    <path id="Trazado_106302" data-name="Trazado 106302" d="M474.726,179.052c9.033-.919,18.259-1.268,27.314-1.55,11.822-.368,23.656-.527,35.483-.713,12.86-.2,25.737-.4,38.588-.925,5.528-.227,11.059-.516,16.573-.958,3.961-.317,7.955-.706,11.892-1.3a153.573,153.573,0,0,0,1.072-23.84c-.462-16.384-3.058-32.693-6.289-48.737-1.486-7.377-3.119-14.72-4.723-22.071-1.289-5.908-2.577-11.84-3.64-17.8-14.522-.335-29.058-1.033-43.574-1.191-11.254-.122-22.387.225-33.613,1.054-15.541,1.148-31.078,3.053-46.517,5.18A228.687,228.687,0,0,1,470,90.6c.691,10.2,1.044,20.424,1.364,30.638.34,10.863.611,21.737,1.158,32.591C472.94,162.165,473.472,170.767,474.726,179.052Z" transform="translate(-1.26 -1.075)" fill="#ffdb59" fill-rule="evenodd" opacity="0.58"/>
    <path id="Trazado_106303" data-name="Trazado 106303" d="M473.132,164.138a126.569,126.569,0,0,0,25.491,2.568c49.011,0,90.077-27.648,100.909-64.809l-.173-.868c-1.486-7.377-3.119-14.72-4.723-22.071-1.289-5.908-2.577-11.84-3.64-17.8-14.522-.335-29.058-1.033-43.574-1.191-11.254-.122-22.387.225-33.613,1.054-15.541,1.148-31.078,3.053-46.517,5.18A228.687,228.687,0,0,1,470,90.6c.691,10.2,1.044,20.424,1.364,30.638.34,10.863.611,21.737,1.158,32.591C472.691,157.235,472.882,160.684,473.132,164.138Z" transform="translate(-1.26 -1.075)" fill="#ffe586" fill-rule="evenodd" opacity="0.46"/>
    <path id="Trazado_106304" data-name="Trazado 106304" d="M478.555,178.72l.573-.049v-3.59h4.694v3.24l.572-.037v-3.2h4.7v2.934l.572-.028v-2.906h4.695v2.7l.572-.022v-2.675h4.7v2.507l.572-.019v-2.488h4.695v2.344l.572-.016v-2.328h4.695v2.2l.572-.013v-2.191h4.695v2.087l.573-.012v-2.075h4.695v1.985l.572-.01v-1.975h4.694v1.894l.572-.01v-1.884h4.695v1.81l.573-.008v-1.8h4.682v1.729l.585-.009v-1.72h4.682v1.646l.573-.009v-1.637h4.695v1.56l.572-.01v-1.55h4.695v1.466l.572-.011v-1.455h4.695v1.358l.573-.013v-1.346h4.694v1.232l.573-.015v-1.217h4.695v1.081l.572-.018v-1.063h4.695v.9l.573-.022v-.88h4.695v.688l.572-.025v-.663h4.694v.429l.572-.032v-.4h4.695v.107l.573-.039v-.068h.95q1.14-.083,2.279-.174.731-.059,1.464-.121h.012l.07-.006.07-.006.07-.006.07-.006.07-.006.07-.006.07-.006.069-.006q1.232-.106,2.467-.228h-2.467v-4.695h4.695v4.462l.573-.065v-4.4h4.694v2.94q.178-1.468.324-2.94V169.8l.008-.09v-.006l.034-.352.009-.089,0-.025q.1-1.108.192-2.216v-2.478h.174l.034-.572h-.208v-4.695h.406l.015-.572h-.421v-4.7h.465l0-.572h-.461v-4.695h.363l-.02-.572h-.343v-4.695h.115l-.035-.573h-.08V141.7q-.119-1.743-.267-3.483l0-.024-.009-.107-.009-.106-.009-.106-.009-.106-.01-.106,0-.018q-.119-1.371-.255-2.742v2.742h-4.694v-4.695h4.493l-.062-.572h-4.431v-4.695h3.873l-.074-.572h-3.8v-4.695H603.4l-.084-.573h-3.065v-4.684h2.336l-.094-.572h-2.241v-4.7h1.437l-.1-.572h-1.335v-4.695h.467l-.109-.572h-.358V104.2q-.278-1.423-.564-2.842v0l-.009-.045-.056-.281-.05-.245h-4.588V96.091h3.622l-.12-.573h-3.5V90.824h2.5l-.123-.572h-2.379V85.557h1.358l-.125-.572h-1.233V80.291h.206l-.125-.573h-.081v-.371l-.084-.388-.488-2.239v3h-4.694V75.023h4.327l-.124-.572h-4.2V69.757h3.211l-.118-.573h-3.092V64.49h2.158l-.109-.572h-2.049V61.125l-.573-.015v2.808H584.45V60.981l-.572-.017v2.953h-4.694v-3.1l-.572-.019v3.117h-4.695V60.646l-.573-.019v3.291H568.65V60.473l-.572-.019v3.463h-4.695V60.31l-.573-.017v3.625h-4.694V60.164l-.573-.014v3.767h-4.695v-3.87l-.572-.011v3.881h-4.695V59.969l-.572-.006v3.954h-4.695v-3.97l-.573,0v3.968h-4.682V60l-.585.01v3.913H531.8V60.112l-.573.017v3.788h-4.695V60.3l-.572.025v3.592h-4.694V60.558l-.572.033v3.327h-4.695v-3.03l-.573.04v2.991h-4.695V61.283l-.572.046v2.588h-4.695V61.735l-.572.052v2.13h-4.695v-1.68l-.572.058v1.623h-4.7V62.786l-.572.062v1.07h-4.695v-.542l-.572.067v.475h-4l-.7.085-.023,0-.072.009-.072.009-.072.009-.072.009-.072.008-.072.009-.072.009-.045.006q-1.669.2-3.34.417h3.34v4.695h-4.694V64.662l-.573.074v4.448h-4.694V65.35l-.573.076v3.758h-4.695V66.062l-.572.079v2.851l.03.193.008.053.01.061.01.061.01.062.01.061.01.061.009.061.01.062.01.061,0,.027q.242,1.589.454,3.186V69.757h4.695v4.695h-4.5l.07.572h4.43v4.695h-3.914l.056.573h3.858v4.695h-3.441l.046.572h3.4v4.695h-3.051l.024.35.015.222h3.012v4.695H470.57l.033.573h2.686v4.694h-2.438l.028.573h2.41v4.695h-2.2l.024.572h2.176v4.695h-1.994l.021.572h1.973v4.7h-1.812l.019.572h1.793v4.684h-1.644l.018.573h1.626v4.695H471.8l.017.572h1.467v4.695h-1.325l.017.572h1.308v4.695H472.13l.019.573h1.14v4.694h-.975l.021.573h.954v4.695h-.767l.025.572h.742v4.695h-.525l.019.389.009.183h.5v4.7h-.244l.034.572h.211v3.335q.045.68.094,1.36l.007.088.008.112.008.111.008.111.008.111,0,.038q.174,2.349.389,4.695l.005.054.042.445v0l.006.076h4.688v4.695h-4.182l.07.572h4.112v3.638Zm.573-4.21v-4.695h4.694v4.695Zm0-5.267v-4.695h4.694v4.695Zm0-5.267v-4.695h4.694v4.695Zm0-5.267v-4.7h4.694v4.7Zm0-5.267v-4.695h4.694v4.695Zm0-5.267v-4.695h4.694v4.695Zm0-5.267v-4.694h4.694v4.694Zm0-5.267v-4.695h4.694v4.695Zm0-5.267v-4.695h4.694v4.695Zm0-5.267v-4.695h4.694v4.695Zm0-5.267v-4.684h4.694v4.684Zm0-5.256v-4.7h4.694v4.7Zm0-5.267v-4.695h4.694v4.695Zm0-5.267v-4.695h4.694v4.695Zm0-5.267V96.091h4.694v4.694Zm0-5.267V90.824h4.694v4.695Zm0-5.267V85.557h4.694v4.695Zm0-5.267V80.291h4.694v4.695Zm0-5.267V75.023h4.694v4.695Zm0-5.267V69.757h4.694v4.695Zm-.573-4.695v4.695h-4.694V69.757Zm0,5.267v4.695h-4.694V75.023Zm0,5.267v4.695h-4.694V80.291Zm0,5.267v4.695h-4.694V85.557Zm0,5.267v4.695h-4.694V90.824Zm0,5.267v4.694h-4.694V96.091Zm0,5.267v4.695h-4.694v-4.695Zm0,5.267v4.695h-4.694v-4.695Zm0,5.267v4.7h-4.694v-4.7Zm0,5.267v4.684h-4.694v-4.684Zm0,5.256v4.695h-4.694v-4.695Zm0,5.267v4.695h-4.694v-4.695Zm0,5.267v4.695h-4.694v-4.695Zm0,5.267v4.694h-4.694v-4.694Zm0,5.267v4.695h-4.694v-4.695Zm0,5.267v4.695h-4.694v-4.695Zm0,5.267v4.7h-4.694v-4.7Zm0,5.267v4.695h-4.694v-4.695Zm0,5.267v4.695h-4.694v-4.695Zm121.123-47.39v4.684h-4.695v-4.684Zm-5.267,0v4.684h-4.694v-4.684Zm-5.266,0v4.684H584.45v-4.684Zm-5.267,0v4.684h-4.694v-4.684Zm-5.267,0v4.684h-4.695v-4.684Zm-5.267,0v4.684H568.65v-4.684Zm-5.267,0v4.684h-4.695v-4.684Zm-5.267,0v4.684h-4.694v-4.684Zm-5.266,0v4.684h-4.695v-4.684Zm-5.267,0v4.684h-4.695v-4.684Zm-5.267,0v4.684h-4.695v-4.684Zm-5.267,0v4.684h-4.682v-4.684Zm-5.267,0v4.684H531.8v-4.684Zm-5.254,0v4.684h-4.695v-4.684Zm-5.267,0v4.684h-4.694v-4.684Zm-5.267,0v4.684h-4.695v-4.684Zm-5.267,0v4.684h-4.695v-4.684Zm-5.267,0v4.684h-4.695v-4.684Zm-5.267,0v4.684h-4.695v-4.684Zm-5.267,0v4.684h-4.7v-4.684Zm-5.267,0v4.684h-4.695v-4.684Zm-5.267,0v4.684h-4.7v-4.684Zm-4.7-.572v-4.7h4.7v4.7Zm5.267,0v-4.7h4.695v4.7Zm5.267,0v-4.7h4.7v4.7Zm5.267,0v-4.7h4.695v4.7Zm5.267,0v-4.7h4.695v4.7Zm5.266,0v-4.7h4.695v4.7Zm5.267,0v-4.7h4.695v4.7Zm5.267,0v-4.7h4.694v4.7Zm5.266,0v-4.7h4.695v4.7Zm5.267,0v-4.7h4.682v4.7Zm5.267,0v-4.7h4.682v4.7Zm5.254,0v-4.7h4.695v4.7Zm5.267,0v-4.7h4.695v4.7Zm5.266,0v-4.7h4.695v4.7Zm5.267,0v-4.7h4.694v4.7Zm5.267,0v-4.7h4.695v4.7Zm5.266,0v-4.7h4.695v4.7Zm5.267,0v-4.7h4.695v4.7Zm5.267,0v-4.7h4.694v4.7Zm5.266,0v-4.7h4.695v4.7Zm5.267,0v-4.7h4.694v4.7Zm5.267,0v-4.7h4.695v4.7Zm-.573,57.924h-4.694v-4.695h4.694v4.695Zm-5.266,0H584.45v-4.695h4.695v4.695Zm-5.267,0h-4.694v-4.695h4.694v4.695Zm-5.267,0h-4.695v-4.695h4.695v4.695Zm-5.267,0H568.65v-4.695h4.695v4.695Zm-5.267,0h-4.695v-4.695h4.695v4.695Zm-5.267,0h-4.694v-4.695h4.694v4.695Zm-5.266,0h-4.695v-4.695h4.695v4.695Zm-5.267,0h-4.695v-4.695h4.695v4.695Zm-5.267,0h-4.695v-4.695h4.695v4.695Zm-5.267,0h-4.682v-4.695h4.682v4.695Zm-5.267,0H531.8v-4.695h4.682v4.695Zm-5.254,0h-4.695v-4.695h4.695v4.695Zm-5.267,0h-4.694v-4.695h4.694v4.695Zm-5.267,0h-4.695v-4.695h4.695v4.695Zm-5.267,0h-4.695v-4.695h4.695v4.695Zm-5.267,0h-4.695v-4.695h4.695v4.695Zm-5.267,0h-4.695v-4.695h4.695v4.695Zm-5.267,0h-4.7v-4.695h4.7v4.695Zm-5.267,0h-4.695v-4.695h4.695v4.695Zm-5.267,0h-4.7v-4.695h4.7v4.695Zm115.856-5.267h-4.694v-4.695h4.694v4.695Zm-5.267,0h-4.695v-4.695h4.695v4.695Zm-5.267,0h-4.694v-4.695h4.694v4.695Zm-5.266,0H584.45v-4.695h4.695v4.695Zm-5.267,0h-4.694v-4.695h4.694v4.695Zm-5.267,0h-4.695v-4.695h4.695v4.695Zm-5.267,0H568.65v-4.695h4.695v4.695Zm-5.267,0h-4.695v-4.695h4.695v4.695Zm-5.267,0h-4.694v-4.695h4.694v4.695Zm-5.266,0h-4.695v-4.695h4.695v4.695Zm-5.267,0h-4.695v-4.695h4.695v4.695Zm-5.267,0h-4.695v-4.695h4.695v4.695Zm-5.267,0h-4.682v-4.695h4.682v4.695Zm-5.267,0H531.8v-4.695h4.682v4.695Zm-5.254,0h-4.695v-4.695h4.695v4.695Zm-5.267,0h-4.694v-4.695h4.694v4.695Zm-5.267,0h-4.695v-4.695h4.695v4.695Zm-5.267,0h-4.695v-4.695h4.695v4.695Zm-5.267,0h-4.695v-4.695h4.695v4.695Zm-5.267,0h-4.695v-4.695h4.695v4.695Zm-5.267,0h-4.7v-4.695h4.7v4.695Zm-5.267,0h-4.695v-4.695h4.695v4.695Zm-5.267,0h-4.7v-4.695h4.7v4.695Zm115.856-5.267h-4.694v-4.695h4.694v4.695Zm-5.267,0h-4.695v-4.695h4.695v4.695Zm-5.267,0h-4.694v-4.695h4.694v4.695Zm-5.266,0H584.45v-4.695h4.695v4.695Zm-5.267,0h-4.694v-4.695h4.694v4.695Zm-5.267,0h-4.695v-4.695h4.695v4.695Zm-5.267,0H568.65v-4.695h4.695v4.695Zm-5.267,0h-4.695v-4.695h4.695v4.695Zm-5.267,0h-4.694v-4.695h4.694v4.695Zm-5.266,0h-4.695v-4.695h4.695v4.695Zm-5.267,0h-4.695v-4.695h4.695v4.695Zm-5.267,0h-4.695v-4.695h4.695v4.695Zm-5.267,0h-4.682v-4.695h4.682v4.695Zm-5.267,0H531.8v-4.695h4.682v4.695Zm-5.254,0h-4.695v-4.695h4.695v4.695Zm-5.267,0h-4.694v-4.695h4.694v4.695Zm-5.267,0h-4.695v-4.695h4.695v4.695Zm-5.267,0h-4.695v-4.695h4.695v4.695Zm-5.267,0h-4.695v-4.695h4.695v4.695Zm-5.267,0h-4.695v-4.695h4.695v4.695Zm-5.267,0h-4.7v-4.695h4.7v4.695Zm-5.267,0h-4.695v-4.695h4.695v4.695Zm-5.267,0h-4.7v-4.695h4.7v4.695Zm115.856-5.267h-4.694v-4.7h4.694v4.7Zm-5.267,0h-4.695v-4.7h4.695v4.7Zm-5.267,0h-4.694v-4.7h4.694v4.7Zm-5.266,0H584.45v-4.7h4.695v4.7Zm-5.267,0h-4.694v-4.7h4.694v4.7Zm-5.267,0h-4.695v-4.7h4.695v4.7Zm-5.267,0H568.65v-4.7h4.695v4.7Zm-5.267,0h-4.695v-4.7h4.695v4.7Zm-5.267,0h-4.694v-4.7h4.694v4.7Zm-5.266,0h-4.695v-4.7h4.695v4.7Zm-5.267,0h-4.695v-4.7h4.695v4.7Zm-5.267,0h-4.695v-4.7h4.695v4.7Zm-5.267,0h-4.682v-4.7h4.682v4.7Zm-5.267,0H531.8v-4.7h4.682v4.7Zm-5.254,0h-4.695v-4.7h4.695v4.7Zm-5.267,0h-4.694v-4.7h4.694v4.7Zm-5.267,0h-4.695v-4.7h4.695v4.7Zm-5.267,0h-4.695v-4.7h4.695v4.7Zm-5.267,0h-4.695v-4.7h4.695v4.7Zm-5.267,0h-4.695v-4.7h4.695v4.7Zm-5.267,0h-4.7v-4.7h4.7v4.7Zm-5.267,0h-4.695v-4.7h4.695v4.7Zm-5.267,0h-4.7v-4.7h4.7v4.7Zm115.856-5.267h-4.694v-4.695h4.694v4.695Zm-5.267,0h-4.695v-4.695h4.695v4.695Zm-5.267,0h-4.694v-4.695h4.694v4.695Zm-5.266,0H584.45v-4.695h4.695v4.695Zm-5.267,0h-4.694v-4.695h4.694v4.695Zm-5.267,0h-4.695v-4.695h4.695v4.695Zm-5.267,0H568.65v-4.695h4.695v4.695Zm-5.267,0h-4.695v-4.695h4.695v4.695Zm-5.267,0h-4.694v-4.695h4.694v4.695Zm-5.266,0h-4.695v-4.695h4.695v4.695Zm-5.267,0h-4.695v-4.695h4.695v4.695Zm-5.267,0h-4.695v-4.695h4.695v4.695Zm-5.267,0h-4.682v-4.695h4.682v4.695Zm-5.267,0H531.8v-4.695h4.682v4.695Zm-5.254,0h-4.695v-4.695h4.695v4.695Zm-5.267,0h-4.694v-4.695h4.694v4.695Zm-5.267,0h-4.695v-4.695h4.695v4.695Zm-5.267,0h-4.695v-4.695h4.695v4.695Zm-5.267,0h-4.695v-4.695h4.695v4.695Zm-5.267,0h-4.695v-4.695h4.695v4.695Zm-5.267,0h-4.7v-4.695h4.7v4.695Zm-5.267,0h-4.695v-4.695h4.695v4.695Zm-5.267,0h-4.7v-4.695h4.7v4.695Zm115.856-5.267h-4.694v-4.695h4.694v4.695Zm-5.267,0h-4.695v-4.695h4.695v4.695Zm-5.267,0h-4.694v-4.695h4.694v4.695Zm-5.266,0H584.45v-4.695h4.695v4.695Zm-5.267,0h-4.694v-4.695h4.694v4.695Zm-5.267,0h-4.695v-4.695h4.695v4.695Zm-5.267,0H568.65v-4.695h4.695v4.695Zm-5.267,0h-4.695v-4.695h4.695v4.695Zm-5.267,0h-4.694v-4.695h4.694v4.695Zm-5.266,0h-4.695v-4.695h4.695v4.695Zm-5.267,0h-4.695v-4.695h4.695v4.695Zm-5.267,0h-4.695v-4.695h4.695v4.695Zm-5.267,0h-4.682v-4.695h4.682v4.695Zm-5.267,0H531.8v-4.695h4.682v4.695Zm-5.254,0h-4.695v-4.695h4.695v4.695Zm-5.267,0h-4.694v-4.695h4.694v4.695Zm-5.267,0h-4.695v-4.695h4.695v4.695Zm-5.267,0h-4.695v-4.695h4.695v4.695Zm-5.267,0h-4.695v-4.695h4.695v4.695Zm-5.267,0h-4.695v-4.695h4.695v4.695Zm-5.267,0h-4.7v-4.695h4.7v4.695Zm-5.267,0h-4.695v-4.695h4.695v4.695Zm-5.267,0h-4.7v-4.695h4.7v4.695Zm115.856-5.267h-4.694v-4.694h4.694v4.694Zm-5.267,0h-4.695v-4.694h4.695v4.694Zm-5.267,0h-4.694v-4.694h4.694v4.694Zm-5.266,0H584.45v-4.694h4.695v4.694Zm-5.267,0h-4.694v-4.694h4.694v4.694Zm-5.267,0h-4.695v-4.694h4.695v4.694Zm-5.267,0H568.65v-4.694h4.695v4.694Zm-5.267,0h-4.695v-4.694h4.695v4.694Zm-5.267,0h-4.694v-4.694h4.694v4.694Zm-5.266,0h-4.695v-4.694h4.695v4.694Zm-5.267,0h-4.695v-4.694h4.695v4.694Zm-5.267,0h-4.695v-4.694h4.695v4.694Zm-5.267,0h-4.682v-4.694h4.682v4.694Zm-5.267,0H531.8v-4.694h4.682v4.694Zm-5.254,0h-4.695v-4.694h4.695v4.694Zm-5.267,0h-4.694v-4.694h4.694v4.694Zm-5.267,0h-4.695v-4.694h4.695v4.694Zm-5.267,0h-4.695v-4.694h4.695v4.694Zm-5.267,0h-4.695v-4.694h4.695v4.694Zm-5.267,0h-4.695v-4.694h4.695v4.694Zm-5.267,0h-4.7v-4.694h4.7v4.694Zm-5.267,0h-4.695v-4.694h4.695v4.694Zm-5.267,0h-4.7v-4.694h4.7v4.694Zm110.589-5.267h-4.695v-4.695h4.695v4.695Zm-5.267,0h-4.694v-4.695h4.694v4.695Zm-5.266,0H584.45v-4.695h4.695v4.695Zm-5.267,0h-4.694v-4.695h4.694v4.695Zm-5.267,0h-4.695v-4.695h4.695v4.695Zm-5.267,0H568.65v-4.695h4.695v4.695Zm-5.267,0h-4.695v-4.695h4.695v4.695Zm-5.267,0h-4.694v-4.695h4.694v4.695Zm-5.266,0h-4.695v-4.695h4.695v4.695Zm-5.267,0h-4.695v-4.695h4.695v4.695Zm-5.267,0h-4.695v-4.695h4.695v4.695Zm-5.267,0h-4.682v-4.695h4.682v4.695Zm-5.267,0H531.8v-4.695h4.682v4.695Zm-5.254,0h-4.695v-4.695h4.695v4.695Zm-5.267,0h-4.694v-4.695h4.694v4.695Zm-5.267,0h-4.695v-4.695h4.695v4.695Zm-5.267,0h-4.695v-4.695h4.695v4.695Zm-5.267,0h-4.695v-4.695h4.695v4.695Zm-5.267,0h-4.695v-4.695h4.695v4.695Zm-5.267,0h-4.7v-4.695h4.7v4.695Zm-5.267,0h-4.695v-4.695h4.695v4.695Zm-5.267,0h-4.7v-4.695h4.7v4.695Zm110.589-5.267h-4.695v-4.695h4.695v4.695Zm-5.267,0h-4.694v-4.695h4.694v4.695Zm-5.266,0H584.45v-4.695h4.695v4.695Zm-5.267,0h-4.694v-4.695h4.694v4.695Zm-5.267,0h-4.695v-4.695h4.695v4.695Zm-5.267,0H568.65v-4.695h4.695v4.695Zm-5.267,0h-4.695v-4.695h4.695v4.695Zm-5.267,0h-4.694v-4.695h4.694v4.695Zm-5.266,0h-4.695v-4.695h4.695v4.695Zm-5.267,0h-4.695v-4.695h4.695v4.695Zm-5.267,0h-4.695v-4.695h4.695v4.695Zm-5.267,0h-4.682v-4.695h4.682v4.695Zm-5.267,0H531.8v-4.695h4.682v4.695Zm-5.254,0h-4.695v-4.695h4.695v4.695Zm-5.267,0h-4.694v-4.695h4.694v4.695Zm-5.267,0h-4.695v-4.695h4.695v4.695Zm-5.267,0h-4.695v-4.695h4.695v4.695Zm-5.267,0h-4.695v-4.695h4.695v4.695Zm-5.267,0h-4.695v-4.695h4.695v4.695Zm-5.267,0h-4.7v-4.695h4.7v4.695Zm-5.267,0h-4.695v-4.695h4.695v4.695Zm-5.267,0h-4.7v-4.695h4.7v4.695Zm110.589-5.267h-4.695v-4.695h4.695v4.695Zm-5.267,0h-4.694v-4.695h4.694v4.695Zm-5.266,0H584.45v-4.695h4.695v4.695Zm-5.267,0h-4.694v-4.695h4.694v4.695Zm-5.267,0h-4.695v-4.695h4.695v4.695Zm-5.267,0H568.65v-4.695h4.695v4.695Zm-5.267,0h-4.695v-4.695h4.695v4.695Zm-5.267,0h-4.694v-4.695h4.694v4.695Zm-5.266,0h-4.695v-4.695h4.695v4.695Zm-5.267,0h-4.695v-4.695h4.695v4.695Zm-5.267,0h-4.695v-4.695h4.695v4.695Zm-5.267,0h-4.682v-4.695h4.682v4.695Zm-5.267,0H531.8v-4.695h4.682v4.695Zm-5.254,0h-4.695v-4.695h4.695v4.695Zm-5.267,0h-4.694v-4.695h4.694v4.695Zm-5.267,0h-4.695v-4.695h4.695v4.695Zm-5.267,0h-4.695v-4.695h4.695v4.695Zm-5.267,0h-4.695v-4.695h4.695v4.695Zm-5.267,0h-4.695v-4.695h4.695v4.695Zm-5.267,0h-4.7v-4.695h4.7v4.695Zm-5.267,0h-4.695v-4.695h4.695v4.695Zm-5.267,0h-4.7v-4.695h4.7v4.695Zm110.589-15.79h-4.695v-4.695h4.695v4.695Zm-5.267,0h-4.694v-4.695h4.694v4.695Zm-5.266,0H584.45v-4.695h4.695v4.695Zm-5.267,0h-4.694v-4.695h4.694v4.695Zm-5.267,0h-4.695v-4.695h4.695v4.695Zm-5.267,0H568.65v-4.695h4.695v4.695Zm-5.267,0h-4.695v-4.695h4.695v4.695Zm-5.267,0h-4.694v-4.695h4.694v4.695Zm-5.266,0h-4.695v-4.695h4.695v4.695Zm-5.267,0h-4.695v-4.695h4.695v4.695Zm-5.267,0h-4.695v-4.695h4.695v4.695Zm-5.267,0h-4.682v-4.695h4.682v4.695Zm-5.267,0H531.8v-4.695h4.682v4.695Zm-5.254,0h-4.695v-4.695h4.695v4.695Zm-5.267,0h-4.694v-4.695h4.694v4.695Zm-5.267,0h-4.695v-4.695h4.695v4.695Zm-5.267,0h-4.695v-4.695h4.695v4.695Zm-5.267,0h-4.695v-4.695h4.695v4.695Zm-5.267,0h-4.695v-4.695h4.695v4.695Zm-5.267,0h-4.7v-4.695h4.7v4.695Zm-5.267,0h-4.695v-4.695h4.695v4.695Zm-5.267,0h-4.7v-4.695h4.7v4.695Zm110.589-5.267h-4.695v-4.695h4.695v4.695Zm-5.267,0h-4.694v-4.695h4.694v4.695Zm-5.266,0H584.45v-4.695h4.695v4.695Zm-5.267,0h-4.694v-4.695h4.694v4.695Zm-5.267,0h-4.695v-4.695h4.695v4.695Zm-5.267,0H568.65v-4.695h4.695v4.695Zm-5.267,0h-4.695v-4.695h4.695v4.695Zm-5.267,0h-4.694v-4.695h4.694v4.695Zm-5.266,0h-4.695v-4.695h4.695v4.695Zm-5.267,0h-4.695v-4.695h4.695v4.695Zm-5.267,0h-4.695v-4.695h4.695v4.695Zm-5.267,0h-4.682v-4.695h4.682v4.695Zm-5.267,0H531.8v-4.695h4.682v4.695Zm-5.254,0h-4.695v-4.695h4.695v4.695Zm-5.267,0h-4.694v-4.695h4.694v4.695Zm-5.267,0h-4.695v-4.695h4.695v4.695Zm-5.267,0h-4.695v-4.695h4.695v4.695Zm-5.267,0h-4.695v-4.695h4.695v4.695Zm-5.267,0h-4.695v-4.695h4.695v4.695Zm-5.267,0h-4.7v-4.695h4.7v4.695Zm-5.267,0h-4.695v-4.695h4.695v4.695Zm-5.267,0h-4.7v-4.695h4.7v4.695Zm105.322-5.267h-4.694V96.091h4.694v4.694Zm-5.266,0H584.45V96.091h4.695v4.694Zm-5.267,0h-4.694V96.091h4.694v4.694Zm-5.267,0h-4.695V96.091h4.695v4.694Zm-5.267,0H568.65V96.091h4.695v4.694Zm-5.267,0h-4.695V96.091h4.695v4.694Zm-5.267,0h-4.694V96.091h4.694v4.694Zm-5.266,0h-4.695V96.091h4.695v4.694Zm-5.267,0h-4.695V96.091h4.695v4.694Zm-5.267,0h-4.695V96.091h4.695v4.694Zm-5.267,0h-4.682V96.091h4.682v4.694Zm-5.267,0H531.8V96.091h4.682v4.694Zm-5.254,0h-4.695V96.091h4.695v4.694Zm-5.267,0h-4.694V96.091h4.694v4.694Zm-5.267,0h-4.695V96.091h4.695v4.694Zm-5.267,0h-4.695V96.091h4.695v4.694Zm-5.267,0h-4.695V96.091h4.695v4.694Zm-5.267,0h-4.695V96.091h4.695v4.694Zm-5.267,0h-4.7V96.091h4.7v4.694Zm-5.267,0h-4.695V96.091h4.695v4.694Zm-5.267,0h-4.7V96.091h4.7v4.694Zm105.322-5.267h-4.694V90.824h4.694v4.695Zm-5.266,0H584.45V90.824h4.695v4.695Zm-5.267,0h-4.694V90.824h4.694v4.695Zm-5.267,0h-4.695V90.824h4.695v4.695Zm-5.267,0H568.65V90.824h4.695v4.695Zm-5.267,0h-4.695V90.824h4.695v4.695Zm-5.267,0h-4.694V90.824h4.694v4.695Zm-5.266,0h-4.695V90.824h4.695v4.695Zm-5.267,0h-4.695V90.824h4.695v4.695Zm-5.267,0h-4.695V90.824h4.695v4.695Zm-5.267,0h-4.682V90.824h4.682v4.695Zm-5.267,0H531.8V90.824h4.682v4.695Zm-5.254,0h-4.695V90.824h4.695v4.695Zm-5.267,0h-4.694V90.824h4.694v4.695Zm-5.267,0h-4.695V90.824h4.695v4.695Zm-5.267,0h-4.695V90.824h4.695v4.695Zm-5.267,0h-4.695V90.824h4.695v4.695Zm-5.267,0h-4.695V90.824h4.695v4.695Zm-5.267,0h-4.7V90.824h4.7v4.695Zm-5.267,0h-4.695V90.824h4.695v4.695Zm-5.267,0h-4.7V90.824h4.7v4.695Zm105.322-5.267h-4.694V85.557h4.694v4.695Zm-5.266,0H584.45V85.557h4.695v4.695Zm-5.267,0h-4.694V85.557h4.694v4.695Zm-5.267,0h-4.695V85.557h4.695v4.695Zm-5.267,0H568.65V85.557h4.695v4.695Zm-5.267,0h-4.695V85.557h4.695v4.695Zm-5.267,0h-4.694V85.557h4.694v4.695Zm-5.266,0h-4.695V85.557h4.695v4.695Zm-5.267,0h-4.695V85.557h4.695v4.695Zm-5.267,0h-4.695V85.557h4.695v4.695Zm-5.267,0h-4.682V85.557h4.682v4.695Zm-5.267,0H531.8V85.557h4.682v4.695Zm-5.254,0h-4.695V85.557h4.695v4.695Zm-5.267,0h-4.694V85.557h4.694v4.695Zm-5.267,0h-4.695V85.557h4.695v4.695Zm-5.267,0h-4.695V85.557h4.695v4.695Zm-5.267,0h-4.695V85.557h4.695v4.695Zm-5.267,0h-4.695V85.557h4.695v4.695Zm-5.267,0h-4.7V85.557h4.7v4.695Zm-5.267,0h-4.695V85.557h4.695v4.695Zm-5.267,0h-4.7V85.557h4.7v4.695Zm105.322-5.267h-4.694V80.291h4.694v4.695Zm-5.266,0H584.45V80.291h4.695v4.695Zm-5.267,0h-4.694V80.291h4.694v4.695Zm-5.267,0h-4.695V80.291h4.695v4.695Zm-5.267,0H568.65V80.291h4.695v4.695Zm-5.267,0h-4.695V80.291h4.695v4.695Zm-5.267,0h-4.694V80.291h4.694v4.695Zm-5.266,0h-4.695V80.291h4.695v4.695Zm-5.267,0h-4.695V80.291h4.695v4.695Zm-5.267,0h-4.695V80.291h4.695v4.695Zm-5.267,0h-4.682V80.291h4.682v4.695Zm-5.267,0H531.8V80.291h4.682v4.695Zm-5.254,0h-4.695V80.291h4.695v4.695Zm-5.267,0h-4.694V80.291h4.694v4.695Zm-5.267,0h-4.695V80.291h4.695v4.695Zm-5.267,0h-4.695V80.291h4.695v4.695Zm-5.267,0h-4.695V80.291h4.695v4.695Zm-5.267,0h-4.695V80.291h4.695v4.695Zm-5.267,0h-4.7V80.291h4.7v4.695Zm-5.267,0h-4.695V80.291h4.695v4.695Zm-5.267,0h-4.7V80.291h4.7v4.695Zm100.056-5.267H584.45V75.023h4.695v4.695Zm-5.267,0h-4.694V75.023h4.694v4.695Zm-5.267,0h-4.695V75.023h4.695v4.695Zm-5.267,0H568.65V75.023h4.695v4.695Zm-5.267,0h-4.695V75.023h4.695v4.695Zm-5.267,0h-4.694V75.023h4.694v4.695Zm-5.266,0h-4.695V75.023h4.695v4.695Zm-5.267,0h-4.695V75.023h4.695v4.695Zm-5.267,0h-4.695V75.023h4.695v4.695Zm-5.267,0h-4.682V75.023h4.682v4.695Zm-5.267,0H531.8V75.023h4.682v4.695Zm-5.254,0h-4.695V75.023h4.695v4.695Zm-5.267,0h-4.694V75.023h4.694v4.695Zm-5.267,0h-4.695V75.023h4.695v4.695Zm-5.267,0h-4.695V75.023h4.695v4.695Zm-5.267,0h-4.695V75.023h4.695v4.695Zm-5.267,0h-4.695V75.023h4.695v4.695Zm-5.267,0h-4.7V75.023h4.7v4.695Zm-5.267,0h-4.695V75.023h4.695v4.695Zm-5.267,0h-4.7V75.023h4.7v4.695Zm100.056-5.267H584.45V69.757h4.695v4.695Zm-5.267,0h-4.694V69.757h4.694v4.695Zm-5.267,0h-4.695V69.757h4.695v4.695Zm-5.267,0H568.65V69.757h4.695v4.695Zm-5.267,0h-4.695V69.757h4.695v4.695Zm-5.267,0h-4.694V69.757h4.694v4.695Zm-5.266,0h-4.695V69.757h4.695v4.695Zm-5.267,0h-4.695V69.757h4.695v4.695Zm-5.267,0h-4.695V69.757h4.695v4.695Zm-5.267,0h-4.682V69.757h4.682v4.695Zm-5.267,0H531.8V69.757h4.682v4.695Zm-5.254,0h-4.695V69.757h4.695v4.695Zm-5.267,0h-4.694V69.757h4.694v4.695Zm-5.267,0h-4.695V69.757h4.695v4.695Zm-5.267,0h-4.695V69.757h4.695v4.695Zm-5.267,0h-4.695V69.757h4.695v4.695Zm-5.267,0h-4.695V69.757h4.695v4.695Zm-5.267,0h-4.7V69.757h4.7v4.695Zm-5.267,0h-4.695V69.757h4.695v4.695Zm-5.267,0h-4.7V69.757h4.7v4.695Zm100.056-5.267H584.45V64.49h4.695v4.695Zm-5.267,0h-4.694V64.49h4.694v4.695Zm-5.267,0h-4.695V64.49h4.695v4.695Zm-5.267,0H568.65V64.49h4.695v4.695Zm-5.267,0h-4.695V64.49h4.695v4.695Zm-5.267,0h-4.694V64.49h4.694v4.695Zm-5.266,0h-4.695V64.49h4.695v4.695Zm-5.267,0h-4.695V64.49h4.695v4.695Zm-5.267,0h-4.695V64.49h4.695v4.695Zm-5.267,0h-4.682V64.49h4.682v4.695Zm-5.267,0H531.8V64.49h4.682v4.695Zm-5.254,0h-4.695V64.49h4.695v4.695Zm-5.267,0h-4.694V64.49h4.694v4.695Zm-5.267,0h-4.695V64.49h4.695v4.695Zm-5.267,0h-4.695V64.49h4.695v4.695Zm-5.267,0h-4.695V64.49h4.695v4.695Zm-5.267,0h-4.695V64.49h4.695v4.695Zm-5.267,0h-4.7V64.49h4.7v4.695Zm-5.267,0h-4.695V64.49h4.695v4.695Zm-5.267,0h-4.7V64.49h4.7Z" transform="translate(-1.523 -1.076)" fill="#fff" fill-rule="evenodd"/>
    <path id="Trazado_106305" data-name="Trazado 106305" d="M647.918,74a3.674,3.674,0,1,0-3.674-3.674A3.681,3.681,0,0,0,647.918,74Z" transform="translate(-64.99 -3.49)" fill="#ff9696" fill-rule="evenodd"/>
    <path id="Trazado_106306" data-name="Trazado 106306" d="M672.4,230.91a3.674,3.674,0,1,0-3.674-3.673A3.681,3.681,0,0,0,672.4,230.91Z" transform="translate(-73.809 -60.003)" fill="#ff9696" fill-rule="evenodd"/>
    <path id="Trazado_106311" data-name="Trazado 106311" d="M474.389,78.408a3.674,3.674,0,1,0-3.674-3.674A3.681,3.681,0,0,0,474.389,78.408Z" transform="translate(-2.493 -5.078)" fill="#ff9696" fill-rule="evenodd"/>
    <circle id="Elipse_4059" data-name="Elipse 4059" cx="3.674" cy="3.674" r="3.674" transform="translate(475.886 166.966)" fill="#ff9696"/>
    <g id="Grupo_55939" data-name="Grupo 55939" transform="translate(714.142 3733.831) rotate(-90)">
      <path id="Trazado_106312" data-name="Trazado 106312" d="M3604.518-235.044c.775.286,1.548.579,2.326.856q11.747,4.182,23.5,8.356a4.279,4.279,0,0,0,.587.135c.341.069.444.209.388.553q-1.182,7.274-2.367,14.547c-.566,3.464-1.146,6.927-1.706,10.392a10.448,10.448,0,0,0,.037,3.088c.248,1.824.468,3.652.747,5.471a9.486,9.486,0,0,0,7.068,8.122,30.284,30.284,0,0,0,5.436,1.086c.59.072,1.177.183,1.76.3.434.086.541.209.593.664.129,1.153.247,2.307.367,3.461q.338,3.239.674,6.479.335,3.224.669,6.447c.227,2.213.448,4.426.677,6.639q.326,3.16.663,6.319.34,3.239.68,6.478.3,2.89.6,5.78.165,1.588.332,3.176a.656.656,0,0,0,.051.146v.639a.887.887,0,0,1-.644.415q-1.6.314-3.186.649-6.728,1.415-13.455,2.836-9.256,1.949-18.51,3.9a2.431,2.431,0,0,0-.429.192,1.425,1.425,0,0,1-.451.177c-1.147.048-2.294.1-3.442.107-3.588.026-7.177.033-10.766.052-.595,0-1.189.031-1.783.047h-7.669a.715.715,0,0,1-.262-.672q-.013-3.738-.033-7.475-.037-9.009-.07-18.018-.059-16.357-.115-32.714-.023-6.869-.048-13.737c0-.572-.031-1.144-.047-1.716v-14.509c.016-.1.039-.207.048-.312.029-.306.159-.4.474-.362a2.048,2.048,0,0,0,.534.013c1.063-.156,2.126-.314,3.186-.491a29.8,29.8,0,0,0,6.1-1.6A8.728,8.728,0,0,0,3602-223.6a15.808,15.808,0,0,0,1.047-3.274,38.663,38.663,0,0,0,.758-6.108,3.236,3.236,0,0,0-.024-1.681c-.025-.053.074-.183.139-.255a.8.8,0,0,1,.214-.123Zm-16.948,86.27h.128q0,9.985,0,19.97c0,.542.026.566.554.563q9.65-.055,19.3-.113a10.8,10.8,0,0,0,2.064-.053c5.283-1.078,10.558-2.2,15.834-3.308l20.856-4.387c.516-.108.567-.168.514-.681q-.385-3.7-.774-7.4-.435-4.144-.871-8.289-.4-3.827-.792-7.655-.467-4.494-.943-8.988a2.438,2.438,0,0,0-.2-.471.642.642,0,0,1-.028-.291c.018-.125.1-.246.1-.366-.009-.319-.047-.637-.08-.954q-.5-4.828-1-9.656c-.046-.44-.112-.509-.553-.506q-7.94.048-15.88.1-15.816.1-31.631.212c-2.056.014-4.111.014-6.167.023-.42,0-.485.061-.484.4.013,2.929.018,5.858.042,8.786.007.815.066,1.629.1,2.444a.884.884,0,0,1,0,.157,5.082,5.082,0,0,0-.089.65Q3587.568-158.679,3587.571-148.774Zm17.065-85.405c-.042.475-.09.9-.113,1.32a42.492,42.492,0,0,1-1.03,7.2,9.476,9.476,0,0,1-6.051,7.131,32.111,32.111,0,0,1-3.958,1.213,27.842,27.842,0,0,1-5.615,1c-.438.016-.485.071-.483.517q.025,6.966.049,13.932c0,.543.008,1.086.006,1.63,0,.254.1.369.369.351s.511,0,.766-.007q12.51-.091,25.02-.182,6.2-.043,12.4-.067c.451,0,.508-.053.58-.493.049-.3.1-.609.151-.913q.817-4.944,1.633-9.888.762-4.646,1.511-9.294c.222-1.375.437-2.751.665-4.2-.542-.212-1.074-.438-1.618-.632q-10.068-3.578-20.141-7.147Zm33.127,52.113c0-.014,0-.028.006-.042-.1-.028-.2-.059-.3-.085-.917-.234-1.846-.428-2.748-.709a9.94,9.94,0,0,1-7.044-7.024c-.179-.612-.406-1.21-.56-1.828a13.153,13.153,0,0,1-.421-2.12c-.132-1.645-.187-3.3-.276-4.944-.032-.594-.075-.631-.66-.627l-23.612.16-14.218.093c-.477,0-.484,0-.482.447q.031,8.323.061,16.647c0,.276.084.37.367.366,1.182-.018,2.365-.007,3.547-.021q8.314-.094,16.629-.195c.309,0,.618,0,.927,0q9.573-.061,19.145-.121c3.1-.016,6.2,0,9.3,0Z" transform="translate(0 0)" fill="#636363"/>
      <path id="Trazado_106313" data-name="Trazado 106313" d="M3599.766,637.4q0-9.905,0-19.81a5.129,5.129,0,0,1,.089-.65.907.907,0,0,0,0-.156c-.035-.814-.094-1.629-.1-2.444-.023-2.929-.029-5.858-.042-8.786,0-.343.063-.4.484-.4,2.055-.008,4.111-.009,6.167-.023q15.816-.1,31.632-.212,7.94-.052,15.88-.1c.441,0,.508.066.553.506q.5,4.828,1,9.656c.033.318.07.636.08.954a2.459,2.459,0,0,1-.1.366.642.642,0,0,0,.028.291,2.473,2.473,0,0,1,.2.471q.482,4.493.943,8.987.4,3.827.792,7.655.432,4.145.871,8.289.388,3.7.774,7.4c.053.513,0,.572-.514.681l-20.856,4.387c-5.277,1.109-10.551,2.23-15.834,3.308a10.793,10.793,0,0,1-2.064.053q-9.65.059-19.3.112c-.528,0-.554-.021-.554-.563q0-9.985,0-19.97Z" transform="translate(-12.195 -786.176)" fill="#fff"/>
      <path id="Trazado_106314" data-name="Trazado 106314" d="M3614.874-221.514l4.14,1.469q10.07,3.573,20.14,7.147c.544.193,1.076.419,1.618.632-.229,1.445-.443,2.821-.665,4.2q-.752,4.648-1.511,9.294-.811,4.945-1.633,9.888c-.05.3-.1.609-.151.913-.072.44-.129.491-.58.493q-6.2.033-12.4.067-12.51.086-25.02.182c-.255,0-.512-.011-.766.007s-.37-.1-.369-.351c0-.543,0-1.086-.006-1.63q-.025-6.966-.049-13.932c0-.446.045-.5.483-.517a27.844,27.844,0,0,0,5.615-1,32.1,32.1,0,0,0,3.958-1.213,9.476,9.476,0,0,0,6.051-7.131,42.466,42.466,0,0,0,1.03-7.2C3614.784-220.617,3614.833-221.039,3614.874-221.514Z" transform="translate(-10.239 -12.665)" fill="#fff"/>
      <path id="Trazado_106315" data-name="Trazado 106315" d="M3648.976,339.262h-.338c-3.1,0-6.2-.013-9.3,0q-9.573.049-19.145.121c-.309,0-.617-.006-.926,0q-8.315.1-16.629.2c-1.182.013-2.364,0-3.547.021-.282,0-.365-.09-.366-.366q-.023-8.324-.061-16.647c0-.443,0-.444.482-.447l14.218-.093,23.612-.16c.584,0,.627.033.66.627.089,1.648.144,3.3.275,4.944a13.182,13.182,0,0,0,.422,2.12c.154.617.381,1.216.56,1.828a9.94,9.94,0,0,0,7.044,7.024c.9.281,1.831.474,2.748.709.1.025.2.056.3.085C3648.979,339.234,3648.978,339.248,3648.976,339.262Z" transform="translate(-11.213 -521.328)" fill="#fff"/>
    </g>
  </g>
</svg>
