<svg xmlns="http://www.w3.org/2000/svg" xmlns:xlink="http://www.w3.org/1999/xlink" width="188" height="188" viewBox="0 0 188 188">
  <defs>
    <clipPath id="clip-path">
      <circle id="Elipse_4090" data-name="Elipse 4090" cx="83.663" cy="83.663" r="83.663" transform="translate(3280.299 1025.986)" fill="none"/>
    </clipPath>
  </defs>
  <g id="Grupo_56573" data-name="Grupo 56573" transform="translate(-1116 -3900)">
    <circle id="Elipse_4085" data-name="Elipse 4085" cx="94" cy="94" r="94" transform="translate(1116 3900)" fill="#ede3b7"/>
    <ellipse id="Elipse_4086" data-name="Elipse 4086" cx="83.5" cy="83" rx="83.5" ry="83" transform="translate(1128 3911)" fill="#fff"/>
    <ellipse id="Elipse_4087" data-name="Elipse 4087" cx="83.5" cy="83" rx="83.5" ry="83" transform="translate(1128 3911)" fill="#fff" opacity="0.25"/>
    <g id="Grupo_56570" data-name="Grupo 56570" transform="translate(-2152.299 2884.352)">
      <g id="Grupo_56569" data-name="Grupo 56569" clip-path="url(#clip-path)">
        <g id="Grupo_56568" data-name="Grupo 56568">
          <path id="Trazado_107069" data-name="Trazado 107069" d="M3235.715,1137.42s-23.131,0-22.877-6.993c.579-15.96,11.629-70.44,11.629-70.44l-.977-.574a28.934,28.934,0,0,0-3.382,2.07c-8.3,5.933-12.78,18.674-16.388,27.523-2.566,6.3-4.827,12.7-7.161,19.082-1.013,2.766-1.789,5.624-2.762,8.407-1.063,3.016-3.728,5.054-4.847,8.021-1.577,4.172,3.632,7.072,9.009,8.785a42.49,42.49,0,0,0,8.9,2.9c4.555,1,9.056,1.977,13.694,2.533,1.414.169,14.631.3,14.533.025.1.275.343.308.592.2h0Z" fill="#ffbe2c"/>
          <path id="Trazado_107070" data-name="Trazado 107070" d="M3401.246,1101.523c-.58-15.96-25.742-41.536-25.742-41.536l.976-.574a35.632,35.632,0,0,0-10.384-3.437c-2.316-.408-4.693-.434-6.978-.984-2.236-.537-4.365-1.418-6.544-2.124-3.022-.976-6.139-1.6-9.091-2.78-2.218-.878-4.59-1.355-6.85-2.109a18.247,18.247,0,0,1-3.716-1.542,12.659,12.659,0,0,0-2.62-1.615c-2.372-.739-4.649.681-6.607,1.852a30.406,30.406,0,0,1-7.024,3.066,60.985,60.985,0,0,1-18.33,2.072,105.542,105.542,0,0,1-16.185-1.009,19.222,19.222,0,0,1-6.764-3.04c-2.124-1.321-4.5-2.881-7.126-2.313-1.349.292-2.277,1.563-3.613,2.068-2.669,1.008-5.509,1.521-8.159,2.57-2.952,1.176-6.07,1.8-9.092,2.78-2.18.706-4.308,1.587-6.544,2.124-2.286.55-4.663.576-6.98.984a35.645,35.645,0,0,0-10.383,3.437l.977.574s-11.05,54.48-11.629,70.44c-.254,6.994,22.877,6.993,22.877,6.993l-.036,1.546h0c-.189,8.542-.566,17.119-.32,25.631.1,3.553.416,7.026.858,10.459a13.878,13.878,0,0,1-2.477,9.7,4.588,4.588,0,0,0-.854,2.038c-.027.053-.065.094-.091.147-.264,2.041.7,3.534,1.042,5.6a9.967,9.967,0,0,1-1.249,5.947c-.253.547-.5,1.1-.74,1.648a284.649,284.649,0,0,0-5.135,30.456c-.2,1.57-1.152,5.821.135,7.245,2.567,2.863,6.326,4.331,9.672,6.16,9.234,5.049,19.79,8.31,30.157,10.4a177.149,177.149,0,0,0,32.923,3.4c.127,0,.257-.005.386-.005a3.52,3.52,0,0,0,.384-.009,175.969,175.969,0,0,0,32.924-3.388c10.366-2.088,20.922-5.349,30.155-10.4,3.347-1.829,7.106-3.3,9.672-6.16,1.287-1.424.333-5.675.136-7.245a284.16,284.16,0,0,0-5.135-30.456c-.244-.55-.486-1.1-.739-1.648a9.992,9.992,0,0,1-1.251-5.947c.342-2.068,1.309-3.561,1.045-5.6-.028-.053-.067-.094-.092-.147a4.586,4.586,0,0,0-.853-2.038,13.882,13.882,0,0,1-2.48-9.7,104.731,104.731,0,0,0,.859-10.459c.245-8.512-.131-17.089-.32-25.632l-.329-30.326S3401.5,1108.517,3401.246,1101.523Z" fill="#b2b2b2"/>
          <path id="Trazado_107071" data-name="Trazado 107071" d="M3224.467,1059.987a20.687,20.687,0,0,0-5.122,3.651c-7.384,7.234-11.407,18.151-15.172,27.436-3.6,8.869-5.68,18.685-9.853,27.3-2.047,4.226-5.709,7.6-.664,11.162,5.268,3.189,12.249,4.6,17.948,5.66a148.934,148.934,0,0,0,24.111,2.221c.024-1.328.046-2.654.056-3.975.093-11.81-.64-24.117.988-35.84.206-1.477.369-3.106.441-4.84a40.31,40.31,0,0,0-2.948-6.734c-1.147-2.077-1.976-4.59-3.325-6.511-.03-.044.058-.119.1-.083,1.548,1.818,2.486,4.181,3.9,6.127a15.107,15.107,0,0,1,2.394,4.571c.129-7.117-.862-15.177-4.077-20.384C3230.089,1063.737,3226.938,1061.095,3224.467,1059.987Z" fill="#fff4a1"/>
          <path id="Trazado_107072" data-name="Trazado 107072" d="M3375.5,1059.987c-7.3-3.732-16.271-3.392-24.329-5.312-.055-.017-.092-.114-.014-.109,1.727.14,3.425.253,5.1.368-5.515-1.749-10.912-3.225-16.38-5.266-2.006-.748-4.992-1-6.666-2.387-1.149-.952-1.876-2.477-3.9-2.019a7.037,7.037,0,0,0-2.469,1.184c.013.108,3.672,30.639-26.837,30.639-30.557,0-27.458-29.189-27.456-29.2a14.616,14.616,0,0,0-2.332-1.692c-1.652-.9-3.2,1.088-4.663,1.645-1.8.682-3.66,1.158-5.458,1.829-5.471,2.041-10.866,3.517-16.383,5.266,1.672-.115,3.369-.228,5.1-.368.081-.005.043.092-.014.109-8.056,1.92-17.027,1.58-24.327,5.312,2.471,1.108,5.622,3.75,8.774,9.764-.026-.041.058-.122.1-.078,4.965,5.5,5.571,15.744,5.279,22.775-.465,11.173-1.344,22.279-1.366,33.491-.025,12.585-1.271,25.5-.471,38.048.574,8.952,2.231,17.642,3.534,26.413.027,1.868-.025,3.728-.145,5.591-1.039-4.632-2.044-9.2-2.863-13.8a.274.274,0,0,1-.052.181c-2.755,3.878-2.84,6.547-1.545,10.881.668,2.238-2.185,6.383-2.777,8.851a212.989,212.989,0,0,0-4.634,28.2c-.146,1.473-.932,6.024.529,7.053a68.573,68.573,0,0,0,6.333,3.9,123.756,123.756,0,0,0,12.637,5.866,119.987,119.987,0,0,0,29.767,7.564,148.289,148.289,0,0,0,44.844,0,119.969,119.969,0,0,0,29.766-7.564,123.869,123.869,0,0,0,12.638-5.866,68.056,68.056,0,0,0,6.333-3.9c1.46-1.029.676-5.58.531-7.053a212.837,212.837,0,0,0-4.637-28.2c-.589-2.468-3.444-6.613-2.777-8.851,1.295-4.334,1.212-7-1.543-10.881a.281.281,0,0,1-.053-.181c-.82,4.6-1.824,9.171-2.861,13.8-.122-1.863-.175-3.723-.147-5.591,1.3-8.771,2.961-17.461,3.536-26.413.8-12.552-.447-25.463-.472-38.048-.022-11.212-.9-22.318-1.365-33.491-.292-7.031.311-17.276,5.279-22.775.036-.044.122.037.095.078C3369.882,1063.737,3373.033,1061.095,3375.5,1059.987Z" fill="#fff"/>
          <path id="Trazado_107073" data-name="Trazado 107073" d="M3300.039,1084.725c5.791,0,11.739-.863,16.954-3.5A24.463,24.463,0,0,0,3328,1069.908a35.779,35.779,0,0,0,3.214-13.472c.1-1.756.753-11.282-1.98-11.329-1.586-.027-3.438,2.409-4.488,3.308a13.27,13.27,0,0,1-3.3,1.931,19.549,19.549,0,0,1-5.374,1.872c-2.133.3-4.279.487-6.414.772a96.362,96.362,0,0,1-20.54.456,53.937,53.937,0,0,1-5.479-.525,29.986,29.986,0,0,1-4.929-1.56c-2.35-.88-3.988-2.4-6.007-3.729a6.931,6.931,0,0,0-3.083-1.2c-1.056-.045-.9.549-.945,1.37-.159,2.728-.526,5.374-.422,8.127a36.115,36.115,0,0,0,2.538,12.432,24.749,24.749,0,0,0,9.319,11.384C3285.983,1083.548,3293.158,1084.725,3300.039,1084.725Z" fill="#efefef" style="mix-blend-mode: multiply;isolation: isolate"/>
          <path id="Trazado_107074" data-name="Trazado 107074" d="M3300.017,1082.508c35.739,0,28.134-37.205,28.12-37.33-1.477,1.154-2.8,2.7-4.313,3.663-4.569,2.933-9.83,3.013-14.933,3.711a86.741,86.741,0,0,1-18.932.43c-5.525-.458-11.315-.857-16.211-4.045a19.267,19.267,0,0,1-2.5-2.085C3271.246,1046.864,3264.278,1082.508,3300.017,1082.508Z" fill="#ffe67b"/>
          <path id="Trazado_107075" data-name="Trazado 107075" d="M3329.2,1049.94q-.108-1.569-.32-3.129a6.257,6.257,0,0,0-.241-1.514.4.4,0,0,1-.014-.076c-.037-.268-.72-.319-.929-.206a1.054,1.054,0,0,1,.012.139c.012.16.03.319.056.477.037.183.072.367.1.552.006.039,0,.078.01.117,0,.014,0,.029.006.043.01.082.011.163.015.245,0,.047.008.095.009.142,0,.068,0,.135,0,.2.089.631.174,1.263.23,1.9a47.227,47.227,0,0,1-.03,8.826,33.245,33.245,0,0,1-2.769,10.671,22.788,22.788,0,0,1-7.785,9.3c-4.479,3.05-9.927,4.315-15.277,4.589-.824.042-1.65.061-2.475.062-5.547-.009-11.274-.863-16.181-3.59a22.351,22.351,0,0,1-8.591-8.538,29.785,29.785,0,0,1-3.378-10.171,41.924,41.924,0,0,1-.38-8.756c.045-.794.125-1.587.215-2.377-.012-.563-.031-1.126-.029-1.69,0-.147.017-.294.023-.441-.273-.109-.69-.2-.73.03a34.892,34.892,0,0,0-.433,3.633,43.1,43.1,0,0,0,.23,8.654,30.732,30.732,0,0,0,3.17,10.429,23,23,0,0,0,8.333,8.9,33.041,33.041,0,0,0,15.7,4.307c.827.039,1.654.056,2.482.058,5.638-.01,11.452-.9,16.436-3.675a22.711,22.711,0,0,0,8.812-8.853,30.974,30.974,0,0,0,3.442-10.845A45.838,45.838,0,0,0,3329.2,1049.94Z" fill="#ffbe2c"/>
          <path id="Trazado_107076" data-name="Trazado 107076" d="M3300,1077.085c30.509,0,26.85-30.531,26.837-30.639-1.411.992-2.676,2.318-4.117,3.151-4.36,2.521-9.381,2.59-14.251,3.191a91.827,91.827,0,0,1-18.068.37c-5.273-.4-10.8-.737-15.471-3.479a18.146,18.146,0,0,1-2.386-1.793C3272.546,1047.9,3269.447,1077.085,3300,1077.085Z" fill="#ededed"/>
          <path id="Trazado_107077" data-name="Trazado 107077" d="M3326.841,1046.446c-1.411.992-2.676,2.318-4.117,3.151-4.36,2.521-9.381,2.59-14.251,3.191a91.827,91.827,0,0,1-18.068.37c-5.273-.4-10.8-.737-15.471-3.479a18.146,18.146,0,0,1-2.386-1.793c0,.01-3.1,29.2,27.456,29.2C3330.513,1077.085,3326.854,1046.554,3326.841,1046.446Zm-26.869,26.24c-27.091,0-24.343-21.493-24.342-21.5a16.182,16.182,0,0,0,2.116,1.32c4.142,2.019,9.041,2.271,13.716,2.562a97.907,97.907,0,0,0,16.018-.273c4.318-.442,8.77-.493,12.635-2.35,1.278-.613,2.4-1.589,3.65-2.319C3323.776,1050.2,3327.02,1072.686,3299.972,1072.686Z" fill="#efefef" style="mix-blend-mode: multiply;isolation: isolate"/>
          <path id="Trazado_107078" data-name="Trazado 107078" d="M3327.4,1047.378a9.815,9.815,0,0,0-.211-1.382.282.282,0,0,0-.138-.169c-.068.063-.133.128-.2.188-.026.022-.052.043-.078.063-.052.038-.106.074-.161.107-.093.055-.19.1-.284.155l-.157.142.135-.05a23.023,23.023,0,0,1,.157,4.464,36.232,36.232,0,0,1-1.121,7.744,26.2,26.2,0,0,1-3.937,8.66,21.5,21.5,0,0,1-8.438,6.969,32.221,32.221,0,0,1-14.43,2.565,29.841,29.841,0,0,1-13.487-3.233c-5.832-3.172-9.533-8.848-11.11-15.193a33.973,33.973,0,0,1-.967-6.95c-.028-.772-.032-1.545,0-2.317a7.431,7.431,0,0,1,.027-.9c-.161-.174-.328-.342-.5-.5l-.233-.186a.957.957,0,0,0-.239.637c-.04.6-.054,1.209-.054,1.814a35.149,35.149,0,0,0,.617,6.522c1.207,6.327,4.377,12.26,9.759,15.979a27.882,27.882,0,0,0,12.121,4.437,38.311,38.311,0,0,0,15.73-.925,22.853,22.853,0,0,0,10.193-6.025,24.126,24.126,0,0,0,5.192-8.659A35.149,35.149,0,0,0,3327.4,1047.378Z" fill="#ffbe2c"/>
          <path id="Trazado_107079" data-name="Trazado 107079" d="M3299.966,1067.046c.006-.036.014-.069.02-.1a.982.982,0,0,0,.018.1Z" fill="#e0f1f3"/>
          <path id="Trazado_107080" data-name="Trazado 107080" d="M3248.83,1098.761c-.007-.228-.039-.456-.051-.681-.071,2.294-.114,4.59-.144,6.886A56.336,56.336,0,0,0,3248.83,1098.761Z" fill="#e0f1f3" style="mix-blend-mode: multiply;isolation: isolate"/>
          <path id="Trazado_107081" data-name="Trazado 107081" d="M3258.29,1053.843c.9-.517,1.791-1.035,2.7-1.53.416-.227.838-.444,1.253-.673l.335-.2c.2-.12.4-.241.6-.366a22.008,22.008,0,0,0,2.364-1.693,10.356,10.356,0,0,0,1.582-1.606,6.911,6.911,0,0,0,.933-1.339c-2.167,1.678-5.985,2.489-7.963,3.227-5.471,2.041-10.866,3.517-16.383,5.266,1.672-.115,3.369-.228,5.1-.368.08-.005.043.092-.014.109-10.069,2.4-21.576,1.251-29.449,8.963-7.384,7.234-11.407,18.151-15.172,27.436-3.6,8.869-5.68,18.685-9.853,27.3-2.047,4.226-5.709,7.6-.664,11.162,5.268,3.189,12.249,4.6,17.948,5.66a148.934,148.934,0,0,0,24.111,2.221c.024-1.328.046-2.654.056-3.975.093-11.81-.64-24.117.988-35.84.206-1.477.369-3.106.463-4.827,0,0-.019,0-.022-.013a40.31,40.31,0,0,0-2.948-6.734c-1.147-2.077-1.976-4.59-3.325-6.511-.03-.044.058-.119.1-.083,1.548,1.818,2.486,4.181,3.9,6.127a15.114,15.114,0,0,1,2.394,4.57c.114-6.33-.674-13.383-3.11-18.534a61.278,61.278,0,0,1,.444,7.211.716.716,0,0,1-1.215.5c-1.906-2.069-4.426-3.656-6.478-5.622,2.368,6.258,4.525,12.7,4.75,19.405a77.963,77.963,0,0,1-.56,11.106c-.021.871-.09,1.777-.2,2.725-.531,4.4-.729,8.682-.937,13.1-.125,2.647.066,6.956-1.77,9.122-1.5,1.77-3.68,1.793-5.863,1.79a87.761,87.761,0,0,1-11.17-.589c-3.388-.44-14.443-2.575-13.92-7.851.3-3.039,2.5-5.9,3.714-8.646,2.1-4.743,3.973-9.575,5.722-14.457,2.956-8.251,5.528-16.624,8.387-24.9.9-2.6,2.018-5.529,4.359-7.189.4-.278.8-.528,1.211-.762a17.479,17.479,0,0,1,10.061-5.81,28.734,28.734,0,0,1,7-.465c3.564.231,7.585,1.018,10.787-1.045,2.5-1.615,4.713-3.358,7.473-4.54C3256.75,1054.373,3257.516,1054.1,3258.29,1053.843Z" fill="#efefef" style="mix-blend-mode: multiply;isolation: isolate"/>
          <path id="Trazado_107082" data-name="Trazado 107082" d="M3236.62,1091.158c-.367,7.289-1.557,14.6-2.48,21.77-.389,3.025-.8,6.055-1.37,9.052-.479,2.5-.729,5.577-1.962,7.84-1.549,2.844-4.382,3.736-7.56,4.006-13.047,1.106-26.251-4.29-28.193-5.788a7.7,7.7,0,0,1-2.948-5.652c-1.307,2.5-1.8,4.787,1.549,7.153,5.268,3.189,12.249,4.6,17.948,5.66a148.934,148.934,0,0,0,24.111,2.221c.024-1.328.046-2.654.056-3.975.093-11.81-.64-24.117.988-35.84.206-1.477.368-3.106.463-4.827,0,0-.02,0-.022-.013C3237.015,1092.22,3236.82,1091.686,3236.62,1091.158Z" fill="#efefef" style="mix-blend-mode: multiply;isolation: isolate"/>
          <path id="Trazado_107083" data-name="Trazado 107083" d="M3236.713,1088.569a11.9,11.9,0,0,1,.605,1.566,52.177,52.177,0,0,0-1.49-13.987A61.64,61.64,0,0,1,3236.713,1088.569Z" fill="#e0f1f3" style="mix-blend-mode: multiply;isolation: isolate"/>
          <path id="Trazado_107084" data-name="Trazado 107084" d="M3371.675,1230.3a213.037,213.037,0,0,0-4.637-28.2c-.589-2.468-3.444-6.613-2.777-8.851,1.295-4.334,1.212-7-1.543-10.881a.275.275,0,0,1-.053-.181c-.82,4.6-1.824,9.171-2.861,13.8-.122-1.863-.175-3.723-.147-5.591,1.3-8.771,2.961-17.461,3.536-26.413.8-12.552-.447-25.463-.472-38.048-.023-11.212-.9-22.318-1.365-33.491a51.175,51.175,0,0,1,1.342-14.882c.017-.161.031-.323.05-.481-6.041,11.243-4.406,25.546-3.883,37.992a255.364,255.364,0,0,1-4.129,55.384c-2.922,16.283-8.871,32.416-19.777,45.113-4.774,5.557-10.311,10.5-17.006,13.619-.2.092-.4.17-.595.259,16.225-2.783,31.91-11.518,42.346-24.048.514-.617,1.274.081,1.19.692-1.579,11.654-5.313,23.314-14.678,31.07-11.263,9.33-26.792,13.753-41.244,14.159-1.436.039-3.541.039-4.986.017v-.02c-12.953-.375-26.772-3.35-37.855-10.144-10.08-6.18-23.212-17.484-20.989-30.714a.709.709,0,0,1,.876-.5c8.006,3.028,13.666,9.83,20.277,14.965a101.986,101.986,0,0,0,8.52,5.922c-7.322-7.445-14.29-15.14-18.9-24.726-6.806-14.17-9.2-29.138-9.975-44.715-.818-16.48.108-32.913.02-49.393-.045-8.24-.339-16.583-1.985-24.681a42.864,42.864,0,0,0-2.085-6.959,56.207,56.207,0,0,1,.721,12.069c-.465,11.173-1.344,22.279-1.366,33.491-.025,12.585-1.271,25.5-.472,38.048.575,8.952,2.232,17.642,3.535,26.413.027,1.868-.025,3.728-.146,5.591-1.038-4.632-2.043-9.2-2.862-13.8a.27.27,0,0,1-.053.181c-2.755,3.878-2.839,6.547-1.544,10.881.667,2.238-2.185,6.383-2.777,8.851a212.789,212.789,0,0,0-4.634,28.2c-.147,1.473-.932,6.024.529,7.053a68.573,68.573,0,0,0,6.333,3.9,123.756,123.756,0,0,0,12.637,5.866,119.987,119.987,0,0,0,29.767,7.564,148.289,148.289,0,0,0,44.844,0,119.969,119.969,0,0,0,29.766-7.564,123.869,123.869,0,0,0,12.638-5.866,68.056,68.056,0,0,0,6.333-3.9C3372.6,1236.321,3371.82,1231.77,3371.675,1230.3Z" fill="#efefef" style="mix-blend-mode: multiply;isolation: isolate"/>
          <path id="Trazado_107085" data-name="Trazado 107085" d="M3218.223,1075.423c-5.677,12-8.7,25.637-13.064,38.178-.209.6.559.442.746.05,5.882-12.343,7.624-25.654,12.557-38.212C3218.537,1075.25,3218.283,1075.3,3218.223,1075.423Z" fill="#e0f1f3" opacity="0.5" style="mix-blend-mode: screen;isolation: isolate"/>
          <path id="Trazado_107086" data-name="Trazado 107086" d="M3267.83,1200.814c-7.212-9.975-13.2-20.964-16.665-32.649-3.821-12.9-3.676-24.709-3.32-38,.289-10.814.337-21.709,1.006-32.507.595-9.6-2.255-16.583-7.041-24.923-.082-.145-.315.05-.255.175,2.45,5.224,4.958,10.659,5.8,16.35.86,5.838-.343,12.26-.354,18.167-.023,11-.8,22-1.1,33-.623,22.625,7.49,42.538,21.643,60.634C3267.641,1201.19,3267.923,1200.942,3267.83,1200.814Z" fill="#e0f1f3" opacity="0.5" style="mix-blend-mode: screen;isolation: isolate"/>
          <path id="Trazado_107087" data-name="Trazado 107087" d="M3224.468,1059.987a20.692,20.692,0,0,0-5.123,3.651c-7.384,7.234-11.407,18.151-15.172,27.436-3.6,8.869-5.68,18.685-9.853,27.3-2.047,4.226-5.709,7.6-.664,11.162,5.268,3.189,12.249,4.6,17.948,5.66a148.934,148.934,0,0,0,24.111,2.221c.024-1.328.046-2.654.056-3.975.093-11.81-.639-24.117.988-35.84.206-1.477.369-3.106.441-4.84a40.23,40.23,0,0,0-2.948-6.734c-1.147-2.077-1.976-4.59-3.325-6.511-.029-.044.058-.119.1-.083,1.548,1.818,2.486,4.181,3.9,6.127a15.107,15.107,0,0,1,2.394,4.571c.129-7.117-.862-15.177-4.077-20.384C3230.089,1063.737,3226.938,1061.095,3224.468,1059.987Z" fill="#ffe67b"/>
          <path id="Trazado_107088" data-name="Trazado 107088" d="M3235.771,1133.445c.093-11.81-.639-24.117.988-35.84.206-1.477.369-3.106.463-4.827,0,0-.019,0-.022-.013a40.23,40.23,0,0,0-2.948-6.734c-1.147-2.077-1.976-4.59-3.325-6.511-.03-.044.058-.119.1-.083,1.548,1.818,2.486,4.181,3.9,6.127a15.114,15.114,0,0,1,2.394,4.57,55.626,55.626,0,0,0-.961-11.716,36.979,36.979,0,0,1-1.684-5.7c-.153-.374-.3-.76-.464-1.117a61.208,61.208,0,0,1,.443,7.211.716.716,0,0,1-1.215.5c-1.906-2.069-4.426-3.656-6.477-5.622,2.367,6.258,4.524,12.7,4.749,19.405a77.963,77.963,0,0,1-.56,11.106c-.021.871-.09,1.777-.2,2.725-.531,4.4-.729,8.682-.937,13.1-.125,2.647.067,6.956-1.77,9.122-1.5,1.77-3.68,1.793-5.863,1.79a87.941,87.941,0,0,1-11.17-.589c-3.387-.44-14.442-2.575-13.92-7.851.3-3.039,2.5-5.9,3.715-8.646,2.1-4.743,3.972-9.575,5.721-14.457,2.956-8.251,5.528-16.624,8.387-24.9.9-2.6,2.019-5.529,4.359-7.189.4-.278.8-.528,1.211-.762a18.187,18.187,0,0,1,6.746-4.843c-.636-.4-1.266-.8-1.866-1.248a3.494,3.494,0,0,1-.775-.628,20.775,20.775,0,0,0-5.438,3.8c-7.384,7.234-11.407,18.151-15.172,27.436-3.6,8.868-5.68,18.685-9.853,27.3-2.047,4.226-5.708,7.6-.664,11.162,5.268,3.189,12.249,4.6,17.948,5.66a148.934,148.934,0,0,0,24.111,2.221C3235.739,1136.092,3235.761,1134.766,3235.771,1133.445Z" fill="#ffe67b" opacity="0.5" style="mix-blend-mode: multiply;isolation: isolate"/>
          <path id="Trazado_107089" data-name="Trazado 107089" d="M3236.62,1091.158c-.367,7.289-1.557,14.6-2.48,21.77-.389,3.025-.8,6.055-1.37,9.052-.478,2.5-.728,5.577-1.961,7.84-1.55,2.844-4.383,3.736-7.561,4.006-13.047,1.106-26.251-4.29-28.193-5.788a7.7,7.7,0,0,1-2.948-5.652c-1.306,2.5-1.8,4.787,1.549,7.153,5.268,3.189,12.249,4.6,17.948,5.66a148.934,148.934,0,0,0,24.111,2.221c.024-1.328.046-2.654.056-3.975.093-11.81-.64-24.117.988-35.84.206-1.477.369-3.106.463-4.827,0,0-.019,0-.022-.013C3237.015,1092.22,3236.82,1091.686,3236.62,1091.158Z" fill="#ffe67b" opacity="0.5" style="mix-blend-mode: multiply;isolation: isolate"/>
          <g id="Grupo_56567" data-name="Grupo 56567">
            <path id="Trazado_107090" data-name="Trazado 107090" d="M3406.173,1100.5c-1.011-1.872-3.417-3.158-4.376-5.061-.878-1.756-1.578-3.56-2.494-5.305-2.1-4.028-4.145-8.069-6.461-12.042-3.258-5.584-7.3-13.625-14.793-17.368a29.677,29.677,0,0,0-3.053-1.307l-.881.362s9.974,34.38,10.5,44.452c.229,4.413-20.65,4.413-20.65,4.413l.033.975c.225.065.441.044.534-.13-.09.172,11.841.092,13.116-.015,4.188-.351,8.251-.967,12.361-1.6a50.711,50.711,0,0,0,8.035-1.831C3402.894,1104.959,3407.6,1103.129,3406.173,1100.5Z" fill="#ffbe2c"/>
            <path id="Trazado_107091" data-name="Trazado 107091" d="M3401.325,1096.623c-3.766-5.439-5.638-11.634-8.892-17.23-3.4-5.86-7.032-12.749-13.694-17.314a20.1,20.1,0,0,0-4.624-2.3c-2.23.7-5.074,2.367-7.92,6.162-2.9,3.286-3.8,8.372-3.678,12.863a9.025,9.025,0,0,1,2.16-2.884c1.275-1.228,2.123-2.719,3.521-3.867.032-.023.113.025.088.053a41.776,41.776,0,0,0-3,4.109,23.334,23.334,0,0,0-2.68,4.257,26.014,26.014,0,0,0,.419,3.046c1.468,7.4.808,15.165.891,22.617.007.833.03,1.67.05,2.509a191.024,191.024,0,0,0,21.763-1.4c5.144-.668,11.445-1.559,16.2-3.572C3406.477,1101.417,3403.172,1099.289,3401.325,1096.623Z" fill="#fff4a1"/>
            <path id="Trazado_107092" data-name="Trazado 107092" d="M3401.325,1096.623c-3.766-5.439-5.638-11.634-8.893-17.23-1.081-1.867-2.188-3.837-3.41-5.8a63.221,63.221,0,0,1,2.939,7.2c.968,2.783,1.744,5.558,2.444,8.379a29.8,29.8,0,0,0,4.16,9.146c2.311,3.615-1.857,4.844-6.183,5.922-5.633,1.407-12.127,2.984-18.205,2.592-2.489-.162-4.7-.569-6.424-1.9-1.741-1.349-1.229-4.075-1.48-5.711-.979-6.415-2.429-12.792-3.42-19.206-.076.151-.158.3-.231.451,0,.008-.015.007-.02.008a26.014,26.014,0,0,0,.419,3.046c1.468,7.4.808,15.165.891,22.617.007.833.03,1.67.05,2.509a191.056,191.056,0,0,0,21.763-1.4c5.144-.668,11.445-1.559,16.2-3.572C3406.477,1101.417,3403.172,1099.289,3401.325,1096.623Z" fill="#f9ce46"/>
            <path id="Trazado_107093" data-name="Trazado 107093" d="M3401.326,1096.623c-3.767-5.439-5.639-11.634-8.893-17.23-3.4-5.86-7.031-12.749-13.694-17.314a20.1,20.1,0,0,0-4.624-2.3c-2.23.7-5.074,2.367-7.92,6.162-2.9,3.286-3.8,8.372-3.678,12.863a9.025,9.025,0,0,1,2.16-2.884c1.275-1.228,2.123-2.719,3.521-3.867.033-.023.113.025.088.053a41.776,41.776,0,0,0-3,4.109,23.334,23.334,0,0,0-2.68,4.257,26.435,26.435,0,0,0,.419,3.046c1.468,7.4.808,15.165.891,22.617.008.833.03,1.67.05,2.509a191.024,191.024,0,0,0,21.763-1.4c5.144-.668,11.445-1.559,16.2-3.572C3406.477,1101.417,3403.173,1099.289,3401.326,1096.623Z" fill="#ffe67b"/>
            <path id="Trazado_107094" data-name="Trazado 107094" d="M3401.326,1096.623c-3.767-5.439-5.639-11.634-8.893-17.23-3.4-5.86-7.031-12.749-13.694-17.314a19.94,19.94,0,0,0-4.442-2.243c-.967.54-1.971,1.054-2.963,1.576a7.734,7.734,0,0,1,3.177,1.923c.54.306,1.064.625,1.564.969,5.4,3.735,7.789,9.043,10.177,13.957q2.247,4.627,4.148,9.332c1.192,2.935,2.888,6.038,3.5,9.063a3.928,3.928,0,0,1,.035,1.5c.06.146.128.292.188.437.128.316-.216.523-.577.548-1.353,2.242-5.618,2.791-9.295,3.6-3.545.777-10.556,2.084-11.846-1.5-1.041-2.9-1.373-5.966-2.043-8.915-.727-3.2-1.613-6.405-2.127-9.626-.761-4.767,1.475-8.949,5.053-12.8a2.8,2.8,0,0,1-.72-.44,53.147,53.147,0,0,0-5.721,2.4c-.464.222-1.112-.144-.944-.508a20.9,20.9,0,0,0,2.058-6.634c-.907.306-1.773.655-2.612,1.029-2.4,2.59-3.989,5.466-4.095,8.59a16.775,16.775,0,0,0,.1,2.274c.256-3.846,1.4-8.121,4.76-10.718.033-.028.111.023.085.049-2.9,3.286-3.8,8.372-3.678,12.863a9.043,9.043,0,0,1,2.16-2.884c1.275-1.228,2.123-2.719,3.521-3.867.033-.023.113.025.088.053a41.776,41.776,0,0,0-3,4.109,22.378,22.378,0,0,0-2.66,4.249c0,.008-.015.007-.02.008a26.435,26.435,0,0,0,.419,3.046c1.468,7.4.808,15.165.891,22.617.008.833.03,1.67.05,2.509a191.024,191.024,0,0,0,21.763-1.4c5.144-.668,11.445-1.559,16.2-3.572C3406.477,1101.417,3403.172,1099.289,3401.326,1096.623Z" fill="#ffe67b" opacity="0.5" style="mix-blend-mode: multiply;isolation: isolate"/>
            <path id="Trazado_107095" data-name="Trazado 107095" d="M3401.325,1096.623c-3.766-5.439-5.638-11.634-8.892-17.23-1.082-1.867-2.189-3.837-3.411-5.8a63.221,63.221,0,0,1,2.939,7.2c.968,2.783,1.744,5.558,2.444,8.379a29.821,29.821,0,0,0,4.16,9.146c2.311,3.615-1.857,4.844-6.183,5.922-5.633,1.407-12.127,2.984-18.205,2.592-2.489-.162-4.7-.569-6.423-1.9-1.742-1.349-1.23-4.075-1.481-5.711-.978-6.415-2.429-12.792-3.42-19.206-.075.151-.158.3-.231.451,0,.008-.015.007-.02.008a26.014,26.014,0,0,0,.419,3.046c1.468,7.4.808,15.165.891,22.617.007.833.03,1.67.05,2.509a191.024,191.024,0,0,0,21.763-1.4c5.144-.668,11.445-1.559,16.2-3.572C3406.477,1101.417,3403.172,1099.289,3401.325,1096.623Z" fill="#ffe67b" opacity="0.5" style="mix-blend-mode: multiply;isolation: isolate"/>
          </g>
        </g>
      </g>
    </g>
  </g>
</svg>
