<svg xmlns="http://www.w3.org/2000/svg" width="1086" height="288.219" viewBox="0 0 1086 288.219">
  <g id="Grupo_1069633" data-name="Grupo 1069633" transform="translate(-284 -4429)">
    <g id="Capa_2" data-name="Capa 2" transform="translate(302.816 4429.647)">
      <path id="Trazado_108821" data-name="Trazado 108821" d="M128.4,323.608c-2.067-2.512,286.859-3.884,284.831-6.585-29.264-38.979-54.6-116.87-127.881-121.66-43.067-2.814-101.8,54.531-125.482,86.492-8.746,11.8-19.067,26.615-31.468,41.753" transform="translate(-40.61 -195.263)" fill="#baefe4" opacity="0.41"/>
      <path id="Trazado_108822" data-name="Trazado 108822" d="M143.084,309.09c2.156-1.679,51.439-54.75,67.915-65.218,16.79-10.669,35.291-26.613,70.09-25.782s48.121,8.823,62.577,20.707c14.884,12.235,43.774,38.179,53.736,55.249s15.725,25.931,15.725,25.931-.494,17-1.212,17-244.02,13.65-244.02,13.65l-41.667-19.158Z" transform="translate(-40.497 -196.45)" fill="#73d8c0" opacity="0.47"/>
      <path id="Trazado_108823" data-name="Trazado 108823" d="M35.785,394.31,47.28,485.1H504.232l12.737-91.473s-57.083-4.083-108.565-74.338c-28.81-39.316-74.479-80.545-129.318-80.545-53.936,0-130.6,56.118-155.514,87.13C101.546,353.3,87.511,372.541,35.785,394.31Z" transform="translate(-35.785 -197.528)" fill="#e8e8e8"/>
    </g>
    <g id="Capa_1" data-name="Capa 1" transform="translate(284 4429.531)">
      <line id="Línea_208" data-name="Línea 208" x1="496.438" y1="0.878" transform="translate(3.348 196.871)" fill="none" stroke="#505050" stroke-miterlimit="10" stroke-width="2"/>
      <g id="Grupo_58870" data-name="Grupo 58870" transform="translate(274.052 44.514)">
        <path id="Trazado_108824" data-name="Trazado 108824" d="M313.041,254.2l4.322.018-5.31-12.5-5.589,12.456,4.323.018-.868,80.138,2.254.009Z" transform="translate(-306.465 -241.715)" fill="#f5947a"/>
      </g>
      <g id="Grupo_58871" data-name="Grupo 58871" transform="translate(255.597 23.426)">
        <path id="Trazado_108825" data-name="Trazado 108825" d="M292.156,237.006l4.322.024-5.31-17.176-5.589,17.115,4.323.024-1.008,127.891,2.254.013Z" transform="translate(-285.58 -219.854)" fill="#73d8c0"/>
      </g>
      <g id="Grupo_58872" data-name="Grupo 58872" transform="translate(237.141)">
        <path id="Trazado_108826" data-name="Trazado 108826" d="M272.686,215.481l4.322.029L271.7,195.14l-5.589,20.3,4.323.029L269.27,390.557l2.253.015Z" transform="translate(-266.11 -195.14)" fill="#025157"/>
      </g>
      <g id="Grupo_58873" data-name="Grupo 58873" transform="translate(0 2.027)">
        <path id="Trazado_108827" data-name="Trazado 108827" d="M22.511,217.619l4.322.029-5.31-20.369-5.589,20.3,4.323.029L19.094,392.7l2.254.015Z" transform="translate(-15.934 -197.279)" fill="#505050"/>
      </g>
      <g id="Grupo_58874" data-name="Grupo 58874" transform="translate(18.077 99.135)">
        <path id="Trazado_108828" data-name="Trazado 108828" d="M37.433,307.31l-1.063,3.217H35L38.479,300.3h1.593l3.489,10.227H42.15l-1.092-3.217Zm3.353-1.031-1-2.943c-.227-.668-.38-1.275-.532-1.866h-.029c-.153.607-.319,1.229-.517,1.851l-1,2.958Z" transform="translate(-35.005 -299.754)" fill="#2c2b2b"/>
        <path id="Trazado_108829" data-name="Trazado 108829" d="M45.517,299.724h1.336V310.5H45.517Z" transform="translate(-35.553 -299.724)" fill="#2c2b2b"/>
        <path id="Trazado_108830" data-name="Trazado 108830" d="M50.856,301.117v2.109h1.911v1.016H50.856v3.96c0,.91.258,1.427,1,1.427a2.955,2.955,0,0,0,.773-.092l.061,1a3.268,3.268,0,0,1-1.183.182,1.852,1.852,0,0,1-1.442-.561,2.722,2.722,0,0,1-.516-1.912v-4.006H48.413v-1.016H49.55v-1.76Z" transform="translate(-35.704 -299.797)" fill="#2c2b2b"/>
        <path id="Trazado_108831" data-name="Trazado 108831" d="M60.731,308.682c0,.758.015,1.426.062,2H59.608l-.076-1.2H59.5a2.762,2.762,0,0,1-2.428,1.366c-1.153,0-2.534-.637-2.534-3.216v-4.294h1.335v4.066c0,1.4.425,2.337,1.639,2.337a1.931,1.931,0,0,0,1.76-1.214,1.952,1.952,0,0,0,.121-.682v-4.506h1.335Z" transform="translate(-36.023 -299.913)" fill="#2c2b2b"/>
        <path id="Trazado_108832" data-name="Trazado 108832" d="M63.4,305.624c0-.865-.015-1.609-.061-2.291h1.168l.046,1.441h.062a2.2,2.2,0,0,1,2.032-1.608,1.444,1.444,0,0,1,.379.046v1.259a2.008,2.008,0,0,0-.455-.045,1.874,1.874,0,0,0-1.791,1.715,3.861,3.861,0,0,0-.061.622v3.915H63.4Z" transform="translate(-36.481 -299.903)" fill="#2c2b2b"/>
        <path id="Trazado_108833" data-name="Trazado 108833" d="M72.591,310.676l-.106-.926H72.44a2.736,2.736,0,0,1-2.247,1.093,2.092,2.092,0,0,1-2.246-2.109c0-1.775,1.578-2.746,4.415-2.731v-.152a1.514,1.514,0,0,0-1.668-1.7,3.658,3.658,0,0,0-1.912.546l-.3-.88a4.556,4.556,0,0,1,2.412-.652c2.246,0,2.792,1.532,2.792,3v2.746a10.348,10.348,0,0,0,.121,1.76Zm-.2-3.748c-1.456-.03-3.11.227-3.11,1.654a1.182,1.182,0,0,0,1.26,1.275,1.827,1.827,0,0,0,1.774-1.229,1.393,1.393,0,0,0,.076-.425Z" transform="translate(-36.721 -299.903)" fill="#2c2b2b"/>
        <path id="Trazado_108834" data-name="Trazado 108834" d="M85.973,299.724V308.6c0,.652.015,1.4.061,1.9h-1.2l-.061-1.275h-.03a2.715,2.715,0,0,1-2.5,1.442c-1.774,0-3.14-1.5-3.14-3.733-.015-2.443,1.5-3.944,3.292-3.944a2.455,2.455,0,0,1,2.215,1.122h.03v-4.385Zm-1.336,6.418a2.355,2.355,0,0,0-.061-.561,1.963,1.963,0,0,0-1.927-1.548c-1.38,0-2.2,1.214-2.2,2.837,0,1.487.729,2.716,2.17,2.716a2.007,2.007,0,0,0,1.957-1.592,2.326,2.326,0,0,0,.061-.577Z" transform="translate(-37.302 -299.724)" fill="#2c2b2b"/>
        <path id="Trazado_108835" data-name="Trazado 108835" d="M89.4,307.247a2.353,2.353,0,0,0,2.519,2.55,4.829,4.829,0,0,0,2.033-.38l.227.956a5.947,5.947,0,0,1-2.443.455,3.41,3.41,0,0,1-3.611-3.7c0-2.215,1.3-3.959,3.444-3.959,2.4,0,3.034,2.109,3.034,3.459a5.035,5.035,0,0,1-.045.622Zm3.915-.955a1.9,1.9,0,0,0-1.851-2.17,2.213,2.213,0,0,0-2.048,2.17Z" transform="translate(-37.773 -299.903)" fill="#2c2b2b"/>
        <path id="Trazado_108836" data-name="Trazado 108836" d="M40.978,329.6a4.917,4.917,0,0,1-2.109.425,3.488,3.488,0,0,1-3.656-3.747,3.731,3.731,0,0,1,3.945-3.9,4.461,4.461,0,0,1,1.85.379l-.3,1.032a3.083,3.083,0,0,0-1.547-.35,2.769,2.769,0,0,0-.046,5.523,3.777,3.777,0,0,0,1.639-.365Z" transform="translate(-35.016 -300.905)" fill="#2c2b2b"/>
        <path id="Trazado_108837" data-name="Trazado 108837" d="M46.975,329.876l-.105-.925h-.045a2.737,2.737,0,0,1-2.246,1.092,2.092,2.092,0,0,1-2.246-2.109c0-1.774,1.578-2.746,4.415-2.731v-.152a1.515,1.515,0,0,0-1.669-1.7,3.661,3.661,0,0,0-1.912.546l-.3-.88a4.557,4.557,0,0,1,2.412-.652c2.246,0,2.792,1.532,2.792,3v2.746a10.348,10.348,0,0,0,.121,1.76Zm-.2-3.748c-1.456-.03-3.11.228-3.11,1.654a1.182,1.182,0,0,0,1.26,1.275,1.826,1.826,0,0,0,1.774-1.229,1.365,1.365,0,0,0,.076-.425Z" transform="translate(-35.387 -300.904)" fill="#2c2b2b"/>
        <path id="Trazado_108838" data-name="Trazado 108838" d="M50.589,329.7c.03-.5.061-1.244.061-1.9v-8.876h1.319v4.613H52a2.733,2.733,0,0,1,2.5-1.351c1.821,0,3.111,1.517,3.1,3.747,0,2.625-1.654,3.93-3.293,3.93a2.616,2.616,0,0,1-2.458-1.381H51.8l-.061,1.214Zm1.38-2.943a2.575,2.575,0,0,0,.061.485,2.061,2.061,0,0,0,2,1.563c1.4,0,2.23-1.138,2.23-2.822,0-1.472-.758-2.732-2.184-2.732a2.131,2.131,0,0,0-2.034,1.639,2.63,2.63,0,0,0-.076.546Z" transform="translate(-35.817 -300.724)" fill="#2c2b2b"/>
        <path id="Trazado_108839" data-name="Trazado 108839" d="M60.471,326.447A2.353,2.353,0,0,0,62.99,329a4.811,4.811,0,0,0,2.033-.38l.227.956a5.947,5.947,0,0,1-2.443.455,3.41,3.41,0,0,1-3.611-3.7c0-2.214,1.3-3.959,3.444-3.959,2.4,0,3.034,2.109,3.034,3.459a4.851,4.851,0,0,1-.046.622Zm3.915-.956a1.9,1.9,0,0,0-1.851-2.169,2.212,2.212,0,0,0-2.048,2.169Z" transform="translate(-36.265 -300.904)" fill="#2c2b2b"/>
        <path id="Trazado_108840" data-name="Trazado 108840" d="M66.892,329.112l3.322-4.324c.319-.394.623-.744.956-1.138v-.03H67.2v-1.077h5.6l-.015.834L69.5,327.64c-.3.409-.607.773-.94,1.154v.029h4.294v1.063H66.892Z" transform="translate(-36.666 -300.913)" fill="#2c2b2b"/>
        <path id="Trazado_108841" data-name="Trazado 108841" d="M78.655,329.876l-.106-.925H78.5a2.736,2.736,0,0,1-2.246,1.092,2.092,2.092,0,0,1-2.246-2.109c0-1.774,1.578-2.746,4.415-2.731v-.152a1.514,1.514,0,0,0-1.669-1.7,3.663,3.663,0,0,0-1.912.546l-.3-.88a4.559,4.559,0,0,1,2.412-.652c2.246,0,2.793,1.532,2.793,3v2.746a10.354,10.354,0,0,0,.12,1.76Zm-.2-3.748c-1.457-.03-3.111.228-3.111,1.654a1.182,1.182,0,0,0,1.26,1.275,1.828,1.828,0,0,0,1.775-1.229,1.393,1.393,0,0,0,.076-.425Z" transform="translate(-37.037 -300.904)" fill="#2c2b2b"/>
      </g>
    </g>
    <g id="Capa_3" data-name="Capa 3" transform="translate(315.038 4429)">
      <rect id="Rectángulo_6458" data-name="Rectángulo 6458" width="1.295" height="1.295" transform="translate(0 191.058)" fill="#17100d"/>
      <rect id="Rectángulo_6459" data-name="Rectángulo 6459" width="1.295" height="1.295" transform="translate(11.978 185.19)" fill="#17100d"/>
      <rect id="Rectángulo_6460" data-name="Rectángulo 6460" width="1.295" height="1.295" transform="translate(23.39 178.432)" fill="#17100d"/>
      <rect id="Rectángulo_6461" data-name="Rectángulo 6461" width="1.295" height="1.295" transform="translate(41.803 165.04)" fill="#17100d"/>
      <rect id="Rectángulo_6462" data-name="Rectángulo 6462" width="1.295" height="1.295" transform="translate(55.4 151.686)" fill="#17100d"/>
      <rect id="Rectángulo_6463" data-name="Rectángulo 6463" width="1.295" height="1.295" transform="translate(65.841 139.664)" fill="#17100d"/>
      <rect id="Rectángulo_6464" data-name="Rectángulo 6464" width="1.295" height="1.295" transform="translate(69.281 135.455)" fill="#17100d"/>
      <rect id="Rectángulo_6465" data-name="Rectángulo 6465" width="1.295" height="1.295" transform="translate(73.165 130.478)" fill="#17100d"/>
      <rect id="Rectángulo_6466" data-name="Rectángulo 6466" width="1.295" height="1.295" transform="translate(76.848 126.026)" fill="#17100d"/>
      <rect id="Rectángulo_6467" data-name="Rectángulo 6467" width="1.295" height="1.295" transform="translate(80.045 122.182)" fill="#17100d"/>
      <rect id="Rectángulo_6468" data-name="Rectángulo 6468" width="1.295" height="1.295" transform="translate(86.277 113.684)" fill="#17100d"/>
      <rect id="Rectángulo_6469" data-name="Rectángulo 6469" width="1.295" height="1.295" transform="translate(96.07 100.694)" fill="#17100d"/>
      <rect id="Rectángulo_6470" data-name="Rectángulo 6470" width="1.295" height="1.295" transform="translate(105.418 87.894)" fill="#17100d"/>
      <rect id="Rectángulo_6471" data-name="Rectángulo 6471" width="1.295" height="1.295" transform="translate(125.652 63.909)" fill="#17100d"/>
      <rect id="Rectángulo_6472" data-name="Rectángulo 6472" width="1.295" height="1.295" transform="translate(127.311 74.228)" fill="#17100d"/>
      <rect id="Rectángulo_6473" data-name="Rectángulo 6473" width="1.295" height="1.295" transform="translate(137.671 63.909)" fill="#17100d"/>
      <rect id="Rectángulo_6474" data-name="Rectángulo 6474" width="1.295" height="1.295" transform="translate(148.759 54.277)" fill="#17100d"/>
      <rect id="Rectángulo_6475" data-name="Rectángulo 6475" width="1.295" height="1.295" transform="translate(169.6 39.628)" fill="#17100d"/>
      <rect id="Rectángulo_6476" data-name="Rectángulo 6476" width="1.295" height="1.295" transform="translate(179.555 33.517)" fill="#17100d"/>
      <rect id="Rectángulo_6477" data-name="Rectángulo 6477" width="1.295" height="1.295" transform="translate(171.178 23.36)" fill="#17100d"/>
      <rect id="Rectángulo_6478" data-name="Rectángulo 6478" width="1.295" height="1.295" transform="translate(181.659 16.116)" fill="#17100d"/>
      <rect id="Rectángulo_6479" data-name="Rectángulo 6479" width="1.295" height="1.295" transform="translate(192.383 10.208)" fill="#17100d"/>
      <rect id="Rectángulo_6480" data-name="Rectángulo 6480" width="1.295" height="1.295" transform="translate(209.541 3.288)" fill="#17100d"/>
      <rect id="Rectángulo_6481" data-name="Rectángulo 6481" width="1.295" height="1.295" transform="translate(215.48 1.548)" fill="#17100d"/>
      <rect id="Rectángulo_6482" data-name="Rectángulo 6482" width="1.295" height="1.295" transform="translate(221.753 0.647)" fill="#17100d"/>
      <rect id="Rectángulo_6483" data-name="Rectángulo 6483" width="1.295" height="1.295" transform="translate(228.632)" fill="#17100d"/>
      <rect id="Rectángulo_6484" data-name="Rectángulo 6484" width="1.295" height="1.295" transform="translate(242.189 1.295)" fill="#17100d"/>
      <rect id="Rectángulo_6485" data-name="Rectángulo 6485" width="1.295" height="1.295" transform="translate(256.231 4.735)" fill="#17100d"/>
      <rect id="Rectángulo_6486" data-name="Rectángulo 6486" width="1.295" height="1.295" transform="translate(255.229 24.442)" fill="#17100d"/>
      <rect id="Rectángulo_6487" data-name="Rectángulo 6487" width="1.295" height="1.295" transform="translate(269.352 10.279)" fill="#17100d"/>
      <rect id="Rectángulo_6488" data-name="Rectángulo 6488" width="1.295" height="1.295" transform="translate(268.705 28.611)" fill="#17100d"/>
      <rect id="Rectángulo_6489" data-name="Rectángulo 6489" width="1.295" height="1.295" transform="translate(291.61 25.495)" fill="#17100d"/>
      <rect id="Rectángulo_6490" data-name="Rectángulo 6490" width="1.295" height="1.295" transform="translate(300.715 34.317)" fill="#17100d"/>
      <rect id="Rectángulo_6491" data-name="Rectángulo 6491" width="1.295" height="1.295" transform="translate(290.112 42.41)" fill="#17100d"/>
      <rect id="Rectángulo_6492" data-name="Rectángulo 6492" width="1.295" height="1.295" transform="translate(270.162 48.602)" fill="#17100d"/>
      <rect id="Rectángulo_6493" data-name="Rectángulo 6493" width="1.295" height="1.295" transform="translate(291.407 58.445)" fill="#17100d"/>
      <rect id="Rectángulo_6494" data-name="Rectángulo 6494" width="1.295" height="1.295" transform="translate(299.946 63.525)" fill="#17100d"/>
      <rect id="Rectángulo_6495" data-name="Rectángulo 6495" width="1.295" height="1.295" transform="translate(306.785 56.565)" fill="#17100d"/>
      <rect id="Rectángulo_6496" data-name="Rectángulo 6496" width="1.295" height="1.295" transform="translate(308.727 43.705)" fill="#17100d"/>
      <rect id="Rectángulo_6497" data-name="Rectángulo 6497" width="1.295" height="1.295" transform="translate(322.972 63.342)" fill="#17100d"/>
      <rect id="Rectángulo_6498" data-name="Rectángulo 6498" width="1.295" height="1.295" transform="translate(322.567 71.719)" fill="#17100d"/>
      <rect id="Rectángulo_6499" data-name="Rectángulo 6499" width="1.295" height="1.295" transform="translate(329.204 78.801)" fill="#17100d"/>
      <rect id="Rectángulo_6500" data-name="Rectángulo 6500" width="1.295" height="1.295" transform="translate(334.951 82.402)" fill="#17100d"/>
      <rect id="Rectángulo_6501" data-name="Rectángulo 6501" width="1.295" height="1.295" transform="translate(334.951 92.276)" fill="#17100d"/>
      <rect id="Rectángulo_6502" data-name="Rectángulo 6502" width="1.295" height="1.295" transform="translate(345.513 100.127)" fill="#17100d"/>
      <rect id="Rectángulo_6503" data-name="Rectángulo 6503" width="1.295" height="1.295" transform="translate(357.693 119.187)" fill="#17100d"/>
      <rect id="Rectángulo_6504" data-name="Rectángulo 6504" width="1.295" height="1.295" transform="translate(364.33 128.009)" fill="#17100d"/>
      <rect id="Rectángulo_6505" data-name="Rectángulo 6505" width="1.295" height="1.295" transform="translate(368.984 133.877)" fill="#17100d"/>
      <rect id="Rectángulo_6506" data-name="Rectángulo 6506" width="1.295" height="1.295" transform="translate(373.961 139.745)" fill="#17100d"/>
      <rect id="Rectángulo_6507" data-name="Rectángulo 6507" width="1.295" height="1.295" transform="translate(379.424 145.37)" fill="#17100d"/>
      <rect id="Rectángulo_6508" data-name="Rectángulo 6508" width="1.295" height="1.295" transform="translate(392.738 158.279)" fill="#17100d"/>
      <rect id="Rectángulo_6509" data-name="Rectángulo 6509" width="1.295" height="1.295" transform="translate(401.398 165.04)" fill="#17100d"/>
      <rect id="Rectángulo_6510" data-name="Rectángulo 6510" width="1.295" height="1.295" transform="translate(410.22 171.957)" fill="#17100d"/>
      <rect id="Rectángulo_6511" data-name="Rectángulo 6511" width="1.295" height="1.295" transform="translate(430.94 184.097)" fill="#17100d"/>
      <rect id="Rectángulo_6512" data-name="Rectángulo 6512" width="1.295" height="1.295" transform="translate(443.485 189.642)" fill="#17100d"/>
      <rect id="Rectángulo_6513" data-name="Rectángulo 6513" width="1.295" height="1.295" transform="translate(456.191 193.769)" fill="#17100d"/>
      <rect id="Rectángulo_6514" data-name="Rectángulo 6514" width="1.295" height="1.295" transform="translate(352.149 110.932)" fill="#17100d"/>
      <rect id="Rectángulo_6515" data-name="Rectángulo 6515" width="1.295" height="1.295" transform="translate(329.204 72.65)" fill="#17100d"/>
      <rect id="Rectángulo_6516" data-name="Rectángulo 6516" width="1.295" height="1.295" transform="translate(328.557 86.328)" fill="#17100d"/>
      <rect id="Rectángulo_6517" data-name="Rectángulo 6517" width="1.295" height="1.295" transform="translate(322.325 80.662)" fill="#17100d"/>
      <rect id="Rectángulo_6518" data-name="Rectángulo 6518" width="1.295" height="1.295" transform="translate(298.651 49.483)" fill="#17100d"/>
      <rect id="Rectángulo_6519" data-name="Rectángulo 6519" width="1.295" height="1.295" transform="translate(308.08 69.291)" fill="#17100d"/>
      <rect id="Rectángulo_6520" data-name="Rectángulo 6520" width="1.295" height="1.295" transform="translate(256.808 44.312)" fill="#17100d"/>
      <rect id="Rectángulo_6521" data-name="Rectángulo 6521" width="1.295" height="1.295" transform="translate(241.218 22.419)" fill="#17100d"/>
      <rect id="Rectángulo_6522" data-name="Rectángulo 6522" width="1.295" height="1.295" transform="translate(189.874 28.499)" fill="#17100d"/>
      <rect id="Rectángulo_6523" data-name="Rectángulo 6523" width="1.295" height="1.295" transform="translate(207.923 23.198)" fill="#17100d"/>
      <rect id="Rectángulo_6524" data-name="Rectángulo 6524" width="1.295" height="1.295" transform="translate(210.391 43.594)" fill="#17100d"/>
      <rect id="Rectángulo_6525" data-name="Rectángulo 6525" width="1.295" height="1.295" transform="translate(222.846 41.692)" fill="#17100d"/>
      <rect id="Rectángulo_6526" data-name="Rectángulo 6526" width="1.295" height="1.295" transform="translate(221.105 21.609)" fill="#17100d"/>
      <rect id="Rectángulo_6527" data-name="Rectángulo 6527" width="1.295" height="1.295" transform="translate(227.54 21.609)" fill="#17100d"/>
      <rect id="Rectángulo_6528" data-name="Rectángulo 6528" width="1.295" height="1.295" transform="translate(214.185 22.256)" fill="#17100d"/>
      <rect id="Rectángulo_6529" data-name="Rectángulo 6529" width="1.295" height="1.295" transform="translate(193.354 48.207)" fill="#17100d"/>
      <rect id="Rectángulo_6530" data-name="Rectángulo 6530" width="1.295" height="1.295" transform="translate(172.756 56.665)" fill="#17100d"/>
      <rect id="Rectángulo_6531" data-name="Rectángulo 6531" width="1.295" height="1.295" transform="translate(183.318 51.768)" fill="#17100d"/>
      <rect id="Rectángulo_6532" data-name="Rectángulo 6532" width="1.295" height="1.295" transform="translate(148.759 41.215)" fill="#17100d"/>
      <rect id="Rectángulo_6533" data-name="Rectángulo 6533" width="1.295" height="1.295" transform="translate(137.226 52.052)" fill="#17100d"/>
      <rect id="Rectángulo_6534" data-name="Rectángulo 6534" width="1.295" height="1.295" transform="translate(48.925 158.565)" fill="#17100d"/>
    </g>
    <path id="Trazado_773612" data-name="Trazado 773612" d="M5,0H533a5,5,0,0,1,5,5V33a5,5,0,0,1-5,5H5a5,5,0,0,1-5-5V5A5,5,0,0,1,5,0Z" transform="translate(832 4435)" fill="#f5947a"/>
    <path id="Trazado_773606" data-name="Trazado 773606" d="M5,0H533a5,5,0,0,1,5,5V33a5,5,0,0,1-5,5H5a5,5,0,0,1-5-5V5A5,5,0,0,1,5,0Z" transform="translate(832 4503)" fill="#73d8c0"/>
    <path id="Trazado_773607" data-name="Trazado 773607" d="M4,0H534a4,4,0,0,1,4,4V34a4,4,0,0,1-4,4H4a4,4,0,0,1-4-4V4A4,4,0,0,1,4,0Z" transform="translate(832 4574)" fill="#025157"/>
    <path id="Trazado_773613" data-name="Trazado 773613" d="M9.094,16.531A6.571,6.571,0,0,1,6,17.188a4.989,4.989,0,0,1-3.828-1.539A5.679,5.679,0,0,1,.734,11.609,5.952,5.952,0,0,1,2.352,7.266a5.489,5.489,0,0,1,4.1-1.656,6.576,6.576,0,0,1,2.641.461v1.4A5.355,5.355,0,0,0,6.438,6.8,4.076,4.076,0,0,0,3.309,8.086a4.856,4.856,0,0,0-1.2,3.445A4.621,4.621,0,0,0,3.23,14.793a3.815,3.815,0,0,0,2.941,1.215,5.518,5.518,0,0,0,2.922-.75ZM16.93,17H15.648V15.75h-.031a2.682,2.682,0,0,1-2.461,1.438,2.63,2.63,0,0,1-1.871-.633,2.192,2.192,0,0,1-.676-1.68q0-2.242,2.641-2.609l2.4-.336q0-2.039-1.648-2.039a3.938,3.938,0,0,0-2.609.984V9.563a4.958,4.958,0,0,1,2.719-.75q2.82,0,2.82,2.984Zm-1.281-4.047-1.93.266a3.133,3.133,0,0,0-1.344.441,1.273,1.273,0,0,0-.453,1.121,1.221,1.221,0,0,0,.418.957,1.615,1.615,0,0,0,1.113.371,2.056,2.056,0,0,0,1.574-.668,2.387,2.387,0,0,0,.621-1.691Zm5.008,2.891h-.031V17H19.344V5.156h1.281v5.25h.031a3.03,3.03,0,0,1,2.766-1.594,2.932,2.932,0,0,1,2.41,1.074,4.436,4.436,0,0,1,.871,2.879,4.959,4.959,0,0,1-.977,3.215,3.251,3.251,0,0,1-2.672,1.207A2.631,2.631,0,0,1,20.656,15.844Zm-.031-3.227v1.117a2.379,2.379,0,0,0,.645,1.684,2.3,2.3,0,0,0,3.461-.2,4.086,4.086,0,0,0,.66-2.477,3.225,3.225,0,0,0-.617-2.094A2.043,2.043,0,0,0,23.1,9.891a2.27,2.27,0,0,0-1.8.777A2.854,2.854,0,0,0,20.625,12.617Zm14.555.7H29.531a2.992,2.992,0,0,0,.719,2.063,2.478,2.478,0,0,0,1.891.727,3.931,3.931,0,0,0,2.484-.891v1.2a4.643,4.643,0,0,1-2.789.766,3.381,3.381,0,0,1-2.664-1.09,4.461,4.461,0,0,1-.969-3.066,4.375,4.375,0,0,1,1.059-3.043,3.394,3.394,0,0,1,2.629-1.176,3.008,3.008,0,0,1,2.43,1.016,4.234,4.234,0,0,1,.859,2.82Zm-1.312-1.086a2.607,2.607,0,0,0-.535-1.727,1.823,1.823,0,0,0-1.465-.617,2.07,2.07,0,0,0-1.539.648,2.943,2.943,0,0,0-.781,1.7ZM42.7,9.367l-4.734,6.539h4.688V17h-6.57v-.4l4.734-6.508H36.523V9H42.7ZM50.078,17H48.8V15.75h-.031A2.682,2.682,0,0,1,46.3,17.188a2.63,2.63,0,0,1-1.871-.633,2.192,2.192,0,0,1-.676-1.68q0-2.242,2.641-2.609l2.4-.336q0-2.039-1.648-2.039a3.938,3.938,0,0,0-2.609.984V9.563a4.958,4.958,0,0,1,2.719-.75q2.82,0,2.82,2.984ZM48.8,12.953l-1.93.266a3.133,3.133,0,0,0-1.344.441,1.273,1.273,0,0,0-.453,1.121,1.221,1.221,0,0,0,.418.957,1.615,1.615,0,0,0,1.113.371,2.056,2.056,0,0,0,1.574-.668A2.387,2.387,0,0,0,48.8,13.75ZM63.7,17H62.422V15.641h-.031a2.958,2.958,0,0,1-2.75,1.547,2.988,2.988,0,0,1-2.41-1.074,4.407,4.407,0,0,1-.9-2.926,4.794,4.794,0,0,1,1-3.18,3.3,3.3,0,0,1,2.664-1.2,2.564,2.564,0,0,1,2.4,1.3h.031V5.156H63.7Zm-1.281-3.617V12.2a2.289,2.289,0,0,0-.641-1.641,2.149,2.149,0,0,0-1.625-.672,2.212,2.212,0,0,0-1.844.859,3.766,3.766,0,0,0-.672,2.375,3.387,3.387,0,0,0,.645,2.184,2.107,2.107,0,0,0,1.73.8,2.188,2.188,0,0,0,1.738-.773A2.882,2.882,0,0,0,62.422,13.383Zm10.3-.062H67.078a2.992,2.992,0,0,0,.719,2.063,2.478,2.478,0,0,0,1.891.727,3.931,3.931,0,0,0,2.484-.891v1.2a4.643,4.643,0,0,1-2.789.766,3.381,3.381,0,0,1-2.664-1.09,4.461,4.461,0,0,1-.969-3.066,4.375,4.375,0,0,1,1.059-3.043,3.394,3.394,0,0,1,2.629-1.176,3.008,3.008,0,0,1,2.43,1.016,4.234,4.234,0,0,1,.859,2.82Zm-1.312-1.086a2.607,2.607,0,0,0-.535-1.727,1.823,1.823,0,0,0-1.465-.617,2.07,2.07,0,0,0-1.539.648,2.943,2.943,0,0,0-.781,1.7ZM90.406,17H89.125V12.406a3.466,3.466,0,0,0-.41-1.922,1.555,1.555,0,0,0-1.379-.594,1.708,1.708,0,0,0-1.395.75,2.869,2.869,0,0,0-.574,1.8V17H84.086V12.25q0-2.359-1.82-2.359a1.686,1.686,0,0,0-1.391.707,2.923,2.923,0,0,0-.547,1.84V17H79.047V9h1.281v1.266h.031a2.718,2.718,0,0,1,2.484-1.453,2.311,2.311,0,0,1,2.266,1.656,2.855,2.855,0,0,1,2.656-1.656q2.641,0,2.641,3.258Zm8.148,0H97.273V15.75h-.031a2.682,2.682,0,0,1-2.461,1.438,2.63,2.63,0,0,1-1.871-.633,2.192,2.192,0,0,1-.676-1.68q0-2.242,2.641-2.609l2.4-.336q0-2.039-1.648-2.039a3.938,3.938,0,0,0-2.609.984V9.563a4.958,4.958,0,0,1,2.719-.75q2.82,0,2.82,2.984Zm-1.281-4.047-1.93.266A3.133,3.133,0,0,0,94,13.66a1.273,1.273,0,0,0-.453,1.121,1.221,1.221,0,0,0,.418.957,1.615,1.615,0,0,0,1.113.371,2.056,2.056,0,0,0,1.574-.668,2.387,2.387,0,0,0,.621-1.691ZM107.609,17h-1.281V12.438q0-2.547-1.859-2.547a2.017,2.017,0,0,0-1.59.723,2.679,2.679,0,0,0-.629,1.824V17h-1.281V9h1.281v1.328h.031a2.887,2.887,0,0,1,2.625-1.516,2.448,2.448,0,0,1,2.008.848,3.776,3.776,0,0,1,.7,2.449Zm9.242-.641q0,4.406-4.219,4.406a5.664,5.664,0,0,1-2.594-.562V18.922a5.327,5.327,0,0,0,2.578.75q2.953,0,2.953-3.141v-.875h-.031a3.237,3.237,0,0,1-5.152.465,4.263,4.263,0,0,1-.91-2.863,4.981,4.981,0,0,1,.98-3.242,3.275,3.275,0,0,1,2.684-1.2,2.608,2.608,0,0,1,2.4,1.3h.031V9h1.281Zm-1.281-2.977V12.2a2.289,2.289,0,0,0-.645-1.633,2.122,2.122,0,0,0-1.605-.68,2.225,2.225,0,0,0-1.859.863,3.853,3.853,0,0,0-.672,2.418,3.308,3.308,0,0,0,.645,2.137,2.082,2.082,0,0,0,1.707.8,2.23,2.23,0,0,0,1.754-.766A2.854,2.854,0,0,0,115.57,13.383Zm9.6,3.617h-1.281V15.75h-.031a2.682,2.682,0,0,1-2.461,1.438,2.63,2.63,0,0,1-1.871-.633,2.192,2.192,0,0,1-.676-1.68q0-2.242,2.641-2.609l2.4-.336q0-2.039-1.648-2.039a3.938,3.938,0,0,0-2.609.984V9.563a4.958,4.958,0,0,1,2.719-.75q2.82,0,2.82,2.984Zm-1.281-4.047-1.93.266a3.133,3.133,0,0,0-1.344.441,1.273,1.273,0,0,0-.453,1.121,1.221,1.221,0,0,0,.418.957,1.615,1.615,0,0,0,1.113.371,2.056,2.056,0,0,0,1.574-.668,2.387,2.387,0,0,0,.621-1.691ZM138.8,17h-1.281V15.641h-.031a2.958,2.958,0,0,1-2.75,1.547,2.988,2.988,0,0,1-2.41-1.074,4.407,4.407,0,0,1-.9-2.926,4.794,4.794,0,0,1,1-3.18,3.3,3.3,0,0,1,2.664-1.2,2.564,2.564,0,0,1,2.4,1.3h.031V5.156H138.8Zm-1.281-3.617V12.2a2.289,2.289,0,0,0-.641-1.641,2.149,2.149,0,0,0-1.625-.672,2.212,2.212,0,0,0-1.844.859,3.766,3.766,0,0,0-.672,2.375,3.387,3.387,0,0,0,.645,2.184,2.107,2.107,0,0,0,1.73.8,2.188,2.188,0,0,0,1.738-.773A2.882,2.882,0,0,0,137.516,13.383Zm10.3-.062h-5.648a2.992,2.992,0,0,0,.719,2.063,2.478,2.478,0,0,0,1.891.727,3.931,3.931,0,0,0,2.484-.891v1.2a4.643,4.643,0,0,1-2.789.766,3.381,3.381,0,0,1-2.664-1.09,4.461,4.461,0,0,1-.969-3.066A4.374,4.374,0,0,1,141.9,9.988a3.394,3.394,0,0,1,2.629-1.176,3.008,3.008,0,0,1,2.43,1.016,4.234,4.234,0,0,1,.859,2.82Zm-1.312-1.086a2.607,2.607,0,0,0-.535-1.727,1.823,1.823,0,0,0-1.465-.617,2.07,2.07,0,0,0-1.539.648,2.943,2.943,0,0,0-.781,1.7Zm4.563,3.609h-.031V20.68h-1.281V9h1.281v1.406h.031a3.03,3.03,0,0,1,2.766-1.594,2.93,2.93,0,0,1,2.414,1.074,4.449,4.449,0,0,1,.867,2.879,4.958,4.958,0,0,1-.977,3.215,3.251,3.251,0,0,1-2.672,1.207A2.676,2.676,0,0,1,151.07,15.844Zm-.031-3.227v1.117a2.379,2.379,0,0,0,.645,1.684,2.3,2.3,0,0,0,3.461-.2,4.086,4.086,0,0,0,.66-2.477,3.225,3.225,0,0,0-.617-2.094,2.043,2.043,0,0,0-1.672-.758,2.27,2.27,0,0,0-1.8.777A2.854,2.854,0,0,0,151.039,12.617Zm11.469,4.57a3.711,3.711,0,0,1-2.832-1.121,4.153,4.153,0,0,1-1.059-2.973,4.326,4.326,0,0,1,1.1-3.148A3.96,3.96,0,0,1,162.7,8.813a3.588,3.588,0,0,1,2.793,1.1,4.368,4.368,0,0,1,1,3.055,4.3,4.3,0,0,1-1.082,3.066A3.791,3.791,0,0,1,162.508,17.188Zm.094-7.3a2.437,2.437,0,0,0-1.953.84,3.449,3.449,0,0,0-.719,2.316,3.262,3.262,0,0,0,.727,2.242,2.469,2.469,0,0,0,1.945.82,2.342,2.342,0,0,0,1.91-.8,3.492,3.492,0,0,0,.668-2.289,3.552,3.552,0,0,0-.668-2.312A2.332,2.332,0,0,0,162.6,9.891Zm10.109.406a1.567,1.567,0,0,0-.969-.258,1.635,1.635,0,0,0-1.371.773,3.576,3.576,0,0,0-.551,2.109V17h-1.281V9h1.281v1.648h.031a2.794,2.794,0,0,1,.836-1.316,1.906,1.906,0,0,1,1.258-.473,2.092,2.092,0,0,1,.766.109Zm5.1,6.625a2.47,2.47,0,0,1-1.2.25q-2.1,0-2.1-2.344V10.094h-1.375V9h1.375V7.047l1.281-.414V9h2.016v1.094H175.8V14.6a1.869,1.869,0,0,0,.273,1.148,1.091,1.091,0,0,0,.906.344,1.347,1.347,0,0,0,.836-.266Zm2.367-9.953a.812.812,0,0,1-.586-.234.791.791,0,0,1-.242-.594.821.821,0,0,1,.828-.836.827.827,0,0,1,.6.238.835.835,0,0,1,0,1.184A.82.82,0,0,1,180.18,6.969ZM180.8,17h-1.281V9H180.8Zm8.883-8L186.5,17h-1.258l-3.031-8h1.406l2.031,5.813a5.216,5.216,0,0,1,.281,1.117h.031a5.283,5.283,0,0,1,.25-1.086L188.336,9Zm7.1,8h-1.281V15.75h-.031a2.682,2.682,0,0,1-2.461,1.438,2.63,2.63,0,0,1-1.871-.633,2.192,2.192,0,0,1-.676-1.68q0-2.242,2.641-2.609l2.4-.336q0-2.039-1.648-2.039a3.938,3.938,0,0,0-2.609.984V9.563a4.958,4.958,0,0,1,2.719-.75q2.82,0,2.82,2.984Zm-1.281-4.047-1.93.266a3.133,3.133,0,0,0-1.344.441,1.273,1.273,0,0,0-.453,1.121,1.221,1.221,0,0,0,.418.957,1.615,1.615,0,0,0,1.113.371,2.056,2.056,0,0,0,1.574-.668,2.387,2.387,0,0,0,.621-1.691Zm15.938-1.766H204.1V10.156h7.344Zm0,3.328H204.1V13.484h7.344Zm6.688,2.273v-2a5.256,5.256,0,0,0,1.215.547,4.028,4.028,0,0,0,1.145.18,2.455,2.455,0,0,0,1.035-.18.581.581,0,0,0,.379-.547.506.506,0,0,0-.172-.391,1.6,1.6,0,0,0-.441-.273,5.009,5.009,0,0,0-.59-.211q-.32-.094-.617-.211a5.914,5.914,0,0,1-.84-.387,2.427,2.427,0,0,1-.609-.48,1.889,1.889,0,0,1-.375-.633,2.525,2.525,0,0,1-.129-.852,2.192,2.192,0,0,1,.293-1.156,2.393,2.393,0,0,1,.781-.793,3.57,3.57,0,0,1,1.117-.453,5.825,5.825,0,0,1,1.309-.145,7.261,7.261,0,0,1,1.078.082,8.047,8.047,0,0,1,1.078.238v1.906a3.9,3.9,0,0,0-1-.41,4.235,4.235,0,0,0-1.051-.137,2.328,2.328,0,0,0-.457.043,1.505,1.505,0,0,0-.379.125.7.7,0,0,0-.258.211.486.486,0,0,0-.094.293.541.541,0,0,0,.141.375,1.221,1.221,0,0,0,.367.27,3.625,3.625,0,0,0,.5.2q.277.09.551.184a7.161,7.161,0,0,1,.891.375,2.848,2.848,0,0,1,.684.477,1.871,1.871,0,0,1,.438.641,2.563,2.563,0,0,1-.156,2.09,2.471,2.471,0,0,1-.82.82,3.72,3.72,0,0,1-1.18.461,6.54,6.54,0,0,1-1.387.145A7.149,7.149,0,0,1,218.133,16.789Zm8.813-9.055a1.442,1.442,0,0,1-1.023-.371,1.2,1.2,0,0,1-.4-.91,1.153,1.153,0,0,1,.4-.906,1.671,1.671,0,0,1,2.051,0,1.158,1.158,0,0,1,.395.906,1.191,1.191,0,0,1-.395.922A1.466,1.466,0,0,1,226.945,7.734ZM228.164,17H225.7V9h2.469Zm1.555-.211v-2a5.256,5.256,0,0,0,1.215.547,4.028,4.028,0,0,0,1.145.18,2.455,2.455,0,0,0,1.035-.18.581.581,0,0,0,.379-.547.506.506,0,0,0-.172-.391,1.6,1.6,0,0,0-.441-.273,5.009,5.009,0,0,0-.59-.211q-.32-.094-.617-.211a5.914,5.914,0,0,1-.84-.387,2.427,2.427,0,0,1-.609-.48,1.889,1.889,0,0,1-.375-.633,2.525,2.525,0,0,1-.129-.852,2.192,2.192,0,0,1,.293-1.156,2.393,2.393,0,0,1,.781-.793,3.57,3.57,0,0,1,1.117-.453,5.825,5.825,0,0,1,1.309-.145,7.261,7.261,0,0,1,1.078.082,8.047,8.047,0,0,1,1.078.238v1.906a3.9,3.9,0,0,0-1-.41,4.235,4.235,0,0,0-1.051-.137,2.328,2.328,0,0,0-.457.043,1.505,1.505,0,0,0-.379.125.7.7,0,0,0-.258.211.486.486,0,0,0-.094.293.541.541,0,0,0,.141.375,1.221,1.221,0,0,0,.367.27,3.625,3.625,0,0,0,.5.2q.277.09.551.184a7.161,7.161,0,0,1,.891.375,2.848,2.848,0,0,1,.684.477,1.871,1.871,0,0,1,.438.641,2.563,2.563,0,0,1-.156,2.09,2.471,2.471,0,0,1-.82.82,3.72,3.72,0,0,1-1.18.461,6.54,6.54,0,0,1-1.387.145A7.149,7.149,0,0,1,229.719,16.789ZM243.938,17H241.6V15.852h-.031a2.607,2.607,0,0,1-2.383,1.344,2.492,2.492,0,0,1-1.832-.66,2.366,2.366,0,0,1-.668-1.762q0-2.328,2.758-2.687l2.172-.289q0-1.312-1.422-1.312a4.853,4.853,0,0,0-2.719.852V9.477a6.116,6.116,0,0,1,1.41-.469,7.413,7.413,0,0,1,1.629-.2q3.422,0,3.422,3.414Zm-2.32-3.25v-.539l-1.453.188q-1.2.156-1.2,1.086a.9.9,0,0,0,.293.691,1.126,1.126,0,0,0,.793.27,1.462,1.462,0,0,0,1.133-.48A1.735,1.735,0,0,0,241.617,13.75ZM258.133,17h-2.469V15.9h-.031a2.768,2.768,0,0,1-2.477,1.3,3.033,3.033,0,0,1-2.414-1.059,4.382,4.382,0,0,1-.914-2.957A4.77,4.77,0,0,1,250.836,10a3.287,3.287,0,0,1,2.641-1.2,2.246,2.246,0,0,1,2.156,1.109h.031V5.156h2.469Zm-2.422-3.891v-.6a1.893,1.893,0,0,0-.453-1.3,1.6,1.6,0,0,0-2.461.129,2.993,2.993,0,0,0-.461,1.77,2.59,2.59,0,0,0,.445,1.625,1.581,1.581,0,0,0,2.457-.031A2.507,2.507,0,0,0,255.711,13.109ZM267.4,13.7H262.18q.125,1.742,2.2,1.742a4.286,4.286,0,0,0,2.32-.625V16.6a6.1,6.1,0,0,1-2.883.594,4.058,4.058,0,0,1-3.008-1.074,4.059,4.059,0,0,1-1.07-3,4.281,4.281,0,0,1,1.156-3.156A3.852,3.852,0,0,1,263.734,8.8a3.5,3.5,0,0,1,2.707,1.039,4,4,0,0,1,.957,2.82Zm-2.289-1.516q0-1.719-1.391-1.719a1.328,1.328,0,0,0-1.027.492,2.234,2.234,0,0,0-.527,1.227ZM271.336,17h-2.469V5.156h2.469Zm8.734,0h-2.336V15.852H277.7A2.607,2.607,0,0,1,275.32,17.2a2.492,2.492,0,0,1-1.832-.66,2.366,2.366,0,0,1-.668-1.762q0-2.328,2.758-2.687l2.172-.289q0-1.312-1.422-1.312a4.853,4.853,0,0,0-2.719.852V9.477a6.117,6.117,0,0,1,1.41-.469,7.413,7.413,0,0,1,1.629-.2q3.422,0,3.422,3.414Zm-2.32-3.25v-.539L276.3,13.4q-1.2.156-1.2,1.086a.9.9,0,0,0,.293.691,1.126,1.126,0,0,0,.793.27,1.462,1.462,0,0,0,1.133-.48A1.735,1.735,0,0,0,277.75,13.75Zm12,3.25h-2.461V12.555q0-1.859-1.328-1.859a1.318,1.318,0,0,0-1.055.492,1.875,1.875,0,0,0-.414,1.25V17h-2.469V9h2.469v1.266h.031a2.829,2.829,0,0,1,2.57-1.461q2.656,0,2.656,3.3Zm6.789-.094a3.649,3.649,0,0,1-1.648.289q-2.609,0-2.609-2.711V10.82h-1.3V9h1.3V7.273l2.461-.7V9h1.8v1.82h-1.8v3.234q0,1.25.992,1.25a1.673,1.673,0,0,0,.8-.227Zm8.516-3.2h-5.219q.125,1.742,2.2,1.742a4.286,4.286,0,0,0,2.32-.625V16.6a6.1,6.1,0,0,1-2.883.594,4.058,4.058,0,0,1-3.008-1.074,4.059,4.059,0,0,1-1.07-3,4.281,4.281,0,0,1,1.156-3.156A3.852,3.852,0,0,1,301.391,8.8,3.5,3.5,0,0,1,304.1,9.844a4,4,0,0,1,.957,2.82Zm-2.289-1.516q0-1.719-1.391-1.719a1.328,1.328,0,0,0-1.027.492,2.234,2.234,0,0,0-.527,1.227Zm8.977-.961a2.141,2.141,0,0,0-1.039-.242,1.5,1.5,0,0,0-1.258.59,2.573,2.573,0,0,0-.453,1.605V17h-2.469V9h2.469v1.484h.031a2.136,2.136,0,0,1,2.109-1.625,1.59,1.59,0,0,1,.609.094Zm7.8,5.773h-2.336V15.852h-.031A2.607,2.607,0,0,1,314.8,17.2a2.492,2.492,0,0,1-1.832-.66,2.366,2.366,0,0,1-.668-1.762q0-2.328,2.758-2.687l2.172-.289q0-1.312-1.422-1.312a4.853,4.853,0,0,0-2.719.852V9.477a6.117,6.117,0,0,1,1.41-.469,7.413,7.413,0,0,1,1.629-.2q3.422,0,3.422,3.414Zm-2.32-3.25v-.539l-1.453.188q-1.2.156-1.2,1.086a.9.9,0,0,0,.293.691,1.126,1.126,0,0,0,.793.27,1.462,1.462,0,0,0,1.133-.48A1.735,1.735,0,0,0,317.227,13.75Zm17.117-.539h-3.008v3.008h-1.578V13.211h-3.023V11.625h3.023V8.6h1.578v3.023h3.008Zm6.773,3.578v-2a5.256,5.256,0,0,0,1.215.547,4.028,4.028,0,0,0,1.145.18,2.455,2.455,0,0,0,1.035-.18.581.581,0,0,0,.379-.547.506.506,0,0,0-.172-.391,1.6,1.6,0,0,0-.441-.273,5.01,5.01,0,0,0-.59-.211q-.32-.094-.617-.211a5.913,5.913,0,0,1-.84-.387,2.427,2.427,0,0,1-.609-.48,1.889,1.889,0,0,1-.375-.633,2.525,2.525,0,0,1-.129-.852,2.192,2.192,0,0,1,.293-1.156,2.393,2.393,0,0,1,.781-.793,3.57,3.57,0,0,1,1.117-.453,5.825,5.825,0,0,1,1.309-.145,7.261,7.261,0,0,1,1.078.082,8.046,8.046,0,0,1,1.078.238v1.906a3.9,3.9,0,0,0-1-.41,4.235,4.235,0,0,0-1.051-.137,2.328,2.328,0,0,0-.457.043,1.505,1.505,0,0,0-.379.125.7.7,0,0,0-.258.211.486.486,0,0,0-.094.293.541.541,0,0,0,.141.375,1.221,1.221,0,0,0,.367.27,3.624,3.624,0,0,0,.5.2q.277.09.551.184a7.161,7.161,0,0,1,.891.375,2.847,2.847,0,0,1,.684.477,1.872,1.872,0,0,1,.438.641,2.563,2.563,0,0,1-.156,2.09,2.47,2.47,0,0,1-.82.82,3.72,3.72,0,0,1-1.18.461,6.54,6.54,0,0,1-1.387.145A7.149,7.149,0,0,1,341.117,16.789Zm8.813-9.055a1.442,1.442,0,0,1-1.023-.371,1.2,1.2,0,0,1-.4-.91,1.153,1.153,0,0,1,.4-.906,1.671,1.671,0,0,1,2.051,0,1.158,1.158,0,0,1,.395.906,1.191,1.191,0,0,1-.395.922A1.466,1.466,0,0,1,349.93,7.734ZM351.148,17H348.68V9h2.469Zm1.555-.211v-2a5.256,5.256,0,0,0,1.215.547,4.028,4.028,0,0,0,1.145.18,2.455,2.455,0,0,0,1.035-.18.581.581,0,0,0,.379-.547.506.506,0,0,0-.172-.391,1.6,1.6,0,0,0-.441-.273,5.01,5.01,0,0,0-.59-.211q-.32-.094-.617-.211a5.913,5.913,0,0,1-.84-.387,2.427,2.427,0,0,1-.609-.48,1.889,1.889,0,0,1-.375-.633,2.525,2.525,0,0,1-.129-.852A2.192,2.192,0,0,1,353,10.2a2.393,2.393,0,0,1,.781-.793,3.57,3.57,0,0,1,1.117-.453A5.825,5.825,0,0,1,356.2,8.8a7.261,7.261,0,0,1,1.078.082,8.046,8.046,0,0,1,1.078.238v1.906a3.9,3.9,0,0,0-1-.41,4.235,4.235,0,0,0-1.051-.137,2.328,2.328,0,0,0-.457.043,1.505,1.505,0,0,0-.379.125.7.7,0,0,0-.258.211.486.486,0,0,0-.094.293.541.541,0,0,0,.141.375,1.221,1.221,0,0,0,.367.27,3.624,3.624,0,0,0,.5.2q.277.09.551.184a7.161,7.161,0,0,1,.891.375,2.847,2.847,0,0,1,.684.477,1.872,1.872,0,0,1,.438.641,2.563,2.563,0,0,1-.156,2.09,2.47,2.47,0,0,1-.82.82,3.72,3.72,0,0,1-1.18.461,6.54,6.54,0,0,1-1.387.145A7.149,7.149,0,0,1,352.7,16.789ZM366.922,17h-2.336V15.852h-.031a2.607,2.607,0,0,1-2.383,1.344,2.492,2.492,0,0,1-1.832-.66,2.366,2.366,0,0,1-.668-1.762q0-2.328,2.758-2.687L364.6,11.8q0-1.312-1.422-1.312a4.853,4.853,0,0,0-2.719.852V9.477a6.117,6.117,0,0,1,1.41-.469,7.413,7.413,0,0,1,1.629-.2q3.422,0,3.422,3.414Zm-2.32-3.25v-.539l-1.453.188q-1.2.156-1.2,1.086a.9.9,0,0,0,.293.691,1.126,1.126,0,0,0,.793.27,1.462,1.462,0,0,0,1.133-.48A1.735,1.735,0,0,0,364.6,13.75Zm11.188,2.32h-.031V20.68h-2.469V9h2.469v1.2h.031a3.142,3.142,0,0,1,4.973-.332,4.54,4.54,0,0,1,.848,2.9,4.922,4.922,0,0,1-.988,3.211,3.222,3.222,0,0,1-2.629,1.211A2.491,2.491,0,0,1,375.789,16.07Zm-.07-3.281v.641a2.037,2.037,0,0,0,.438,1.352,1.424,1.424,0,0,0,1.148.523,1.514,1.514,0,0,0,1.309-.652,3.15,3.15,0,0,0,.465-1.848q0-2.109-1.641-2.109a1.541,1.541,0,0,0-1.238.574A2.29,2.29,0,0,0,375.719,12.789Zm11.3,4.406a4.3,4.3,0,0,1-3.145-1.121,4.064,4.064,0,0,1-1.145-3.043,4.065,4.065,0,0,1,1.188-3.105A4.487,4.487,0,0,1,387.133,8.8a4.249,4.249,0,0,1,3.125,1.121,3.985,3.985,0,0,1,1.133,2.965,4.23,4.23,0,0,1-1.168,3.148A4.348,4.348,0,0,1,387.023,17.2Zm.063-6.5a1.647,1.647,0,0,0-1.359.6,2.653,2.653,0,0,0-.484,1.7q0,2.3,1.859,2.3,1.773,0,1.773-2.367Q388.875,10.7,387.086,10.7Zm5.383,6.094v-2a5.256,5.256,0,0,0,1.215.547,4.028,4.028,0,0,0,1.145.18,2.455,2.455,0,0,0,1.035-.18.581.581,0,0,0,.379-.547.506.506,0,0,0-.172-.391,1.6,1.6,0,0,0-.441-.273,5.01,5.01,0,0,0-.59-.211q-.32-.094-.617-.211a5.913,5.913,0,0,1-.84-.387,2.427,2.427,0,0,1-.609-.48,1.889,1.889,0,0,1-.375-.633,2.525,2.525,0,0,1-.129-.852,2.192,2.192,0,0,1,.293-1.156,2.393,2.393,0,0,1,.781-.793,3.57,3.57,0,0,1,1.117-.453,5.825,5.825,0,0,1,1.309-.145,7.261,7.261,0,0,1,1.078.082,8.046,8.046,0,0,1,1.078.238v1.906a3.9,3.9,0,0,0-1-.41,4.235,4.235,0,0,0-1.051-.137,2.328,2.328,0,0,0-.457.043,1.505,1.505,0,0,0-.379.125.7.7,0,0,0-.258.211.486.486,0,0,0-.094.293.541.541,0,0,0,.141.375,1.221,1.221,0,0,0,.367.27,3.624,3.624,0,0,0,.5.2q.277.09.551.184a7.161,7.161,0,0,1,.891.375,2.847,2.847,0,0,1,.684.477,1.872,1.872,0,0,1,.438.641,2.563,2.563,0,0,1-.156,2.09,2.47,2.47,0,0,1-.82.82,3.72,3.72,0,0,1-1.18.461,6.54,6.54,0,0,1-1.387.145A7.149,7.149,0,0,1,392.469,16.789Zm12.4.117a3.649,3.649,0,0,1-1.648.289q-2.609,0-2.609-2.711V10.82h-1.3V9h1.3V7.273l2.461-.7V9h1.8v1.82h-1.8v3.234q0,1.25.992,1.25a1.673,1.673,0,0,0,.8-.227Zm8.516-3.2h-5.219q.125,1.742,2.2,1.742a4.286,4.286,0,0,0,2.32-.625V16.6a6.1,6.1,0,0,1-2.883.594,4.058,4.058,0,0,1-3.008-1.074,4.059,4.059,0,0,1-1.07-3,4.281,4.281,0,0,1,1.156-3.156A3.852,3.852,0,0,1,409.719,8.8a3.5,3.5,0,0,1,2.707,1.039,4,4,0,0,1,.957,2.82Zm-2.289-1.516q0-1.719-1.391-1.719a1.328,1.328,0,0,0-1.027.492,2.234,2.234,0,0,0-.527,1.227Zm8.977-.961a2.141,2.141,0,0,0-1.039-.242,1.5,1.5,0,0,0-1.258.59,2.573,2.573,0,0,0-.453,1.605V17h-2.469V9h2.469v1.484h.031a2.136,2.136,0,0,1,2.109-1.625,1.59,1.59,0,0,1,.609.094Zm2.461-3.492a1.442,1.442,0,0,1-1.023-.371,1.2,1.2,0,0,1-.4-.91,1.153,1.153,0,0,1,.4-.906,1.671,1.671,0,0,1,2.051,0,1.158,1.158,0,0,1,.395.906,1.191,1.191,0,0,1-.395.922A1.466,1.466,0,0,1,422.531,7.734ZM423.75,17h-2.469V9h2.469Zm5.891.2a4.3,4.3,0,0,1-3.145-1.121,4.064,4.064,0,0,1-1.145-3.043,4.065,4.065,0,0,1,1.188-3.105A4.487,4.487,0,0,1,429.75,8.8a4.249,4.249,0,0,1,3.125,1.121,3.985,3.985,0,0,1,1.133,2.965,4.23,4.23,0,0,1-1.168,3.148A4.348,4.348,0,0,1,429.641,17.2Zm.063-6.5a1.647,1.647,0,0,0-1.359.6,2.653,2.653,0,0,0-.484,1.7q0,2.3,1.859,2.3,1.773,0,1.773-2.367Q431.492,10.7,429.7,10.7Zm11.125.531a2.141,2.141,0,0,0-1.039-.242,1.5,1.5,0,0,0-1.258.59,2.573,2.573,0,0,0-.453,1.605V17h-2.469V9h2.469v1.484h.031a2.136,2.136,0,0,1,2.109-1.625,1.59,1.59,0,0,1,.609.094Zm11.8-5.43-5.461,13.063h-2.2L450.406,5.8Zm5.336,10.914V14.6a4.605,4.605,0,0,0,2.445.7,2.3,2.3,0,0,0,1.527-.465,1.565,1.565,0,0,0,.551-1.262q0-1.664-2.352-1.664a17.413,17.413,0,0,0-2,.133l.422-6.25h5.93V7.813h-4.047l-.156,2.242q.6-.047,1.039-.047a3.821,3.821,0,0,1,2.7.906,3.165,3.165,0,0,1,.977,2.438,3.6,3.6,0,0,1-1.164,2.77,4.473,4.473,0,0,1-3.156,1.074A6.754,6.754,0,0,1,457.969,16.711Z" transform="translate(843 4446)" fill="#12263f"/>
    <path id="Trazado_773608" data-name="Trazado 773608" d="M9.094,16.531A6.571,6.571,0,0,1,6,17.188a4.989,4.989,0,0,1-3.828-1.539A5.679,5.679,0,0,1,.734,11.609,5.952,5.952,0,0,1,2.352,7.266a5.489,5.489,0,0,1,4.1-1.656,6.576,6.576,0,0,1,2.641.461v1.4A5.355,5.355,0,0,0,6.438,6.8,4.076,4.076,0,0,0,3.309,8.086a4.856,4.856,0,0,0-1.2,3.445A4.621,4.621,0,0,0,3.23,14.793a3.815,3.815,0,0,0,2.941,1.215,5.518,5.518,0,0,0,2.922-.75ZM16.93,17H15.648V15.75h-.031a2.682,2.682,0,0,1-2.461,1.438,2.63,2.63,0,0,1-1.871-.633,2.192,2.192,0,0,1-.676-1.68q0-2.242,2.641-2.609l2.4-.336q0-2.039-1.648-2.039a3.938,3.938,0,0,0-2.609.984V9.563a4.958,4.958,0,0,1,2.719-.75q2.82,0,2.82,2.984Zm-1.281-4.047-1.93.266a3.133,3.133,0,0,0-1.344.441,1.273,1.273,0,0,0-.453,1.121,1.221,1.221,0,0,0,.418.957,1.615,1.615,0,0,0,1.113.371,2.056,2.056,0,0,0,1.574-.668,2.387,2.387,0,0,0,.621-1.691Zm5.008,2.891h-.031V17H19.344V5.156h1.281v5.25h.031a3.03,3.03,0,0,1,2.766-1.594,2.932,2.932,0,0,1,2.41,1.074,4.436,4.436,0,0,1,.871,2.879,4.959,4.959,0,0,1-.977,3.215,3.251,3.251,0,0,1-2.672,1.207A2.631,2.631,0,0,1,20.656,15.844Zm-.031-3.227v1.117a2.379,2.379,0,0,0,.645,1.684,2.3,2.3,0,0,0,3.461-.2,4.086,4.086,0,0,0,.66-2.477,3.225,3.225,0,0,0-.617-2.094A2.043,2.043,0,0,0,23.1,9.891a2.27,2.27,0,0,0-1.8.777A2.854,2.854,0,0,0,20.625,12.617Zm14.555.7H29.531a2.992,2.992,0,0,0,.719,2.063,2.478,2.478,0,0,0,1.891.727,3.931,3.931,0,0,0,2.484-.891v1.2a4.643,4.643,0,0,1-2.789.766,3.381,3.381,0,0,1-2.664-1.09,4.461,4.461,0,0,1-.969-3.066,4.375,4.375,0,0,1,1.059-3.043,3.394,3.394,0,0,1,2.629-1.176,3.008,3.008,0,0,1,2.43,1.016,4.234,4.234,0,0,1,.859,2.82Zm-1.312-1.086a2.607,2.607,0,0,0-.535-1.727,1.823,1.823,0,0,0-1.465-.617,2.07,2.07,0,0,0-1.539.648,2.943,2.943,0,0,0-.781,1.7ZM42.7,9.367l-4.734,6.539h4.688V17h-6.57v-.4l4.734-6.508H36.523V9H42.7ZM50.078,17H48.8V15.75h-.031A2.682,2.682,0,0,1,46.3,17.188a2.63,2.63,0,0,1-1.871-.633,2.192,2.192,0,0,1-.676-1.68q0-2.242,2.641-2.609l2.4-.336q0-2.039-1.648-2.039a3.938,3.938,0,0,0-2.609.984V9.563a4.958,4.958,0,0,1,2.719-.75q2.82,0,2.82,2.984ZM48.8,12.953l-1.93.266a3.133,3.133,0,0,0-1.344.441,1.273,1.273,0,0,0-.453,1.121,1.221,1.221,0,0,0,.418.957,1.615,1.615,0,0,0,1.113.371,2.056,2.056,0,0,0,1.574-.668A2.387,2.387,0,0,0,48.8,13.75ZM63.7,17H62.422V15.641h-.031a2.958,2.958,0,0,1-2.75,1.547,2.988,2.988,0,0,1-2.41-1.074,4.407,4.407,0,0,1-.9-2.926,4.794,4.794,0,0,1,1-3.18,3.3,3.3,0,0,1,2.664-1.2,2.564,2.564,0,0,1,2.4,1.3h.031V5.156H63.7Zm-1.281-3.617V12.2a2.289,2.289,0,0,0-.641-1.641,2.149,2.149,0,0,0-1.625-.672,2.212,2.212,0,0,0-1.844.859,3.766,3.766,0,0,0-.672,2.375,3.387,3.387,0,0,0,.645,2.184,2.107,2.107,0,0,0,1.73.8,2.188,2.188,0,0,0,1.738-.773A2.882,2.882,0,0,0,62.422,13.383Zm10.3-.062H67.078a2.992,2.992,0,0,0,.719,2.063,2.478,2.478,0,0,0,1.891.727,3.931,3.931,0,0,0,2.484-.891v1.2a4.643,4.643,0,0,1-2.789.766,3.381,3.381,0,0,1-2.664-1.09,4.461,4.461,0,0,1-.969-3.066,4.375,4.375,0,0,1,1.059-3.043,3.394,3.394,0,0,1,2.629-1.176,3.008,3.008,0,0,1,2.43,1.016,4.234,4.234,0,0,1,.859,2.82Zm-1.312-1.086a2.607,2.607,0,0,0-.535-1.727,1.823,1.823,0,0,0-1.465-.617,2.07,2.07,0,0,0-1.539.648,2.943,2.943,0,0,0-.781,1.7ZM90.406,17H89.125V12.406a3.466,3.466,0,0,0-.41-1.922,1.555,1.555,0,0,0-1.379-.594,1.708,1.708,0,0,0-1.395.75,2.869,2.869,0,0,0-.574,1.8V17H84.086V12.25q0-2.359-1.82-2.359a1.686,1.686,0,0,0-1.391.707,2.923,2.923,0,0,0-.547,1.84V17H79.047V9h1.281v1.266h.031a2.718,2.718,0,0,1,2.484-1.453,2.311,2.311,0,0,1,2.266,1.656,2.855,2.855,0,0,1,2.656-1.656q2.641,0,2.641,3.258Zm8.148,0H97.273V15.75h-.031a2.682,2.682,0,0,1-2.461,1.438,2.63,2.63,0,0,1-1.871-.633,2.192,2.192,0,0,1-.676-1.68q0-2.242,2.641-2.609l2.4-.336q0-2.039-1.648-2.039a3.938,3.938,0,0,0-2.609.984V9.563a4.958,4.958,0,0,1,2.719-.75q2.82,0,2.82,2.984Zm-1.281-4.047-1.93.266A3.133,3.133,0,0,0,94,13.66a1.273,1.273,0,0,0-.453,1.121,1.221,1.221,0,0,0,.418.957,1.615,1.615,0,0,0,1.113.371,2.056,2.056,0,0,0,1.574-.668,2.387,2.387,0,0,0,.621-1.691ZM107.609,17h-1.281V12.438q0-2.547-1.859-2.547a2.017,2.017,0,0,0-1.59.723,2.679,2.679,0,0,0-.629,1.824V17h-1.281V9h1.281v1.328h.031a2.887,2.887,0,0,1,2.625-1.516,2.448,2.448,0,0,1,2.008.848,3.776,3.776,0,0,1,.7,2.449Zm9.242-.641q0,4.406-4.219,4.406a5.664,5.664,0,0,1-2.594-.562V18.922a5.327,5.327,0,0,0,2.578.75q2.953,0,2.953-3.141v-.875h-.031a3.237,3.237,0,0,1-5.152.465,4.263,4.263,0,0,1-.91-2.863,4.981,4.981,0,0,1,.98-3.242,3.275,3.275,0,0,1,2.684-1.2,2.608,2.608,0,0,1,2.4,1.3h.031V9h1.281Zm-1.281-2.977V12.2a2.289,2.289,0,0,0-.645-1.633,2.122,2.122,0,0,0-1.605-.68,2.225,2.225,0,0,0-1.859.863,3.853,3.853,0,0,0-.672,2.418,3.308,3.308,0,0,0,.645,2.137,2.082,2.082,0,0,0,1.707.8,2.23,2.23,0,0,0,1.754-.766A2.854,2.854,0,0,0,115.57,13.383Zm9.6,3.617h-1.281V15.75h-.031a2.682,2.682,0,0,1-2.461,1.438,2.63,2.63,0,0,1-1.871-.633,2.192,2.192,0,0,1-.676-1.68q0-2.242,2.641-2.609l2.4-.336q0-2.039-1.648-2.039a3.938,3.938,0,0,0-2.609.984V9.563a4.958,4.958,0,0,1,2.719-.75q2.82,0,2.82,2.984Zm-1.281-4.047-1.93.266a3.133,3.133,0,0,0-1.344.441,1.273,1.273,0,0,0-.453,1.121,1.221,1.221,0,0,0,.418.957,1.615,1.615,0,0,0,1.113.371,2.056,2.056,0,0,0,1.574-.668,2.387,2.387,0,0,0,.621-1.691Zm13.531,3.68a4.163,4.163,0,0,1-2.187.555,3.622,3.622,0,0,1-2.762-1.113,4.035,4.035,0,0,1-1.051-2.887,4.435,4.435,0,0,1,1.133-3.176,3.963,3.963,0,0,1,3.023-1.2,4.209,4.209,0,0,1,1.859.391v1.313a3.258,3.258,0,0,0-1.906-.625,2.576,2.576,0,0,0-2.012.879,3.335,3.335,0,0,0-.785,2.309,3.176,3.176,0,0,0,.738,2.219,2.545,2.545,0,0,0,1.98.813,3.211,3.211,0,0,0,1.969-.7Zm7.664.367H143.8V15.75h-.031a2.682,2.682,0,0,1-2.461,1.438,2.63,2.63,0,0,1-1.871-.633,2.192,2.192,0,0,1-.676-1.68q0-2.242,2.641-2.609l2.4-.336q0-2.039-1.648-2.039a3.938,3.938,0,0,0-2.609.984V9.563a4.958,4.958,0,0,1,2.719-.75q2.82,0,2.82,2.984ZM143.8,12.953l-1.93.266a3.133,3.133,0,0,0-1.344.441,1.273,1.273,0,0,0-.453,1.121,1.221,1.221,0,0,0,.418.957,1.615,1.615,0,0,0,1.113.371,2.056,2.056,0,0,0,1.574-.668,2.387,2.387,0,0,0,.621-1.691Zm3.211,3.758V15.336a3.792,3.792,0,0,0,2.3.773q1.688,0,1.688-1.125a.976.976,0,0,0-.145-.543,1.44,1.44,0,0,0-.391-.395,3.007,3.007,0,0,0-.578-.309q-.332-.137-.715-.285a9.207,9.207,0,0,1-.934-.426,2.82,2.82,0,0,1-.672-.484,1.8,1.8,0,0,1-.406-.613,2.17,2.17,0,0,1-.137-.8,1.912,1.912,0,0,1,.258-1,2.286,2.286,0,0,1,.688-.727,3.206,3.206,0,0,1,.98-.441,4.349,4.349,0,0,1,1.137-.148,4.59,4.59,0,0,1,1.859.359v1.3a3.624,3.624,0,0,0-2.031-.578,2.374,2.374,0,0,0-.648.082,1.587,1.587,0,0,0-.5.23,1.065,1.065,0,0,0-.32.355.936.936,0,0,0-.113.457,1.1,1.1,0,0,0,.113.523,1.152,1.152,0,0,0,.332.375,2.538,2.538,0,0,0,.531.3q.312.133.711.289a9.894,9.894,0,0,1,.953.418,3.269,3.269,0,0,1,.719.484,1.893,1.893,0,0,1,.457.621,2,2,0,0,1,.16.836,1.971,1.971,0,0,1-.262,1.031,2.243,2.243,0,0,1-.7.727,3.2,3.2,0,0,1-1.008.43,4.976,4.976,0,0,1-1.2.141A4.539,4.539,0,0,1,147.016,16.711ZM160.758,17h-1.281V15.734h-.031a2.631,2.631,0,0,1-2.469,1.453q-2.859,0-2.859-3.406V9h1.273v4.578q0,2.531,1.938,2.531a1.96,1.96,0,0,0,1.543-.691,2.645,2.645,0,0,0,.605-1.809V9h1.281Zm8.313,0h-1.281V15.75h-.031a2.682,2.682,0,0,1-2.461,1.438,2.63,2.63,0,0,1-1.871-.633,2.192,2.192,0,0,1-.676-1.68q0-2.242,2.641-2.609l2.4-.336q0-2.039-1.648-2.039a3.938,3.938,0,0,0-2.609.984V9.563a4.958,4.958,0,0,1,2.719-.75q2.82,0,2.82,2.984Zm-1.281-4.047-1.93.266a3.133,3.133,0,0,0-1.344.441,1.273,1.273,0,0,0-.453,1.121,1.221,1.221,0,0,0,.418.957,1.615,1.615,0,0,0,1.113.371,2.056,2.056,0,0,0,1.574-.668,2.387,2.387,0,0,0,.621-1.691ZM172.766,17h-1.281V5.156h1.281ZM187.6,11.188h-7.344V10.156H187.6Zm0,3.328h-7.344V13.484H187.6Zm6.688,2.273v-2a5.256,5.256,0,0,0,1.215.547,4.028,4.028,0,0,0,1.145.18,2.455,2.455,0,0,0,1.035-.18.581.581,0,0,0,.379-.547.506.506,0,0,0-.172-.391,1.6,1.6,0,0,0-.441-.273,5.009,5.009,0,0,0-.59-.211q-.32-.094-.617-.211a5.914,5.914,0,0,1-.84-.387,2.427,2.427,0,0,1-.609-.48,1.889,1.889,0,0,1-.375-.633,2.525,2.525,0,0,1-.129-.852,2.192,2.192,0,0,1,.293-1.156,2.393,2.393,0,0,1,.781-.793,3.57,3.57,0,0,1,1.117-.453,5.825,5.825,0,0,1,1.309-.145,7.261,7.261,0,0,1,1.078.082,8.047,8.047,0,0,1,1.078.238v1.906a3.9,3.9,0,0,0-1-.41,4.235,4.235,0,0,0-1.051-.137,2.328,2.328,0,0,0-.457.043,1.505,1.505,0,0,0-.379.125.7.7,0,0,0-.258.211.486.486,0,0,0-.094.293.541.541,0,0,0,.141.375,1.221,1.221,0,0,0,.367.27,3.625,3.625,0,0,0,.5.2q.277.09.551.184a7.161,7.161,0,0,1,.891.375,2.848,2.848,0,0,1,.684.477,1.871,1.871,0,0,1,.438.641,2.563,2.563,0,0,1-.156,2.09,2.471,2.471,0,0,1-.82.82,3.72,3.72,0,0,1-1.18.461,6.54,6.54,0,0,1-1.387.145A7.149,7.149,0,0,1,194.289,16.789ZM203.1,7.734a1.442,1.442,0,0,1-1.023-.371,1.2,1.2,0,0,1-.4-.91,1.153,1.153,0,0,1,.4-.906,1.671,1.671,0,0,1,2.051,0,1.158,1.158,0,0,1,.395.906,1.191,1.191,0,0,1-.395.922A1.466,1.466,0,0,1,203.1,7.734ZM204.32,17h-2.469V9h2.469Zm1.555-.211v-2a5.256,5.256,0,0,0,1.215.547,4.028,4.028,0,0,0,1.145.18,2.455,2.455,0,0,0,1.035-.18.581.581,0,0,0,.379-.547.506.506,0,0,0-.172-.391,1.6,1.6,0,0,0-.441-.273,5.009,5.009,0,0,0-.59-.211q-.32-.094-.617-.211a5.914,5.914,0,0,1-.84-.387,2.427,2.427,0,0,1-.609-.48A1.889,1.889,0,0,1,206,12.2a2.525,2.525,0,0,1-.129-.852,2.192,2.192,0,0,1,.293-1.156,2.393,2.393,0,0,1,.781-.793,3.57,3.57,0,0,1,1.117-.453,5.825,5.825,0,0,1,1.309-.145,7.261,7.261,0,0,1,1.078.082,8.047,8.047,0,0,1,1.078.238v1.906a3.9,3.9,0,0,0-1-.41,4.235,4.235,0,0,0-1.051-.137,2.328,2.328,0,0,0-.457.043,1.505,1.505,0,0,0-.379.125.7.7,0,0,0-.258.211.486.486,0,0,0-.094.293.541.541,0,0,0,.141.375,1.221,1.221,0,0,0,.367.27,3.625,3.625,0,0,0,.5.2q.277.09.551.184a7.161,7.161,0,0,1,.891.375,2.848,2.848,0,0,1,.684.477,1.871,1.871,0,0,1,.438.641,2.563,2.563,0,0,1-.156,2.09,2.471,2.471,0,0,1-.82.82,3.72,3.72,0,0,1-1.18.461,6.54,6.54,0,0,1-1.387.145A7.149,7.149,0,0,1,205.875,16.789ZM220.094,17h-2.336V15.852h-.031a2.607,2.607,0,0,1-2.383,1.344,2.492,2.492,0,0,1-1.832-.66,2.366,2.366,0,0,1-.668-1.762q0-2.328,2.758-2.687l2.172-.289q0-1.312-1.422-1.312a4.853,4.853,0,0,0-2.719.852V9.477a6.116,6.116,0,0,1,1.41-.469,7.413,7.413,0,0,1,1.629-.2q3.422,0,3.422,3.414Zm-2.32-3.25v-.539l-1.453.188q-1.2.156-1.2,1.086a.9.9,0,0,0,.293.691,1.126,1.126,0,0,0,.793.27,1.462,1.462,0,0,0,1.133-.48A1.735,1.735,0,0,0,217.773,13.75ZM234.289,17H231.82V15.9h-.031a2.768,2.768,0,0,1-2.477,1.3,3.033,3.033,0,0,1-2.414-1.059,4.382,4.382,0,0,1-.914-2.957A4.77,4.77,0,0,1,226.992,10a3.287,3.287,0,0,1,2.641-1.2,2.246,2.246,0,0,1,2.156,1.109h.031V5.156h2.469Zm-2.422-3.891v-.6a1.893,1.893,0,0,0-.453-1.3,1.6,1.6,0,0,0-2.461.129,2.993,2.993,0,0,0-.461,1.77,2.59,2.59,0,0,0,.445,1.625,1.581,1.581,0,0,0,2.457-.031A2.507,2.507,0,0,0,231.867,13.109Zm11.688.594h-5.219q.125,1.742,2.2,1.742a4.286,4.286,0,0,0,2.32-.625V16.6a6.1,6.1,0,0,1-2.883.594,4.058,4.058,0,0,1-3.008-1.074,4.058,4.058,0,0,1-1.07-3,4.281,4.281,0,0,1,1.156-3.156A3.852,3.852,0,0,1,239.891,8.8,3.5,3.5,0,0,1,242.6,9.844a4,4,0,0,1,.957,2.82Zm-2.289-1.516q0-1.719-1.391-1.719a1.328,1.328,0,0,0-1.027.492,2.234,2.234,0,0,0-.527,1.227ZM247.492,17h-2.469V5.156h2.469Zm8.734,0h-2.336V15.852h-.031a2.607,2.607,0,0,1-2.383,1.344,2.492,2.492,0,0,1-1.832-.66,2.366,2.366,0,0,1-.668-1.762q0-2.328,2.758-2.687l2.172-.289q0-1.312-1.422-1.312a4.853,4.853,0,0,0-2.719.852V9.477a6.116,6.116,0,0,1,1.41-.469,7.413,7.413,0,0,1,1.629-.2q3.422,0,3.422,3.414Zm-2.32-3.25v-.539l-1.453.188q-1.2.156-1.2,1.086a.9.9,0,0,0,.293.691,1.126,1.126,0,0,0,.793.27,1.462,1.462,0,0,0,1.133-.48A1.735,1.735,0,0,0,253.906,13.75Zm12,3.25h-2.461V12.555q0-1.859-1.328-1.859a1.318,1.318,0,0,0-1.055.492,1.875,1.875,0,0,0-.414,1.25V17H258.18V9h2.469v1.266h.031A2.829,2.829,0,0,1,263.25,8.8q2.656,0,2.656,3.3Zm6.789-.094a3.649,3.649,0,0,1-1.648.289q-2.609,0-2.609-2.711V10.82h-1.3V9h1.3V7.273l2.461-.7V9h1.8v1.82h-1.8v3.234q0,1.25.992,1.25a1.673,1.673,0,0,0,.8-.227Zm8.516-3.2h-5.219q.125,1.742,2.2,1.742a4.286,4.286,0,0,0,2.32-.625V16.6a6.1,6.1,0,0,1-2.883.594,4.058,4.058,0,0,1-3.008-1.074,4.059,4.059,0,0,1-1.07-3A4.281,4.281,0,0,1,274.7,9.969,3.852,3.852,0,0,1,277.547,8.8a3.5,3.5,0,0,1,2.707,1.039,4,4,0,0,1,.957,2.82Zm-2.289-1.516q0-1.719-1.391-1.719a1.328,1.328,0,0,0-1.027.492,2.234,2.234,0,0,0-.527,1.227Zm8.977-.961a2.141,2.141,0,0,0-1.039-.242,1.5,1.5,0,0,0-1.258.59,2.573,2.573,0,0,0-.453,1.605V17H282.68V9h2.469v1.484h.031a2.136,2.136,0,0,1,2.109-1.625,1.59,1.59,0,0,1,.609.094ZM295.7,17h-2.336V15.852h-.031a2.607,2.607,0,0,1-2.383,1.344,2.492,2.492,0,0,1-1.832-.66,2.366,2.366,0,0,1-.668-1.762q0-2.328,2.758-2.687l2.172-.289q0-1.312-1.422-1.312a4.853,4.853,0,0,0-2.719.852V9.477a6.117,6.117,0,0,1,1.41-.469,7.413,7.413,0,0,1,1.629-.2q3.422,0,3.422,3.414Zm-2.32-3.25v-.539l-1.453.188q-1.2.156-1.2,1.086a.9.9,0,0,0,.293.691,1.126,1.126,0,0,0,.793.27,1.462,1.462,0,0,0,1.133-.48A1.735,1.735,0,0,0,293.383,13.75Zm17.117-.539h-3.008v3.008h-1.578V13.211h-3.023V11.625h3.023V8.6h1.578v3.023H310.5Zm6.773,3.578v-2a5.256,5.256,0,0,0,1.215.547,4.028,4.028,0,0,0,1.145.18,2.455,2.455,0,0,0,1.035-.18.581.581,0,0,0,.379-.547.506.506,0,0,0-.172-.391,1.6,1.6,0,0,0-.441-.273,5.01,5.01,0,0,0-.59-.211q-.32-.094-.617-.211a5.913,5.913,0,0,1-.84-.387,2.427,2.427,0,0,1-.609-.48,1.889,1.889,0,0,1-.375-.633,2.525,2.525,0,0,1-.129-.852,2.192,2.192,0,0,1,.293-1.156,2.393,2.393,0,0,1,.781-.793,3.57,3.57,0,0,1,1.117-.453,5.825,5.825,0,0,1,1.309-.145,7.261,7.261,0,0,1,1.078.082,8.046,8.046,0,0,1,1.078.238v1.906a3.9,3.9,0,0,0-1-.41,4.235,4.235,0,0,0-1.051-.137,2.328,2.328,0,0,0-.457.043,1.505,1.505,0,0,0-.379.125.7.7,0,0,0-.258.211.486.486,0,0,0-.094.293.541.541,0,0,0,.141.375,1.221,1.221,0,0,0,.367.27,3.624,3.624,0,0,0,.5.2q.277.09.551.184a7.161,7.161,0,0,1,.891.375,2.847,2.847,0,0,1,.684.477,1.872,1.872,0,0,1,.438.641,2.563,2.563,0,0,1-.156,2.09,2.47,2.47,0,0,1-.82.82,3.72,3.72,0,0,1-1.18.461,6.54,6.54,0,0,1-1.387.145A7.149,7.149,0,0,1,317.273,16.789Zm8.813-9.055a1.442,1.442,0,0,1-1.023-.371,1.2,1.2,0,0,1-.4-.91,1.153,1.153,0,0,1,.4-.906,1.671,1.671,0,0,1,2.051,0,1.158,1.158,0,0,1,.395.906,1.191,1.191,0,0,1-.395.922A1.466,1.466,0,0,1,326.086,7.734ZM327.3,17h-2.469V9H327.3Zm1.555-.211v-2a5.256,5.256,0,0,0,1.215.547,4.028,4.028,0,0,0,1.145.18,2.455,2.455,0,0,0,1.035-.18.581.581,0,0,0,.379-.547.506.506,0,0,0-.172-.391,1.6,1.6,0,0,0-.441-.273,5.01,5.01,0,0,0-.59-.211q-.32-.094-.617-.211a5.913,5.913,0,0,1-.84-.387,2.427,2.427,0,0,1-.609-.48,1.889,1.889,0,0,1-.375-.633,2.525,2.525,0,0,1-.129-.852,2.192,2.192,0,0,1,.293-1.156,2.393,2.393,0,0,1,.781-.793,3.57,3.57,0,0,1,1.117-.453,5.825,5.825,0,0,1,1.309-.145,7.261,7.261,0,0,1,1.078.082,8.046,8.046,0,0,1,1.078.238v1.906a3.9,3.9,0,0,0-1-.41,4.235,4.235,0,0,0-1.051-.137,2.328,2.328,0,0,0-.457.043,1.505,1.505,0,0,0-.379.125.7.7,0,0,0-.258.211.486.486,0,0,0-.094.293.541.541,0,0,0,.141.375,1.221,1.221,0,0,0,.367.27,3.624,3.624,0,0,0,.5.2q.277.09.551.184a7.161,7.161,0,0,1,.891.375,2.847,2.847,0,0,1,.684.477,1.872,1.872,0,0,1,.438.641,2.563,2.563,0,0,1-.156,2.09,2.47,2.47,0,0,1-.82.82,3.72,3.72,0,0,1-1.18.461,6.54,6.54,0,0,1-1.387.145A7.149,7.149,0,0,1,328.859,16.789ZM343.078,17h-2.336V15.852h-.031a2.607,2.607,0,0,1-2.383,1.344,2.492,2.492,0,0,1-1.832-.66,2.366,2.366,0,0,1-.668-1.762q0-2.328,2.758-2.687l2.172-.289q0-1.312-1.422-1.312a4.853,4.853,0,0,0-2.719.852V9.477a6.117,6.117,0,0,1,1.41-.469,7.413,7.413,0,0,1,1.629-.2q3.422,0,3.422,3.414Zm-2.32-3.25v-.539L339.3,13.4q-1.2.156-1.2,1.086a.9.9,0,0,0,.293.691,1.126,1.126,0,0,0,.793.27,1.462,1.462,0,0,0,1.133-.48A1.735,1.735,0,0,0,340.758,13.75Zm11.188,2.32h-.031V20.68h-2.469V9h2.469v1.2h.031a3.142,3.142,0,0,1,4.973-.332,4.54,4.54,0,0,1,.848,2.9,4.922,4.922,0,0,1-.988,3.211,3.222,3.222,0,0,1-2.629,1.211A2.491,2.491,0,0,1,351.945,16.07Zm-.07-3.281v.641a2.037,2.037,0,0,0,.438,1.352,1.424,1.424,0,0,0,1.148.523,1.514,1.514,0,0,0,1.309-.652,3.15,3.15,0,0,0,.465-1.848q0-2.109-1.641-2.109a1.541,1.541,0,0,0-1.238.574A2.29,2.29,0,0,0,351.875,12.789Zm11.3,4.406a4.3,4.3,0,0,1-3.145-1.121,4.064,4.064,0,0,1-1.145-3.043,4.065,4.065,0,0,1,1.188-3.105A4.487,4.487,0,0,1,363.289,8.8a4.249,4.249,0,0,1,3.125,1.121,3.985,3.985,0,0,1,1.133,2.965,4.23,4.23,0,0,1-1.168,3.148A4.348,4.348,0,0,1,363.18,17.2Zm.063-6.5a1.647,1.647,0,0,0-1.359.6A2.653,2.653,0,0,0,361.4,13q0,2.3,1.859,2.3,1.773,0,1.773-2.367Q365.031,10.7,363.242,10.7Zm5.383,6.094v-2a5.256,5.256,0,0,0,1.215.547,4.028,4.028,0,0,0,1.145.18,2.455,2.455,0,0,0,1.035-.18.581.581,0,0,0,.379-.547.506.506,0,0,0-.172-.391,1.6,1.6,0,0,0-.441-.273,5.01,5.01,0,0,0-.59-.211q-.32-.094-.617-.211a5.913,5.913,0,0,1-.84-.387,2.427,2.427,0,0,1-.609-.48,1.889,1.889,0,0,1-.375-.633,2.525,2.525,0,0,1-.129-.852,2.192,2.192,0,0,1,.293-1.156A2.393,2.393,0,0,1,369.7,9.4a3.57,3.57,0,0,1,1.117-.453,5.825,5.825,0,0,1,1.309-.145,7.261,7.261,0,0,1,1.078.082,8.046,8.046,0,0,1,1.078.238v1.906a3.9,3.9,0,0,0-1-.41,4.235,4.235,0,0,0-1.051-.137,2.328,2.328,0,0,0-.457.043,1.505,1.505,0,0,0-.379.125.7.7,0,0,0-.258.211.486.486,0,0,0-.094.293.541.541,0,0,0,.141.375,1.221,1.221,0,0,0,.367.27,3.624,3.624,0,0,0,.5.2q.277.09.551.184a7.161,7.161,0,0,1,.891.375,2.847,2.847,0,0,1,.684.477,1.872,1.872,0,0,1,.438.641,2.563,2.563,0,0,1-.156,2.09,2.47,2.47,0,0,1-.82.82,3.72,3.72,0,0,1-1.18.461,6.54,6.54,0,0,1-1.387.145A7.149,7.149,0,0,1,368.625,16.789Zm12.4.117a3.649,3.649,0,0,1-1.648.289q-2.609,0-2.609-2.711V10.82h-1.3V9h1.3V7.273l2.461-.7V9h1.8v1.82h-1.8v3.234q0,1.25.992,1.25a1.673,1.673,0,0,0,.8-.227Zm8.516-3.2H384.32q.125,1.742,2.2,1.742a4.286,4.286,0,0,0,2.32-.625V16.6a6.1,6.1,0,0,1-2.883.594,4.058,4.058,0,0,1-3.008-1.074,4.059,4.059,0,0,1-1.07-3,4.281,4.281,0,0,1,1.156-3.156A3.852,3.852,0,0,1,385.875,8.8a3.5,3.5,0,0,1,2.707,1.039,4,4,0,0,1,.957,2.82Zm-2.289-1.516q0-1.719-1.391-1.719a1.328,1.328,0,0,0-1.027.492,2.234,2.234,0,0,0-.527,1.227Zm8.977-.961a2.141,2.141,0,0,0-1.039-.242,1.5,1.5,0,0,0-1.258.59,2.573,2.573,0,0,0-.453,1.605V17h-2.469V9h2.469v1.484h.031a2.136,2.136,0,0,1,2.109-1.625,1.59,1.59,0,0,1,.609.094Zm2.461-3.492a1.442,1.442,0,0,1-1.023-.371,1.2,1.2,0,0,1-.4-.91,1.153,1.153,0,0,1,.4-.906,1.671,1.671,0,0,1,2.051,0,1.158,1.158,0,0,1,.395.906,1.191,1.191,0,0,1-.395.922A1.466,1.466,0,0,1,398.688,7.734ZM399.906,17h-2.469V9h2.469Zm5.891.2a4.3,4.3,0,0,1-3.145-1.121,4.064,4.064,0,0,1-1.145-3.043A4.065,4.065,0,0,1,402.7,9.926,4.487,4.487,0,0,1,405.906,8.8a4.249,4.249,0,0,1,3.125,1.121,3.985,3.985,0,0,1,1.133,2.965A4.23,4.23,0,0,1,409,16.039,4.348,4.348,0,0,1,405.8,17.2Zm.063-6.5a1.647,1.647,0,0,0-1.359.6,2.653,2.653,0,0,0-.484,1.7q0,2.3,1.859,2.3,1.773,0,1.773-2.367Q407.648,10.7,405.859,10.7Zm11.125.531a2.141,2.141,0,0,0-1.039-.242,1.5,1.5,0,0,0-1.258.59,2.573,2.573,0,0,0-.453,1.605V17h-2.469V9h2.469v1.484h.031a2.136,2.136,0,0,1,2.109-1.625,1.59,1.59,0,0,1,.609.094Zm11.8-5.43-5.461,13.063h-2.2L426.563,5.8Zm11.664,0v7.063H441.8V14.7h-1.344V17H438.2V14.7H433.32v-1.93q.648-.727,1.344-1.59t1.344-1.777q.648-.914,1.207-1.84a18.439,18.439,0,0,0,.949-1.77Zm-4.922,7.063H438.2V8.945q-.273.508-.594,1.027T436.938,11q-.352.5-.711.977T435.531,12.859Z" transform="translate(843 4515)" fill="#12263f"/>
    <path id="Trazado_773609" data-name="Trazado 773609" d="M9.094,16.531A6.571,6.571,0,0,1,6,17.188a4.989,4.989,0,0,1-3.828-1.539A5.679,5.679,0,0,1,.734,11.609,5.952,5.952,0,0,1,2.352,7.266a5.489,5.489,0,0,1,4.1-1.656,6.576,6.576,0,0,1,2.641.461v1.4A5.355,5.355,0,0,0,6.438,6.8,4.076,4.076,0,0,0,3.309,8.086a4.856,4.856,0,0,0-1.2,3.445A4.621,4.621,0,0,0,3.23,14.793a3.815,3.815,0,0,0,2.941,1.215,5.518,5.518,0,0,0,2.922-.75ZM16.93,17H15.648V15.75h-.031a2.682,2.682,0,0,1-2.461,1.438,2.63,2.63,0,0,1-1.871-.633,2.192,2.192,0,0,1-.676-1.68q0-2.242,2.641-2.609l2.4-.336q0-2.039-1.648-2.039a3.938,3.938,0,0,0-2.609.984V9.563a4.958,4.958,0,0,1,2.719-.75q2.82,0,2.82,2.984Zm-1.281-4.047-1.93.266a3.133,3.133,0,0,0-1.344.441,1.273,1.273,0,0,0-.453,1.121,1.221,1.221,0,0,0,.418.957,1.615,1.615,0,0,0,1.113.371,2.056,2.056,0,0,0,1.574-.668,2.387,2.387,0,0,0,.621-1.691Zm5.008,2.891h-.031V17H19.344V5.156h1.281v5.25h.031a3.03,3.03,0,0,1,2.766-1.594,2.932,2.932,0,0,1,2.41,1.074,4.436,4.436,0,0,1,.871,2.879,4.959,4.959,0,0,1-.977,3.215,3.251,3.251,0,0,1-2.672,1.207A2.631,2.631,0,0,1,20.656,15.844Zm-.031-3.227v1.117a2.379,2.379,0,0,0,.645,1.684,2.3,2.3,0,0,0,3.461-.2,4.086,4.086,0,0,0,.66-2.477,3.225,3.225,0,0,0-.617-2.094A2.043,2.043,0,0,0,23.1,9.891a2.27,2.27,0,0,0-1.8.777A2.854,2.854,0,0,0,20.625,12.617Zm14.555.7H29.531a2.992,2.992,0,0,0,.719,2.063,2.478,2.478,0,0,0,1.891.727,3.931,3.931,0,0,0,2.484-.891v1.2a4.643,4.643,0,0,1-2.789.766,3.381,3.381,0,0,1-2.664-1.09,4.461,4.461,0,0,1-.969-3.066,4.375,4.375,0,0,1,1.059-3.043,3.394,3.394,0,0,1,2.629-1.176,3.008,3.008,0,0,1,2.43,1.016,4.234,4.234,0,0,1,.859,2.82Zm-1.312-1.086a2.607,2.607,0,0,0-.535-1.727,1.823,1.823,0,0,0-1.465-.617,2.07,2.07,0,0,0-1.539.648,2.943,2.943,0,0,0-.781,1.7ZM42.7,9.367l-4.734,6.539h4.688V17h-6.57v-.4l4.734-6.508H36.523V9H42.7ZM50.078,17H48.8V15.75h-.031A2.682,2.682,0,0,1,46.3,17.188a2.63,2.63,0,0,1-1.871-.633,2.192,2.192,0,0,1-.676-1.68q0-2.242,2.641-2.609l2.4-.336q0-2.039-1.648-2.039a3.938,3.938,0,0,0-2.609.984V9.563a4.958,4.958,0,0,1,2.719-.75q2.82,0,2.82,2.984ZM48.8,12.953l-1.93.266a3.133,3.133,0,0,0-1.344.441,1.273,1.273,0,0,0-.453,1.121,1.221,1.221,0,0,0,.418.957,1.615,1.615,0,0,0,1.113.371,2.056,2.056,0,0,0,1.574-.668A2.387,2.387,0,0,0,48.8,13.75ZM63.7,17H62.422V15.641h-.031a2.958,2.958,0,0,1-2.75,1.547,2.988,2.988,0,0,1-2.41-1.074,4.407,4.407,0,0,1-.9-2.926,4.794,4.794,0,0,1,1-3.18,3.3,3.3,0,0,1,2.664-1.2,2.564,2.564,0,0,1,2.4,1.3h.031V5.156H63.7Zm-1.281-3.617V12.2a2.289,2.289,0,0,0-.641-1.641,2.149,2.149,0,0,0-1.625-.672,2.212,2.212,0,0,0-1.844.859,3.766,3.766,0,0,0-.672,2.375,3.387,3.387,0,0,0,.645,2.184,2.107,2.107,0,0,0,1.73.8,2.188,2.188,0,0,0,1.738-.773A2.882,2.882,0,0,0,62.422,13.383Zm10.3-.062H67.078a2.992,2.992,0,0,0,.719,2.063,2.478,2.478,0,0,0,1.891.727,3.931,3.931,0,0,0,2.484-.891v1.2a4.643,4.643,0,0,1-2.789.766,3.381,3.381,0,0,1-2.664-1.09,4.461,4.461,0,0,1-.969-3.066,4.375,4.375,0,0,1,1.059-3.043,3.394,3.394,0,0,1,2.629-1.176,3.008,3.008,0,0,1,2.43,1.016,4.234,4.234,0,0,1,.859,2.82Zm-1.312-1.086a2.607,2.607,0,0,0-.535-1.727,1.823,1.823,0,0,0-1.465-.617,2.07,2.07,0,0,0-1.539.648,2.943,2.943,0,0,0-.781,1.7ZM90.406,17H89.125V12.406a3.466,3.466,0,0,0-.41-1.922,1.555,1.555,0,0,0-1.379-.594,1.708,1.708,0,0,0-1.395.75,2.869,2.869,0,0,0-.574,1.8V17H84.086V12.25q0-2.359-1.82-2.359a1.686,1.686,0,0,0-1.391.707,2.923,2.923,0,0,0-.547,1.84V17H79.047V9h1.281v1.266h.031a2.718,2.718,0,0,1,2.484-1.453,2.311,2.311,0,0,1,2.266,1.656,2.855,2.855,0,0,1,2.656-1.656q2.641,0,2.641,3.258Zm8.148,0H97.273V15.75h-.031a2.682,2.682,0,0,1-2.461,1.438,2.63,2.63,0,0,1-1.871-.633,2.192,2.192,0,0,1-.676-1.68q0-2.242,2.641-2.609l2.4-.336q0-2.039-1.648-2.039a3.938,3.938,0,0,0-2.609.984V9.563a4.958,4.958,0,0,1,2.719-.75q2.82,0,2.82,2.984Zm-1.281-4.047-1.93.266A3.133,3.133,0,0,0,94,13.66a1.273,1.273,0,0,0-.453,1.121,1.221,1.221,0,0,0,.418.957,1.615,1.615,0,0,0,1.113.371,2.056,2.056,0,0,0,1.574-.668,2.387,2.387,0,0,0,.621-1.691ZM107.609,17h-1.281V12.438q0-2.547-1.859-2.547a2.017,2.017,0,0,0-1.59.723,2.679,2.679,0,0,0-.629,1.824V17h-1.281V9h1.281v1.328h.031a2.887,2.887,0,0,1,2.625-1.516,2.448,2.448,0,0,1,2.008.848,3.776,3.776,0,0,1,.7,2.449Zm9.242-.641q0,4.406-4.219,4.406a5.664,5.664,0,0,1-2.594-.562V18.922a5.327,5.327,0,0,0,2.578.75q2.953,0,2.953-3.141v-.875h-.031a3.237,3.237,0,0,1-5.152.465,4.263,4.263,0,0,1-.91-2.863,4.981,4.981,0,0,1,.98-3.242,3.275,3.275,0,0,1,2.684-1.2,2.608,2.608,0,0,1,2.4,1.3h.031V9h1.281Zm-1.281-2.977V12.2a2.289,2.289,0,0,0-.645-1.633,2.122,2.122,0,0,0-1.605-.68,2.225,2.225,0,0,0-1.859.863,3.853,3.853,0,0,0-.672,2.418,3.308,3.308,0,0,0,.645,2.137,2.082,2.082,0,0,0,1.707.8,2.23,2.23,0,0,0,1.754-.766A2.854,2.854,0,0,0,115.57,13.383Zm9.6,3.617h-1.281V15.75h-.031a2.682,2.682,0,0,1-2.461,1.438,2.63,2.63,0,0,1-1.871-.633,2.192,2.192,0,0,1-.676-1.68q0-2.242,2.641-2.609l2.4-.336q0-2.039-1.648-2.039a3.938,3.938,0,0,0-2.609.984V9.563a4.958,4.958,0,0,1,2.719-.75q2.82,0,2.82,2.984Zm-1.281-4.047-1.93.266a3.133,3.133,0,0,0-1.344.441,1.273,1.273,0,0,0-.453,1.121,1.221,1.221,0,0,0,.418.957,1.615,1.615,0,0,0,1.113.371,2.056,2.056,0,0,0,1.574-.668,2.387,2.387,0,0,0,.621-1.691Zm7.594,3.758V15.336a3.792,3.792,0,0,0,2.3.773q1.688,0,1.688-1.125a.976.976,0,0,0-.145-.543,1.44,1.44,0,0,0-.391-.395,3.007,3.007,0,0,0-.578-.309q-.332-.137-.715-.285a9.207,9.207,0,0,1-.934-.426,2.82,2.82,0,0,1-.672-.484,1.8,1.8,0,0,1-.406-.613,2.17,2.17,0,0,1-.137-.8,1.912,1.912,0,0,1,.258-1,2.286,2.286,0,0,1,.688-.727,3.206,3.206,0,0,1,.98-.441,4.349,4.349,0,0,1,1.137-.148,4.59,4.59,0,0,1,1.859.359v1.3a3.624,3.624,0,0,0-2.031-.578,2.374,2.374,0,0,0-.648.082,1.587,1.587,0,0,0-.5.23,1.065,1.065,0,0,0-.32.355.936.936,0,0,0-.113.457,1.1,1.1,0,0,0,.113.523,1.152,1.152,0,0,0,.332.375,2.538,2.538,0,0,0,.531.3q.312.133.711.289a9.894,9.894,0,0,1,.953.418,3.269,3.269,0,0,1,.719.484,1.893,1.893,0,0,1,.457.621,2,2,0,0,1,.16.836,1.971,1.971,0,0,1-.262,1.031,2.243,2.243,0,0,1-.7.727,3.2,3.2,0,0,1-1.008.43,4.976,4.976,0,0,1-1.2.141A4.539,4.539,0,0,1,131.484,16.711Zm13,.289H143.2V15.75h-.031a2.682,2.682,0,0,1-2.461,1.438,2.63,2.63,0,0,1-1.871-.633,2.192,2.192,0,0,1-.676-1.68q0-2.242,2.641-2.609l2.4-.336q0-2.039-1.648-2.039a3.938,3.938,0,0,0-2.609.984V9.563a4.958,4.958,0,0,1,2.719-.75q2.82,0,2.82,2.984ZM143.2,12.953l-1.93.266a3.133,3.133,0,0,0-1.344.441,1.273,1.273,0,0,0-.453,1.121,1.221,1.221,0,0,0,.418.957,1.615,1.615,0,0,0,1.113.371,2.056,2.056,0,0,0,1.574-.668,2.387,2.387,0,0,0,.621-1.691Zm3.211,3.758V15.336a3.792,3.792,0,0,0,2.3.773q1.688,0,1.688-1.125a.976.976,0,0,0-.145-.543,1.44,1.44,0,0,0-.391-.395,3.007,3.007,0,0,0-.578-.309q-.332-.137-.715-.285a9.207,9.207,0,0,1-.934-.426,2.82,2.82,0,0,1-.672-.484,1.8,1.8,0,0,1-.406-.613,2.17,2.17,0,0,1-.137-.8,1.912,1.912,0,0,1,.258-1,2.286,2.286,0,0,1,.688-.727,3.206,3.206,0,0,1,.98-.441,4.349,4.349,0,0,1,1.137-.148,4.59,4.59,0,0,1,1.859.359v1.3a3.624,3.624,0,0,0-2.031-.578,2.374,2.374,0,0,0-.648.082,1.587,1.587,0,0,0-.5.23,1.065,1.065,0,0,0-.32.355.936.936,0,0,0-.113.457,1.1,1.1,0,0,0,.113.523,1.152,1.152,0,0,0,.332.375,2.538,2.538,0,0,0,.531.3q.312.133.711.289a9.894,9.894,0,0,1,.953.418,3.269,3.269,0,0,1,.719.484,1.893,1.893,0,0,1,.457.621,2,2,0,0,1,.16.836,1.971,1.971,0,0,1-.262,1.031,2.243,2.243,0,0,1-.7.727,3.2,3.2,0,0,1-1.008.43,4.976,4.976,0,0,1-1.2.141A4.539,4.539,0,0,1,146.414,16.711Zm10.984.211a2.47,2.47,0,0,1-1.2.25q-2.1,0-2.1-2.344V10.094h-1.375V9H154.1V7.047l1.281-.414V9H157.4v1.094h-2.016V14.6a1.869,1.869,0,0,0,.273,1.148,1.091,1.091,0,0,0,.906.344,1.347,1.347,0,0,0,.836-.266Zm5.883-6.625a1.567,1.567,0,0,0-.969-.258,1.635,1.635,0,0,0-1.371.773,3.576,3.576,0,0,0-.551,2.109V17h-1.281V9h1.281v1.648h.031a2.794,2.794,0,0,1,.836-1.316,1.906,1.906,0,0,1,1.258-.473,2.092,2.092,0,0,1,.766.109Zm7.82,3.023h-5.648a2.992,2.992,0,0,0,.719,2.063,2.478,2.478,0,0,0,1.891.727,3.931,3.931,0,0,0,2.484-.891v1.2a4.643,4.643,0,0,1-2.789.766,3.381,3.381,0,0,1-2.664-1.09,4.461,4.461,0,0,1-.969-3.066,4.374,4.374,0,0,1,1.059-3.043,3.394,3.394,0,0,1,2.629-1.176,3.008,3.008,0,0,1,2.43,1.016,4.234,4.234,0,0,1,.859,2.82Zm-1.312-1.086a2.607,2.607,0,0,0-.535-1.727,1.823,1.823,0,0,0-1.465-.617,2.07,2.07,0,0,0-1.539.648,2.943,2.943,0,0,0-.781,1.7Zm10.977,4.953a3.711,3.711,0,0,1-2.832-1.121,4.153,4.153,0,0,1-1.059-2.973,4.326,4.326,0,0,1,1.1-3.148,3.96,3.96,0,0,1,2.977-1.133,3.588,3.588,0,0,1,2.793,1.1,4.368,4.368,0,0,1,1,3.055,4.3,4.3,0,0,1-1.082,3.066A3.791,3.791,0,0,1,180.766,17.188Zm.094-7.3a2.437,2.437,0,0,0-1.953.84,3.449,3.449,0,0,0-.719,2.316,3.262,3.262,0,0,0,.727,2.242,2.469,2.469,0,0,0,1.945.82,2.342,2.342,0,0,0,1.91-.8,3.492,3.492,0,0,0,.668-2.289,3.552,3.552,0,0,0-.668-2.312A2.332,2.332,0,0,0,180.859,9.891Zm14.273-3.609a1.707,1.707,0,0,0-.852-.211q-1.344,0-1.344,1.7V9h1.875v1.094h-1.875V17h-1.273V10.094H190.3V9h1.367V7.7a2.7,2.7,0,0,1,.727-1.988,2.453,2.453,0,0,1,1.813-.73,2.511,2.511,0,0,1,.93.141Zm4.4,10.906a3.711,3.711,0,0,1-2.832-1.121,4.153,4.153,0,0,1-1.059-2.973,4.326,4.326,0,0,1,1.1-3.148,3.96,3.96,0,0,1,2.977-1.133,3.588,3.588,0,0,1,2.793,1.1,4.368,4.368,0,0,1,1,3.055,4.3,4.3,0,0,1-1.082,3.066A3.791,3.791,0,0,1,199.531,17.188Zm.094-7.3a2.437,2.437,0,0,0-1.953.84,3.449,3.449,0,0,0-.719,2.316,3.262,3.262,0,0,0,.727,2.242,2.469,2.469,0,0,0,1.945.82,2.342,2.342,0,0,0,1.91-.8,3.492,3.492,0,0,0,.668-2.289,3.552,3.552,0,0,0-.668-2.312A2.332,2.332,0,0,0,199.625,9.891Zm10.109.406a1.567,1.567,0,0,0-.969-.258,1.635,1.635,0,0,0-1.371.773,3.576,3.576,0,0,0-.551,2.109V17h-1.281V9h1.281v1.648h.031a2.794,2.794,0,0,1,.836-1.316,1.906,1.906,0,0,1,1.258-.473,2.092,2.092,0,0,1,.766.109Zm12.75,6.7H221.2V12.406a3.466,3.466,0,0,0-.41-1.922,1.555,1.555,0,0,0-1.379-.594,1.708,1.708,0,0,0-1.395.75,2.869,2.869,0,0,0-.574,1.8V17h-1.281V12.25q0-2.359-1.82-2.359a1.686,1.686,0,0,0-1.391.707,2.923,2.923,0,0,0-.547,1.84V17h-1.281V9h1.281v1.266h.031a2.718,2.718,0,0,1,2.484-1.453,2.311,2.311,0,0,1,2.266,1.656,2.855,2.855,0,0,1,2.656-1.656q2.641,0,2.641,3.258Zm8.148,0h-1.281V15.75h-.031a2.682,2.682,0,0,1-2.461,1.438,2.63,2.63,0,0,1-1.871-.633,2.192,2.192,0,0,1-.676-1.68q0-2.242,2.641-2.609l2.4-.336q0-2.039-1.648-2.039a3.938,3.938,0,0,0-2.609.984V9.563a4.958,4.958,0,0,1,2.719-.75q2.82,0,2.82,2.984Zm-1.281-4.047-1.93.266a3.133,3.133,0,0,0-1.344.441,1.273,1.273,0,0,0-.453,1.121,1.221,1.221,0,0,0,.418.957,1.615,1.615,0,0,0,1.113.371,2.056,2.056,0,0,0,1.574-.668,2.387,2.387,0,0,0,.621-1.691ZM234.328,17h-1.281V5.156h1.281Zm14.836-5.812H241.82V10.156h7.344Zm0,3.328H241.82V13.484h7.344Zm6.719,2.273v-2a5.256,5.256,0,0,0,1.215.547,4.028,4.028,0,0,0,1.145.18,2.455,2.455,0,0,0,1.035-.18.581.581,0,0,0,.379-.547.506.506,0,0,0-.172-.391,1.6,1.6,0,0,0-.441-.273,5.01,5.01,0,0,0-.59-.211q-.32-.094-.617-.211a5.913,5.913,0,0,1-.84-.387,2.427,2.427,0,0,1-.609-.48,1.889,1.889,0,0,1-.375-.633,2.525,2.525,0,0,1-.129-.852,2.192,2.192,0,0,1,.293-1.156,2.393,2.393,0,0,1,.781-.793,3.57,3.57,0,0,1,1.117-.453,5.825,5.825,0,0,1,1.309-.145,7.261,7.261,0,0,1,1.078.082,8.046,8.046,0,0,1,1.078.238v1.906a3.9,3.9,0,0,0-1-.41,4.235,4.235,0,0,0-1.051-.137,2.328,2.328,0,0,0-.457.043,1.505,1.505,0,0,0-.379.125.7.7,0,0,0-.258.211.486.486,0,0,0-.094.293.541.541,0,0,0,.141.375,1.221,1.221,0,0,0,.367.27,3.624,3.624,0,0,0,.5.2q.277.09.551.184a7.161,7.161,0,0,1,.891.375,2.847,2.847,0,0,1,.684.477,1.872,1.872,0,0,1,.438.641,2.563,2.563,0,0,1-.156,2.09,2.47,2.47,0,0,1-.82.82,3.72,3.72,0,0,1-1.18.461,6.54,6.54,0,0,1-1.387.145A7.149,7.149,0,0,1,255.883,16.789ZM264.7,7.734a1.442,1.442,0,0,1-1.023-.371,1.2,1.2,0,0,1-.4-.91,1.153,1.153,0,0,1,.4-.906,1.671,1.671,0,0,1,2.051,0,1.158,1.158,0,0,1,.395.906,1.191,1.191,0,0,1-.395.922A1.466,1.466,0,0,1,264.7,7.734ZM265.914,17h-2.469V9h2.469Zm1.555-.211v-2a5.256,5.256,0,0,0,1.215.547,4.028,4.028,0,0,0,1.145.18,2.455,2.455,0,0,0,1.035-.18.581.581,0,0,0,.379-.547.506.506,0,0,0-.172-.391,1.6,1.6,0,0,0-.441-.273,5.01,5.01,0,0,0-.59-.211q-.32-.094-.617-.211a5.913,5.913,0,0,1-.84-.387,2.427,2.427,0,0,1-.609-.48,1.889,1.889,0,0,1-.375-.633,2.525,2.525,0,0,1-.129-.852,2.192,2.192,0,0,1,.293-1.156,2.393,2.393,0,0,1,.781-.793,3.57,3.57,0,0,1,1.117-.453,5.825,5.825,0,0,1,1.309-.145,7.261,7.261,0,0,1,1.078.082,8.046,8.046,0,0,1,1.078.238v1.906a3.9,3.9,0,0,0-1-.41,4.235,4.235,0,0,0-1.051-.137,2.328,2.328,0,0,0-.457.043,1.505,1.505,0,0,0-.379.125.7.7,0,0,0-.258.211.486.486,0,0,0-.094.293.541.541,0,0,0,.141.375,1.221,1.221,0,0,0,.367.27,3.624,3.624,0,0,0,.5.2q.277.09.551.184a7.161,7.161,0,0,1,.891.375,2.847,2.847,0,0,1,.684.477,1.872,1.872,0,0,1,.438.641,2.563,2.563,0,0,1-.156,2.09,2.47,2.47,0,0,1-.82.82,3.72,3.72,0,0,1-1.18.461,6.54,6.54,0,0,1-1.387.145A7.149,7.149,0,0,1,267.469,16.789ZM281.688,17h-2.336V15.852h-.031a2.607,2.607,0,0,1-2.383,1.344,2.492,2.492,0,0,1-1.832-.66,2.366,2.366,0,0,1-.668-1.762q0-2.328,2.758-2.687l2.172-.289q0-1.312-1.422-1.312a4.853,4.853,0,0,0-2.719.852V9.477a6.117,6.117,0,0,1,1.41-.469,7.413,7.413,0,0,1,1.629-.2q3.422,0,3.422,3.414Zm-2.32-3.25v-.539l-1.453.188q-1.2.156-1.2,1.086a.9.9,0,0,0,.293.691,1.126,1.126,0,0,0,.793.27,1.462,1.462,0,0,0,1.133-.48A1.735,1.735,0,0,0,279.367,13.75ZM295.883,17h-2.469V15.9h-.031a2.768,2.768,0,0,1-2.477,1.3,3.033,3.033,0,0,1-2.414-1.059,4.382,4.382,0,0,1-.914-2.957A4.77,4.77,0,0,1,288.586,10a3.287,3.287,0,0,1,2.641-1.2,2.246,2.246,0,0,1,2.156,1.109h.031V5.156h2.469Zm-2.422-3.891v-.6a1.893,1.893,0,0,0-.453-1.3,1.6,1.6,0,0,0-2.461.129,2.993,2.993,0,0,0-.461,1.77,2.59,2.59,0,0,0,.445,1.625,1.581,1.581,0,0,0,2.457-.031A2.507,2.507,0,0,0,293.461,13.109Zm11.688.594H299.93q.125,1.742,2.2,1.742a4.286,4.286,0,0,0,2.32-.625V16.6a6.1,6.1,0,0,1-2.883.594,4.058,4.058,0,0,1-3.008-1.074,4.059,4.059,0,0,1-1.07-3,4.281,4.281,0,0,1,1.156-3.156A3.852,3.852,0,0,1,301.484,8.8a3.5,3.5,0,0,1,2.707,1.039,4,4,0,0,1,.957,2.82Zm-2.289-1.516q0-1.719-1.391-1.719a1.328,1.328,0,0,0-1.027.492,2.234,2.234,0,0,0-.527,1.227ZM309.086,17h-2.469V5.156h2.469Zm8.734,0h-2.336V15.852h-.031A2.607,2.607,0,0,1,313.07,17.2a2.492,2.492,0,0,1-1.832-.66,2.366,2.366,0,0,1-.668-1.762q0-2.328,2.758-2.687L315.5,11.8q0-1.312-1.422-1.312a4.853,4.853,0,0,0-2.719.852V9.477a6.117,6.117,0,0,1,1.41-.469,7.413,7.413,0,0,1,1.629-.2q3.422,0,3.422,3.414Zm-2.32-3.25v-.539l-1.453.188q-1.2.156-1.2,1.086a.9.9,0,0,0,.293.691,1.126,1.126,0,0,0,.793.27,1.462,1.462,0,0,0,1.133-.48A1.735,1.735,0,0,0,315.5,13.75Zm12,3.25h-2.461V12.555q0-1.859-1.328-1.859a1.318,1.318,0,0,0-1.055.492,1.875,1.875,0,0,0-.414,1.25V17h-2.469V9h2.469v1.266h.031a2.829,2.829,0,0,1,2.57-1.461q2.656,0,2.656,3.3Zm6.789-.094a3.649,3.649,0,0,1-1.648.289q-2.609,0-2.609-2.711V10.82h-1.3V9h1.3V7.273l2.461-.7V9h1.8v1.82h-1.8v3.234q0,1.25.992,1.25a1.673,1.673,0,0,0,.8-.227Zm8.516-3.2h-5.219q.125,1.742,2.2,1.742a4.286,4.286,0,0,0,2.32-.625V16.6a6.1,6.1,0,0,1-2.883.594,4.058,4.058,0,0,1-3.008-1.074,4.059,4.059,0,0,1-1.07-3A4.281,4.281,0,0,1,336.3,9.969,3.852,3.852,0,0,1,339.141,8.8a3.5,3.5,0,0,1,2.707,1.039,4,4,0,0,1,.957,2.82Zm-2.289-1.516q0-1.719-1.391-1.719a1.328,1.328,0,0,0-1.027.492,2.234,2.234,0,0,0-.527,1.227Zm8.977-.961a2.141,2.141,0,0,0-1.039-.242,1.5,1.5,0,0,0-1.258.59,2.573,2.573,0,0,0-.453,1.605V17h-2.469V9h2.469v1.484h.031a2.136,2.136,0,0,1,2.109-1.625,1.59,1.59,0,0,1,.609.094ZM357.3,17h-2.336V15.852h-.031a2.607,2.607,0,0,1-2.383,1.344,2.492,2.492,0,0,1-1.832-.66,2.366,2.366,0,0,1-.668-1.762q0-2.328,2.758-2.687l2.172-.289q0-1.312-1.422-1.312a4.853,4.853,0,0,0-2.719.852V9.477a6.117,6.117,0,0,1,1.41-.469,7.413,7.413,0,0,1,1.629-.2q3.422,0,3.422,3.414Zm-2.32-3.25v-.539l-1.453.188q-1.2.156-1.2,1.086a.9.9,0,0,0,.293.691,1.126,1.126,0,0,0,.793.27,1.462,1.462,0,0,0,1.133-.48A1.735,1.735,0,0,0,354.977,13.75Zm17.117-.539h-3.008v3.008h-1.578V13.211h-3.023V11.625h3.023V8.6h1.578v3.023h3.008Zm6.773,3.578v-2a5.256,5.256,0,0,0,1.215.547,4.028,4.028,0,0,0,1.145.18,2.455,2.455,0,0,0,1.035-.18.581.581,0,0,0,.379-.547.506.506,0,0,0-.172-.391,1.6,1.6,0,0,0-.441-.273,5.01,5.01,0,0,0-.59-.211q-.32-.094-.617-.211a5.913,5.913,0,0,1-.84-.387,2.427,2.427,0,0,1-.609-.48A1.889,1.889,0,0,1,379,12.2a2.525,2.525,0,0,1-.129-.852,2.192,2.192,0,0,1,.293-1.156,2.393,2.393,0,0,1,.781-.793,3.57,3.57,0,0,1,1.117-.453,5.825,5.825,0,0,1,1.309-.145,7.261,7.261,0,0,1,1.078.082,8.046,8.046,0,0,1,1.078.238v1.906a3.9,3.9,0,0,0-1-.41,4.235,4.235,0,0,0-1.051-.137,2.328,2.328,0,0,0-.457.043,1.505,1.505,0,0,0-.379.125.7.7,0,0,0-.258.211.486.486,0,0,0-.094.293.541.541,0,0,0,.141.375,1.221,1.221,0,0,0,.367.27,3.624,3.624,0,0,0,.5.2q.277.09.551.184a7.161,7.161,0,0,1,.891.375,2.847,2.847,0,0,1,.684.477,1.872,1.872,0,0,1,.438.641,2.563,2.563,0,0,1-.156,2.09,2.47,2.47,0,0,1-.82.82,3.72,3.72,0,0,1-1.18.461,6.54,6.54,0,0,1-1.387.145A7.149,7.149,0,0,1,378.867,16.789Zm8.813-9.055a1.442,1.442,0,0,1-1.023-.371,1.2,1.2,0,0,1-.4-.91,1.153,1.153,0,0,1,.4-.906,1.671,1.671,0,0,1,2.051,0,1.158,1.158,0,0,1,.395.906,1.191,1.191,0,0,1-.395.922A1.466,1.466,0,0,1,387.68,7.734ZM388.9,17H386.43V9H388.9Zm1.555-.211v-2a5.256,5.256,0,0,0,1.215.547,4.028,4.028,0,0,0,1.145.18,2.455,2.455,0,0,0,1.035-.18.581.581,0,0,0,.379-.547.506.506,0,0,0-.172-.391,1.6,1.6,0,0,0-.441-.273,5.01,5.01,0,0,0-.59-.211q-.32-.094-.617-.211a5.913,5.913,0,0,1-.84-.387,2.427,2.427,0,0,1-.609-.48,1.889,1.889,0,0,1-.375-.633,2.525,2.525,0,0,1-.129-.852,2.192,2.192,0,0,1,.293-1.156,2.393,2.393,0,0,1,.781-.793,3.57,3.57,0,0,1,1.117-.453,5.825,5.825,0,0,1,1.309-.145,7.261,7.261,0,0,1,1.078.082,8.046,8.046,0,0,1,1.078.238v1.906a3.9,3.9,0,0,0-1-.41,4.235,4.235,0,0,0-1.051-.137,2.328,2.328,0,0,0-.457.043,1.505,1.505,0,0,0-.379.125.7.7,0,0,0-.258.211.486.486,0,0,0-.094.293.541.541,0,0,0,.141.375,1.221,1.221,0,0,0,.367.27,3.624,3.624,0,0,0,.5.2q.277.09.551.184a7.161,7.161,0,0,1,.891.375,2.847,2.847,0,0,1,.684.477,1.872,1.872,0,0,1,.438.641,2.563,2.563,0,0,1-.156,2.09,2.47,2.47,0,0,1-.82.82,3.72,3.72,0,0,1-1.18.461,6.54,6.54,0,0,1-1.387.145A7.149,7.149,0,0,1,390.453,16.789ZM404.672,17h-2.336V15.852H402.3a2.607,2.607,0,0,1-2.383,1.344,2.492,2.492,0,0,1-1.832-.66,2.366,2.366,0,0,1-.668-1.762q0-2.328,2.758-2.687l2.172-.289q0-1.312-1.422-1.312a4.853,4.853,0,0,0-2.719.852V9.477a6.117,6.117,0,0,1,1.41-.469,7.413,7.413,0,0,1,1.629-.2q3.422,0,3.422,3.414Zm-2.32-3.25v-.539L400.9,13.4q-1.2.156-1.2,1.086a.9.9,0,0,0,.293.691,1.126,1.126,0,0,0,.793.27,1.462,1.462,0,0,0,1.133-.48A1.735,1.735,0,0,0,402.352,13.75Zm11.188,2.32h-.031V20.68h-2.469V9h2.469v1.2h.031a3.142,3.142,0,0,1,4.973-.332,4.54,4.54,0,0,1,.848,2.9,4.922,4.922,0,0,1-.988,3.211,3.222,3.222,0,0,1-2.629,1.211A2.491,2.491,0,0,1,413.539,16.07Zm-.07-3.281v.641a2.037,2.037,0,0,0,.438,1.352,1.424,1.424,0,0,0,1.148.523,1.514,1.514,0,0,0,1.309-.652,3.15,3.15,0,0,0,.465-1.848q0-2.109-1.641-2.109a1.541,1.541,0,0,0-1.238.574A2.29,2.29,0,0,0,413.469,12.789Zm11.3,4.406a4.3,4.3,0,0,1-3.145-1.121,4.064,4.064,0,0,1-1.145-3.043,4.065,4.065,0,0,1,1.188-3.105A4.487,4.487,0,0,1,424.883,8.8a4.249,4.249,0,0,1,3.125,1.121,3.985,3.985,0,0,1,1.133,2.965,4.23,4.23,0,0,1-1.168,3.148A4.348,4.348,0,0,1,424.773,17.2Zm.063-6.5a1.647,1.647,0,0,0-1.359.6,2.653,2.653,0,0,0-.484,1.7q0,2.3,1.859,2.3,1.773,0,1.773-2.367Q426.625,10.7,424.836,10.7Zm5.383,6.094v-2a5.256,5.256,0,0,0,1.215.547,4.028,4.028,0,0,0,1.145.18,2.455,2.455,0,0,0,1.035-.18.581.581,0,0,0,.379-.547.506.506,0,0,0-.172-.391,1.6,1.6,0,0,0-.441-.273,5.01,5.01,0,0,0-.59-.211q-.32-.094-.617-.211a5.913,5.913,0,0,1-.84-.387,2.427,2.427,0,0,1-.609-.48,1.889,1.889,0,0,1-.375-.633,2.525,2.525,0,0,1-.129-.852,2.192,2.192,0,0,1,.293-1.156,2.393,2.393,0,0,1,.781-.793,3.57,3.57,0,0,1,1.117-.453,5.825,5.825,0,0,1,1.309-.145,7.261,7.261,0,0,1,1.078.082,8.046,8.046,0,0,1,1.078.238v1.906a3.9,3.9,0,0,0-1-.41,4.235,4.235,0,0,0-1.051-.137,2.328,2.328,0,0,0-.457.043,1.505,1.505,0,0,0-.379.125.7.7,0,0,0-.258.211.486.486,0,0,0-.094.293.541.541,0,0,0,.141.375,1.221,1.221,0,0,0,.367.27,3.624,3.624,0,0,0,.5.2q.277.09.551.184a7.161,7.161,0,0,1,.891.375,2.847,2.847,0,0,1,.684.477,1.872,1.872,0,0,1,.438.641,2.563,2.563,0,0,1-.156,2.09,2.47,2.47,0,0,1-.82.82,3.72,3.72,0,0,1-1.18.461,6.54,6.54,0,0,1-1.387.145A7.149,7.149,0,0,1,430.219,16.789Zm12.4.117a3.649,3.649,0,0,1-1.648.289q-2.609,0-2.609-2.711V10.82h-1.3V9h1.3V7.273l2.461-.7V9h1.8v1.82h-1.8v3.234q0,1.25.992,1.25a1.673,1.673,0,0,0,.8-.227Zm8.516-3.2h-5.219q.125,1.742,2.2,1.742a4.286,4.286,0,0,0,2.32-.625V16.6a6.1,6.1,0,0,1-2.883.594,4.058,4.058,0,0,1-3.008-1.074,4.059,4.059,0,0,1-1.07-3,4.281,4.281,0,0,1,1.156-3.156A3.852,3.852,0,0,1,447.469,8.8a3.5,3.5,0,0,1,2.707,1.039,4,4,0,0,1,.957,2.82Zm-2.289-1.516q0-1.719-1.391-1.719a1.328,1.328,0,0,0-1.027.492,2.234,2.234,0,0,0-.527,1.227Zm8.977-.961a2.141,2.141,0,0,0-1.039-.242,1.5,1.5,0,0,0-1.258.59,2.573,2.573,0,0,0-.453,1.605V17H452.6V9h2.469v1.484h.031a2.136,2.136,0,0,1,2.109-1.625,1.59,1.59,0,0,1,.609.094Zm2.461-3.492a1.442,1.442,0,0,1-1.023-.371,1.2,1.2,0,0,1-.4-.91,1.153,1.153,0,0,1,.4-.906,1.671,1.671,0,0,1,2.051,0,1.158,1.158,0,0,1,.395.906,1.191,1.191,0,0,1-.395.922A1.466,1.466,0,0,1,460.281,7.734ZM461.5,17h-2.469V9H461.5Zm5.891.2a4.3,4.3,0,0,1-3.145-1.121,4.064,4.064,0,0,1-1.145-3.043,4.065,4.065,0,0,1,1.188-3.105A4.487,4.487,0,0,1,467.5,8.8a4.249,4.249,0,0,1,3.125,1.121,3.985,3.985,0,0,1,1.133,2.965,4.23,4.23,0,0,1-1.168,3.148A4.348,4.348,0,0,1,467.391,17.2Zm.063-6.5a1.647,1.647,0,0,0-1.359.6,2.653,2.653,0,0,0-.484,1.7q0,2.3,1.859,2.3,1.773,0,1.773-2.367Q469.242,10.7,467.453,10.7Zm11.125.531a2.141,2.141,0,0,0-1.039-.242,1.5,1.5,0,0,0-1.258.59,2.573,2.573,0,0,0-.453,1.605V17h-2.469V9h2.469v1.484h.031a2.136,2.136,0,0,1,2.109-1.625,1.59,1.59,0,0,1,.609.094Zm11.8-5.43-5.461,13.063h-2.2L488.156,5.8Zm5.141,10.836V14.484a4.336,4.336,0,0,0,2.625.82,2.363,2.363,0,0,0,1.473-.406,1.349,1.349,0,0,0,.527-1.133,1.288,1.288,0,0,0-.652-1.156A3.38,3.38,0,0,0,497.7,12.2h-1.039V10.313h.961q2.188,0,2.188-1.453,0-1.367-1.68-1.367a3.83,3.83,0,0,0-2.187.727V6.2a6.042,6.042,0,0,1,2.75-.594,4.15,4.15,0,0,1,2.676.773,2.461,2.461,0,0,1,.957,2.008,2.611,2.611,0,0,1-2.227,2.75v.039a3.027,3.027,0,0,1,1.875.863,2.434,2.434,0,0,1,.688,1.754,3.006,3.006,0,0,1-1.148,2.484,4.965,4.965,0,0,1-3.172.914A6.13,6.13,0,0,1,495.523,16.633Z" transform="translate(843 4585)" fill="#fff"/>
    <g id="Elipse_4100" data-name="Elipse 4100" transform="translate(804 4444)" fill="#f5947a" stroke="#636363" stroke-width="3">
      <circle cx="10" cy="10" r="10" stroke="none"/>
      <circle cx="10" cy="10" r="8.5" fill="none"/>
    </g>
    <g id="Trazado_773610" data-name="Trazado 773610" transform="translate(804 4513)" fill="#73d8c0">
      <path d="M 10 18.5 C 5.313079833984375 18.5 1.5 14.68692016601562 1.5 10 C 1.5 5.313079833984375 5.313079833984375 1.5 10 1.5 C 14.68692016601562 1.5 18.5 5.313079833984375 18.5 10 C 18.5 14.68692016601562 14.68692016601562 18.5 10 18.5 Z" stroke="none"/>
      <path d="M 10 3 C 6.140190124511719 3 3 6.140190124511719 3 10 C 3 13.85980987548828 6.140190124511719 17 10 17 C 13.85980987548828 17 17 13.85980987548828 17 10 C 17 6.140190124511719 13.85980987548828 3 10 3 M 10 0 C 15.52285003662109 0 20 4.477149963378906 20 10 C 20 15.52285003662109 15.52285003662109 20 10 20 C 4.477149963378906 20 0 15.52285003662109 0 10 C 0 4.477149963378906 4.477149963378906 0 10 0 Z" stroke="none" fill="#636363"/>
    </g>
    <g id="Trazado_773611" data-name="Trazado 773611" transform="translate(804 4584)" fill="#025157">
      <path d="M 10 18.5 C 5.313079833984375 18.5 1.5 14.68692016601562 1.5 10 C 1.5 5.313079833984375 5.313079833984375 1.5 10 1.5 C 14.68692016601562 1.5 18.5 5.313079833984375 18.5 10 C 18.5 14.68692016601562 14.68692016601562 18.5 10 18.5 Z" stroke="none"/>
      <path d="M 10 3 C 6.140190124511719 3 3 6.140190124511719 3 10 C 3 13.85980987548828 6.140190124511719 17 10 17 C 13.85980987548828 17 17 13.85980987548828 17 10 C 17 6.140190124511719 13.85980987548828 3 10 3 M 10 0 C 15.52285003662109 0 20 4.477149963378906 20 10 C 20 15.52285003662109 15.52285003662109 20 10 20 C 4.477149963378906 20 0 15.52285003662109 0 10 C 0 4.477149963378906 4.477149963378906 0 10 0 Z" stroke="none" fill="#636363"/>
    </g>
    <path id="Trazado_108842" data-name="Trazado 108842" d="M-5559-7075.667h255.333V-7105h18" transform="translate(6085 11700)" fill="none" stroke="#707070" stroke-width="1" stroke-dasharray="3 3"/>
    <path id="Trazado_108843" data-name="Trazado 108843" d="M-5541.667-7101.5H-5336v-76.833h49.667" transform="translate(6085 11700)" fill="none" stroke="#707070" stroke-width="1" stroke-dasharray="3 3"/>
    <path id="Trazado_108844" data-name="Trazado 108844" d="M-5523.333-7134h152.667v-114h82" transform="translate(6085 11700)" fill="none" stroke="#707070" stroke-width="1" stroke-dasharray="3 3"/>
  </g>
</svg>
