<svg xmlns="http://www.w3.org/2000/svg" width="1086" height="288.219" viewBox="0 0 1086 288.219">
  <g id="Grupo_58898" data-name="Grupo 58898" transform="translate(-284 -4429)">
    <g id="Grupo_58875" data-name="Grupo 58875" transform="translate(268.065 4234.42)">
      <g id="Capa_2" data-name="Capa 2" transform="translate(34.751 195.227)">
        <path id="Trazado_108821" data-name="Trazado 108821" d="M128.4,323.608c-2.067-2.512,286.859-3.884,284.831-6.585-29.264-38.979-54.6-116.87-127.881-121.66-43.067-2.814-101.8,54.531-125.482,86.492-8.746,11.8-19.067,26.615-31.468,41.753" transform="translate(-40.61 -195.263)" fill="#f39743" opacity="0.41"/>
        <path id="Trazado_108822" data-name="Trazado 108822" d="M143.084,309.09c2.156-1.679,51.439-54.75,67.915-65.218,16.79-10.669,35.291-26.613,70.09-25.782s48.121,8.823,62.577,20.707c14.884,12.235,43.774,38.179,53.736,55.249s15.725,25.931,15.725,25.931-.494,17-1.212,17-244.02,13.65-244.02,13.65l-41.667-19.158Z" transform="translate(-40.497 -196.45)" fill="#78616b" opacity="0.47"/>
        <path id="Trazado_108823" data-name="Trazado 108823" d="M35.785,394.31,47.28,485.1H504.232l12.737-91.473s-57.083-4.083-108.565-74.338c-28.81-39.316-74.479-80.545-129.318-80.545-53.936,0-130.6,56.118-155.514,87.13C101.546,353.3,87.511,372.541,35.785,394.31Z" transform="translate(-35.785 -197.528)" fill="#e8e8e8"/>
      </g>
      <g id="Capa_1" data-name="Capa 1" transform="translate(15.934 195.111)">
        <line id="Línea_208" data-name="Línea 208" x1="496.438" y1="0.878" transform="translate(3.348 196.871)" fill="none" stroke="#505050" stroke-miterlimit="10" stroke-width="2"/>
        <g id="Grupo_58870" data-name="Grupo 58870" transform="translate(274.052 44.514)">
          <path id="Trazado_108824" data-name="Trazado 108824" d="M313.041,254.2l4.322.018-5.31-12.5-5.589,12.456,4.323.018-.868,80.138,2.254.009Z" transform="translate(-306.465 -241.715)" fill="#ff9696"/>
        </g>
        <g id="Grupo_58871" data-name="Grupo 58871" transform="translate(255.597 23.426)">
          <path id="Trazado_108825" data-name="Trazado 108825" d="M292.156,237.006l4.322.024-5.31-17.176-5.589,17.115,4.323.024-1.008,127.891,2.254.013Z" transform="translate(-285.58 -219.854)" fill="#8c757e"/>
        </g>
        <g id="Grupo_58872" data-name="Grupo 58872" transform="translate(237.141)">
          <path id="Trazado_108826" data-name="Trazado 108826" d="M272.686,215.481l4.322.029L271.7,195.14l-5.589,20.3,4.323.029L269.27,390.557l2.253.015Z" transform="translate(-266.11 -195.14)" fill="#ffad54"/>
        </g>
        <g id="Grupo_58873" data-name="Grupo 58873" transform="translate(0 2.027)">
          <path id="Trazado_108827" data-name="Trazado 108827" d="M22.511,217.619l4.322.029-5.31-20.369-5.589,20.3,4.323.029L19.094,392.7l2.254.015Z" transform="translate(-15.934 -197.279)" fill="#505050"/>
        </g>
        <g id="Grupo_58874" data-name="Grupo 58874" transform="translate(18.077 99.135)">
          <path id="Trazado_108828" data-name="Trazado 108828" d="M37.433,307.31l-1.063,3.217H35L38.479,300.3h1.593l3.489,10.227H42.15l-1.092-3.217Zm3.353-1.031-1-2.943c-.227-.668-.38-1.275-.532-1.866h-.029c-.153.607-.319,1.229-.517,1.851l-1,2.958Z" transform="translate(-35.005 -299.754)" fill="#2c2b2b"/>
          <path id="Trazado_108829" data-name="Trazado 108829" d="M45.517,299.724h1.336V310.5H45.517Z" transform="translate(-35.553 -299.724)" fill="#2c2b2b"/>
          <path id="Trazado_108830" data-name="Trazado 108830" d="M50.856,301.117v2.109h1.911v1.016H50.856v3.96c0,.91.258,1.427,1,1.427a2.955,2.955,0,0,0,.773-.092l.061,1a3.268,3.268,0,0,1-1.183.182,1.852,1.852,0,0,1-1.442-.561,2.722,2.722,0,0,1-.516-1.912v-4.006H48.413v-1.016H49.55v-1.76Z" transform="translate(-35.704 -299.797)" fill="#2c2b2b"/>
          <path id="Trazado_108831" data-name="Trazado 108831" d="M60.731,308.682c0,.758.015,1.426.062,2H59.608l-.076-1.2H59.5a2.762,2.762,0,0,1-2.428,1.366c-1.153,0-2.534-.637-2.534-3.216v-4.294h1.335v4.066c0,1.4.425,2.337,1.639,2.337a1.931,1.931,0,0,0,1.76-1.214,1.952,1.952,0,0,0,.121-.682v-4.506h1.335Z" transform="translate(-36.023 -299.913)" fill="#2c2b2b"/>
          <path id="Trazado_108832" data-name="Trazado 108832" d="M63.4,305.624c0-.865-.015-1.609-.061-2.291h1.168l.046,1.441h.062a2.2,2.2,0,0,1,2.032-1.608,1.444,1.444,0,0,1,.379.046v1.259a2.008,2.008,0,0,0-.455-.045,1.874,1.874,0,0,0-1.791,1.715,3.861,3.861,0,0,0-.061.622v3.915H63.4Z" transform="translate(-36.481 -299.903)" fill="#2c2b2b"/>
          <path id="Trazado_108833" data-name="Trazado 108833" d="M72.591,310.676l-.106-.926H72.44a2.736,2.736,0,0,1-2.247,1.093,2.092,2.092,0,0,1-2.246-2.109c0-1.775,1.578-2.746,4.415-2.731v-.152a1.514,1.514,0,0,0-1.668-1.7,3.658,3.658,0,0,0-1.912.546l-.3-.88a4.556,4.556,0,0,1,2.412-.652c2.246,0,2.792,1.532,2.792,3v2.746a10.348,10.348,0,0,0,.121,1.76Zm-.2-3.748c-1.456-.03-3.11.227-3.11,1.654a1.182,1.182,0,0,0,1.26,1.275,1.827,1.827,0,0,0,1.774-1.229,1.393,1.393,0,0,0,.076-.425Z" transform="translate(-36.721 -299.903)" fill="#2c2b2b"/>
          <path id="Trazado_108834" data-name="Trazado 108834" d="M85.973,299.724V308.6c0,.652.015,1.4.061,1.9h-1.2l-.061-1.275h-.03a2.715,2.715,0,0,1-2.5,1.442c-1.774,0-3.14-1.5-3.14-3.733-.015-2.443,1.5-3.944,3.292-3.944a2.455,2.455,0,0,1,2.215,1.122h.03v-4.385Zm-1.336,6.418a2.355,2.355,0,0,0-.061-.561,1.963,1.963,0,0,0-1.927-1.548c-1.38,0-2.2,1.214-2.2,2.837,0,1.487.729,2.716,2.17,2.716a2.007,2.007,0,0,0,1.957-1.592,2.326,2.326,0,0,0,.061-.577Z" transform="translate(-37.302 -299.724)" fill="#2c2b2b"/>
          <path id="Trazado_108835" data-name="Trazado 108835" d="M89.4,307.247a2.353,2.353,0,0,0,2.519,2.55,4.829,4.829,0,0,0,2.033-.38l.227.956a5.947,5.947,0,0,1-2.443.455,3.41,3.41,0,0,1-3.611-3.7c0-2.215,1.3-3.959,3.444-3.959,2.4,0,3.034,2.109,3.034,3.459a5.035,5.035,0,0,1-.045.622Zm3.915-.955a1.9,1.9,0,0,0-1.851-2.17,2.213,2.213,0,0,0-2.048,2.17Z" transform="translate(-37.773 -299.903)" fill="#2c2b2b"/>
          <path id="Trazado_108836" data-name="Trazado 108836" d="M40.978,329.6a4.917,4.917,0,0,1-2.109.425,3.488,3.488,0,0,1-3.656-3.747,3.731,3.731,0,0,1,3.945-3.9,4.461,4.461,0,0,1,1.85.379l-.3,1.032a3.083,3.083,0,0,0-1.547-.35,2.769,2.769,0,0,0-.046,5.523,3.777,3.777,0,0,0,1.639-.365Z" transform="translate(-35.016 -300.905)" fill="#2c2b2b"/>
          <path id="Trazado_108837" data-name="Trazado 108837" d="M46.975,329.876l-.105-.925h-.045a2.737,2.737,0,0,1-2.246,1.092,2.092,2.092,0,0,1-2.246-2.109c0-1.774,1.578-2.746,4.415-2.731v-.152a1.515,1.515,0,0,0-1.669-1.7,3.661,3.661,0,0,0-1.912.546l-.3-.88a4.557,4.557,0,0,1,2.412-.652c2.246,0,2.792,1.532,2.792,3v2.746a10.348,10.348,0,0,0,.121,1.76Zm-.2-3.748c-1.456-.03-3.11.228-3.11,1.654a1.182,1.182,0,0,0,1.26,1.275,1.826,1.826,0,0,0,1.774-1.229,1.365,1.365,0,0,0,.076-.425Z" transform="translate(-35.387 -300.904)" fill="#2c2b2b"/>
          <path id="Trazado_108838" data-name="Trazado 108838" d="M50.589,329.7c.03-.5.061-1.244.061-1.9v-8.876h1.319v4.613H52a2.733,2.733,0,0,1,2.5-1.351c1.821,0,3.111,1.517,3.1,3.747,0,2.625-1.654,3.93-3.293,3.93a2.616,2.616,0,0,1-2.458-1.381H51.8l-.061,1.214Zm1.38-2.943a2.575,2.575,0,0,0,.061.485,2.061,2.061,0,0,0,2,1.563c1.4,0,2.23-1.138,2.23-2.822,0-1.472-.758-2.732-2.184-2.732a2.131,2.131,0,0,0-2.034,1.639,2.63,2.63,0,0,0-.076.546Z" transform="translate(-35.817 -300.724)" fill="#2c2b2b"/>
          <path id="Trazado_108839" data-name="Trazado 108839" d="M60.471,326.447A2.353,2.353,0,0,0,62.99,329a4.811,4.811,0,0,0,2.033-.38l.227.956a5.947,5.947,0,0,1-2.443.455,3.41,3.41,0,0,1-3.611-3.7c0-2.214,1.3-3.959,3.444-3.959,2.4,0,3.034,2.109,3.034,3.459a4.851,4.851,0,0,1-.046.622Zm3.915-.956a1.9,1.9,0,0,0-1.851-2.169,2.212,2.212,0,0,0-2.048,2.169Z" transform="translate(-36.265 -300.904)" fill="#2c2b2b"/>
          <path id="Trazado_108840" data-name="Trazado 108840" d="M66.892,329.112l3.322-4.324c.319-.394.623-.744.956-1.138v-.03H67.2v-1.077h5.6l-.015.834L69.5,327.64c-.3.409-.607.773-.94,1.154v.029h4.294v1.063H66.892Z" transform="translate(-36.666 -300.913)" fill="#2c2b2b"/>
          <path id="Trazado_108841" data-name="Trazado 108841" d="M78.655,329.876l-.106-.925H78.5a2.736,2.736,0,0,1-2.246,1.092,2.092,2.092,0,0,1-2.246-2.109c0-1.774,1.578-2.746,4.415-2.731v-.152a1.514,1.514,0,0,0-1.669-1.7,3.663,3.663,0,0,0-1.912.546l-.3-.88a4.559,4.559,0,0,1,2.412-.652c2.246,0,2.793,1.532,2.793,3v2.746a10.354,10.354,0,0,0,.12,1.76Zm-.2-3.748c-1.457-.03-3.111.228-3.111,1.654a1.182,1.182,0,0,0,1.26,1.275,1.828,1.828,0,0,0,1.775-1.229,1.393,1.393,0,0,0,.076-.425Z" transform="translate(-37.037 -300.904)" fill="#2c2b2b"/>
        </g>
      </g>
      <g id="Capa_3" data-name="Capa 3" transform="translate(46.972 194.58)">
        <rect id="Rectángulo_6458" data-name="Rectángulo 6458" width="1.295" height="1.295" transform="translate(0 191.058)" fill="#17100d"/>
        <rect id="Rectángulo_6459" data-name="Rectángulo 6459" width="1.295" height="1.295" transform="translate(11.978 185.19)" fill="#17100d"/>
        <rect id="Rectángulo_6460" data-name="Rectángulo 6460" width="1.295" height="1.295" transform="translate(23.39 178.432)" fill="#17100d"/>
        <rect id="Rectángulo_6461" data-name="Rectángulo 6461" width="1.295" height="1.295" transform="translate(41.803 165.04)" fill="#17100d"/>
        <rect id="Rectángulo_6462" data-name="Rectángulo 6462" width="1.295" height="1.295" transform="translate(55.4 151.686)" fill="#17100d"/>
        <rect id="Rectángulo_6463" data-name="Rectángulo 6463" width="1.295" height="1.295" transform="translate(65.841 139.664)" fill="#17100d"/>
        <rect id="Rectángulo_6464" data-name="Rectángulo 6464" width="1.295" height="1.295" transform="translate(69.281 135.455)" fill="#17100d"/>
        <rect id="Rectángulo_6465" data-name="Rectángulo 6465" width="1.295" height="1.295" transform="translate(73.165 130.478)" fill="#17100d"/>
        <rect id="Rectángulo_6466" data-name="Rectángulo 6466" width="1.295" height="1.295" transform="translate(76.848 126.026)" fill="#17100d"/>
        <rect id="Rectángulo_6467" data-name="Rectángulo 6467" width="1.295" height="1.295" transform="translate(80.045 122.182)" fill="#17100d"/>
        <rect id="Rectángulo_6468" data-name="Rectángulo 6468" width="1.295" height="1.295" transform="translate(86.277 113.684)" fill="#17100d"/>
        <rect id="Rectángulo_6469" data-name="Rectángulo 6469" width="1.295" height="1.295" transform="translate(96.07 100.694)" fill="#17100d"/>
        <rect id="Rectángulo_6470" data-name="Rectángulo 6470" width="1.295" height="1.295" transform="translate(105.418 87.894)" fill="#17100d"/>
        <rect id="Rectángulo_6471" data-name="Rectángulo 6471" width="1.295" height="1.295" transform="translate(125.652 63.909)" fill="#17100d"/>
        <rect id="Rectángulo_6472" data-name="Rectángulo 6472" width="1.295" height="1.295" transform="translate(127.311 74.228)" fill="#17100d"/>
        <rect id="Rectángulo_6473" data-name="Rectángulo 6473" width="1.295" height="1.295" transform="translate(137.671 63.909)" fill="#17100d"/>
        <rect id="Rectángulo_6474" data-name="Rectángulo 6474" width="1.295" height="1.295" transform="translate(148.759 54.277)" fill="#17100d"/>
        <rect id="Rectángulo_6475" data-name="Rectángulo 6475" width="1.295" height="1.295" transform="translate(169.6 39.628)" fill="#17100d"/>
        <rect id="Rectángulo_6476" data-name="Rectángulo 6476" width="1.295" height="1.295" transform="translate(179.555 33.517)" fill="#17100d"/>
        <rect id="Rectángulo_6477" data-name="Rectángulo 6477" width="1.295" height="1.295" transform="translate(171.178 23.36)" fill="#17100d"/>
        <rect id="Rectángulo_6478" data-name="Rectángulo 6478" width="1.295" height="1.295" transform="translate(181.659 16.116)" fill="#17100d"/>
        <rect id="Rectángulo_6479" data-name="Rectángulo 6479" width="1.295" height="1.295" transform="translate(192.383 10.208)" fill="#17100d"/>
        <rect id="Rectángulo_6480" data-name="Rectángulo 6480" width="1.295" height="1.295" transform="translate(209.541 3.288)" fill="#17100d"/>
        <rect id="Rectángulo_6481" data-name="Rectángulo 6481" width="1.295" height="1.295" transform="translate(215.48 1.548)" fill="#17100d"/>
        <rect id="Rectángulo_6482" data-name="Rectángulo 6482" width="1.295" height="1.295" transform="translate(221.753 0.647)" fill="#17100d"/>
        <rect id="Rectángulo_6483" data-name="Rectángulo 6483" width="1.295" height="1.295" transform="translate(228.632)" fill="#17100d"/>
        <rect id="Rectángulo_6484" data-name="Rectángulo 6484" width="1.295" height="1.295" transform="translate(242.189 1.295)" fill="#17100d"/>
        <rect id="Rectángulo_6485" data-name="Rectángulo 6485" width="1.295" height="1.295" transform="translate(256.231 4.735)" fill="#17100d"/>
        <rect id="Rectángulo_6486" data-name="Rectángulo 6486" width="1.295" height="1.295" transform="translate(255.229 24.442)" fill="#17100d"/>
        <rect id="Rectángulo_6487" data-name="Rectángulo 6487" width="1.295" height="1.295" transform="translate(269.352 10.279)" fill="#17100d"/>
        <rect id="Rectángulo_6488" data-name="Rectángulo 6488" width="1.295" height="1.295" transform="translate(268.705 28.611)" fill="#17100d"/>
        <rect id="Rectángulo_6489" data-name="Rectángulo 6489" width="1.295" height="1.295" transform="translate(291.61 25.495)" fill="#17100d"/>
        <rect id="Rectángulo_6490" data-name="Rectángulo 6490" width="1.295" height="1.295" transform="translate(300.715 34.317)" fill="#17100d"/>
        <rect id="Rectángulo_6491" data-name="Rectángulo 6491" width="1.295" height="1.295" transform="translate(290.112 42.41)" fill="#17100d"/>
        <rect id="Rectángulo_6492" data-name="Rectángulo 6492" width="1.295" height="1.295" transform="translate(270.162 48.602)" fill="#17100d"/>
        <rect id="Rectángulo_6493" data-name="Rectángulo 6493" width="1.295" height="1.295" transform="translate(291.407 58.445)" fill="#17100d"/>
        <rect id="Rectángulo_6494" data-name="Rectángulo 6494" width="1.295" height="1.295" transform="translate(299.946 63.525)" fill="#17100d"/>
        <rect id="Rectángulo_6495" data-name="Rectángulo 6495" width="1.295" height="1.295" transform="translate(306.785 56.565)" fill="#17100d"/>
        <rect id="Rectángulo_6496" data-name="Rectángulo 6496" width="1.295" height="1.295" transform="translate(308.727 43.705)" fill="#17100d"/>
        <rect id="Rectángulo_6497" data-name="Rectángulo 6497" width="1.295" height="1.295" transform="translate(322.972 63.342)" fill="#17100d"/>
        <rect id="Rectángulo_6498" data-name="Rectángulo 6498" width="1.295" height="1.295" transform="translate(322.567 71.719)" fill="#17100d"/>
        <rect id="Rectángulo_6499" data-name="Rectángulo 6499" width="1.295" height="1.295" transform="translate(329.204 78.801)" fill="#17100d"/>
        <rect id="Rectángulo_6500" data-name="Rectángulo 6500" width="1.295" height="1.295" transform="translate(334.951 82.402)" fill="#17100d"/>
        <rect id="Rectángulo_6501" data-name="Rectángulo 6501" width="1.295" height="1.295" transform="translate(334.951 92.276)" fill="#17100d"/>
        <rect id="Rectángulo_6502" data-name="Rectángulo 6502" width="1.295" height="1.295" transform="translate(345.513 100.127)" fill="#17100d"/>
        <rect id="Rectángulo_6503" data-name="Rectángulo 6503" width="1.295" height="1.295" transform="translate(357.693 119.187)" fill="#17100d"/>
        <rect id="Rectángulo_6504" data-name="Rectángulo 6504" width="1.295" height="1.295" transform="translate(364.33 128.009)" fill="#17100d"/>
        <rect id="Rectángulo_6505" data-name="Rectángulo 6505" width="1.295" height="1.295" transform="translate(368.984 133.877)" fill="#17100d"/>
        <rect id="Rectángulo_6506" data-name="Rectángulo 6506" width="1.295" height="1.295" transform="translate(373.961 139.745)" fill="#17100d"/>
        <rect id="Rectángulo_6507" data-name="Rectángulo 6507" width="1.295" height="1.295" transform="translate(379.424 145.37)" fill="#17100d"/>
        <rect id="Rectángulo_6508" data-name="Rectángulo 6508" width="1.295" height="1.295" transform="translate(392.738 158.279)" fill="#17100d"/>
        <rect id="Rectángulo_6509" data-name="Rectángulo 6509" width="1.295" height="1.295" transform="translate(401.398 165.04)" fill="#17100d"/>
        <rect id="Rectángulo_6510" data-name="Rectángulo 6510" width="1.295" height="1.295" transform="translate(410.22 171.957)" fill="#17100d"/>
        <rect id="Rectángulo_6511" data-name="Rectángulo 6511" width="1.295" height="1.295" transform="translate(430.94 184.097)" fill="#17100d"/>
        <rect id="Rectángulo_6512" data-name="Rectángulo 6512" width="1.295" height="1.295" transform="translate(443.485 189.642)" fill="#17100d"/>
        <rect id="Rectángulo_6513" data-name="Rectángulo 6513" width="1.295" height="1.295" transform="translate(456.191 193.769)" fill="#17100d"/>
        <rect id="Rectángulo_6514" data-name="Rectángulo 6514" width="1.295" height="1.295" transform="translate(352.149 110.932)" fill="#17100d"/>
        <rect id="Rectángulo_6515" data-name="Rectángulo 6515" width="1.295" height="1.295" transform="translate(329.204 72.65)" fill="#17100d"/>
        <rect id="Rectángulo_6516" data-name="Rectángulo 6516" width="1.295" height="1.295" transform="translate(328.557 86.328)" fill="#17100d"/>
        <rect id="Rectángulo_6517" data-name="Rectángulo 6517" width="1.295" height="1.295" transform="translate(322.325 80.662)" fill="#17100d"/>
        <rect id="Rectángulo_6518" data-name="Rectángulo 6518" width="1.295" height="1.295" transform="translate(298.651 49.483)" fill="#17100d"/>
        <rect id="Rectángulo_6519" data-name="Rectángulo 6519" width="1.295" height="1.295" transform="translate(308.08 69.291)" fill="#17100d"/>
        <rect id="Rectángulo_6520" data-name="Rectángulo 6520" width="1.295" height="1.295" transform="translate(256.808 44.312)" fill="#17100d"/>
        <rect id="Rectángulo_6521" data-name="Rectángulo 6521" width="1.295" height="1.295" transform="translate(241.218 22.419)" fill="#17100d"/>
        <rect id="Rectángulo_6522" data-name="Rectángulo 6522" width="1.295" height="1.295" transform="translate(189.874 28.499)" fill="#17100d"/>
        <rect id="Rectángulo_6523" data-name="Rectángulo 6523" width="1.295" height="1.295" transform="translate(207.923 23.198)" fill="#17100d"/>
        <rect id="Rectángulo_6524" data-name="Rectángulo 6524" width="1.295" height="1.295" transform="translate(210.391 43.594)" fill="#17100d"/>
        <rect id="Rectángulo_6525" data-name="Rectángulo 6525" width="1.295" height="1.295" transform="translate(222.846 41.692)" fill="#17100d"/>
        <rect id="Rectángulo_6526" data-name="Rectángulo 6526" width="1.295" height="1.295" transform="translate(221.105 21.609)" fill="#17100d"/>
        <rect id="Rectángulo_6527" data-name="Rectángulo 6527" width="1.295" height="1.295" transform="translate(227.54 21.609)" fill="#17100d"/>
        <rect id="Rectángulo_6528" data-name="Rectángulo 6528" width="1.295" height="1.295" transform="translate(214.185 22.256)" fill="#17100d"/>
        <rect id="Rectángulo_6529" data-name="Rectángulo 6529" width="1.295" height="1.295" transform="translate(193.354 48.207)" fill="#17100d"/>
        <rect id="Rectángulo_6530" data-name="Rectángulo 6530" width="1.295" height="1.295" transform="translate(172.756 56.665)" fill="#17100d"/>
        <rect id="Rectángulo_6531" data-name="Rectángulo 6531" width="1.295" height="1.295" transform="translate(183.318 51.768)" fill="#17100d"/>
        <rect id="Rectángulo_6532" data-name="Rectángulo 6532" width="1.295" height="1.295" transform="translate(148.759 41.215)" fill="#17100d"/>
        <rect id="Rectángulo_6533" data-name="Rectángulo 6533" width="1.295" height="1.295" transform="translate(137.226 52.052)" fill="#17100d"/>
        <rect id="Rectángulo_6534" data-name="Rectángulo 6534" width="1.295" height="1.295" transform="translate(48.925 158.565)" fill="#17100d"/>
      </g>
    </g>
    <rect id="Rectángulo_6544" data-name="Rectángulo 6544" width="538" height="38" rx="5" transform="translate(832 4435)" fill="#ff9696"/>
    <rect id="Rectángulo_6545" data-name="Rectángulo 6545" width="538" height="38" rx="5" transform="translate(832 4503)" fill="#8c757e"/>
    <rect id="Rectángulo_6546" data-name="Rectángulo 6546" width="538" height="38" rx="4" transform="translate(832 4574)" fill="#ffad54"/>
    <text id="Cabeza_de_manga_deportiva_sisa_delantera_sisa_posterior_5" data-name="Cabeza de manga deportiva = sisa delantera + sisa posterior / 5" transform="translate(843 4443)" fill="#12263f" font-size="16" font-family="Roboto-Regular, Roboto"><tspan x="0" y="17">Cabeza de manga deportiva = </tspan><tspan y="17" font-family="Roboto-Bold, Roboto" font-weight="700">sisa delantera + sisa posterior / 5</tspan></text>
    <text id="Cabeza_de_manga_casual_sisa_delantera_sisa_posterior_4" data-name="Cabeza de manga casual = sisa delantera + sisa posterior / 4" transform="translate(843 4510)" fill="#fff" font-size="16" font-family="Roboto-Regular, Roboto"><tspan x="0" y="17">Cabeza de manga casual = </tspan><tspan y="17" font-family="Roboto-Bold, Roboto" font-weight="700">sisa delantera + sisa posterior / 4</tspan></text>
    <text id="Cabeza_de_manga_sastre_o_formal_sisa_delantera_sisa_posterior_3" data-name="Cabeza de manga sastre o formal = sisa delantera + sisa posterior / 3" transform="translate(843 4581)" fill="#12263f" font-size="16" font-family="Roboto-Regular, Roboto"><tspan x="0" y="17">Cabeza de manga sastre o formal =</tspan><tspan y="17" xml:space="preserve" font-family="Roboto-Bold, Roboto" font-weight="700"> sisa delantera + sisa posterior / 3</tspan></text>
    <g id="Elipse_4100" data-name="Elipse 4100" transform="translate(804 4444)" fill="#ff9696" stroke="#636363" stroke-width="3">
      <circle cx="10" cy="10" r="10" stroke="none"/>
      <circle cx="10" cy="10" r="8.5" fill="none"/>
    </g>
    <g id="Elipse_4101" data-name="Elipse 4101" transform="translate(804 4513)" fill="#8c757e" stroke="#636363" stroke-width="3">
      <circle cx="10" cy="10" r="10" stroke="none"/>
      <circle cx="10" cy="10" r="8.5" fill="none"/>
    </g>
    <g id="Elipse_4102" data-name="Elipse 4102" transform="translate(804 4584)" fill="#ffad54" stroke="#636363" stroke-width="3">
      <circle cx="10" cy="10" r="10" stroke="none"/>
      <circle cx="10" cy="10" r="8.5" fill="none"/>
    </g>
    <path id="Trazado_108842" data-name="Trazado 108842" d="M-5559-7075.667h255.333V-7105h18" transform="translate(6085 11700)" fill="none" stroke="#707070" stroke-width="1" stroke-dasharray="3 3"/>
    <path id="Trazado_108843" data-name="Trazado 108843" d="M-5541.667-7101.5H-5336v-76.833h49.667" transform="translate(6085 11700)" fill="none" stroke="#707070" stroke-width="1" stroke-dasharray="3 3"/>
    <path id="Trazado_108844" data-name="Trazado 108844" d="M-5523.333-7134h152.667v-114h82" transform="translate(6085 11700)" fill="none" stroke="#707070" stroke-width="1" stroke-dasharray="3 3"/>
  </g>
</svg>
