<svg xmlns="http://www.w3.org/2000/svg" xmlns:xlink="http://www.w3.org/1999/xlink" width="188" height="188" viewBox="0 0 188 188">
  <defs>
    <clipPath id="clip-path">
      <circle id="Elipse_4088" data-name="Elipse 4088" cx="83.663" cy="83.663" r="83.663" transform="translate(2622.167 1025.986)" fill="none"/>
    </clipPath>
  </defs>
  <g id="Grupo_56572" data-name="Grupo 56572" transform="translate(-700 -3900)">
    <circle id="Elipse_4082" data-name="Elipse 4082" cx="94" cy="94" r="94" transform="translate(700 3900)" fill="#ede3b7"/>
    <ellipse id="Elipse_4083" data-name="Elipse 4083" cx="83.5" cy="83" rx="83.5" ry="83" transform="translate(712 3911)" fill="#fff"/>
    <ellipse id="Elipse_4084" data-name="Elipse 4084" cx="83.5" cy="83" rx="83.5" ry="83" transform="translate(711 3911)" fill="#fff" opacity="0.25"/>
    <g id="Grupo_56562" data-name="Grupo 56562" transform="translate(-1909.493 2883.688)">
      <g id="Grupo_56561" data-name="Grupo 56561" clip-path="url(#clip-path)">
        <g id="Grupo_56560" data-name="Grupo 56560">
          <g id="Grupo_56558" data-name="Grupo 56558">
            <g id="Grupo_56554" data-name="Grupo 56554">
              <path id="Trazado_107012" data-name="Trazado 107012" d="M2569.681,1138.841s-23.132,0-22.878-6.993c.579-15.96,11.629-70.441,11.629-70.441l-.976-.573a28.762,28.762,0,0,0-3.383,2.07c-8.3,5.932-12.78,18.674-16.388,27.522-2.566,6.3-4.826,12.7-7.16,19.083-1.014,2.766-1.789,5.624-2.762,8.407-1.064,3.016-3.728,5.054-4.847,8.02-1.578,4.173,3.632,7.073,9.009,8.785a42.4,42.4,0,0,0,8.9,2.9c4.555,1,9.056,1.977,13.7,2.533,1.413.17,14.631.3,14.532.025.1.275.344.309.592.206h0Z" fill="#ffbe2c"/>
              <path id="Trazado_107013" data-name="Trazado 107013" d="M2744.987,1125.936c-1.121-2.966-3.787-5-4.849-8.02-.973-2.783-1.748-5.641-2.763-8.407-2.332-6.383-4.593-12.786-7.159-19.083-3.608-8.848-8.09-21.59-16.388-27.522a28.74,28.74,0,0,0-3.383-2.07l-.976.573s11.05,54.481,11.629,70.441c.254,6.994-22.877,6.993-22.877,6.993l.036,1.546c.25.1.489.069.592-.206-.1.272,13.119.145,14.531-.025,4.64-.556,9.141-1.532,13.7-2.533a42.416,42.416,0,0,0,8.9-2.9C2741.353,1133.009,2746.563,1130.109,2744.987,1125.936Z" fill="#ffbe2c"/>
              <path id="Trazado_107014" data-name="Trazado 107014" d="M2721.1,1131.848c-.579-15.96-11.629-70.441-11.629-70.441l.976-.573a35.592,35.592,0,0,0-10.384-3.437c-2.316-.409-4.693-.434-6.978-.985-2.235-.536-4.365-1.417-6.544-2.124-3.022-.975-6.138-1.6-9.091-2.78-2.217-.877-4.589-1.354-6.85-2.109a18.23,18.23,0,0,1-3.715-1.541,12.687,12.687,0,0,0-2.621-1.616c-2.371-.739-4.649.681-6.607,1.852a30.356,30.356,0,0,1-7.024,3.066,60.983,60.983,0,0,1-18.33,2.072,105.537,105.537,0,0,1-16.184-1.008,19.234,19.234,0,0,1-6.764-3.041c-2.125-1.321-4.5-2.881-7.126-2.313-1.35.292-2.277,1.563-3.614,2.068-2.669,1.008-5.509,1.521-8.159,2.57-2.952,1.176-6.07,1.8-9.092,2.78-2.179.707-4.307,1.588-6.544,2.124-2.285.551-4.662.576-6.979.985a35.574,35.574,0,0,0-10.383,3.437l.976.573s-11.05,54.481-11.629,70.441c-.254,6.994,22.878,6.993,22.878,6.993l-.037,1.546h0c-.189,8.543-.565,17.119-.319,25.632.1,3.553.415,7.025.858,10.458a13.887,13.887,0,0,1-2.478,9.706,4.594,4.594,0,0,0-.853,2.037c-.028.053-.065.095-.092.148-.264,2.04.7,3.533,1.043,5.6a9.972,9.972,0,0,1-1.25,5.946c-.253.548-.5,1.1-.74,1.649a284.574,284.574,0,0,0-5.134,30.455c-.2,1.571-1.153,5.822.134,7.245,2.568,2.864,6.327,4.331,9.672,6.161,9.234,5.048,19.79,8.309,30.157,10.4a177.159,177.159,0,0,0,32.923,3.4c.128,0,.257-.006.386-.006a3.541,3.541,0,0,0,.384-.008,175.964,175.964,0,0,0,32.924-3.389c10.367-2.088,20.923-5.349,30.155-10.4,3.348-1.83,7.106-3.3,9.672-6.161,1.287-1.423.334-5.674.136-7.245a284.025,284.025,0,0,0-5.134-30.455c-.245-.551-.487-1.1-.74-1.649a9.987,9.987,0,0,1-1.251-5.946c.342-2.069,1.31-3.562,1.045-5.6-.027-.053-.066-.1-.091-.148a4.585,4.585,0,0,0-.854-2.037,13.881,13.881,0,0,1-2.479-9.706c.444-3.433.756-6.905.859-10.458.244-8.513-.131-17.089-.32-25.632l-.036-1.546S2721.352,1138.842,2721.1,1131.848Z" fill="#b2b2b2"/>
            </g>
            <g id="Grupo_56555" data-name="Grupo 56555">
              <path id="Trazado_107015" data-name="Trazado 107015" d="M2558.433,1061.408a20.658,20.658,0,0,0-5.123,3.65c-7.383,7.234-11.406,18.151-15.172,27.437-3.6,8.868-5.68,18.684-9.852,27.3-2.048,4.225-5.709,7.6-.665,11.162,5.268,3.188,12.249,4.6,17.948,5.66a148.922,148.922,0,0,0,24.112,2.221c.023-1.329.046-2.655.055-3.975.093-11.81-.639-24.117.989-35.841.2-1.476.368-3.1.44-4.84a40.216,40.216,0,0,0-2.948-6.733c-1.147-2.077-1.975-4.59-3.325-6.511-.029-.045.058-.12.1-.084,1.548,1.818,2.487,4.182,3.9,6.128a15.058,15.058,0,0,1,2.393,4.57c.13-7.117-.862-15.176-4.077-20.383C2564.055,1065.158,2560.9,1062.516,2558.433,1061.408Z" fill="#fff4a1"/>
              <path id="Trazado_107016" data-name="Trazado 107016" d="M2739.616,1119.8c-4.173-8.619-6.247-18.435-9.853-27.3-3.764-9.286-7.789-20.2-15.17-27.437a20.7,20.7,0,0,0-5.124-3.651c-2.47,1.108-5.622,3.75-8.774,9.765-3.214,5.207-4.206,13.266-4.075,20.383a15.057,15.057,0,0,1,2.393-4.57c1.412-1.946,2.352-4.31,3.9-6.128.036-.036.125.039.1.084-1.351,1.921-2.18,4.434-3.328,6.511a41.8,41.8,0,0,0-2.969,6.747c.095,1.721.259,3.35.464,4.826,1.627,11.724.9,24.031.987,35.841.009,1.32.034,2.646.056,3.975a148.921,148.921,0,0,0,24.111-2.221c5.7-1.06,12.68-2.472,17.948-5.66C2745.323,1127.4,2741.662,1124.023,2739.616,1119.8Z" fill="#fff4a1"/>
              <path id="Trazado_107017" data-name="Trazado 107017" d="M2709.469,1061.407c-7.3-3.731-16.27-3.392-24.328-5.312-.056-.016-.092-.114-.014-.108,1.726.139,3.425.253,5.1.367-5.516-1.749-10.912-3.225-16.38-5.266-2.007-.748-4.993-1-6.667-2.387-1.149-.951-1.875-2.477-3.9-2.018a7.018,7.018,0,0,0-2.47,1.184c.013.107,3.672,30.639-26.836,30.639-30.558,0-27.458-29.189-27.457-29.2a14.573,14.573,0,0,0-2.332-1.692c-1.652-.9-3.195,1.088-4.663,1.645-1.8.682-3.659,1.157-5.458,1.828-5.471,2.041-10.865,3.517-16.382,5.266,1.672-.114,3.369-.228,5.095-.367.081-.006.044.092-.014.108-8.056,1.92-17.027,1.581-24.326,5.313,2.471,1.108,5.622,3.75,8.773,9.764-.026-.042.059-.123.1-.078,4.965,5.5,5.572,15.743,5.28,22.774-.466,11.173-1.344,22.279-1.367,33.492-.025,12.585-1.27,25.495-.471,38.047.574,8.952,2.231,17.642,3.535,26.413.026,1.869-.025,3.729-.146,5.591-1.038-4.631-2.043-9.2-2.862-13.8a.266.266,0,0,1-.053.181c-2.755,3.878-2.84,6.547-1.544,10.881.667,2.238-2.185,6.383-2.778,8.852a212.972,212.972,0,0,0-4.634,28.2c-.146,1.474-.931,6.025.53,7.053a68.56,68.56,0,0,0,6.333,3.9,124.073,124.073,0,0,0,12.636,5.866,120.04,120.04,0,0,0,29.768,7.564,148.363,148.363,0,0,0,44.844,0,120,120,0,0,0,29.766-7.564,124.3,124.3,0,0,0,12.638-5.866,68.3,68.3,0,0,0,6.333-3.9c1.459-1.028.675-5.579.531-7.053a212.98,212.98,0,0,0-4.637-28.2c-.59-2.469-3.445-6.614-2.778-8.852,1.3-4.334,1.212-7-1.543-10.881a.276.276,0,0,1-.052-.181c-.82,4.6-1.824,9.172-2.861,13.8-.122-1.862-.175-3.722-.147-5.591,1.3-8.771,2.96-17.461,3.536-26.413.8-12.552-.448-25.462-.473-38.047-.022-11.213-.9-22.319-1.365-33.492-.292-7.031.312-17.275,5.28-22.774.036-.045.122.036.094.078C2703.847,1065.157,2707,1062.515,2709.469,1061.407Z" fill="#fff"/>
            </g>
            <g id="Grupo_56557" data-name="Grupo 56557">
              <path id="Trazado_107018" data-name="Trazado 107018" d="M2634,1086.146c5.792,0,11.74-.863,16.955-3.5a24.459,24.459,0,0,0,11.01-11.314,35.776,35.776,0,0,0,3.215-13.471c.1-1.756.752-11.283-1.981-11.329-1.585-.027-3.437,2.408-4.487,3.307a13.217,13.217,0,0,1-3.3,1.931,19.475,19.475,0,0,1-5.374,1.872c-2.132.3-4.279.487-6.413.772a96.364,96.364,0,0,1-20.54.456,53.875,53.875,0,0,1-5.479-.525,29.9,29.9,0,0,1-4.93-1.56c-2.35-.879-3.987-2.4-6.007-3.728a6.93,6.93,0,0,0-3.083-1.2c-1.056-.046-.9.549-.945,1.37-.158,2.728-.526,5.373-.422,8.126a36.083,36.083,0,0,0,2.539,12.432,24.733,24.733,0,0,0,9.319,11.384C2619.948,1084.969,2627.123,1086.146,2634,1086.146Z" fill="#efefef" style="mix-blend-mode: multiply;isolation: isolate"/>
              <g id="Grupo_56556" data-name="Grupo 56556">
                <path id="Trazado_107019" data-name="Trazado 107019" d="M2633.982,1083.929c35.739,0,28.134-37.2,28.121-37.33-1.478,1.153-2.8,2.694-4.314,3.663-4.568,2.932-9.83,3.012-14.933,3.711a86.73,86.73,0,0,1-18.932.43c-5.525-.459-11.315-.857-16.211-4.045a19.594,19.594,0,0,1-2.5-2.085C2605.211,1048.285,2598.244,1083.929,2633.982,1083.929Z" fill="#ffe67b"/>
                <path id="Trazado_107020" data-name="Trazado 107020" d="M2663.169,1051.361c-.073-1.047-.178-2.091-.321-3.13a6.292,6.292,0,0,0-.24-1.514.318.318,0,0,1-.014-.075c-.038-.269-.72-.32-.929-.207a1.326,1.326,0,0,1,.012.14c.012.159.03.319.055.477.037.183.073.366.1.551,0,.039,0,.078.009.117,0,.015.005.029.007.044.009.081.011.163.015.244,0,.047.007.095.009.142,0,.068,0,.136,0,.2.09.631.174,1.263.23,1.9a47.049,47.049,0,0,1-.03,8.825,33.225,33.225,0,0,1-2.769,10.671,22.785,22.785,0,0,1-7.784,9.3c-4.48,3.05-9.927,4.315-15.277,4.59-.825.042-1.65.06-2.476.062-5.547-.01-11.273-.864-16.18-3.59a22.355,22.355,0,0,1-8.592-8.538,29.792,29.792,0,0,1-3.378-10.172,42.044,42.044,0,0,1-.38-8.755c.046-.795.125-1.587.216-2.378-.013-.563-.032-1.125-.029-1.689,0-.147.016-.294.022-.442-.272-.109-.689-.195-.73.031a35.1,35.1,0,0,0-.433,3.633,43,43,0,0,0,.231,8.653,30.735,30.735,0,0,0,3.169,10.43,23,23,0,0,0,8.333,8.9,33.032,33.032,0,0,0,15.7,4.307q1.24.058,2.482.058c5.639-.01,11.453-.9,16.437-3.675a22.7,22.7,0,0,0,8.811-8.853,30.927,30.927,0,0,0,3.442-10.845A45.812,45.812,0,0,0,2663.169,1051.361Z" fill="#ffbe2c"/>
              </g>
            </g>
            <path id="Trazado_107021" data-name="Trazado 107021" d="M2633.97,1078.506c30.508,0,26.849-30.532,26.836-30.639-1.41.992-2.675,2.317-4.116,3.15-4.36,2.522-9.382,2.591-14.252,3.191a91.751,91.751,0,0,1-18.067.37c-5.273-.394-10.8-.737-15.471-3.478a18.341,18.341,0,0,1-2.387-1.793C2606.512,1049.317,2603.412,1078.506,2633.97,1078.506Z" fill="#ededed"/>
            <path id="Trazado_107022" data-name="Trazado 107022" d="M2660.806,1047.867c-1.41.992-2.675,2.317-4.116,3.15-4.36,2.522-9.382,2.591-14.252,3.191a91.751,91.751,0,0,1-18.067.37c-5.273-.394-10.8-.737-15.471-3.478a18.341,18.341,0,0,1-2.387-1.793c0,.01-3.1,29.2,27.457,29.2C2664.478,1078.506,2660.819,1047.974,2660.806,1047.867Zm-26.868,26.239c-27.092,0-24.344-21.492-24.343-21.5a16.411,16.411,0,0,0,2.116,1.321c4.142,2.018,9.042,2.271,13.716,2.561a97.919,97.919,0,0,0,16.019-.272c4.317-.443,8.769-.493,12.635-2.35,1.277-.614,2.4-1.59,3.649-2.32C2657.742,1051.625,2660.986,1074.106,2633.938,1074.106Z" fill="#efefef" style="mix-blend-mode: multiply;isolation: isolate"/>
            <path id="Trazado_107023" data-name="Trazado 107023" d="M2661.368,1048.8a10.005,10.005,0,0,0-.211-1.381.278.278,0,0,0-.139-.169c-.067.063-.132.128-.2.187-.025.022-.051.043-.078.063a1.851,1.851,0,0,1-.161.107c-.092.056-.189.1-.283.155-.053.047-.1.095-.157.143l.134-.051a22.971,22.971,0,0,1,.157,4.464,36.247,36.247,0,0,1-1.12,7.745,26.218,26.218,0,0,1-3.937,8.659,21.5,21.5,0,0,1-8.439,6.97,32.207,32.207,0,0,1-14.43,2.564,29.835,29.835,0,0,1-13.487-3.233c-5.832-3.172-9.533-8.848-11.109-15.192a33.957,33.957,0,0,1-.968-6.951c-.028-.772-.031-1.545,0-2.317a7.485,7.485,0,0,1,.028-.9c-.161-.174-.328-.342-.5-.5l-.233-.187a.954.954,0,0,0-.238.638c-.04.6-.055,1.209-.054,1.814a34.952,34.952,0,0,0,.617,6.521c1.207,6.328,4.377,12.261,9.758,15.979a27.886,27.886,0,0,0,12.122,4.437,38.3,38.3,0,0,0,15.73-.925,22.845,22.845,0,0,0,10.192-6.025,24.115,24.115,0,0,0,5.192-8.658A35.153,35.153,0,0,0,2661.368,1048.8Z" fill="#ffbe2c"/>
          </g>
          <path id="Trazado_107024" data-name="Trazado 107024" d="M2633.932,1068.467c.006-.036.014-.07.019-.106,0,.036.012.07.018.106Z" fill="#e0f1f3"/>
          <path id="Trazado_107025" data-name="Trazado 107025" d="M2582.8,1100.182c-.007-.228-.04-.456-.052-.682-.071,2.294-.114,4.59-.143,6.887A56.83,56.83,0,0,0,2582.8,1100.182Z" fill="#e0f1f3" style="mix-blend-mode: multiply;isolation: isolate"/>
          <path id="Trazado_107026" data-name="Trazado 107026" d="M2592.256,1055.264c.895-.518,1.79-1.036,2.7-1.531.417-.227.838-.444,1.253-.672.068-.041.295-.172.335-.2q.3-.18.6-.367a22.2,22.2,0,0,0,2.364-1.692,10.364,10.364,0,0,0,1.581-1.607,6.906,6.906,0,0,0,.934-1.338c-2.168,1.678-5.985,2.488-7.964,3.226-5.471,2.041-10.866,3.517-16.382,5.266,1.672-.114,3.369-.228,5.095-.367.081-.006.044.092-.014.108-10.069,2.4-21.575,1.251-29.449,8.963-7.383,7.234-11.406,18.151-15.172,27.437-3.6,8.868-5.68,18.684-9.852,27.3-2.048,4.225-5.709,7.6-.665,11.162,5.268,3.188,12.249,4.6,17.948,5.66a148.922,148.922,0,0,0,24.112,2.221c.023-1.329.046-2.655.055-3.975.093-11.81-.639-24.117.989-35.841.2-1.476.368-3.1.462-4.826,0,0-.019,0-.022-.014a40.216,40.216,0,0,0-2.948-6.733c-1.147-2.077-1.975-4.59-3.325-6.511-.029-.045.058-.12.1-.084,1.548,1.818,2.487,4.182,3.9,6.128a15.058,15.058,0,0,1,2.393,4.57c.114-6.33-.674-13.383-3.109-18.535a61.221,61.221,0,0,1,.443,7.212.716.716,0,0,1-1.215.5c-1.905-2.068-4.425-3.656-6.477-5.621,2.367,6.258,4.524,12.7,4.75,19.405a77.828,77.828,0,0,1-.561,11.106c-.02.87-.09,1.776-.2,2.724-.531,4.4-.728,8.683-.937,13.1-.125,2.646.067,6.955-1.769,9.121-1.5,1.771-3.681,1.793-5.863,1.79a87.594,87.594,0,0,1-11.171-.589c-3.387-.439-14.442-2.574-13.919-7.851.3-3.038,2.5-5.9,3.714-8.646,2.1-4.743,3.972-9.574,5.721-14.456,2.956-8.251,5.528-16.625,8.388-24.9.9-2.6,2.018-5.53,4.359-7.19.394-.278.8-.528,1.21-.761a17.488,17.488,0,0,1,10.061-5.811,28.7,28.7,0,0,1,7-.464c3.564.231,7.585,1.018,10.788-1.045,2.5-1.616,4.712-3.359,7.473-4.54C2590.715,1055.794,2591.482,1055.518,2592.256,1055.264Z" fill="#efefef" style="mix-blend-mode: multiply;isolation: isolate"/>
          <path id="Trazado_107027" data-name="Trazado 107027" d="M2739.616,1119.8c-4.173-8.619-6.247-18.435-9.853-27.3-3.764-9.286-7.789-20.2-15.17-27.437-7.874-7.712-19.38-6.563-29.452-8.963-.056-.016-.092-.114-.014-.108,1.726.139,3.425.253,5.1.367-5.516-1.749-10.912-3.225-16.381-5.266-1.306-.487-3.418-1.006-5.329-1.782q.666.643,1.377,1.236c.14.116.281.228.421.344-.412-.342-.012-.01.075.058q.427.332.862.654c.547.408,1.1.807,1.655,1.2a39.766,39.766,0,0,0,3.567,2.346c.714.4,1.443.78,2.181,1.137.308.15.619.293.931.434l.186.079q.235.1.471.193a3.656,3.656,0,0,1,.324.18,33.626,33.626,0,0,1,5.524,1.38,3.478,3.478,0,0,1,.618.324c2.5.414,5,.848,7.473,1.416,1.961.447,3.937.986,5.875,1.637.183.033.364.072.548.106,2.855.508,7.572,2.062,9.307,5.015.6.484,1.179.989,1.732,1.535,5.977,5.918,8.629,14.331,11.276,22.118q2.49,7.33,4.595,14.787c1.321,4.651,3.2,9.569,3.873,14.361a8.844,8.844,0,0,1,.039,2.38c.067.231.142.462.209.692a.679.679,0,0,1-.64.868c-1.5,3.553-6.224,4.423-10.3,5.7-3.928,1.231-11.7,3.3-13.125-2.383-1.154-4.59-1.52-9.455-2.263-14.128-.806-5.068-1.788-10.15-2.357-15.254-.843-7.554,1.634-14.181,5.6-20.278a3.16,3.16,0,0,1-.8-.7,51.157,51.157,0,0,0-6.339,3.8.716.716,0,0,1-1.045-.8,44.144,44.144,0,0,0,2.28-10.514c-9.427,4.554-15.649,14.123-17.523,24.315-.092,2.527.019,5.076.156,7.622,1.134,21.029,2.2,42.485-.54,63.436-1.234,9.405-3.124,18.851-6.658,27.686-3.308,8.265-9.043,14.479-16.361,19.414a55.23,55.23,0,0,1-27.77,9.571v.028a41.864,41.864,0,0,1-14.278-2.132.587.587,0,0,1-.525.2c-7.519-.642-14.6-7.108-19.519-13.074a62.272,62.272,0,0,1-15.981-26.769.633.633,0,0,1,.112-.6c-.939-2.344-1.808-4.7-2.553-7.056a73.326,73.326,0,0,1-3.114-22.78c-.213-1.915-.389-3.836-.5-5.763-.539-9.78.6-19.383.964-29.138.489-13.283-.711-28.42-8.792-39.307,2.7,5.666,3.045,13.353,2.812,18.985-.466,11.173-1.344,22.279-1.367,33.492-.025,12.585-1.27,25.495-.471,38.047.574,8.952,2.231,17.642,3.535,26.413.026,1.869-.025,3.729-.146,5.591-1.038-4.631-2.043-9.2-2.862-13.8a.266.266,0,0,1-.053.181c-2.755,3.878-2.84,6.547-1.544,10.881.667,2.238-2.185,6.383-2.778,8.852a212.972,212.972,0,0,0-4.634,28.2c-.146,1.474-.931,6.025.53,7.053a68.56,68.56,0,0,0,6.333,3.9,124.073,124.073,0,0,0,12.636,5.866,120.04,120.04,0,0,0,29.768,7.564,209.708,209.708,0,0,0,22.422,1.7,223.772,223.772,0,0,0,22.422-1.7,120,120,0,0,0,29.766-7.564,124.3,124.3,0,0,0,12.638-5.866,68.3,68.3,0,0,0,6.333-3.9c1.459-1.028.675-5.579.531-7.053a213.14,213.14,0,0,0-4.637-28.2c-.59-2.469-3.445-6.614-2.778-8.852,1.3-4.334,1.212-7-1.543-10.881a.276.276,0,0,1-.052-.181c-.82,4.6-1.824,9.172-2.861,13.8-.122-1.862-.175-3.722-.147-5.591,1.3-8.771,2.96-17.461,3.536-26.413.8-12.552-.448-25.462-.473-38.047-.022-11.213-.9-22.319-1.365-33.492-.292-7.031.311-17.275,5.28-22.774.036-.045.122.036.094.078-3.214,5.207-4.206,13.266-4.075,20.383a15.057,15.057,0,0,1,2.393-4.57c1.412-1.946,2.352-4.31,3.9-6.128.036-.036.125.039.1.084-1.351,1.921-2.18,4.434-3.328,6.511a40.212,40.212,0,0,0-2.947,6.733c0,.014-.016.011-.022.014.095,1.721.259,3.35.464,4.826,1.627,11.724.9,24.031.987,35.841.009,1.32.034,2.646.056,3.975a148.921,148.921,0,0,0,24.111-2.221c5.7-1.06,12.68-2.472,17.948-5.66C2745.323,1127.4,2741.662,1124.023,2739.616,1119.8Z" fill="#efefef" style="mix-blend-mode: multiply;isolation: isolate"/>
          <path id="Trazado_107028" data-name="Trazado 107028" d="M2570.585,1092.578c-.367,7.29-1.556,14.6-2.479,21.771-.39,3.025-.8,6.055-1.371,9.052-.478,2.5-.728,5.576-1.961,7.839-1.55,2.844-4.383,3.737-7.561,4.006-13.046,1.107-26.25-4.289-28.192-5.788a7.691,7.691,0,0,1-2.948-5.651c-1.307,2.5-1.8,4.787,1.548,7.153,5.268,3.188,12.249,4.6,17.948,5.66a148.922,148.922,0,0,0,24.112,2.221c.023-1.329.045-2.655.055-3.975.093-11.81-.639-24.117.988-35.841.206-1.476.369-3.1.463-4.826,0,0-.019,0-.022-.014C2570.98,1093.64,2570.786,1093.106,2570.585,1092.578Z" fill="#efefef" style="mix-blend-mode: multiply;isolation: isolate"/>
          <path id="Trazado_107029" data-name="Trazado 107029" d="M2570.679,1089.99a11.9,11.9,0,0,1,.6,1.565,52.091,52.091,0,0,0-1.49-13.986A61.635,61.635,0,0,1,2570.679,1089.99Z" fill="#e0f1f3" style="mix-blend-mode: multiply;isolation: isolate"/>
          <path id="Trazado_107030" data-name="Trazado 107030" d="M2705.641,1231.717a212.982,212.982,0,0,0-4.638-28.2c-.589-2.469-3.444-6.614-2.777-8.852,1.3-4.334,1.212-7-1.543-10.881a.278.278,0,0,1-.053-.181c-.82,4.6-1.823,9.172-2.86,13.8-.123-1.862-.175-3.722-.148-5.591,1.3-8.771,2.961-17.461,3.537-26.413.8-12.552-.448-25.462-.473-38.047-.022-11.213-.9-22.319-1.365-33.492a51.164,51.164,0,0,1,1.343-14.882c.017-.161.03-.322.05-.48-6.041,11.242-4.407,25.546-3.884,37.992a255.347,255.347,0,0,1-4.128,55.384c-2.922,16.283-8.871,32.416-19.778,45.112-4.773,5.557-10.311,10.5-17.005,13.619-.2.092-.4.17-.595.259,16.224-2.783,31.909-11.518,42.346-24.048.514-.616,1.273.081,1.19.693-1.58,11.654-5.313,23.313-14.679,31.07-11.262,9.33-26.792,13.753-41.244,14.159-1.436.038-3.54.038-4.986.016v-.019c-12.952-.376-26.772-3.35-37.854-10.145-10.081-6.18-23.212-17.483-20.99-30.714a.71.71,0,0,1,.876-.5c8.007,3.027,13.667,9.83,20.278,14.965a101.658,101.658,0,0,0,8.519,5.921c-7.321-7.445-14.29-15.14-18.9-24.726-6.8-14.169-9.2-29.137-9.974-44.714-.819-16.48.108-32.913.019-49.393-.044-8.24-.339-16.583-1.985-24.682a42.906,42.906,0,0,0-2.085-6.958,56.155,56.155,0,0,1,.721,12.068c-.465,11.173-1.344,22.279-1.366,33.492-.025,12.585-1.27,25.495-.471,38.047.574,8.952,2.231,17.642,3.535,26.413.026,1.869-.025,3.729-.146,5.591-1.038-4.631-2.044-9.2-2.862-13.8a.266.266,0,0,1-.053.181c-2.755,3.878-2.84,6.547-1.545,10.881.668,2.238-2.185,6.383-2.777,8.852a212.972,212.972,0,0,0-4.634,28.2c-.146,1.474-.932,6.025.53,7.053a68.676,68.676,0,0,0,6.332,3.9,124.187,124.187,0,0,0,12.637,5.866,120.04,120.04,0,0,0,29.768,7.564,148.356,148.356,0,0,0,44.843,0,119.99,119.99,0,0,0,29.766-7.564,124.222,124.222,0,0,0,12.639-5.866,68.43,68.43,0,0,0,6.333-3.9C2706.569,1237.742,2705.785,1233.191,2705.641,1231.717Z" fill="#efefef" style="mix-blend-mode: multiply;isolation: isolate"/>
          <path id="Trazado_107031" data-name="Trazado 107031" d="M2739.616,1119.8c-4.173-8.619-6.247-18.435-9.853-27.3-1.2-2.958-2.424-6.08-3.778-9.2,1.273,3.7,2.316,7.543,3.256,11.41,1.073,4.409,1.932,8.807,2.707,13.277a58.707,58.707,0,0,0,4.61,14.493c2.56,5.729-2.058,7.675-6.85,9.385-6.242,2.23-13.437,4.729-20.17,4.106-2.757-.256-5.21-.9-7.117-3.013-1.929-2.138-1.362-6.458-1.64-9.049-1.084-10.167-2.691-20.273-3.789-30.437-.084.24-.175.473-.256.715,0,.014-.016.011-.022.014.094,1.721.258,3.35.464,4.826,1.626,11.724.9,24.031.987,35.841.009,1.32.034,2.646.056,3.975a148.921,148.921,0,0,0,24.111-2.221c5.7-1.06,12.68-2.472,17.948-5.66C2745.323,1127.4,2741.662,1124.024,2739.616,1119.8Z" fill="#f9ce46"/>
          <path id="Trazado_107032" data-name="Trazado 107032" d="M2552.188,1076.843c-5.677,12-8.7,25.638-13.063,38.179-.21.6.559.442.745.05,5.883-12.344,7.624-25.655,12.557-38.212C2552.5,1076.671,2552.248,1076.715,2552.188,1076.843Z" fill="#e0f1f3" opacity="0.5" style="mix-blend-mode: screen;isolation: isolate"/>
          <path id="Trazado_107033" data-name="Trazado 107033" d="M2601.8,1202.235c-7.213-9.975-13.2-20.965-16.665-32.649-3.821-12.9-3.677-24.709-3.321-38,.289-10.815.338-21.71,1.006-32.507.595-9.6-2.254-16.583-7.04-24.924-.082-.144-.316.05-.256.176,2.451,5.223,4.958,10.658,5.8,16.349.86,5.838-.344,12.26-.355,18.168-.022,11-.8,22-1.1,33-.623,22.624,7.489,42.538,21.642,60.633C2601.607,1202.61,2601.889,1202.363,2601.8,1202.235Z" fill="#e0f1f3" opacity="0.5" style="mix-blend-mode: screen;isolation: isolate"/>
          <path id="Trazado_107034" data-name="Trazado 107034" d="M2707.823,1084.891c.028-.169-.217-.1-.248.02-3.522,12.318-.967,25.526,1.143,37.909.095.55.806.022.8-.362C2709.235,1110.068,2705.782,1097.21,2707.823,1084.891Z" fill="#e0f1f3" opacity="0.5" style="mix-blend-mode: screen;isolation: isolate"/>
          <path id="Trazado_107035" data-name="Trazado 107035" d="M2558.433,1061.408a20.653,20.653,0,0,0-5.122,3.65c-7.384,7.234-11.407,18.151-15.173,27.437-3.6,8.868-5.679,18.684-9.852,27.3-2.048,4.225-5.709,7.6-.665,11.162,5.269,3.188,12.249,4.6,17.948,5.66a148.932,148.932,0,0,0,24.112,2.221c.024-1.329.046-2.655.056-3.975.093-11.81-.64-24.117.988-35.841.206-1.476.368-3.1.44-4.84a40.136,40.136,0,0,0-2.948-6.733c-1.147-2.077-1.975-4.59-3.325-6.511-.029-.045.059-.12.1-.084,1.549,1.818,2.487,4.182,3.9,6.128a15.083,15.083,0,0,1,2.394,4.57c.129-7.117-.862-15.176-4.077-20.383C2564.055,1065.158,2560.9,1062.516,2558.433,1061.408Z" fill="#ffe67b"/>
          <path id="Trazado_107036" data-name="Trazado 107036" d="M2739.616,1119.8c-4.173-8.619-6.247-18.435-9.852-27.3-3.765-9.286-7.79-20.2-15.171-27.437a20.71,20.71,0,0,0-5.123-3.651c-2.471,1.108-5.622,3.75-8.775,9.765-3.214,5.207-4.206,13.266-4.075,20.383a15.057,15.057,0,0,1,2.393-4.57c1.412-1.946,2.352-4.31,3.9-6.128.036-.036.125.039.1.084-1.351,1.921-2.18,4.434-3.328,6.511a41.881,41.881,0,0,0-2.969,6.747c.095,1.721.259,3.35.465,4.826,1.626,11.724.9,24.031.986,35.841.009,1.32.034,2.646.056,3.975a148.91,148.91,0,0,0,24.111-2.221c5.7-1.06,12.68-2.472,17.948-5.66C2745.323,1127.4,2741.662,1124.023,2739.616,1119.8Z" fill="#ffe67b"/>
          <g id="Grupo_56559" data-name="Grupo 56559">
            <path id="Trazado_107037" data-name="Trazado 107037" d="M2569.737,1134.866c.093-11.81-.64-24.117.988-35.841.206-1.476.368-3.1.463-4.826,0,0-.02,0-.023-.014a40.136,40.136,0,0,0-2.948-6.733c-1.146-2.077-1.975-4.59-3.325-6.511-.029-.045.059-.12.1-.084,1.549,1.818,2.487,4.182,3.9,6.128a15.083,15.083,0,0,1,2.394,4.57,55.674,55.674,0,0,0-.961-11.716,37.182,37.182,0,0,1-1.685-5.7c-.153-.375-.295-.761-.464-1.118a61.012,61.012,0,0,1,.443,7.212.716.716,0,0,1-1.214.5c-1.906-2.068-4.426-3.656-6.478-5.621,2.367,6.258,4.525,12.7,4.75,19.405a77.97,77.97,0,0,1-.56,11.106c-.021.87-.091,1.776-.205,2.724-.531,4.4-.728,8.682-.936,13.1-.126,2.646.066,6.955-1.77,9.121-1.5,1.771-3.681,1.793-5.863,1.79a87.578,87.578,0,0,1-11.17-.589c-3.388-.439-14.443-2.574-13.92-7.851.3-3.038,2.5-5.9,3.714-8.646,2.1-4.743,3.973-9.574,5.721-14.456,2.956-8.251,5.528-16.625,8.388-24.9.9-2.6,2.018-5.53,4.359-7.19.395-.278.8-.528,1.211-.761a18.167,18.167,0,0,1,6.746-4.843c-.637-.395-1.266-.8-1.867-1.249a3.515,3.515,0,0,1-.775-.627,20.741,20.741,0,0,0-5.437,3.8c-7.384,7.234-11.407,18.151-15.172,27.437-3.6,8.868-5.68,18.684-9.853,27.3-2.048,4.225-5.709,7.6-.665,11.162,5.269,3.188,12.249,4.6,17.948,5.66a149.032,149.032,0,0,0,24.112,2.221C2569.705,1137.512,2569.727,1136.186,2569.737,1134.866Z" fill="#ffe67b" opacity="0.5" style="mix-blend-mode: multiply;isolation: isolate"/>
            <path id="Trazado_107038" data-name="Trazado 107038" d="M2739.616,1119.8c-4.173-8.619-6.247-18.435-9.852-27.3-3.765-9.286-7.79-20.2-15.171-27.437a20.663,20.663,0,0,0-4.922-3.554c-1.071.855-2.184,1.67-3.282,2.5a8.75,8.75,0,0,1,3.519,3.048c.6.484,1.179.989,1.732,1.535,5.977,5.918,8.63,14.331,11.276,22.117q2.49,7.332,4.6,14.788c1.32,4.651,3.2,9.569,3.872,14.361a8.843,8.843,0,0,1,.039,2.38c.067.231.142.462.209.692a.678.678,0,0,1-.64.868c-1.5,3.553-6.224,4.423-10.3,5.7-3.928,1.231-11.7,3.3-13.125-2.383-1.153-4.59-1.52-9.455-2.263-14.128-.806-5.068-1.787-10.15-2.357-15.254-.842-7.554,1.635-14.181,5.6-20.278a3.177,3.177,0,0,1-.8-.7,51.146,51.146,0,0,0-6.338,3.8.717.717,0,0,1-1.046-.8,44.144,44.144,0,0,0,2.28-10.514,28.157,28.157,0,0,0-2.894,1.632,26.121,26.121,0,0,0-4.536,13.612c-.029,1.2.024,2.4.11,3.6.283-6.095,1.555-12.869,5.274-16.984.036-.045.122.036.094.078-3.214,5.207-4.206,13.266-4.075,20.383a15.079,15.079,0,0,1,2.393-4.57c1.412-1.946,2.352-4.31,3.9-6.128.036-.036.125.039.1.084-1.351,1.921-2.18,4.434-3.328,6.511a40.292,40.292,0,0,0-2.947,6.733c0,.014-.016.011-.022.014.095,1.721.259,3.35.465,4.826,1.626,11.724.9,24.031.986,35.841.009,1.32.034,2.646.056,3.975a149.02,149.02,0,0,0,24.111-2.221c5.7-1.06,12.68-2.472,17.948-5.66C2745.323,1127.4,2741.662,1124.023,2739.616,1119.8Z" fill="#ffe67b" opacity="0.5" style="mix-blend-mode: multiply;isolation: isolate"/>
            <path id="Trazado_107039" data-name="Trazado 107039" d="M2570.586,1092.578c-.367,7.289-1.557,14.6-2.48,21.771-.389,3.025-.8,6.055-1.371,9.052-.478,2.5-.728,5.576-1.961,7.839-1.55,2.844-4.383,3.737-7.56,4.006-13.047,1.107-26.251-4.289-28.193-5.788a7.691,7.691,0,0,1-2.948-5.651c-1.307,2.5-1.8,4.787,1.548,7.153,5.269,3.188,12.249,4.6,17.948,5.66a148.922,148.922,0,0,0,24.112,2.221c.023-1.329.046-2.655.055-3.975.093-11.81-.639-24.117.989-35.841.2-1.476.368-3.1.462-4.826,0,0-.019,0-.022-.014C2570.98,1093.64,2570.786,1093.106,2570.586,1092.578Z" fill="#ffe67b" opacity="0.5" style="mix-blend-mode: multiply;isolation: isolate"/>
            <path id="Trazado_107040" data-name="Trazado 107040" d="M2739.616,1119.8c-4.173-8.619-6.247-18.435-9.853-27.3-1.2-2.958-2.424-6.08-3.778-9.2,1.274,3.7,2.316,7.543,3.256,11.41,1.073,4.409,1.932,8.807,2.708,13.277a58.663,58.663,0,0,0,4.609,14.493c2.56,5.729-2.057,7.675-6.85,9.385-6.241,2.23-13.436,4.729-20.169,4.106-2.758-.256-5.21-.9-7.117-3.013-1.93-2.138-1.363-6.458-1.641-9.049-1.084-10.167-2.691-20.273-3.789-30.437-.083.24-.175.473-.256.715,0,.014-.016.011-.022.014.095,1.721.259,3.35.464,4.826,1.627,11.724.9,24.031.987,35.841.009,1.32.034,2.646.056,3.975a148.921,148.921,0,0,0,24.111-2.221c5.7-1.06,12.68-2.472,17.948-5.66C2745.323,1127.4,2741.662,1124.024,2739.616,1119.8Z" fill="#ffe67b" opacity="0.5" style="mix-blend-mode: multiply;isolation: isolate"/>
          </g>
        </g>
      </g>
    </g>
  </g>
</svg>
