<svg xmlns="http://www.w3.org/2000/svg" xmlns:xlink="http://www.w3.org/1999/xlink" width="188" height="188" viewBox="0 0 188 188">
  <defs>
    <clipPath id="clip-path">
      <circle id="Elipse_4089" data-name="Elipse 4089" cx="83.663" cy="83.663" r="83.663" transform="translate(2945.06 1025.986)" fill="none"/>
    </clipPath>
  </defs>
  <g id="Grupo_1069634" data-name="Grupo 1069634" transform="translate(-284 -3870)">
    <g id="Grupo_1069633" data-name="Grupo 1069633">
      <g id="Grupo_56571" data-name="Grupo 56571" transform="translate(0 -30)">
        <circle id="Elipse_4079" data-name="Elipse 4079" cx="94" cy="94" r="94" transform="translate(284 3900)" fill="#73d8c0"/>
        <ellipse id="Elipse_4080" data-name="Elipse 4080" cx="83.5" cy="83" rx="83.5" ry="83" transform="translate(296 3911)" fill="#fff"/>
        <ellipse id="Elipse_4081" data-name="Elipse 4081" cx="83.5" cy="83" rx="83.5" ry="83" transform="translate(300 3910)" fill="#fff" opacity="0.25"/>
        <g id="Grupo_56566" data-name="Grupo 56566" transform="translate(-2649.06 2884.014)">
          <g id="Grupo_56565" data-name="Grupo 56565" clip-path="url(#clip-path)">
            <g id="Grupo_56564" data-name="Grupo 56564">
              <path id="Trazado_107041" data-name="Trazado 107041" d="M2892.574,1138.841s-23.132,0-22.878-6.993c.579-15.96,11.629-70.441,11.629-70.441l-.976-.573a28.663,28.663,0,0,0-3.383,2.07c-8.3,5.932-12.78,18.674-16.388,27.522-2.566,6.3-4.826,12.7-7.16,19.083-1.014,2.766-1.789,5.624-2.762,8.407-1.064,3.016-3.728,5.054-4.847,8.02-1.578,4.173,3.632,7.073,9.008,8.785a42.431,42.431,0,0,0,8.9,2.9c4.555,1,9.056,1.977,13.694,2.533,1.414.17,14.632.3,14.533.025.1.275.343.309.592.206h0Z" fill="#ffbe2c"/>
              <path id="Trazado_107042" data-name="Trazado 107042" d="M3043.991,1131.848c-.579-15.96-11.629-70.441-11.629-70.441l.976-.573a35.588,35.588,0,0,0-10.384-3.437c-2.316-.409-4.693-.434-6.978-.985-2.235-.536-4.365-1.417-6.544-2.124-3.022-.975-6.139-1.6-9.091-2.78-2.217-.877-4.589-1.354-6.85-2.109a18.263,18.263,0,0,1-3.716-1.541,12.7,12.7,0,0,0-2.62-1.616c-2.371-.739-4.649.681-6.607,1.852a30.358,30.358,0,0,1-7.024,3.066,60.984,60.984,0,0,1-18.33,2.072,105.535,105.535,0,0,1-16.184-1.008,19.245,19.245,0,0,1-6.765-3.041c-2.124-1.321-4.5-2.881-7.125-2.313-1.35.292-2.277,1.563-3.614,2.068-2.669,1.008-5.509,1.521-8.159,2.57-2.952,1.176-6.07,1.8-9.092,2.78-2.179.707-4.307,1.588-6.544,2.124-2.285.551-4.662.576-6.979.985a35.573,35.573,0,0,0-10.383,3.437l.976.573s-11.05,54.481-11.629,70.441c-.254,6.994,22.878,6.993,22.878,6.993l-.037,1.546h0c-.189,8.543-.565,17.119-.319,25.632.1,3.553.415,7.025.857,10.458a13.878,13.878,0,0,1-2.477,9.706,4.593,4.593,0,0,0-.853,2.037c-.028.053-.066.095-.092.148-.264,2.04.7,3.533,1.042,5.6a9.964,9.964,0,0,1-1.249,5.946c-.253.548-.5,1.1-.74,1.649a284.33,284.33,0,0,0-5.134,30.455c-.2,1.571-1.153,5.822.134,7.245,2.568,2.864,6.327,4.331,9.672,6.161,9.234,5.048,19.79,8.309,30.157,10.4a177.159,177.159,0,0,0,32.923,3.4c.128,0,.257-.006.386-.006a3.543,3.543,0,0,0,.384-.008,175.964,175.964,0,0,0,32.924-3.389c10.367-2.088,20.923-5.349,30.155-10.4,3.348-1.83,7.106-3.3,9.672-6.161,1.287-1.423.334-5.674.136-7.245a284.086,284.086,0,0,0-5.134-30.455c-.245-.551-.487-1.1-.74-1.649a9.987,9.987,0,0,1-1.251-5.946c.342-2.069,1.31-3.562,1.045-5.6-.027-.053-.066-.1-.091-.148a4.588,4.588,0,0,0-.854-2.037,13.885,13.885,0,0,1-2.48-9.706,104.5,104.5,0,0,0,.859-10.458c.245-8.513-.13-17.089-.319-25.632l-.037-1.546S3044.245,1138.842,3043.991,1131.848Z" fill="#b2b2b2"/>
              <path id="Trazado_107043" data-name="Trazado 107043" d="M2881.326,1061.408a20.667,20.667,0,0,0-5.123,3.65c-7.384,7.234-11.406,18.151-15.172,27.437-3.6,8.868-5.68,18.684-9.853,27.3-2.047,4.225-5.708,7.6-.664,11.162,5.268,3.188,12.249,4.6,17.948,5.66a148.925,148.925,0,0,0,24.112,2.221c.023-1.329.045-2.655.055-3.975.093-11.81-.639-24.117.988-35.841.206-1.476.369-3.1.441-4.84a40.236,40.236,0,0,0-2.948-6.733c-1.147-2.077-1.975-4.59-3.325-6.511-.029-.045.058-.12.1-.084,1.548,1.818,2.487,4.182,3.9,6.128a15.085,15.085,0,0,1,2.393,4.57c.129-7.117-.862-15.176-4.077-20.383C2886.947,1065.158,2883.8,1062.516,2881.326,1061.408Z" fill="#fff4a1"/>
              <path id="Trazado_107044" data-name="Trazado 107044" d="M3032.362,1061.407c-7.3-3.731-16.27-3.392-24.329-5.312-.055-.016-.091-.114-.013-.108,1.726.139,3.425.253,5.095.367-5.515-1.749-10.911-3.225-16.38-5.266-2.006-.748-4.992-1-6.666-2.387-1.149-.951-1.875-2.477-3.9-2.018a7.019,7.019,0,0,0-2.469,1.184c.013.107,3.672,30.639-26.837,30.639-30.557,0-27.457-29.189-27.456-29.2a14.573,14.573,0,0,0-2.332-1.692c-1.652-.9-3.2,1.088-4.663,1.645-1.8.682-3.659,1.157-5.458,1.828-5.471,2.041-10.865,3.517-16.383,5.266,1.673-.114,3.37-.228,5.1-.367.081-.006.043.092-.014.108-8.056,1.92-17.027,1.581-24.326,5.313,2.471,1.108,5.621,3.75,8.773,9.764-.026-.042.059-.123.1-.078,4.965,5.5,5.571,15.743,5.28,22.774-.466,11.173-1.345,22.279-1.367,33.492-.025,12.585-1.27,25.495-.471,38.047.574,8.952,2.231,17.642,3.535,26.413.026,1.869-.025,3.729-.146,5.591-1.039-4.631-2.044-9.2-2.862-13.8a.268.268,0,0,1-.053.181c-2.755,3.878-2.84,6.547-1.544,10.881.667,2.238-2.185,6.383-2.778,8.852a212.932,212.932,0,0,0-4.634,28.2c-.146,1.474-.931,6.025.53,7.053a68.643,68.643,0,0,0,6.332,3.9,124.187,124.187,0,0,0,12.637,5.866,120.04,120.04,0,0,0,29.768,7.564,148.355,148.355,0,0,0,44.843,0,120.01,120.01,0,0,0,29.767-7.564,124.3,124.3,0,0,0,12.638-5.866,68.236,68.236,0,0,0,6.333-3.9c1.459-1.028.675-5.579.531-7.053a213.1,213.1,0,0,0-4.637-28.2c-.59-2.469-3.445-6.614-2.778-8.852,1.3-4.334,1.212-7-1.543-10.881a.279.279,0,0,1-.053-.181c-.82,4.6-1.823,9.172-2.86,13.8-.123-1.862-.175-3.722-.148-5.591,1.3-8.771,2.961-17.461,3.537-26.413.8-12.552-.448-25.462-.473-38.047-.022-11.213-.9-22.319-1.365-33.492-.292-7.031.312-17.275,5.279-22.774.036-.045.123.036.095.078C3026.74,1065.157,3029.891,1062.515,3032.362,1061.407Z" fill="#fff"/>
              <path id="Trazado_107045" data-name="Trazado 107045" d="M2956.9,1086.146c5.791,0,11.74-.863,16.954-3.5a24.465,24.465,0,0,0,11.011-11.314,35.756,35.756,0,0,0,3.214-13.471c.1-1.756.753-11.283-1.98-11.329-1.586-.027-3.437,2.408-4.487,3.307a13.229,13.229,0,0,1-3.3,1.931,19.475,19.475,0,0,1-5.374,1.872c-2.132.3-4.279.487-6.413.772a96.371,96.371,0,0,1-20.541.456,53.845,53.845,0,0,1-5.478-.525,29.869,29.869,0,0,1-4.93-1.56c-2.35-.879-3.987-2.4-6.007-3.728a6.931,6.931,0,0,0-3.083-1.2c-1.056-.046-.9.549-.945,1.37-.158,2.728-.526,5.373-.422,8.126a36.089,36.089,0,0,0,2.539,12.432,24.732,24.732,0,0,0,9.319,11.384C2942.841,1084.969,2950.016,1086.146,2956.9,1086.146Z" fill="#efefef" style="mix-blend-mode: multiply;isolation: isolate"/>
              <path id="Trazado_107046" data-name="Trazado 107046" d="M2956.875,1083.929c35.739,0,28.134-37.2,28.121-37.33-1.478,1.153-2.8,2.694-4.314,3.663-4.568,2.932-9.83,3.012-14.933,3.711a86.732,86.732,0,0,1-18.932.43c-5.525-.459-11.315-.857-16.211-4.045a19.493,19.493,0,0,1-2.5-2.085C2928.1,1048.285,2921.136,1083.929,2956.875,1083.929Z" fill="#baefe4"/>
              <path id="Trazado_107047" data-name="Trazado 107047" d="M2986.062,1051.361q-.109-1.57-.321-3.13a6.292,6.292,0,0,0-.24-1.514.266.266,0,0,1-.014-.075c-.038-.269-.72-.32-.929-.207a1.326,1.326,0,0,1,.011.14c.012.159.031.319.056.477.037.183.072.366.1.551.005.039.005.078.009.117,0,.015.005.029.007.044.009.081.01.163.015.244,0,.047.007.095.009.142,0,.068,0,.136,0,.2.09.631.174,1.263.23,1.9a47.049,47.049,0,0,1-.03,8.825,33.25,33.25,0,0,1-2.769,10.671,22.791,22.791,0,0,1-7.784,9.3c-4.48,3.05-9.928,4.315-15.277,4.59-.825.042-1.65.06-2.476.062-5.547-.01-11.273-.864-16.181-3.59a22.358,22.358,0,0,1-8.591-8.538,29.792,29.792,0,0,1-3.378-10.172,41.961,41.961,0,0,1-.38-8.755c.046-.795.125-1.587.216-2.378-.013-.563-.032-1.125-.029-1.689,0-.147.016-.294.022-.442-.273-.109-.69-.195-.73.031a35.163,35.163,0,0,0-.433,3.633,43,43,0,0,0,.231,8.653,30.714,30.714,0,0,0,3.169,10.43,23,23,0,0,0,8.333,8.9,33.032,33.032,0,0,0,15.7,4.307q1.24.058,2.482.058c5.638-.01,11.453-.9,16.436-3.675a22.7,22.7,0,0,0,8.812-8.853,30.952,30.952,0,0,0,3.442-10.845A45.83,45.83,0,0,0,2986.062,1051.361Z" fill="#73d8c0"/>
              <path id="Trazado_107048" data-name="Trazado 107048" d="M2956.862,1078.506c30.509,0,26.85-30.532,26.837-30.639-1.41.992-2.676,2.317-4.116,3.15-4.36,2.522-9.382,2.591-14.252,3.191a91.754,91.754,0,0,1-18.067.37c-5.274-.394-10.8-.737-15.472-3.478a18.249,18.249,0,0,1-2.386-1.793C2929.405,1049.317,2926.3,1078.506,2956.862,1078.506Z" fill="#ededed"/>
              <path id="Trazado_107049" data-name="Trazado 107049" d="M2983.7,1047.867c-1.41.992-2.676,2.317-4.116,3.15-4.36,2.522-9.382,2.591-14.252,3.191a91.754,91.754,0,0,1-18.067.37c-5.274-.394-10.8-.737-15.472-3.478a18.249,18.249,0,0,1-2.386-1.793c0,.01-3.1,29.2,27.456,29.2C2987.371,1078.506,2983.712,1047.974,2983.7,1047.867Zm-26.869,26.239c-27.091,0-24.343-21.492-24.342-21.5a16.411,16.411,0,0,0,2.116,1.321c4.142,2.018,9.041,2.271,13.716,2.561a97.9,97.9,0,0,0,16.018-.272c4.318-.443,8.77-.493,12.636-2.35,1.277-.614,2.4-1.59,3.649-2.32C2980.635,1051.625,2983.878,1074.106,2956.83,1074.106Z" fill="#efefef" style="mix-blend-mode: multiply;isolation: isolate"/>
              <path id="Trazado_107050" data-name="Trazado 107050" d="M2984.261,1048.8a10.155,10.155,0,0,0-.211-1.381.279.279,0,0,0-.139-.169c-.067.063-.133.128-.2.187-.025.022-.051.043-.078.063a1.889,1.889,0,0,1-.161.107c-.092.056-.19.1-.283.155-.054.047-.1.095-.158.143l.135-.051a22.99,22.99,0,0,1,.157,4.464,36.232,36.232,0,0,1-1.12,7.745,26.228,26.228,0,0,1-3.937,8.659,21.5,21.5,0,0,1-8.439,6.97,32.207,32.207,0,0,1-14.43,2.564,29.832,29.832,0,0,1-13.487-3.233c-5.832-3.172-9.533-8.848-11.109-15.192a33.873,33.873,0,0,1-.968-6.951c-.028-.772-.031-1.545,0-2.317a7.289,7.289,0,0,1,.028-.9c-.161-.174-.328-.342-.5-.5l-.233-.187a.955.955,0,0,0-.238.638c-.04.6-.055,1.209-.054,1.814a34.953,34.953,0,0,0,.617,6.521c1.206,6.328,4.376,12.261,9.758,15.979a27.888,27.888,0,0,0,12.122,4.437,38.3,38.3,0,0,0,15.73-.925,22.851,22.851,0,0,0,10.192-6.025,24.115,24.115,0,0,0,5.192-8.658A35.175,35.175,0,0,0,2984.261,1048.8Z" fill="#73d8c0"/>
              <path id="Trazado_107051" data-name="Trazado 107051" d="M2956.825,1068.467c.005-.036.014-.07.019-.106a.944.944,0,0,0,.018.106Z" fill="#e0f1f3"/>
              <path id="Trazado_107052" data-name="Trazado 107052" d="M2905.688,1100.182c-.006-.228-.039-.456-.051-.682-.071,2.294-.114,4.59-.143,6.887A56.584,56.584,0,0,0,2905.688,1100.182Z" fill="#e0f1f3" style="mix-blend-mode: multiply;isolation: isolate"/>
              <path id="Trazado_107053" data-name="Trazado 107053" d="M2915.149,1055.264c.9-.518,1.79-1.036,2.7-1.531.416-.227.838-.444,1.253-.672.068-.041.295-.172.335-.2.2-.12.4-.242.6-.367a22.221,22.221,0,0,0,2.364-1.692,10.363,10.363,0,0,0,1.581-1.607,6.908,6.908,0,0,0,.934-1.338c-2.168,1.678-5.985,2.488-7.964,3.226-5.471,2.041-10.866,3.517-16.383,5.266,1.673-.114,3.37-.228,5.1-.367.081-.006.043.092-.014.108-10.069,2.4-21.576,1.251-29.449,8.963-7.384,7.234-11.407,18.151-15.172,27.437-3.6,8.868-5.68,18.684-9.853,27.3-2.047,4.225-5.708,7.6-.664,11.162,5.268,3.188,12.249,4.6,17.948,5.66a148.925,148.925,0,0,0,24.112,2.221c.023-1.329.045-2.655.055-3.975.093-11.81-.639-24.117.988-35.841.206-1.476.369-3.1.463-4.826,0,0-.019,0-.022-.014a40.236,40.236,0,0,0-2.948-6.733c-1.147-2.077-1.975-4.59-3.325-6.511-.029-.045.058-.12.1-.084,1.548,1.818,2.486,4.182,3.9,6.128a15.085,15.085,0,0,1,2.393,4.57c.114-6.33-.674-13.383-3.109-18.535a61.38,61.38,0,0,1,.443,7.212.716.716,0,0,1-1.215.5c-1.905-2.068-4.426-3.656-6.477-5.621,2.367,6.258,4.524,12.7,4.75,19.405a78.007,78.007,0,0,1-.561,11.106c-.02.87-.09,1.776-.2,2.724-.531,4.4-.728,8.683-.937,13.1-.125,2.646.067,6.955-1.77,9.121-1.5,1.771-3.68,1.793-5.863,1.79a87.582,87.582,0,0,1-11.17-.589c-3.387-.439-14.442-2.574-13.92-7.851.3-3.038,2.5-5.9,3.715-8.646,2.1-4.743,3.972-9.574,5.721-14.456,2.956-8.251,5.528-16.625,8.387-24.9.9-2.6,2.019-5.53,4.36-7.19.394-.278.8-.528,1.21-.761a17.49,17.49,0,0,1,10.061-5.811,28.7,28.7,0,0,1,7-.464c3.564.231,7.585,1.018,10.788-1.045,2.5-1.616,4.712-3.359,7.473-4.54C2913.608,1055.794,2914.375,1055.518,2915.149,1055.264Z" fill="#efefef" style="mix-blend-mode: multiply;isolation: isolate"/>
              <path id="Trazado_107054" data-name="Trazado 107054" d="M2893.478,1092.578c-.367,7.29-1.556,14.6-2.479,21.771-.39,3.025-.8,6.055-1.371,9.052-.478,2.5-.728,5.576-1.961,7.839-1.55,2.844-4.383,3.737-7.561,4.006-13.047,1.107-26.251-4.289-28.192-5.788a7.692,7.692,0,0,1-2.949-5.651c-1.306,2.5-1.8,4.787,1.549,7.153,5.268,3.188,12.249,4.6,17.948,5.66a148.923,148.923,0,0,0,24.111,2.221c.024-1.329.046-2.655.056-3.975.093-11.81-.639-24.117.988-35.841.206-1.476.369-3.1.463-4.826,0,0-.019,0-.022-.014C2893.873,1093.64,2893.678,1093.106,2893.478,1092.578Z" fill="#efefef" style="mix-blend-mode: multiply;isolation: isolate"/>
              <path id="Trazado_107055" data-name="Trazado 107055" d="M2893.571,1089.99a11.936,11.936,0,0,1,.6,1.565,52.13,52.13,0,0,0-1.49-13.986A61.563,61.563,0,0,1,2893.571,1089.99Z" fill="#e0f1f3" style="mix-blend-mode: multiply;isolation: isolate"/>
              <path id="Trazado_107056" data-name="Trazado 107056" d="M3028.534,1231.717a212.941,212.941,0,0,0-4.638-28.2c-.589-2.469-3.444-6.614-2.777-8.852,1.3-4.334,1.212-7-1.543-10.881a.279.279,0,0,1-.053-.181c-.82,4.6-1.824,9.172-2.86,13.8-.123-1.862-.175-3.722-.148-5.591,1.3-8.771,2.961-17.461,3.536-26.413.8-12.552-.447-25.462-.472-38.047-.022-11.213-.9-22.319-1.365-33.492a51.139,51.139,0,0,1,1.343-14.882c.017-.161.03-.322.05-.48-6.042,11.242-4.407,25.546-3.884,37.992a255.286,255.286,0,0,1-4.129,55.384c-2.921,16.283-8.87,32.416-19.777,45.112-4.773,5.557-10.311,10.5-17,13.619-.2.092-.4.17-.595.259,16.224-2.783,31.909-11.518,42.345-24.048.515-.616,1.274.081,1.191.693-1.58,11.654-5.313,23.313-14.679,31.07-11.262,9.33-26.792,13.753-41.244,14.159-1.436.038-3.54.038-4.986.016v-.019c-12.952-.376-26.772-3.35-37.855-10.145-10.08-6.18-23.212-17.483-20.989-30.714a.71.71,0,0,1,.876-.5c8.006,3.027,13.666,9.83,20.277,14.965a101.833,101.833,0,0,0,8.52,5.921c-7.321-7.445-14.29-15.14-18.9-24.726-6.805-14.169-9.2-29.137-9.974-44.714-.819-16.48.108-32.913.019-49.393-.045-8.24-.339-16.583-1.985-24.682a42.882,42.882,0,0,0-2.085-6.958,56.14,56.14,0,0,1,.721,12.068c-.465,11.173-1.344,22.279-1.366,33.492-.025,12.585-1.27,25.495-.471,38.047.574,8.952,2.231,17.642,3.535,26.413.026,1.869-.026,3.729-.146,5.591-1.039-4.631-2.044-9.2-2.862-13.8a.268.268,0,0,1-.053.181c-2.755,3.878-2.84,6.547-1.545,10.881.668,2.238-2.185,6.383-2.777,8.852a212.932,212.932,0,0,0-4.634,28.2c-.146,1.474-.932,6.025.529,7.053a68.789,68.789,0,0,0,6.333,3.9,124.065,124.065,0,0,0,12.637,5.866,120.022,120.022,0,0,0,29.767,7.564,148.363,148.363,0,0,0,44.844,0,119.992,119.992,0,0,0,29.766-7.564,124.1,124.1,0,0,0,12.638-5.866,68.107,68.107,0,0,0,6.333-3.9C3029.462,1237.742,3028.678,1233.191,3028.534,1231.717Z" fill="#efefef" style="mix-blend-mode: multiply;isolation: isolate"/>
              <path id="Trazado_107057" data-name="Trazado 107057" d="M2875.081,1076.843c-5.677,12-8.7,25.638-13.063,38.179-.21.6.559.442.745.05,5.882-12.344,7.624-25.655,12.557-38.212C2875.4,1076.671,2875.141,1076.715,2875.081,1076.843Z" fill="#e0f1f3" opacity="0.5" style="mix-blend-mode: screen;isolation: isolate"/>
              <path id="Trazado_107058" data-name="Trazado 107058" d="M2924.689,1202.235c-7.213-9.975-13.2-20.965-16.665-32.649-3.822-12.9-3.677-24.709-3.321-38,.289-10.815.338-21.71,1.006-32.507.595-9.6-2.254-16.583-7.04-24.924-.082-.144-.316.05-.256.176,2.45,5.223,4.958,10.658,5.8,16.349.861,5.838-.343,12.26-.354,18.168-.022,11-.8,22-1.1,33-.622,22.624,7.49,42.538,21.643,60.633C2924.5,1202.61,2924.782,1202.363,2924.689,1202.235Z" fill="#e0f1f3" opacity="0.5" style="mix-blend-mode: screen;isolation: isolate"/>
              <path id="Trazado_107059" data-name="Trazado 107059" d="M3030.716,1084.891c.028-.169-.217-.1-.248.02-3.522,12.318-.967,25.526,1.143,37.909.095.55.806.022.8-.362C3032.128,1110.068,3028.675,1097.21,3030.716,1084.891Z" fill="#e0f1f3" opacity="0.5" style="mix-blend-mode: screen;isolation: isolate"/>
              <path id="Trazado_107060" data-name="Trazado 107060" d="M2881.326,1061.408a20.685,20.685,0,0,0-5.123,3.65c-7.383,7.234-11.406,18.151-15.172,27.437-3.6,8.868-5.679,18.684-9.852,27.3-2.048,4.225-5.709,7.6-.665,11.162,5.268,3.188,12.249,4.6,17.948,5.66a148.925,148.925,0,0,0,24.112,2.221c.023-1.329.046-2.655.055-3.975.094-11.81-.639-24.117.989-35.841.205-1.476.368-3.1.44-4.84a40.236,40.236,0,0,0-2.948-6.733c-1.147-2.077-1.975-4.59-3.325-6.511-.029-.045.058-.12.1-.084,1.548,1.818,2.487,4.182,3.9,6.128a15.058,15.058,0,0,1,2.393,4.57c.13-7.117-.861-15.176-4.076-20.383C2886.948,1065.158,2883.8,1062.516,2881.326,1061.408Z" fill="#ffe67b"/>
              <path id="Trazado_107061" data-name="Trazado 107061" d="M2892.629,1134.866c.094-11.81-.639-24.117.989-35.841.205-1.476.368-3.1.463-4.826-.005,0-.02,0-.023-.014a40.156,40.156,0,0,0-2.948-6.733c-1.147-2.077-1.975-4.59-3.325-6.511-.029-.045.058-.12.1-.084,1.548,1.818,2.487,4.182,3.9,6.128a15.058,15.058,0,0,1,2.393,4.57,55.673,55.673,0,0,0-.96-11.716,37.155,37.155,0,0,1-1.685-5.7c-.153-.375-.295-.761-.464-1.118a60.962,60.962,0,0,1,.443,7.212.716.716,0,0,1-1.214.5c-1.906-2.068-4.426-3.656-6.478-5.621,2.367,6.258,4.524,12.7,4.75,19.405a77.864,77.864,0,0,1-.561,11.106c-.02.87-.09,1.776-.2,2.724-.531,4.4-.728,8.682-.937,13.1-.125,2.646.067,6.955-1.769,9.121-1.5,1.771-3.681,1.793-5.863,1.79a87.587,87.587,0,0,1-11.171-.589c-3.387-.439-14.442-2.574-13.919-7.851.3-3.038,2.5-5.9,3.714-8.646,2.1-4.743,3.972-9.574,5.721-14.456,2.956-8.251,5.528-16.625,8.388-24.9.9-2.6,2.018-5.53,4.359-7.19.394-.278.8-.528,1.21-.761a18.172,18.172,0,0,1,6.747-4.843c-.637-.395-1.266-.8-1.867-1.249a3.487,3.487,0,0,1-.775-.627,20.758,20.758,0,0,0-5.438,3.8c-7.383,7.234-11.406,18.151-15.172,27.437-3.6,8.868-5.679,18.684-9.852,27.3-2.048,4.225-5.709,7.6-.665,11.162,5.268,3.188,12.249,4.6,17.948,5.66a149.035,149.035,0,0,0,24.112,2.221C2892.6,1137.512,2892.62,1136.186,2892.629,1134.866Z" fill="#ffe67b" opacity="0.5" style="mix-blend-mode: multiply;isolation: isolate"/>
              <path id="Trazado_107062" data-name="Trazado 107062" d="M2893.479,1092.578c-.368,7.289-1.557,14.6-2.48,21.771-.39,3.025-.8,6.055-1.371,9.052-.478,2.5-.728,5.576-1.961,7.839-1.55,2.844-4.383,3.737-7.561,4.006-13.047,1.107-26.25-4.289-28.192-5.788a7.691,7.691,0,0,1-2.948-5.651c-1.307,2.5-1.8,4.787,1.548,7.153,5.268,3.188,12.249,4.6,17.948,5.66a148.925,148.925,0,0,0,24.112,2.221c.023-1.329.045-2.655.055-3.975.093-11.81-.639-24.117.988-35.841.206-1.476.369-3.1.463-4.826,0,0-.019,0-.022-.014C2893.873,1093.64,2893.679,1093.106,2893.479,1092.578Z" fill="#ffe67b" opacity="0.5" style="mix-blend-mode: multiply;isolation: isolate"/>
              <g id="Grupo_56563" data-name="Grupo 56563">
                <path id="Trazado_107063" data-name="Trazado 107063" d="M3067.88,1151.856c-1.121-4.148-3.787-7-4.849-11.214-.973-3.891-1.748-7.886-2.763-11.754-2.333-8.924-4.593-17.876-7.159-26.68-3.608-12.372-8.09-30.186-16.388-38.48a29.119,29.119,0,0,0-3.383-2.894l-.976.8s11.05,76.172,11.629,98.486c.254,9.779-22.878,9.778-22.878,9.778l.037,2.161c.25.144.489.1.592-.288-.1.381,13.119.2,14.531-.035a106.91,106.91,0,0,0,13.7-3.541,34.661,34.661,0,0,0,8.9-4.057C3064.246,1161.744,3069.456,1157.69,3067.88,1151.856Z" fill="#73d8c0"/>
                <path id="Trazado_107064" data-name="Trazado 107064" d="M3062.509,1143.274c-4.173-12.05-6.247-25.775-9.853-38.174-3.764-12.982-7.79-28.246-15.171-38.36a22.461,22.461,0,0,0-5.123-5.1c-2.471,1.55-5.622,5.243-8.774,13.653-3.214,7.28-4.206,18.548-4.076,28.5a24.937,24.937,0,0,1,2.394-6.39c1.412-2.72,2.352-6.025,3.9-8.566.037-.051.126.054.1.116-1.351,2.686-2.18,6.2-3.328,9.1a72.248,72.248,0,0,0-2.969,9.434c.094,2.406.258,4.684.464,6.748,1.627,16.391.9,33.6.987,50.11.008,1.846.033,3.7.056,5.558a108.007,108.007,0,0,0,24.111-3.106c5.7-1.481,12.68-3.455,17.948-7.914C3068.216,1153.9,3064.555,1149.182,3062.509,1143.274Z" fill="#fff4a1"/>
                <path id="Trazado_107065" data-name="Trazado 107065" d="M3062.509,1143.274c-4.173-12.05-6.247-25.775-9.853-38.174-1.2-4.135-2.424-8.5-3.778-12.858,1.273,5.178,2.316,10.545,3.256,15.952,1.073,6.165,1.932,12.314,2.707,18.564a106.9,106.9,0,0,0,4.61,20.263c2.56,8.011-2.058,10.731-6.851,13.122-6.241,3.117-13.436,6.611-20.169,5.741a9.028,9.028,0,0,1-7.117-4.214c-1.929-2.989-1.362-9.029-1.64-12.652-1.084-14.214-2.691-28.343-3.789-42.554-.084.335-.175.661-.256,1,0,.02-.017.016-.022.02.094,2.406.258,4.684.464,6.748,1.626,16.391.9,33.6.987,50.11.008,1.846.033,3.7.055,5.558a108.008,108.008,0,0,0,24.112-3.106c5.7-1.481,12.68-3.455,17.948-7.914C3068.216,1153.9,3064.555,1149.182,3062.509,1143.274Z" fill="#f9ce46"/>
                <path id="Trazado_107066" data-name="Trazado 107066" d="M3062.509,1143.274c-4.173-12.05-6.247-25.775-9.853-38.174-3.764-12.982-7.789-28.246-15.17-38.36a22.484,22.484,0,0,0-5.124-5.1c-2.471,1.55-5.622,5.243-8.774,13.653-3.214,7.28-4.206,18.548-4.075,28.5a24.9,24.9,0,0,1,2.393-6.39c1.412-2.72,2.352-6.025,3.9-8.566.037-.051.126.054.1.116-1.351,2.686-2.18,6.2-3.328,9.1a72.4,72.4,0,0,0-2.969,9.434c.095,2.406.259,4.684.464,6.748,1.627,16.391.9,33.6.987,50.11.009,1.846.034,3.7.056,5.558a108.007,108.007,0,0,0,24.111-3.106c5.7-1.481,12.68-3.455,17.948-7.914C3068.216,1153.9,3064.555,1149.182,3062.509,1143.274Z" fill="#baefe4"/>
                <path id="Trazado_107067" data-name="Trazado 107067" d="M3062.509,1143.274c-4.173-12.05-6.247-25.775-9.853-38.174-3.764-12.982-7.789-28.246-15.17-38.36a22.587,22.587,0,0,0-4.922-4.969c-1.071,1.195-2.184,2.334-3.282,3.491a10.47,10.47,0,0,1,3.519,4.261c.6.677,1.179,1.384,1.732,2.146,5.977,8.275,8.63,20.037,11.276,30.924q2.49,10.25,4.595,20.675c1.321,6.5,3.2,13.378,3.873,20.079a17.218,17.218,0,0,1,.039,3.327c.067.323.142.646.209.968a.933.933,0,0,1-.64,1.213c-1.5,4.968-6.224,6.184-10.3,7.972-3.928,1.722-11.7,4.618-13.125-3.331-1.153-6.417-1.52-13.219-2.263-19.753-.806-7.086-1.787-14.191-2.357-21.328-.842-10.56,1.634-19.827,5.6-28.351a3.8,3.8,0,0,1-.8-.976,51.492,51.492,0,0,0-6.339,5.31c-.514.494-1.231-.319-1.045-1.123a83.323,83.323,0,0,0,2.28-14.7,27.474,27.474,0,0,0-2.9,2.282,46.975,46.975,0,0,0-4.536,19.031c-.028,1.684.024,3.362.111,5.038.283-8.522,1.555-17.992,5.274-23.746.036-.062.122.05.094.108-3.214,7.281-4.206,18.549-4.075,28.5a24.9,24.9,0,0,1,2.393-6.39c1.412-2.72,2.352-6.025,3.9-8.566.037-.051.126.054.1.116-1.351,2.686-2.18,6.2-3.328,9.1a69.742,69.742,0,0,0-2.947,9.414c0,.02-.016.016-.022.02.095,2.406.259,4.684.464,6.748,1.627,16.391.9,33.6.987,50.11.009,1.846.034,3.7.056,5.558a108.007,108.007,0,0,0,24.111-3.106c5.7-1.481,12.68-3.455,17.948-7.914C3068.216,1153.9,3064.555,1149.182,3062.509,1143.274Z" transform="translate(0.753 -0.937)" fill="#73d8c0" opacity="0.5" style="mix-blend-mode: multiply;isolation: isolate"/>
                <path id="Trazado_107068" data-name="Trazado 107068" d="M3062.509,1143.274c-4.173-12.05-6.247-25.775-9.853-38.174-1.2-4.135-2.424-8.5-3.778-12.858,1.273,5.178,2.316,10.545,3.256,15.952,1.073,6.165,1.932,12.314,2.707,18.564a106.9,106.9,0,0,0,4.61,20.263c2.56,8.011-2.058,10.731-6.85,13.122-6.242,3.117-13.436,6.611-20.17,5.741a9.03,9.03,0,0,1-7.117-4.214c-1.929-2.989-1.362-9.029-1.64-12.652-1.084-14.214-2.691-28.343-3.789-42.554-.084.335-.175.661-.256,1,0,.02-.017.016-.022.02.094,2.406.258,4.684.464,6.748,1.627,16.391.9,33.6.987,50.11.008,1.846.033,3.7.056,5.558a108.007,108.007,0,0,0,24.111-3.106c5.7-1.481,12.68-3.455,17.948-7.914C3068.216,1153.9,3064.555,1149.182,3062.509,1143.274Z" transform="translate(0)" fill="#73d8c0" opacity="0.5" style="mix-blend-mode: multiply;isolation: isolate"/>
              </g>
            </g>
          </g>
        </g>
      </g>
    </g>
  </g>
</svg>
