<svg xmlns="http://www.w3.org/2000/svg" width="129.793" height="141.999" viewBox="0 0 129.793 141.999">
  <g id="Grupo_1069630" data-name="Grupo 1069630" transform="translate(-836.293 -4792.518)">
    <g id="Grupo_1067776" data-name="Grupo 1067776" transform="translate(91.293 -87.879)">
      <path id="Trazado_771771" data-name="Trazado 771771" d="M3.029,901.384c-4.854-10.632-9.623-21.763-18.282-29.613S-37.772,860.4-47.38,867.054c-6.449,4.467-9.558,12.294-14.67,18.244-4.391,5.111-10.2,8.763-15.273,13.2s-9.639,10.174-10.116,16.9c-.78,11,9.328,19.569,19.151,24.571a108.718,108.718,0,0,0,54.973,11.61c9.6-.525,35.933-4.308,36.339-17.97.161-5.407-6.641-9.634-9.612-13.5C9.069,914.456,5.973,907.832,3.029,901.384Z" transform="translate(832.481 4070.664)" fill="#025157"/>
      <g id="Grupo_1054388" data-name="Grupo 1054388" transform="translate(-912.32 4916.916)">
        <path id="Trazado_771758" data-name="Trazado 771758" d="M1719.933,176.872c-.182.885-.264,2.007.516,2.607a2.69,2.69,0,0,0,2.063.7c1.4-.258,1.346-1.325,1.433-2.566a4.56,4.56,0,0,0-.191-1.961,1.924,1.924,0,0,0-1.413-1.263,1.886,1.886,0,0,0-1.675.738A4,4,0,0,0,1719.933,176.872Z" transform="translate(-41.887 -116.568)" fill="#f5947a"/>
        <path id="Trazado_771759" data-name="Trazado 771759" d="M1693.235,139.81a1.538,1.538,0,0,0-.07-.525,1.6,1.6,0,0,0-.221-.369l-.538-.74a2.393,2.393,0,0,0-.7-.718,1.544,1.544,0,0,0-1.292-.05,3.429,3.429,0,0,0-1.1.744,4.094,4.094,0,0,0-.978,1.26c-.875,1.919.766,4.314,2.5,5.127C1693.355,145.713,1693.253,141.144,1693.235,139.81Z" transform="translate(-16.752 -87.181)" fill="#f5947a"/>
        <path id="Trazado_771760" data-name="Trazado 771760" d="M1672.416,97.065a1.971,1.971,0,0,0-.572-.742,9.418,9.418,0,0,0-3.04-2.169,1.5,1.5,0,0,0-1.11-.061,1.646,1.646,0,0,0-.724,1.5c-.083,1.526.495,3.719,2.291,4.036C1670.473,99.846,1672.925,98.534,1672.416,97.065Z" transform="translate(0 -52.875)" fill="#f5947a"/>
        <path id="Trazado_771761" data-name="Trazado 771761" d="M1690.61,45.548c-.439-.847-1.187-1.7-2.14-1.654a3.006,3.006,0,0,0-1.638.819,4.065,4.065,0,0,0-1.377,1.552,3.483,3.483,0,0,0-.2,1.04A3.3,3.3,0,0,0,1689.113,51C1691.53,50.505,1691.491,47.247,1690.61,45.548Z" transform="translate(-14.492 -13.152)" fill="#f5947a"/>
        <path id="Trazado_771762" data-name="Trazado 771762" d="M1733.282,30.8a3.441,3.441,0,0,0,.345-.975,3.212,3.212,0,0,0-.284-1.546,1.55,1.55,0,0,0-.605-.877,1.476,1.476,0,0,0-1.341.169,16.573,16.573,0,0,0-3.626,2.832,3.287,3.287,0,0,0-.615.7,2.247,2.247,0,0,0-.273,1.073c-.042,1.475,1.267,3.1,2.861,2.587C1731.555,34.178,1732.528,32.4,1733.282,30.8Z" transform="translate(-47.492 0)" fill="#f5947a"/>
        <path id="Trazado_771763" data-name="Trazado 771763" d="M1715.629,93.454a3.01,3.01,0,0,0,.662-.8,1.455,1.455,0,0,0-.507-1.475,5.064,5.064,0,0,0-1.837-1.084,2.058,2.058,0,0,0-1.334-.134,1.556,1.556,0,0,0-.908.976,4.438,4.438,0,0,0-.2,1.36c-.041,1.118-.015,3.135,1.478,3.332C1714.38,95.807,1714.9,94.272,1715.629,93.454Z" transform="translate(-35.299 -49.611)" fill="#f5947a"/>
        <path id="Trazado_771764" data-name="Trazado 771764" d="M1755.448,78.825a2.137,2.137,0,0,0-1.456-2.078,3.529,3.529,0,0,0-1.639-.019,4.262,4.262,0,0,0-1.3.4,3.708,3.708,0,0,0-1.689,2.419,3.5,3.5,0,0,0-.075,1.651c.369,1.59,2.36,2.338,3.837,1.869C1754.783,82.537,1755.377,80.354,1755.448,78.825Z" transform="translate(-65.2 -39.108)" fill="#f5947a"/>
        <path id="Trazado_771765" data-name="Trazado 771765" d="M1781.446,121.187a4.676,4.676,0,0,0,.116-1.316,2.49,2.49,0,0,0-.423-1.681,2.413,2.413,0,0,0-1.786-.566,4.9,4.9,0,0,0-1.481.119,1.633,1.633,0,0,0-1.172,2.3,3.787,3.787,0,0,0,2.4,2.423A1.98,1.98,0,0,0,1781.446,121.187Z" transform="translate(-86.87 -71.587)" fill="#f5947a"/>
        <path id="Trazado_771766" data-name="Trazado 771766" d="M1736.9,132.044a4.137,4.137,0,0,0-1.06-1.977,4.713,4.713,0,0,0-2.732-1.967.821.821,0,0,0-1.07.6,3.628,3.628,0,0,0,.087,2.257,9.263,9.263,0,0,0,1.061,2.03c.452.7,1.244,1.868,2.237,1.608A2.547,2.547,0,0,0,1736.9,132.044Z" transform="translate(-51.468 -79.881)" fill="#f5947a"/>
        <path id="Trazado_771767" data-name="Trazado 771767" d="M1776.033,162.2a2.282,2.282,0,0,0-.793-1.823,2.673,2.673,0,0,0-1.723-.353,2.352,2.352,0,0,0-1.355.389,2.385,2.385,0,0,0-.7,1.717,5.814,5.814,0,0,0,.134,2.108c.3,1.073,1.445,2.486,2.652,1.779A4.611,4.611,0,0,0,1776.033,162.2Z" transform="translate(-82.795 -105.193)" fill="#f5947a"/>
      </g>
    </g>
    <g id="Grupo_55970" data-name="Grupo 55970" transform="translate(800.565 4721.108)">
      <path id="Trazado_106345" data-name="Trazado 106345" d="M81.868,113.791l.953-22.776,26.674-8.488h.011V71.409h26.654V82.527h.011l26.673,8.488.953,22.776-19.05,54.12,18.917,34.5H82L100.878,167.8Z" transform="translate(1.725 0)" fill="#8c757e" fill-rule="evenodd"/>
      <path id="Trazado_106346" data-name="Trazado 106346" d="M102.254,71.409h13.327V82.527h.011l26.673,8.488.953,22.776-19.05,54.12,18.917,34.5H102.254Z" transform="translate(22.303 0)" fill="#636363" fill-rule="evenodd"/>
      <path id="Trazado_106347" data-name="Trazado 106347" d="M95.314,107.87l-5.307,7.224c-.508.691,6.3,10.628,7.34,6.961l1.549-5.431,6.394-5.267c.719-.595,1.849-6.3,1.471-7.157h0a1.7,1.7,0,0,0-2.24-.866C102.783,104.1,96.4,106.387,95.314,107.87Z" transform="translate(9.914 32.077)" fill="#eebe69" fill-rule="evenodd"/>
      <path id="Trazado_106348" data-name="Trazado 106348" d="M102.7,101.951l-9.2,4.073a1.963,1.963,0,0,0-1,2.584h0a1.965,1.965,0,0,0,2.584,1l9.2-4.073a1.965,1.965,0,0,0,1-2.584v0A1.965,1.965,0,0,0,102.7,101.951Z" transform="translate(12.293 30.66)" fill="#ffdba7" fill-rule="evenodd"/>
      <path id="Trazado_106349" data-name="Trazado 106349" d="M106.981,113.978l-4.37-1.5c-.6-.2-5.6,5.53-6.374-2.156-.133-1.318-5.618-2.678-6.076-1.433-.926,2.512-1.969,5.329-2.005,7.5-.032,2,5.212,8.578,4.019,13.447l9.981.352a3.71,3.71,0,0,0,3.587-2.765l2.3-9.34C108.358,116.789,108.235,114.41,106.981,113.978Z" transform="translate(8.071 37.335)" fill="#ffdba7" fill-rule="evenodd"/>
      <path id="Trazado_106350" data-name="Trazado 106350" d="M102.967,119.936l-.8,2.508H89.942a10.981,10.981,0,0,0,.309-5.484Z" transform="translate(9.875 45.979)" fill="#ffdba7" fill-rule="evenodd"/>
      <path id="Trazado_106351" data-name="Trazado 106351" d="M80.159,154.967l20.089-36.557,12.964,2.242-18.2,34.276Z" transform="translate(0 47.442)" fill="#ffad54" fill-rule="evenodd"/>
      <path id="Trazado_106352" data-name="Trazado 106352" d="M95.417,105.022l-6.123,8.333a1.693,1.693,0,0,0,.989,2.468h0c1.386.51,2.6,3.768,4.676-.659l3.788-8.1c.456-.977.518-2.355-.492-2.727h0c-.635-.233-1.047-.541-1.608-.36A2.867,2.867,0,0,0,95.417,105.022Z" transform="translate(8.959 32.821)" fill="#ffdba7" fill-rule="evenodd"/>
      <path id="Trazado_106353" data-name="Trazado 106353" d="M128.294,77.686l21.983,6.993.953,22.776-19.051,54.12,18.918,34.5L110,188.753,94.318,107.172Z" transform="translate(14.292 6.336)" fill="#ade9f0" fill-rule="evenodd"/>
      <path id="Trazado_106354" data-name="Trazado 106354" d="M103.4,104.175h0a2.343,2.343,0,0,0-3,1.384c-1.455,3.952-2.825,8.05-4.5,11.9l-1.3,3.866a2.365,2.365,0,0,0,1.384,3h0c1.206.446,1.931-.673,3-1.384l2.779-1.849a30.346,30.346,0,0,1,1.125-6.924l1.9-6.995A2.424,2.424,0,0,0,103.4,104.175Z" transform="translate(14.445 32.929)" fill="#ffdba7" fill-rule="evenodd"/>
    </g>
  </g>
</svg>
